G04 #@! TF.GenerationSoftware,KiCad,Pcbnew,5.0.2-bee76a0~70~ubuntu18.04.1*
G04 #@! TF.CreationDate,2020-07-22T02:23:45-04:00*
G04 #@! TF.ProjectId,synth,73796e74-682e-46b6-9963-61645f706362,rev?*
G04 #@! TF.SameCoordinates,Original*
G04 #@! TF.FileFunction,Legend,Top*
G04 #@! TF.FilePolarity,Positive*
%FSLAX46Y46*%
G04 Gerber Fmt 4.6, Leading zero omitted, Abs format (unit mm)*
G04 Created by KiCad (PCBNEW 5.0.2-bee76a0~70~ubuntu18.04.1) date Wed 22 Jul 2020 02:23:45 AM EDT*
%MOMM*%
%LPD*%
G01*
G04 APERTURE LIST*
%ADD10C,0.300000*%
%ADD11C,0.500000*%
%ADD12C,0.120000*%
%ADD13C,0.150000*%
G04 APERTURE END LIST*
D10*
X89278571Y-106675700D02*
X89278571Y-107532843D01*
X89278571Y-107104271D02*
X87778571Y-107104271D01*
X87992857Y-107247128D01*
X88135714Y-107389985D01*
X88207142Y-107532843D01*
X89278571Y-106032843D02*
X87778571Y-106032843D01*
X88707142Y-105889985D02*
X89278571Y-105461414D01*
X88278571Y-105461414D02*
X88850000Y-106032843D01*
X87778571Y-104532843D02*
X87778571Y-104389985D01*
X87850000Y-104247128D01*
X87921428Y-104175700D01*
X88064285Y-104104271D01*
X88350000Y-104032843D01*
X88707142Y-104032843D01*
X88992857Y-104104271D01*
X89135714Y-104175700D01*
X89207142Y-104247128D01*
X89278571Y-104389985D01*
X89278571Y-104532843D01*
X89207142Y-104675700D01*
X89135714Y-104747128D01*
X88992857Y-104818557D01*
X88707142Y-104889985D01*
X88350000Y-104889985D01*
X88064285Y-104818557D01*
X87921428Y-104747128D01*
X87850000Y-104675700D01*
X87778571Y-104532843D01*
D11*
X125200000Y-142000000D02*
X142900000Y-124700000D01*
X126800000Y-143600000D02*
X125200000Y-142000000D01*
X131700000Y-148700000D02*
X126800000Y-143600000D01*
X138700000Y-153600000D02*
X131700000Y-148700000D01*
X146900000Y-157400000D02*
X138700000Y-153600000D01*
X154300000Y-159200000D02*
X146900000Y-157400000D01*
X170100000Y-158700000D02*
X166700000Y-159300000D01*
X177400000Y-156000000D02*
X170100000Y-158700000D01*
X197100000Y-138600000D02*
X196500000Y-139700000D01*
X198300000Y-136000000D02*
X197100000Y-138600000D01*
X200600000Y-130200000D02*
X199900000Y-132400000D01*
X201900000Y-124100000D02*
X200600000Y-130200000D01*
X202500000Y-117800000D02*
X201900000Y-124100000D01*
X202400000Y-112400000D02*
X202500000Y-117800000D01*
X201600000Y-108400000D02*
X202400000Y-112400000D01*
X199400000Y-102300000D02*
X201600000Y-108400000D01*
X196100000Y-95200000D02*
X199400000Y-102300000D01*
X193900000Y-91600000D02*
X196100000Y-95200000D01*
X190200000Y-87600000D02*
X193900000Y-91600000D01*
X185400000Y-82900000D02*
X190200000Y-87600000D01*
X173500000Y-95000000D02*
X185400000Y-82900000D01*
X160400000Y-108300000D02*
X165600000Y-102900000D01*
X158000000Y-105900000D02*
X160400000Y-108300000D01*
X202500000Y-49300000D02*
X153900000Y-97600000D01*
X192600000Y-39300000D02*
X202500000Y-49300000D01*
X142100000Y-89900000D02*
X192600000Y-39300000D01*
X139500000Y-87400000D02*
X142100000Y-89900000D01*
X187300000Y-33800000D02*
X138800000Y-81900000D01*
X177200000Y-23900000D02*
X187300000Y-33800000D01*
X126800000Y-74700000D02*
X177200000Y-23900000D01*
X118500000Y-66600000D02*
X126800000Y-74700000D01*
X143900000Y-41600000D02*
X118500000Y-66600000D01*
X137400000Y-34900000D02*
X143900000Y-41600000D01*
X131900000Y-30800000D02*
X137400000Y-34900000D01*
X125500000Y-27600000D02*
X131900000Y-30800000D01*
X117900000Y-25200000D02*
X125500000Y-27600000D01*
X113000000Y-24600000D02*
X117900000Y-25200000D01*
X106700000Y-24600000D02*
X113000000Y-24600000D01*
X102500000Y-25000000D02*
X106700000Y-24600000D01*
X97400000Y-26300000D02*
X102500000Y-25000000D01*
X92400000Y-28100000D02*
X97400000Y-26300000D01*
X87700000Y-30800000D02*
X92400000Y-28100000D01*
X83200000Y-33700000D02*
X87700000Y-30800000D01*
X79300000Y-37000000D02*
X83200000Y-33700000D01*
X75700000Y-40800000D02*
X79300000Y-37000000D01*
X73100000Y-44500000D02*
X75700000Y-40800000D01*
X70900000Y-48700000D02*
X73100000Y-44500000D01*
X68900000Y-54300000D02*
X70900000Y-48700000D01*
X67800000Y-60100000D02*
X68900000Y-54300000D01*
X67200000Y-65400000D02*
X67800000Y-60100000D01*
X67500000Y-72100000D02*
X67200000Y-65400000D01*
X70100000Y-82200000D02*
X67500000Y-72100000D01*
X73500000Y-89100000D02*
X70100000Y-82200000D01*
X78200000Y-95200000D02*
X73500000Y-89100000D01*
X83400000Y-100500000D02*
X78200000Y-95200000D01*
X97100000Y-87000000D02*
X92600000Y-91400000D01*
X108500000Y-75600000D02*
X101200000Y-83000000D01*
X115300000Y-82100000D02*
X108500000Y-75600000D01*
X66800000Y-134600000D02*
X89600000Y-111700000D01*
X76300000Y-144400000D02*
X66800000Y-134600000D01*
X101600000Y-119200000D02*
X76300000Y-144400000D01*
X126900000Y-93800000D02*
X123400000Y-97300000D01*
X132500000Y-99400000D02*
X126900000Y-93800000D01*
X125100000Y-107200000D02*
X132500000Y-99400000D01*
X82300000Y-150100000D02*
X91200000Y-141100000D01*
X92000000Y-159800000D02*
X82300000Y-150100000D01*
X142700000Y-109400000D02*
X92000000Y-159800000D01*
X143400000Y-110100000D02*
X142700000Y-109400000D01*
X148600000Y-143900000D02*
X145300000Y-142100000D01*
X151500000Y-145100000D02*
X148600000Y-143900000D01*
X156600000Y-146200000D02*
X151500000Y-145100000D01*
X161200000Y-146400000D02*
X156600000Y-146200000D01*
X170700000Y-144500000D02*
X165300000Y-146000000D01*
X175400000Y-142400000D02*
X170700000Y-144500000D01*
X178700000Y-139800000D02*
X175400000Y-142400000D01*
X181800000Y-136900000D02*
X178700000Y-139800000D01*
X184700000Y-133300000D02*
X181800000Y-136900000D01*
X188600000Y-123800000D02*
X187800000Y-126800000D01*
X189200000Y-119600000D02*
X188600000Y-123800000D01*
X189200000Y-114700000D02*
X189200000Y-119600000D01*
X188400000Y-110200000D02*
X189200000Y-114700000D01*
X186800000Y-105900000D02*
X188400000Y-110200000D01*
X185100000Y-102300000D02*
X186800000Y-105900000D01*
X145300000Y-142100000D02*
X185100000Y-102300000D01*
X124800000Y-42100000D02*
X84900000Y-82000000D01*
X123300000Y-41200000D02*
X124800000Y-42100000D01*
X102000000Y-38800000D02*
X103900000Y-38400000D01*
X98000000Y-40300000D02*
X102000000Y-38800000D01*
X94200000Y-42300000D02*
X98000000Y-40300000D01*
X91500000Y-44100000D02*
X94200000Y-42300000D01*
X88100000Y-47300000D02*
X91500000Y-44100000D01*
X85200000Y-51200000D02*
X88100000Y-47300000D01*
X82900000Y-55300000D02*
X85200000Y-51200000D01*
X81100000Y-62300000D02*
X82900000Y-55300000D01*
X80600000Y-67000000D02*
X81100000Y-62300000D01*
X81000000Y-71600000D02*
X80600000Y-67000000D01*
X82700000Y-77300000D02*
X81000000Y-71600000D01*
X84900000Y-81900000D02*
X82700000Y-77300000D01*
X106000000Y-44900000D02*
X98800000Y-52100000D01*
X158600000Y-156700000D02*
X156900000Y-156700000D01*
X163700000Y-156700000D02*
X161700000Y-156700000D01*
X162700000Y-155600000D02*
X162700000Y-157700000D01*
D10*
X181140354Y-152575736D02*
X182201014Y-151515076D01*
X181746446Y-153181828D01*
X182807106Y-152121167D01*
X182251522Y-153686904D02*
X183312182Y-152626244D01*
X183716243Y-153030305D01*
X183766751Y-153181828D01*
X183766751Y-153282843D01*
X183716243Y-153434366D01*
X183564720Y-153585889D01*
X183413197Y-153636396D01*
X183312182Y-153636396D01*
X183160659Y-153585889D01*
X182756598Y-153181828D01*
X180540354Y-145975736D02*
X181601014Y-144915076D01*
X181146446Y-146581828D01*
X182207106Y-145521167D01*
X181651522Y-147086904D02*
X182712182Y-146026244D01*
X183116243Y-146430305D01*
X183166751Y-146581828D01*
X183166751Y-146682843D01*
X183116243Y-146834366D01*
X182964720Y-146985889D01*
X182813197Y-147036396D01*
X182712182Y-147036396D01*
X182560659Y-146985889D01*
X182156598Y-146581828D01*
X183340354Y-143275736D02*
X184401014Y-142215076D01*
X183946446Y-143881828D01*
X185007106Y-142821167D01*
X184451522Y-144386904D02*
X185512182Y-143326244D01*
X185916243Y-143730305D01*
X185966751Y-143881828D01*
X185966751Y-143982843D01*
X185916243Y-144134366D01*
X185764720Y-144285889D01*
X185613197Y-144336396D01*
X185512182Y-144336396D01*
X185360659Y-144285889D01*
X184956598Y-143881828D01*
X186440354Y-140075736D02*
X187501014Y-139015076D01*
X187046446Y-140681828D01*
X188107106Y-139621167D01*
X187551522Y-141186904D02*
X188612182Y-140126244D01*
X189016243Y-140530305D01*
X189066751Y-140681828D01*
X189066751Y-140782843D01*
X189016243Y-140934366D01*
X188864720Y-141085889D01*
X188713197Y-141136396D01*
X188612182Y-141136396D01*
X188460659Y-141085889D01*
X188056598Y-140681828D01*
X192640354Y-140575736D02*
X193701014Y-139515076D01*
X193246446Y-141181828D01*
X194307106Y-140121167D01*
X193751522Y-141686904D02*
X194812182Y-140626244D01*
X195216243Y-141030305D01*
X195266751Y-141181828D01*
X195266751Y-141282843D01*
X195216243Y-141434366D01*
X195064720Y-141585889D01*
X194913197Y-141636396D01*
X194812182Y-141636396D01*
X194660659Y-141585889D01*
X194256598Y-141181828D01*
X193437150Y-124444329D02*
X193437150Y-125301472D01*
X193437150Y-124872900D02*
X191937150Y-124872900D01*
X192151436Y-125015757D01*
X192294293Y-125158614D01*
X192365721Y-125301472D01*
X191937150Y-123515757D02*
X191937150Y-123372900D01*
X192008579Y-123230043D01*
X192080007Y-123158614D01*
X192222864Y-123087186D01*
X192508579Y-123015757D01*
X192865721Y-123015757D01*
X193151436Y-123087186D01*
X193294293Y-123158614D01*
X193365721Y-123230043D01*
X193437150Y-123372900D01*
X193437150Y-123515757D01*
X193365721Y-123658614D01*
X193294293Y-123730043D01*
X193151436Y-123801472D01*
X192865721Y-123872900D01*
X192508579Y-123872900D01*
X192222864Y-123801472D01*
X192080007Y-123730043D01*
X192008579Y-123658614D01*
X191937150Y-123515757D01*
X193437150Y-122372900D02*
X191937150Y-122372900D01*
X192865721Y-122230043D02*
X193437150Y-121801472D01*
X192437150Y-121801472D02*
X193008579Y-122372900D01*
X193537150Y-108044329D02*
X193537150Y-108901472D01*
X193537150Y-108472900D02*
X192037150Y-108472900D01*
X192251436Y-108615757D01*
X192394293Y-108758614D01*
X192465721Y-108901472D01*
X192037150Y-107115757D02*
X192037150Y-106972900D01*
X192108579Y-106830043D01*
X192180007Y-106758614D01*
X192322864Y-106687186D01*
X192608579Y-106615757D01*
X192965721Y-106615757D01*
X193251436Y-106687186D01*
X193394293Y-106758614D01*
X193465721Y-106830043D01*
X193537150Y-106972900D01*
X193537150Y-107115757D01*
X193465721Y-107258614D01*
X193394293Y-107330043D01*
X193251436Y-107401472D01*
X192965721Y-107472900D01*
X192608579Y-107472900D01*
X192322864Y-107401472D01*
X192180007Y-107330043D01*
X192108579Y-107258614D01*
X192037150Y-107115757D01*
X193537150Y-105972900D02*
X192037150Y-105972900D01*
X192965721Y-105830043D02*
X193537150Y-105401472D01*
X192537150Y-105401472D02*
X193108579Y-105972900D01*
X168121428Y-153207142D02*
X168050000Y-153350000D01*
X167978571Y-153421428D01*
X167835714Y-153492857D01*
X167764285Y-153492857D01*
X167621428Y-153421428D01*
X167550000Y-153350000D01*
X167478571Y-153207142D01*
X167478571Y-152921428D01*
X167550000Y-152778571D01*
X167621428Y-152707142D01*
X167764285Y-152635714D01*
X167835714Y-152635714D01*
X167978571Y-152707142D01*
X168050000Y-152778571D01*
X168121428Y-152921428D01*
X168121428Y-153207142D01*
X168192857Y-153350000D01*
X168264285Y-153421428D01*
X168407142Y-153492857D01*
X168692857Y-153492857D01*
X168835714Y-153421428D01*
X168907142Y-153350000D01*
X168978571Y-153207142D01*
X168978571Y-152921428D01*
X168907142Y-152778571D01*
X168835714Y-152707142D01*
X168692857Y-152635714D01*
X168407142Y-152635714D01*
X168264285Y-152707142D01*
X168192857Y-152778571D01*
X168121428Y-152921428D01*
X167478571Y-151707142D02*
X167478571Y-151564285D01*
X167550000Y-151421428D01*
X167621428Y-151350000D01*
X167764285Y-151278571D01*
X168050000Y-151207142D01*
X168407142Y-151207142D01*
X168692857Y-151278571D01*
X168835714Y-151350000D01*
X168907142Y-151421428D01*
X168978571Y-151564285D01*
X168978571Y-151707142D01*
X168907142Y-151850000D01*
X168835714Y-151921428D01*
X168692857Y-151992857D01*
X168407142Y-152064285D01*
X168050000Y-152064285D01*
X167764285Y-151992857D01*
X167621428Y-151921428D01*
X167550000Y-151850000D01*
X167478571Y-151707142D01*
X168978571Y-149707142D02*
X168264285Y-150207142D01*
X168978571Y-150564285D02*
X167478571Y-150564285D01*
X167478571Y-149992857D01*
X167550000Y-149850000D01*
X167621428Y-149778571D01*
X167764285Y-149707142D01*
X167978571Y-149707142D01*
X168121428Y-149778571D01*
X168192857Y-149850000D01*
X168264285Y-149992857D01*
X168264285Y-150564285D01*
X147948477Y-120711167D02*
X147342385Y-121317259D01*
X147645431Y-121014213D02*
X146584771Y-119953553D01*
X146635278Y-120206091D01*
X146635278Y-120408122D01*
X146584771Y-120559644D01*
X147544416Y-118993908D02*
X147645431Y-118892893D01*
X147796954Y-118842385D01*
X147897969Y-118842385D01*
X148049492Y-118892893D01*
X148302030Y-119044416D01*
X148554568Y-119296954D01*
X148706091Y-119549492D01*
X148756599Y-119701015D01*
X148756599Y-119802030D01*
X148706091Y-119953553D01*
X148605076Y-120054568D01*
X148453553Y-120105076D01*
X148352538Y-120105076D01*
X148201015Y-120054568D01*
X147948477Y-119903045D01*
X147695938Y-119650507D01*
X147544416Y-119397969D01*
X147493908Y-119246446D01*
X147493908Y-119145431D01*
X147544416Y-118993908D01*
X149413198Y-119246446D02*
X148352538Y-118185786D01*
X149110152Y-118741370D02*
X149817259Y-118842385D01*
X149110152Y-118135278D02*
X149110152Y-118943400D01*
X145048477Y-117911167D02*
X144442385Y-118517259D01*
X144745431Y-118214213D02*
X143684771Y-117153553D01*
X143735278Y-117406091D01*
X143735278Y-117608122D01*
X143684771Y-117759644D01*
X144644416Y-116193908D02*
X144745431Y-116092893D01*
X144896954Y-116042385D01*
X144997969Y-116042385D01*
X145149492Y-116092893D01*
X145402030Y-116244416D01*
X145654568Y-116496954D01*
X145806091Y-116749492D01*
X145856599Y-116901015D01*
X145856599Y-117002030D01*
X145806091Y-117153553D01*
X145705076Y-117254568D01*
X145553553Y-117305076D01*
X145452538Y-117305076D01*
X145301015Y-117254568D01*
X145048477Y-117103045D01*
X144795938Y-116850507D01*
X144644416Y-116597969D01*
X144593908Y-116446446D01*
X144593908Y-116345431D01*
X144644416Y-116193908D01*
X146513198Y-116446446D02*
X145452538Y-115385786D01*
X146210152Y-115941370D02*
X146917259Y-116042385D01*
X146210152Y-115335278D02*
X146210152Y-116143400D01*
X142248477Y-115311167D02*
X141642385Y-115917259D01*
X141945431Y-115614213D02*
X140884771Y-114553553D01*
X140935278Y-114806091D01*
X140935278Y-115008122D01*
X140884771Y-115159644D01*
X141844416Y-113593908D02*
X141945431Y-113492893D01*
X142096954Y-113442385D01*
X142197969Y-113442385D01*
X142349492Y-113492893D01*
X142602030Y-113644416D01*
X142854568Y-113896954D01*
X143006091Y-114149492D01*
X143056599Y-114301015D01*
X143056599Y-114402030D01*
X143006091Y-114553553D01*
X142905076Y-114654568D01*
X142753553Y-114705076D01*
X142652538Y-114705076D01*
X142501015Y-114654568D01*
X142248477Y-114503045D01*
X141995938Y-114250507D01*
X141844416Y-113997969D01*
X141793908Y-113846446D01*
X141793908Y-113745431D01*
X141844416Y-113593908D01*
X143713198Y-113846446D02*
X142652538Y-112785786D01*
X143410152Y-113341370D02*
X144117259Y-113442385D01*
X143410152Y-112735278D02*
X143410152Y-113543400D01*
X133231217Y-127707106D02*
X133887816Y-127050507D01*
X133938324Y-127808122D01*
X134089847Y-127656599D01*
X134241370Y-127606091D01*
X134342385Y-127606091D01*
X134493908Y-127656599D01*
X134746446Y-127909137D01*
X134796954Y-128060660D01*
X134796954Y-128161675D01*
X134746446Y-128313198D01*
X134443400Y-128616244D01*
X134291877Y-128666751D01*
X134190862Y-128666751D01*
X135403045Y-127656599D02*
X134342385Y-126595938D01*
X135100000Y-127151522D02*
X135807106Y-127252538D01*
X135100000Y-126545431D02*
X135100000Y-127353553D01*
X135100000Y-125838324D02*
X135756599Y-125181725D01*
X135807106Y-125939339D01*
X135958629Y-125787816D01*
X136110152Y-125737309D01*
X136211167Y-125737309D01*
X136362690Y-125787816D01*
X136615228Y-126040355D01*
X136665736Y-126191877D01*
X136665736Y-126292893D01*
X136615228Y-126444416D01*
X136312183Y-126747461D01*
X136160660Y-126797969D01*
X136059644Y-126797969D01*
X122031217Y-123207106D02*
X122687816Y-122550507D01*
X122738324Y-123308122D01*
X122889847Y-123156599D01*
X123041370Y-123106091D01*
X123142385Y-123106091D01*
X123293908Y-123156599D01*
X123546446Y-123409137D01*
X123596954Y-123560660D01*
X123596954Y-123661675D01*
X123546446Y-123813198D01*
X123243400Y-124116244D01*
X123091877Y-124166751D01*
X122990862Y-124166751D01*
X124203045Y-123156599D02*
X123142385Y-122095938D01*
X123900000Y-122651522D02*
X124607106Y-122752538D01*
X123900000Y-122045431D02*
X123900000Y-122853553D01*
X123900000Y-121338324D02*
X124556599Y-120681725D01*
X124607106Y-121439339D01*
X124758629Y-121287816D01*
X124910152Y-121237309D01*
X125011167Y-121237309D01*
X125162690Y-121287816D01*
X125415228Y-121540355D01*
X125465736Y-121691877D01*
X125465736Y-121792893D01*
X125415228Y-121944416D01*
X125112183Y-122247461D01*
X124960660Y-122297969D01*
X124859644Y-122297969D01*
X116078571Y-90321428D02*
X116078571Y-89392857D01*
X116650000Y-89892857D01*
X116650000Y-89678571D01*
X116721428Y-89535714D01*
X116792857Y-89464285D01*
X116935714Y-89392857D01*
X117292857Y-89392857D01*
X117435714Y-89464285D01*
X117507142Y-89535714D01*
X117578571Y-89678571D01*
X117578571Y-90107142D01*
X117507142Y-90250000D01*
X117435714Y-90321428D01*
X117578571Y-88750000D02*
X116078571Y-88750000D01*
X117007142Y-88607142D02*
X117578571Y-88178571D01*
X116578571Y-88178571D02*
X117150000Y-88750000D01*
X116078571Y-87678571D02*
X116078571Y-86750000D01*
X116650000Y-87250000D01*
X116650000Y-87035714D01*
X116721428Y-86892857D01*
X116792857Y-86821428D01*
X116935714Y-86750000D01*
X117292857Y-86750000D01*
X117435714Y-86821428D01*
X117507142Y-86892857D01*
X117578571Y-87035714D01*
X117578571Y-87464285D01*
X117507142Y-87607142D01*
X117435714Y-87678571D01*
X110778571Y-90321428D02*
X110778571Y-89392857D01*
X111350000Y-89892857D01*
X111350000Y-89678571D01*
X111421428Y-89535714D01*
X111492857Y-89464285D01*
X111635714Y-89392857D01*
X111992857Y-89392857D01*
X112135714Y-89464285D01*
X112207142Y-89535714D01*
X112278571Y-89678571D01*
X112278571Y-90107142D01*
X112207142Y-90250000D01*
X112135714Y-90321428D01*
X112278571Y-88750000D02*
X110778571Y-88750000D01*
X111707142Y-88607142D02*
X112278571Y-88178571D01*
X111278571Y-88178571D02*
X111850000Y-88750000D01*
X110778571Y-87678571D02*
X110778571Y-86750000D01*
X111350000Y-87250000D01*
X111350000Y-87035714D01*
X111421428Y-86892857D01*
X111492857Y-86821428D01*
X111635714Y-86750000D01*
X111992857Y-86750000D01*
X112135714Y-86821428D01*
X112207142Y-86892857D01*
X112278571Y-87035714D01*
X112278571Y-87464285D01*
X112207142Y-87607142D01*
X112135714Y-87678571D01*
X85448477Y-125411167D02*
X84842385Y-126017259D01*
X85145431Y-125714213D02*
X84084771Y-124653553D01*
X84135278Y-124906091D01*
X84135278Y-125108122D01*
X84084771Y-125259644D01*
X85044416Y-123693908D02*
X85145431Y-123592893D01*
X85296954Y-123542385D01*
X85397969Y-123542385D01*
X85549492Y-123592893D01*
X85802030Y-123744416D01*
X86054568Y-123996954D01*
X86206091Y-124249492D01*
X86256599Y-124401015D01*
X86256599Y-124502030D01*
X86206091Y-124653553D01*
X86105076Y-124754568D01*
X85953553Y-124805076D01*
X85852538Y-124805076D01*
X85701015Y-124754568D01*
X85448477Y-124603045D01*
X85195938Y-124350507D01*
X85044416Y-124097969D01*
X84993908Y-123946446D01*
X84993908Y-123845431D01*
X85044416Y-123693908D01*
X86913198Y-123946446D02*
X85852538Y-122885786D01*
X86610152Y-123441370D02*
X87317259Y-123542385D01*
X86610152Y-122835278D02*
X86610152Y-123643400D01*
X95778571Y-106392857D02*
X95778571Y-107250000D01*
X95778571Y-106821428D02*
X94278571Y-106821428D01*
X94492857Y-106964285D01*
X94635714Y-107107142D01*
X94707142Y-107250000D01*
X95778571Y-105750000D02*
X94278571Y-105750000D01*
X95207142Y-105607142D02*
X95778571Y-105178571D01*
X94778571Y-105178571D02*
X95350000Y-105750000D01*
X94278571Y-104250000D02*
X94278571Y-104107142D01*
X94350000Y-103964285D01*
X94421428Y-103892857D01*
X94564285Y-103821428D01*
X94850000Y-103750000D01*
X95207142Y-103750000D01*
X95492857Y-103821428D01*
X95635714Y-103892857D01*
X95707142Y-103964285D01*
X95778571Y-104107142D01*
X95778571Y-104250000D01*
X95707142Y-104392857D01*
X95635714Y-104464285D01*
X95492857Y-104535714D01*
X95207142Y-104607142D01*
X94850000Y-104607142D01*
X94564285Y-104535714D01*
X94421428Y-104464285D01*
X94350000Y-104392857D01*
X94278571Y-104250000D01*
X103578571Y-73292857D02*
X103578571Y-74150000D01*
X103578571Y-73721428D02*
X102078571Y-73721428D01*
X102292857Y-73864285D01*
X102435714Y-74007142D01*
X102507142Y-74150000D01*
X103578571Y-72650000D02*
X102078571Y-72650000D01*
X103007142Y-72507142D02*
X103578571Y-72078571D01*
X102578571Y-72078571D02*
X103150000Y-72650000D01*
X102078571Y-71150000D02*
X102078571Y-71007142D01*
X102150000Y-70864285D01*
X102221428Y-70792857D01*
X102364285Y-70721428D01*
X102650000Y-70650000D01*
X103007142Y-70650000D01*
X103292857Y-70721428D01*
X103435714Y-70792857D01*
X103507142Y-70864285D01*
X103578571Y-71007142D01*
X103578571Y-71150000D01*
X103507142Y-71292857D01*
X103435714Y-71364285D01*
X103292857Y-71435714D01*
X103007142Y-71507142D01*
X102650000Y-71507142D01*
X102364285Y-71435714D01*
X102221428Y-71364285D01*
X102150000Y-71292857D01*
X102078571Y-71150000D01*
X98788832Y-85848477D02*
X98182740Y-85242385D01*
X98485786Y-85545431D02*
X99546446Y-84484771D01*
X99293908Y-84535278D01*
X99091877Y-84535278D01*
X98940355Y-84484771D01*
X99243400Y-86303045D02*
X100304061Y-85242385D01*
X99748477Y-86000000D02*
X99647461Y-86707106D01*
X100354568Y-86000000D02*
X99546446Y-86000000D01*
X101364721Y-86303045D02*
X101465736Y-86404061D01*
X101516244Y-86555583D01*
X101516244Y-86656599D01*
X101465736Y-86808122D01*
X101314213Y-87060660D01*
X101061675Y-87313198D01*
X100809137Y-87464721D01*
X100657614Y-87515228D01*
X100556599Y-87515228D01*
X100405076Y-87464721D01*
X100304061Y-87363705D01*
X100253553Y-87212183D01*
X100253553Y-87111167D01*
X100304061Y-86959644D01*
X100455583Y-86707106D01*
X100708122Y-86454568D01*
X100960660Y-86303045D01*
X101112183Y-86252538D01*
X101213198Y-86252538D01*
X101364721Y-86303045D01*
X131348477Y-58911167D02*
X130742385Y-59517259D01*
X131045431Y-59214213D02*
X129984771Y-58153553D01*
X130035278Y-58406091D01*
X130035278Y-58608122D01*
X129984771Y-58759644D01*
X131803045Y-58456599D02*
X130742385Y-57395938D01*
X131500000Y-57951522D02*
X132207106Y-58052538D01*
X131500000Y-57345431D02*
X131500000Y-58153553D01*
X131803045Y-56335278D02*
X131904061Y-56234263D01*
X132055583Y-56183755D01*
X132156599Y-56183755D01*
X132308122Y-56234263D01*
X132560660Y-56385786D01*
X132813198Y-56638324D01*
X132964721Y-56890862D01*
X133015228Y-57042385D01*
X133015228Y-57143400D01*
X132964721Y-57294923D01*
X132863705Y-57395938D01*
X132712183Y-57446446D01*
X132611167Y-57446446D01*
X132459644Y-57395938D01*
X132207106Y-57244416D01*
X131954568Y-56991877D01*
X131803045Y-56739339D01*
X131752538Y-56587816D01*
X131752538Y-56486801D01*
X131803045Y-56335278D01*
X103147461Y-121385786D02*
X103753553Y-121991877D01*
X102389847Y-122749492D02*
X103450507Y-121688832D01*
X103652538Y-124012183D02*
X103804061Y-123153553D01*
X103046446Y-123406091D02*
X104107106Y-122345431D01*
X104511167Y-122749492D01*
X104561675Y-122901015D01*
X104561675Y-123002030D01*
X104511167Y-123153553D01*
X104359644Y-123305076D01*
X104208122Y-123355583D01*
X104107106Y-123355583D01*
X103955583Y-123305076D01*
X103551522Y-122901015D01*
X105312055Y-119270685D02*
X105413070Y-119472715D01*
X105665608Y-119725253D01*
X105817131Y-119775761D01*
X105918147Y-119775761D01*
X106069669Y-119725253D01*
X106170685Y-119624238D01*
X106221192Y-119472715D01*
X106221192Y-119371700D01*
X106170685Y-119220177D01*
X106019162Y-118967639D01*
X105968654Y-118816116D01*
X105968654Y-118715101D01*
X106019162Y-118563578D01*
X106120177Y-118462563D01*
X106271700Y-118412055D01*
X106372715Y-118412055D01*
X106524238Y-118462563D01*
X106776776Y-118715101D01*
X106877791Y-118917131D01*
X106928299Y-121189975D02*
X106877791Y-121038452D01*
X106877791Y-120836421D01*
X106877791Y-120533375D01*
X106827284Y-120381852D01*
X106726269Y-120280837D01*
X106524238Y-120583883D02*
X106473730Y-120432360D01*
X106473730Y-120230330D01*
X106625253Y-119977791D01*
X106978807Y-119624238D01*
X107231345Y-119472715D01*
X107433375Y-119472715D01*
X107584898Y-119523223D01*
X107786929Y-119725253D01*
X107837436Y-119876776D01*
X107837436Y-120078807D01*
X107685913Y-120331345D01*
X107332360Y-120684898D01*
X107079822Y-120836421D01*
X106877791Y-120836421D01*
X106726269Y-120785913D01*
X106524238Y-120583883D01*
D11*
X106800000Y-127600000D02*
X109300000Y-127100000D01*
X107300000Y-125100000D02*
X106800000Y-127600000D01*
X104800000Y-125600000D02*
X107300000Y-125100000D01*
X110600000Y-124800000D02*
X111600000Y-123800000D01*
X109600000Y-123800000D02*
X110600000Y-124800000D01*
X110600000Y-122800000D02*
X109600000Y-123800000D01*
X109600000Y-121800000D02*
X110600000Y-122800000D01*
X108600000Y-122800000D02*
X109600000Y-121800000D01*
D10*
X104997334Y-132755963D02*
X105098349Y-132957994D01*
X105350887Y-133210532D01*
X105502410Y-133261040D01*
X105603425Y-133261040D01*
X105754948Y-133210532D01*
X105855963Y-133109517D01*
X105906471Y-132957994D01*
X105906471Y-132856979D01*
X105855963Y-132705456D01*
X105704441Y-132452918D01*
X105653933Y-132301395D01*
X105653933Y-132200380D01*
X105704441Y-132048857D01*
X105805456Y-131947841D01*
X105956979Y-131897334D01*
X106057994Y-131897334D01*
X106209517Y-131947841D01*
X106462055Y-132200380D01*
X106563070Y-132402410D01*
X106007486Y-133867131D02*
X107068147Y-132806471D01*
X106563070Y-133311547D02*
X107169162Y-133917639D01*
X106613578Y-134473223D02*
X107674238Y-133412563D01*
X107371192Y-134624746D02*
X107876269Y-135129822D01*
X106967131Y-134826776D02*
X108381345Y-134119669D01*
X107674238Y-135533883D01*
X108027791Y-135887436D02*
X109088452Y-134826776D01*
X109492513Y-135230837D01*
X109543020Y-135382360D01*
X109543020Y-135483375D01*
X109492513Y-135634898D01*
X109340990Y-135786421D01*
X109189467Y-135836929D01*
X109088452Y-135836929D01*
X108936929Y-135786421D01*
X108532868Y-135382360D01*
X109644036Y-136392513D02*
X109997589Y-136746066D01*
X109593528Y-137453173D02*
X109088452Y-136948097D01*
X110149112Y-135887436D01*
X110654188Y-136392513D01*
X191281725Y-81570049D02*
X191483755Y-81772080D01*
X191534263Y-81923603D01*
X191534263Y-82125633D01*
X191382740Y-82378172D01*
X191029187Y-82731725D01*
X190776649Y-82883248D01*
X190574618Y-82883248D01*
X190423095Y-82832740D01*
X190221065Y-82630710D01*
X190170557Y-82479187D01*
X190170557Y-82277156D01*
X190322080Y-82024618D01*
X190675633Y-81671065D01*
X190928172Y-81519542D01*
X191130202Y-81519542D01*
X191281725Y-81570049D01*
X192039339Y-83337816D02*
X191685786Y-82984263D01*
X191130202Y-83539847D02*
X192190862Y-82479187D01*
X192695938Y-82984263D01*
X192948477Y-84246954D02*
X192594923Y-83893400D01*
X192039339Y-84448984D02*
X193099999Y-83388324D01*
X193605076Y-83893400D01*
X192948477Y-85257106D02*
X193049492Y-85459137D01*
X193302030Y-85711675D01*
X193453553Y-85762183D01*
X193554568Y-85762183D01*
X193706091Y-85711675D01*
X193807106Y-85610660D01*
X193857614Y-85459137D01*
X193857614Y-85358122D01*
X193807106Y-85206599D01*
X193655583Y-84954061D01*
X193605076Y-84802538D01*
X193605076Y-84701522D01*
X193655583Y-84549999D01*
X193756599Y-84448984D01*
X193908122Y-84398477D01*
X194009137Y-84398477D01*
X194160660Y-84448984D01*
X194413198Y-84701522D01*
X194514213Y-84903553D01*
X194514213Y-85812690D02*
X194867766Y-86166244D01*
X194463705Y-86873350D02*
X193958629Y-86368274D01*
X195019289Y-85307614D01*
X195524366Y-85812690D01*
X195827411Y-86115736D02*
X196433503Y-86721827D01*
X195069797Y-87479442D02*
X196130457Y-86418782D01*
X137999744Y-28609389D02*
X139060405Y-27548729D01*
X139312943Y-27801267D01*
X139413958Y-28003298D01*
X139413958Y-28205328D01*
X139363450Y-28356851D01*
X139211927Y-28609389D01*
X139060405Y-28760912D01*
X138807866Y-28912435D01*
X138656344Y-28962943D01*
X138454313Y-28962943D01*
X138252283Y-28861927D01*
X137999744Y-28609389D01*
X140121065Y-28609389D02*
X139262435Y-29468019D01*
X139211927Y-29619542D01*
X139211927Y-29720557D01*
X139262435Y-29872080D01*
X139464466Y-30074111D01*
X139615988Y-30124618D01*
X139717004Y-30124618D01*
X139868527Y-30074111D01*
X140727156Y-29215481D01*
X141080710Y-29569034D02*
X141686801Y-30175126D01*
X140323095Y-30932740D02*
X141383755Y-29872080D01*
X141686801Y-31286294D02*
X141181725Y-31791370D01*
X141888832Y-30377156D02*
X141686801Y-31286294D01*
X142595938Y-31084263D01*
X143404061Y-33811675D02*
X143303045Y-33811675D01*
X143101015Y-33710660D01*
X143000000Y-33609644D01*
X142898984Y-33407614D01*
X142898984Y-33205583D01*
X142949492Y-33054061D01*
X143101015Y-32801522D01*
X143252538Y-32650000D01*
X143505076Y-32498477D01*
X143656599Y-32447969D01*
X143858629Y-32447969D01*
X144060660Y-32548984D01*
X144161675Y-32649999D01*
X144262690Y-32852030D01*
X144262690Y-32953045D01*
X144464721Y-34064213D02*
X143959644Y-34569289D01*
X144666751Y-33155076D02*
X144464721Y-34064213D01*
X145373858Y-33862183D01*
X145373858Y-35781472D02*
X145272843Y-35781472D01*
X145070812Y-35680457D01*
X144969797Y-35579442D01*
X144868782Y-35377411D01*
X144868782Y-35175381D01*
X144919289Y-35023858D01*
X145070812Y-34771320D01*
X145222335Y-34619797D01*
X145474873Y-34468274D01*
X145626396Y-34417766D01*
X145828427Y-34417766D01*
X146030457Y-34518782D01*
X146131472Y-34619797D01*
X146232488Y-34821827D01*
X146232488Y-34922843D01*
X146232488Y-36842133D02*
X145727411Y-36337056D01*
X146788072Y-35276396D01*
X147141625Y-36640102D02*
X147495178Y-36993655D01*
X147091117Y-37700762D02*
X146586041Y-37195686D01*
X147646701Y-36135026D01*
X148151777Y-36640102D01*
X71585658Y-95084136D02*
X71232105Y-94730582D01*
X70676521Y-95286166D02*
X71737181Y-94225506D01*
X72242258Y-94730582D01*
X72191750Y-96801395D02*
X72343273Y-95942765D01*
X71585658Y-96195303D02*
X72646319Y-95134643D01*
X73050380Y-95538704D01*
X73100887Y-95690227D01*
X73100887Y-95791242D01*
X73050380Y-95942765D01*
X72898857Y-96094288D01*
X72747334Y-96144796D01*
X72646319Y-96144796D01*
X72494796Y-96094288D01*
X72090735Y-95690227D01*
X73201902Y-96700380D02*
X73555456Y-97053933D01*
X73151395Y-97761040D02*
X72646319Y-97255963D01*
X73706979Y-96195303D01*
X74212055Y-96700380D01*
X74212055Y-99023730D02*
X74161547Y-98872208D01*
X74161547Y-98670177D01*
X74161547Y-98367131D01*
X74111040Y-98215608D01*
X74010024Y-98114593D01*
X73807994Y-98417639D02*
X73757486Y-98266116D01*
X73757486Y-98064086D01*
X73909009Y-97811547D01*
X74262563Y-97457994D01*
X74515101Y-97306471D01*
X74717131Y-97306471D01*
X74868654Y-97356979D01*
X75070685Y-97559009D01*
X75121192Y-97710532D01*
X75121192Y-97912563D01*
X74969669Y-98165101D01*
X74616116Y-98518654D01*
X74363578Y-98670177D01*
X74161547Y-98670177D01*
X74010024Y-98619669D01*
X73807994Y-98417639D01*
X75777791Y-98266116D02*
X74919162Y-99124746D01*
X74868654Y-99276269D01*
X74868654Y-99377284D01*
X74919162Y-99528807D01*
X75121192Y-99730837D01*
X75272715Y-99781345D01*
X75373730Y-99781345D01*
X75525253Y-99730837D01*
X76383883Y-98872208D01*
X76383883Y-99882360D02*
X76737436Y-100235913D01*
X76333375Y-100943020D02*
X75828299Y-100437944D01*
X76888959Y-99377284D01*
X77394036Y-99882360D01*
X76787944Y-101397589D02*
X77848604Y-100336929D01*
X77394036Y-102003680D01*
X78454696Y-100943020D01*
X78606219Y-103013833D02*
X78505203Y-103013833D01*
X78303173Y-102912818D01*
X78202158Y-102811802D01*
X78101142Y-102609772D01*
X78101142Y-102407741D01*
X78151650Y-102256219D01*
X78303173Y-102003680D01*
X78454696Y-101852158D01*
X78707234Y-101700635D01*
X78858757Y-101650127D01*
X79060787Y-101650127D01*
X79262818Y-101751142D01*
X79363833Y-101852158D01*
X79464848Y-102054188D01*
X79464848Y-102155203D01*
X79666879Y-103266371D02*
X79161802Y-103771447D01*
X79868909Y-102357234D02*
X79666879Y-103266371D01*
X80576016Y-103064341D01*
X123132613Y-146336166D02*
X123637689Y-146841242D01*
X122728552Y-146538197D02*
X124142765Y-145831090D01*
X123435658Y-147245303D01*
X123789212Y-147598857D02*
X124849872Y-146538197D01*
X124445811Y-147649364D01*
X125556979Y-147245303D01*
X124496319Y-148305963D01*
X125001395Y-148811040D02*
X126062055Y-147750380D01*
X126466116Y-148154441D01*
X126516624Y-148305963D01*
X126516624Y-148406979D01*
X126466116Y-148558502D01*
X126314593Y-148710024D01*
X126163070Y-148760532D01*
X126062055Y-148760532D01*
X125910532Y-148710024D01*
X125506471Y-148305963D01*
X126567131Y-150376776D02*
X126062055Y-149871700D01*
X127122715Y-148811040D01*
X126920685Y-150730330D02*
X127981345Y-149669669D01*
X128334898Y-150023223D02*
X128940990Y-150629314D01*
X127577284Y-151386929D02*
X128637944Y-150326269D01*
X129294543Y-150982868D02*
X128435913Y-151841497D01*
X128385406Y-151993020D01*
X128385406Y-152094036D01*
X128435913Y-152245558D01*
X128637944Y-152447589D01*
X128789467Y-152498097D01*
X128890482Y-152498097D01*
X129042005Y-152447589D01*
X129900635Y-151588959D01*
X129345051Y-153154696D02*
X130405711Y-152094036D01*
X130658249Y-152346574D01*
X130759264Y-152548604D01*
X130759264Y-152750635D01*
X130708757Y-152902158D01*
X130557234Y-153154696D01*
X130405711Y-153306219D01*
X130153173Y-153457741D01*
X130001650Y-153508249D01*
X129799619Y-153508249D01*
X129597589Y-153407234D01*
X129345051Y-153154696D01*
X130961295Y-153659772D02*
X131314848Y-154013325D01*
X130910787Y-154720432D02*
X130405711Y-154215356D01*
X131466371Y-153154696D01*
X131971447Y-153659772D01*
X118609009Y-41079314D02*
X118811040Y-40877284D01*
X118962563Y-40826776D01*
X119164593Y-40826776D01*
X119417131Y-40978299D01*
X119770685Y-41331852D01*
X119922208Y-41584391D01*
X119922208Y-41786421D01*
X119871700Y-41937944D01*
X119669669Y-42139975D01*
X119518147Y-42190482D01*
X119316116Y-42190482D01*
X119063578Y-42038959D01*
X118710024Y-41685406D01*
X118558502Y-41432868D01*
X118558502Y-41230837D01*
X118609009Y-41079314D01*
X120376776Y-40321700D02*
X120023223Y-40675253D01*
X120578807Y-41230837D02*
X119518147Y-40170177D01*
X120023223Y-39665101D01*
X121285913Y-39412563D02*
X120932360Y-39766116D01*
X121487944Y-40321700D02*
X120427284Y-39261040D01*
X120932360Y-38755963D01*
X114162563Y-36525761D02*
X114364593Y-36323730D01*
X114516116Y-36273223D01*
X114718147Y-36273223D01*
X114970685Y-36424746D01*
X115324238Y-36778299D01*
X115475761Y-37030837D01*
X115475761Y-37232868D01*
X115425253Y-37384391D01*
X115223223Y-37586421D01*
X115071700Y-37636929D01*
X114869669Y-37636929D01*
X114617131Y-37485406D01*
X114263578Y-37131852D01*
X114112055Y-36879314D01*
X114112055Y-36677284D01*
X114162563Y-36525761D01*
X116132360Y-36677284D02*
X115071700Y-35616624D01*
X116738452Y-36071192D01*
X115677791Y-35010532D01*
X118830202Y-51929442D02*
X117769542Y-50868782D01*
X118173603Y-50464721D01*
X118325126Y-50414213D01*
X118426141Y-50414213D01*
X118577664Y-50464721D01*
X118729187Y-50616244D01*
X118779694Y-50767766D01*
X118779694Y-50868782D01*
X118729187Y-51020305D01*
X118325126Y-51424366D01*
X119032233Y-49606091D02*
X119234263Y-49404061D01*
X119385786Y-49353553D01*
X119587816Y-49353553D01*
X119840355Y-49505076D01*
X120193908Y-49858629D01*
X120345431Y-50111167D01*
X120345431Y-50313198D01*
X120294923Y-50464721D01*
X120092893Y-50666751D01*
X119941370Y-50717259D01*
X119739339Y-50717259D01*
X119486801Y-50565736D01*
X119133248Y-50212183D01*
X118981725Y-49959644D01*
X118981725Y-49757614D01*
X119032233Y-49606091D01*
X119840355Y-48797969D02*
X121153553Y-49606091D01*
X120597969Y-48646446D01*
X121557614Y-49202030D01*
X120749492Y-47888832D01*
X121658629Y-47989847D02*
X122012183Y-47636294D01*
X122719289Y-48040355D02*
X122214213Y-48545431D01*
X121153553Y-47484771D01*
X121658629Y-46979694D01*
X123779950Y-46979694D02*
X122921320Y-46828172D01*
X123173858Y-47585786D02*
X122113198Y-46525126D01*
X122517259Y-46121065D01*
X122668782Y-46070557D01*
X122769797Y-46070557D01*
X122921320Y-46121065D01*
X123072843Y-46272588D01*
X123123350Y-46424111D01*
X123123350Y-46525126D01*
X123072843Y-46676649D01*
X122668782Y-47080710D01*
X138762435Y-95221065D02*
X138863450Y-95423095D01*
X139115988Y-95675633D01*
X139267511Y-95726141D01*
X139368527Y-95726141D01*
X139520049Y-95675633D01*
X139621065Y-95574618D01*
X139671572Y-95423095D01*
X139671572Y-95322080D01*
X139621065Y-95170557D01*
X139469542Y-94918019D01*
X139419034Y-94766496D01*
X139419034Y-94665481D01*
X139469542Y-94513958D01*
X139570557Y-94412943D01*
X139722080Y-94362435D01*
X139823095Y-94362435D01*
X139974618Y-94412943D01*
X140227156Y-94665481D01*
X140328172Y-94867511D01*
X139772588Y-96332233D02*
X140833248Y-95271572D01*
X141237309Y-95675633D01*
X141287816Y-95827156D01*
X141287816Y-95928172D01*
X141237309Y-96079694D01*
X141085786Y-96231217D01*
X140934263Y-96281725D01*
X140833248Y-96281725D01*
X140681725Y-96231217D01*
X140277664Y-95827156D01*
X141388832Y-96837309D02*
X141742385Y-97190862D01*
X141338324Y-97897969D02*
X140833248Y-97392893D01*
X141893908Y-96332233D01*
X142398984Y-96837309D01*
X142045431Y-97998984D02*
X142550507Y-98504061D01*
X141641370Y-98201015D02*
X143055583Y-97493908D01*
X142348477Y-98908122D01*
X142702030Y-99261675D02*
X143762690Y-98201015D01*
X143308122Y-99867766D02*
X143459644Y-98807106D01*
X144368782Y-98807106D02*
X143156599Y-98807106D01*
X144318274Y-99766751D02*
X144671827Y-100120305D01*
X144267766Y-100827411D02*
X143762690Y-100322335D01*
X144823350Y-99261675D01*
X145328427Y-99766751D01*
X145328427Y-101888072D02*
X145479950Y-101029442D01*
X144722335Y-101281980D02*
X145782995Y-100221320D01*
X146187056Y-100625381D01*
X146237564Y-100776904D01*
X146237564Y-100877919D01*
X146187056Y-101029442D01*
X146035533Y-101180965D01*
X145884011Y-101231472D01*
X145782995Y-101231472D01*
X145631472Y-101180965D01*
X145227411Y-100776904D01*
X154757214Y-105004054D02*
X155042928Y-105004054D01*
X155185786Y-105075483D01*
X155328643Y-105218340D01*
X155400071Y-105504054D01*
X155400071Y-106004054D01*
X155328643Y-106289768D01*
X155185786Y-106432625D01*
X155042928Y-106504054D01*
X154757214Y-106504054D01*
X154614357Y-106432625D01*
X154471500Y-106289768D01*
X154400071Y-106004054D01*
X154400071Y-105504054D01*
X154471500Y-105218340D01*
X154614357Y-105075483D01*
X154757214Y-105004054D01*
X156042928Y-106504054D02*
X156042928Y-105004054D01*
X156900071Y-106504054D01*
X156900071Y-105004054D01*
X147893253Y-105428318D02*
X148178967Y-105428318D01*
X148321825Y-105499747D01*
X148464682Y-105642604D01*
X148536110Y-105928318D01*
X148536110Y-106428318D01*
X148464682Y-106714032D01*
X148321825Y-106856889D01*
X148178967Y-106928318D01*
X147893253Y-106928318D01*
X147750396Y-106856889D01*
X147607539Y-106714032D01*
X147536110Y-106428318D01*
X147536110Y-105928318D01*
X147607539Y-105642604D01*
X147750396Y-105499747D01*
X147893253Y-105428318D01*
X149678967Y-106142604D02*
X149178967Y-106142604D01*
X149178967Y-106928318D02*
X149178967Y-105428318D01*
X149893253Y-105428318D01*
X150964682Y-106142604D02*
X150464682Y-106142604D01*
X150464682Y-106928318D02*
X150464682Y-105428318D01*
X151178967Y-105428318D01*
D12*
G04 #@! TO.C,C4*
X96110348Y-61561425D02*
X95220808Y-60671885D01*
X97411425Y-60260348D02*
X96521885Y-59370808D01*
G04 #@! TO.C,J2*
X154980000Y-160060000D02*
X165140000Y-160060000D01*
X154980000Y-158790000D02*
X154980000Y-166410000D01*
X154980000Y-166410000D02*
X165140000Y-166410000D01*
X165140000Y-166410000D02*
X165140000Y-158790000D01*
X165140000Y-158790000D02*
X154980000Y-158790000D01*
D13*
G04 #@! TO.C,SW2*
X109757359Y-40270101D02*
X109828070Y-40199390D01*
X109333095Y-40694365D02*
X109757359Y-40270101D01*
X115555635Y-46916905D02*
X109333095Y-40694365D01*
X116050610Y-46421930D02*
X115555635Y-46916905D01*
X118242641Y-44229899D02*
X118171930Y-44300610D01*
X118666905Y-43805635D02*
X118242641Y-44229899D01*
X112444365Y-37583095D02*
X118666905Y-43805635D01*
X111949390Y-38078070D02*
X112444365Y-37583095D01*
D12*
G04 #@! TO.C,C1*
X103611425Y-128310348D02*
X102721885Y-127420808D01*
X102310348Y-129611425D02*
X101420808Y-128721885D01*
G04 #@! TO.C,C2*
X103288575Y-109610348D02*
X104178115Y-108720808D01*
X104589652Y-110911425D02*
X105479192Y-110021885D01*
G04 #@! TO.C,D1*
X110500461Y-64739998D02*
G75*
G03X108955170Y-70290000I-461J-2990001D01*
G01*
X110499539Y-64739998D02*
G75*
G02X112044830Y-70290000I461J-2990001D01*
G01*
X113000000Y-67729999D02*
G75*
G03X113000000Y-67729999I-2500000J0D01*
G01*
X108955000Y-70290000D02*
X112045000Y-70290000D01*
G04 #@! TO.C,D2*
X133508219Y-79279325D02*
X131429325Y-81358219D01*
X131429325Y-81358219D02*
X135275986Y-85204880D01*
X135275986Y-85204880D02*
X137354880Y-83125986D01*
X137354880Y-83125986D02*
X133508219Y-79279325D01*
X131747523Y-79597523D02*
X132468772Y-80318772D01*
X137036682Y-84886682D02*
X136315433Y-84165433D01*
X134144615Y-79915721D02*
X132065721Y-81994615D01*
X134229468Y-80000574D02*
X132150574Y-82079468D01*
X134059762Y-79830868D02*
X131980868Y-81909762D01*
D13*
G04 #@! TO.C,J1*
X193123650Y-53989498D02*
X191327599Y-55785550D01*
X193123650Y-53989498D02*
X191327599Y-52193447D01*
X173546692Y-34412540D02*
X171750640Y-32616489D01*
X171750640Y-32616489D02*
X169954589Y-34412540D01*
X134392775Y-69974354D02*
X132596724Y-71770406D01*
X132596724Y-71770406D02*
X134392775Y-73566457D01*
X153969733Y-93143415D02*
X152173682Y-91347364D01*
X153969733Y-93143415D02*
X155765784Y-91347364D01*
D12*
G04 #@! TO.C,JP1*
X133747918Y-60737868D02*
X134737868Y-59747918D01*
X135727817Y-59747918D02*
X136152082Y-60172183D01*
X136152082Y-61162132D02*
X135162132Y-62152082D01*
X134172183Y-62152082D02*
X133747918Y-61727817D01*
X133747918Y-61727818D02*
G75*
G02X133747918Y-60737868I494975J494975D01*
G01*
X135162132Y-62152081D02*
G75*
G02X134172183Y-62152082I-494975J494974D01*
G01*
X136152082Y-60172182D02*
G75*
G02X136152082Y-61162132I-494975J-494975D01*
G01*
X134737868Y-59747919D02*
G75*
G02X135727817Y-59747918I494975J-494974D01*
G01*
G04 #@! TO.C,JP2*
X85300000Y-104500000D02*
X85300000Y-105900000D01*
X84600001Y-106600000D02*
X83999999Y-106600000D01*
X83300000Y-105900000D02*
X83300000Y-104500000D01*
X83999999Y-103800000D02*
X84600001Y-103800000D01*
X84600000Y-103800000D02*
G75*
G02X85300000Y-104500000I0J-700000D01*
G01*
X83300000Y-104500001D02*
G75*
G02X83999999Y-103800000I700000J1D01*
G01*
X84000000Y-106600000D02*
G75*
G02X83300000Y-105900000I0J700000D01*
G01*
X85300000Y-105899999D02*
G75*
G02X84600001Y-106600000I-700000J-1D01*
G01*
G04 #@! TO.C,JP3*
X163312132Y-143897918D02*
X164302082Y-144887868D01*
X164302082Y-145877817D02*
X163877817Y-146302082D01*
X162887868Y-146302082D02*
X161897918Y-145312132D01*
X161897918Y-144322183D02*
X162322183Y-143897918D01*
X162322182Y-143897918D02*
G75*
G02X163312132Y-143897918I494975J-494975D01*
G01*
X161897919Y-145312132D02*
G75*
G02X161897918Y-144322183I494974J494975D01*
G01*
X163877818Y-146302082D02*
G75*
G02X162887868Y-146302082I-494975J494975D01*
G01*
X164302081Y-144887868D02*
G75*
G02X164302082Y-145877817I-494974J-494975D01*
G01*
G04 #@! TO.C,Q3*
X188207355Y-129809377D02*
G75*
G03X186368879Y-134247855I1J-2600000D01*
G01*
X190807356Y-132409376D02*
G75*
G02X186368879Y-134247855I-2600000J-1D01*
G01*
X190788296Y-132374022D02*
X188242712Y-129828438D01*
G04 #@! TO.C,Q4*
X174418773Y-143597959D02*
G75*
G03X172580297Y-148036437I1J-2600000D01*
G01*
X177018774Y-146197958D02*
G75*
G02X172580297Y-148036437I-2600000J-1D01*
G01*
X176999714Y-146162604D02*
X174454130Y-143617020D01*
G04 #@! TO.C,R1*
X88648814Y-121251186D02*
X88104342Y-121795658D01*
X82935391Y-126964609D02*
X83479863Y-126420137D01*
X87135605Y-120826922D02*
X82511127Y-125451400D01*
X89073078Y-122764395D02*
X87135605Y-120826922D01*
X84448600Y-127388873D02*
X89073078Y-122764395D01*
X82511127Y-125451400D02*
X84448600Y-127388873D01*
G04 #@! TO.C,R2*
X112919390Y-85258380D02*
X110179390Y-85258380D01*
X110179390Y-85258380D02*
X110179390Y-91798380D01*
X110179390Y-91798380D02*
X112919390Y-91798380D01*
X112919390Y-91798380D02*
X112919390Y-85258380D01*
X111549390Y-84488380D02*
X111549390Y-85258380D01*
X111549390Y-92568380D02*
X111549390Y-91798380D01*
G04 #@! TO.C,R3*
X128211127Y-59251400D02*
X130148600Y-61188873D01*
X130148600Y-61188873D02*
X134773078Y-56564395D01*
X134773078Y-56564395D02*
X132835605Y-54626922D01*
X132835605Y-54626922D02*
X128211127Y-59251400D01*
X128635391Y-60764609D02*
X129179863Y-60220137D01*
X134348814Y-55051186D02*
X133804342Y-55595658D01*
G04 #@! TO.C,R4*
X118151981Y-85258380D02*
X115411981Y-85258380D01*
X115411981Y-85258380D02*
X115411981Y-91798380D01*
X115411981Y-91798380D02*
X118151981Y-91798380D01*
X118151981Y-91798380D02*
X118151981Y-85258380D01*
X116781981Y-84488380D02*
X116781981Y-85258380D01*
X116781981Y-92568380D02*
X116781981Y-91798380D01*
G04 #@! TO.C,R5*
X148017652Y-114132809D02*
X147473180Y-114677281D01*
X142304229Y-119846232D02*
X142848701Y-119301760D01*
X146504443Y-113708545D02*
X141879965Y-118333023D01*
X148441916Y-115646018D02*
X146504443Y-113708545D01*
X143817438Y-120270496D02*
X148441916Y-115646018D01*
X141879965Y-118333023D02*
X143817438Y-120270496D01*
G04 #@! TO.C,R6*
X139122249Y-115575307D02*
X141059722Y-117512780D01*
X141059722Y-117512780D02*
X145684200Y-112888302D01*
X145684200Y-112888302D02*
X143746727Y-110950829D01*
X143746727Y-110950829D02*
X139122249Y-115575307D01*
X139546513Y-117088516D02*
X140090985Y-116544044D01*
X145259936Y-111375093D02*
X144715464Y-111919565D01*
G04 #@! TO.C,R7*
X138287863Y-125800072D02*
X136350390Y-123862599D01*
X136350390Y-123862599D02*
X131725912Y-128487077D01*
X131725912Y-128487077D02*
X133663385Y-130424550D01*
X133663385Y-130424550D02*
X138287863Y-125800072D01*
X137863599Y-124286863D02*
X137319127Y-124831335D01*
X132150176Y-130000286D02*
X132694648Y-129455814D01*
G04 #@! TO.C,R8*
X120611127Y-123951400D02*
X122548600Y-125888873D01*
X122548600Y-125888873D02*
X127173078Y-121264395D01*
X127173078Y-121264395D02*
X125235605Y-119326922D01*
X125235605Y-119326922D02*
X120611127Y-123951400D01*
X121035391Y-125464609D02*
X121579863Y-124920137D01*
X126748814Y-119751186D02*
X126204342Y-120295658D01*
G04 #@! TO.C,R9*
X145090230Y-122717086D02*
X145634702Y-122172614D01*
X150803653Y-117003663D02*
X150259181Y-117548135D01*
X146603439Y-123141350D02*
X151227917Y-118516872D01*
X144665966Y-121203877D02*
X146603439Y-123141350D01*
X149290444Y-116579399D02*
X144665966Y-121203877D01*
X151227917Y-118516872D02*
X149290444Y-116579399D01*
G04 #@! TO.C,R10*
X102748814Y-88848814D02*
X102204342Y-88304342D01*
X97035391Y-83135391D02*
X97579863Y-83679863D01*
X103173078Y-87335605D02*
X98548600Y-82711127D01*
X101235605Y-89273078D02*
X103173078Y-87335605D01*
X96611127Y-84648600D02*
X101235605Y-89273078D01*
X98548600Y-82711127D02*
X96611127Y-84648600D01*
G04 #@! TO.C,R11*
X101480000Y-75890000D02*
X104220000Y-75890000D01*
X104220000Y-75890000D02*
X104220000Y-69350000D01*
X104220000Y-69350000D02*
X101480000Y-69350000D01*
X101480000Y-69350000D02*
X101480000Y-75890000D01*
X102850000Y-76660000D02*
X102850000Y-75890000D01*
X102850000Y-68580000D02*
X102850000Y-69349999D01*
G04 #@! TO.C,R12*
X95000000Y-109420000D02*
X95000000Y-108650001D01*
X95000000Y-101340000D02*
X95000000Y-102110000D01*
X96370000Y-108650000D02*
X96370000Y-102110000D01*
X93630000Y-108650000D02*
X96370000Y-108650000D01*
X93630000Y-102110000D02*
X93630000Y-108650000D01*
X96370000Y-102110000D02*
X93630000Y-102110000D01*
G04 #@! TO.C,R14*
X192700000Y-103180000D02*
X192700000Y-103950000D01*
X192700000Y-111260000D02*
X192700000Y-110490000D01*
X191330000Y-103950000D02*
X191330000Y-110490000D01*
X194070000Y-103950000D02*
X191330000Y-103950000D01*
X194070000Y-110490000D02*
X194070000Y-103950000D01*
X191330000Y-110490000D02*
X194070000Y-110490000D01*
G04 #@! TO.C,R15*
X191330000Y-126490000D02*
X194070000Y-126490000D01*
X194070000Y-126490000D02*
X194070000Y-119950000D01*
X194070000Y-119950000D02*
X191330000Y-119950000D01*
X191330000Y-119950000D02*
X191330000Y-126490000D01*
X192700000Y-127260000D02*
X192700000Y-126490000D01*
X192700000Y-119180000D02*
X192700000Y-119950000D01*
G04 #@! TO.C,R18*
X186148600Y-136911127D02*
X184211127Y-138848600D01*
X184211127Y-138848600D02*
X188835605Y-143473078D01*
X188835605Y-143473078D02*
X190773078Y-141535605D01*
X190773078Y-141535605D02*
X186148600Y-136911127D01*
X184635391Y-137335391D02*
X185179863Y-137879863D01*
X190348814Y-143048814D02*
X189804342Y-142504342D01*
G04 #@! TO.C,R19*
X184348814Y-148848814D02*
X183804342Y-148304342D01*
X178635391Y-143135391D02*
X179179863Y-143679863D01*
X184773078Y-147335605D02*
X180148600Y-142711127D01*
X182835605Y-149273078D02*
X184773078Y-147335605D01*
X178211127Y-144648600D02*
X182835605Y-149273078D01*
X180148600Y-142711127D02*
X178211127Y-144648600D01*
G04 #@! TO.C,R20*
X183222254Y-140053201D02*
X181284781Y-141990674D01*
X181284781Y-141990674D02*
X185909259Y-146615152D01*
X185909259Y-146615152D02*
X187846732Y-144677679D01*
X187846732Y-144677679D02*
X183222254Y-140053201D01*
X181709045Y-140477465D02*
X182253517Y-141021937D01*
X187422468Y-146190888D02*
X186877996Y-145646416D01*
G04 #@! TO.C,RV1*
X92559329Y-92595153D02*
X85530687Y-99623795D01*
X78007071Y-89837437D02*
X76875700Y-90968808D01*
X79774131Y-88070377D02*
X79237437Y-88607071D01*
X81541898Y-86302610D02*
X81005204Y-86839304D01*
X83904342Y-83940166D02*
X82773678Y-85070830D01*
X82797720Y-96890827D02*
X85530687Y-99623795D01*
X76875700Y-90968808D02*
X79608668Y-93701775D01*
X89826361Y-89862186D02*
X92559329Y-92595153D01*
X83904342Y-83940166D02*
X86637309Y-86673134D01*
G04 #@! TO.C,RV2*
X134295658Y-48159834D02*
X131562691Y-45426866D01*
X128373639Y-42237814D02*
X125640671Y-39504847D01*
X141324300Y-41131192D02*
X138591332Y-38398225D01*
X135402280Y-35209173D02*
X132669313Y-32476205D01*
X134295658Y-48159834D02*
X135426322Y-47029170D01*
X136658102Y-45797390D02*
X137194796Y-45260696D01*
X138425869Y-44029623D02*
X138962563Y-43492929D01*
X140192929Y-42262563D02*
X141324300Y-41131192D01*
X125640671Y-39504847D02*
X132669313Y-32476205D01*
G04 #@! TO.C,RV3*
X144159329Y-144395153D02*
X137130687Y-151423795D01*
X129607071Y-141637437D02*
X128475700Y-142768808D01*
X131374131Y-139870377D02*
X130837437Y-140407071D01*
X133141898Y-138102610D02*
X132605204Y-138639304D01*
X135504342Y-135740166D02*
X134373678Y-136870830D01*
X134397720Y-148690827D02*
X137130687Y-151423795D01*
X128475700Y-142768808D02*
X131208668Y-145501775D01*
X141426361Y-141662186D02*
X144159329Y-144395153D01*
X135504342Y-135740166D02*
X138237309Y-138473134D01*
G04 #@! TO.C,RV4*
X178040166Y-92995658D02*
X180773134Y-90262691D01*
X183962186Y-87073639D02*
X186695153Y-84340671D01*
X185068808Y-100024300D02*
X187801775Y-97291332D01*
X190990827Y-94102280D02*
X193723795Y-91369313D01*
X178040166Y-92995658D02*
X179170830Y-94126322D01*
X180402610Y-95358102D02*
X180939304Y-95894796D01*
X182170377Y-97125869D02*
X182707071Y-97662563D01*
X183937437Y-98892929D02*
X185068808Y-100024300D01*
X186695153Y-84340671D02*
X193723795Y-91369313D01*
D13*
G04 #@! TO.C,SW1*
X108228070Y-131150610D02*
X107733095Y-130655635D01*
X107733095Y-130655635D02*
X113955635Y-124433095D01*
X113955635Y-124433095D02*
X114379899Y-124857359D01*
X114379899Y-124857359D02*
X114450610Y-124928070D01*
X116571930Y-127049390D02*
X117066905Y-127544365D01*
X117066905Y-127544365D02*
X110844365Y-133766905D01*
X110844365Y-133766905D02*
X110420101Y-133342641D01*
X110420101Y-133342641D02*
X110349390Y-133271930D01*
G04 #@! TO.C,SW3*
X157045227Y-102446447D02*
X157045227Y-103146447D01*
X157045227Y-103146447D02*
X148245227Y-103146447D01*
X148245227Y-103146447D02*
X148245227Y-102546447D01*
X148245227Y-102546447D02*
X148245227Y-102446447D01*
X148245227Y-99446447D02*
X148245227Y-98746447D01*
X148245227Y-98746447D02*
X157045227Y-98746447D01*
X157045227Y-98746447D02*
X157045227Y-99346447D01*
X157045227Y-99346447D02*
X157045227Y-99446447D01*
D12*
G04 #@! TO.C,U1*
X121841636Y-105160732D02*
G75*
G02X120427422Y-103746518I-707107J707107D01*
G01*
X120427422Y-103746518D02*
X119260696Y-102579792D01*
X119260696Y-102579792D02*
X106603485Y-115237003D01*
X106603485Y-115237003D02*
X110351150Y-118984669D01*
X110351150Y-118984669D02*
X123008362Y-106327458D01*
X123008362Y-106327458D02*
X121841636Y-105160732D01*
X117542426Y-100776670D02*
X104800362Y-113518734D01*
X104800362Y-113518734D02*
X112069420Y-120787791D01*
X112069420Y-120787791D02*
X124811484Y-108045727D01*
X124811484Y-108045727D02*
X117542426Y-100776670D01*
G04 #@! TO.C,U2*
X100741636Y-131860732D02*
G75*
G02X99327422Y-130446518I-707107J707107D01*
G01*
X99327422Y-130446518D02*
X98160696Y-129279792D01*
X98160696Y-129279792D02*
X90891638Y-136548850D01*
X90891638Y-136548850D02*
X94639304Y-140296515D01*
X94639304Y-140296515D02*
X101908362Y-133027458D01*
X101908362Y-133027458D02*
X100741636Y-131860732D01*
X96442426Y-127476670D02*
X89088516Y-134830580D01*
X89088516Y-134830580D02*
X96357574Y-142099638D01*
X96357574Y-142099638D02*
X103711484Y-134745727D01*
X103711484Y-134745727D02*
X96442426Y-127476670D01*
G04 #@! TO.C,U3*
X106066440Y-59365111D02*
X113307214Y-52124338D01*
X94830514Y-48129185D02*
X102071287Y-40888411D01*
X94830514Y-48129185D02*
X106066440Y-59365111D01*
X102071287Y-40888411D02*
X113307214Y-52124338D01*
X107890776Y-57540776D02*
X109686827Y-59336827D01*
X109686827Y-55744725D02*
X111482878Y-57540776D01*
X111482878Y-53948674D02*
X113278930Y-55744725D01*
G04 #@! TO.C,U4*
X172641636Y-133660732D02*
G75*
G02X171227422Y-132246518I-707107J707107D01*
G01*
X171227422Y-132246518D02*
X170060696Y-131079792D01*
X170060696Y-131079792D02*
X162791638Y-138348850D01*
X162791638Y-138348850D02*
X166539304Y-142096515D01*
X166539304Y-142096515D02*
X173808362Y-134827458D01*
X173808362Y-134827458D02*
X172641636Y-133660732D01*
X168342426Y-129276670D02*
X160988516Y-136630580D01*
X160988516Y-136630580D02*
X168257574Y-143899638D01*
X168257574Y-143899638D02*
X175611484Y-136545727D01*
X175611484Y-136545727D02*
X168342426Y-129276670D01*
G04 #@! TO.C,TP1*
X104200000Y-117000000D02*
G75*
G03X104200000Y-117000000I-1200000J0D01*
G01*
G04 #@! TO.C,TP2*
X98300000Y-117100000D02*
G75*
G03X98300000Y-117100000I-1200000J0D01*
G01*
G04 #@! TO.C,TP3*
X122500000Y-98900000D02*
G75*
G03X122500000Y-98900000I-1200000J0D01*
G01*
G04 #@! TO.C,TP4*
X141750000Y-54150000D02*
G75*
G03X141750000Y-54150000I-1200000J0D01*
G01*
G04 #@! TO.C,TP5*
X107800000Y-93600000D02*
G75*
G03X107800000Y-93600000I-1200000J0D01*
G01*
G04 #@! TO.C,TP6*
X178600000Y-105400000D02*
G75*
G03X178600000Y-105400000I-1200000J0D01*
G01*
G04 #@! TO.C,TP7*
X159250000Y-152050000D02*
G75*
G03X159250000Y-152050000I-1200000J0D01*
G01*
G04 #@! TO.C,TP8*
X145600000Y-128300000D02*
G75*
G03X145600000Y-128300000I-1200000J0D01*
G01*
G04 #@! TO.C,TP9*
X121350000Y-134850000D02*
G75*
G03X121350000Y-134850000I-1200000J0D01*
G01*
G04 #@! TO.C,TP10*
X117900000Y-121600000D02*
G75*
G03X117900000Y-121600000I-1200000J0D01*
G01*
G04 #@! TO.C,TP11*
X130150000Y-99400000D02*
G75*
G03X130150000Y-99400000I-1200000J0D01*
G01*
G04 #@! TO.C,TP13*
X199900000Y-115300000D02*
G75*
G03X199900000Y-115300000I-1200000J0D01*
G01*
G04 #@! TO.C,TP14*
X108100000Y-35400000D02*
G75*
G03X108100000Y-35400000I-1200000J0D01*
G01*
G04 #@! TO.C,TP15*
X163189949Y-115894322D02*
G75*
G03X163189949Y-115894322I-1200000J0D01*
G01*
G04 #@! TO.C,TP16*
X168846804Y-110237469D02*
G75*
G03X168846804Y-110237469I-1200000J0D01*
G01*
G04 #@! TO.C,TP17*
X164050000Y-129450000D02*
G75*
G03X164050000Y-129450000I-1200000J0D01*
G01*
G04 #@! TO.C,BZ1*
X171630000Y-95400000D02*
G75*
G03X171630000Y-95400000I-6230000J0D01*
G01*
X159000000Y-96899999D02*
G75*
G02X159000000Y-93900000I6400000J1499999D01*
G01*
G04 #@! TO.C,C3*
X108579192Y-99578115D02*
X107689652Y-98688575D01*
X107278115Y-100879192D02*
X106388575Y-99989652D01*
G04 #@! TO.C,C5*
X136411425Y-104810348D02*
X135521885Y-103920808D01*
X135110348Y-106111425D02*
X134220808Y-105221885D01*
G04 #@! TO.C,C6*
X186079000Y-116220000D02*
X184821000Y-116220000D01*
X186079000Y-114380000D02*
X184821000Y-114380000D01*
G04 #@! TO.C,C7*
X175110348Y-134311425D02*
X174220808Y-133421885D01*
X176411425Y-133010348D02*
X175521885Y-132120808D01*
D13*
G04 #@! TO.C,RV5*
X100960660Y-100796194D02*
X99900000Y-101856854D01*
X99900000Y-101856854D02*
X98839340Y-100796194D01*
X95303806Y-97260660D02*
X94243146Y-96200000D01*
X94243146Y-96200000D02*
X95303806Y-95139340D01*
X98839340Y-91603806D02*
X99900000Y-90543146D01*
X99900000Y-90543146D02*
X100960660Y-91603806D01*
X104496194Y-95139340D02*
X105556854Y-96200000D01*
X105556854Y-96200000D02*
X104496194Y-97260660D01*
D12*
G04 #@! TO.C,Q1*
X107038478Y-81691522D02*
G75*
G03X102600000Y-83530000I-1838478J-1838478D01*
G01*
X107038478Y-85368478D02*
G75*
G02X102600000Y-83530000I-1838478J1838478D01*
G01*
X107050000Y-85330000D02*
X107050000Y-81730000D01*
G04 #@! TO.C,Q2*
X124150000Y-88030000D02*
X124150000Y-84430000D01*
X124138478Y-88068478D02*
G75*
G02X119700000Y-86230000I-1838478J1838478D01*
G01*
X124138478Y-84391522D02*
G75*
G03X119700000Y-86230000I-1838478J-1838478D01*
G01*
G04 #@! TO.C,R13*
X88500000Y-109620000D02*
X88500000Y-108850000D01*
X88500000Y-101540000D02*
X88500000Y-102310000D01*
X89870000Y-108850000D02*
X89870000Y-102310000D01*
X87130000Y-108850000D02*
X89870000Y-108850000D01*
X87130000Y-102310000D02*
X87130000Y-108850000D01*
X89870000Y-102310000D02*
X87130000Y-102310000D01*
G04 #@! TO.C,R16*
X166930000Y-154790000D02*
X169670000Y-154790000D01*
X169670000Y-154790000D02*
X169670000Y-148250000D01*
X169670000Y-148250000D02*
X166930000Y-148250000D01*
X166930000Y-148250000D02*
X166930000Y-154790000D01*
X168300000Y-155560000D02*
X168300000Y-154790000D01*
X168300000Y-147480000D02*
X168300000Y-148250000D01*
G04 #@! TO.C,R17*
X195051400Y-143988873D02*
X196988873Y-142051400D01*
X196988873Y-142051400D02*
X192364395Y-137426922D01*
X192364395Y-137426922D02*
X190426922Y-139364395D01*
X190426922Y-139364395D02*
X195051400Y-143988873D01*
X196564609Y-143564609D02*
X196020137Y-143020137D01*
X190851186Y-137851186D02*
X191395658Y-138395658D01*
G04 #@! TO.C,R21*
X185348814Y-155548814D02*
X184804342Y-155004342D01*
X179635391Y-149835391D02*
X180179863Y-150379863D01*
X185773078Y-154035605D02*
X181148600Y-149411127D01*
X183835605Y-155973078D02*
X185773078Y-154035605D01*
X179211127Y-151348600D02*
X183835605Y-155973078D01*
X181148600Y-149411127D02*
X179211127Y-151348600D01*
G04 #@! TO.C,TP12*
X201500000Y-135900000D02*
G75*
G03X201500000Y-135900000I-1200000J0D01*
G01*
G04 #@! TO.C,C4*
D13*
X94496158Y-62050372D02*
X94428815Y-62050372D01*
X94294128Y-61983028D01*
X94226784Y-61915685D01*
X94159441Y-61780997D01*
X94159441Y-61646310D01*
X94193112Y-61545295D01*
X94294128Y-61376936D01*
X94395143Y-61275921D01*
X94563502Y-61174906D01*
X94664517Y-61141234D01*
X94799204Y-61141234D01*
X94933891Y-61208578D01*
X95001235Y-61275921D01*
X95068578Y-61410608D01*
X95068578Y-61477952D01*
X95506311Y-62252402D02*
X95034906Y-62723807D01*
X95607326Y-61814669D02*
X94933891Y-62151387D01*
X95371624Y-62589120D01*
G04 #@! TO.C,J2*
X159726666Y-167132380D02*
X159726666Y-167846666D01*
X159679047Y-167989523D01*
X159583809Y-168084761D01*
X159440952Y-168132380D01*
X159345714Y-168132380D01*
X160155238Y-167227619D02*
X160202857Y-167180000D01*
X160298095Y-167132380D01*
X160536190Y-167132380D01*
X160631428Y-167180000D01*
X160679047Y-167227619D01*
X160726666Y-167322857D01*
X160726666Y-167418095D01*
X160679047Y-167560952D01*
X160107619Y-168132380D01*
X160726666Y-168132380D01*
G04 #@! TO.C,SW2*
X110516666Y-46254761D02*
X110659523Y-46302380D01*
X110897619Y-46302380D01*
X110992857Y-46254761D01*
X111040476Y-46207142D01*
X111088095Y-46111904D01*
X111088095Y-46016666D01*
X111040476Y-45921428D01*
X110992857Y-45873809D01*
X110897619Y-45826190D01*
X110707142Y-45778571D01*
X110611904Y-45730952D01*
X110564285Y-45683333D01*
X110516666Y-45588095D01*
X110516666Y-45492857D01*
X110564285Y-45397619D01*
X110611904Y-45350000D01*
X110707142Y-45302380D01*
X110945238Y-45302380D01*
X111088095Y-45350000D01*
X111421428Y-45302380D02*
X111659523Y-46302380D01*
X111850000Y-45588095D01*
X112040476Y-46302380D01*
X112278571Y-45302380D01*
X112611904Y-45397619D02*
X112659523Y-45350000D01*
X112754761Y-45302380D01*
X112992857Y-45302380D01*
X113088095Y-45350000D01*
X113135714Y-45397619D01*
X113183333Y-45492857D01*
X113183333Y-45588095D01*
X113135714Y-45730952D01*
X112564285Y-46302380D01*
X113183333Y-46302380D01*
G04 #@! TO.C,C1*
X99383333Y-125957142D02*
X99335714Y-126004761D01*
X99192857Y-126052380D01*
X99097619Y-126052380D01*
X98954761Y-126004761D01*
X98859523Y-125909523D01*
X98811904Y-125814285D01*
X98764285Y-125623809D01*
X98764285Y-125480952D01*
X98811904Y-125290476D01*
X98859523Y-125195238D01*
X98954761Y-125100000D01*
X99097619Y-125052380D01*
X99192857Y-125052380D01*
X99335714Y-125100000D01*
X99383333Y-125147619D01*
X100335714Y-126052380D02*
X99764285Y-126052380D01*
X100050000Y-126052380D02*
X100050000Y-125052380D01*
X99954761Y-125195238D01*
X99859523Y-125290476D01*
X99764285Y-125338095D01*
G04 #@! TO.C,C2*
X101833333Y-109057142D02*
X101785714Y-109104761D01*
X101642857Y-109152380D01*
X101547619Y-109152380D01*
X101404761Y-109104761D01*
X101309523Y-109009523D01*
X101261904Y-108914285D01*
X101214285Y-108723809D01*
X101214285Y-108580952D01*
X101261904Y-108390476D01*
X101309523Y-108295238D01*
X101404761Y-108200000D01*
X101547619Y-108152380D01*
X101642857Y-108152380D01*
X101785714Y-108200000D01*
X101833333Y-108247619D01*
X102214285Y-108247619D02*
X102261904Y-108200000D01*
X102357142Y-108152380D01*
X102595238Y-108152380D01*
X102690476Y-108200000D01*
X102738095Y-108247619D01*
X102785714Y-108342857D01*
X102785714Y-108438095D01*
X102738095Y-108580952D01*
X102166666Y-109152380D01*
X102785714Y-109152380D01*
G04 #@! TO.C,D1*
X109261904Y-72552380D02*
X109261904Y-71552380D01*
X109500000Y-71552380D01*
X109642857Y-71600000D01*
X109738095Y-71695238D01*
X109785714Y-71790476D01*
X109833333Y-71980952D01*
X109833333Y-72123809D01*
X109785714Y-72314285D01*
X109738095Y-72409523D01*
X109642857Y-72504761D01*
X109500000Y-72552380D01*
X109261904Y-72552380D01*
X110785714Y-72552380D02*
X110214285Y-72552380D01*
X110500000Y-72552380D02*
X110500000Y-71552380D01*
X110404761Y-71695238D01*
X110309523Y-71790476D01*
X110214285Y-71838095D01*
G04 #@! TO.C,D2*
X131611904Y-85852380D02*
X131611904Y-84852380D01*
X131850000Y-84852380D01*
X131992857Y-84900000D01*
X132088095Y-84995238D01*
X132135714Y-85090476D01*
X132183333Y-85280952D01*
X132183333Y-85423809D01*
X132135714Y-85614285D01*
X132088095Y-85709523D01*
X131992857Y-85804761D01*
X131850000Y-85852380D01*
X131611904Y-85852380D01*
X132564285Y-84947619D02*
X132611904Y-84900000D01*
X132707142Y-84852380D01*
X132945238Y-84852380D01*
X133040476Y-84900000D01*
X133088095Y-84947619D01*
X133135714Y-85042857D01*
X133135714Y-85138095D01*
X133088095Y-85280952D01*
X132516666Y-85852380D01*
X133135714Y-85852380D01*
X131779847Y-77299763D02*
X132486954Y-76592656D01*
X132183908Y-77703824D02*
X132284924Y-76996717D01*
X132891015Y-76996717D02*
X132082893Y-76996717D01*
G04 #@! TO.C,J1*
X147316666Y-89452380D02*
X147316666Y-90166666D01*
X147269047Y-90309523D01*
X147173809Y-90404761D01*
X147030952Y-90452380D01*
X146935714Y-90452380D01*
X148316666Y-90452380D02*
X147745238Y-90452380D01*
X148030952Y-90452380D02*
X148030952Y-89452380D01*
X147935714Y-89595238D01*
X147840476Y-89690476D01*
X147745238Y-89738095D01*
G04 #@! TO.C,JP1*
X132816666Y-63902380D02*
X132816666Y-64616666D01*
X132769047Y-64759523D01*
X132673809Y-64854761D01*
X132530952Y-64902380D01*
X132435714Y-64902380D01*
X133292857Y-64902380D02*
X133292857Y-63902380D01*
X133673809Y-63902380D01*
X133769047Y-63950000D01*
X133816666Y-63997619D01*
X133864285Y-64092857D01*
X133864285Y-64235714D01*
X133816666Y-64330952D01*
X133769047Y-64378571D01*
X133673809Y-64426190D01*
X133292857Y-64426190D01*
X134816666Y-64902380D02*
X134245238Y-64902380D01*
X134530952Y-64902380D02*
X134530952Y-63902380D01*
X134435714Y-64045238D01*
X134340476Y-64140476D01*
X134245238Y-64188095D01*
G04 #@! TO.C,JP2*
X80954711Y-103103933D02*
X81459787Y-103609009D01*
X81527130Y-103743696D01*
X81527130Y-103878383D01*
X81459787Y-104013070D01*
X81392443Y-104080414D01*
X81998535Y-103474322D02*
X81291428Y-102767215D01*
X81560802Y-102497841D01*
X81661817Y-102464170D01*
X81729161Y-102464170D01*
X81830176Y-102497841D01*
X81931192Y-102598857D01*
X81964863Y-102699872D01*
X81964863Y-102767215D01*
X81931192Y-102868231D01*
X81661817Y-103137605D01*
X82032207Y-102161124D02*
X82032207Y-102093780D01*
X82065879Y-101992765D01*
X82234237Y-101824406D01*
X82335253Y-101790735D01*
X82402596Y-101790735D01*
X82503611Y-101824406D01*
X82570955Y-101891750D01*
X82638298Y-102026437D01*
X82638298Y-102834559D01*
X83076031Y-102396826D01*
G04 #@! TO.C,JP3*
X159466666Y-142552380D02*
X159466666Y-143266666D01*
X159419047Y-143409523D01*
X159323809Y-143504761D01*
X159180952Y-143552380D01*
X159085714Y-143552380D01*
X159942857Y-143552380D02*
X159942857Y-142552380D01*
X160323809Y-142552380D01*
X160419047Y-142600000D01*
X160466666Y-142647619D01*
X160514285Y-142742857D01*
X160514285Y-142885714D01*
X160466666Y-142980952D01*
X160419047Y-143028571D01*
X160323809Y-143076190D01*
X159942857Y-143076190D01*
X160847619Y-142552380D02*
X161466666Y-142552380D01*
X161133333Y-142933333D01*
X161276190Y-142933333D01*
X161371428Y-142980952D01*
X161419047Y-143028571D01*
X161466666Y-143123809D01*
X161466666Y-143361904D01*
X161419047Y-143457142D01*
X161371428Y-143504761D01*
X161276190Y-143552380D01*
X160990476Y-143552380D01*
X160895238Y-143504761D01*
X160847619Y-143457142D01*
G04 #@! TO.C,Q3*
X187354761Y-128797619D02*
X187259523Y-128750000D01*
X187164285Y-128654761D01*
X187021428Y-128511904D01*
X186926190Y-128464285D01*
X186830952Y-128464285D01*
X186878571Y-128702380D02*
X186783333Y-128654761D01*
X186688095Y-128559523D01*
X186640476Y-128369047D01*
X186640476Y-128035714D01*
X186688095Y-127845238D01*
X186783333Y-127750000D01*
X186878571Y-127702380D01*
X187069047Y-127702380D01*
X187164285Y-127750000D01*
X187259523Y-127845238D01*
X187307142Y-128035714D01*
X187307142Y-128369047D01*
X187259523Y-128559523D01*
X187164285Y-128654761D01*
X187069047Y-128702380D01*
X186878571Y-128702380D01*
X187640476Y-127702380D02*
X188259523Y-127702380D01*
X187926190Y-128083333D01*
X188069047Y-128083333D01*
X188164285Y-128130952D01*
X188211904Y-128178571D01*
X188259523Y-128273809D01*
X188259523Y-128511904D01*
X188211904Y-128607142D01*
X188164285Y-128654761D01*
X188069047Y-128702380D01*
X187783333Y-128702380D01*
X187688095Y-128654761D01*
X187640476Y-128607142D01*
G04 #@! TO.C,Q4*
X172504761Y-150347619D02*
X172409523Y-150300000D01*
X172314285Y-150204761D01*
X172171428Y-150061904D01*
X172076190Y-150014285D01*
X171980952Y-150014285D01*
X172028571Y-150252380D02*
X171933333Y-150204761D01*
X171838095Y-150109523D01*
X171790476Y-149919047D01*
X171790476Y-149585714D01*
X171838095Y-149395238D01*
X171933333Y-149300000D01*
X172028571Y-149252380D01*
X172219047Y-149252380D01*
X172314285Y-149300000D01*
X172409523Y-149395238D01*
X172457142Y-149585714D01*
X172457142Y-149919047D01*
X172409523Y-150109523D01*
X172314285Y-150204761D01*
X172219047Y-150252380D01*
X172028571Y-150252380D01*
X173314285Y-149585714D02*
X173314285Y-150252380D01*
X173076190Y-149204761D02*
X172838095Y-149919047D01*
X173457142Y-149919047D01*
G04 #@! TO.C,R1*
X83483333Y-122002380D02*
X83150000Y-121526190D01*
X82911904Y-122002380D02*
X82911904Y-121002380D01*
X83292857Y-121002380D01*
X83388095Y-121050000D01*
X83435714Y-121097619D01*
X83483333Y-121192857D01*
X83483333Y-121335714D01*
X83435714Y-121430952D01*
X83388095Y-121478571D01*
X83292857Y-121526190D01*
X82911904Y-121526190D01*
X84435714Y-122002380D02*
X83864285Y-122002380D01*
X84150000Y-122002380D02*
X84150000Y-121002380D01*
X84054761Y-121145238D01*
X83959523Y-121240476D01*
X83864285Y-121288095D01*
G04 #@! TO.C,R2*
X108383333Y-89252380D02*
X108050000Y-88776190D01*
X107811904Y-89252380D02*
X107811904Y-88252380D01*
X108192857Y-88252380D01*
X108288095Y-88300000D01*
X108335714Y-88347619D01*
X108383333Y-88442857D01*
X108383333Y-88585714D01*
X108335714Y-88680952D01*
X108288095Y-88728571D01*
X108192857Y-88776190D01*
X107811904Y-88776190D01*
X108764285Y-88347619D02*
X108811904Y-88300000D01*
X108907142Y-88252380D01*
X109145238Y-88252380D01*
X109240476Y-88300000D01*
X109288095Y-88347619D01*
X109335714Y-88442857D01*
X109335714Y-88538095D01*
X109288095Y-88680952D01*
X108716666Y-89252380D01*
X109335714Y-89252380D01*
G04 #@! TO.C,R3*
X136233333Y-56952380D02*
X135900000Y-56476190D01*
X135661904Y-56952380D02*
X135661904Y-55952380D01*
X136042857Y-55952380D01*
X136138095Y-56000000D01*
X136185714Y-56047619D01*
X136233333Y-56142857D01*
X136233333Y-56285714D01*
X136185714Y-56380952D01*
X136138095Y-56428571D01*
X136042857Y-56476190D01*
X135661904Y-56476190D01*
X136566666Y-55952380D02*
X137185714Y-55952380D01*
X136852380Y-56333333D01*
X136995238Y-56333333D01*
X137090476Y-56380952D01*
X137138095Y-56428571D01*
X137185714Y-56523809D01*
X137185714Y-56761904D01*
X137138095Y-56857142D01*
X137090476Y-56904761D01*
X136995238Y-56952380D01*
X136709523Y-56952380D01*
X136614285Y-56904761D01*
X136566666Y-56857142D01*
G04 #@! TO.C,R4*
X119483333Y-91602380D02*
X119150000Y-91126190D01*
X118911904Y-91602380D02*
X118911904Y-90602380D01*
X119292857Y-90602380D01*
X119388095Y-90650000D01*
X119435714Y-90697619D01*
X119483333Y-90792857D01*
X119483333Y-90935714D01*
X119435714Y-91030952D01*
X119388095Y-91078571D01*
X119292857Y-91126190D01*
X118911904Y-91126190D01*
X120340476Y-90935714D02*
X120340476Y-91602380D01*
X120102380Y-90554761D02*
X119864285Y-91269047D01*
X120483333Y-91269047D01*
G04 #@! TO.C,R5*
X150665270Y-111770904D02*
X150331937Y-111294714D01*
X150093841Y-111770904D02*
X150093841Y-110770904D01*
X150474794Y-110770904D01*
X150570032Y-110818524D01*
X150617651Y-110866143D01*
X150665270Y-110961381D01*
X150665270Y-111104238D01*
X150617651Y-111199476D01*
X150570032Y-111247095D01*
X150474794Y-111294714D01*
X150093841Y-111294714D01*
X151570032Y-110770904D02*
X151093841Y-110770904D01*
X151046222Y-111247095D01*
X151093841Y-111199476D01*
X151189079Y-111151857D01*
X151427175Y-111151857D01*
X151522413Y-111199476D01*
X151570032Y-111247095D01*
X151617651Y-111342333D01*
X151617651Y-111580428D01*
X151570032Y-111675666D01*
X151522413Y-111723285D01*
X151427175Y-111770904D01*
X151189079Y-111770904D01*
X151093841Y-111723285D01*
X151046222Y-111675666D01*
G04 #@! TO.C,R6*
X147333333Y-109552380D02*
X147000000Y-109076190D01*
X146761904Y-109552380D02*
X146761904Y-108552380D01*
X147142857Y-108552380D01*
X147238095Y-108600000D01*
X147285714Y-108647619D01*
X147333333Y-108742857D01*
X147333333Y-108885714D01*
X147285714Y-108980952D01*
X147238095Y-109028571D01*
X147142857Y-109076190D01*
X146761904Y-109076190D01*
X148190476Y-108552380D02*
X148000000Y-108552380D01*
X147904761Y-108600000D01*
X147857142Y-108647619D01*
X147761904Y-108790476D01*
X147714285Y-108980952D01*
X147714285Y-109361904D01*
X147761904Y-109457142D01*
X147809523Y-109504761D01*
X147904761Y-109552380D01*
X148095238Y-109552380D01*
X148190476Y-109504761D01*
X148238095Y-109457142D01*
X148285714Y-109361904D01*
X148285714Y-109123809D01*
X148238095Y-109028571D01*
X148190476Y-108980952D01*
X148095238Y-108933333D01*
X147904761Y-108933333D01*
X147809523Y-108980952D01*
X147761904Y-109028571D01*
X147714285Y-109123809D01*
G04 #@! TO.C,R7*
X132633333Y-125452380D02*
X132300000Y-124976190D01*
X132061904Y-125452380D02*
X132061904Y-124452380D01*
X132442857Y-124452380D01*
X132538095Y-124500000D01*
X132585714Y-124547619D01*
X132633333Y-124642857D01*
X132633333Y-124785714D01*
X132585714Y-124880952D01*
X132538095Y-124928571D01*
X132442857Y-124976190D01*
X132061904Y-124976190D01*
X132966666Y-124452380D02*
X133633333Y-124452380D01*
X133204761Y-125452380D01*
G04 #@! TO.C,R8*
X121333333Y-120902380D02*
X121000000Y-120426190D01*
X120761904Y-120902380D02*
X120761904Y-119902380D01*
X121142857Y-119902380D01*
X121238095Y-119950000D01*
X121285714Y-119997619D01*
X121333333Y-120092857D01*
X121333333Y-120235714D01*
X121285714Y-120330952D01*
X121238095Y-120378571D01*
X121142857Y-120426190D01*
X120761904Y-120426190D01*
X121904761Y-120330952D02*
X121809523Y-120283333D01*
X121761904Y-120235714D01*
X121714285Y-120140476D01*
X121714285Y-120092857D01*
X121761904Y-119997619D01*
X121809523Y-119950000D01*
X121904761Y-119902380D01*
X122095238Y-119902380D01*
X122190476Y-119950000D01*
X122238095Y-119997619D01*
X122285714Y-120092857D01*
X122285714Y-120140476D01*
X122238095Y-120235714D01*
X122190476Y-120283333D01*
X122095238Y-120330952D01*
X121904761Y-120330952D01*
X121809523Y-120378571D01*
X121761904Y-120426190D01*
X121714285Y-120521428D01*
X121714285Y-120711904D01*
X121761904Y-120807142D01*
X121809523Y-120854761D01*
X121904761Y-120902380D01*
X122095238Y-120902380D01*
X122190476Y-120854761D01*
X122238095Y-120807142D01*
X122285714Y-120711904D01*
X122285714Y-120521428D01*
X122238095Y-120426190D01*
X122190476Y-120378571D01*
X122095238Y-120330952D01*
G04 #@! TO.C,R9*
X149983333Y-122552380D02*
X149650000Y-122076190D01*
X149411904Y-122552380D02*
X149411904Y-121552380D01*
X149792857Y-121552380D01*
X149888095Y-121600000D01*
X149935714Y-121647619D01*
X149983333Y-121742857D01*
X149983333Y-121885714D01*
X149935714Y-121980952D01*
X149888095Y-122028571D01*
X149792857Y-122076190D01*
X149411904Y-122076190D01*
X150459523Y-122552380D02*
X150650000Y-122552380D01*
X150745238Y-122504761D01*
X150792857Y-122457142D01*
X150888095Y-122314285D01*
X150935714Y-122123809D01*
X150935714Y-121742857D01*
X150888095Y-121647619D01*
X150840476Y-121600000D01*
X150745238Y-121552380D01*
X150554761Y-121552380D01*
X150459523Y-121600000D01*
X150411904Y-121647619D01*
X150364285Y-121742857D01*
X150364285Y-121980952D01*
X150411904Y-122076190D01*
X150459523Y-122123809D01*
X150554761Y-122171428D01*
X150745238Y-122171428D01*
X150840476Y-122123809D01*
X150888095Y-122076190D01*
X150935714Y-121980952D01*
G04 #@! TO.C,R10*
X97657142Y-88952380D02*
X97323809Y-88476190D01*
X97085714Y-88952380D02*
X97085714Y-87952380D01*
X97466666Y-87952380D01*
X97561904Y-88000000D01*
X97609523Y-88047619D01*
X97657142Y-88142857D01*
X97657142Y-88285714D01*
X97609523Y-88380952D01*
X97561904Y-88428571D01*
X97466666Y-88476190D01*
X97085714Y-88476190D01*
X98609523Y-88952380D02*
X98038095Y-88952380D01*
X98323809Y-88952380D02*
X98323809Y-87952380D01*
X98228571Y-88095238D01*
X98133333Y-88190476D01*
X98038095Y-88238095D01*
X99228571Y-87952380D02*
X99323809Y-87952380D01*
X99419047Y-88000000D01*
X99466666Y-88047619D01*
X99514285Y-88142857D01*
X99561904Y-88333333D01*
X99561904Y-88571428D01*
X99514285Y-88761904D01*
X99466666Y-88857142D01*
X99419047Y-88904761D01*
X99323809Y-88952380D01*
X99228571Y-88952380D01*
X99133333Y-88904761D01*
X99085714Y-88857142D01*
X99038095Y-88761904D01*
X98990476Y-88571428D01*
X98990476Y-88333333D01*
X99038095Y-88142857D01*
X99085714Y-88047619D01*
X99133333Y-88000000D01*
X99228571Y-87952380D01*
G04 #@! TO.C,R11*
X105607142Y-75452380D02*
X105273809Y-74976190D01*
X105035714Y-75452380D02*
X105035714Y-74452380D01*
X105416666Y-74452380D01*
X105511904Y-74500000D01*
X105559523Y-74547619D01*
X105607142Y-74642857D01*
X105607142Y-74785714D01*
X105559523Y-74880952D01*
X105511904Y-74928571D01*
X105416666Y-74976190D01*
X105035714Y-74976190D01*
X106559523Y-75452380D02*
X105988095Y-75452380D01*
X106273809Y-75452380D02*
X106273809Y-74452380D01*
X106178571Y-74595238D01*
X106083333Y-74690476D01*
X105988095Y-74738095D01*
X107511904Y-75452380D02*
X106940476Y-75452380D01*
X107226190Y-75452380D02*
X107226190Y-74452380D01*
X107130952Y-74595238D01*
X107035714Y-74690476D01*
X106940476Y-74738095D01*
G04 #@! TO.C,R12*
X97952380Y-107542857D02*
X97476190Y-107876190D01*
X97952380Y-108114285D02*
X96952380Y-108114285D01*
X96952380Y-107733333D01*
X97000000Y-107638095D01*
X97047619Y-107590476D01*
X97142857Y-107542857D01*
X97285714Y-107542857D01*
X97380952Y-107590476D01*
X97428571Y-107638095D01*
X97476190Y-107733333D01*
X97476190Y-108114285D01*
X97952380Y-106590476D02*
X97952380Y-107161904D01*
X97952380Y-106876190D02*
X96952380Y-106876190D01*
X97095238Y-106971428D01*
X97190476Y-107066666D01*
X97238095Y-107161904D01*
X97047619Y-106209523D02*
X97000000Y-106161904D01*
X96952380Y-106066666D01*
X96952380Y-105828571D01*
X97000000Y-105733333D01*
X97047619Y-105685714D01*
X97142857Y-105638095D01*
X97238095Y-105638095D01*
X97380952Y-105685714D01*
X97952380Y-106257142D01*
X97952380Y-105638095D01*
G04 #@! TO.C,R14*
X196107142Y-107652380D02*
X195773809Y-107176190D01*
X195535714Y-107652380D02*
X195535714Y-106652380D01*
X195916666Y-106652380D01*
X196011904Y-106700000D01*
X196059523Y-106747619D01*
X196107142Y-106842857D01*
X196107142Y-106985714D01*
X196059523Y-107080952D01*
X196011904Y-107128571D01*
X195916666Y-107176190D01*
X195535714Y-107176190D01*
X197059523Y-107652380D02*
X196488095Y-107652380D01*
X196773809Y-107652380D02*
X196773809Y-106652380D01*
X196678571Y-106795238D01*
X196583333Y-106890476D01*
X196488095Y-106938095D01*
X197916666Y-106985714D02*
X197916666Y-107652380D01*
X197678571Y-106604761D02*
X197440476Y-107319047D01*
X198059523Y-107319047D01*
G04 #@! TO.C,R15*
X196007142Y-123952380D02*
X195673809Y-123476190D01*
X195435714Y-123952380D02*
X195435714Y-122952380D01*
X195816666Y-122952380D01*
X195911904Y-123000000D01*
X195959523Y-123047619D01*
X196007142Y-123142857D01*
X196007142Y-123285714D01*
X195959523Y-123380952D01*
X195911904Y-123428571D01*
X195816666Y-123476190D01*
X195435714Y-123476190D01*
X196959523Y-123952380D02*
X196388095Y-123952380D01*
X196673809Y-123952380D02*
X196673809Y-122952380D01*
X196578571Y-123095238D01*
X196483333Y-123190476D01*
X196388095Y-123238095D01*
X197864285Y-122952380D02*
X197388095Y-122952380D01*
X197340476Y-123428571D01*
X197388095Y-123380952D01*
X197483333Y-123333333D01*
X197721428Y-123333333D01*
X197816666Y-123380952D01*
X197864285Y-123428571D01*
X197911904Y-123523809D01*
X197911904Y-123761904D01*
X197864285Y-123857142D01*
X197816666Y-123904761D01*
X197721428Y-123952380D01*
X197483333Y-123952380D01*
X197388095Y-123904761D01*
X197340476Y-123857142D01*
G04 #@! TO.C,R18*
X192457142Y-146052380D02*
X192123809Y-145576190D01*
X191885714Y-146052380D02*
X191885714Y-145052380D01*
X192266666Y-145052380D01*
X192361904Y-145100000D01*
X192409523Y-145147619D01*
X192457142Y-145242857D01*
X192457142Y-145385714D01*
X192409523Y-145480952D01*
X192361904Y-145528571D01*
X192266666Y-145576190D01*
X191885714Y-145576190D01*
X193409523Y-146052380D02*
X192838095Y-146052380D01*
X193123809Y-146052380D02*
X193123809Y-145052380D01*
X193028571Y-145195238D01*
X192933333Y-145290476D01*
X192838095Y-145338095D01*
X193980952Y-145480952D02*
X193885714Y-145433333D01*
X193838095Y-145385714D01*
X193790476Y-145290476D01*
X193790476Y-145242857D01*
X193838095Y-145147619D01*
X193885714Y-145100000D01*
X193980952Y-145052380D01*
X194171428Y-145052380D01*
X194266666Y-145100000D01*
X194314285Y-145147619D01*
X194361904Y-145242857D01*
X194361904Y-145290476D01*
X194314285Y-145385714D01*
X194266666Y-145433333D01*
X194171428Y-145480952D01*
X193980952Y-145480952D01*
X193885714Y-145528571D01*
X193838095Y-145576190D01*
X193790476Y-145671428D01*
X193790476Y-145861904D01*
X193838095Y-145957142D01*
X193885714Y-146004761D01*
X193980952Y-146052380D01*
X194171428Y-146052380D01*
X194266666Y-146004761D01*
X194314285Y-145957142D01*
X194361904Y-145861904D01*
X194361904Y-145671428D01*
X194314285Y-145576190D01*
X194266666Y-145528571D01*
X194171428Y-145480952D01*
G04 #@! TO.C,R19*
X186857142Y-152352380D02*
X186523809Y-151876190D01*
X186285714Y-152352380D02*
X186285714Y-151352380D01*
X186666666Y-151352380D01*
X186761904Y-151400000D01*
X186809523Y-151447619D01*
X186857142Y-151542857D01*
X186857142Y-151685714D01*
X186809523Y-151780952D01*
X186761904Y-151828571D01*
X186666666Y-151876190D01*
X186285714Y-151876190D01*
X187809523Y-152352380D02*
X187238095Y-152352380D01*
X187523809Y-152352380D02*
X187523809Y-151352380D01*
X187428571Y-151495238D01*
X187333333Y-151590476D01*
X187238095Y-151638095D01*
X188285714Y-152352380D02*
X188476190Y-152352380D01*
X188571428Y-152304761D01*
X188619047Y-152257142D01*
X188714285Y-152114285D01*
X188761904Y-151923809D01*
X188761904Y-151542857D01*
X188714285Y-151447619D01*
X188666666Y-151400000D01*
X188571428Y-151352380D01*
X188380952Y-151352380D01*
X188285714Y-151400000D01*
X188238095Y-151447619D01*
X188190476Y-151542857D01*
X188190476Y-151780952D01*
X188238095Y-151876190D01*
X188285714Y-151923809D01*
X188380952Y-151971428D01*
X188571428Y-151971428D01*
X188666666Y-151923809D01*
X188714285Y-151876190D01*
X188761904Y-151780952D01*
G04 #@! TO.C,R20*
X189593895Y-149316131D02*
X189260562Y-148839941D01*
X189022467Y-149316131D02*
X189022467Y-148316131D01*
X189403419Y-148316131D01*
X189498657Y-148363751D01*
X189546276Y-148411370D01*
X189593895Y-148506608D01*
X189593895Y-148649465D01*
X189546276Y-148744703D01*
X189498657Y-148792322D01*
X189403419Y-148839941D01*
X189022467Y-148839941D01*
X189974848Y-148411370D02*
X190022467Y-148363751D01*
X190117705Y-148316131D01*
X190355800Y-148316131D01*
X190451038Y-148363751D01*
X190498657Y-148411370D01*
X190546276Y-148506608D01*
X190546276Y-148601846D01*
X190498657Y-148744703D01*
X189927229Y-149316131D01*
X190546276Y-149316131D01*
X191165324Y-148316131D02*
X191260562Y-148316131D01*
X191355800Y-148363751D01*
X191403419Y-148411370D01*
X191451038Y-148506608D01*
X191498657Y-148697084D01*
X191498657Y-148935179D01*
X191451038Y-149125655D01*
X191403419Y-149220893D01*
X191355800Y-149268512D01*
X191260562Y-149316131D01*
X191165324Y-149316131D01*
X191070086Y-149268512D01*
X191022467Y-149220893D01*
X190974848Y-149125655D01*
X190927229Y-148935179D01*
X190927229Y-148697084D01*
X190974848Y-148506608D01*
X191022467Y-148411370D01*
X191070086Y-148363751D01*
X191165324Y-148316131D01*
G04 #@! TO.C,RV1*
X90604761Y-85002380D02*
X90271428Y-84526190D01*
X90033333Y-85002380D02*
X90033333Y-84002380D01*
X90414285Y-84002380D01*
X90509523Y-84050000D01*
X90557142Y-84097619D01*
X90604761Y-84192857D01*
X90604761Y-84335714D01*
X90557142Y-84430952D01*
X90509523Y-84478571D01*
X90414285Y-84526190D01*
X90033333Y-84526190D01*
X90890476Y-84002380D02*
X91223809Y-85002380D01*
X91557142Y-84002380D01*
X92414285Y-85002380D02*
X91842857Y-85002380D01*
X92128571Y-85002380D02*
X92128571Y-84002380D01*
X92033333Y-84145238D01*
X91938095Y-84240476D01*
X91842857Y-84288095D01*
G04 #@! TO.C,RV2*
X128404761Y-49152380D02*
X128071428Y-48676190D01*
X127833333Y-49152380D02*
X127833333Y-48152380D01*
X128214285Y-48152380D01*
X128309523Y-48200000D01*
X128357142Y-48247619D01*
X128404761Y-48342857D01*
X128404761Y-48485714D01*
X128357142Y-48580952D01*
X128309523Y-48628571D01*
X128214285Y-48676190D01*
X127833333Y-48676190D01*
X128690476Y-48152380D02*
X129023809Y-49152380D01*
X129357142Y-48152380D01*
X129642857Y-48247619D02*
X129690476Y-48200000D01*
X129785714Y-48152380D01*
X130023809Y-48152380D01*
X130119047Y-48200000D01*
X130166666Y-48247619D01*
X130214285Y-48342857D01*
X130214285Y-48438095D01*
X130166666Y-48580952D01*
X129595238Y-49152380D01*
X130214285Y-49152380D01*
G04 #@! TO.C,RV3*
X139604760Y-135452380D02*
X139271427Y-134976190D01*
X139033332Y-135452380D02*
X139033332Y-134452380D01*
X139414284Y-134452380D01*
X139509522Y-134500000D01*
X139557141Y-134547619D01*
X139604760Y-134642857D01*
X139604760Y-134785714D01*
X139557141Y-134880952D01*
X139509522Y-134928571D01*
X139414284Y-134976190D01*
X139033332Y-134976190D01*
X139890475Y-134452380D02*
X140223808Y-135452380D01*
X140557141Y-134452380D01*
X140795237Y-134452380D02*
X141414284Y-134452380D01*
X141080951Y-134833333D01*
X141223808Y-134833333D01*
X141319046Y-134880952D01*
X141366665Y-134928571D01*
X141414284Y-135023809D01*
X141414284Y-135261904D01*
X141366665Y-135357142D01*
X141319046Y-135404761D01*
X141223808Y-135452380D01*
X140938094Y-135452380D01*
X140842856Y-135404761D01*
X140795237Y-135357142D01*
G04 #@! TO.C,RV4*
X178704761Y-86502380D02*
X178371428Y-86026190D01*
X178133333Y-86502380D02*
X178133333Y-85502380D01*
X178514285Y-85502380D01*
X178609523Y-85550000D01*
X178657142Y-85597619D01*
X178704761Y-85692857D01*
X178704761Y-85835714D01*
X178657142Y-85930952D01*
X178609523Y-85978571D01*
X178514285Y-86026190D01*
X178133333Y-86026190D01*
X178990476Y-85502380D02*
X179323809Y-86502380D01*
X179657142Y-85502380D01*
X180419047Y-85835714D02*
X180419047Y-86502380D01*
X180180952Y-85454761D02*
X179942857Y-86169047D01*
X180561904Y-86169047D01*
G04 #@! TO.C,SW1*
X117316665Y-129954761D02*
X117459522Y-130002380D01*
X117697618Y-130002380D01*
X117792856Y-129954761D01*
X117840475Y-129907142D01*
X117888094Y-129811904D01*
X117888094Y-129716666D01*
X117840475Y-129621428D01*
X117792856Y-129573809D01*
X117697618Y-129526190D01*
X117507141Y-129478571D01*
X117411903Y-129430952D01*
X117364284Y-129383333D01*
X117316665Y-129288095D01*
X117316665Y-129192857D01*
X117364284Y-129097619D01*
X117411903Y-129050000D01*
X117507141Y-129002380D01*
X117745237Y-129002380D01*
X117888094Y-129050000D01*
X118221427Y-129002380D02*
X118459522Y-130002380D01*
X118649999Y-129288095D01*
X118840475Y-130002380D01*
X119078570Y-129002380D01*
X119983332Y-130002380D02*
X119411903Y-130002380D01*
X119697618Y-130002380D02*
X119697618Y-129002380D01*
X119602379Y-129145238D01*
X119507141Y-129240476D01*
X119411903Y-129288095D01*
G04 #@! TO.C,SW3*
X148766309Y-97532831D02*
X148909166Y-97580450D01*
X149147262Y-97580450D01*
X149242500Y-97532831D01*
X149290119Y-97485212D01*
X149337738Y-97389974D01*
X149337738Y-97294736D01*
X149290119Y-97199498D01*
X149242500Y-97151879D01*
X149147262Y-97104260D01*
X148956785Y-97056641D01*
X148861547Y-97009022D01*
X148813928Y-96961403D01*
X148766309Y-96866165D01*
X148766309Y-96770927D01*
X148813928Y-96675689D01*
X148861547Y-96628070D01*
X148956785Y-96580450D01*
X149194881Y-96580450D01*
X149337738Y-96628070D01*
X149671071Y-96580450D02*
X149909166Y-97580450D01*
X150099643Y-96866165D01*
X150290119Y-97580450D01*
X150528214Y-96580450D01*
X150813928Y-96580450D02*
X151432976Y-96580450D01*
X151099643Y-96961403D01*
X151242500Y-96961403D01*
X151337738Y-97009022D01*
X151385357Y-97056641D01*
X151432976Y-97151879D01*
X151432976Y-97389974D01*
X151385357Y-97485212D01*
X151337738Y-97532831D01*
X151242500Y-97580450D01*
X150956785Y-97580450D01*
X150861547Y-97532831D01*
X150813928Y-97485212D01*
G04 #@! TO.C,U1*
X123288095Y-103152380D02*
X123288095Y-103961904D01*
X123335714Y-104057142D01*
X123383333Y-104104761D01*
X123478571Y-104152380D01*
X123669047Y-104152380D01*
X123764285Y-104104761D01*
X123811904Y-104057142D01*
X123859523Y-103961904D01*
X123859523Y-103152380D01*
X124859523Y-104152380D02*
X124288095Y-104152380D01*
X124573809Y-104152380D02*
X124573809Y-103152380D01*
X124478571Y-103295238D01*
X124383333Y-103390476D01*
X124288095Y-103438095D01*
G04 #@! TO.C,U2*
X90638095Y-138852380D02*
X90638095Y-139661904D01*
X90685714Y-139757142D01*
X90733333Y-139804761D01*
X90828571Y-139852380D01*
X91019047Y-139852380D01*
X91114285Y-139804761D01*
X91161904Y-139757142D01*
X91209523Y-139661904D01*
X91209523Y-138852380D01*
X91638095Y-138947619D02*
X91685714Y-138900000D01*
X91780952Y-138852380D01*
X92019047Y-138852380D01*
X92114285Y-138900000D01*
X92161904Y-138947619D01*
X92209523Y-139042857D01*
X92209523Y-139138095D01*
X92161904Y-139280952D01*
X91590476Y-139852380D01*
X92209523Y-139852380D01*
G04 #@! TO.C,U3*
X96288095Y-42452380D02*
X96288095Y-43261904D01*
X96335714Y-43357142D01*
X96383333Y-43404761D01*
X96478571Y-43452380D01*
X96669047Y-43452380D01*
X96764285Y-43404761D01*
X96811904Y-43357142D01*
X96859523Y-43261904D01*
X96859523Y-42452380D01*
X97240476Y-42452380D02*
X97859523Y-42452380D01*
X97526190Y-42833333D01*
X97669047Y-42833333D01*
X97764285Y-42880952D01*
X97811904Y-42928571D01*
X97859523Y-43023809D01*
X97859523Y-43261904D01*
X97811904Y-43357142D01*
X97764285Y-43404761D01*
X97669047Y-43452380D01*
X97383333Y-43452380D01*
X97288095Y-43404761D01*
X97240476Y-43357142D01*
G04 #@! TO.C,U4*
X175388095Y-138152380D02*
X175388095Y-138961904D01*
X175435714Y-139057142D01*
X175483333Y-139104761D01*
X175578571Y-139152380D01*
X175769047Y-139152380D01*
X175864285Y-139104761D01*
X175911904Y-139057142D01*
X175959523Y-138961904D01*
X175959523Y-138152380D01*
X176864285Y-138485714D02*
X176864285Y-139152380D01*
X176626190Y-138104761D02*
X176388095Y-138819047D01*
X177007142Y-138819047D01*
G04 #@! TO.C,TP1*
X101738095Y-114454380D02*
X102309523Y-114454380D01*
X102023809Y-115454380D02*
X102023809Y-114454380D01*
X102642857Y-115454380D02*
X102642857Y-114454380D01*
X103023809Y-114454380D01*
X103119047Y-114502000D01*
X103166666Y-114549619D01*
X103214285Y-114644857D01*
X103214285Y-114787714D01*
X103166666Y-114882952D01*
X103119047Y-114930571D01*
X103023809Y-114978190D01*
X102642857Y-114978190D01*
X104166666Y-115454380D02*
X103595238Y-115454380D01*
X103880952Y-115454380D02*
X103880952Y-114454380D01*
X103785714Y-114597238D01*
X103690476Y-114692476D01*
X103595238Y-114740095D01*
G04 #@! TO.C,TP2*
X95838095Y-114554380D02*
X96409523Y-114554380D01*
X96123809Y-115554380D02*
X96123809Y-114554380D01*
X96742857Y-115554380D02*
X96742857Y-114554380D01*
X97123809Y-114554380D01*
X97219047Y-114602000D01*
X97266666Y-114649619D01*
X97314285Y-114744857D01*
X97314285Y-114887714D01*
X97266666Y-114982952D01*
X97219047Y-115030571D01*
X97123809Y-115078190D01*
X96742857Y-115078190D01*
X97695238Y-114649619D02*
X97742857Y-114602000D01*
X97838095Y-114554380D01*
X98076190Y-114554380D01*
X98171428Y-114602000D01*
X98219047Y-114649619D01*
X98266666Y-114744857D01*
X98266666Y-114840095D01*
X98219047Y-114982952D01*
X97647619Y-115554380D01*
X98266666Y-115554380D01*
G04 #@! TO.C,TP3*
X120038095Y-96354380D02*
X120609523Y-96354380D01*
X120323809Y-97354380D02*
X120323809Y-96354380D01*
X120942857Y-97354380D02*
X120942857Y-96354380D01*
X121323809Y-96354380D01*
X121419047Y-96402000D01*
X121466666Y-96449619D01*
X121514285Y-96544857D01*
X121514285Y-96687714D01*
X121466666Y-96782952D01*
X121419047Y-96830571D01*
X121323809Y-96878190D01*
X120942857Y-96878190D01*
X121847619Y-96354380D02*
X122466666Y-96354380D01*
X122133333Y-96735333D01*
X122276190Y-96735333D01*
X122371428Y-96782952D01*
X122419047Y-96830571D01*
X122466666Y-96925809D01*
X122466666Y-97163904D01*
X122419047Y-97259142D01*
X122371428Y-97306761D01*
X122276190Y-97354380D01*
X121990476Y-97354380D01*
X121895238Y-97306761D01*
X121847619Y-97259142D01*
G04 #@! TO.C,TP4*
X139288095Y-51604380D02*
X139859523Y-51604380D01*
X139573809Y-52604380D02*
X139573809Y-51604380D01*
X140192857Y-52604380D02*
X140192857Y-51604380D01*
X140573809Y-51604380D01*
X140669047Y-51652000D01*
X140716666Y-51699619D01*
X140764285Y-51794857D01*
X140764285Y-51937714D01*
X140716666Y-52032952D01*
X140669047Y-52080571D01*
X140573809Y-52128190D01*
X140192857Y-52128190D01*
X141621428Y-51937714D02*
X141621428Y-52604380D01*
X141383333Y-51556761D02*
X141145238Y-52271047D01*
X141764285Y-52271047D01*
G04 #@! TO.C,TP5*
X105338095Y-91054380D02*
X105909523Y-91054380D01*
X105623809Y-92054380D02*
X105623809Y-91054380D01*
X106242857Y-92054380D02*
X106242857Y-91054380D01*
X106623809Y-91054380D01*
X106719047Y-91102000D01*
X106766666Y-91149619D01*
X106814285Y-91244857D01*
X106814285Y-91387714D01*
X106766666Y-91482952D01*
X106719047Y-91530571D01*
X106623809Y-91578190D01*
X106242857Y-91578190D01*
X107719047Y-91054380D02*
X107242857Y-91054380D01*
X107195238Y-91530571D01*
X107242857Y-91482952D01*
X107338095Y-91435333D01*
X107576190Y-91435333D01*
X107671428Y-91482952D01*
X107719047Y-91530571D01*
X107766666Y-91625809D01*
X107766666Y-91863904D01*
X107719047Y-91959142D01*
X107671428Y-92006761D01*
X107576190Y-92054380D01*
X107338095Y-92054380D01*
X107242857Y-92006761D01*
X107195238Y-91959142D01*
G04 #@! TO.C,TP6*
X176138095Y-102854380D02*
X176709523Y-102854380D01*
X176423809Y-103854380D02*
X176423809Y-102854380D01*
X177042857Y-103854380D02*
X177042857Y-102854380D01*
X177423809Y-102854380D01*
X177519047Y-102902000D01*
X177566666Y-102949619D01*
X177614285Y-103044857D01*
X177614285Y-103187714D01*
X177566666Y-103282952D01*
X177519047Y-103330571D01*
X177423809Y-103378190D01*
X177042857Y-103378190D01*
X178471428Y-102854380D02*
X178280952Y-102854380D01*
X178185714Y-102902000D01*
X178138095Y-102949619D01*
X178042857Y-103092476D01*
X177995238Y-103282952D01*
X177995238Y-103663904D01*
X178042857Y-103759142D01*
X178090476Y-103806761D01*
X178185714Y-103854380D01*
X178376190Y-103854380D01*
X178471428Y-103806761D01*
X178519047Y-103759142D01*
X178566666Y-103663904D01*
X178566666Y-103425809D01*
X178519047Y-103330571D01*
X178471428Y-103282952D01*
X178376190Y-103235333D01*
X178185714Y-103235333D01*
X178090476Y-103282952D01*
X178042857Y-103330571D01*
X177995238Y-103425809D01*
G04 #@! TO.C,TP7*
X156788095Y-149504380D02*
X157359523Y-149504380D01*
X157073809Y-150504380D02*
X157073809Y-149504380D01*
X157692857Y-150504380D02*
X157692857Y-149504380D01*
X158073809Y-149504380D01*
X158169047Y-149552000D01*
X158216666Y-149599619D01*
X158264285Y-149694857D01*
X158264285Y-149837714D01*
X158216666Y-149932952D01*
X158169047Y-149980571D01*
X158073809Y-150028190D01*
X157692857Y-150028190D01*
X158597619Y-149504380D02*
X159264285Y-149504380D01*
X158835714Y-150504380D01*
G04 #@! TO.C,TP8*
X146238095Y-127802380D02*
X146809523Y-127802380D01*
X146523809Y-128802380D02*
X146523809Y-127802380D01*
X147142857Y-128802380D02*
X147142857Y-127802380D01*
X147523809Y-127802380D01*
X147619047Y-127850000D01*
X147666666Y-127897619D01*
X147714285Y-127992857D01*
X147714285Y-128135714D01*
X147666666Y-128230952D01*
X147619047Y-128278571D01*
X147523809Y-128326190D01*
X147142857Y-128326190D01*
X148285714Y-128230952D02*
X148190476Y-128183333D01*
X148142857Y-128135714D01*
X148095238Y-128040476D01*
X148095238Y-127992857D01*
X148142857Y-127897619D01*
X148190476Y-127850000D01*
X148285714Y-127802380D01*
X148476190Y-127802380D01*
X148571428Y-127850000D01*
X148619047Y-127897619D01*
X148666666Y-127992857D01*
X148666666Y-128040476D01*
X148619047Y-128135714D01*
X148571428Y-128183333D01*
X148476190Y-128230952D01*
X148285714Y-128230952D01*
X148190476Y-128278571D01*
X148142857Y-128326190D01*
X148095238Y-128421428D01*
X148095238Y-128611904D01*
X148142857Y-128707142D01*
X148190476Y-128754761D01*
X148285714Y-128802380D01*
X148476190Y-128802380D01*
X148571428Y-128754761D01*
X148619047Y-128707142D01*
X148666666Y-128611904D01*
X148666666Y-128421428D01*
X148619047Y-128326190D01*
X148571428Y-128278571D01*
X148476190Y-128230952D01*
G04 #@! TO.C,TP9*
X122388095Y-134602380D02*
X122959523Y-134602380D01*
X122673809Y-135602380D02*
X122673809Y-134602380D01*
X123292857Y-135602380D02*
X123292857Y-134602380D01*
X123673809Y-134602380D01*
X123769047Y-134650000D01*
X123816666Y-134697619D01*
X123864285Y-134792857D01*
X123864285Y-134935714D01*
X123816666Y-135030952D01*
X123769047Y-135078571D01*
X123673809Y-135126190D01*
X123292857Y-135126190D01*
X124340476Y-135602380D02*
X124530952Y-135602380D01*
X124626190Y-135554761D01*
X124673809Y-135507142D01*
X124769047Y-135364285D01*
X124816666Y-135173809D01*
X124816666Y-134792857D01*
X124769047Y-134697619D01*
X124721428Y-134650000D01*
X124626190Y-134602380D01*
X124435714Y-134602380D01*
X124340476Y-134650000D01*
X124292857Y-134697619D01*
X124245238Y-134792857D01*
X124245238Y-135030952D01*
X124292857Y-135126190D01*
X124340476Y-135173809D01*
X124435714Y-135221428D01*
X124626190Y-135221428D01*
X124721428Y-135173809D01*
X124769047Y-135126190D01*
X124816666Y-135030952D01*
G04 #@! TO.C,TP10*
X115011904Y-118452380D02*
X115583333Y-118452380D01*
X115297619Y-119452380D02*
X115297619Y-118452380D01*
X115916666Y-119452380D02*
X115916666Y-118452380D01*
X116297619Y-118452380D01*
X116392857Y-118500000D01*
X116440476Y-118547619D01*
X116488095Y-118642857D01*
X116488095Y-118785714D01*
X116440476Y-118880952D01*
X116392857Y-118928571D01*
X116297619Y-118976190D01*
X115916666Y-118976190D01*
X117440476Y-119452380D02*
X116869047Y-119452380D01*
X117154761Y-119452380D02*
X117154761Y-118452380D01*
X117059523Y-118595238D01*
X116964285Y-118690476D01*
X116869047Y-118738095D01*
X118059523Y-118452380D02*
X118154761Y-118452380D01*
X118250000Y-118500000D01*
X118297619Y-118547619D01*
X118345238Y-118642857D01*
X118392857Y-118833333D01*
X118392857Y-119071428D01*
X118345238Y-119261904D01*
X118297619Y-119357142D01*
X118250000Y-119404761D01*
X118154761Y-119452380D01*
X118059523Y-119452380D01*
X117964285Y-119404761D01*
X117916666Y-119357142D01*
X117869047Y-119261904D01*
X117821428Y-119071428D01*
X117821428Y-118833333D01*
X117869047Y-118642857D01*
X117916666Y-118547619D01*
X117964285Y-118500000D01*
X118059523Y-118452380D01*
G04 #@! TO.C,TP11*
X125061904Y-96854380D02*
X125633333Y-96854380D01*
X125347619Y-97854380D02*
X125347619Y-96854380D01*
X125966666Y-97854380D02*
X125966666Y-96854380D01*
X126347619Y-96854380D01*
X126442857Y-96902000D01*
X126490476Y-96949619D01*
X126538095Y-97044857D01*
X126538095Y-97187714D01*
X126490476Y-97282952D01*
X126442857Y-97330571D01*
X126347619Y-97378190D01*
X125966666Y-97378190D01*
X127490476Y-97854380D02*
X126919047Y-97854380D01*
X127204761Y-97854380D02*
X127204761Y-96854380D01*
X127109523Y-96997238D01*
X127014285Y-97092476D01*
X126919047Y-97140095D01*
X128442857Y-97854380D02*
X127871428Y-97854380D01*
X128157142Y-97854380D02*
X128157142Y-96854380D01*
X128061904Y-96997238D01*
X127966666Y-97092476D01*
X127871428Y-97140095D01*
G04 #@! TO.C,TP13*
X196961904Y-112754380D02*
X197533333Y-112754380D01*
X197247619Y-113754380D02*
X197247619Y-112754380D01*
X197866666Y-113754380D02*
X197866666Y-112754380D01*
X198247619Y-112754380D01*
X198342857Y-112802000D01*
X198390476Y-112849619D01*
X198438095Y-112944857D01*
X198438095Y-113087714D01*
X198390476Y-113182952D01*
X198342857Y-113230571D01*
X198247619Y-113278190D01*
X197866666Y-113278190D01*
X199390476Y-113754380D02*
X198819047Y-113754380D01*
X199104761Y-113754380D02*
X199104761Y-112754380D01*
X199009523Y-112897238D01*
X198914285Y-112992476D01*
X198819047Y-113040095D01*
X199723809Y-112754380D02*
X200342857Y-112754380D01*
X200009523Y-113135333D01*
X200152380Y-113135333D01*
X200247619Y-113182952D01*
X200295238Y-113230571D01*
X200342857Y-113325809D01*
X200342857Y-113563904D01*
X200295238Y-113659142D01*
X200247619Y-113706761D01*
X200152380Y-113754380D01*
X199866666Y-113754380D01*
X199771428Y-113706761D01*
X199723809Y-113659142D01*
G04 #@! TO.C,TP14*
X105161904Y-36850380D02*
X105733333Y-36850380D01*
X105447619Y-37850380D02*
X105447619Y-36850380D01*
X106066666Y-37850380D02*
X106066666Y-36850380D01*
X106447619Y-36850380D01*
X106542857Y-36898000D01*
X106590476Y-36945619D01*
X106638095Y-37040857D01*
X106638095Y-37183714D01*
X106590476Y-37278952D01*
X106542857Y-37326571D01*
X106447619Y-37374190D01*
X106066666Y-37374190D01*
X107590476Y-37850380D02*
X107019047Y-37850380D01*
X107304761Y-37850380D02*
X107304761Y-36850380D01*
X107209523Y-36993238D01*
X107114285Y-37088476D01*
X107019047Y-37136095D01*
X108447619Y-37183714D02*
X108447619Y-37850380D01*
X108209523Y-36802761D02*
X107971428Y-37517047D01*
X108590476Y-37517047D01*
G04 #@! TO.C,TP15*
X160311904Y-118041024D02*
X160883333Y-118041024D01*
X160597619Y-119041024D02*
X160597619Y-118041024D01*
X161216666Y-119041024D02*
X161216666Y-118041024D01*
X161597619Y-118041024D01*
X161692857Y-118088644D01*
X161740476Y-118136263D01*
X161788095Y-118231501D01*
X161788095Y-118374358D01*
X161740476Y-118469596D01*
X161692857Y-118517215D01*
X161597619Y-118564834D01*
X161216666Y-118564834D01*
X162740476Y-119041024D02*
X162169047Y-119041024D01*
X162454761Y-119041024D02*
X162454761Y-118041024D01*
X162359523Y-118183882D01*
X162264285Y-118279120D01*
X162169047Y-118326739D01*
X163645238Y-118041024D02*
X163169047Y-118041024D01*
X163121428Y-118517215D01*
X163169047Y-118469596D01*
X163264285Y-118421977D01*
X163502380Y-118421977D01*
X163597619Y-118469596D01*
X163645238Y-118517215D01*
X163692857Y-118612453D01*
X163692857Y-118850548D01*
X163645238Y-118945786D01*
X163597619Y-118993405D01*
X163502380Y-119041024D01*
X163264285Y-119041024D01*
X163169047Y-118993405D01*
X163121428Y-118945786D01*
G04 #@! TO.C,TP16*
X165861904Y-112127317D02*
X166433333Y-112127317D01*
X166147619Y-113127317D02*
X166147619Y-112127317D01*
X166766666Y-113127317D02*
X166766666Y-112127317D01*
X167147619Y-112127317D01*
X167242857Y-112174937D01*
X167290476Y-112222556D01*
X167338095Y-112317794D01*
X167338095Y-112460651D01*
X167290476Y-112555889D01*
X167242857Y-112603508D01*
X167147619Y-112651127D01*
X166766666Y-112651127D01*
X168290476Y-113127317D02*
X167719047Y-113127317D01*
X168004761Y-113127317D02*
X168004761Y-112127317D01*
X167909523Y-112270175D01*
X167814285Y-112365413D01*
X167719047Y-112413032D01*
X169147619Y-112127317D02*
X168957142Y-112127317D01*
X168861904Y-112174937D01*
X168814285Y-112222556D01*
X168719047Y-112365413D01*
X168671428Y-112555889D01*
X168671428Y-112936841D01*
X168719047Y-113032079D01*
X168766666Y-113079698D01*
X168861904Y-113127317D01*
X169052380Y-113127317D01*
X169147619Y-113079698D01*
X169195238Y-113032079D01*
X169242857Y-112936841D01*
X169242857Y-112698746D01*
X169195238Y-112603508D01*
X169147619Y-112555889D01*
X169052380Y-112508270D01*
X168861904Y-112508270D01*
X168766666Y-112555889D01*
X168719047Y-112603508D01*
X168671428Y-112698746D01*
G04 #@! TO.C,TP17*
X161111904Y-126904380D02*
X161683333Y-126904380D01*
X161397619Y-127904380D02*
X161397619Y-126904380D01*
X162016666Y-127904380D02*
X162016666Y-126904380D01*
X162397619Y-126904380D01*
X162492857Y-126952000D01*
X162540476Y-126999619D01*
X162588095Y-127094857D01*
X162588095Y-127237714D01*
X162540476Y-127332952D01*
X162492857Y-127380571D01*
X162397619Y-127428190D01*
X162016666Y-127428190D01*
X163540476Y-127904380D02*
X162969047Y-127904380D01*
X163254761Y-127904380D02*
X163254761Y-126904380D01*
X163159523Y-127047238D01*
X163064285Y-127142476D01*
X162969047Y-127190095D01*
X163873809Y-126904380D02*
X164540476Y-126904380D01*
X164111904Y-127904380D01*
G04 #@! TO.C,BZ1*
X167419047Y-88328571D02*
X167561904Y-88376190D01*
X167609523Y-88423809D01*
X167657142Y-88519047D01*
X167657142Y-88661904D01*
X167609523Y-88757142D01*
X167561904Y-88804761D01*
X167466666Y-88852380D01*
X167085714Y-88852380D01*
X167085714Y-87852380D01*
X167419047Y-87852380D01*
X167514285Y-87900000D01*
X167561904Y-87947619D01*
X167609523Y-88042857D01*
X167609523Y-88138095D01*
X167561904Y-88233333D01*
X167514285Y-88280952D01*
X167419047Y-88328571D01*
X167085714Y-88328571D01*
X167990476Y-87852380D02*
X168657142Y-87852380D01*
X167990476Y-88852380D01*
X168657142Y-88852380D01*
X169561904Y-88852380D02*
X168990476Y-88852380D01*
X169276190Y-88852380D02*
X169276190Y-87852380D01*
X169180952Y-87995238D01*
X169085714Y-88090476D01*
X168990476Y-88138095D01*
G04 #@! TO.C,C3*
X105663925Y-101368139D02*
X105596582Y-101368139D01*
X105461895Y-101300795D01*
X105394551Y-101233452D01*
X105327208Y-101098764D01*
X105327208Y-100964077D01*
X105360879Y-100863062D01*
X105461895Y-100694703D01*
X105562910Y-100593688D01*
X105731269Y-100492673D01*
X105832284Y-100459001D01*
X105966971Y-100459001D01*
X106101658Y-100526345D01*
X106169002Y-100593688D01*
X106236345Y-100728375D01*
X106236345Y-100795719D01*
X106539391Y-100964077D02*
X106977124Y-101401810D01*
X106472047Y-101435482D01*
X106573063Y-101536497D01*
X106606734Y-101637513D01*
X106606734Y-101704856D01*
X106573063Y-101805871D01*
X106404704Y-101974230D01*
X106303689Y-102007902D01*
X106236345Y-102007902D01*
X106135330Y-101974230D01*
X105933299Y-101772200D01*
X105899627Y-101671184D01*
X105899627Y-101603841D01*
G04 #@! TO.C,C5*
X133496158Y-106600372D02*
X133428815Y-106600372D01*
X133294128Y-106533028D01*
X133226784Y-106465685D01*
X133159441Y-106330997D01*
X133159441Y-106196310D01*
X133193112Y-106095295D01*
X133294128Y-105926936D01*
X133395143Y-105825921D01*
X133563502Y-105724906D01*
X133664517Y-105691234D01*
X133799204Y-105691234D01*
X133933891Y-105758578D01*
X134001235Y-105825921D01*
X134068578Y-105960608D01*
X134068578Y-106027952D01*
X134775685Y-106600372D02*
X134438967Y-106263654D01*
X134068578Y-106566700D01*
X134135922Y-106566700D01*
X134236937Y-106600372D01*
X134405296Y-106768730D01*
X134438967Y-106869746D01*
X134438967Y-106937089D01*
X134405296Y-107038104D01*
X134236937Y-107206463D01*
X134135922Y-107240135D01*
X134068578Y-107240135D01*
X133967563Y-107206463D01*
X133799204Y-107038104D01*
X133765532Y-106937089D01*
X133765532Y-106869746D01*
G04 #@! TO.C,C6*
X185283333Y-117707142D02*
X185235714Y-117754761D01*
X185092857Y-117802380D01*
X184997619Y-117802380D01*
X184854761Y-117754761D01*
X184759523Y-117659523D01*
X184711904Y-117564285D01*
X184664285Y-117373809D01*
X184664285Y-117230952D01*
X184711904Y-117040476D01*
X184759523Y-116945238D01*
X184854761Y-116850000D01*
X184997619Y-116802380D01*
X185092857Y-116802380D01*
X185235714Y-116850000D01*
X185283333Y-116897619D01*
X186140476Y-116802380D02*
X185950000Y-116802380D01*
X185854761Y-116850000D01*
X185807142Y-116897619D01*
X185711904Y-117040476D01*
X185664285Y-117230952D01*
X185664285Y-117611904D01*
X185711904Y-117707142D01*
X185759523Y-117754761D01*
X185854761Y-117802380D01*
X186045238Y-117802380D01*
X186140476Y-117754761D01*
X186188095Y-117707142D01*
X186235714Y-117611904D01*
X186235714Y-117373809D01*
X186188095Y-117278571D01*
X186140476Y-117230952D01*
X186045238Y-117183333D01*
X185854761Y-117183333D01*
X185759523Y-117230952D01*
X185711904Y-117278571D01*
X185664285Y-117373809D01*
G04 #@! TO.C,C7*
X176933333Y-131957142D02*
X176885714Y-132004761D01*
X176742857Y-132052380D01*
X176647619Y-132052380D01*
X176504761Y-132004761D01*
X176409523Y-131909523D01*
X176361904Y-131814285D01*
X176314285Y-131623809D01*
X176314285Y-131480952D01*
X176361904Y-131290476D01*
X176409523Y-131195238D01*
X176504761Y-131100000D01*
X176647619Y-131052380D01*
X176742857Y-131052380D01*
X176885714Y-131100000D01*
X176933333Y-131147619D01*
X177266666Y-131052380D02*
X177933333Y-131052380D01*
X177504761Y-132052380D01*
G04 #@! TO.C,RV5*
X103688071Y-100829865D02*
X103115651Y-100728850D01*
X103284010Y-101233926D02*
X102576903Y-100526819D01*
X102846277Y-100257445D01*
X102947293Y-100223774D01*
X103014636Y-100223774D01*
X103115651Y-100257445D01*
X103216667Y-100358461D01*
X103250338Y-100459476D01*
X103250338Y-100526819D01*
X103216667Y-100627835D01*
X102947293Y-100897209D01*
X103182995Y-99920728D02*
X104125804Y-100392132D01*
X103654399Y-99449323D01*
X104226819Y-98876903D02*
X103890102Y-99213621D01*
X104193148Y-99584010D01*
X104193148Y-99516667D01*
X104226819Y-99415651D01*
X104395178Y-99247293D01*
X104496193Y-99213621D01*
X104563537Y-99213621D01*
X104664552Y-99247293D01*
X104832911Y-99415651D01*
X104866583Y-99516667D01*
X104866583Y-99584010D01*
X104832911Y-99685025D01*
X104664552Y-99853384D01*
X104563537Y-99887056D01*
X104496193Y-99887056D01*
G04 #@! TO.C,Q1*
X108504761Y-81747619D02*
X108409523Y-81700000D01*
X108314285Y-81604761D01*
X108171428Y-81461904D01*
X108076190Y-81414285D01*
X107980952Y-81414285D01*
X108028571Y-81652380D02*
X107933333Y-81604761D01*
X107838095Y-81509523D01*
X107790476Y-81319047D01*
X107790476Y-80985714D01*
X107838095Y-80795238D01*
X107933333Y-80700000D01*
X108028571Y-80652380D01*
X108219047Y-80652380D01*
X108314285Y-80700000D01*
X108409523Y-80795238D01*
X108457142Y-80985714D01*
X108457142Y-81319047D01*
X108409523Y-81509523D01*
X108314285Y-81604761D01*
X108219047Y-81652380D01*
X108028571Y-81652380D01*
X109409523Y-81652380D02*
X108838095Y-81652380D01*
X109123809Y-81652380D02*
X109123809Y-80652380D01*
X109028571Y-80795238D01*
X108933333Y-80890476D01*
X108838095Y-80938095D01*
G04 #@! TO.C,Q2*
X123504761Y-82947619D02*
X123409523Y-82900000D01*
X123314285Y-82804761D01*
X123171428Y-82661904D01*
X123076190Y-82614285D01*
X122980952Y-82614285D01*
X123028571Y-82852380D02*
X122933333Y-82804761D01*
X122838095Y-82709523D01*
X122790476Y-82519047D01*
X122790476Y-82185714D01*
X122838095Y-81995238D01*
X122933333Y-81900000D01*
X123028571Y-81852380D01*
X123219047Y-81852380D01*
X123314285Y-81900000D01*
X123409523Y-81995238D01*
X123457142Y-82185714D01*
X123457142Y-82519047D01*
X123409523Y-82709523D01*
X123314285Y-82804761D01*
X123219047Y-82852380D01*
X123028571Y-82852380D01*
X123838095Y-81947619D02*
X123885714Y-81900000D01*
X123980952Y-81852380D01*
X124219047Y-81852380D01*
X124314285Y-81900000D01*
X124361904Y-81947619D01*
X124409523Y-82042857D01*
X124409523Y-82138095D01*
X124361904Y-82280952D01*
X123790476Y-82852380D01*
X124409523Y-82852380D01*
G04 #@! TO.C,R13*
X91322380Y-106222857D02*
X90846190Y-106556190D01*
X91322380Y-106794285D02*
X90322380Y-106794285D01*
X90322380Y-106413333D01*
X90370000Y-106318095D01*
X90417619Y-106270476D01*
X90512857Y-106222857D01*
X90655714Y-106222857D01*
X90750952Y-106270476D01*
X90798571Y-106318095D01*
X90846190Y-106413333D01*
X90846190Y-106794285D01*
X91322380Y-105270476D02*
X91322380Y-105841904D01*
X91322380Y-105556190D02*
X90322380Y-105556190D01*
X90465238Y-105651428D01*
X90560476Y-105746666D01*
X90608095Y-105841904D01*
X90322380Y-104937142D02*
X90322380Y-104318095D01*
X90703333Y-104651428D01*
X90703333Y-104508571D01*
X90750952Y-104413333D01*
X90798571Y-104365714D01*
X90893809Y-104318095D01*
X91131904Y-104318095D01*
X91227142Y-104365714D01*
X91274761Y-104413333D01*
X91322380Y-104508571D01*
X91322380Y-104794285D01*
X91274761Y-104889523D01*
X91227142Y-104937142D01*
G04 #@! TO.C,R16*
X171057142Y-154352380D02*
X170723809Y-153876190D01*
X170485714Y-154352380D02*
X170485714Y-153352380D01*
X170866666Y-153352380D01*
X170961904Y-153400000D01*
X171009523Y-153447619D01*
X171057142Y-153542857D01*
X171057142Y-153685714D01*
X171009523Y-153780952D01*
X170961904Y-153828571D01*
X170866666Y-153876190D01*
X170485714Y-153876190D01*
X172009523Y-154352380D02*
X171438095Y-154352380D01*
X171723809Y-154352380D02*
X171723809Y-153352380D01*
X171628571Y-153495238D01*
X171533333Y-153590476D01*
X171438095Y-153638095D01*
X172866666Y-153352380D02*
X172676190Y-153352380D01*
X172580952Y-153400000D01*
X172533333Y-153447619D01*
X172438095Y-153590476D01*
X172390476Y-153780952D01*
X172390476Y-154161904D01*
X172438095Y-154257142D01*
X172485714Y-154304761D01*
X172580952Y-154352380D01*
X172771428Y-154352380D01*
X172866666Y-154304761D01*
X172914285Y-154257142D01*
X172961904Y-154161904D01*
X172961904Y-153923809D01*
X172914285Y-153828571D01*
X172866666Y-153780952D01*
X172771428Y-153733333D01*
X172580952Y-153733333D01*
X172485714Y-153780952D01*
X172438095Y-153828571D01*
X172390476Y-153923809D01*
G04 #@! TO.C,R17*
X198157142Y-141752380D02*
X197823809Y-141276190D01*
X197585714Y-141752380D02*
X197585714Y-140752380D01*
X197966666Y-140752380D01*
X198061904Y-140800000D01*
X198109523Y-140847619D01*
X198157142Y-140942857D01*
X198157142Y-141085714D01*
X198109523Y-141180952D01*
X198061904Y-141228571D01*
X197966666Y-141276190D01*
X197585714Y-141276190D01*
X199109523Y-141752380D02*
X198538095Y-141752380D01*
X198823809Y-141752380D02*
X198823809Y-140752380D01*
X198728571Y-140895238D01*
X198633333Y-140990476D01*
X198538095Y-141038095D01*
X199442857Y-140752380D02*
X200109523Y-140752380D01*
X199680952Y-141752380D01*
G04 #@! TO.C,R21*
X180657142Y-156452380D02*
X180323809Y-155976190D01*
X180085714Y-156452380D02*
X180085714Y-155452380D01*
X180466666Y-155452380D01*
X180561904Y-155500000D01*
X180609523Y-155547619D01*
X180657142Y-155642857D01*
X180657142Y-155785714D01*
X180609523Y-155880952D01*
X180561904Y-155928571D01*
X180466666Y-155976190D01*
X180085714Y-155976190D01*
X181038095Y-155547619D02*
X181085714Y-155500000D01*
X181180952Y-155452380D01*
X181419047Y-155452380D01*
X181514285Y-155500000D01*
X181561904Y-155547619D01*
X181609523Y-155642857D01*
X181609523Y-155738095D01*
X181561904Y-155880952D01*
X180990476Y-156452380D01*
X181609523Y-156452380D01*
X182561904Y-156452380D02*
X181990476Y-156452380D01*
X182276190Y-156452380D02*
X182276190Y-155452380D01*
X182180952Y-155595238D01*
X182085714Y-155690476D01*
X181990476Y-155738095D01*
G04 #@! TO.C,TP12*
X201761904Y-135152380D02*
X202333333Y-135152380D01*
X202047619Y-136152380D02*
X202047619Y-135152380D01*
X202666666Y-136152380D02*
X202666666Y-135152380D01*
X203047619Y-135152380D01*
X203142857Y-135200000D01*
X203190476Y-135247619D01*
X203238095Y-135342857D01*
X203238095Y-135485714D01*
X203190476Y-135580952D01*
X203142857Y-135628571D01*
X203047619Y-135676190D01*
X202666666Y-135676190D01*
X204190476Y-136152380D02*
X203619047Y-136152380D01*
X203904761Y-136152380D02*
X203904761Y-135152380D01*
X203809523Y-135295238D01*
X203714285Y-135390476D01*
X203619047Y-135438095D01*
X204571428Y-135247619D02*
X204619047Y-135200000D01*
X204714285Y-135152380D01*
X204952380Y-135152380D01*
X205047619Y-135200000D01*
X205095238Y-135247619D01*
X205142857Y-135342857D01*
X205142857Y-135438095D01*
X205095238Y-135580952D01*
X204523809Y-136152380D01*
X205142857Y-136152380D01*
G04 #@! TD*
M02*
