G04 #@! TF.GenerationSoftware,KiCad,Pcbnew,5.0.2-bee76a0~70~ubuntu18.04.1*
G04 #@! TF.CreationDate,2020-07-15T00:12:44-04:00*
G04 #@! TF.ProjectId,synth,73796e74-682e-46b6-9963-61645f706362,rev?*
G04 #@! TF.SameCoordinates,Original*
G04 #@! TF.FileFunction,Soldermask,Bot*
G04 #@! TF.FilePolarity,Negative*
%FSLAX46Y46*%
G04 Gerber Fmt 4.6, Leading zero omitted, Abs format (unit mm)*
G04 Created by KiCad (PCBNEW 5.0.2-bee76a0~70~ubuntu18.04.1) date Wed 15 Jul 2020 12:12:44 AM EDT*
%MOMM*%
%LPD*%
G01*
G04 APERTURE LIST*
%ADD10C,0.100000*%
G04 APERTURE END LIST*
D10*
G36*
X164151000Y-164151000D02*
X161049000Y-164151000D01*
X161049000Y-161049000D01*
X164151000Y-161049000D01*
X164151000Y-164151000D01*
X164151000Y-164151000D01*
G37*
G36*
X157872527Y-161088736D02*
X157972410Y-161108604D01*
X158254674Y-161225521D01*
X158508705Y-161395259D01*
X158724741Y-161611295D01*
X158894479Y-161865326D01*
X159011396Y-162147590D01*
X159071000Y-162447240D01*
X159071000Y-162752760D01*
X159011396Y-163052410D01*
X158894479Y-163334674D01*
X158724741Y-163588705D01*
X158508705Y-163804741D01*
X158254674Y-163974479D01*
X157972410Y-164091396D01*
X157872527Y-164111264D01*
X157672762Y-164151000D01*
X157367238Y-164151000D01*
X157167473Y-164111264D01*
X157067590Y-164091396D01*
X156785326Y-163974479D01*
X156531295Y-163804741D01*
X156315259Y-163588705D01*
X156145521Y-163334674D01*
X156028604Y-163052410D01*
X155969000Y-162752760D01*
X155969000Y-162447240D01*
X156028604Y-162147590D01*
X156145521Y-161865326D01*
X156315259Y-161611295D01*
X156531295Y-161395259D01*
X156785326Y-161225521D01*
X157067590Y-161108604D01*
X157167473Y-161088736D01*
X157367238Y-161049000D01*
X157672762Y-161049000D01*
X157872527Y-161088736D01*
X157872527Y-161088736D01*
G37*
G36*
X168548228Y-155881703D02*
X168703100Y-155945853D01*
X168842481Y-156038985D01*
X168961015Y-156157519D01*
X169054147Y-156296900D01*
X169118297Y-156451772D01*
X169151000Y-156616184D01*
X169151000Y-156783816D01*
X169118297Y-156948228D01*
X169054147Y-157103100D01*
X168961015Y-157242481D01*
X168842481Y-157361015D01*
X168703100Y-157454147D01*
X168548228Y-157518297D01*
X168383816Y-157551000D01*
X168216184Y-157551000D01*
X168051772Y-157518297D01*
X167896900Y-157454147D01*
X167757519Y-157361015D01*
X167638985Y-157242481D01*
X167545853Y-157103100D01*
X167481703Y-156948228D01*
X167449000Y-156783816D01*
X167449000Y-156616184D01*
X167481703Y-156451772D01*
X167545853Y-156296900D01*
X167638985Y-156157519D01*
X167757519Y-156038985D01*
X167896900Y-155945853D01*
X168051772Y-155881703D01*
X168216184Y-155849000D01*
X168383816Y-155849000D01*
X168548228Y-155881703D01*
X168548228Y-155881703D01*
G37*
G36*
X186132649Y-155492113D02*
X186132652Y-155492114D01*
X186132653Y-155492114D01*
X186293067Y-155540775D01*
X186293069Y-155540776D01*
X186293072Y-155540777D01*
X186440906Y-155619795D01*
X186570487Y-155726141D01*
X186676833Y-155855722D01*
X186755851Y-156003556D01*
X186755852Y-156003559D01*
X186755853Y-156003561D01*
X186804514Y-156163975D01*
X186804515Y-156163979D01*
X186820945Y-156330800D01*
X186804515Y-156497621D01*
X186804514Y-156497624D01*
X186804514Y-156497625D01*
X186768550Y-156616184D01*
X186755851Y-156658044D01*
X186676833Y-156805878D01*
X186570487Y-156935459D01*
X186440906Y-157041805D01*
X186293072Y-157120823D01*
X186293069Y-157120824D01*
X186293067Y-157120825D01*
X186132653Y-157169486D01*
X186132652Y-157169486D01*
X186132649Y-157169487D01*
X186007632Y-157181800D01*
X185924024Y-157181800D01*
X185799007Y-157169487D01*
X185799004Y-157169486D01*
X185799003Y-157169486D01*
X185638589Y-157120825D01*
X185638587Y-157120824D01*
X185638584Y-157120823D01*
X185490750Y-157041805D01*
X185361169Y-156935459D01*
X185254823Y-156805878D01*
X185175805Y-156658044D01*
X185163107Y-156616184D01*
X185127142Y-156497625D01*
X185127142Y-156497624D01*
X185127141Y-156497621D01*
X185110711Y-156330800D01*
X185127141Y-156163979D01*
X185127142Y-156163975D01*
X185175803Y-156003561D01*
X185175804Y-156003559D01*
X185175805Y-156003556D01*
X185254823Y-155855722D01*
X185361169Y-155726141D01*
X185490750Y-155619795D01*
X185638584Y-155540777D01*
X185638587Y-155540776D01*
X185638589Y-155540775D01*
X185799003Y-155492114D01*
X185799004Y-155492114D01*
X185799007Y-155492113D01*
X185924024Y-155479800D01*
X186007632Y-155479800D01*
X186132649Y-155492113D01*
X186132649Y-155492113D01*
G37*
G36*
X158356565Y-151039389D02*
X158547834Y-151118615D01*
X158719976Y-151233637D01*
X158866363Y-151380024D01*
X158981385Y-151552166D01*
X159060611Y-151743435D01*
X159101000Y-151946484D01*
X159101000Y-152153516D01*
X159060611Y-152356565D01*
X158981385Y-152547834D01*
X158866363Y-152719976D01*
X158719976Y-152866363D01*
X158547834Y-152981385D01*
X158356565Y-153060611D01*
X158153516Y-153101000D01*
X157946484Y-153101000D01*
X157743435Y-153060611D01*
X157552166Y-152981385D01*
X157380024Y-152866363D01*
X157233637Y-152719976D01*
X157118615Y-152547834D01*
X157039389Y-152356565D01*
X156999000Y-152153516D01*
X156999000Y-151946484D01*
X157039389Y-151743435D01*
X157118615Y-151552166D01*
X157233637Y-151380024D01*
X157380024Y-151233637D01*
X157552166Y-151118615D01*
X157743435Y-151039389D01*
X157946484Y-150999000D01*
X158153516Y-150999000D01*
X158356565Y-151039389D01*
X158356565Y-151039389D01*
G37*
G36*
X185425543Y-148951376D02*
X185425546Y-148951377D01*
X185425547Y-148951377D01*
X185585961Y-149000038D01*
X185585963Y-149000039D01*
X185585966Y-149000040D01*
X185733800Y-149079058D01*
X185863381Y-149185404D01*
X185969727Y-149314985D01*
X186048745Y-149462819D01*
X186097409Y-149623242D01*
X186113839Y-149790063D01*
X186097409Y-149956884D01*
X186097408Y-149956887D01*
X186097408Y-149956888D01*
X186085060Y-149997595D01*
X186048745Y-150117307D01*
X185969727Y-150265141D01*
X185863381Y-150394722D01*
X185733800Y-150501068D01*
X185585966Y-150580086D01*
X185585963Y-150580087D01*
X185585961Y-150580088D01*
X185425547Y-150628749D01*
X185425546Y-150628749D01*
X185425543Y-150628750D01*
X185300526Y-150641063D01*
X185216918Y-150641063D01*
X185091901Y-150628750D01*
X185091898Y-150628749D01*
X185091897Y-150628749D01*
X184931483Y-150580088D01*
X184931481Y-150580087D01*
X184931478Y-150580086D01*
X184783644Y-150501068D01*
X184654063Y-150394722D01*
X184547717Y-150265141D01*
X184468699Y-150117307D01*
X184432385Y-149997595D01*
X184420036Y-149956888D01*
X184420036Y-149956887D01*
X184420035Y-149956884D01*
X184403605Y-149790063D01*
X184420035Y-149623242D01*
X184468699Y-149462819D01*
X184547717Y-149314985D01*
X184654063Y-149185404D01*
X184783644Y-149079058D01*
X184931478Y-149000040D01*
X184931481Y-149000039D01*
X184931483Y-149000038D01*
X185091897Y-148951377D01*
X185091898Y-148951377D01*
X185091901Y-148951376D01*
X185216918Y-148939063D01*
X185300526Y-148939063D01*
X185425543Y-148951376D01*
X185425543Y-148951376D01*
G37*
G36*
X179029851Y-148328298D02*
X179184723Y-148392448D01*
X179324104Y-148485580D01*
X179442638Y-148604114D01*
X179535770Y-148743495D01*
X179599920Y-148898367D01*
X179632623Y-149062779D01*
X179632623Y-149230411D01*
X179599920Y-149394823D01*
X179535770Y-149549695D01*
X179442638Y-149689076D01*
X179324104Y-149807610D01*
X179184723Y-149900742D01*
X179029851Y-149964892D01*
X178865439Y-149997595D01*
X178697807Y-149997595D01*
X178533395Y-149964892D01*
X178378523Y-149900742D01*
X178239142Y-149807610D01*
X178120608Y-149689076D01*
X178027476Y-149549695D01*
X177963326Y-149394823D01*
X177930623Y-149230411D01*
X177930623Y-149062779D01*
X177963326Y-148898367D01*
X178027476Y-148743495D01*
X178120608Y-148604114D01*
X178239142Y-148485580D01*
X178378523Y-148392448D01*
X178533395Y-148328298D01*
X178697807Y-148295595D01*
X178865439Y-148295595D01*
X179029851Y-148328298D01*
X179029851Y-148328298D01*
G37*
G36*
X133804497Y-144721068D02*
X133804499Y-144721069D01*
X133804500Y-144721069D01*
X134177758Y-144875677D01*
X134506686Y-145095460D01*
X134513684Y-145100136D01*
X134799359Y-145385811D01*
X134799361Y-145385814D01*
X135023818Y-145721737D01*
X135175360Y-146087593D01*
X135178427Y-146094998D01*
X135257245Y-146491243D01*
X135257245Y-146895257D01*
X135186483Y-147251004D01*
X135178426Y-147291505D01*
X135023818Y-147664763D01*
X134956865Y-147764965D01*
X134799359Y-148000689D01*
X134513684Y-148286364D01*
X134513681Y-148286366D01*
X134177758Y-148510823D01*
X133804500Y-148665431D01*
X133804499Y-148665431D01*
X133804497Y-148665432D01*
X133408252Y-148744250D01*
X133004238Y-148744250D01*
X132607993Y-148665432D01*
X132607991Y-148665431D01*
X132607990Y-148665431D01*
X132234732Y-148510823D01*
X131898809Y-148286366D01*
X131898806Y-148286364D01*
X131613131Y-148000689D01*
X131455625Y-147764965D01*
X131388672Y-147664763D01*
X131234064Y-147291505D01*
X131226008Y-147251004D01*
X131155245Y-146895257D01*
X131155245Y-146491243D01*
X131234063Y-146094998D01*
X131237130Y-146087593D01*
X131388672Y-145721737D01*
X131613129Y-145385814D01*
X131613131Y-145385811D01*
X131898806Y-145100136D01*
X131905804Y-145095460D01*
X132234732Y-144875677D01*
X132607990Y-144721069D01*
X132607991Y-144721069D01*
X132607993Y-144721068D01*
X133004238Y-144642250D01*
X133408252Y-144642250D01*
X133804497Y-144721068D01*
X133804497Y-144721068D01*
G37*
G36*
X176308164Y-147095985D02*
X175316800Y-148087349D01*
X174415770Y-147186319D01*
X174396828Y-147170773D01*
X174375217Y-147159222D01*
X174351768Y-147152109D01*
X174327382Y-147149707D01*
X174302996Y-147152109D01*
X174279547Y-147159222D01*
X174257936Y-147170773D01*
X174238994Y-147186319D01*
X174223448Y-147205261D01*
X174211897Y-147226872D01*
X174204784Y-147250321D01*
X174194811Y-147300456D01*
X174141967Y-147428034D01*
X174065249Y-147542850D01*
X173967614Y-147640485D01*
X173852798Y-147717203D01*
X173725221Y-147770047D01*
X173589793Y-147796985D01*
X173451705Y-147796985D01*
X173316277Y-147770047D01*
X173188700Y-147717203D01*
X173073884Y-147640485D01*
X172976249Y-147542850D01*
X172899531Y-147428034D01*
X172846687Y-147300457D01*
X172819749Y-147165029D01*
X172819749Y-147026941D01*
X172846687Y-146891513D01*
X172899531Y-146763936D01*
X172976249Y-146649120D01*
X173073884Y-146551485D01*
X173188700Y-146474767D01*
X173316277Y-146421923D01*
X173451705Y-146394985D01*
X173589793Y-146394985D01*
X173725221Y-146421923D01*
X173852798Y-146474767D01*
X173967614Y-146551485D01*
X174065249Y-146649120D01*
X174141967Y-146763936D01*
X174194811Y-146891514D01*
X174204784Y-146941649D01*
X174211897Y-146965099D01*
X174223448Y-146986709D01*
X174238994Y-147005651D01*
X174257936Y-147021197D01*
X174279547Y-147032748D01*
X174302996Y-147039861D01*
X174327382Y-147042263D01*
X174351768Y-147039861D01*
X174375218Y-147032748D01*
X174396828Y-147021197D01*
X174415770Y-147005651D01*
X175316800Y-146104621D01*
X176308164Y-147095985D01*
X176308164Y-147095985D01*
G37*
G36*
X188324680Y-146087592D02*
X188324683Y-146087593D01*
X188324684Y-146087593D01*
X188485098Y-146136254D01*
X188485100Y-146136255D01*
X188485103Y-146136256D01*
X188632937Y-146215274D01*
X188762518Y-146321620D01*
X188868864Y-146451201D01*
X188947882Y-146599035D01*
X188947883Y-146599038D01*
X188947884Y-146599040D01*
X188963076Y-146649123D01*
X188996546Y-146759458D01*
X189012976Y-146926279D01*
X188996546Y-147093100D01*
X188996545Y-147093103D01*
X188996545Y-147093104D01*
X188948647Y-147251004D01*
X188947882Y-147253523D01*
X188868864Y-147401357D01*
X188762518Y-147530938D01*
X188632937Y-147637284D01*
X188485103Y-147716302D01*
X188485100Y-147716303D01*
X188485098Y-147716304D01*
X188324684Y-147764965D01*
X188324683Y-147764965D01*
X188324680Y-147764966D01*
X188199663Y-147777279D01*
X188116055Y-147777279D01*
X187991038Y-147764966D01*
X187991035Y-147764965D01*
X187991034Y-147764965D01*
X187830620Y-147716304D01*
X187830618Y-147716303D01*
X187830615Y-147716302D01*
X187682781Y-147637284D01*
X187553200Y-147530938D01*
X187446854Y-147401357D01*
X187367836Y-147253523D01*
X187367072Y-147251004D01*
X187319173Y-147093104D01*
X187319173Y-147093103D01*
X187319172Y-147093100D01*
X187302742Y-146926279D01*
X187319172Y-146759458D01*
X187352642Y-146649123D01*
X187367834Y-146599040D01*
X187367835Y-146599038D01*
X187367836Y-146599035D01*
X187446854Y-146451201D01*
X187553200Y-146321620D01*
X187682781Y-146215274D01*
X187830615Y-146136256D01*
X187830618Y-146136255D01*
X187830620Y-146136254D01*
X187991034Y-146087593D01*
X187991035Y-146087593D01*
X187991038Y-146087592D01*
X188116055Y-146075279D01*
X188199663Y-146075279D01*
X188324680Y-146087592D01*
X188324680Y-146087592D01*
G37*
G36*
X168466821Y-145701313D02*
X168466824Y-145701314D01*
X168466825Y-145701314D01*
X168627239Y-145749975D01*
X168627241Y-145749976D01*
X168627244Y-145749977D01*
X168775078Y-145828995D01*
X168904659Y-145935341D01*
X169011005Y-146064922D01*
X169090023Y-146212756D01*
X169090024Y-146212759D01*
X169090025Y-146212761D01*
X169123047Y-146321620D01*
X169138687Y-146373179D01*
X169155117Y-146540000D01*
X169138687Y-146706821D01*
X169138686Y-146706824D01*
X169138686Y-146706825D01*
X169121362Y-146763936D01*
X169090023Y-146867244D01*
X169011005Y-147015078D01*
X168904659Y-147144659D01*
X168775078Y-147251005D01*
X168627244Y-147330023D01*
X168627241Y-147330024D01*
X168627239Y-147330025D01*
X168466825Y-147378686D01*
X168466824Y-147378686D01*
X168466821Y-147378687D01*
X168341804Y-147391000D01*
X168258196Y-147391000D01*
X168133179Y-147378687D01*
X168133176Y-147378686D01*
X168133175Y-147378686D01*
X167972761Y-147330025D01*
X167972759Y-147330024D01*
X167972756Y-147330023D01*
X167824922Y-147251005D01*
X167695341Y-147144659D01*
X167588995Y-147015078D01*
X167509977Y-146867244D01*
X167478639Y-146763936D01*
X167461314Y-146706825D01*
X167461314Y-146706824D01*
X167461313Y-146706821D01*
X167444883Y-146540000D01*
X167461313Y-146373179D01*
X167476953Y-146321620D01*
X167509975Y-146212761D01*
X167509976Y-146212759D01*
X167509977Y-146212756D01*
X167588995Y-146064922D01*
X167695341Y-145935341D01*
X167824922Y-145828995D01*
X167972756Y-145749977D01*
X167972759Y-145749976D01*
X167972761Y-145749975D01*
X168133175Y-145701314D01*
X168133176Y-145701314D01*
X168133179Y-145701313D01*
X168258196Y-145689000D01*
X168341804Y-145689000D01*
X168466821Y-145701313D01*
X168466821Y-145701313D01*
G37*
G36*
X173725221Y-144625872D02*
X173852798Y-144678716D01*
X173967614Y-144755434D01*
X174065249Y-144853069D01*
X174141967Y-144967885D01*
X174194811Y-145095462D01*
X174221749Y-145230890D01*
X174221749Y-145368978D01*
X174194811Y-145504406D01*
X174141967Y-145631983D01*
X174065249Y-145746799D01*
X173967614Y-145844434D01*
X173852798Y-145921152D01*
X173725221Y-145973996D01*
X173589793Y-146000934D01*
X173451705Y-146000934D01*
X173316277Y-145973996D01*
X173188700Y-145921152D01*
X173073884Y-145844434D01*
X172976249Y-145746799D01*
X172899531Y-145631983D01*
X172846687Y-145504406D01*
X172819749Y-145368978D01*
X172819749Y-145230890D01*
X172846687Y-145095462D01*
X172899531Y-144967885D01*
X172976249Y-144853069D01*
X173073884Y-144755434D01*
X173188700Y-144678716D01*
X173316277Y-144625872D01*
X173451705Y-144598934D01*
X173589793Y-144598934D01*
X173725221Y-144625872D01*
X173725221Y-144625872D01*
G37*
G36*
X197626760Y-143449262D02*
X197781632Y-143513412D01*
X197921013Y-143606544D01*
X198039547Y-143725078D01*
X198132679Y-143864459D01*
X198196829Y-144019331D01*
X198229532Y-144183743D01*
X198229532Y-144351375D01*
X198196829Y-144515787D01*
X198132679Y-144670659D01*
X198039547Y-144810040D01*
X197921013Y-144928574D01*
X197781632Y-145021706D01*
X197626760Y-145085856D01*
X197462348Y-145118559D01*
X197294716Y-145118559D01*
X197130304Y-145085856D01*
X196975432Y-145021706D01*
X196836051Y-144928574D01*
X196717517Y-144810040D01*
X196624385Y-144670659D01*
X196560235Y-144515787D01*
X196527532Y-144351375D01*
X196527532Y-144183743D01*
X196560235Y-144019331D01*
X196624385Y-143864459D01*
X196717517Y-143725078D01*
X196836051Y-143606544D01*
X196975432Y-143513412D01*
X197130304Y-143449262D01*
X197294716Y-143416559D01*
X197462348Y-143416559D01*
X197626760Y-143449262D01*
X197626760Y-143449262D01*
G37*
G36*
X191294529Y-142976323D02*
X191294532Y-142976324D01*
X191294533Y-142976324D01*
X191454947Y-143024985D01*
X191454949Y-143024986D01*
X191454952Y-143024987D01*
X191602786Y-143104005D01*
X191732367Y-143210351D01*
X191838713Y-143339932D01*
X191917731Y-143487766D01*
X191917732Y-143487769D01*
X191917733Y-143487771D01*
X191966394Y-143648185D01*
X191966395Y-143648189D01*
X191982825Y-143815010D01*
X191966395Y-143981831D01*
X191966394Y-143981834D01*
X191966394Y-143981835D01*
X191955020Y-144019331D01*
X191917731Y-144142254D01*
X191838713Y-144290088D01*
X191732367Y-144419669D01*
X191602786Y-144526015D01*
X191454952Y-144605033D01*
X191454949Y-144605034D01*
X191454947Y-144605035D01*
X191294533Y-144653696D01*
X191294532Y-144653696D01*
X191294529Y-144653697D01*
X191169512Y-144666010D01*
X191085904Y-144666010D01*
X190960887Y-144653697D01*
X190960884Y-144653696D01*
X190960883Y-144653696D01*
X190800469Y-144605035D01*
X190800467Y-144605034D01*
X190800464Y-144605033D01*
X190652630Y-144526015D01*
X190523049Y-144419669D01*
X190416703Y-144290088D01*
X190337685Y-144142254D01*
X190300397Y-144019331D01*
X190289022Y-143981835D01*
X190289022Y-143981834D01*
X190289021Y-143981831D01*
X190272591Y-143815010D01*
X190289021Y-143648189D01*
X190289022Y-143648185D01*
X190337683Y-143487771D01*
X190337684Y-143487769D01*
X190337685Y-143487766D01*
X190416703Y-143339932D01*
X190523049Y-143210351D01*
X190652630Y-143104005D01*
X190800464Y-143024987D01*
X190800467Y-143024986D01*
X190800469Y-143024985D01*
X190960883Y-142976324D01*
X190960884Y-142976324D01*
X190960887Y-142976323D01*
X191085904Y-142964010D01*
X191169512Y-142964010D01*
X191294529Y-142976323D01*
X191294529Y-142976323D01*
G37*
G36*
X178322745Y-141787561D02*
X178477617Y-141851711D01*
X178616998Y-141944843D01*
X178735532Y-142063377D01*
X178828664Y-142202758D01*
X178892814Y-142357630D01*
X178925517Y-142522042D01*
X178925517Y-142689674D01*
X178892814Y-142854086D01*
X178828664Y-143008958D01*
X178735532Y-143148339D01*
X178616998Y-143266873D01*
X178477617Y-143360005D01*
X178322745Y-143424155D01*
X178158333Y-143456858D01*
X177990701Y-143456858D01*
X177826289Y-143424155D01*
X177671417Y-143360005D01*
X177532036Y-143266873D01*
X177413502Y-143148339D01*
X177320370Y-143008958D01*
X177256220Y-142854086D01*
X177223517Y-142689674D01*
X177223517Y-142522042D01*
X177256220Y-142357630D01*
X177320370Y-142202758D01*
X177413502Y-142063377D01*
X177532036Y-141944843D01*
X177671417Y-141851711D01*
X177826289Y-141787561D01*
X177990701Y-141754858D01*
X178158333Y-141754858D01*
X178322745Y-141787561D01*
X178322745Y-141787561D01*
G37*
G36*
X168466821Y-141137620D02*
X168466824Y-141137621D01*
X168466825Y-141137621D01*
X168627239Y-141186282D01*
X168627241Y-141186283D01*
X168627244Y-141186284D01*
X168775078Y-141265302D01*
X168904659Y-141371648D01*
X169011005Y-141501229D01*
X169090023Y-141649063D01*
X169090024Y-141649066D01*
X169090025Y-141649068D01*
X169138686Y-141809482D01*
X169138687Y-141809486D01*
X169155117Y-141976307D01*
X169138687Y-142143128D01*
X169138686Y-142143131D01*
X169138686Y-142143132D01*
X169094655Y-142288284D01*
X169090023Y-142303551D01*
X169011005Y-142451385D01*
X168904659Y-142580966D01*
X168775078Y-142687312D01*
X168627244Y-142766330D01*
X168627241Y-142766331D01*
X168627239Y-142766332D01*
X168466825Y-142814993D01*
X168466824Y-142814993D01*
X168466821Y-142814994D01*
X168341804Y-142827307D01*
X168258196Y-142827307D01*
X168133179Y-142814994D01*
X168133176Y-142814993D01*
X168133175Y-142814993D01*
X167972761Y-142766332D01*
X167972759Y-142766331D01*
X167972756Y-142766330D01*
X167824922Y-142687312D01*
X167695341Y-142580966D01*
X167588995Y-142451385D01*
X167509977Y-142303551D01*
X167505346Y-142288284D01*
X167461314Y-142143132D01*
X167461314Y-142143131D01*
X167461313Y-142143128D01*
X167444883Y-141976307D01*
X167461313Y-141809486D01*
X167461314Y-141809482D01*
X167509975Y-141649068D01*
X167509976Y-141649066D01*
X167509977Y-141649063D01*
X167588995Y-141501229D01*
X167695341Y-141371648D01*
X167824922Y-141265302D01*
X167972756Y-141186284D01*
X167972759Y-141186283D01*
X167972761Y-141186282D01*
X168133175Y-141137621D01*
X168133176Y-141137621D01*
X168133179Y-141137620D01*
X168258196Y-141125307D01*
X168341804Y-141125307D01*
X168466821Y-141137620D01*
X168466821Y-141137620D01*
G37*
G36*
X140027036Y-138498529D02*
X140027038Y-138498530D01*
X140027039Y-138498530D01*
X140400297Y-138653138D01*
X140702904Y-138855334D01*
X140736223Y-138877597D01*
X141021898Y-139163272D01*
X141021900Y-139163275D01*
X141246357Y-139499198D01*
X141381677Y-139825890D01*
X141400966Y-139872459D01*
X141479784Y-140268704D01*
X141479784Y-140672718D01*
X141410916Y-141018943D01*
X141400965Y-141068966D01*
X141246357Y-141442224D01*
X141246356Y-141442225D01*
X141021898Y-141778150D01*
X140736223Y-142063825D01*
X140736220Y-142063827D01*
X140400297Y-142288284D01*
X140027039Y-142442892D01*
X140027038Y-142442892D01*
X140027036Y-142442893D01*
X139630791Y-142521711D01*
X139226777Y-142521711D01*
X138830532Y-142442893D01*
X138830530Y-142442892D01*
X138830529Y-142442892D01*
X138457271Y-142288284D01*
X138121348Y-142063827D01*
X138121345Y-142063825D01*
X137835670Y-141778150D01*
X137611212Y-141442225D01*
X137611211Y-141442224D01*
X137456603Y-141068966D01*
X137446653Y-141018943D01*
X137377784Y-140672718D01*
X137377784Y-140268704D01*
X137456602Y-139872459D01*
X137475891Y-139825890D01*
X137611211Y-139499198D01*
X137835668Y-139163275D01*
X137835670Y-139163272D01*
X138121345Y-138877597D01*
X138154664Y-138855334D01*
X138457271Y-138653138D01*
X138830529Y-138498530D01*
X138830530Y-138498530D01*
X138830532Y-138498529D01*
X139226777Y-138419711D01*
X139630791Y-138419711D01*
X140027036Y-138498529D01*
X140027036Y-138498529D01*
G37*
G36*
X129877396Y-139485546D02*
X130050466Y-139557234D01*
X130206230Y-139661312D01*
X130338688Y-139793770D01*
X130442766Y-139949534D01*
X130514454Y-140122604D01*
X130551000Y-140306333D01*
X130551000Y-140493667D01*
X130514454Y-140677396D01*
X130442766Y-140850466D01*
X130338688Y-141006230D01*
X130206230Y-141138688D01*
X130050466Y-141242766D01*
X129877396Y-141314454D01*
X129693667Y-141351000D01*
X129506333Y-141351000D01*
X129322604Y-141314454D01*
X129149534Y-141242766D01*
X128993770Y-141138688D01*
X128861312Y-141006230D01*
X128757234Y-140850466D01*
X128685546Y-140677396D01*
X128649000Y-140493667D01*
X128649000Y-140306333D01*
X128685546Y-140122604D01*
X128757234Y-139949534D01*
X128861312Y-139793770D01*
X128993770Y-139661312D01*
X129149534Y-139557234D01*
X129322604Y-139485546D01*
X129506333Y-139449000D01*
X129693667Y-139449000D01*
X129877396Y-139485546D01*
X129877396Y-139485546D01*
G37*
G36*
X170262872Y-139341569D02*
X170262875Y-139341570D01*
X170262876Y-139341570D01*
X170423290Y-139390231D01*
X170423292Y-139390232D01*
X170423295Y-139390233D01*
X170571129Y-139469251D01*
X170700710Y-139575597D01*
X170807056Y-139705178D01*
X170886074Y-139853012D01*
X170886075Y-139853015D01*
X170886076Y-139853017D01*
X170915354Y-139949534D01*
X170934738Y-140013435D01*
X170951168Y-140180256D01*
X170934738Y-140347077D01*
X170934737Y-140347080D01*
X170934737Y-140347081D01*
X170887274Y-140503546D01*
X170886074Y-140507500D01*
X170807056Y-140655334D01*
X170700710Y-140784915D01*
X170571129Y-140891261D01*
X170423295Y-140970279D01*
X170423292Y-140970280D01*
X170423290Y-140970281D01*
X170262876Y-141018942D01*
X170262875Y-141018942D01*
X170262872Y-141018943D01*
X170137855Y-141031256D01*
X170054247Y-141031256D01*
X169929230Y-141018943D01*
X169929227Y-141018942D01*
X169929226Y-141018942D01*
X169768812Y-140970281D01*
X169768810Y-140970280D01*
X169768807Y-140970279D01*
X169620973Y-140891261D01*
X169491392Y-140784915D01*
X169385046Y-140655334D01*
X169306028Y-140507500D01*
X169304829Y-140503546D01*
X169257365Y-140347081D01*
X169257365Y-140347080D01*
X169257364Y-140347077D01*
X169240934Y-140180256D01*
X169257364Y-140013435D01*
X169276748Y-139949534D01*
X169306026Y-139853017D01*
X169306027Y-139853015D01*
X169306028Y-139853012D01*
X169385046Y-139705178D01*
X169491392Y-139575597D01*
X169620973Y-139469251D01*
X169768807Y-139390233D01*
X169768810Y-139390232D01*
X169768812Y-139390231D01*
X169929226Y-139341570D01*
X169929227Y-139341570D01*
X169929230Y-139341569D01*
X170054247Y-139329256D01*
X170137855Y-139329256D01*
X170262872Y-139341569D01*
X170262872Y-139341569D01*
G37*
G36*
X96566821Y-139337620D02*
X96566824Y-139337621D01*
X96566825Y-139337621D01*
X96727239Y-139386282D01*
X96727241Y-139386283D01*
X96727244Y-139386284D01*
X96875078Y-139465302D01*
X97004659Y-139571648D01*
X97111005Y-139701229D01*
X97190023Y-139849063D01*
X97190024Y-139849066D01*
X97190025Y-139849068D01*
X97220501Y-139949534D01*
X97238687Y-140009486D01*
X97255117Y-140176307D01*
X97238687Y-140343128D01*
X97238686Y-140343131D01*
X97238686Y-140343132D01*
X97193022Y-140493667D01*
X97190023Y-140503551D01*
X97111005Y-140651385D01*
X97004659Y-140780966D01*
X96875078Y-140887312D01*
X96727244Y-140966330D01*
X96727241Y-140966331D01*
X96727239Y-140966332D01*
X96566825Y-141014993D01*
X96566824Y-141014993D01*
X96566821Y-141014994D01*
X96441804Y-141027307D01*
X96358196Y-141027307D01*
X96233179Y-141014994D01*
X96233176Y-141014993D01*
X96233175Y-141014993D01*
X96072761Y-140966332D01*
X96072759Y-140966331D01*
X96072756Y-140966330D01*
X95924922Y-140887312D01*
X95795341Y-140780966D01*
X95688995Y-140651385D01*
X95609977Y-140503551D01*
X95606979Y-140493667D01*
X95561314Y-140343132D01*
X95561314Y-140343131D01*
X95561313Y-140343128D01*
X95544883Y-140176307D01*
X95561313Y-140009486D01*
X95579499Y-139949534D01*
X95609975Y-139849068D01*
X95609976Y-139849066D01*
X95609977Y-139849063D01*
X95688995Y-139701229D01*
X95795341Y-139571648D01*
X95924922Y-139465302D01*
X96072756Y-139386284D01*
X96072759Y-139386283D01*
X96072761Y-139386282D01*
X96233175Y-139337621D01*
X96233176Y-139337621D01*
X96233179Y-139337620D01*
X96358196Y-139325307D01*
X96441804Y-139325307D01*
X96566821Y-139337620D01*
X96566821Y-139337620D01*
G37*
G36*
X181221882Y-138923777D02*
X181376754Y-138987927D01*
X181516135Y-139081059D01*
X181634669Y-139199593D01*
X181727801Y-139338974D01*
X181791951Y-139493846D01*
X181824654Y-139658258D01*
X181824654Y-139825890D01*
X181791951Y-139990302D01*
X181727801Y-140145174D01*
X181634669Y-140284555D01*
X181516135Y-140403089D01*
X181376754Y-140496221D01*
X181221882Y-140560371D01*
X181057470Y-140593074D01*
X180889838Y-140593074D01*
X180725426Y-140560371D01*
X180570554Y-140496221D01*
X180431173Y-140403089D01*
X180312639Y-140284555D01*
X180219507Y-140145174D01*
X180155357Y-139990302D01*
X180122654Y-139825890D01*
X180122654Y-139658258D01*
X180155357Y-139493846D01*
X180219507Y-139338974D01*
X180312639Y-139199593D01*
X180431173Y-139081059D01*
X180570554Y-138987927D01*
X180725426Y-138923777D01*
X180889838Y-138891074D01*
X181057470Y-138891074D01*
X181221882Y-138923777D01*
X181221882Y-138923777D01*
G37*
G36*
X131645163Y-137717779D02*
X131818233Y-137789467D01*
X131973997Y-137893545D01*
X132106455Y-138026003D01*
X132210533Y-138181767D01*
X132282221Y-138354837D01*
X132318767Y-138538566D01*
X132318767Y-138725900D01*
X132282221Y-138909629D01*
X132210533Y-139082699D01*
X132106455Y-139238463D01*
X131973997Y-139370921D01*
X131818233Y-139474999D01*
X131645163Y-139546687D01*
X131461434Y-139583233D01*
X131274100Y-139583233D01*
X131090371Y-139546687D01*
X130917301Y-139474999D01*
X130761537Y-139370921D01*
X130629079Y-139238463D01*
X130525001Y-139082699D01*
X130453313Y-138909629D01*
X130416767Y-138725900D01*
X130416767Y-138538566D01*
X130453313Y-138354837D01*
X130525001Y-138181767D01*
X130629079Y-138026003D01*
X130761537Y-137893545D01*
X130917301Y-137789467D01*
X131090371Y-137717779D01*
X131274100Y-137681233D01*
X131461434Y-137681233D01*
X131645163Y-137717779D01*
X131645163Y-137717779D01*
G37*
G36*
X172058923Y-137545518D02*
X172058926Y-137545519D01*
X172058927Y-137545519D01*
X172219341Y-137594180D01*
X172219343Y-137594181D01*
X172219346Y-137594182D01*
X172367180Y-137673200D01*
X172496761Y-137779546D01*
X172603107Y-137909127D01*
X172682125Y-138056961D01*
X172682126Y-138056964D01*
X172682127Y-138056966D01*
X172719985Y-138181767D01*
X172730789Y-138217384D01*
X172747219Y-138384205D01*
X172730789Y-138551026D01*
X172730788Y-138551029D01*
X172730788Y-138551030D01*
X172683325Y-138707495D01*
X172682125Y-138711449D01*
X172603107Y-138859283D01*
X172496761Y-138988864D01*
X172367180Y-139095210D01*
X172219346Y-139174228D01*
X172219343Y-139174229D01*
X172219341Y-139174230D01*
X172058927Y-139222891D01*
X172058926Y-139222891D01*
X172058923Y-139222892D01*
X171933906Y-139235205D01*
X171850298Y-139235205D01*
X171725281Y-139222892D01*
X171725278Y-139222891D01*
X171725277Y-139222891D01*
X171564863Y-139174230D01*
X171564861Y-139174229D01*
X171564858Y-139174228D01*
X171417024Y-139095210D01*
X171287443Y-138988864D01*
X171181097Y-138859283D01*
X171102079Y-138711449D01*
X171100880Y-138707495D01*
X171053416Y-138551030D01*
X171053416Y-138551029D01*
X171053415Y-138551026D01*
X171036985Y-138384205D01*
X171053415Y-138217384D01*
X171064219Y-138181767D01*
X171102077Y-138056966D01*
X171102078Y-138056964D01*
X171102079Y-138056961D01*
X171181097Y-137909127D01*
X171287443Y-137779546D01*
X171417024Y-137673200D01*
X171564858Y-137594182D01*
X171564861Y-137594181D01*
X171564863Y-137594180D01*
X171725277Y-137545519D01*
X171725278Y-137545519D01*
X171725281Y-137545518D01*
X171850298Y-137533205D01*
X171933906Y-137533205D01*
X172058923Y-137545518D01*
X172058923Y-137545518D01*
G37*
G36*
X98362872Y-137541569D02*
X98362875Y-137541570D01*
X98362876Y-137541570D01*
X98523290Y-137590231D01*
X98523292Y-137590232D01*
X98523295Y-137590233D01*
X98671129Y-137669251D01*
X98800710Y-137775597D01*
X98907056Y-137905178D01*
X98986074Y-138053012D01*
X98986075Y-138053015D01*
X98986076Y-138053017D01*
X99025132Y-138181767D01*
X99034738Y-138213435D01*
X99051168Y-138380256D01*
X99034738Y-138547077D01*
X99034737Y-138547080D01*
X99034737Y-138547081D01*
X99002565Y-138653139D01*
X98986074Y-138707500D01*
X98907056Y-138855334D01*
X98800710Y-138984915D01*
X98671129Y-139091261D01*
X98523295Y-139170279D01*
X98523292Y-139170280D01*
X98523290Y-139170281D01*
X98362876Y-139218942D01*
X98362875Y-139218942D01*
X98362872Y-139218943D01*
X98237855Y-139231256D01*
X98154247Y-139231256D01*
X98029230Y-139218943D01*
X98029227Y-139218942D01*
X98029226Y-139218942D01*
X97868812Y-139170281D01*
X97868810Y-139170280D01*
X97868807Y-139170279D01*
X97720973Y-139091261D01*
X97591392Y-138984915D01*
X97485046Y-138855334D01*
X97406028Y-138707500D01*
X97389538Y-138653139D01*
X97357365Y-138547081D01*
X97357365Y-138547080D01*
X97357364Y-138547077D01*
X97340934Y-138380256D01*
X97357364Y-138213435D01*
X97366970Y-138181767D01*
X97406026Y-138053017D01*
X97406027Y-138053015D01*
X97406028Y-138053012D01*
X97485046Y-137905178D01*
X97591392Y-137775597D01*
X97720973Y-137669251D01*
X97868807Y-137590233D01*
X97868810Y-137590232D01*
X97868812Y-137590231D01*
X98029226Y-137541570D01*
X98029227Y-137541570D01*
X98029230Y-137541569D01*
X98154247Y-137529256D01*
X98237855Y-137529256D01*
X98362872Y-137541569D01*
X98362872Y-137541569D01*
G37*
G36*
X190361148Y-136244667D02*
X190361151Y-136244668D01*
X190361152Y-136244668D01*
X190521566Y-136293329D01*
X190521568Y-136293330D01*
X190521571Y-136293331D01*
X190669405Y-136372349D01*
X190798986Y-136478695D01*
X190905332Y-136608276D01*
X190984350Y-136756110D01*
X190984351Y-136756113D01*
X190984352Y-136756115D01*
X191031470Y-136911444D01*
X191033014Y-136916533D01*
X191049444Y-137083354D01*
X191033014Y-137250175D01*
X191033013Y-137250178D01*
X191033013Y-137250179D01*
X190994185Y-137378179D01*
X190984350Y-137410598D01*
X190905332Y-137558432D01*
X190798986Y-137688013D01*
X190669405Y-137794359D01*
X190521571Y-137873377D01*
X190521568Y-137873378D01*
X190521566Y-137873379D01*
X190361152Y-137922040D01*
X190361151Y-137922040D01*
X190361148Y-137922041D01*
X190236131Y-137934354D01*
X190152523Y-137934354D01*
X190027506Y-137922041D01*
X190027503Y-137922040D01*
X190027502Y-137922040D01*
X189867088Y-137873379D01*
X189867086Y-137873378D01*
X189867083Y-137873377D01*
X189719249Y-137794359D01*
X189589668Y-137688013D01*
X189483322Y-137558432D01*
X189404304Y-137410598D01*
X189394470Y-137378179D01*
X189355641Y-137250179D01*
X189355641Y-137250178D01*
X189355640Y-137250175D01*
X189339210Y-137083354D01*
X189355640Y-136916533D01*
X189357184Y-136911444D01*
X189404302Y-136756115D01*
X189404303Y-136756113D01*
X189404304Y-136756110D01*
X189483322Y-136608276D01*
X189589668Y-136478695D01*
X189719249Y-136372349D01*
X189867083Y-136293331D01*
X189867086Y-136293330D01*
X189867088Y-136293329D01*
X190027502Y-136244668D01*
X190027503Y-136244668D01*
X190027506Y-136244667D01*
X190152523Y-136232354D01*
X190236131Y-136232354D01*
X190361148Y-136244667D01*
X190361148Y-136244667D01*
G37*
G36*
X133412930Y-135950012D02*
X133586000Y-136021700D01*
X133741764Y-136125778D01*
X133874222Y-136258236D01*
X133978300Y-136414000D01*
X134049988Y-136587070D01*
X134086534Y-136770799D01*
X134086534Y-136958133D01*
X134049988Y-137141862D01*
X133978300Y-137314932D01*
X133874222Y-137470696D01*
X133741764Y-137603154D01*
X133586000Y-137707232D01*
X133412930Y-137778920D01*
X133229201Y-137815466D01*
X133041867Y-137815466D01*
X132858138Y-137778920D01*
X132685068Y-137707232D01*
X132529304Y-137603154D01*
X132396846Y-137470696D01*
X132292768Y-137314932D01*
X132221080Y-137141862D01*
X132184534Y-136958133D01*
X132184534Y-136770799D01*
X132221080Y-136587070D01*
X132292768Y-136414000D01*
X132396846Y-136258236D01*
X132529304Y-136125778D01*
X132685068Y-136021700D01*
X132858138Y-135950012D01*
X133041867Y-135913466D01*
X133229201Y-135913466D01*
X133412930Y-135950012D01*
X133412930Y-135950012D01*
G37*
G36*
X184191731Y-135812508D02*
X184346603Y-135876658D01*
X184485984Y-135969790D01*
X184604518Y-136088324D01*
X184697650Y-136227705D01*
X184761800Y-136382577D01*
X184794503Y-136546989D01*
X184794503Y-136714621D01*
X184761800Y-136879033D01*
X184697650Y-137033905D01*
X184604518Y-137173286D01*
X184485984Y-137291820D01*
X184346603Y-137384952D01*
X184191731Y-137449102D01*
X184027319Y-137481805D01*
X183859687Y-137481805D01*
X183695275Y-137449102D01*
X183540403Y-137384952D01*
X183401022Y-137291820D01*
X183282488Y-137173286D01*
X183189356Y-137033905D01*
X183125206Y-136879033D01*
X183092503Y-136714621D01*
X183092503Y-136546989D01*
X183125206Y-136382577D01*
X183189356Y-136227705D01*
X183282488Y-136088324D01*
X183401022Y-135969790D01*
X183540403Y-135876658D01*
X183695275Y-135812508D01*
X183859687Y-135779805D01*
X184027319Y-135779805D01*
X184191731Y-135812508D01*
X184191731Y-135812508D01*
G37*
G36*
X173854975Y-135749467D02*
X173854978Y-135749468D01*
X173854979Y-135749468D01*
X174015393Y-135798129D01*
X174015395Y-135798130D01*
X174015398Y-135798131D01*
X174163232Y-135877149D01*
X174292813Y-135983495D01*
X174399159Y-136113076D01*
X174478177Y-136260910D01*
X174478178Y-136260913D01*
X174478179Y-136260915D01*
X174524616Y-136413999D01*
X174526841Y-136421333D01*
X174543271Y-136588154D01*
X174526841Y-136754975D01*
X174526840Y-136754978D01*
X174526840Y-136754979D01*
X174479377Y-136911444D01*
X174478177Y-136915398D01*
X174399159Y-137063232D01*
X174292813Y-137192813D01*
X174163232Y-137299159D01*
X174015398Y-137378177D01*
X174015395Y-137378178D01*
X174015393Y-137378179D01*
X173854979Y-137426840D01*
X173854978Y-137426840D01*
X173854975Y-137426841D01*
X173729958Y-137439154D01*
X173646350Y-137439154D01*
X173521333Y-137426841D01*
X173521330Y-137426840D01*
X173521329Y-137426840D01*
X173360915Y-137378179D01*
X173360913Y-137378178D01*
X173360910Y-137378177D01*
X173213076Y-137299159D01*
X173083495Y-137192813D01*
X172977149Y-137063232D01*
X172898131Y-136915398D01*
X172896932Y-136911444D01*
X172849468Y-136754979D01*
X172849468Y-136754978D01*
X172849467Y-136754975D01*
X172833037Y-136588154D01*
X172849467Y-136421333D01*
X172851692Y-136413999D01*
X172898129Y-136260915D01*
X172898130Y-136260913D01*
X172898131Y-136260910D01*
X172977149Y-136113076D01*
X173083495Y-135983495D01*
X173213076Y-135877149D01*
X173360910Y-135798131D01*
X173360913Y-135798130D01*
X173360915Y-135798129D01*
X173521329Y-135749468D01*
X173521330Y-135749468D01*
X173521333Y-135749467D01*
X173646350Y-135737154D01*
X173729958Y-135737154D01*
X173854975Y-135749467D01*
X173854975Y-135749467D01*
G37*
G36*
X163078667Y-135749467D02*
X163078670Y-135749468D01*
X163078671Y-135749468D01*
X163239085Y-135798129D01*
X163239087Y-135798130D01*
X163239090Y-135798131D01*
X163386924Y-135877149D01*
X163516505Y-135983495D01*
X163622851Y-136113076D01*
X163701869Y-136260910D01*
X163701870Y-136260913D01*
X163701871Y-136260915D01*
X163748308Y-136413999D01*
X163750533Y-136421333D01*
X163766963Y-136588154D01*
X163750533Y-136754975D01*
X163750532Y-136754978D01*
X163750532Y-136754979D01*
X163703069Y-136911444D01*
X163701869Y-136915398D01*
X163622851Y-137063232D01*
X163516505Y-137192813D01*
X163386924Y-137299159D01*
X163239090Y-137378177D01*
X163239087Y-137378178D01*
X163239085Y-137378179D01*
X163078671Y-137426840D01*
X163078670Y-137426840D01*
X163078667Y-137426841D01*
X162953650Y-137439154D01*
X162870042Y-137439154D01*
X162745025Y-137426841D01*
X162745022Y-137426840D01*
X162745021Y-137426840D01*
X162584607Y-137378179D01*
X162584605Y-137378178D01*
X162584602Y-137378177D01*
X162436768Y-137299159D01*
X162307187Y-137192813D01*
X162200841Y-137063232D01*
X162121823Y-136915398D01*
X162120624Y-136911444D01*
X162073160Y-136754979D01*
X162073160Y-136754978D01*
X162073159Y-136754975D01*
X162056729Y-136588154D01*
X162073159Y-136421333D01*
X162075384Y-136413999D01*
X162121821Y-136260915D01*
X162121822Y-136260913D01*
X162121823Y-136260910D01*
X162200841Y-136113076D01*
X162307187Y-135983495D01*
X162436768Y-135877149D01*
X162584602Y-135798131D01*
X162584605Y-135798130D01*
X162584607Y-135798129D01*
X162745021Y-135749468D01*
X162745022Y-135749468D01*
X162745025Y-135749467D01*
X162870042Y-135737154D01*
X162953650Y-135737154D01*
X163078667Y-135749467D01*
X163078667Y-135749467D01*
G37*
G36*
X100158923Y-135745518D02*
X100158926Y-135745519D01*
X100158927Y-135745519D01*
X100319341Y-135794180D01*
X100319343Y-135794181D01*
X100319346Y-135794182D01*
X100467180Y-135873200D01*
X100596761Y-135979546D01*
X100703107Y-136109127D01*
X100782125Y-136256961D01*
X100782126Y-136256964D01*
X100782127Y-136256966D01*
X100830788Y-136417380D01*
X100830789Y-136417384D01*
X100847219Y-136584205D01*
X100830789Y-136751026D01*
X100830788Y-136751029D01*
X100830788Y-136751030D01*
X100791959Y-136879033D01*
X100782125Y-136911449D01*
X100703107Y-137059283D01*
X100596761Y-137188864D01*
X100467180Y-137295210D01*
X100319346Y-137374228D01*
X100319343Y-137374229D01*
X100319341Y-137374230D01*
X100158927Y-137422891D01*
X100158926Y-137422891D01*
X100158923Y-137422892D01*
X100033906Y-137435205D01*
X99950298Y-137435205D01*
X99825281Y-137422892D01*
X99825278Y-137422891D01*
X99825277Y-137422891D01*
X99664863Y-137374230D01*
X99664861Y-137374229D01*
X99664858Y-137374228D01*
X99517024Y-137295210D01*
X99387443Y-137188864D01*
X99281097Y-137059283D01*
X99202079Y-136911449D01*
X99192246Y-136879033D01*
X99153416Y-136751030D01*
X99153416Y-136751029D01*
X99153415Y-136751026D01*
X99136985Y-136584205D01*
X99153415Y-136417384D01*
X99153416Y-136417380D01*
X99202077Y-136256966D01*
X99202078Y-136256964D01*
X99202079Y-136256961D01*
X99281097Y-136109127D01*
X99387443Y-135979546D01*
X99517024Y-135873200D01*
X99664858Y-135794182D01*
X99664861Y-135794181D01*
X99664863Y-135794180D01*
X99825277Y-135745519D01*
X99825278Y-135745519D01*
X99825281Y-135745518D01*
X99950298Y-135733205D01*
X100033906Y-135733205D01*
X100158923Y-135745518D01*
X100158923Y-135745518D01*
G37*
G36*
X200606565Y-134989389D02*
X200797834Y-135068615D01*
X200969976Y-135183637D01*
X201116363Y-135330024D01*
X201231385Y-135502166D01*
X201310611Y-135693435D01*
X201351000Y-135896484D01*
X201351000Y-136103516D01*
X201310611Y-136306565D01*
X201231385Y-136497834D01*
X201116363Y-136669976D01*
X200969976Y-136816363D01*
X200797834Y-136931385D01*
X200606565Y-137010611D01*
X200403516Y-137051000D01*
X200196484Y-137051000D01*
X199993435Y-137010611D01*
X199802166Y-136931385D01*
X199630024Y-136816363D01*
X199483637Y-136669976D01*
X199368615Y-136497834D01*
X199289389Y-136306565D01*
X199249000Y-136103516D01*
X199249000Y-135896484D01*
X199289389Y-135693435D01*
X199368615Y-135502166D01*
X199483637Y-135330024D01*
X199630024Y-135183637D01*
X199802166Y-135068615D01*
X199993435Y-134989389D01*
X200196484Y-134949000D01*
X200403516Y-134949000D01*
X200606565Y-134989389D01*
X200606565Y-134989389D01*
G37*
G36*
X120456565Y-133839389D02*
X120647834Y-133918615D01*
X120819976Y-134033637D01*
X120966363Y-134180024D01*
X121081385Y-134352166D01*
X121160611Y-134543435D01*
X121201000Y-134746484D01*
X121201000Y-134953516D01*
X121160611Y-135156565D01*
X121081385Y-135347834D01*
X120966363Y-135519976D01*
X120819976Y-135666363D01*
X120647834Y-135781385D01*
X120456565Y-135860611D01*
X120253516Y-135901000D01*
X120046484Y-135901000D01*
X119843435Y-135860611D01*
X119652166Y-135781385D01*
X119480024Y-135666363D01*
X119333637Y-135519976D01*
X119218615Y-135347834D01*
X119139389Y-135156565D01*
X119099000Y-134953516D01*
X119099000Y-134746484D01*
X119139389Y-134543435D01*
X119218615Y-134352166D01*
X119333637Y-134180024D01*
X119480024Y-134033637D01*
X119652166Y-133918615D01*
X119843435Y-133839389D01*
X120046484Y-133799000D01*
X120253516Y-133799000D01*
X120456565Y-133839389D01*
X120456565Y-133839389D01*
G37*
G36*
X164874719Y-133953415D02*
X164874722Y-133953416D01*
X164874723Y-133953416D01*
X165035137Y-134002077D01*
X165035139Y-134002078D01*
X165035142Y-134002079D01*
X165182976Y-134081097D01*
X165312557Y-134187443D01*
X165418903Y-134317024D01*
X165497921Y-134464858D01*
X165497922Y-134464861D01*
X165497923Y-134464863D01*
X165546584Y-134625277D01*
X165546585Y-134625281D01*
X165563015Y-134792102D01*
X165546585Y-134958923D01*
X165546584Y-134958926D01*
X165546584Y-134958927D01*
X165499121Y-135115393D01*
X165497921Y-135119346D01*
X165418903Y-135267180D01*
X165312557Y-135396761D01*
X165182976Y-135503107D01*
X165035142Y-135582125D01*
X165035139Y-135582126D01*
X165035137Y-135582127D01*
X164874723Y-135630788D01*
X164874722Y-135630788D01*
X164874719Y-135630789D01*
X164749702Y-135643102D01*
X164666094Y-135643102D01*
X164541077Y-135630789D01*
X164541074Y-135630788D01*
X164541073Y-135630788D01*
X164380659Y-135582127D01*
X164380657Y-135582126D01*
X164380654Y-135582125D01*
X164232820Y-135503107D01*
X164103239Y-135396761D01*
X163996893Y-135267180D01*
X163917875Y-135119346D01*
X163916676Y-135115393D01*
X163869212Y-134958927D01*
X163869212Y-134958926D01*
X163869211Y-134958923D01*
X163852781Y-134792102D01*
X163869211Y-134625281D01*
X163869212Y-134625277D01*
X163917873Y-134464863D01*
X163917874Y-134464861D01*
X163917875Y-134464858D01*
X163996893Y-134317024D01*
X164103239Y-134187443D01*
X164232820Y-134081097D01*
X164380654Y-134002079D01*
X164380657Y-134002078D01*
X164380659Y-134002077D01*
X164541073Y-133953416D01*
X164541074Y-133953416D01*
X164541077Y-133953415D01*
X164666094Y-133941102D01*
X164749702Y-133941102D01*
X164874719Y-133953415D01*
X164874719Y-133953415D01*
G37*
G36*
X101954975Y-133949467D02*
X101954978Y-133949468D01*
X101954979Y-133949468D01*
X102115393Y-133998129D01*
X102115395Y-133998130D01*
X102115398Y-133998131D01*
X102263232Y-134077149D01*
X102392813Y-134183495D01*
X102499159Y-134313076D01*
X102578177Y-134460910D01*
X102578178Y-134460913D01*
X102578179Y-134460915D01*
X102603211Y-134543435D01*
X102626841Y-134621333D01*
X102643271Y-134788154D01*
X102626841Y-134954975D01*
X102626840Y-134954978D01*
X102626840Y-134954979D01*
X102592369Y-135068616D01*
X102578177Y-135115398D01*
X102499159Y-135263232D01*
X102392813Y-135392813D01*
X102263232Y-135499159D01*
X102115398Y-135578177D01*
X102115395Y-135578178D01*
X102115393Y-135578179D01*
X101954979Y-135626840D01*
X101954978Y-135626840D01*
X101954975Y-135626841D01*
X101829958Y-135639154D01*
X101746350Y-135639154D01*
X101621333Y-135626841D01*
X101621330Y-135626840D01*
X101621329Y-135626840D01*
X101460915Y-135578179D01*
X101460913Y-135578178D01*
X101460910Y-135578177D01*
X101313076Y-135499159D01*
X101183495Y-135392813D01*
X101077149Y-135263232D01*
X100998131Y-135115398D01*
X100983940Y-135068616D01*
X100949468Y-134954979D01*
X100949468Y-134954978D01*
X100949467Y-134954975D01*
X100933037Y-134788154D01*
X100949467Y-134621333D01*
X100973097Y-134543435D01*
X100998129Y-134460915D01*
X100998130Y-134460913D01*
X100998131Y-134460910D01*
X101077149Y-134313076D01*
X101183495Y-134183495D01*
X101313076Y-134077149D01*
X101460910Y-133998131D01*
X101460913Y-133998130D01*
X101460915Y-133998129D01*
X101621329Y-133949468D01*
X101621330Y-133949468D01*
X101621333Y-133949467D01*
X101746350Y-133937154D01*
X101829958Y-133937154D01*
X101954975Y-133949467D01*
X101954975Y-133949467D01*
G37*
G36*
X91178667Y-133949467D02*
X91178670Y-133949468D01*
X91178671Y-133949468D01*
X91339085Y-133998129D01*
X91339087Y-133998130D01*
X91339090Y-133998131D01*
X91486924Y-134077149D01*
X91616505Y-134183495D01*
X91722851Y-134313076D01*
X91801869Y-134460910D01*
X91801870Y-134460913D01*
X91801871Y-134460915D01*
X91826903Y-134543435D01*
X91850533Y-134621333D01*
X91866963Y-134788154D01*
X91850533Y-134954975D01*
X91850532Y-134954978D01*
X91850532Y-134954979D01*
X91816061Y-135068616D01*
X91801869Y-135115398D01*
X91722851Y-135263232D01*
X91616505Y-135392813D01*
X91486924Y-135499159D01*
X91339090Y-135578177D01*
X91339087Y-135578178D01*
X91339085Y-135578179D01*
X91178671Y-135626840D01*
X91178670Y-135626840D01*
X91178667Y-135626841D01*
X91053650Y-135639154D01*
X90970042Y-135639154D01*
X90845025Y-135626841D01*
X90845022Y-135626840D01*
X90845021Y-135626840D01*
X90684607Y-135578179D01*
X90684605Y-135578178D01*
X90684602Y-135578177D01*
X90536768Y-135499159D01*
X90407187Y-135392813D01*
X90300841Y-135263232D01*
X90221823Y-135115398D01*
X90207632Y-135068616D01*
X90173160Y-134954979D01*
X90173160Y-134954978D01*
X90173159Y-134954975D01*
X90156729Y-134788154D01*
X90173159Y-134621333D01*
X90196789Y-134543435D01*
X90221821Y-134460915D01*
X90221822Y-134460913D01*
X90221823Y-134460910D01*
X90300841Y-134313076D01*
X90407187Y-134183495D01*
X90536768Y-134077149D01*
X90684602Y-133998131D01*
X90684605Y-133998130D01*
X90684607Y-133998129D01*
X90845021Y-133949468D01*
X90845022Y-133949468D01*
X90845025Y-133949467D01*
X90970042Y-133937154D01*
X91053650Y-133937154D01*
X91178667Y-133949467D01*
X91178667Y-133949467D01*
G37*
G36*
X176448228Y-133281703D02*
X176603100Y-133345853D01*
X176742481Y-133438985D01*
X176861015Y-133557519D01*
X176954147Y-133696900D01*
X177018297Y-133851772D01*
X177051000Y-134016184D01*
X177051000Y-134183816D01*
X177018297Y-134348228D01*
X176954147Y-134503100D01*
X176861015Y-134642481D01*
X176742481Y-134761015D01*
X176603100Y-134854147D01*
X176448228Y-134918297D01*
X176283816Y-134951000D01*
X176116184Y-134951000D01*
X175951772Y-134918297D01*
X175796900Y-134854147D01*
X175657519Y-134761015D01*
X175538985Y-134642481D01*
X175445853Y-134503100D01*
X175381703Y-134348228D01*
X175349000Y-134183816D01*
X175349000Y-134016184D01*
X175381703Y-133851772D01*
X175445853Y-133696900D01*
X175538985Y-133557519D01*
X175657519Y-133438985D01*
X175796900Y-133345853D01*
X175951772Y-133281703D01*
X176116184Y-133249000D01*
X176283816Y-133249000D01*
X176448228Y-133281703D01*
X176448228Y-133281703D01*
G37*
G36*
X190096746Y-133307403D02*
X189105382Y-134298767D01*
X188204352Y-133397737D01*
X188185410Y-133382191D01*
X188163799Y-133370640D01*
X188140350Y-133363527D01*
X188115964Y-133361125D01*
X188091578Y-133363527D01*
X188068129Y-133370640D01*
X188046518Y-133382191D01*
X188027576Y-133397737D01*
X188012030Y-133416679D01*
X188000479Y-133438290D01*
X187993366Y-133461739D01*
X187983393Y-133511874D01*
X187930549Y-133639452D01*
X187853831Y-133754268D01*
X187756196Y-133851903D01*
X187641380Y-133928621D01*
X187513803Y-133981465D01*
X187378375Y-134008403D01*
X187240287Y-134008403D01*
X187104859Y-133981465D01*
X186977282Y-133928621D01*
X186862466Y-133851903D01*
X186764831Y-133754268D01*
X186688113Y-133639452D01*
X186635269Y-133511875D01*
X186608331Y-133376447D01*
X186608331Y-133238359D01*
X186635269Y-133102931D01*
X186688113Y-132975354D01*
X186764831Y-132860538D01*
X186862466Y-132762903D01*
X186977282Y-132686185D01*
X187104859Y-132633341D01*
X187240287Y-132606403D01*
X187378375Y-132606403D01*
X187513803Y-132633341D01*
X187641380Y-132686185D01*
X187756196Y-132762903D01*
X187853831Y-132860538D01*
X187930549Y-132975354D01*
X187983393Y-133102932D01*
X187993366Y-133153067D01*
X188000479Y-133176517D01*
X188012030Y-133198127D01*
X188027576Y-133217069D01*
X188046518Y-133232615D01*
X188068129Y-133244166D01*
X188091578Y-133251279D01*
X188115964Y-133253681D01*
X188140350Y-133251279D01*
X188163800Y-133244166D01*
X188185410Y-133232615D01*
X188204352Y-133217069D01*
X189105382Y-132316039D01*
X190096746Y-133307403D01*
X190096746Y-133307403D01*
G37*
G36*
X166670770Y-132157364D02*
X166670773Y-132157365D01*
X166670774Y-132157365D01*
X166831188Y-132206026D01*
X166831190Y-132206027D01*
X166831193Y-132206028D01*
X166979027Y-132285046D01*
X167108608Y-132391392D01*
X167214954Y-132520973D01*
X167293972Y-132668807D01*
X167293973Y-132668810D01*
X167293974Y-132668812D01*
X167338472Y-132815503D01*
X167342636Y-132829230D01*
X167359066Y-132996051D01*
X167342636Y-133162872D01*
X167342635Y-133162875D01*
X167342635Y-133162876D01*
X167295172Y-133319341D01*
X167293972Y-133323295D01*
X167214954Y-133471129D01*
X167108608Y-133600710D01*
X166979027Y-133707056D01*
X166831193Y-133786074D01*
X166831190Y-133786075D01*
X166831188Y-133786076D01*
X166670774Y-133834737D01*
X166670773Y-133834737D01*
X166670770Y-133834738D01*
X166545753Y-133847051D01*
X166462145Y-133847051D01*
X166337128Y-133834738D01*
X166337125Y-133834737D01*
X166337124Y-133834737D01*
X166176710Y-133786076D01*
X166176708Y-133786075D01*
X166176705Y-133786074D01*
X166028871Y-133707056D01*
X165899290Y-133600710D01*
X165792944Y-133471129D01*
X165713926Y-133323295D01*
X165712727Y-133319341D01*
X165665263Y-133162876D01*
X165665263Y-133162875D01*
X165665262Y-133162872D01*
X165648832Y-132996051D01*
X165665262Y-132829230D01*
X165669426Y-132815503D01*
X165713924Y-132668812D01*
X165713925Y-132668810D01*
X165713926Y-132668807D01*
X165792944Y-132520973D01*
X165899290Y-132391392D01*
X166028871Y-132285046D01*
X166176705Y-132206028D01*
X166176708Y-132206027D01*
X166176710Y-132206026D01*
X166337124Y-132157365D01*
X166337125Y-132157365D01*
X166337128Y-132157364D01*
X166462145Y-132145051D01*
X166545753Y-132145051D01*
X166670770Y-132157364D01*
X166670770Y-132157364D01*
G37*
G36*
X92974719Y-132153415D02*
X92974722Y-132153416D01*
X92974723Y-132153416D01*
X93135137Y-132202077D01*
X93135139Y-132202078D01*
X93135142Y-132202079D01*
X93282976Y-132281097D01*
X93412557Y-132387443D01*
X93518903Y-132517024D01*
X93597921Y-132664858D01*
X93597922Y-132664861D01*
X93597923Y-132664863D01*
X93627662Y-132762901D01*
X93646585Y-132825281D01*
X93663015Y-132992102D01*
X93646585Y-133158923D01*
X93646584Y-133158926D01*
X93646584Y-133158927D01*
X93617841Y-133253681D01*
X93597921Y-133319346D01*
X93518903Y-133467180D01*
X93412557Y-133596761D01*
X93282976Y-133703107D01*
X93135142Y-133782125D01*
X93135139Y-133782126D01*
X93135137Y-133782127D01*
X92974723Y-133830788D01*
X92974722Y-133830788D01*
X92974719Y-133830789D01*
X92849702Y-133843102D01*
X92766094Y-133843102D01*
X92641077Y-133830789D01*
X92641074Y-133830788D01*
X92641073Y-133830788D01*
X92480659Y-133782127D01*
X92480657Y-133782126D01*
X92480654Y-133782125D01*
X92332820Y-133703107D01*
X92203239Y-133596761D01*
X92096893Y-133467180D01*
X92017875Y-133319346D01*
X91997956Y-133253681D01*
X91969212Y-133158927D01*
X91969212Y-133158926D01*
X91969211Y-133158923D01*
X91952781Y-132992102D01*
X91969211Y-132825281D01*
X91988134Y-132762901D01*
X92017873Y-132664863D01*
X92017874Y-132664861D01*
X92017875Y-132664858D01*
X92096893Y-132517024D01*
X92203239Y-132387443D01*
X92332820Y-132281097D01*
X92480654Y-132202079D01*
X92480657Y-132202078D01*
X92480659Y-132202077D01*
X92641073Y-132153416D01*
X92641074Y-132153416D01*
X92641077Y-132153415D01*
X92766094Y-132141102D01*
X92849702Y-132141102D01*
X92974719Y-132153415D01*
X92974719Y-132153415D01*
G37*
G36*
X174680461Y-131513936D02*
X174835333Y-131578086D01*
X174974714Y-131671218D01*
X175093248Y-131789752D01*
X175186380Y-131929133D01*
X175250530Y-132084005D01*
X175283233Y-132248417D01*
X175283233Y-132416049D01*
X175250530Y-132580461D01*
X175186380Y-132735333D01*
X175093248Y-132874714D01*
X174974714Y-132993248D01*
X174835333Y-133086380D01*
X174680461Y-133150530D01*
X174516049Y-133183233D01*
X174348417Y-133183233D01*
X174184005Y-133150530D01*
X174029133Y-133086380D01*
X173889752Y-132993248D01*
X173771218Y-132874714D01*
X173678086Y-132735333D01*
X173613936Y-132580461D01*
X173581233Y-132416049D01*
X173581233Y-132248417D01*
X173613936Y-132084005D01*
X173678086Y-131929133D01*
X173771218Y-131789752D01*
X173889752Y-131671218D01*
X174029133Y-131578086D01*
X174184005Y-131513936D01*
X174348417Y-131481233D01*
X174516049Y-131481233D01*
X174680461Y-131513936D01*
X174680461Y-131513936D01*
G37*
G36*
X111222928Y-129732456D02*
X111370888Y-129793744D01*
X111384890Y-129803100D01*
X111504043Y-129882715D01*
X111617285Y-129995957D01*
X111636472Y-130024673D01*
X111706256Y-130129112D01*
X111767544Y-130277072D01*
X111798786Y-130434139D01*
X111798786Y-130594289D01*
X111767544Y-130751356D01*
X111731948Y-130837290D01*
X111706257Y-130899314D01*
X111617285Y-131032471D01*
X111504043Y-131145713D01*
X111458239Y-131176318D01*
X111370888Y-131234684D01*
X111222928Y-131295972D01*
X111065861Y-131327214D01*
X110905711Y-131327214D01*
X110748644Y-131295972D01*
X110600685Y-131234685D01*
X110513333Y-131176318D01*
X110497061Y-131165445D01*
X110475452Y-131153895D01*
X110452002Y-131146782D01*
X110427616Y-131144380D01*
X110403230Y-131146782D01*
X110379781Y-131153895D01*
X110358170Y-131165446D01*
X110339228Y-131180992D01*
X110323682Y-131199934D01*
X110312131Y-131221544D01*
X110305018Y-131244994D01*
X110302616Y-131269380D01*
X110305018Y-131293766D01*
X110312131Y-131317215D01*
X110323683Y-131338827D01*
X110432246Y-131501302D01*
X110511473Y-131692573D01*
X110551862Y-131895622D01*
X110551862Y-132102654D01*
X110511473Y-132305703D01*
X110432247Y-132496972D01*
X110317225Y-132669114D01*
X110170838Y-132815501D01*
X109998696Y-132930523D01*
X109807427Y-133009749D01*
X109604378Y-133050138D01*
X109397346Y-133050138D01*
X109194297Y-133009749D01*
X109003028Y-132930523D01*
X108830886Y-132815501D01*
X108684499Y-132669114D01*
X108569477Y-132496972D01*
X108490251Y-132305703D01*
X108449862Y-132102654D01*
X108449862Y-131895622D01*
X108490251Y-131692573D01*
X108569477Y-131501304D01*
X108684499Y-131329162D01*
X108830886Y-131182775D01*
X109003028Y-131067753D01*
X109194297Y-130988527D01*
X109397346Y-130948138D01*
X109604378Y-130948138D01*
X109807427Y-130988527D01*
X109998698Y-131067754D01*
X110161173Y-131176317D01*
X110182784Y-131187869D01*
X110206233Y-131194982D01*
X110230620Y-131197384D01*
X110255006Y-131194982D01*
X110278455Y-131187869D01*
X110300066Y-131176318D01*
X110319008Y-131160773D01*
X110334553Y-131141831D01*
X110346105Y-131120220D01*
X110353218Y-131096771D01*
X110355620Y-131072384D01*
X110353218Y-131047998D01*
X110346105Y-131024549D01*
X110334554Y-131002938D01*
X110324926Y-130988528D01*
X110297938Y-130948138D01*
X110265315Y-130899315D01*
X110204028Y-130751356D01*
X110172786Y-130594289D01*
X110172786Y-130434139D01*
X110204028Y-130277072D01*
X110265316Y-130129112D01*
X110335100Y-130024673D01*
X110354287Y-129995957D01*
X110467529Y-129882715D01*
X110586682Y-129803100D01*
X110600684Y-129793744D01*
X110748644Y-129732456D01*
X110905711Y-129701214D01*
X111065861Y-129701214D01*
X111222928Y-129732456D01*
X111222928Y-129732456D01*
G37*
G36*
X169503496Y-131200000D02*
X168300000Y-132403496D01*
X167096504Y-131200000D01*
X168300000Y-129996504D01*
X169503496Y-131200000D01*
X169503496Y-131200000D01*
G37*
G36*
X187513803Y-130837290D02*
X187641380Y-130890134D01*
X187756196Y-130966852D01*
X187853831Y-131064487D01*
X187930549Y-131179303D01*
X187983393Y-131306880D01*
X188010331Y-131442308D01*
X188010331Y-131580396D01*
X187983393Y-131715824D01*
X187930549Y-131843401D01*
X187853831Y-131958217D01*
X187756196Y-132055852D01*
X187641380Y-132132570D01*
X187513803Y-132185414D01*
X187378375Y-132212352D01*
X187240287Y-132212352D01*
X187104859Y-132185414D01*
X186977282Y-132132570D01*
X186862466Y-132055852D01*
X186764831Y-131958217D01*
X186688113Y-131843401D01*
X186635269Y-131715824D01*
X186608331Y-131580396D01*
X186608331Y-131442308D01*
X186635269Y-131306880D01*
X186688113Y-131179303D01*
X186764831Y-131064487D01*
X186862466Y-130966852D01*
X186977282Y-130890134D01*
X187104859Y-130837290D01*
X187240287Y-130810352D01*
X187378375Y-130810352D01*
X187513803Y-130837290D01*
X187513803Y-130837290D01*
G37*
G36*
X94770770Y-130357364D02*
X94770773Y-130357365D01*
X94770774Y-130357365D01*
X94931188Y-130406026D01*
X94931190Y-130406027D01*
X94931193Y-130406028D01*
X95079027Y-130485046D01*
X95208608Y-130591392D01*
X95314954Y-130720973D01*
X95393972Y-130868807D01*
X95393973Y-130868810D01*
X95393974Y-130868812D01*
X95441216Y-131024549D01*
X95442636Y-131029230D01*
X95459066Y-131196051D01*
X95442636Y-131362872D01*
X95442635Y-131362875D01*
X95442635Y-131362876D01*
X95396812Y-131513936D01*
X95393972Y-131523295D01*
X95314954Y-131671129D01*
X95208608Y-131800710D01*
X95079027Y-131907056D01*
X94931193Y-131986074D01*
X94931190Y-131986075D01*
X94931188Y-131986076D01*
X94770774Y-132034737D01*
X94770773Y-132034737D01*
X94770770Y-132034738D01*
X94645753Y-132047051D01*
X94562145Y-132047051D01*
X94437128Y-132034738D01*
X94437125Y-132034737D01*
X94437124Y-132034737D01*
X94276710Y-131986076D01*
X94276708Y-131986075D01*
X94276705Y-131986074D01*
X94128871Y-131907056D01*
X93999290Y-131800710D01*
X93892944Y-131671129D01*
X93813926Y-131523295D01*
X93811087Y-131513936D01*
X93765263Y-131362876D01*
X93765263Y-131362875D01*
X93765262Y-131362872D01*
X93748832Y-131196051D01*
X93765262Y-131029230D01*
X93766682Y-131024549D01*
X93813924Y-130868812D01*
X93813925Y-130868810D01*
X93813926Y-130868807D01*
X93892944Y-130720973D01*
X93999290Y-130591392D01*
X94128871Y-130485046D01*
X94276705Y-130406028D01*
X94276708Y-130406027D01*
X94276710Y-130406026D01*
X94437124Y-130357365D01*
X94437125Y-130357365D01*
X94437128Y-130357364D01*
X94562145Y-130345051D01*
X94645753Y-130345051D01*
X94770770Y-130357364D01*
X94770770Y-130357364D01*
G37*
G36*
X131581606Y-129896990D02*
X131581609Y-129896991D01*
X131581610Y-129896991D01*
X131742024Y-129945652D01*
X131742026Y-129945653D01*
X131742029Y-129945654D01*
X131889863Y-130024672D01*
X132019444Y-130131018D01*
X132125790Y-130260599D01*
X132204808Y-130408433D01*
X132204809Y-130408436D01*
X132204810Y-130408438D01*
X132228049Y-130485047D01*
X132253472Y-130568856D01*
X132269902Y-130735677D01*
X132253472Y-130902498D01*
X132253471Y-130902501D01*
X132253471Y-130902502D01*
X132215029Y-131029230D01*
X132204808Y-131062921D01*
X132125790Y-131210755D01*
X132019444Y-131340336D01*
X131889863Y-131446682D01*
X131742029Y-131525700D01*
X131742026Y-131525701D01*
X131742024Y-131525702D01*
X131581610Y-131574363D01*
X131581609Y-131574363D01*
X131581606Y-131574364D01*
X131456589Y-131586677D01*
X131372981Y-131586677D01*
X131247964Y-131574364D01*
X131247961Y-131574363D01*
X131247960Y-131574363D01*
X131087546Y-131525702D01*
X131087544Y-131525701D01*
X131087541Y-131525700D01*
X130939707Y-131446682D01*
X130810126Y-131340336D01*
X130703780Y-131210755D01*
X130624762Y-131062921D01*
X130614542Y-131029230D01*
X130576099Y-130902502D01*
X130576099Y-130902501D01*
X130576098Y-130902498D01*
X130559668Y-130735677D01*
X130576098Y-130568856D01*
X130601521Y-130485047D01*
X130624760Y-130408438D01*
X130624761Y-130408436D01*
X130624762Y-130408433D01*
X130703780Y-130260599D01*
X130810126Y-130131018D01*
X130939707Y-130024672D01*
X131087541Y-129945654D01*
X131087544Y-129945653D01*
X131087546Y-129945652D01*
X131247960Y-129896991D01*
X131247961Y-129896991D01*
X131247964Y-129896990D01*
X131372981Y-129884677D01*
X131456589Y-129884677D01*
X131581606Y-129896990D01*
X131581606Y-129896990D01*
G37*
G36*
X97603496Y-129400000D02*
X96400000Y-130603496D01*
X95196504Y-129400000D01*
X96400000Y-128196504D01*
X97603496Y-129400000D01*
X97603496Y-129400000D01*
G37*
G36*
X163156565Y-128439389D02*
X163347834Y-128518615D01*
X163519976Y-128633637D01*
X163666363Y-128780024D01*
X163781385Y-128952166D01*
X163860611Y-129143435D01*
X163901000Y-129346484D01*
X163901000Y-129553516D01*
X163860611Y-129756565D01*
X163781385Y-129947834D01*
X163666363Y-130119976D01*
X163519976Y-130266363D01*
X163347834Y-130381385D01*
X163156565Y-130460611D01*
X162953516Y-130501000D01*
X162746484Y-130501000D01*
X162543435Y-130460611D01*
X162352166Y-130381385D01*
X162180024Y-130266363D01*
X162033637Y-130119976D01*
X161918615Y-129947834D01*
X161839389Y-129756565D01*
X161799000Y-129553516D01*
X161799000Y-129346484D01*
X161839389Y-129143435D01*
X161918615Y-128952166D01*
X162033637Y-128780024D01*
X162180024Y-128633637D01*
X162352166Y-128518615D01*
X162543435Y-128439389D01*
X162746484Y-128399000D01*
X162953516Y-128399000D01*
X163156565Y-128439389D01*
X163156565Y-128439389D01*
G37*
G36*
X103648228Y-128581703D02*
X103803100Y-128645853D01*
X103942481Y-128738985D01*
X104061015Y-128857519D01*
X104154147Y-128996900D01*
X104218297Y-129151772D01*
X104251000Y-129316184D01*
X104251000Y-129483816D01*
X104218297Y-129648228D01*
X104154147Y-129803100D01*
X104061015Y-129942481D01*
X103942481Y-130061015D01*
X103803100Y-130154147D01*
X103648228Y-130218297D01*
X103483816Y-130251000D01*
X103316184Y-130251000D01*
X103151772Y-130218297D01*
X102996900Y-130154147D01*
X102857519Y-130061015D01*
X102738985Y-129942481D01*
X102645853Y-129803100D01*
X102581703Y-129648228D01*
X102549000Y-129483816D01*
X102549000Y-129316184D01*
X102581703Y-129151772D01*
X102645853Y-128996900D01*
X102738985Y-128857519D01*
X102857519Y-128738985D01*
X102996900Y-128645853D01*
X103151772Y-128581703D01*
X103316184Y-128549000D01*
X103483816Y-128549000D01*
X103648228Y-128581703D01*
X103648228Y-128581703D01*
G37*
G36*
X112637142Y-128318242D02*
X112785102Y-128379530D01*
X112825100Y-128406256D01*
X112916825Y-128467544D01*
X112918258Y-128468502D01*
X113031498Y-128581742D01*
X113120470Y-128714898D01*
X113181758Y-128862858D01*
X113213000Y-129019925D01*
X113213000Y-129180075D01*
X113181758Y-129337142D01*
X113155721Y-129400000D01*
X113120471Y-129485100D01*
X113031499Y-129618257D01*
X112918257Y-129731499D01*
X112916823Y-129732457D01*
X112785102Y-129820470D01*
X112637142Y-129881758D01*
X112480075Y-129913000D01*
X112319925Y-129913000D01*
X112162858Y-129881758D01*
X112014898Y-129820470D01*
X111883177Y-129732457D01*
X111881743Y-129731499D01*
X111768501Y-129618257D01*
X111679529Y-129485100D01*
X111644279Y-129400000D01*
X111618242Y-129337142D01*
X111587000Y-129180075D01*
X111587000Y-129019925D01*
X111618242Y-128862858D01*
X111679530Y-128714898D01*
X111768502Y-128581742D01*
X111881742Y-128468502D01*
X111883176Y-128467544D01*
X111974900Y-128406256D01*
X112014898Y-128379530D01*
X112162858Y-128318242D01*
X112319925Y-128287000D01*
X112480075Y-128287000D01*
X112637142Y-128318242D01*
X112637142Y-128318242D01*
G37*
G36*
X144706565Y-127289389D02*
X144897834Y-127368615D01*
X145069976Y-127483637D01*
X145216363Y-127630024D01*
X145331385Y-127802166D01*
X145410611Y-127993435D01*
X145451000Y-128196484D01*
X145451000Y-128403516D01*
X145410611Y-128606565D01*
X145331385Y-128797834D01*
X145216363Y-128969976D01*
X145069976Y-129116363D01*
X144897834Y-129231385D01*
X144706565Y-129310611D01*
X144503516Y-129351000D01*
X144296484Y-129351000D01*
X144093435Y-129310611D01*
X143902166Y-129231385D01*
X143730024Y-129116363D01*
X143583637Y-128969976D01*
X143468615Y-128797834D01*
X143389389Y-128606565D01*
X143349000Y-128403516D01*
X143349000Y-128196484D01*
X143389389Y-127993435D01*
X143468615Y-127802166D01*
X143583637Y-127630024D01*
X143730024Y-127483637D01*
X143902166Y-127368615D01*
X144093435Y-127289389D01*
X144296484Y-127249000D01*
X144503516Y-127249000D01*
X144706565Y-127289389D01*
X144706565Y-127289389D01*
G37*
G36*
X192948228Y-127481703D02*
X193103100Y-127545853D01*
X193242481Y-127638985D01*
X193361015Y-127757519D01*
X193454147Y-127896900D01*
X193518297Y-128051772D01*
X193551000Y-128216184D01*
X193551000Y-128383816D01*
X193518297Y-128548228D01*
X193454147Y-128703100D01*
X193361015Y-128842481D01*
X193242481Y-128961015D01*
X193103100Y-129054147D01*
X192948228Y-129118297D01*
X192783816Y-129151000D01*
X192616184Y-129151000D01*
X192451772Y-129118297D01*
X192296900Y-129054147D01*
X192157519Y-128961015D01*
X192038985Y-128842481D01*
X191945853Y-128703100D01*
X191881703Y-128548228D01*
X191849000Y-128383816D01*
X191849000Y-128216184D01*
X191881703Y-128051772D01*
X191945853Y-127896900D01*
X192038985Y-127757519D01*
X192157519Y-127638985D01*
X192296900Y-127545853D01*
X192451772Y-127481703D01*
X192616184Y-127449000D01*
X192783816Y-127449000D01*
X192948228Y-127481703D01*
X192948228Y-127481703D01*
G37*
G36*
X82448228Y-126881703D02*
X82603100Y-126945853D01*
X82742481Y-127038985D01*
X82861015Y-127157519D01*
X82954147Y-127296900D01*
X83018297Y-127451772D01*
X83051000Y-127616184D01*
X83051000Y-127783816D01*
X83018297Y-127948228D01*
X82954147Y-128103100D01*
X82861015Y-128242481D01*
X82742481Y-128361015D01*
X82603100Y-128454147D01*
X82448228Y-128518297D01*
X82283816Y-128551000D01*
X82116184Y-128551000D01*
X81951772Y-128518297D01*
X81796900Y-128454147D01*
X81657519Y-128361015D01*
X81538985Y-128242481D01*
X81445853Y-128103100D01*
X81381703Y-127948228D01*
X81349000Y-127783816D01*
X81349000Y-127616184D01*
X81381703Y-127451772D01*
X81445853Y-127296900D01*
X81538985Y-127157519D01*
X81657519Y-127038985D01*
X81796900Y-126945853D01*
X81951772Y-126881703D01*
X82116184Y-126849000D01*
X82283816Y-126849000D01*
X82448228Y-126881703D01*
X82448228Y-126881703D01*
G37*
G36*
X115605703Y-125190251D02*
X115796972Y-125269477D01*
X115969114Y-125384499D01*
X116115501Y-125530886D01*
X116230523Y-125703028D01*
X116309749Y-125894297D01*
X116350138Y-126097346D01*
X116350138Y-126304378D01*
X116309749Y-126507427D01*
X116230523Y-126698696D01*
X116115501Y-126870838D01*
X115969114Y-127017225D01*
X115796972Y-127132247D01*
X115605703Y-127211473D01*
X115402654Y-127251862D01*
X115195622Y-127251862D01*
X114992573Y-127211473D01*
X114801302Y-127132246D01*
X114638827Y-127023683D01*
X114617216Y-127012131D01*
X114593767Y-127005018D01*
X114569380Y-127002616D01*
X114544994Y-127005018D01*
X114521545Y-127012131D01*
X114499934Y-127023682D01*
X114480992Y-127039227D01*
X114465447Y-127058169D01*
X114453895Y-127079780D01*
X114446782Y-127103229D01*
X114444380Y-127127616D01*
X114446782Y-127152002D01*
X114453895Y-127175451D01*
X114465445Y-127197061D01*
X114475075Y-127211473D01*
X114534685Y-127300685D01*
X114595972Y-127448644D01*
X114627214Y-127605711D01*
X114627214Y-127765861D01*
X114595972Y-127922928D01*
X114534684Y-128070888D01*
X114489897Y-128137916D01*
X114445713Y-128204043D01*
X114332471Y-128317285D01*
X114331037Y-128318243D01*
X114199316Y-128406256D01*
X114051356Y-128467544D01*
X113894289Y-128498786D01*
X113734139Y-128498786D01*
X113577072Y-128467544D01*
X113429112Y-128406256D01*
X113297391Y-128318243D01*
X113295957Y-128317285D01*
X113182715Y-128204043D01*
X113138531Y-128137916D01*
X113093744Y-128070888D01*
X113032456Y-127922928D01*
X113001214Y-127765861D01*
X113001214Y-127605711D01*
X113032456Y-127448644D01*
X113093744Y-127300684D01*
X113153353Y-127211473D01*
X113182715Y-127167529D01*
X113295957Y-127054287D01*
X113420279Y-126971218D01*
X113429112Y-126965316D01*
X113577072Y-126904028D01*
X113734139Y-126872786D01*
X113894289Y-126872786D01*
X114051356Y-126904028D01*
X114199315Y-126965315D01*
X114258734Y-127005018D01*
X114286669Y-127023683D01*
X114302938Y-127034554D01*
X114324548Y-127046105D01*
X114347998Y-127053218D01*
X114372384Y-127055620D01*
X114396770Y-127053218D01*
X114420219Y-127046105D01*
X114441830Y-127034554D01*
X114460772Y-127019008D01*
X114476318Y-127000066D01*
X114487869Y-126978456D01*
X114494982Y-126955006D01*
X114497384Y-126930620D01*
X114494982Y-126906234D01*
X114487869Y-126882785D01*
X114476317Y-126861173D01*
X114367754Y-126698698D01*
X114288527Y-126507427D01*
X114248138Y-126304378D01*
X114248138Y-126097346D01*
X114288527Y-125894297D01*
X114367753Y-125703028D01*
X114482775Y-125530886D01*
X114629162Y-125384499D01*
X114801304Y-125269477D01*
X114992573Y-125190251D01*
X115195622Y-125149862D01*
X115402654Y-125149862D01*
X115605703Y-125190251D01*
X115605703Y-125190251D01*
G37*
G36*
X101880461Y-126813936D02*
X102035333Y-126878086D01*
X102174714Y-126971218D01*
X102293248Y-127089752D01*
X102386380Y-127229133D01*
X102450530Y-127384005D01*
X102483233Y-127548417D01*
X102483233Y-127716049D01*
X102450530Y-127880461D01*
X102386380Y-128035333D01*
X102293248Y-128174714D01*
X102174714Y-128293248D01*
X102035333Y-128386380D01*
X101880461Y-128450530D01*
X101716049Y-128483233D01*
X101548417Y-128483233D01*
X101384005Y-128450530D01*
X101229133Y-128386380D01*
X101089752Y-128293248D01*
X100971218Y-128174714D01*
X100878086Y-128035333D01*
X100813936Y-127880461D01*
X100781233Y-127716049D01*
X100781233Y-127548417D01*
X100813936Y-127384005D01*
X100878086Y-127229133D01*
X100971218Y-127089752D01*
X101089752Y-126971218D01*
X101229133Y-126878086D01*
X101384005Y-126813936D01*
X101548417Y-126781233D01*
X101716049Y-126781233D01*
X101880461Y-126813936D01*
X101880461Y-126813936D01*
G37*
G36*
X120548228Y-125381703D02*
X120703100Y-125445853D01*
X120842481Y-125538985D01*
X120961015Y-125657519D01*
X121054147Y-125796900D01*
X121118297Y-125951772D01*
X121151000Y-126116184D01*
X121151000Y-126283816D01*
X121118297Y-126448228D01*
X121054147Y-126603100D01*
X120961015Y-126742481D01*
X120842481Y-126861015D01*
X120703100Y-126954147D01*
X120548228Y-127018297D01*
X120383816Y-127051000D01*
X120216184Y-127051000D01*
X120051772Y-127018297D01*
X119896900Y-126954147D01*
X119757519Y-126861015D01*
X119638985Y-126742481D01*
X119545853Y-126603100D01*
X119481703Y-126448228D01*
X119449000Y-126283816D01*
X119449000Y-126116184D01*
X119481703Y-125951772D01*
X119545853Y-125796900D01*
X119638985Y-125657519D01*
X119757519Y-125538985D01*
X119896900Y-125445853D01*
X120051772Y-125381703D01*
X120216184Y-125349000D01*
X120383816Y-125349000D01*
X120548228Y-125381703D01*
X120548228Y-125381703D01*
G37*
G36*
X138847218Y-122733175D02*
X139002090Y-122797325D01*
X139141471Y-122890457D01*
X139260005Y-123008991D01*
X139353137Y-123148372D01*
X139417287Y-123303244D01*
X139449990Y-123467656D01*
X139449990Y-123635288D01*
X139417287Y-123799700D01*
X139353137Y-123954572D01*
X139260005Y-124093953D01*
X139141471Y-124212487D01*
X139002090Y-124305619D01*
X138847218Y-124369769D01*
X138682806Y-124402472D01*
X138515174Y-124402472D01*
X138350762Y-124369769D01*
X138195890Y-124305619D01*
X138056509Y-124212487D01*
X137937975Y-124093953D01*
X137844843Y-123954572D01*
X137780693Y-123799700D01*
X137747990Y-123635288D01*
X137747990Y-123467656D01*
X137780693Y-123303244D01*
X137844843Y-123148372D01*
X137937975Y-123008991D01*
X138056509Y-122890457D01*
X138195890Y-122797325D01*
X138350762Y-122733175D01*
X138515174Y-122700472D01*
X138682806Y-122700472D01*
X138847218Y-122733175D01*
X138847218Y-122733175D01*
G37*
G36*
X144521660Y-122613790D02*
X144521663Y-122613791D01*
X144521664Y-122613791D01*
X144682078Y-122662452D01*
X144682080Y-122662453D01*
X144682083Y-122662454D01*
X144829917Y-122741472D01*
X144959498Y-122847818D01*
X145065844Y-122977399D01*
X145144862Y-123125233D01*
X145144863Y-123125236D01*
X145144864Y-123125238D01*
X145193525Y-123285652D01*
X145193526Y-123285656D01*
X145209956Y-123452477D01*
X145193526Y-123619298D01*
X145193525Y-123619301D01*
X145193525Y-123619302D01*
X145188676Y-123635288D01*
X145144862Y-123779721D01*
X145065844Y-123927555D01*
X144959498Y-124057136D01*
X144829917Y-124163482D01*
X144682083Y-124242500D01*
X144682080Y-124242501D01*
X144682078Y-124242502D01*
X144521664Y-124291163D01*
X144521663Y-124291163D01*
X144521660Y-124291164D01*
X144396643Y-124303477D01*
X144313035Y-124303477D01*
X144188018Y-124291164D01*
X144188015Y-124291163D01*
X144188014Y-124291163D01*
X144027600Y-124242502D01*
X144027598Y-124242501D01*
X144027595Y-124242500D01*
X143879761Y-124163482D01*
X143750180Y-124057136D01*
X143643834Y-123927555D01*
X143564816Y-123779721D01*
X143521003Y-123635288D01*
X143516153Y-123619302D01*
X143516153Y-123619301D01*
X143516152Y-123619298D01*
X143499722Y-123452477D01*
X143516152Y-123285656D01*
X143516153Y-123285652D01*
X143564814Y-123125238D01*
X143564815Y-123125236D01*
X143564816Y-123125233D01*
X143643834Y-122977399D01*
X143750180Y-122847818D01*
X143879761Y-122741472D01*
X144027595Y-122662454D01*
X144027598Y-122662453D01*
X144027600Y-122662452D01*
X144188014Y-122613791D01*
X144188015Y-122613791D01*
X144188018Y-122613790D01*
X144313035Y-122601477D01*
X144396643Y-122601477D01*
X144521660Y-122613790D01*
X144521660Y-122613790D01*
G37*
G36*
X117006565Y-120589389D02*
X117197834Y-120668615D01*
X117369976Y-120783637D01*
X117516363Y-120930024D01*
X117631385Y-121102166D01*
X117710611Y-121293435D01*
X117751000Y-121496484D01*
X117751000Y-121703516D01*
X117710611Y-121906565D01*
X117631385Y-122097834D01*
X117516363Y-122269976D01*
X117369976Y-122416363D01*
X117197834Y-122531385D01*
X117006565Y-122610611D01*
X116803516Y-122651000D01*
X116596484Y-122651000D01*
X116393435Y-122610611D01*
X116202166Y-122531385D01*
X116030024Y-122416363D01*
X115883637Y-122269976D01*
X115768615Y-122097834D01*
X115689389Y-121906565D01*
X115649000Y-121703516D01*
X115649000Y-121496484D01*
X115689389Y-121293435D01*
X115768615Y-121102166D01*
X115883637Y-120930024D01*
X116030024Y-120783637D01*
X116202166Y-120668615D01*
X116393435Y-120589389D01*
X116596484Y-120549000D01*
X116803516Y-120549000D01*
X117006565Y-120589389D01*
X117006565Y-120589389D01*
G37*
G36*
X141817066Y-119763326D02*
X141971938Y-119827476D01*
X142111319Y-119920608D01*
X142229853Y-120039142D01*
X142322985Y-120178523D01*
X142387135Y-120333395D01*
X142419838Y-120497807D01*
X142419838Y-120665439D01*
X142387135Y-120829851D01*
X142322985Y-120984723D01*
X142229853Y-121124104D01*
X142111319Y-121242638D01*
X141971938Y-121335770D01*
X141817066Y-121399920D01*
X141652654Y-121432623D01*
X141485022Y-121432623D01*
X141320610Y-121399920D01*
X141165738Y-121335770D01*
X141026357Y-121242638D01*
X140907823Y-121124104D01*
X140814691Y-120984723D01*
X140750541Y-120829851D01*
X140717838Y-120665439D01*
X140717838Y-120497807D01*
X140750541Y-120333395D01*
X140814691Y-120178523D01*
X140907823Y-120039142D01*
X141026357Y-119920608D01*
X141165738Y-119827476D01*
X141320610Y-119763326D01*
X141485022Y-119730623D01*
X141652654Y-119730623D01*
X141817066Y-119763326D01*
X141817066Y-119763326D01*
G37*
G36*
X89551026Y-119677108D02*
X89551029Y-119677109D01*
X89551030Y-119677109D01*
X89711444Y-119725770D01*
X89711446Y-119725771D01*
X89711449Y-119725772D01*
X89859283Y-119804790D01*
X89988864Y-119911136D01*
X90095210Y-120040717D01*
X90174228Y-120188551D01*
X90222892Y-120348974D01*
X90239322Y-120515795D01*
X90222892Y-120682616D01*
X90222891Y-120682619D01*
X90222891Y-120682620D01*
X90192248Y-120783637D01*
X90174228Y-120843039D01*
X90095210Y-120990873D01*
X89988864Y-121120454D01*
X89859283Y-121226800D01*
X89711449Y-121305818D01*
X89711446Y-121305819D01*
X89711444Y-121305820D01*
X89551030Y-121354481D01*
X89551029Y-121354481D01*
X89551026Y-121354482D01*
X89426009Y-121366795D01*
X89342401Y-121366795D01*
X89217384Y-121354482D01*
X89217381Y-121354481D01*
X89217380Y-121354481D01*
X89056966Y-121305820D01*
X89056964Y-121305819D01*
X89056961Y-121305818D01*
X88909127Y-121226800D01*
X88779546Y-121120454D01*
X88673200Y-120990873D01*
X88594182Y-120843039D01*
X88576163Y-120783637D01*
X88545519Y-120682620D01*
X88545519Y-120682619D01*
X88545518Y-120682616D01*
X88529088Y-120515795D01*
X88545518Y-120348974D01*
X88594182Y-120188551D01*
X88673200Y-120040717D01*
X88779546Y-119911136D01*
X88909127Y-119804790D01*
X89056961Y-119725772D01*
X89056964Y-119725771D01*
X89056966Y-119725770D01*
X89217380Y-119677109D01*
X89217381Y-119677109D01*
X89217384Y-119677108D01*
X89342401Y-119664795D01*
X89426009Y-119664795D01*
X89551026Y-119677108D01*
X89551026Y-119677108D01*
G37*
G36*
X127651026Y-118177108D02*
X127651029Y-118177109D01*
X127651030Y-118177109D01*
X127811444Y-118225770D01*
X127811446Y-118225771D01*
X127811449Y-118225772D01*
X127959283Y-118304790D01*
X128088864Y-118411136D01*
X128195210Y-118540717D01*
X128274228Y-118688551D01*
X128274229Y-118688554D01*
X128274230Y-118688556D01*
X128322891Y-118848970D01*
X128322892Y-118848974D01*
X128339322Y-119015795D01*
X128322892Y-119182616D01*
X128322891Y-119182619D01*
X128322891Y-119182620D01*
X128320137Y-119191700D01*
X128274228Y-119343039D01*
X128195210Y-119490873D01*
X128088864Y-119620454D01*
X127959283Y-119726800D01*
X127811449Y-119805818D01*
X127811446Y-119805819D01*
X127811444Y-119805820D01*
X127651030Y-119854481D01*
X127651029Y-119854481D01*
X127651026Y-119854482D01*
X127526009Y-119866795D01*
X127442401Y-119866795D01*
X127317384Y-119854482D01*
X127317381Y-119854481D01*
X127317380Y-119854481D01*
X127156966Y-119805820D01*
X127156964Y-119805819D01*
X127156961Y-119805818D01*
X127009127Y-119726800D01*
X126879546Y-119620454D01*
X126773200Y-119490873D01*
X126694182Y-119343039D01*
X126648274Y-119191700D01*
X126645519Y-119182620D01*
X126645519Y-119182619D01*
X126645518Y-119182616D01*
X126629088Y-119015795D01*
X126645518Y-118848974D01*
X126645519Y-118848970D01*
X126694180Y-118688556D01*
X126694181Y-118688554D01*
X126694182Y-118688551D01*
X126773200Y-118540717D01*
X126879546Y-118411136D01*
X127009127Y-118304790D01*
X127156961Y-118225772D01*
X127156964Y-118225771D01*
X127156966Y-118225770D01*
X127317380Y-118177109D01*
X127317381Y-118177109D01*
X127317384Y-118177108D01*
X127442401Y-118164795D01*
X127526009Y-118164795D01*
X127651026Y-118177108D01*
X127651026Y-118177108D01*
G37*
G36*
X112278667Y-118025774D02*
X112278670Y-118025775D01*
X112278671Y-118025775D01*
X112439085Y-118074436D01*
X112439087Y-118074437D01*
X112439090Y-118074438D01*
X112586924Y-118153456D01*
X112716505Y-118259802D01*
X112822851Y-118389383D01*
X112901869Y-118537217D01*
X112901870Y-118537220D01*
X112901871Y-118537222D01*
X112950532Y-118697636D01*
X112950533Y-118697640D01*
X112966963Y-118864461D01*
X112950533Y-119031282D01*
X112950532Y-119031285D01*
X112950532Y-119031286D01*
X112904627Y-119182616D01*
X112901869Y-119191705D01*
X112822851Y-119339539D01*
X112716505Y-119469120D01*
X112586924Y-119575466D01*
X112439090Y-119654484D01*
X112439087Y-119654485D01*
X112439085Y-119654486D01*
X112278671Y-119703147D01*
X112278670Y-119703147D01*
X112278667Y-119703148D01*
X112153650Y-119715461D01*
X112070042Y-119715461D01*
X111945025Y-119703148D01*
X111945022Y-119703147D01*
X111945021Y-119703147D01*
X111784607Y-119654486D01*
X111784605Y-119654485D01*
X111784602Y-119654484D01*
X111636768Y-119575466D01*
X111507187Y-119469120D01*
X111400841Y-119339539D01*
X111321823Y-119191705D01*
X111319066Y-119182616D01*
X111273160Y-119031286D01*
X111273160Y-119031285D01*
X111273159Y-119031282D01*
X111256729Y-118864461D01*
X111273159Y-118697640D01*
X111273160Y-118697636D01*
X111321821Y-118537222D01*
X111321822Y-118537220D01*
X111321823Y-118537217D01*
X111400841Y-118389383D01*
X111507187Y-118259802D01*
X111636768Y-118153456D01*
X111784602Y-118074438D01*
X111784605Y-118074437D01*
X111784607Y-118074436D01*
X111945021Y-118025775D01*
X111945022Y-118025775D01*
X111945025Y-118025774D01*
X112070042Y-118013461D01*
X112153650Y-118013461D01*
X112278667Y-118025774D01*
X112278667Y-118025774D01*
G37*
G36*
X192866821Y-117301313D02*
X192866824Y-117301314D01*
X192866825Y-117301314D01*
X193027239Y-117349975D01*
X193027241Y-117349976D01*
X193027244Y-117349977D01*
X193175078Y-117428995D01*
X193304659Y-117535341D01*
X193411005Y-117664922D01*
X193490023Y-117812756D01*
X193490024Y-117812759D01*
X193490025Y-117812761D01*
X193526009Y-117931384D01*
X193538687Y-117973179D01*
X193555117Y-118140000D01*
X193538687Y-118306821D01*
X193538686Y-118306824D01*
X193538686Y-118306825D01*
X193507044Y-118411136D01*
X193490023Y-118467244D01*
X193411005Y-118615078D01*
X193304659Y-118744659D01*
X193175078Y-118851005D01*
X193027244Y-118930023D01*
X193027241Y-118930024D01*
X193027239Y-118930025D01*
X192866825Y-118978686D01*
X192866824Y-118978686D01*
X192866821Y-118978687D01*
X192741804Y-118991000D01*
X192658196Y-118991000D01*
X192533179Y-118978687D01*
X192533176Y-118978686D01*
X192533175Y-118978686D01*
X192372761Y-118930025D01*
X192372759Y-118930024D01*
X192372756Y-118930023D01*
X192224922Y-118851005D01*
X192095341Y-118744659D01*
X191988995Y-118615078D01*
X191909977Y-118467244D01*
X191892957Y-118411136D01*
X191861314Y-118306825D01*
X191861314Y-118306824D01*
X191861313Y-118306821D01*
X191844883Y-118140000D01*
X191861313Y-117973179D01*
X191873991Y-117931384D01*
X191909975Y-117812761D01*
X191909976Y-117812759D01*
X191909977Y-117812756D01*
X191988995Y-117664922D01*
X192095341Y-117535341D01*
X192224922Y-117428995D01*
X192372756Y-117349977D01*
X192372759Y-117349976D01*
X192372761Y-117349975D01*
X192533175Y-117301314D01*
X192533176Y-117301314D01*
X192533179Y-117301313D01*
X192658196Y-117289000D01*
X192741804Y-117289000D01*
X192866821Y-117301313D01*
X192866821Y-117301313D01*
G37*
G36*
X139059350Y-117005610D02*
X139214222Y-117069760D01*
X139353603Y-117162892D01*
X139472137Y-117281426D01*
X139565269Y-117420807D01*
X139629419Y-117575679D01*
X139662122Y-117740091D01*
X139662122Y-117907723D01*
X139629419Y-118072135D01*
X139565269Y-118227007D01*
X139472137Y-118366388D01*
X139353603Y-118484922D01*
X139214222Y-118578054D01*
X139059350Y-118642204D01*
X138894938Y-118674907D01*
X138727306Y-118674907D01*
X138562894Y-118642204D01*
X138408022Y-118578054D01*
X138268641Y-118484922D01*
X138150107Y-118366388D01*
X138056975Y-118227007D01*
X137992825Y-118072135D01*
X137960122Y-117907723D01*
X137960122Y-117740091D01*
X137992825Y-117575679D01*
X138056975Y-117420807D01*
X138150107Y-117281426D01*
X138268641Y-117162892D01*
X138408022Y-117069760D01*
X138562894Y-117005610D01*
X138727306Y-116972907D01*
X138894938Y-116972907D01*
X139059350Y-117005610D01*
X139059350Y-117005610D01*
G37*
G36*
X97406565Y-116089389D02*
X97597834Y-116168615D01*
X97769976Y-116283637D01*
X97916363Y-116430024D01*
X98031385Y-116602166D01*
X98110611Y-116793435D01*
X98151000Y-116996484D01*
X98151000Y-117203516D01*
X98110611Y-117406565D01*
X98031385Y-117597834D01*
X97916363Y-117769976D01*
X97769976Y-117916363D01*
X97597834Y-118031385D01*
X97406565Y-118110611D01*
X97203516Y-118151000D01*
X96996484Y-118151000D01*
X96793435Y-118110611D01*
X96602166Y-118031385D01*
X96430024Y-117916363D01*
X96283637Y-117769976D01*
X96168615Y-117597834D01*
X96089389Y-117406565D01*
X96049000Y-117203516D01*
X96049000Y-116996484D01*
X96089389Y-116793435D01*
X96168615Y-116602166D01*
X96283637Y-116430024D01*
X96430024Y-116283637D01*
X96602166Y-116168615D01*
X96793435Y-116089389D01*
X96996484Y-116049000D01*
X97203516Y-116049000D01*
X97406565Y-116089389D01*
X97406565Y-116089389D01*
G37*
G36*
X103306565Y-115989389D02*
X103497834Y-116068615D01*
X103669976Y-116183637D01*
X103816363Y-116330024D01*
X103931385Y-116502166D01*
X104010611Y-116693435D01*
X104051000Y-116896484D01*
X104051000Y-117103516D01*
X104010611Y-117306565D01*
X103931385Y-117497834D01*
X103816363Y-117669976D01*
X103669976Y-117816363D01*
X103497834Y-117931385D01*
X103306565Y-118010611D01*
X103103516Y-118051000D01*
X102896484Y-118051000D01*
X102693435Y-118010611D01*
X102502166Y-117931385D01*
X102330024Y-117816363D01*
X102183637Y-117669976D01*
X102068615Y-117497834D01*
X101989389Y-117306565D01*
X101949000Y-117103516D01*
X101949000Y-116896484D01*
X101989389Y-116693435D01*
X102068615Y-116502166D01*
X102183637Y-116330024D01*
X102330024Y-116183637D01*
X102502166Y-116068615D01*
X102693435Y-115989389D01*
X102896484Y-115949000D01*
X103103516Y-115949000D01*
X103306565Y-115989389D01*
X103306565Y-115989389D01*
G37*
G36*
X114074719Y-116229723D02*
X114074722Y-116229724D01*
X114074723Y-116229724D01*
X114235137Y-116278385D01*
X114235139Y-116278386D01*
X114235142Y-116278387D01*
X114382976Y-116357405D01*
X114512557Y-116463751D01*
X114618903Y-116593332D01*
X114697921Y-116741166D01*
X114697922Y-116741169D01*
X114697923Y-116741171D01*
X114745037Y-116896486D01*
X114746585Y-116901589D01*
X114763015Y-117068410D01*
X114746585Y-117235231D01*
X114746584Y-117235234D01*
X114746584Y-117235235D01*
X114730275Y-117289000D01*
X114697921Y-117395654D01*
X114618903Y-117543488D01*
X114512557Y-117673069D01*
X114382976Y-117779415D01*
X114235142Y-117858433D01*
X114235139Y-117858434D01*
X114235137Y-117858435D01*
X114074723Y-117907096D01*
X114074722Y-117907096D01*
X114074719Y-117907097D01*
X113949702Y-117919410D01*
X113866094Y-117919410D01*
X113741077Y-117907097D01*
X113741074Y-117907096D01*
X113741073Y-117907096D01*
X113580659Y-117858435D01*
X113580657Y-117858434D01*
X113580654Y-117858433D01*
X113432820Y-117779415D01*
X113303239Y-117673069D01*
X113196893Y-117543488D01*
X113117875Y-117395654D01*
X113085522Y-117289000D01*
X113069212Y-117235235D01*
X113069212Y-117235234D01*
X113069211Y-117235231D01*
X113052781Y-117068410D01*
X113069211Y-116901589D01*
X113070759Y-116896486D01*
X113117873Y-116741171D01*
X113117874Y-116741169D01*
X113117875Y-116741166D01*
X113196893Y-116593332D01*
X113303239Y-116463751D01*
X113432820Y-116357405D01*
X113580654Y-116278387D01*
X113580657Y-116278386D01*
X113580659Y-116278385D01*
X113741073Y-116229724D01*
X113741074Y-116229724D01*
X113741077Y-116229723D01*
X113866094Y-116217410D01*
X113949702Y-116217410D01*
X114074719Y-116229723D01*
X114074719Y-116229723D01*
G37*
G36*
X151787272Y-115449975D02*
X151942144Y-115514125D01*
X152081525Y-115607257D01*
X152200059Y-115725791D01*
X152293191Y-115865172D01*
X152357341Y-116020044D01*
X152390044Y-116184456D01*
X152390044Y-116352088D01*
X152357341Y-116516500D01*
X152293191Y-116671372D01*
X152200059Y-116810753D01*
X152081525Y-116929287D01*
X151942144Y-117022419D01*
X151787272Y-117086569D01*
X151622860Y-117119272D01*
X151455228Y-117119272D01*
X151290816Y-117086569D01*
X151135944Y-117022419D01*
X150996563Y-116929287D01*
X150878029Y-116810753D01*
X150784897Y-116671372D01*
X150720747Y-116516500D01*
X150688044Y-116352088D01*
X150688044Y-116184456D01*
X150720747Y-116020044D01*
X150784897Y-115865172D01*
X150878029Y-115725791D01*
X150996563Y-115607257D01*
X151135944Y-115514125D01*
X151290816Y-115449975D01*
X151455228Y-115417272D01*
X151622860Y-115417272D01*
X151787272Y-115449975D01*
X151787272Y-115449975D01*
G37*
G36*
X162296514Y-114883711D02*
X162487783Y-114962937D01*
X162659925Y-115077959D01*
X162806312Y-115224346D01*
X162921334Y-115396488D01*
X163000560Y-115587757D01*
X163040949Y-115790806D01*
X163040949Y-115997838D01*
X163000560Y-116200887D01*
X162921334Y-116392156D01*
X162806312Y-116564298D01*
X162659925Y-116710685D01*
X162487783Y-116825707D01*
X162296514Y-116904933D01*
X162093465Y-116945322D01*
X161886433Y-116945322D01*
X161683384Y-116904933D01*
X161492115Y-116825707D01*
X161319973Y-116710685D01*
X161173586Y-116564298D01*
X161058564Y-116392156D01*
X160979338Y-116200887D01*
X160938949Y-115997838D01*
X160938949Y-115790806D01*
X160979338Y-115587757D01*
X161058564Y-115396488D01*
X161173586Y-115224346D01*
X161319973Y-115077959D01*
X161492115Y-114962937D01*
X161683384Y-114883711D01*
X161886433Y-114843322D01*
X162093465Y-114843322D01*
X162296514Y-114883711D01*
X162296514Y-114883711D01*
G37*
G36*
X199006565Y-114289389D02*
X199197834Y-114368615D01*
X199369976Y-114483637D01*
X199516363Y-114630024D01*
X199631385Y-114802166D01*
X199710611Y-114993435D01*
X199751000Y-115196484D01*
X199751000Y-115403516D01*
X199710611Y-115606565D01*
X199631385Y-115797834D01*
X199516363Y-115969976D01*
X199369976Y-116116363D01*
X199197834Y-116231385D01*
X199006565Y-116310611D01*
X198803516Y-116351000D01*
X198596484Y-116351000D01*
X198393435Y-116310611D01*
X198202166Y-116231385D01*
X198030024Y-116116363D01*
X197883637Y-115969976D01*
X197768615Y-115797834D01*
X197689389Y-115606565D01*
X197649000Y-115403516D01*
X197649000Y-115196484D01*
X197689389Y-114993435D01*
X197768615Y-114802166D01*
X197883637Y-114630024D01*
X198030024Y-114483637D01*
X198202166Y-114368615D01*
X198393435Y-114289389D01*
X198596484Y-114249000D01*
X198803516Y-114249000D01*
X199006565Y-114289389D01*
X199006565Y-114289389D01*
G37*
G36*
X184448228Y-114481703D02*
X184603100Y-114545853D01*
X184742481Y-114638985D01*
X184861015Y-114757519D01*
X184954147Y-114896900D01*
X185018297Y-115051772D01*
X185051000Y-115216184D01*
X185051000Y-115383816D01*
X185018297Y-115548228D01*
X184954147Y-115703100D01*
X184861015Y-115842481D01*
X184742481Y-115961015D01*
X184603100Y-116054147D01*
X184448228Y-116118297D01*
X184283816Y-116151000D01*
X184116184Y-116151000D01*
X183951772Y-116118297D01*
X183796900Y-116054147D01*
X183657519Y-115961015D01*
X183538985Y-115842481D01*
X183445853Y-115703100D01*
X183381703Y-115548228D01*
X183349000Y-115383816D01*
X183349000Y-115216184D01*
X183381703Y-115051772D01*
X183445853Y-114896900D01*
X183538985Y-114757519D01*
X183657519Y-114638985D01*
X183796900Y-114545853D01*
X183951772Y-114481703D01*
X184116184Y-114449000D01*
X184283816Y-114449000D01*
X184448228Y-114481703D01*
X184448228Y-114481703D01*
G37*
G36*
X186948228Y-114481703D02*
X187103100Y-114545853D01*
X187242481Y-114638985D01*
X187361015Y-114757519D01*
X187454147Y-114896900D01*
X187518297Y-115051772D01*
X187551000Y-115216184D01*
X187551000Y-115383816D01*
X187518297Y-115548228D01*
X187454147Y-115703100D01*
X187361015Y-115842481D01*
X187242481Y-115961015D01*
X187103100Y-116054147D01*
X186948228Y-116118297D01*
X186783816Y-116151000D01*
X186616184Y-116151000D01*
X186451772Y-116118297D01*
X186296900Y-116054147D01*
X186157519Y-115961015D01*
X186038985Y-115842481D01*
X185945853Y-115703100D01*
X185881703Y-115548228D01*
X185849000Y-115383816D01*
X185849000Y-115216184D01*
X185881703Y-115051772D01*
X185945853Y-114896900D01*
X186038985Y-114757519D01*
X186157519Y-114638985D01*
X186296900Y-114545853D01*
X186451772Y-114481703D01*
X186616184Y-114449000D01*
X186783816Y-114449000D01*
X186948228Y-114481703D01*
X186948228Y-114481703D01*
G37*
G36*
X115870770Y-114433672D02*
X115870773Y-114433673D01*
X115870774Y-114433673D01*
X116031188Y-114482334D01*
X116031190Y-114482335D01*
X116031193Y-114482336D01*
X116179027Y-114561354D01*
X116308608Y-114667700D01*
X116414954Y-114797281D01*
X116493972Y-114945115D01*
X116493973Y-114945118D01*
X116493974Y-114945120D01*
X116534270Y-115077959D01*
X116542636Y-115105538D01*
X116559066Y-115272359D01*
X116542636Y-115439180D01*
X116542635Y-115439183D01*
X116542635Y-115439184D01*
X116497566Y-115587757D01*
X116493972Y-115599603D01*
X116414954Y-115747437D01*
X116308608Y-115877018D01*
X116179027Y-115983364D01*
X116031193Y-116062382D01*
X116031190Y-116062383D01*
X116031188Y-116062384D01*
X115870774Y-116111045D01*
X115870773Y-116111045D01*
X115870770Y-116111046D01*
X115745753Y-116123359D01*
X115662145Y-116123359D01*
X115537128Y-116111046D01*
X115537125Y-116111045D01*
X115537124Y-116111045D01*
X115376710Y-116062384D01*
X115376708Y-116062383D01*
X115376705Y-116062382D01*
X115228871Y-115983364D01*
X115099290Y-115877018D01*
X114992944Y-115747437D01*
X114913926Y-115599603D01*
X114910333Y-115587757D01*
X114865263Y-115439184D01*
X114865263Y-115439183D01*
X114865262Y-115439180D01*
X114848832Y-115272359D01*
X114865262Y-115105538D01*
X114873628Y-115077959D01*
X114913924Y-114945120D01*
X114913925Y-114945118D01*
X114913926Y-114945115D01*
X114992944Y-114797281D01*
X115099290Y-114667700D01*
X115228871Y-114561354D01*
X115376705Y-114482336D01*
X115376708Y-114482335D01*
X115376710Y-114482334D01*
X115537124Y-114433673D01*
X115537125Y-114433673D01*
X115537128Y-114433672D01*
X115662145Y-114421359D01*
X115745753Y-114421359D01*
X115870770Y-114433672D01*
X115870770Y-114433672D01*
G37*
G36*
X117666821Y-112637620D02*
X117666824Y-112637621D01*
X117666825Y-112637621D01*
X117827239Y-112686282D01*
X117827241Y-112686283D01*
X117827244Y-112686284D01*
X117975078Y-112765302D01*
X118104659Y-112871648D01*
X118211005Y-113001229D01*
X118290023Y-113149063D01*
X118290024Y-113149066D01*
X118290025Y-113149068D01*
X118338686Y-113309482D01*
X118338687Y-113309486D01*
X118355117Y-113476307D01*
X118338687Y-113643128D01*
X118338686Y-113643131D01*
X118338686Y-113643132D01*
X118313956Y-113724657D01*
X118290023Y-113803551D01*
X118211005Y-113951385D01*
X118104659Y-114080966D01*
X117975078Y-114187312D01*
X117827244Y-114266330D01*
X117827241Y-114266331D01*
X117827239Y-114266332D01*
X117666825Y-114314993D01*
X117666824Y-114314993D01*
X117666821Y-114314994D01*
X117541804Y-114327307D01*
X117458196Y-114327307D01*
X117333179Y-114314994D01*
X117333176Y-114314993D01*
X117333175Y-114314993D01*
X117172761Y-114266332D01*
X117172759Y-114266331D01*
X117172756Y-114266330D01*
X117024922Y-114187312D01*
X116895341Y-114080966D01*
X116788995Y-113951385D01*
X116709977Y-113803551D01*
X116686045Y-113724657D01*
X116661314Y-113643132D01*
X116661314Y-113643131D01*
X116661313Y-113643128D01*
X116644883Y-113476307D01*
X116661313Y-113309486D01*
X116661314Y-113309482D01*
X116709975Y-113149068D01*
X116709976Y-113149066D01*
X116709977Y-113149063D01*
X116788995Y-113001229D01*
X116895341Y-112871648D01*
X117024922Y-112765302D01*
X117172756Y-112686284D01*
X117172759Y-112686283D01*
X117172761Y-112686282D01*
X117333175Y-112637621D01*
X117333176Y-112637621D01*
X117333179Y-112637620D01*
X117458196Y-112625307D01*
X117541804Y-112625307D01*
X117666821Y-112637620D01*
X117666821Y-112637620D01*
G37*
G36*
X106890514Y-112637620D02*
X106890517Y-112637621D01*
X106890518Y-112637621D01*
X107050932Y-112686282D01*
X107050934Y-112686283D01*
X107050937Y-112686284D01*
X107198771Y-112765302D01*
X107328352Y-112871648D01*
X107434698Y-113001229D01*
X107513716Y-113149063D01*
X107513717Y-113149066D01*
X107513718Y-113149068D01*
X107562379Y-113309482D01*
X107562380Y-113309486D01*
X107578810Y-113476307D01*
X107562380Y-113643128D01*
X107562379Y-113643131D01*
X107562379Y-113643132D01*
X107537649Y-113724657D01*
X107513716Y-113803551D01*
X107434698Y-113951385D01*
X107328352Y-114080966D01*
X107198771Y-114187312D01*
X107050937Y-114266330D01*
X107050934Y-114266331D01*
X107050932Y-114266332D01*
X106890518Y-114314993D01*
X106890517Y-114314993D01*
X106890514Y-114314994D01*
X106765497Y-114327307D01*
X106681889Y-114327307D01*
X106556872Y-114314994D01*
X106556869Y-114314993D01*
X106556868Y-114314993D01*
X106396454Y-114266332D01*
X106396452Y-114266331D01*
X106396449Y-114266330D01*
X106248615Y-114187312D01*
X106119034Y-114080966D01*
X106012688Y-113951385D01*
X105933670Y-113803551D01*
X105909738Y-113724657D01*
X105885007Y-113643132D01*
X105885007Y-113643131D01*
X105885006Y-113643128D01*
X105868576Y-113476307D01*
X105885006Y-113309486D01*
X105885007Y-113309482D01*
X105933668Y-113149068D01*
X105933669Y-113149066D01*
X105933670Y-113149063D01*
X106012688Y-113001229D01*
X106119034Y-112871648D01*
X106248615Y-112765302D01*
X106396449Y-112686284D01*
X106396452Y-112686283D01*
X106396454Y-112686282D01*
X106556868Y-112637621D01*
X106556869Y-112637621D01*
X106556872Y-112637620D01*
X106681889Y-112625307D01*
X106765497Y-112625307D01*
X106890514Y-112637620D01*
X106890514Y-112637620D01*
G37*
G36*
X148919864Y-112558731D02*
X148919867Y-112558732D01*
X148919868Y-112558732D01*
X149080282Y-112607393D01*
X149080284Y-112607394D01*
X149080287Y-112607395D01*
X149228121Y-112686413D01*
X149357702Y-112792759D01*
X149464048Y-112922340D01*
X149543066Y-113070174D01*
X149543067Y-113070177D01*
X149543068Y-113070179D01*
X149591729Y-113230593D01*
X149591730Y-113230597D01*
X149608160Y-113397418D01*
X149591730Y-113564239D01*
X149591729Y-113564242D01*
X149591729Y-113564243D01*
X149567800Y-113643128D01*
X149543066Y-113724662D01*
X149464048Y-113872496D01*
X149357702Y-114002077D01*
X149228121Y-114108423D01*
X149080287Y-114187441D01*
X149080284Y-114187442D01*
X149080282Y-114187443D01*
X148919868Y-114236104D01*
X148919867Y-114236104D01*
X148919864Y-114236105D01*
X148794847Y-114248418D01*
X148711239Y-114248418D01*
X148586222Y-114236105D01*
X148586219Y-114236104D01*
X148586218Y-114236104D01*
X148425804Y-114187443D01*
X148425802Y-114187442D01*
X148425799Y-114187441D01*
X148277965Y-114108423D01*
X148148384Y-114002077D01*
X148042038Y-113872496D01*
X147963020Y-113724662D01*
X147938287Y-113643128D01*
X147914357Y-113564243D01*
X147914357Y-113564242D01*
X147914356Y-113564239D01*
X147897926Y-113397418D01*
X147914356Y-113230597D01*
X147914357Y-113230593D01*
X147963018Y-113070179D01*
X147963019Y-113070177D01*
X147963020Y-113070174D01*
X148042038Y-112922340D01*
X148148384Y-112792759D01*
X148277965Y-112686413D01*
X148425799Y-112607395D01*
X148425802Y-112607394D01*
X148425804Y-112607393D01*
X148586218Y-112558732D01*
X148586219Y-112558732D01*
X148586222Y-112558731D01*
X148711239Y-112546418D01*
X148794847Y-112546418D01*
X148919864Y-112558731D01*
X148919864Y-112558731D01*
G37*
G36*
X192948228Y-111481703D02*
X193103100Y-111545853D01*
X193242481Y-111638985D01*
X193361015Y-111757519D01*
X193454147Y-111896900D01*
X193518297Y-112051772D01*
X193551000Y-112216184D01*
X193551000Y-112383816D01*
X193518297Y-112548228D01*
X193454147Y-112703100D01*
X193361015Y-112842481D01*
X193242481Y-112961015D01*
X193103100Y-113054147D01*
X192948228Y-113118297D01*
X192783816Y-113151000D01*
X192616184Y-113151000D01*
X192451772Y-113118297D01*
X192296900Y-113054147D01*
X192157519Y-112961015D01*
X192038985Y-112842481D01*
X191945853Y-112703100D01*
X191881703Y-112548228D01*
X191849000Y-112383816D01*
X191849000Y-112216184D01*
X191881703Y-112051772D01*
X191945853Y-111896900D01*
X192038985Y-111757519D01*
X192157519Y-111638985D01*
X192296900Y-111545853D01*
X192451772Y-111481703D01*
X192616184Y-111449000D01*
X192783816Y-111449000D01*
X192948228Y-111481703D01*
X192948228Y-111481703D01*
G37*
G36*
X108686565Y-110841569D02*
X108686568Y-110841570D01*
X108686569Y-110841570D01*
X108846983Y-110890231D01*
X108846985Y-110890232D01*
X108846988Y-110890233D01*
X108994822Y-110969251D01*
X109124403Y-111075597D01*
X109230749Y-111205178D01*
X109309767Y-111353012D01*
X109309768Y-111353015D01*
X109309769Y-111353017D01*
X109351535Y-111490702D01*
X109358431Y-111513435D01*
X109374861Y-111680256D01*
X109358431Y-111847077D01*
X109358430Y-111847080D01*
X109358430Y-111847081D01*
X109343318Y-111896900D01*
X109309767Y-112007500D01*
X109230749Y-112155334D01*
X109124403Y-112284915D01*
X108994822Y-112391261D01*
X108846988Y-112470279D01*
X108846985Y-112470280D01*
X108846983Y-112470281D01*
X108686569Y-112518942D01*
X108686568Y-112518942D01*
X108686565Y-112518943D01*
X108561548Y-112531256D01*
X108477940Y-112531256D01*
X108352923Y-112518943D01*
X108352920Y-112518942D01*
X108352919Y-112518942D01*
X108192505Y-112470281D01*
X108192503Y-112470280D01*
X108192500Y-112470279D01*
X108044666Y-112391261D01*
X107915085Y-112284915D01*
X107808739Y-112155334D01*
X107729721Y-112007500D01*
X107696171Y-111896900D01*
X107681058Y-111847081D01*
X107681058Y-111847080D01*
X107681057Y-111847077D01*
X107664627Y-111680256D01*
X107681057Y-111513435D01*
X107687953Y-111490702D01*
X107729719Y-111353017D01*
X107729720Y-111353015D01*
X107729721Y-111353012D01*
X107808739Y-111205178D01*
X107915085Y-111075597D01*
X108044666Y-110969251D01*
X108192500Y-110890233D01*
X108192503Y-110890232D01*
X108192505Y-110890231D01*
X108352919Y-110841570D01*
X108352920Y-110841570D01*
X108352923Y-110841569D01*
X108477940Y-110829256D01*
X108561548Y-110829256D01*
X108686565Y-110841569D01*
X108686565Y-110841569D01*
G37*
G36*
X119462872Y-110841569D02*
X119462875Y-110841570D01*
X119462876Y-110841570D01*
X119623290Y-110890231D01*
X119623292Y-110890232D01*
X119623295Y-110890233D01*
X119771129Y-110969251D01*
X119900710Y-111075597D01*
X120007056Y-111205178D01*
X120086074Y-111353012D01*
X120086075Y-111353015D01*
X120086076Y-111353017D01*
X120127842Y-111490702D01*
X120134738Y-111513435D01*
X120151168Y-111680256D01*
X120134738Y-111847077D01*
X120134737Y-111847080D01*
X120134737Y-111847081D01*
X120119625Y-111896900D01*
X120086074Y-112007500D01*
X120007056Y-112155334D01*
X119900710Y-112284915D01*
X119771129Y-112391261D01*
X119623295Y-112470279D01*
X119623292Y-112470280D01*
X119623290Y-112470281D01*
X119462876Y-112518942D01*
X119462875Y-112518942D01*
X119462872Y-112518943D01*
X119337855Y-112531256D01*
X119254247Y-112531256D01*
X119129230Y-112518943D01*
X119129227Y-112518942D01*
X119129226Y-112518942D01*
X118968812Y-112470281D01*
X118968810Y-112470280D01*
X118968807Y-112470279D01*
X118820973Y-112391261D01*
X118691392Y-112284915D01*
X118585046Y-112155334D01*
X118506028Y-112007500D01*
X118472478Y-111896900D01*
X118457365Y-111847081D01*
X118457365Y-111847080D01*
X118457364Y-111847077D01*
X118440934Y-111680256D01*
X118457364Y-111513435D01*
X118464260Y-111490702D01*
X118506026Y-111353017D01*
X118506027Y-111353015D01*
X118506028Y-111353012D01*
X118585046Y-111205178D01*
X118691392Y-111075597D01*
X118820973Y-110969251D01*
X118968807Y-110890233D01*
X118968810Y-110890232D01*
X118968812Y-110890231D01*
X119129226Y-110841570D01*
X119129227Y-110841570D01*
X119129230Y-110841569D01*
X119254247Y-110829256D01*
X119337855Y-110829256D01*
X119462872Y-110841569D01*
X119462872Y-110841569D01*
G37*
G36*
X103748228Y-109881703D02*
X103903100Y-109945853D01*
X104042481Y-110038985D01*
X104161015Y-110157519D01*
X104254147Y-110296900D01*
X104318297Y-110451772D01*
X104351000Y-110616184D01*
X104351000Y-110783816D01*
X104318297Y-110948228D01*
X104254147Y-111103100D01*
X104161015Y-111242481D01*
X104042481Y-111361015D01*
X103903100Y-111454147D01*
X103748228Y-111518297D01*
X103583816Y-111551000D01*
X103416184Y-111551000D01*
X103251772Y-111518297D01*
X103096900Y-111454147D01*
X102957519Y-111361015D01*
X102838985Y-111242481D01*
X102745853Y-111103100D01*
X102681703Y-110948228D01*
X102649000Y-110783816D01*
X102649000Y-110616184D01*
X102681703Y-110451772D01*
X102745853Y-110296900D01*
X102838985Y-110157519D01*
X102957519Y-110038985D01*
X103096900Y-109945853D01*
X103251772Y-109881703D01*
X103416184Y-109849000D01*
X103583816Y-109849000D01*
X103748228Y-109881703D01*
X103748228Y-109881703D01*
G37*
G36*
X146162148Y-109801015D02*
X146162151Y-109801016D01*
X146162152Y-109801016D01*
X146322566Y-109849677D01*
X146322568Y-109849678D01*
X146322571Y-109849679D01*
X146470405Y-109928697D01*
X146599986Y-110035043D01*
X146706332Y-110164624D01*
X146785350Y-110312458D01*
X146785351Y-110312461D01*
X146785352Y-110312463D01*
X146827611Y-110451772D01*
X146834014Y-110472881D01*
X146850444Y-110639702D01*
X146834014Y-110806523D01*
X146834013Y-110806526D01*
X146834013Y-110806527D01*
X146791029Y-110948228D01*
X146785350Y-110966946D01*
X146706332Y-111114780D01*
X146599986Y-111244361D01*
X146470405Y-111350707D01*
X146322571Y-111429725D01*
X146322568Y-111429726D01*
X146322566Y-111429727D01*
X146162152Y-111478388D01*
X146162151Y-111478388D01*
X146162148Y-111478389D01*
X146037131Y-111490702D01*
X145953523Y-111490702D01*
X145828506Y-111478389D01*
X145828503Y-111478388D01*
X145828502Y-111478388D01*
X145668088Y-111429727D01*
X145668086Y-111429726D01*
X145668083Y-111429725D01*
X145520249Y-111350707D01*
X145390668Y-111244361D01*
X145284322Y-111114780D01*
X145205304Y-110966946D01*
X145199626Y-110948228D01*
X145156641Y-110806527D01*
X145156641Y-110806526D01*
X145156640Y-110806523D01*
X145140210Y-110639702D01*
X145156640Y-110472881D01*
X145163043Y-110451772D01*
X145205302Y-110312463D01*
X145205303Y-110312461D01*
X145205304Y-110312458D01*
X145284322Y-110164624D01*
X145390668Y-110035043D01*
X145520249Y-109928697D01*
X145668083Y-109849679D01*
X145668086Y-109849678D01*
X145668088Y-109849677D01*
X145828502Y-109801016D01*
X145828503Y-109801016D01*
X145828506Y-109801015D01*
X145953523Y-109788702D01*
X146037131Y-109788702D01*
X146162148Y-109801015D01*
X146162148Y-109801015D01*
G37*
G36*
X167953369Y-109226858D02*
X168144638Y-109306084D01*
X168316780Y-109421106D01*
X168463167Y-109567493D01*
X168578189Y-109739635D01*
X168657415Y-109930904D01*
X168697804Y-110133953D01*
X168697804Y-110340985D01*
X168657415Y-110544034D01*
X168578189Y-110735303D01*
X168463167Y-110907445D01*
X168316780Y-111053832D01*
X168144638Y-111168854D01*
X167953369Y-111248080D01*
X167750320Y-111288469D01*
X167543288Y-111288469D01*
X167340239Y-111248080D01*
X167148970Y-111168854D01*
X166976828Y-111053832D01*
X166830441Y-110907445D01*
X166715419Y-110735303D01*
X166636193Y-110544034D01*
X166595804Y-110340985D01*
X166595804Y-110133953D01*
X166636193Y-109930904D01*
X166715419Y-109739635D01*
X166830441Y-109567493D01*
X166976828Y-109421106D01*
X167148970Y-109306084D01*
X167340239Y-109226858D01*
X167543288Y-109186469D01*
X167750320Y-109186469D01*
X167953369Y-109226858D01*
X167953369Y-109226858D01*
G37*
G36*
X89850235Y-109115873D02*
X89850238Y-109115874D01*
X89850239Y-109115874D01*
X90010653Y-109164535D01*
X90010655Y-109164536D01*
X90010658Y-109164537D01*
X90158492Y-109243555D01*
X90288073Y-109349901D01*
X90394419Y-109479482D01*
X90473437Y-109627316D01*
X90473438Y-109627319D01*
X90473439Y-109627321D01*
X90510814Y-109750530D01*
X90522101Y-109787739D01*
X90538531Y-109954560D01*
X90522101Y-110121381D01*
X90522100Y-110121384D01*
X90522100Y-110121385D01*
X90508984Y-110164624D01*
X90473437Y-110281804D01*
X90394419Y-110429638D01*
X90288073Y-110559219D01*
X90158492Y-110665565D01*
X90010658Y-110744583D01*
X90010655Y-110744584D01*
X90010653Y-110744585D01*
X89850239Y-110793246D01*
X89850238Y-110793246D01*
X89850235Y-110793247D01*
X89725218Y-110805560D01*
X89641610Y-110805560D01*
X89516593Y-110793247D01*
X89516590Y-110793246D01*
X89516589Y-110793246D01*
X89356175Y-110744585D01*
X89356173Y-110744584D01*
X89356170Y-110744583D01*
X89208336Y-110665565D01*
X89078755Y-110559219D01*
X88972409Y-110429638D01*
X88893391Y-110281804D01*
X88857845Y-110164624D01*
X88844728Y-110121385D01*
X88844728Y-110121384D01*
X88844727Y-110121381D01*
X88828297Y-109954560D01*
X88844727Y-109787739D01*
X88856014Y-109750530D01*
X88893389Y-109627321D01*
X88893390Y-109627319D01*
X88893391Y-109627316D01*
X88972409Y-109479482D01*
X89078755Y-109349901D01*
X89208336Y-109243555D01*
X89356170Y-109164537D01*
X89356173Y-109164536D01*
X89356175Y-109164535D01*
X89516589Y-109115874D01*
X89516590Y-109115874D01*
X89516593Y-109115873D01*
X89641610Y-109103560D01*
X89725218Y-109103560D01*
X89850235Y-109115873D01*
X89850235Y-109115873D01*
G37*
G36*
X121258923Y-109045518D02*
X121258926Y-109045519D01*
X121258927Y-109045519D01*
X121419341Y-109094180D01*
X121419343Y-109094181D01*
X121419346Y-109094182D01*
X121567180Y-109173200D01*
X121696761Y-109279546D01*
X121803107Y-109409127D01*
X121882125Y-109556961D01*
X121882126Y-109556964D01*
X121882127Y-109556966D01*
X121893133Y-109593248D01*
X121930789Y-109717384D01*
X121947219Y-109884205D01*
X121930789Y-110051026D01*
X121930788Y-110051029D01*
X121930788Y-110051030D01*
X121896330Y-110164624D01*
X121882125Y-110211449D01*
X121803107Y-110359283D01*
X121696761Y-110488864D01*
X121567180Y-110595210D01*
X121419346Y-110674228D01*
X121419343Y-110674229D01*
X121419341Y-110674230D01*
X121258927Y-110722891D01*
X121258926Y-110722891D01*
X121258923Y-110722892D01*
X121133906Y-110735205D01*
X121050298Y-110735205D01*
X120925281Y-110722892D01*
X120925278Y-110722891D01*
X120925277Y-110722891D01*
X120764863Y-110674230D01*
X120764861Y-110674229D01*
X120764858Y-110674228D01*
X120617024Y-110595210D01*
X120487443Y-110488864D01*
X120381097Y-110359283D01*
X120302079Y-110211449D01*
X120287875Y-110164624D01*
X120253416Y-110051030D01*
X120253416Y-110051029D01*
X120253415Y-110051026D01*
X120236985Y-109884205D01*
X120253415Y-109717384D01*
X120291071Y-109593248D01*
X120302077Y-109556966D01*
X120302078Y-109556964D01*
X120302079Y-109556961D01*
X120381097Y-109409127D01*
X120487443Y-109279546D01*
X120617024Y-109173200D01*
X120764858Y-109094182D01*
X120764861Y-109094181D01*
X120764863Y-109094180D01*
X120925277Y-109045519D01*
X120925278Y-109045519D01*
X120925281Y-109045518D01*
X121050298Y-109033205D01*
X121133906Y-109033205D01*
X121258923Y-109045518D01*
X121258923Y-109045518D01*
G37*
G36*
X110482616Y-109045518D02*
X110482619Y-109045519D01*
X110482620Y-109045519D01*
X110643034Y-109094180D01*
X110643036Y-109094181D01*
X110643039Y-109094182D01*
X110790873Y-109173200D01*
X110920454Y-109279546D01*
X111026800Y-109409127D01*
X111105818Y-109556961D01*
X111105819Y-109556964D01*
X111105820Y-109556966D01*
X111116826Y-109593248D01*
X111154482Y-109717384D01*
X111170912Y-109884205D01*
X111154482Y-110051026D01*
X111154481Y-110051029D01*
X111154481Y-110051030D01*
X111120023Y-110164624D01*
X111105818Y-110211449D01*
X111026800Y-110359283D01*
X110920454Y-110488864D01*
X110790873Y-110595210D01*
X110643039Y-110674228D01*
X110643036Y-110674229D01*
X110643034Y-110674230D01*
X110482620Y-110722891D01*
X110482619Y-110722891D01*
X110482616Y-110722892D01*
X110357599Y-110735205D01*
X110273991Y-110735205D01*
X110148974Y-110722892D01*
X110148971Y-110722891D01*
X110148970Y-110722891D01*
X109988556Y-110674230D01*
X109988554Y-110674229D01*
X109988551Y-110674228D01*
X109840717Y-110595210D01*
X109711136Y-110488864D01*
X109604790Y-110359283D01*
X109525772Y-110211449D01*
X109511568Y-110164624D01*
X109477109Y-110051030D01*
X109477109Y-110051029D01*
X109477108Y-110051026D01*
X109460678Y-109884205D01*
X109477108Y-109717384D01*
X109514764Y-109593248D01*
X109525770Y-109556966D01*
X109525771Y-109556964D01*
X109525772Y-109556961D01*
X109604790Y-109409127D01*
X109711136Y-109279546D01*
X109840717Y-109173200D01*
X109988551Y-109094182D01*
X109988554Y-109094181D01*
X109988556Y-109094180D01*
X110148970Y-109045519D01*
X110148971Y-109045519D01*
X110148974Y-109045518D01*
X110273991Y-109033205D01*
X110357599Y-109033205D01*
X110482616Y-109045518D01*
X110482616Y-109045518D01*
G37*
G36*
X105515995Y-108113936D02*
X105670867Y-108178086D01*
X105810248Y-108271218D01*
X105928782Y-108389752D01*
X106021914Y-108529133D01*
X106086064Y-108684005D01*
X106118767Y-108848417D01*
X106118767Y-109016049D01*
X106086064Y-109180461D01*
X106021914Y-109335333D01*
X105928782Y-109474714D01*
X105810248Y-109593248D01*
X105670867Y-109686380D01*
X105515995Y-109750530D01*
X105351583Y-109783233D01*
X105183951Y-109783233D01*
X105019539Y-109750530D01*
X104864667Y-109686380D01*
X104725286Y-109593248D01*
X104606752Y-109474714D01*
X104513620Y-109335333D01*
X104449470Y-109180461D01*
X104416767Y-109016049D01*
X104416767Y-108848417D01*
X104449470Y-108684005D01*
X104513620Y-108529133D01*
X104606752Y-108389752D01*
X104725286Y-108271218D01*
X104864667Y-108178086D01*
X105019539Y-108113936D01*
X105183951Y-108081233D01*
X105351583Y-108081233D01*
X105515995Y-108113936D01*
X105515995Y-108113936D01*
G37*
G36*
X112278667Y-107249467D02*
X112278670Y-107249468D01*
X112278671Y-107249468D01*
X112439085Y-107298129D01*
X112439087Y-107298130D01*
X112439090Y-107298131D01*
X112586924Y-107377149D01*
X112716505Y-107483495D01*
X112822851Y-107613076D01*
X112901869Y-107760910D01*
X112950533Y-107921333D01*
X112966963Y-108088154D01*
X112950533Y-108254975D01*
X112950532Y-108254978D01*
X112950532Y-108254979D01*
X112945606Y-108271219D01*
X112901869Y-108415398D01*
X112822851Y-108563232D01*
X112716505Y-108692813D01*
X112586924Y-108799159D01*
X112439090Y-108878177D01*
X112439087Y-108878178D01*
X112439085Y-108878179D01*
X112278671Y-108926840D01*
X112278670Y-108926840D01*
X112278667Y-108926841D01*
X112153650Y-108939154D01*
X112070042Y-108939154D01*
X111945025Y-108926841D01*
X111945022Y-108926840D01*
X111945021Y-108926840D01*
X111784607Y-108878179D01*
X111784605Y-108878178D01*
X111784602Y-108878177D01*
X111636768Y-108799159D01*
X111507187Y-108692813D01*
X111400841Y-108563232D01*
X111321823Y-108415398D01*
X111278087Y-108271219D01*
X111273160Y-108254979D01*
X111273160Y-108254978D01*
X111273159Y-108254975D01*
X111256729Y-108088154D01*
X111273159Y-107921333D01*
X111321823Y-107760910D01*
X111400841Y-107613076D01*
X111507187Y-107483495D01*
X111636768Y-107377149D01*
X111784602Y-107298131D01*
X111784605Y-107298130D01*
X111784607Y-107298129D01*
X111945021Y-107249468D01*
X111945022Y-107249468D01*
X111945025Y-107249467D01*
X112070042Y-107237154D01*
X112153650Y-107237154D01*
X112278667Y-107249467D01*
X112278667Y-107249467D01*
G37*
G36*
X123054975Y-107249467D02*
X123054978Y-107249468D01*
X123054979Y-107249468D01*
X123215393Y-107298129D01*
X123215395Y-107298130D01*
X123215398Y-107298131D01*
X123363232Y-107377149D01*
X123492813Y-107483495D01*
X123599159Y-107613076D01*
X123678177Y-107760910D01*
X123726841Y-107921333D01*
X123743271Y-108088154D01*
X123726841Y-108254975D01*
X123726840Y-108254978D01*
X123726840Y-108254979D01*
X123721914Y-108271219D01*
X123678177Y-108415398D01*
X123599159Y-108563232D01*
X123492813Y-108692813D01*
X123363232Y-108799159D01*
X123215398Y-108878177D01*
X123215395Y-108878178D01*
X123215393Y-108878179D01*
X123054979Y-108926840D01*
X123054978Y-108926840D01*
X123054975Y-108926841D01*
X122929958Y-108939154D01*
X122846350Y-108939154D01*
X122721333Y-108926841D01*
X122721330Y-108926840D01*
X122721329Y-108926840D01*
X122560915Y-108878179D01*
X122560913Y-108878178D01*
X122560910Y-108878177D01*
X122413076Y-108799159D01*
X122283495Y-108692813D01*
X122177149Y-108563232D01*
X122098131Y-108415398D01*
X122054395Y-108271219D01*
X122049468Y-108254979D01*
X122049468Y-108254978D01*
X122049467Y-108254975D01*
X122033037Y-108088154D01*
X122049467Y-107921333D01*
X122098131Y-107760910D01*
X122177149Y-107613076D01*
X122283495Y-107483495D01*
X122413076Y-107377149D01*
X122560910Y-107298131D01*
X122560913Y-107298130D01*
X122560915Y-107298129D01*
X122721329Y-107249468D01*
X122721330Y-107249468D01*
X122721333Y-107249467D01*
X122846350Y-107237154D01*
X122929958Y-107237154D01*
X123054975Y-107249467D01*
X123054975Y-107249467D01*
G37*
G36*
X114074719Y-105453415D02*
X114074722Y-105453416D01*
X114074723Y-105453416D01*
X114235137Y-105502077D01*
X114235139Y-105502078D01*
X114235142Y-105502079D01*
X114382976Y-105581097D01*
X114512557Y-105687443D01*
X114618903Y-105817024D01*
X114697921Y-105964858D01*
X114697922Y-105964861D01*
X114697923Y-105964863D01*
X114746584Y-106125277D01*
X114746585Y-106125281D01*
X114763015Y-106292102D01*
X114746585Y-106458923D01*
X114697921Y-106619346D01*
X114618903Y-106767180D01*
X114512557Y-106896761D01*
X114382976Y-107003107D01*
X114235142Y-107082125D01*
X114235139Y-107082126D01*
X114235137Y-107082127D01*
X114074723Y-107130788D01*
X114074722Y-107130788D01*
X114074719Y-107130789D01*
X113949702Y-107143102D01*
X113866094Y-107143102D01*
X113741077Y-107130789D01*
X113741074Y-107130788D01*
X113741073Y-107130788D01*
X113580659Y-107082127D01*
X113580657Y-107082126D01*
X113580654Y-107082125D01*
X113432820Y-107003107D01*
X113303239Y-106896761D01*
X113196893Y-106767180D01*
X113117875Y-106619346D01*
X113069211Y-106458923D01*
X113052781Y-106292102D01*
X113069211Y-106125281D01*
X113069212Y-106125277D01*
X113117873Y-105964863D01*
X113117874Y-105964861D01*
X113117875Y-105964858D01*
X113196893Y-105817024D01*
X113303239Y-105687443D01*
X113432820Y-105581097D01*
X113580654Y-105502079D01*
X113580657Y-105502078D01*
X113580659Y-105502077D01*
X113741073Y-105453416D01*
X113741074Y-105453416D01*
X113741077Y-105453415D01*
X113866094Y-105441102D01*
X113949702Y-105441102D01*
X114074719Y-105453415D01*
X114074719Y-105453415D01*
G37*
G36*
X136448228Y-105081703D02*
X136603100Y-105145853D01*
X136742481Y-105238985D01*
X136861015Y-105357519D01*
X136954147Y-105496900D01*
X137018297Y-105651772D01*
X137051000Y-105816184D01*
X137051000Y-105983816D01*
X137018297Y-106148228D01*
X136954147Y-106303100D01*
X136861015Y-106442481D01*
X136742481Y-106561015D01*
X136603100Y-106654147D01*
X136448228Y-106718297D01*
X136283816Y-106751000D01*
X136116184Y-106751000D01*
X135951772Y-106718297D01*
X135796900Y-106654147D01*
X135657519Y-106561015D01*
X135538985Y-106442481D01*
X135445853Y-106303100D01*
X135381703Y-106148228D01*
X135349000Y-105983816D01*
X135349000Y-105816184D01*
X135381703Y-105651772D01*
X135445853Y-105496900D01*
X135538985Y-105357519D01*
X135657519Y-105238985D01*
X135796900Y-105145853D01*
X135951772Y-105081703D01*
X136116184Y-105049000D01*
X136283816Y-105049000D01*
X136448228Y-105081703D01*
X136448228Y-105081703D01*
G37*
G36*
X177706565Y-104389389D02*
X177897834Y-104468615D01*
X178069976Y-104583637D01*
X178216363Y-104730024D01*
X178331385Y-104902166D01*
X178410611Y-105093435D01*
X178451000Y-105296484D01*
X178451000Y-105503516D01*
X178410611Y-105706565D01*
X178331385Y-105897834D01*
X178216363Y-106069976D01*
X178069976Y-106216363D01*
X177897834Y-106331385D01*
X177706565Y-106410611D01*
X177503516Y-106451000D01*
X177296484Y-106451000D01*
X177093435Y-106410611D01*
X176902166Y-106331385D01*
X176730024Y-106216363D01*
X176583637Y-106069976D01*
X176468615Y-105897834D01*
X176389389Y-105706565D01*
X176349000Y-105503516D01*
X176349000Y-105296484D01*
X176389389Y-105093435D01*
X176468615Y-104902166D01*
X176583637Y-104730024D01*
X176730024Y-104583637D01*
X176902166Y-104468615D01*
X177093435Y-104389389D01*
X177296484Y-104349000D01*
X177503516Y-104349000D01*
X177706565Y-104389389D01*
X177706565Y-104389389D01*
G37*
G36*
X115870770Y-103657364D02*
X115870773Y-103657365D01*
X115870774Y-103657365D01*
X116031188Y-103706026D01*
X116031190Y-103706027D01*
X116031193Y-103706028D01*
X116179027Y-103785046D01*
X116308608Y-103891392D01*
X116414954Y-104020973D01*
X116493972Y-104168807D01*
X116542636Y-104329230D01*
X116559066Y-104496051D01*
X116542636Y-104662872D01*
X116493972Y-104823295D01*
X116414954Y-104971129D01*
X116308608Y-105100710D01*
X116179027Y-105207056D01*
X116031193Y-105286074D01*
X116031190Y-105286075D01*
X116031188Y-105286076D01*
X115870774Y-105334737D01*
X115870773Y-105334737D01*
X115870770Y-105334738D01*
X115745753Y-105347051D01*
X115662145Y-105347051D01*
X115537128Y-105334738D01*
X115537125Y-105334737D01*
X115537124Y-105334737D01*
X115376710Y-105286076D01*
X115376708Y-105286075D01*
X115376705Y-105286074D01*
X115228871Y-105207056D01*
X115099290Y-105100710D01*
X114992944Y-104971129D01*
X114913926Y-104823295D01*
X114865262Y-104662872D01*
X114848832Y-104496051D01*
X114865262Y-104329230D01*
X114913926Y-104168807D01*
X114992944Y-104020973D01*
X115099290Y-103891392D01*
X115228871Y-103785046D01*
X115376705Y-103706028D01*
X115376708Y-103706027D01*
X115376710Y-103706026D01*
X115537124Y-103657365D01*
X115537125Y-103657365D01*
X115537128Y-103657364D01*
X115662145Y-103645051D01*
X115745753Y-103645051D01*
X115870770Y-103657364D01*
X115870770Y-103657364D01*
G37*
G36*
X134680461Y-103313936D02*
X134835333Y-103378086D01*
X134974714Y-103471218D01*
X135093248Y-103589752D01*
X135186380Y-103729133D01*
X135250530Y-103884005D01*
X135283233Y-104048417D01*
X135283233Y-104216049D01*
X135250530Y-104380461D01*
X135186380Y-104535333D01*
X135093248Y-104674714D01*
X134974714Y-104793248D01*
X134835333Y-104886380D01*
X134680461Y-104950530D01*
X134516049Y-104983233D01*
X134348417Y-104983233D01*
X134184005Y-104950530D01*
X134029133Y-104886380D01*
X133889752Y-104793248D01*
X133771218Y-104674714D01*
X133678086Y-104535333D01*
X133613936Y-104380461D01*
X133581233Y-104216049D01*
X133581233Y-104048417D01*
X133613936Y-103884005D01*
X133678086Y-103729133D01*
X133771218Y-103589752D01*
X133889752Y-103471218D01*
X134029133Y-103378086D01*
X134184005Y-103313936D01*
X134348417Y-103281233D01*
X134516049Y-103281233D01*
X134680461Y-103313936D01*
X134680461Y-103313936D01*
G37*
G36*
X118703496Y-102700000D02*
X117500000Y-103903496D01*
X116296504Y-102700000D01*
X117500000Y-101496504D01*
X118703496Y-102700000D01*
X118703496Y-102700000D01*
G37*
G36*
X97115847Y-101952058D02*
X97270719Y-102016208D01*
X97410100Y-102109340D01*
X97528634Y-102227874D01*
X97621766Y-102367255D01*
X97685916Y-102522127D01*
X97718619Y-102686539D01*
X97718619Y-102854171D01*
X97685916Y-103018583D01*
X97621766Y-103173455D01*
X97528634Y-103312836D01*
X97410100Y-103431370D01*
X97270719Y-103524502D01*
X97115847Y-103588652D01*
X96951435Y-103621355D01*
X96783803Y-103621355D01*
X96619391Y-103588652D01*
X96464519Y-103524502D01*
X96325138Y-103431370D01*
X96206604Y-103312836D01*
X96113472Y-103173455D01*
X96049322Y-103018583D01*
X96016619Y-102854171D01*
X96016619Y-102686539D01*
X96049322Y-102522127D01*
X96113472Y-102367255D01*
X96206604Y-102227874D01*
X96325138Y-102109340D01*
X96464519Y-102016208D01*
X96619391Y-101952058D01*
X96783803Y-101919355D01*
X96951435Y-101919355D01*
X97115847Y-101952058D01*
X97115847Y-101952058D01*
G37*
G36*
X192866821Y-101301313D02*
X192866824Y-101301314D01*
X192866825Y-101301314D01*
X193027239Y-101349975D01*
X193027241Y-101349976D01*
X193027244Y-101349977D01*
X193175078Y-101428995D01*
X193304659Y-101535341D01*
X193411005Y-101664922D01*
X193490023Y-101812756D01*
X193490024Y-101812759D01*
X193490025Y-101812761D01*
X193533797Y-101957058D01*
X193538687Y-101973179D01*
X193555117Y-102140000D01*
X193538687Y-102306821D01*
X193538686Y-102306824D01*
X193538686Y-102306825D01*
X193520355Y-102367255D01*
X193490023Y-102467244D01*
X193411005Y-102615078D01*
X193304659Y-102744659D01*
X193175078Y-102851005D01*
X193027244Y-102930023D01*
X193027241Y-102930024D01*
X193027239Y-102930025D01*
X192866825Y-102978686D01*
X192866824Y-102978686D01*
X192866821Y-102978687D01*
X192741804Y-102991000D01*
X192658196Y-102991000D01*
X192533179Y-102978687D01*
X192533176Y-102978686D01*
X192533175Y-102978686D01*
X192372761Y-102930025D01*
X192372759Y-102930024D01*
X192372756Y-102930023D01*
X192224922Y-102851005D01*
X192095341Y-102744659D01*
X191988995Y-102615078D01*
X191909977Y-102467244D01*
X191879646Y-102367255D01*
X191861314Y-102306825D01*
X191861314Y-102306824D01*
X191861313Y-102306821D01*
X191844883Y-102140000D01*
X191861313Y-101973179D01*
X191866203Y-101957058D01*
X191909975Y-101812761D01*
X191909976Y-101812759D01*
X191909977Y-101812756D01*
X191988995Y-101664922D01*
X192095341Y-101535341D01*
X192224922Y-101428995D01*
X192372756Y-101349977D01*
X192372759Y-101349976D01*
X192372761Y-101349975D01*
X192533175Y-101301314D01*
X192533176Y-101301314D01*
X192533179Y-101301313D01*
X192658196Y-101289000D01*
X192741804Y-101289000D01*
X192866821Y-101301313D01*
X192866821Y-101301313D01*
G37*
G36*
X148851792Y-99935836D02*
X149043061Y-100015062D01*
X149215203Y-100130084D01*
X149361590Y-100276471D01*
X149476612Y-100448613D01*
X149555838Y-100639882D01*
X149593960Y-100831533D01*
X149601073Y-100854983D01*
X149612624Y-100876593D01*
X149628170Y-100895535D01*
X149647112Y-100911081D01*
X149668723Y-100922632D01*
X149692172Y-100929745D01*
X149716558Y-100932147D01*
X149740944Y-100929745D01*
X149764394Y-100922632D01*
X149786004Y-100911081D01*
X149804946Y-100895535D01*
X149820492Y-100876593D01*
X149832043Y-100854982D01*
X149839156Y-100831532D01*
X149863467Y-100709306D01*
X149924756Y-100561345D01*
X150013728Y-100428189D01*
X150126968Y-100314949D01*
X150260124Y-100225977D01*
X150408084Y-100164689D01*
X150565151Y-100133447D01*
X150725301Y-100133447D01*
X150882368Y-100164689D01*
X151030328Y-100225977D01*
X151163484Y-100314949D01*
X151276724Y-100428189D01*
X151365696Y-100561345D01*
X151426984Y-100709305D01*
X151458226Y-100866372D01*
X151458226Y-101026522D01*
X151426984Y-101183589D01*
X151365696Y-101331549D01*
X151276724Y-101464705D01*
X151163484Y-101577945D01*
X151030328Y-101666917D01*
X150882368Y-101728205D01*
X150725301Y-101759447D01*
X150565151Y-101759447D01*
X150408084Y-101728205D01*
X150260124Y-101666917D01*
X150126968Y-101577945D01*
X150013728Y-101464705D01*
X149924756Y-101331549D01*
X149863467Y-101183588D01*
X149839156Y-101061362D01*
X149832043Y-101037912D01*
X149820492Y-101016301D01*
X149804947Y-100997359D01*
X149786005Y-100981814D01*
X149764394Y-100970262D01*
X149740945Y-100963149D01*
X149716559Y-100960747D01*
X149692173Y-100963149D01*
X149668723Y-100970262D01*
X149647112Y-100981813D01*
X149628170Y-100997358D01*
X149612625Y-101016300D01*
X149601073Y-101037911D01*
X149593960Y-101061361D01*
X149555838Y-101253012D01*
X149476612Y-101444281D01*
X149361590Y-101616423D01*
X149215203Y-101762810D01*
X149043061Y-101877832D01*
X148851792Y-101957058D01*
X148648743Y-101997447D01*
X148441711Y-101997447D01*
X148238662Y-101957058D01*
X148047393Y-101877832D01*
X147875251Y-101762810D01*
X147728864Y-101616423D01*
X147613842Y-101444281D01*
X147534616Y-101253012D01*
X147494227Y-101049963D01*
X147494227Y-100842931D01*
X147534616Y-100639882D01*
X147613842Y-100448613D01*
X147728864Y-100276471D01*
X147875251Y-100130084D01*
X148047393Y-100015062D01*
X148238662Y-99935836D01*
X148441711Y-99895447D01*
X148648743Y-99895447D01*
X148851792Y-99935836D01*
X148851792Y-99935836D01*
G37*
G36*
X157051792Y-99935836D02*
X157243061Y-100015062D01*
X157415203Y-100130084D01*
X157561590Y-100276471D01*
X157676612Y-100448613D01*
X157755838Y-100639882D01*
X157796227Y-100842931D01*
X157796227Y-101049963D01*
X157755838Y-101253012D01*
X157676612Y-101444281D01*
X157561590Y-101616423D01*
X157415203Y-101762810D01*
X157243061Y-101877832D01*
X157051792Y-101957058D01*
X156848743Y-101997447D01*
X156641711Y-101997447D01*
X156438662Y-101957058D01*
X156247393Y-101877832D01*
X156075251Y-101762810D01*
X155928864Y-101616423D01*
X155813842Y-101444281D01*
X155734616Y-101253012D01*
X155696494Y-101061361D01*
X155689381Y-101037911D01*
X155677830Y-101016301D01*
X155662284Y-100997359D01*
X155643342Y-100981813D01*
X155621731Y-100970262D01*
X155598282Y-100963149D01*
X155573896Y-100960747D01*
X155549510Y-100963149D01*
X155526060Y-100970262D01*
X155504450Y-100981813D01*
X155485508Y-100997359D01*
X155469962Y-101016301D01*
X155458411Y-101037912D01*
X155451298Y-101061362D01*
X155426987Y-101183588D01*
X155365698Y-101331549D01*
X155276726Y-101464705D01*
X155163486Y-101577945D01*
X155030330Y-101666917D01*
X154882370Y-101728205D01*
X154725303Y-101759447D01*
X154565153Y-101759447D01*
X154408086Y-101728205D01*
X154260126Y-101666917D01*
X154126970Y-101577945D01*
X154013730Y-101464705D01*
X153924758Y-101331549D01*
X153863470Y-101183589D01*
X153832228Y-101026522D01*
X153832228Y-100866372D01*
X153863470Y-100709305D01*
X153924758Y-100561345D01*
X154013730Y-100428189D01*
X154126970Y-100314949D01*
X154260126Y-100225977D01*
X154408086Y-100164689D01*
X154565153Y-100133447D01*
X154725303Y-100133447D01*
X154882370Y-100164689D01*
X155030330Y-100225977D01*
X155163486Y-100314949D01*
X155276726Y-100428189D01*
X155365698Y-100561345D01*
X155426987Y-100709306D01*
X155451298Y-100831532D01*
X155458411Y-100854982D01*
X155469962Y-100876593D01*
X155485507Y-100895535D01*
X155504449Y-100911080D01*
X155526060Y-100922632D01*
X155549509Y-100929745D01*
X155573895Y-100932147D01*
X155598281Y-100929745D01*
X155621731Y-100922632D01*
X155643342Y-100911081D01*
X155662284Y-100895536D01*
X155677829Y-100876594D01*
X155689381Y-100854983D01*
X155696494Y-100831533D01*
X155734616Y-100639882D01*
X155813842Y-100448613D01*
X155928864Y-100276471D01*
X156075251Y-100130084D01*
X156247393Y-100015062D01*
X156438662Y-99935836D01*
X156641711Y-99895447D01*
X156848743Y-99895447D01*
X157051792Y-99935836D01*
X157051792Y-99935836D01*
G37*
G36*
X152882369Y-100164689D02*
X153030329Y-100225977D01*
X153163485Y-100314949D01*
X153276725Y-100428189D01*
X153365697Y-100561345D01*
X153426985Y-100709305D01*
X153458227Y-100866372D01*
X153458227Y-101026522D01*
X153426985Y-101183589D01*
X153365697Y-101331549D01*
X153276725Y-101464705D01*
X153163485Y-101577945D01*
X153030329Y-101666917D01*
X152882369Y-101728205D01*
X152725302Y-101759447D01*
X152565152Y-101759447D01*
X152408085Y-101728205D01*
X152260125Y-101666917D01*
X152126969Y-101577945D01*
X152013729Y-101464705D01*
X151924757Y-101331549D01*
X151863469Y-101183589D01*
X151832227Y-101026522D01*
X151832227Y-100866372D01*
X151863469Y-100709305D01*
X151924757Y-100561345D01*
X152013729Y-100428189D01*
X152126969Y-100314949D01*
X152260125Y-100225977D01*
X152408085Y-100164689D01*
X152565152Y-100133447D01*
X152725302Y-100133447D01*
X152882369Y-100164689D01*
X152882369Y-100164689D01*
G37*
G36*
X108615995Y-99849470D02*
X108770867Y-99913620D01*
X108910248Y-100006752D01*
X109028782Y-100125286D01*
X109121914Y-100264667D01*
X109186064Y-100419539D01*
X109218767Y-100583951D01*
X109218767Y-100751583D01*
X109186064Y-100915995D01*
X109121914Y-101070867D01*
X109028782Y-101210248D01*
X108910248Y-101328782D01*
X108770867Y-101421914D01*
X108615995Y-101486064D01*
X108451583Y-101518767D01*
X108283951Y-101518767D01*
X108119539Y-101486064D01*
X107964667Y-101421914D01*
X107825286Y-101328782D01*
X107706752Y-101210248D01*
X107613620Y-101070867D01*
X107549470Y-100915995D01*
X107516767Y-100751583D01*
X107516767Y-100583951D01*
X107549470Y-100419539D01*
X107613620Y-100264667D01*
X107706752Y-100125286D01*
X107825286Y-100006752D01*
X107964667Y-99913620D01*
X108119539Y-99849470D01*
X108283951Y-99816767D01*
X108451583Y-99816767D01*
X108615995Y-99849470D01*
X108615995Y-99849470D01*
G37*
G36*
X129256565Y-98389389D02*
X129447834Y-98468615D01*
X129619976Y-98583637D01*
X129766363Y-98730024D01*
X129881385Y-98902166D01*
X129960611Y-99093435D01*
X130001000Y-99296484D01*
X130001000Y-99503516D01*
X129960611Y-99706565D01*
X129881385Y-99897834D01*
X129766363Y-100069976D01*
X129619976Y-100216363D01*
X129447834Y-100331385D01*
X129256565Y-100410611D01*
X129053516Y-100451000D01*
X128846484Y-100451000D01*
X128643435Y-100410611D01*
X128452166Y-100331385D01*
X128280024Y-100216363D01*
X128133637Y-100069976D01*
X128018615Y-99897834D01*
X127939389Y-99706565D01*
X127899000Y-99503516D01*
X127899000Y-99296484D01*
X127939389Y-99093435D01*
X128018615Y-98902166D01*
X128133637Y-98730024D01*
X128280024Y-98583637D01*
X128452166Y-98468615D01*
X128643435Y-98389389D01*
X128846484Y-98349000D01*
X129053516Y-98349000D01*
X129256565Y-98389389D01*
X129256565Y-98389389D01*
G37*
G36*
X121606565Y-97889389D02*
X121797834Y-97968615D01*
X121969976Y-98083637D01*
X122116363Y-98230024D01*
X122231385Y-98402166D01*
X122310611Y-98593435D01*
X122351000Y-98796484D01*
X122351000Y-99003516D01*
X122310611Y-99206565D01*
X122231385Y-99397834D01*
X122116363Y-99569976D01*
X121969976Y-99716363D01*
X121797834Y-99831385D01*
X121606565Y-99910611D01*
X121403516Y-99951000D01*
X121196484Y-99951000D01*
X120993435Y-99910611D01*
X120802166Y-99831385D01*
X120630024Y-99716363D01*
X120483637Y-99569976D01*
X120368615Y-99397834D01*
X120289389Y-99206565D01*
X120249000Y-99003516D01*
X120249000Y-98796484D01*
X120289389Y-98593435D01*
X120368615Y-98402166D01*
X120483637Y-98230024D01*
X120630024Y-98083637D01*
X120802166Y-97968615D01*
X120993435Y-97889389D01*
X121196484Y-97849000D01*
X121403516Y-97849000D01*
X121606565Y-97889389D01*
X121606565Y-97889389D01*
G37*
G36*
X182977396Y-97985546D02*
X183150466Y-98057234D01*
X183306230Y-98161312D01*
X183438688Y-98293770D01*
X183542766Y-98449534D01*
X183614454Y-98622604D01*
X183651000Y-98806333D01*
X183651000Y-98993667D01*
X183614454Y-99177396D01*
X183542766Y-99350466D01*
X183438688Y-99506230D01*
X183306230Y-99638688D01*
X183150466Y-99742766D01*
X182977396Y-99814454D01*
X182793667Y-99851000D01*
X182606333Y-99851000D01*
X182422604Y-99814454D01*
X182249534Y-99742766D01*
X182093770Y-99638688D01*
X181961312Y-99506230D01*
X181857234Y-99350466D01*
X181785546Y-99177396D01*
X181749000Y-98993667D01*
X181749000Y-98806333D01*
X181785546Y-98622604D01*
X181857234Y-98449534D01*
X181961312Y-98293770D01*
X182093770Y-98161312D01*
X182249534Y-98057234D01*
X182422604Y-97985546D01*
X182606333Y-97949000D01*
X182793667Y-97949000D01*
X182977396Y-97985546D01*
X182977396Y-97985546D01*
G37*
G36*
X106848228Y-98081703D02*
X107003100Y-98145853D01*
X107142481Y-98238985D01*
X107261015Y-98357519D01*
X107354147Y-98496900D01*
X107418297Y-98651772D01*
X107451000Y-98816184D01*
X107451000Y-98983816D01*
X107418297Y-99148228D01*
X107354147Y-99303100D01*
X107261015Y-99442481D01*
X107142481Y-99561015D01*
X107003100Y-99654147D01*
X106848228Y-99718297D01*
X106683816Y-99751000D01*
X106516184Y-99751000D01*
X106351772Y-99718297D01*
X106196900Y-99654147D01*
X106057519Y-99561015D01*
X105938985Y-99442481D01*
X105845853Y-99303100D01*
X105781703Y-99148228D01*
X105749000Y-98983816D01*
X105749000Y-98816184D01*
X105781703Y-98651772D01*
X105845853Y-98496900D01*
X105938985Y-98357519D01*
X106057519Y-98238985D01*
X106196900Y-98145853D01*
X106351772Y-98081703D01*
X106516184Y-98049000D01*
X106683816Y-98049000D01*
X106848228Y-98081703D01*
X106848228Y-98081703D01*
G37*
G36*
X98369375Y-97186009D02*
X98517335Y-97247297D01*
X98584363Y-97292084D01*
X98650490Y-97336268D01*
X98763732Y-97449510D01*
X98852704Y-97582667D01*
X98866587Y-97616184D01*
X98913991Y-97730625D01*
X98945233Y-97887692D01*
X98945233Y-98047842D01*
X98913991Y-98204909D01*
X98877183Y-98293770D01*
X98852704Y-98352867D01*
X98775364Y-98468616D01*
X98763731Y-98486025D01*
X98650491Y-98599265D01*
X98517335Y-98688237D01*
X98369375Y-98749525D01*
X98212308Y-98780767D01*
X98052158Y-98780767D01*
X97895091Y-98749525D01*
X97747131Y-98688237D01*
X97613975Y-98599265D01*
X97500735Y-98486025D01*
X97489103Y-98468616D01*
X97411762Y-98352867D01*
X97387283Y-98293770D01*
X97350475Y-98204909D01*
X97319233Y-98047842D01*
X97319233Y-97887692D01*
X97350475Y-97730625D01*
X97397879Y-97616184D01*
X97411762Y-97582667D01*
X97500734Y-97449510D01*
X97613976Y-97336268D01*
X97680103Y-97292084D01*
X97747131Y-97247297D01*
X97895091Y-97186009D01*
X98052158Y-97154767D01*
X98212308Y-97154767D01*
X98369375Y-97186009D01*
X98369375Y-97186009D01*
G37*
G36*
X181209629Y-96217779D02*
X181382699Y-96289467D01*
X181538463Y-96393545D01*
X181670921Y-96526003D01*
X181774999Y-96681767D01*
X181846687Y-96854837D01*
X181883233Y-97038566D01*
X181883233Y-97225900D01*
X181846687Y-97409629D01*
X181774999Y-97582699D01*
X181670921Y-97738463D01*
X181538463Y-97870921D01*
X181382699Y-97974999D01*
X181209629Y-98046687D01*
X181025900Y-98083233D01*
X180838566Y-98083233D01*
X180654837Y-98046687D01*
X180481767Y-97974999D01*
X180326003Y-97870921D01*
X180193545Y-97738463D01*
X180089467Y-97582699D01*
X180017779Y-97409629D01*
X179981233Y-97225900D01*
X179981233Y-97038566D01*
X180017779Y-96854837D01*
X180089467Y-96681767D01*
X180193545Y-96526003D01*
X180326003Y-96393545D01*
X180481767Y-96289467D01*
X180654837Y-96217779D01*
X180838566Y-96181233D01*
X181025900Y-96181233D01*
X181209629Y-96217779D01*
X181209629Y-96217779D01*
G37*
G36*
X189591502Y-93321573D02*
X189591504Y-93321574D01*
X189591505Y-93321574D01*
X189964763Y-93476182D01*
X190225610Y-93650475D01*
X190300689Y-93700641D01*
X190586364Y-93986316D01*
X190586366Y-93986319D01*
X190810823Y-94322242D01*
X190963668Y-94691244D01*
X190965432Y-94695503D01*
X191044250Y-95091748D01*
X191044250Y-95495762D01*
X191002319Y-95706565D01*
X190965431Y-95892010D01*
X190810823Y-96265268D01*
X190663091Y-96486364D01*
X190586364Y-96601194D01*
X190300689Y-96886869D01*
X190300686Y-96886871D01*
X189964763Y-97111328D01*
X189591505Y-97265936D01*
X189591504Y-97265936D01*
X189591502Y-97265937D01*
X189195257Y-97344755D01*
X188791243Y-97344755D01*
X188394998Y-97265937D01*
X188394996Y-97265936D01*
X188394995Y-97265936D01*
X188021737Y-97111328D01*
X187685814Y-96886871D01*
X187685811Y-96886869D01*
X187400136Y-96601194D01*
X187323409Y-96486364D01*
X187175677Y-96265268D01*
X187021069Y-95892010D01*
X186984182Y-95706565D01*
X186942250Y-95495762D01*
X186942250Y-95091748D01*
X187021068Y-94695503D01*
X187022832Y-94691244D01*
X187175677Y-94322242D01*
X187400134Y-93986319D01*
X187400136Y-93986316D01*
X187685811Y-93700641D01*
X187760890Y-93650475D01*
X188021737Y-93476182D01*
X188394995Y-93321574D01*
X188394996Y-93321574D01*
X188394998Y-93321573D01*
X188791243Y-93242755D01*
X189195257Y-93242755D01*
X189591502Y-93321573D01*
X189591502Y-93321573D01*
G37*
G36*
X82204497Y-92921068D02*
X82204499Y-92921069D01*
X82204500Y-92921069D01*
X82577758Y-93075677D01*
X82827807Y-93242755D01*
X82913684Y-93300136D01*
X83199359Y-93585811D01*
X83199361Y-93585814D01*
X83423818Y-93921737D01*
X83568063Y-94269976D01*
X83578427Y-94294998D01*
X83657245Y-94691243D01*
X83657245Y-95095257D01*
X83585065Y-95458133D01*
X83578426Y-95491505D01*
X83423818Y-95864763D01*
X83212359Y-96181233D01*
X83199359Y-96200689D01*
X82913684Y-96486364D01*
X82913681Y-96486366D01*
X82577758Y-96710823D01*
X82204500Y-96865431D01*
X82204499Y-96865431D01*
X82204497Y-96865432D01*
X81808252Y-96944250D01*
X81404238Y-96944250D01*
X81007993Y-96865432D01*
X81007991Y-96865431D01*
X81007990Y-96865431D01*
X80634732Y-96710823D01*
X80298809Y-96486366D01*
X80298806Y-96486364D01*
X80013131Y-96200689D01*
X80000131Y-96181233D01*
X79788672Y-95864763D01*
X79634064Y-95491505D01*
X79627426Y-95458133D01*
X79555245Y-95095257D01*
X79555245Y-94691243D01*
X79634063Y-94294998D01*
X79644427Y-94269976D01*
X79788672Y-93921737D01*
X80013129Y-93585814D01*
X80013131Y-93585811D01*
X80298806Y-93300136D01*
X80384683Y-93242755D01*
X80634732Y-93075677D01*
X81007990Y-92921069D01*
X81007991Y-92921069D01*
X81007993Y-92921068D01*
X81404238Y-92842250D01*
X81808252Y-92842250D01*
X82204497Y-92921068D01*
X82204497Y-92921068D01*
G37*
G36*
X163951000Y-96451000D02*
X161849000Y-96451000D01*
X161849000Y-94349000D01*
X163951000Y-94349000D01*
X163951000Y-96451000D01*
X163951000Y-96451000D01*
G37*
G36*
X168206565Y-94389389D02*
X168397834Y-94468615D01*
X168569976Y-94583637D01*
X168716363Y-94730024D01*
X168831385Y-94902166D01*
X168910611Y-95093435D01*
X168951000Y-95296484D01*
X168951000Y-95503516D01*
X168910611Y-95706565D01*
X168831385Y-95897834D01*
X168716363Y-96069976D01*
X168569976Y-96216363D01*
X168397834Y-96331385D01*
X168206565Y-96410611D01*
X168003516Y-96451000D01*
X167796484Y-96451000D01*
X167593435Y-96410611D01*
X167402166Y-96331385D01*
X167230024Y-96216363D01*
X167083637Y-96069976D01*
X166968615Y-95897834D01*
X166889389Y-95706565D01*
X166849000Y-95503516D01*
X166849000Y-95296484D01*
X166889389Y-95093435D01*
X166968615Y-94902166D01*
X167083637Y-94730024D01*
X167230024Y-94583637D01*
X167402166Y-94468615D01*
X167593435Y-94389389D01*
X167796484Y-94349000D01*
X168003516Y-94349000D01*
X168206565Y-94389389D01*
X168206565Y-94389389D01*
G37*
G36*
X179441862Y-94450012D02*
X179614932Y-94521700D01*
X179770696Y-94625778D01*
X179903154Y-94758236D01*
X180007232Y-94914000D01*
X180078920Y-95087070D01*
X180115466Y-95270799D01*
X180115466Y-95458133D01*
X180078920Y-95641862D01*
X180007232Y-95814932D01*
X179903154Y-95970696D01*
X179770696Y-96103154D01*
X179614932Y-96207232D01*
X179441862Y-96278920D01*
X179258133Y-96315466D01*
X179070799Y-96315466D01*
X178887070Y-96278920D01*
X178714000Y-96207232D01*
X178558236Y-96103154D01*
X178425778Y-95970696D01*
X178321700Y-95814932D01*
X178250012Y-95641862D01*
X178213466Y-95458133D01*
X178213466Y-95270799D01*
X178250012Y-95087070D01*
X178321700Y-94914000D01*
X178425778Y-94758236D01*
X178558236Y-94625778D01*
X178714000Y-94521700D01*
X178887070Y-94450012D01*
X179070799Y-94413466D01*
X179258133Y-94413466D01*
X179441862Y-94450012D01*
X179441862Y-94450012D01*
G37*
G36*
X98369375Y-93650475D02*
X98483816Y-93697879D01*
X98497421Y-93703514D01*
X98517335Y-93711763D01*
X98584363Y-93756550D01*
X98650490Y-93800734D01*
X98763732Y-93913976D01*
X98807916Y-93980103D01*
X98852703Y-94047131D01*
X98913991Y-94195091D01*
X98945233Y-94352158D01*
X98945233Y-94512308D01*
X98913991Y-94669375D01*
X98852703Y-94817335D01*
X98763731Y-94950491D01*
X98650491Y-95063731D01*
X98517335Y-95152703D01*
X98369375Y-95213991D01*
X98212308Y-95245233D01*
X98052158Y-95245233D01*
X97895091Y-95213991D01*
X97747131Y-95152703D01*
X97613975Y-95063731D01*
X97500735Y-94950491D01*
X97411763Y-94817335D01*
X97350475Y-94669375D01*
X97319233Y-94512308D01*
X97319233Y-94352158D01*
X97350475Y-94195091D01*
X97411763Y-94047131D01*
X97456550Y-93980103D01*
X97500734Y-93913976D01*
X97613976Y-93800734D01*
X97680103Y-93756550D01*
X97747131Y-93711763D01*
X97767046Y-93703514D01*
X97780650Y-93697879D01*
X97895091Y-93650475D01*
X98052158Y-93619233D01*
X98212308Y-93619233D01*
X98369375Y-93650475D01*
X98369375Y-93650475D01*
G37*
G36*
X101904909Y-93650475D02*
X102019350Y-93697879D01*
X102032955Y-93703514D01*
X102052869Y-93711763D01*
X102119897Y-93756550D01*
X102186024Y-93800734D01*
X102299266Y-93913976D01*
X102343450Y-93980103D01*
X102388237Y-94047131D01*
X102449525Y-94195091D01*
X102480767Y-94352158D01*
X102480767Y-94512308D01*
X102449525Y-94669375D01*
X102388237Y-94817335D01*
X102299265Y-94950491D01*
X102186025Y-95063731D01*
X102052869Y-95152703D01*
X101904909Y-95213991D01*
X101747842Y-95245233D01*
X101587692Y-95245233D01*
X101430625Y-95213991D01*
X101282665Y-95152703D01*
X101149509Y-95063731D01*
X101036269Y-94950491D01*
X100947297Y-94817335D01*
X100886009Y-94669375D01*
X100854767Y-94512308D01*
X100854767Y-94352158D01*
X100886009Y-94195091D01*
X100947297Y-94047131D01*
X100992084Y-93980103D01*
X101036268Y-93913976D01*
X101149510Y-93800734D01*
X101215637Y-93756550D01*
X101282665Y-93711763D01*
X101302580Y-93703514D01*
X101316184Y-93697879D01*
X101430625Y-93650475D01*
X101587692Y-93619233D01*
X101747842Y-93619233D01*
X101904909Y-93650475D01*
X101904909Y-93650475D01*
G37*
G36*
X106906565Y-92589389D02*
X107097834Y-92668615D01*
X107269976Y-92783637D01*
X107416363Y-92930024D01*
X107531385Y-93102166D01*
X107610611Y-93293435D01*
X107651000Y-93496484D01*
X107651000Y-93703516D01*
X107610611Y-93906565D01*
X107531385Y-94097834D01*
X107416363Y-94269976D01*
X107269976Y-94416363D01*
X107097834Y-94531385D01*
X106906565Y-94610611D01*
X106703516Y-94651000D01*
X106496484Y-94651000D01*
X106293435Y-94610611D01*
X106102166Y-94531385D01*
X105930024Y-94416363D01*
X105783637Y-94269976D01*
X105668615Y-94097834D01*
X105589389Y-93906565D01*
X105549000Y-93703516D01*
X105549000Y-93496484D01*
X105589389Y-93293435D01*
X105668615Y-93102166D01*
X105783637Y-92930024D01*
X105930024Y-92783637D01*
X106102166Y-92668615D01*
X106293435Y-92589389D01*
X106496484Y-92549000D01*
X106703516Y-92549000D01*
X106906565Y-92589389D01*
X106906565Y-92589389D01*
G37*
G36*
X116948802Y-92769693D02*
X116948805Y-92769694D01*
X116948806Y-92769694D01*
X117109220Y-92818355D01*
X117109222Y-92818356D01*
X117109225Y-92818357D01*
X117257059Y-92897375D01*
X117386640Y-93003721D01*
X117492986Y-93133302D01*
X117572004Y-93281136D01*
X117572005Y-93281139D01*
X117572006Y-93281141D01*
X117584271Y-93321574D01*
X117620668Y-93441559D01*
X117637098Y-93608380D01*
X117620668Y-93775201D01*
X117620667Y-93775204D01*
X117620667Y-93775205D01*
X117578572Y-93913975D01*
X117572004Y-93935624D01*
X117492986Y-94083458D01*
X117386640Y-94213039D01*
X117257059Y-94319385D01*
X117109225Y-94398403D01*
X117109222Y-94398404D01*
X117109220Y-94398405D01*
X116948806Y-94447066D01*
X116948805Y-94447066D01*
X116948802Y-94447067D01*
X116823785Y-94459380D01*
X116740177Y-94459380D01*
X116615160Y-94447067D01*
X116615157Y-94447066D01*
X116615156Y-94447066D01*
X116454742Y-94398405D01*
X116454740Y-94398404D01*
X116454737Y-94398403D01*
X116306903Y-94319385D01*
X116177322Y-94213039D01*
X116070976Y-94083458D01*
X115991958Y-93935624D01*
X115985391Y-93913975D01*
X115943295Y-93775205D01*
X115943295Y-93775204D01*
X115943294Y-93775201D01*
X115926864Y-93608380D01*
X115943294Y-93441559D01*
X115979691Y-93321574D01*
X115991956Y-93281141D01*
X115991957Y-93281139D01*
X115991958Y-93281136D01*
X116070976Y-93133302D01*
X116177322Y-93003721D01*
X116306903Y-92897375D01*
X116454737Y-92818357D01*
X116454740Y-92818356D01*
X116454742Y-92818355D01*
X116615156Y-92769694D01*
X116615157Y-92769694D01*
X116615160Y-92769693D01*
X116740177Y-92757380D01*
X116823785Y-92757380D01*
X116948802Y-92769693D01*
X116948802Y-92769693D01*
G37*
G36*
X111716211Y-92769693D02*
X111716214Y-92769694D01*
X111716215Y-92769694D01*
X111876629Y-92818355D01*
X111876631Y-92818356D01*
X111876634Y-92818357D01*
X112024468Y-92897375D01*
X112154049Y-93003721D01*
X112260395Y-93133302D01*
X112339413Y-93281136D01*
X112339414Y-93281139D01*
X112339415Y-93281141D01*
X112351680Y-93321574D01*
X112388077Y-93441559D01*
X112404507Y-93608380D01*
X112388077Y-93775201D01*
X112388076Y-93775204D01*
X112388076Y-93775205D01*
X112345981Y-93913975D01*
X112339413Y-93935624D01*
X112260395Y-94083458D01*
X112154049Y-94213039D01*
X112024468Y-94319385D01*
X111876634Y-94398403D01*
X111876631Y-94398404D01*
X111876629Y-94398405D01*
X111716215Y-94447066D01*
X111716214Y-94447066D01*
X111716211Y-94447067D01*
X111591194Y-94459380D01*
X111507586Y-94459380D01*
X111382569Y-94447067D01*
X111382566Y-94447066D01*
X111382565Y-94447066D01*
X111222151Y-94398405D01*
X111222149Y-94398404D01*
X111222146Y-94398403D01*
X111074312Y-94319385D01*
X110944731Y-94213039D01*
X110838385Y-94083458D01*
X110759367Y-93935624D01*
X110752800Y-93913975D01*
X110710704Y-93775205D01*
X110710704Y-93775204D01*
X110710703Y-93775201D01*
X110694273Y-93608380D01*
X110710703Y-93441559D01*
X110747100Y-93321574D01*
X110759365Y-93281141D01*
X110759366Y-93281139D01*
X110759367Y-93281136D01*
X110838385Y-93133302D01*
X110944731Y-93003721D01*
X111074312Y-92897375D01*
X111222146Y-92818357D01*
X111222149Y-92818356D01*
X111222151Y-92818355D01*
X111382565Y-92769694D01*
X111382566Y-92769694D01*
X111382569Y-92769693D01*
X111507586Y-92757380D01*
X111591194Y-92757380D01*
X111716211Y-92769693D01*
X111716211Y-92769693D01*
G37*
G36*
X183368963Y-87099034D02*
X183368965Y-87099035D01*
X183368966Y-87099035D01*
X183742224Y-87253643D01*
X183992625Y-87420956D01*
X184078150Y-87478102D01*
X184363825Y-87763777D01*
X184363827Y-87763780D01*
X184588284Y-88099703D01*
X184741129Y-88468705D01*
X184742893Y-88472964D01*
X184821711Y-88869209D01*
X184821711Y-89273223D01*
X184759853Y-89584205D01*
X184742892Y-89669471D01*
X184588284Y-90042729D01*
X184440552Y-90263825D01*
X184363825Y-90378655D01*
X184078150Y-90664330D01*
X184078147Y-90664332D01*
X183742224Y-90888789D01*
X183368966Y-91043397D01*
X183368965Y-91043397D01*
X183368963Y-91043398D01*
X182972718Y-91122216D01*
X182568704Y-91122216D01*
X182172459Y-91043398D01*
X182172457Y-91043397D01*
X182172456Y-91043397D01*
X181799198Y-90888789D01*
X181463275Y-90664332D01*
X181463272Y-90664330D01*
X181177597Y-90378655D01*
X181100870Y-90263825D01*
X180953138Y-90042729D01*
X180798530Y-89669471D01*
X180781570Y-89584205D01*
X180719711Y-89273223D01*
X180719711Y-88869209D01*
X180798529Y-88472964D01*
X180800293Y-88468705D01*
X180953138Y-88099703D01*
X181177595Y-87763780D01*
X181177597Y-87763777D01*
X181463272Y-87478102D01*
X181548797Y-87420956D01*
X181799198Y-87253643D01*
X182172456Y-87099035D01*
X182172457Y-87099035D01*
X182172459Y-87099034D01*
X182568704Y-87020216D01*
X182972718Y-87020216D01*
X183368963Y-87099034D01*
X183368963Y-87099034D01*
G37*
G36*
X88427036Y-86698529D02*
X88427038Y-86698530D01*
X88427039Y-86698530D01*
X88800297Y-86853138D01*
X89131689Y-87074568D01*
X89136223Y-87077597D01*
X89421898Y-87363272D01*
X89421900Y-87363275D01*
X89646357Y-87699198D01*
X89785243Y-88034500D01*
X89800966Y-88072459D01*
X89879784Y-88468704D01*
X89879784Y-88872718D01*
X89844428Y-89050467D01*
X89800965Y-89268966D01*
X89646357Y-89642224D01*
X89573655Y-89751030D01*
X89421898Y-89978150D01*
X89136223Y-90263825D01*
X89136220Y-90263827D01*
X88800297Y-90488284D01*
X88427039Y-90642892D01*
X88427038Y-90642892D01*
X88427036Y-90642893D01*
X88030791Y-90721711D01*
X87626777Y-90721711D01*
X87230532Y-90642893D01*
X87230530Y-90642892D01*
X87230529Y-90642892D01*
X86857271Y-90488284D01*
X86521348Y-90263827D01*
X86521345Y-90263825D01*
X86235670Y-89978150D01*
X86083913Y-89751030D01*
X86011211Y-89642224D01*
X85856603Y-89268966D01*
X85813141Y-89050467D01*
X85777784Y-88872718D01*
X85777784Y-88468704D01*
X85856602Y-88072459D01*
X85872325Y-88034500D01*
X86011211Y-87699198D01*
X86235668Y-87363275D01*
X86235670Y-87363272D01*
X86521345Y-87077597D01*
X86525879Y-87074568D01*
X86857271Y-86853138D01*
X87230529Y-86698530D01*
X87230530Y-86698530D01*
X87230532Y-86698529D01*
X87626777Y-86619711D01*
X88030791Y-86619711D01*
X88427036Y-86698529D01*
X88427036Y-86698529D01*
G37*
G36*
X103651026Y-88745518D02*
X103651029Y-88745519D01*
X103651030Y-88745519D01*
X103811444Y-88794180D01*
X103811446Y-88794181D01*
X103811449Y-88794182D01*
X103959283Y-88873200D01*
X104088864Y-88979546D01*
X104195210Y-89109127D01*
X104274228Y-89256961D01*
X104274229Y-89256964D01*
X104274230Y-89256966D01*
X104322891Y-89417380D01*
X104322892Y-89417384D01*
X104339322Y-89584205D01*
X104322892Y-89751026D01*
X104274228Y-89911449D01*
X104195210Y-90059283D01*
X104088864Y-90188864D01*
X103959283Y-90295210D01*
X103811449Y-90374228D01*
X103811446Y-90374229D01*
X103811444Y-90374230D01*
X103651030Y-90422891D01*
X103651029Y-90422891D01*
X103651026Y-90422892D01*
X103526009Y-90435205D01*
X103442401Y-90435205D01*
X103317384Y-90422892D01*
X103317381Y-90422891D01*
X103317380Y-90422891D01*
X103156966Y-90374230D01*
X103156964Y-90374229D01*
X103156961Y-90374228D01*
X103009127Y-90295210D01*
X102879546Y-90188864D01*
X102773200Y-90059283D01*
X102694182Y-89911449D01*
X102645518Y-89751026D01*
X102629088Y-89584205D01*
X102645518Y-89417384D01*
X102645519Y-89417380D01*
X102694180Y-89256966D01*
X102694181Y-89256964D01*
X102694182Y-89256961D01*
X102773200Y-89109127D01*
X102879546Y-88979546D01*
X103009127Y-88873200D01*
X103156961Y-88794182D01*
X103156964Y-88794181D01*
X103156966Y-88794180D01*
X103317380Y-88745519D01*
X103317381Y-88745519D01*
X103317384Y-88745518D01*
X103442401Y-88733205D01*
X103526009Y-88733205D01*
X103651026Y-88745518D01*
X103651026Y-88745518D01*
G37*
G36*
X78277396Y-87685546D02*
X78450466Y-87757234D01*
X78606230Y-87861312D01*
X78738688Y-87993770D01*
X78842766Y-88149534D01*
X78914454Y-88322604D01*
X78951000Y-88506333D01*
X78951000Y-88693667D01*
X78914454Y-88877396D01*
X78842766Y-89050466D01*
X78738688Y-89206230D01*
X78606230Y-89338688D01*
X78450466Y-89442766D01*
X78277396Y-89514454D01*
X78093667Y-89551000D01*
X77906333Y-89551000D01*
X77722604Y-89514454D01*
X77549534Y-89442766D01*
X77393770Y-89338688D01*
X77261312Y-89206230D01*
X77157234Y-89050466D01*
X77085546Y-88877396D01*
X77049000Y-88693667D01*
X77049000Y-88506333D01*
X77085546Y-88322604D01*
X77157234Y-88149534D01*
X77261312Y-87993770D01*
X77393770Y-87861312D01*
X77549534Y-87757234D01*
X77722604Y-87685546D01*
X77906333Y-87649000D01*
X78093667Y-87649000D01*
X78277396Y-87685546D01*
X78277396Y-87685546D01*
G37*
G36*
X122454472Y-86815938D02*
X122582049Y-86868782D01*
X122696865Y-86945500D01*
X122794500Y-87043135D01*
X122871218Y-87157951D01*
X122924062Y-87285528D01*
X122951000Y-87420956D01*
X122951000Y-87559044D01*
X122924062Y-87694472D01*
X122871218Y-87822049D01*
X122794500Y-87936865D01*
X122696865Y-88034500D01*
X122582049Y-88111218D01*
X122454472Y-88164062D01*
X122319044Y-88191000D01*
X122180956Y-88191000D01*
X122045528Y-88164062D01*
X121917951Y-88111218D01*
X121803135Y-88034500D01*
X121705500Y-87936865D01*
X121628782Y-87822049D01*
X121575938Y-87694472D01*
X121549000Y-87559044D01*
X121549000Y-87420956D01*
X121575938Y-87285528D01*
X121628782Y-87157951D01*
X121705500Y-87043135D01*
X121803135Y-86945500D01*
X121917951Y-86868782D01*
X122045528Y-86815938D01*
X122180956Y-86789000D01*
X122319044Y-86789000D01*
X122454472Y-86815938D01*
X122454472Y-86815938D01*
G37*
G36*
X80045163Y-85917779D02*
X80218233Y-85989467D01*
X80373997Y-86093545D01*
X80506455Y-86226003D01*
X80610533Y-86381767D01*
X80682221Y-86554837D01*
X80718767Y-86738566D01*
X80718767Y-86925900D01*
X80682221Y-87109629D01*
X80610533Y-87282699D01*
X80506455Y-87438463D01*
X80373997Y-87570921D01*
X80218233Y-87674999D01*
X80045163Y-87746687D01*
X79861434Y-87783233D01*
X79674100Y-87783233D01*
X79490371Y-87746687D01*
X79317301Y-87674999D01*
X79161537Y-87570921D01*
X79029079Y-87438463D01*
X78925001Y-87282699D01*
X78853313Y-87109629D01*
X78816767Y-86925900D01*
X78816767Y-86738566D01*
X78853313Y-86554837D01*
X78925001Y-86381767D01*
X79029079Y-86226003D01*
X79161537Y-86093545D01*
X79317301Y-85989467D01*
X79490371Y-85917779D01*
X79674100Y-85881233D01*
X79861434Y-85881233D01*
X80045163Y-85917779D01*
X80045163Y-85917779D01*
G37*
G36*
X149652527Y-84088736D02*
X149752410Y-84108604D01*
X150034674Y-84225521D01*
X150288705Y-84395259D01*
X150504741Y-84611295D01*
X150674479Y-84865326D01*
X150749994Y-85047637D01*
X150791396Y-85147591D01*
X150851000Y-85447238D01*
X150851000Y-85752762D01*
X150834800Y-85834205D01*
X150791396Y-86052410D01*
X150674479Y-86334674D01*
X150504741Y-86588705D01*
X150288705Y-86804741D01*
X150034674Y-86974479D01*
X149752410Y-87091396D01*
X149660746Y-87109629D01*
X149452762Y-87151000D01*
X149147238Y-87151000D01*
X148939254Y-87109629D01*
X148847590Y-87091396D01*
X148565326Y-86974479D01*
X148311295Y-86804741D01*
X148095259Y-86588705D01*
X147925521Y-86334674D01*
X147808604Y-86052410D01*
X147765200Y-85834205D01*
X147749000Y-85752762D01*
X147749000Y-85447238D01*
X147808604Y-85147591D01*
X147850006Y-85047637D01*
X147925521Y-84865326D01*
X148095259Y-84611295D01*
X148311295Y-84395259D01*
X148565326Y-84225521D01*
X148847590Y-84108604D01*
X148947473Y-84088736D01*
X149147238Y-84049000D01*
X149452762Y-84049000D01*
X149652527Y-84088736D01*
X149652527Y-84088736D01*
G37*
G36*
X138108385Y-84689867D02*
X138209840Y-84699859D01*
X138426805Y-84765675D01*
X138426807Y-84765676D01*
X138426810Y-84765677D01*
X138626761Y-84872552D01*
X138802023Y-85016387D01*
X138945858Y-85191649D01*
X139052733Y-85391600D01*
X139052734Y-85391603D01*
X139052735Y-85391605D01*
X139118551Y-85608570D01*
X139140774Y-85834205D01*
X139118551Y-86059840D01*
X139052735Y-86276805D01*
X139052733Y-86276810D01*
X138945858Y-86476761D01*
X138802023Y-86652023D01*
X138626761Y-86795858D01*
X138426810Y-86902733D01*
X138426807Y-86902734D01*
X138426805Y-86902735D01*
X138209840Y-86968551D01*
X138108385Y-86978543D01*
X138040750Y-86985205D01*
X137927660Y-86985205D01*
X137860025Y-86978543D01*
X137758570Y-86968551D01*
X137541605Y-86902735D01*
X137541603Y-86902734D01*
X137541600Y-86902733D01*
X137341649Y-86795858D01*
X137166387Y-86652023D01*
X137022552Y-86476761D01*
X136915677Y-86276810D01*
X136915675Y-86276805D01*
X136849859Y-86059840D01*
X136827636Y-85834205D01*
X136849859Y-85608570D01*
X136915675Y-85391605D01*
X136915676Y-85391603D01*
X136915677Y-85391600D01*
X137022552Y-85191649D01*
X137166387Y-85016387D01*
X137341649Y-84872552D01*
X137541600Y-84765677D01*
X137541603Y-84765676D01*
X137541605Y-84765675D01*
X137758570Y-84699859D01*
X137860025Y-84689867D01*
X137927660Y-84683205D01*
X138040750Y-84683205D01*
X138108385Y-84689867D01*
X138108385Y-84689867D01*
G37*
G36*
X122951000Y-85523249D02*
X122953402Y-85547635D01*
X122960515Y-85571084D01*
X122972066Y-85592695D01*
X122987612Y-85611637D01*
X123006554Y-85627183D01*
X123028165Y-85638734D01*
X123051614Y-85645847D01*
X123076000Y-85648249D01*
X123100386Y-85645847D01*
X123123835Y-85638734D01*
X123145446Y-85627183D01*
X123187951Y-85598782D01*
X123315528Y-85545938D01*
X123450956Y-85519000D01*
X123589044Y-85519000D01*
X123724472Y-85545938D01*
X123852049Y-85598782D01*
X123966865Y-85675500D01*
X124064500Y-85773135D01*
X124141218Y-85887951D01*
X124194062Y-86015528D01*
X124221000Y-86150956D01*
X124221000Y-86289044D01*
X124194062Y-86424472D01*
X124141218Y-86552049D01*
X124064500Y-86666865D01*
X123966865Y-86764500D01*
X123852049Y-86841218D01*
X123724472Y-86894062D01*
X123589044Y-86921000D01*
X123450956Y-86921000D01*
X123315528Y-86894062D01*
X123187951Y-86841218D01*
X123073135Y-86764500D01*
X122975500Y-86666865D01*
X122898782Y-86552049D01*
X122845938Y-86424472D01*
X122819000Y-86289044D01*
X122819000Y-86150956D01*
X122845938Y-86015528D01*
X122898782Y-85887951D01*
X122927183Y-85845446D01*
X122938734Y-85823835D01*
X122945847Y-85800386D01*
X122948249Y-85776000D01*
X122945847Y-85751614D01*
X122938734Y-85728164D01*
X122927183Y-85706554D01*
X122911637Y-85687612D01*
X122892695Y-85672066D01*
X122871084Y-85660515D01*
X122847635Y-85653402D01*
X122823249Y-85651000D01*
X121549000Y-85651000D01*
X121549000Y-84249000D01*
X122951000Y-84249000D01*
X122951000Y-85523249D01*
X122951000Y-85523249D01*
G37*
G36*
X81812930Y-84150012D02*
X81986000Y-84221700D01*
X82141764Y-84325778D01*
X82274222Y-84458236D01*
X82378300Y-84614000D01*
X82449988Y-84787070D01*
X82486534Y-84970799D01*
X82486534Y-85158133D01*
X82449988Y-85341862D01*
X82378300Y-85514932D01*
X82274222Y-85670696D01*
X82141764Y-85803154D01*
X81986000Y-85907232D01*
X81812930Y-85978920D01*
X81629201Y-86015466D01*
X81441867Y-86015466D01*
X81258138Y-85978920D01*
X81085068Y-85907232D01*
X80929304Y-85803154D01*
X80796846Y-85670696D01*
X80692768Y-85514932D01*
X80621080Y-85341862D01*
X80584534Y-85158133D01*
X80584534Y-84970799D01*
X80621080Y-84787070D01*
X80692768Y-84614000D01*
X80796846Y-84458236D01*
X80929304Y-84325778D01*
X81085068Y-84221700D01*
X81258138Y-84150012D01*
X81441867Y-84113466D01*
X81629201Y-84113466D01*
X81812930Y-84150012D01*
X81812930Y-84150012D01*
G37*
G36*
X105248480Y-84041526D02*
X105376057Y-84094370D01*
X105490873Y-84171088D01*
X105588508Y-84268723D01*
X105665226Y-84383539D01*
X105718070Y-84511116D01*
X105745008Y-84646544D01*
X105745008Y-84784632D01*
X105718070Y-84920060D01*
X105665226Y-85047637D01*
X105588508Y-85162453D01*
X105490873Y-85260088D01*
X105376057Y-85336806D01*
X105248480Y-85389650D01*
X105113052Y-85416588D01*
X104974964Y-85416588D01*
X104839536Y-85389650D01*
X104711959Y-85336806D01*
X104597143Y-85260088D01*
X104499508Y-85162453D01*
X104422790Y-85047637D01*
X104369946Y-84920060D01*
X104343008Y-84784632D01*
X104343008Y-84646544D01*
X104369946Y-84511116D01*
X104422790Y-84383539D01*
X104499508Y-84268723D01*
X104597143Y-84171088D01*
X104711959Y-84094370D01*
X104839536Y-84041526D01*
X104974964Y-84014588D01*
X105113052Y-84014588D01*
X105248480Y-84041526D01*
X105248480Y-84041526D01*
G37*
G36*
X117030209Y-82630083D02*
X117185081Y-82694233D01*
X117324462Y-82787365D01*
X117442996Y-82905899D01*
X117536128Y-83045280D01*
X117600278Y-83200152D01*
X117632981Y-83364564D01*
X117632981Y-83532196D01*
X117600278Y-83696608D01*
X117536128Y-83851480D01*
X117442996Y-83990861D01*
X117324462Y-84109395D01*
X117185081Y-84202527D01*
X117030209Y-84266677D01*
X116865797Y-84299380D01*
X116698165Y-84299380D01*
X116533753Y-84266677D01*
X116378881Y-84202527D01*
X116239500Y-84109395D01*
X116120966Y-83990861D01*
X116027834Y-83851480D01*
X115963684Y-83696608D01*
X115930981Y-83532196D01*
X115930981Y-83364564D01*
X115963684Y-83200152D01*
X116027834Y-83045280D01*
X116120966Y-82905899D01*
X116239500Y-82787365D01*
X116378881Y-82694233D01*
X116533753Y-82630083D01*
X116698165Y-82597380D01*
X116865797Y-82597380D01*
X117030209Y-82630083D01*
X117030209Y-82630083D01*
G37*
G36*
X111797618Y-82630083D02*
X111952490Y-82694233D01*
X112091871Y-82787365D01*
X112210405Y-82905899D01*
X112303537Y-83045280D01*
X112367687Y-83200152D01*
X112400390Y-83364564D01*
X112400390Y-83532196D01*
X112367687Y-83696608D01*
X112303537Y-83851480D01*
X112210405Y-83990861D01*
X112091871Y-84109395D01*
X111952490Y-84202527D01*
X111797618Y-84266677D01*
X111633206Y-84299380D01*
X111465574Y-84299380D01*
X111301162Y-84266677D01*
X111146290Y-84202527D01*
X111006909Y-84109395D01*
X110888375Y-83990861D01*
X110795243Y-83851480D01*
X110731093Y-83696608D01*
X110698390Y-83532196D01*
X110698390Y-83364564D01*
X110731093Y-83200152D01*
X110795243Y-83045280D01*
X110888375Y-82905899D01*
X111006909Y-82787365D01*
X111146290Y-82694233D01*
X111301162Y-82630083D01*
X111465574Y-82597380D01*
X111633206Y-82597380D01*
X111797618Y-82630083D01*
X111797618Y-82630083D01*
G37*
G36*
X105745008Y-82748837D02*
X105747410Y-82773223D01*
X105754523Y-82796672D01*
X105766074Y-82818283D01*
X105781620Y-82837225D01*
X105800562Y-82852771D01*
X105822173Y-82864322D01*
X105845622Y-82871435D01*
X105870008Y-82873837D01*
X105894394Y-82871435D01*
X105917843Y-82864322D01*
X105939454Y-82852771D01*
X105981959Y-82824370D01*
X106109536Y-82771526D01*
X106244964Y-82744588D01*
X106383052Y-82744588D01*
X106518480Y-82771526D01*
X106646057Y-82824370D01*
X106760873Y-82901088D01*
X106858508Y-82998723D01*
X106935226Y-83113539D01*
X106988070Y-83241116D01*
X107015008Y-83376544D01*
X107015008Y-83514632D01*
X106988070Y-83650060D01*
X106935226Y-83777637D01*
X106858508Y-83892453D01*
X106760873Y-83990088D01*
X106646057Y-84066806D01*
X106518480Y-84119650D01*
X106383052Y-84146588D01*
X106244964Y-84146588D01*
X106109536Y-84119650D01*
X105981959Y-84066806D01*
X105867143Y-83990088D01*
X105769508Y-83892453D01*
X105692790Y-83777637D01*
X105639946Y-83650060D01*
X105613008Y-83514632D01*
X105613008Y-83376544D01*
X105639946Y-83241116D01*
X105692790Y-83113539D01*
X105721191Y-83071034D01*
X105732742Y-83049423D01*
X105739855Y-83025974D01*
X105742257Y-83001588D01*
X105739855Y-82977202D01*
X105732742Y-82953752D01*
X105721191Y-82932142D01*
X105705645Y-82913200D01*
X105686703Y-82897654D01*
X105665092Y-82886103D01*
X105641643Y-82878990D01*
X105617257Y-82876588D01*
X104343008Y-82876588D01*
X104343008Y-81474588D01*
X105745008Y-81474588D01*
X105745008Y-82748837D01*
X105745008Y-82748837D01*
G37*
G36*
X96548228Y-81581703D02*
X96703100Y-81645853D01*
X96842481Y-81738985D01*
X96961015Y-81857519D01*
X97054147Y-81996900D01*
X97118297Y-82151772D01*
X97151000Y-82316184D01*
X97151000Y-82483816D01*
X97118297Y-82648228D01*
X97054147Y-82803100D01*
X96961015Y-82942481D01*
X96842481Y-83061015D01*
X96703100Y-83154147D01*
X96548228Y-83218297D01*
X96383816Y-83251000D01*
X96216184Y-83251000D01*
X96051772Y-83218297D01*
X95896900Y-83154147D01*
X95757519Y-83061015D01*
X95638985Y-82942481D01*
X95545853Y-82803100D01*
X95481703Y-82648228D01*
X95449000Y-82483816D01*
X95449000Y-82316184D01*
X95481703Y-82151772D01*
X95545853Y-81996900D01*
X95638985Y-81857519D01*
X95757519Y-81738985D01*
X95896900Y-81645853D01*
X96051772Y-81581703D01*
X96216184Y-81549000D01*
X96383816Y-81549000D01*
X96548228Y-81581703D01*
X96548228Y-81581703D01*
G37*
G36*
X161927901Y-78516735D02*
X162027784Y-78536603D01*
X162310048Y-78653520D01*
X162564079Y-78823258D01*
X162780115Y-79039294D01*
X162949853Y-79293325D01*
X163066770Y-79575589D01*
X163066770Y-79575590D01*
X163126374Y-79875237D01*
X163126374Y-80180761D01*
X163107079Y-80277761D01*
X163066770Y-80480409D01*
X162949853Y-80762673D01*
X162780115Y-81016704D01*
X162564079Y-81232740D01*
X162310048Y-81402478D01*
X162027784Y-81519395D01*
X161927901Y-81539263D01*
X161728136Y-81578999D01*
X161422612Y-81578999D01*
X161222847Y-81539263D01*
X161122964Y-81519395D01*
X160840700Y-81402478D01*
X160586669Y-81232740D01*
X160370633Y-81016704D01*
X160200895Y-80762673D01*
X160083978Y-80480409D01*
X160043669Y-80277761D01*
X160024374Y-80180761D01*
X160024374Y-79875237D01*
X160083978Y-79575590D01*
X160083978Y-79575589D01*
X160200895Y-79293325D01*
X160370633Y-79039294D01*
X160586669Y-78823258D01*
X160840700Y-78653520D01*
X161122964Y-78536603D01*
X161222847Y-78516735D01*
X161422612Y-78476999D01*
X161728136Y-78476999D01*
X161927901Y-78516735D01*
X161927901Y-78516735D01*
G37*
G36*
X132427761Y-78650000D02*
X130800000Y-80277761D01*
X129172239Y-78650000D01*
X130800000Y-77022239D01*
X132427761Y-78650000D01*
X132427761Y-78650000D01*
G37*
G36*
X103098228Y-76881703D02*
X103253100Y-76945853D01*
X103392481Y-77038985D01*
X103511015Y-77157519D01*
X103604147Y-77296900D01*
X103668297Y-77451772D01*
X103701000Y-77616184D01*
X103701000Y-77783816D01*
X103668297Y-77948228D01*
X103604147Y-78103100D01*
X103511015Y-78242481D01*
X103392481Y-78361015D01*
X103253100Y-78454147D01*
X103098228Y-78518297D01*
X102933816Y-78551000D01*
X102766184Y-78551000D01*
X102601772Y-78518297D01*
X102446900Y-78454147D01*
X102307519Y-78361015D01*
X102188985Y-78242481D01*
X102095853Y-78103100D01*
X102031703Y-77948228D01*
X101999000Y-77783816D01*
X101999000Y-77616184D01*
X102031703Y-77451772D01*
X102095853Y-77296900D01*
X102188985Y-77157519D01*
X102307519Y-77038985D01*
X102446900Y-76945853D01*
X102601772Y-76881703D01*
X102766184Y-76849000D01*
X102933816Y-76849000D01*
X103098228Y-76881703D01*
X103098228Y-76881703D01*
G37*
G36*
X140495494Y-74931703D02*
X140595377Y-74951571D01*
X140877641Y-75068488D01*
X141131672Y-75238226D01*
X141347708Y-75454262D01*
X141517446Y-75708293D01*
X141634363Y-75990557D01*
X141693967Y-76290207D01*
X141693967Y-76595727D01*
X141634363Y-76895377D01*
X141517446Y-77177641D01*
X141347708Y-77431672D01*
X141131672Y-77647708D01*
X140877641Y-77817446D01*
X140595377Y-77934363D01*
X140525673Y-77948228D01*
X140295729Y-77993967D01*
X139990205Y-77993967D01*
X139760261Y-77948228D01*
X139690557Y-77934363D01*
X139408293Y-77817446D01*
X139154262Y-77647708D01*
X138938226Y-77431672D01*
X138768488Y-77177641D01*
X138651571Y-76895377D01*
X138591967Y-76595727D01*
X138591967Y-76290207D01*
X138651571Y-75990557D01*
X138768488Y-75708293D01*
X138938226Y-75454262D01*
X139154262Y-75238226D01*
X139408293Y-75068488D01*
X139690557Y-74951571D01*
X139790440Y-74931703D01*
X139990205Y-74891967D01*
X140295729Y-74891967D01*
X140495494Y-74931703D01*
X140495494Y-74931703D01*
G37*
G36*
X111451000Y-69951000D02*
X109549000Y-69951000D01*
X109549000Y-68049000D01*
X111451000Y-68049000D01*
X111451000Y-69951000D01*
X111451000Y-69951000D01*
G37*
G36*
X103016821Y-66701313D02*
X103016824Y-66701314D01*
X103016825Y-66701314D01*
X103177239Y-66749975D01*
X103177241Y-66749976D01*
X103177244Y-66749977D01*
X103325078Y-66828995D01*
X103454659Y-66935341D01*
X103561005Y-67064922D01*
X103640023Y-67212756D01*
X103640024Y-67212759D01*
X103640025Y-67212761D01*
X103688686Y-67373175D01*
X103688687Y-67373179D01*
X103705117Y-67540000D01*
X103688687Y-67706821D01*
X103640023Y-67867244D01*
X103561005Y-68015078D01*
X103454659Y-68144659D01*
X103325078Y-68251005D01*
X103177244Y-68330023D01*
X103177241Y-68330024D01*
X103177239Y-68330025D01*
X103016825Y-68378686D01*
X103016824Y-68378686D01*
X103016821Y-68378687D01*
X102891804Y-68391000D01*
X102808196Y-68391000D01*
X102683179Y-68378687D01*
X102683176Y-68378686D01*
X102683175Y-68378686D01*
X102522761Y-68330025D01*
X102522759Y-68330024D01*
X102522756Y-68330023D01*
X102374922Y-68251005D01*
X102245341Y-68144659D01*
X102138995Y-68015078D01*
X102059977Y-67867244D01*
X102011313Y-67706821D01*
X101994883Y-67540000D01*
X102011313Y-67373179D01*
X102011314Y-67373175D01*
X102059975Y-67212761D01*
X102059976Y-67212759D01*
X102059977Y-67212756D01*
X102138995Y-67064922D01*
X102245341Y-66935341D01*
X102374922Y-66828995D01*
X102522756Y-66749977D01*
X102522759Y-66749976D01*
X102522761Y-66749975D01*
X102683175Y-66701314D01*
X102683176Y-66701314D01*
X102683179Y-66701313D01*
X102808196Y-66689000D01*
X102891804Y-66689000D01*
X103016821Y-66701313D01*
X103016821Y-66701313D01*
G37*
G36*
X110777396Y-65545546D02*
X110950466Y-65617234D01*
X111106230Y-65721312D01*
X111238688Y-65853770D01*
X111342766Y-66009534D01*
X111414454Y-66182604D01*
X111451000Y-66366333D01*
X111451000Y-66553667D01*
X111414454Y-66737396D01*
X111342766Y-66910466D01*
X111238688Y-67066230D01*
X111106230Y-67198688D01*
X110950466Y-67302766D01*
X110777396Y-67374454D01*
X110593667Y-67411000D01*
X110406333Y-67411000D01*
X110222604Y-67374454D01*
X110049534Y-67302766D01*
X109893770Y-67198688D01*
X109761312Y-67066230D01*
X109657234Y-66910466D01*
X109585546Y-66737396D01*
X109549000Y-66553667D01*
X109549000Y-66366333D01*
X109585546Y-66182604D01*
X109657234Y-66009534D01*
X109761312Y-65853770D01*
X109893770Y-65721312D01*
X110049534Y-65617234D01*
X110222604Y-65545546D01*
X110406333Y-65509000D01*
X110593667Y-65509000D01*
X110777396Y-65545546D01*
X110777396Y-65545546D01*
G37*
G36*
X180927860Y-59516775D02*
X181027743Y-59536643D01*
X181310007Y-59653560D01*
X181564038Y-59823298D01*
X181780074Y-60039334D01*
X181949812Y-60293365D01*
X182066729Y-60575629D01*
X182126333Y-60875279D01*
X182126333Y-61180799D01*
X182066729Y-61480449D01*
X181949812Y-61762713D01*
X181780074Y-62016744D01*
X181564038Y-62232780D01*
X181310007Y-62402518D01*
X181027743Y-62519435D01*
X180927860Y-62539303D01*
X180728095Y-62579039D01*
X180422571Y-62579039D01*
X180222806Y-62539303D01*
X180122923Y-62519435D01*
X179840659Y-62402518D01*
X179586628Y-62232780D01*
X179370592Y-62016744D01*
X179200854Y-61762713D01*
X179083937Y-61480449D01*
X179024333Y-61180799D01*
X179024333Y-60875279D01*
X179083937Y-60575629D01*
X179200854Y-60293365D01*
X179370592Y-60039334D01*
X179586628Y-59823298D01*
X179840659Y-59653560D01*
X180122923Y-59536643D01*
X180222806Y-59516775D01*
X180422571Y-59477039D01*
X180728095Y-59477039D01*
X180927860Y-59516775D01*
X180927860Y-59516775D01*
G37*
G36*
X97448228Y-60531703D02*
X97603100Y-60595853D01*
X97742481Y-60688985D01*
X97861015Y-60807519D01*
X97954147Y-60946900D01*
X98018297Y-61101772D01*
X98051000Y-61266184D01*
X98051000Y-61433816D01*
X98018297Y-61598228D01*
X97954147Y-61753100D01*
X97861015Y-61892481D01*
X97742481Y-62011015D01*
X97603100Y-62104147D01*
X97448228Y-62168297D01*
X97283816Y-62201000D01*
X97116184Y-62201000D01*
X96951772Y-62168297D01*
X96796900Y-62104147D01*
X96657519Y-62011015D01*
X96538985Y-61892481D01*
X96445853Y-61753100D01*
X96381703Y-61598228D01*
X96349000Y-61433816D01*
X96349000Y-61266184D01*
X96381703Y-61101772D01*
X96445853Y-60946900D01*
X96538985Y-60807519D01*
X96657519Y-60688985D01*
X96796900Y-60595853D01*
X96951772Y-60531703D01*
X97116184Y-60499000D01*
X97283816Y-60499000D01*
X97448228Y-60531703D01*
X97448228Y-60531703D01*
G37*
G36*
X128025866Y-60498105D02*
X128025869Y-60498106D01*
X128025870Y-60498106D01*
X128186284Y-60546767D01*
X128186286Y-60546768D01*
X128186289Y-60546769D01*
X128334123Y-60625787D01*
X128463704Y-60732133D01*
X128570050Y-60861714D01*
X128649068Y-61009548D01*
X128697732Y-61169971D01*
X128714162Y-61336792D01*
X128697732Y-61503613D01*
X128697731Y-61503616D01*
X128697731Y-61503617D01*
X128667659Y-61602752D01*
X128649068Y-61664036D01*
X128570050Y-61811870D01*
X128463704Y-61941451D01*
X128334123Y-62047797D01*
X128186289Y-62126815D01*
X128186286Y-62126816D01*
X128186284Y-62126817D01*
X128025870Y-62175478D01*
X128025869Y-62175478D01*
X128025866Y-62175479D01*
X127900849Y-62187792D01*
X127817241Y-62187792D01*
X127692224Y-62175479D01*
X127692221Y-62175478D01*
X127692220Y-62175478D01*
X127531806Y-62126817D01*
X127531804Y-62126816D01*
X127531801Y-62126815D01*
X127383967Y-62047797D01*
X127254386Y-61941451D01*
X127148040Y-61811870D01*
X127069022Y-61664036D01*
X127050432Y-61602752D01*
X127020359Y-61503617D01*
X127020359Y-61503616D01*
X127020358Y-61503613D01*
X127003928Y-61336792D01*
X127020358Y-61169971D01*
X127069022Y-61009548D01*
X127148040Y-60861714D01*
X127254386Y-60732133D01*
X127383967Y-60625787D01*
X127531801Y-60546769D01*
X127531804Y-60546768D01*
X127531806Y-60546767D01*
X127692220Y-60498106D01*
X127692221Y-60498106D01*
X127692224Y-60498105D01*
X127817241Y-60485792D01*
X127900849Y-60485792D01*
X128025866Y-60498105D01*
X128025866Y-60498105D01*
G37*
G36*
X111952752Y-60183588D02*
X110533588Y-61602752D01*
X109047248Y-60116412D01*
X110466412Y-58697248D01*
X111952752Y-60183588D01*
X111952752Y-60183588D01*
G37*
G36*
X95680461Y-58763936D02*
X95835333Y-58828086D01*
X95974714Y-58921218D01*
X96093248Y-59039752D01*
X96186380Y-59179133D01*
X96250530Y-59334005D01*
X96283233Y-59498417D01*
X96283233Y-59666049D01*
X96250530Y-59830461D01*
X96186380Y-59985333D01*
X96093248Y-60124714D01*
X95974714Y-60243248D01*
X95835333Y-60336380D01*
X95680461Y-60400530D01*
X95516049Y-60433233D01*
X95348417Y-60433233D01*
X95184005Y-60400530D01*
X95029133Y-60336380D01*
X94889752Y-60243248D01*
X94771218Y-60124714D01*
X94678086Y-59985333D01*
X94613936Y-59830461D01*
X94581233Y-59666049D01*
X94581233Y-59498417D01*
X94613936Y-59334005D01*
X94678086Y-59179133D01*
X94771218Y-59039752D01*
X94889752Y-58921218D01*
X95029133Y-58828086D01*
X95184005Y-58763936D01*
X95348417Y-58731233D01*
X95516049Y-58731233D01*
X95680461Y-58763936D01*
X95680461Y-58763936D01*
G37*
G36*
X112459183Y-57331381D02*
X112648343Y-57388762D01*
X112822675Y-57481945D01*
X112937188Y-57575924D01*
X112937194Y-57575929D01*
X113074077Y-57712812D01*
X113168056Y-57827325D01*
X113261236Y-58001653D01*
X113261237Y-58001656D01*
X113318618Y-58190817D01*
X113337994Y-58387536D01*
X113318618Y-58584257D01*
X113284343Y-58697248D01*
X113261237Y-58773418D01*
X113232016Y-58828086D01*
X113168055Y-58947749D01*
X113042653Y-59100551D01*
X112889851Y-59225953D01*
X112776244Y-59286677D01*
X112715520Y-59319135D01*
X112666499Y-59334005D01*
X112526359Y-59376516D01*
X112329638Y-59395892D01*
X112132919Y-59376516D01*
X111943758Y-59319135D01*
X111943755Y-59319134D01*
X111769427Y-59225954D01*
X111654914Y-59131975D01*
X111518031Y-58995092D01*
X111518026Y-58995086D01*
X111424047Y-58880573D01*
X111330864Y-58706241D01*
X111273483Y-58517081D01*
X111254108Y-58320361D01*
X111273483Y-58123641D01*
X111330864Y-57934481D01*
X111424047Y-57760149D01*
X111549449Y-57607347D01*
X111702251Y-57481945D01*
X111876583Y-57388762D01*
X112065743Y-57331381D01*
X112262463Y-57312006D01*
X112459183Y-57331381D01*
X112459183Y-57331381D01*
G37*
G36*
X114255234Y-55535330D02*
X114444394Y-55592711D01*
X114618726Y-55685894D01*
X114733239Y-55779873D01*
X114733245Y-55779878D01*
X114870128Y-55916761D01*
X114964107Y-56031274D01*
X115057287Y-56205602D01*
X115057288Y-56205605D01*
X115114669Y-56394766D01*
X115134045Y-56591485D01*
X115114669Y-56788206D01*
X115077666Y-56910190D01*
X115057288Y-56977367D01*
X115024830Y-57038091D01*
X114964106Y-57151698D01*
X114838704Y-57304500D01*
X114685902Y-57429902D01*
X114588538Y-57481944D01*
X114511571Y-57523084D01*
X114448517Y-57542211D01*
X114322410Y-57580465D01*
X114125689Y-57599841D01*
X113928970Y-57580465D01*
X113739809Y-57523084D01*
X113739806Y-57523083D01*
X113565478Y-57429903D01*
X113450965Y-57335924D01*
X113314082Y-57199041D01*
X113314077Y-57199035D01*
X113220098Y-57084522D01*
X113126915Y-56910190D01*
X113069534Y-56721030D01*
X113050159Y-56524310D01*
X113069534Y-56327590D01*
X113126915Y-56138430D01*
X113220098Y-55964098D01*
X113345500Y-55811296D01*
X113498302Y-55685894D01*
X113672634Y-55592711D01*
X113861794Y-55535330D01*
X114058514Y-55515955D01*
X114255234Y-55535330D01*
X114255234Y-55535330D01*
G37*
G36*
X155556869Y-53067962D02*
X155656752Y-53087830D01*
X155939016Y-53204747D01*
X156193047Y-53374485D01*
X156409083Y-53590521D01*
X156578821Y-53844552D01*
X156662464Y-54046486D01*
X156695738Y-54126817D01*
X156755342Y-54426464D01*
X156755342Y-54731988D01*
X156737840Y-54819976D01*
X156695738Y-55031636D01*
X156578821Y-55313900D01*
X156409083Y-55567931D01*
X156193047Y-55783967D01*
X155939016Y-55953705D01*
X155656752Y-56070622D01*
X155556869Y-56090490D01*
X155357104Y-56130226D01*
X155051580Y-56130226D01*
X154851815Y-56090490D01*
X154751932Y-56070622D01*
X154469668Y-55953705D01*
X154215637Y-55783967D01*
X153999601Y-55567931D01*
X153829863Y-55313900D01*
X153712946Y-55031636D01*
X153670844Y-54819976D01*
X153653342Y-54731988D01*
X153653342Y-54426464D01*
X153712946Y-54126817D01*
X153746220Y-54046486D01*
X153829863Y-53844552D01*
X153999601Y-53590521D01*
X154215637Y-53374485D01*
X154469668Y-53204747D01*
X154751932Y-53087830D01*
X154851815Y-53067962D01*
X155051580Y-53028226D01*
X155357104Y-53028226D01*
X155556869Y-53067962D01*
X155556869Y-53067962D01*
G37*
G36*
X140856565Y-53139389D02*
X141047834Y-53218615D01*
X141219976Y-53333637D01*
X141366363Y-53480024D01*
X141481385Y-53652166D01*
X141560611Y-53843435D01*
X141601000Y-54046484D01*
X141601000Y-54253516D01*
X141560611Y-54456565D01*
X141481385Y-54647834D01*
X141366363Y-54819976D01*
X141219976Y-54966363D01*
X141047834Y-55081385D01*
X140856565Y-55160611D01*
X140653516Y-55201000D01*
X140446484Y-55201000D01*
X140243435Y-55160611D01*
X140052166Y-55081385D01*
X139880024Y-54966363D01*
X139733637Y-54819976D01*
X139618615Y-54647834D01*
X139539389Y-54456565D01*
X139499000Y-54253516D01*
X139499000Y-54046484D01*
X139539389Y-53843435D01*
X139618615Y-53652166D01*
X139733637Y-53480024D01*
X139880024Y-53333637D01*
X140052166Y-53218615D01*
X140243435Y-53139389D01*
X140446484Y-53099000D01*
X140653516Y-53099000D01*
X140856565Y-53139389D01*
X140856565Y-53139389D01*
G37*
G36*
X135291478Y-53334290D02*
X135446350Y-53398440D01*
X135585731Y-53491572D01*
X135704265Y-53610106D01*
X135797397Y-53749487D01*
X135861547Y-53904359D01*
X135894250Y-54068771D01*
X135894250Y-54236403D01*
X135861547Y-54400815D01*
X135797397Y-54555687D01*
X135704265Y-54695068D01*
X135585731Y-54813602D01*
X135446350Y-54906734D01*
X135291478Y-54970884D01*
X135127066Y-55003587D01*
X134959434Y-55003587D01*
X134795022Y-54970884D01*
X134640150Y-54906734D01*
X134500769Y-54813602D01*
X134382235Y-54695068D01*
X134289103Y-54555687D01*
X134224953Y-54400815D01*
X134192250Y-54236403D01*
X134192250Y-54068771D01*
X134224953Y-53904359D01*
X134289103Y-53749487D01*
X134382235Y-53610106D01*
X134500769Y-53491572D01*
X134640150Y-53398440D01*
X134795022Y-53334290D01*
X134959434Y-53301587D01*
X135127066Y-53301587D01*
X135291478Y-53334290D01*
X135291478Y-53334290D01*
G37*
G36*
X100692321Y-44781236D02*
X100868710Y-44798609D01*
X101095037Y-44867264D01*
X101208201Y-44901592D01*
X101521077Y-45068829D01*
X101795313Y-45293889D01*
X102020373Y-45568125D01*
X102187610Y-45881001D01*
X102213243Y-45965503D01*
X102290593Y-46220492D01*
X102325366Y-46573550D01*
X102290593Y-46926608D01*
X102229138Y-47129199D01*
X102187610Y-47266099D01*
X102020373Y-47578975D01*
X101795313Y-47853211D01*
X101521077Y-48078271D01*
X101208201Y-48245508D01*
X101095037Y-48279836D01*
X100868710Y-48348491D01*
X100692321Y-48365864D01*
X100604128Y-48374550D01*
X100427176Y-48374550D01*
X100338983Y-48365864D01*
X100162594Y-48348491D01*
X99936267Y-48279836D01*
X99823103Y-48245508D01*
X99510227Y-48078271D01*
X99235991Y-47853211D01*
X99010931Y-47578975D01*
X98843694Y-47266099D01*
X98802166Y-47129199D01*
X98740711Y-46926608D01*
X98705938Y-46573550D01*
X98740711Y-46220492D01*
X98818061Y-45965503D01*
X98843694Y-45881001D01*
X99010931Y-45568125D01*
X99235991Y-45293889D01*
X99510227Y-45068829D01*
X99823103Y-44901592D01*
X99936267Y-44867264D01*
X100162594Y-44798609D01*
X100338983Y-44781236D01*
X100427176Y-44772550D01*
X100604128Y-44772550D01*
X100692321Y-44781236D01*
X100692321Y-44781236D01*
G37*
G36*
X136941862Y-46121080D02*
X137114932Y-46192768D01*
X137270696Y-46296846D01*
X137403154Y-46429304D01*
X137507232Y-46585068D01*
X137578920Y-46758138D01*
X137615466Y-46941867D01*
X137615466Y-47129201D01*
X137578920Y-47312930D01*
X137507232Y-47486000D01*
X137403154Y-47641764D01*
X137270696Y-47774222D01*
X137114932Y-47878300D01*
X136941862Y-47949988D01*
X136758133Y-47986534D01*
X136570799Y-47986534D01*
X136387070Y-47949988D01*
X136214000Y-47878300D01*
X136058236Y-47774222D01*
X135925778Y-47641764D01*
X135821700Y-47486000D01*
X135750012Y-47312930D01*
X135713466Y-47129201D01*
X135713466Y-46941867D01*
X135750012Y-46758138D01*
X135821700Y-46585068D01*
X135925778Y-46429304D01*
X136058236Y-46296846D01*
X136214000Y-46192768D01*
X136387070Y-46121080D01*
X136570799Y-46084534D01*
X136758133Y-46084534D01*
X136941862Y-46121080D01*
X136941862Y-46121080D01*
G37*
G36*
X138709629Y-44353313D02*
X138882699Y-44425001D01*
X139038463Y-44529079D01*
X139170921Y-44661537D01*
X139274999Y-44817301D01*
X139346687Y-44990371D01*
X139383233Y-45174100D01*
X139383233Y-45361434D01*
X139346687Y-45545163D01*
X139274999Y-45718233D01*
X139170921Y-45873997D01*
X139038463Y-46006455D01*
X138882699Y-46110533D01*
X138709629Y-46182221D01*
X138525900Y-46218767D01*
X138338566Y-46218767D01*
X138154837Y-46182221D01*
X137981767Y-46110533D01*
X137826003Y-46006455D01*
X137693545Y-45873997D01*
X137589467Y-45718233D01*
X137517779Y-45545163D01*
X137481233Y-45361434D01*
X137481233Y-45174100D01*
X137517779Y-44990371D01*
X137589467Y-44817301D01*
X137693545Y-44661537D01*
X137826003Y-44529079D01*
X137981767Y-44425001D01*
X138154837Y-44353313D01*
X138338566Y-44316767D01*
X138525900Y-44316767D01*
X138709629Y-44353313D01*
X138709629Y-44353313D01*
G37*
G36*
X115651356Y-42882456D02*
X115799316Y-42943744D01*
X115839314Y-42970470D01*
X115931039Y-43031758D01*
X115932472Y-43032716D01*
X116045712Y-43145956D01*
X116134684Y-43279112D01*
X116195972Y-43427072D01*
X116227214Y-43584139D01*
X116227214Y-43744289D01*
X116195972Y-43901356D01*
X116134685Y-44049315D01*
X116134684Y-44049316D01*
X116075075Y-44138528D01*
X116065446Y-44152938D01*
X116053895Y-44174548D01*
X116046782Y-44197998D01*
X116044380Y-44222384D01*
X116046782Y-44246770D01*
X116053895Y-44270219D01*
X116065446Y-44291830D01*
X116080992Y-44310772D01*
X116099934Y-44326318D01*
X116121544Y-44337869D01*
X116144994Y-44344982D01*
X116169380Y-44347384D01*
X116193766Y-44344982D01*
X116217215Y-44337869D01*
X116238827Y-44326317D01*
X116401302Y-44217754D01*
X116592573Y-44138527D01*
X116795622Y-44098138D01*
X117002654Y-44098138D01*
X117205703Y-44138527D01*
X117396972Y-44217753D01*
X117569114Y-44332775D01*
X117715501Y-44479162D01*
X117830523Y-44651304D01*
X117909749Y-44842573D01*
X117950138Y-45045622D01*
X117950138Y-45252654D01*
X117909749Y-45455703D01*
X117830523Y-45646972D01*
X117715501Y-45819114D01*
X117569114Y-45965501D01*
X117396972Y-46080523D01*
X117205703Y-46159749D01*
X117002654Y-46200138D01*
X116795622Y-46200138D01*
X116592573Y-46159749D01*
X116401304Y-46080523D01*
X116229162Y-45965501D01*
X116082775Y-45819114D01*
X115967753Y-45646972D01*
X115888527Y-45455703D01*
X115848138Y-45252654D01*
X115848138Y-45045622D01*
X115888527Y-44842573D01*
X115967754Y-44651302D01*
X116076317Y-44488827D01*
X116087869Y-44467216D01*
X116094982Y-44443767D01*
X116097384Y-44419380D01*
X116094982Y-44394994D01*
X116087869Y-44371545D01*
X116076318Y-44349934D01*
X116060773Y-44330992D01*
X116041831Y-44315447D01*
X116020220Y-44303895D01*
X115996771Y-44296782D01*
X115972384Y-44294380D01*
X115947998Y-44296782D01*
X115924549Y-44303895D01*
X115902939Y-44315445D01*
X115886667Y-44326318D01*
X115799315Y-44384685D01*
X115651356Y-44445972D01*
X115494289Y-44477214D01*
X115334139Y-44477214D01*
X115177072Y-44445972D01*
X115029112Y-44384684D01*
X114941761Y-44326318D01*
X114895957Y-44295713D01*
X114782715Y-44182471D01*
X114693743Y-44049314D01*
X114652799Y-43950467D01*
X114632456Y-43901356D01*
X114601214Y-43744289D01*
X114601214Y-43584139D01*
X114632456Y-43427072D01*
X114693744Y-43279112D01*
X114782716Y-43145956D01*
X114895956Y-43032716D01*
X114897390Y-43031758D01*
X114989114Y-42970470D01*
X115029112Y-42943744D01*
X115177072Y-42882456D01*
X115334139Y-42851214D01*
X115494289Y-42851214D01*
X115651356Y-42882456D01*
X115651356Y-42882456D01*
G37*
G36*
X130969468Y-41457107D02*
X130969470Y-41457108D01*
X130969471Y-41457108D01*
X131342729Y-41611716D01*
X131398208Y-41648786D01*
X131678655Y-41836175D01*
X131964330Y-42121850D01*
X131964332Y-42121853D01*
X132188789Y-42457776D01*
X132271407Y-42657234D01*
X132343398Y-42831037D01*
X132422216Y-43227282D01*
X132422216Y-43631296D01*
X132368498Y-43901357D01*
X132343397Y-44027544D01*
X132188789Y-44400802D01*
X132144412Y-44467216D01*
X131964330Y-44736728D01*
X131678655Y-45022403D01*
X131678652Y-45022405D01*
X131342729Y-45246862D01*
X130969471Y-45401470D01*
X130969470Y-45401470D01*
X130969468Y-45401471D01*
X130573223Y-45480289D01*
X130169209Y-45480289D01*
X129772964Y-45401471D01*
X129772962Y-45401470D01*
X129772961Y-45401470D01*
X129399703Y-45246862D01*
X129063780Y-45022405D01*
X129063777Y-45022403D01*
X128778102Y-44736728D01*
X128598020Y-44467216D01*
X128553643Y-44400802D01*
X128399035Y-44027544D01*
X128373935Y-43901357D01*
X128320216Y-43631296D01*
X128320216Y-43227282D01*
X128399034Y-42831037D01*
X128471025Y-42657234D01*
X128553643Y-42457776D01*
X128778100Y-42121853D01*
X128778102Y-42121850D01*
X129063777Y-41836175D01*
X129344224Y-41648786D01*
X129399703Y-41611716D01*
X129772961Y-41457108D01*
X129772962Y-41457108D01*
X129772964Y-41457107D01*
X130169209Y-41378289D01*
X130573223Y-41378289D01*
X130969468Y-41457107D01*
X130969468Y-41457107D01*
G37*
G36*
X140477396Y-42585546D02*
X140650466Y-42657234D01*
X140806230Y-42761312D01*
X140938688Y-42893770D01*
X141042766Y-43049534D01*
X141114454Y-43222604D01*
X141151000Y-43406333D01*
X141151000Y-43593667D01*
X141114454Y-43777396D01*
X141042766Y-43950466D01*
X140938688Y-44106230D01*
X140806230Y-44238688D01*
X140650466Y-44342766D01*
X140477396Y-44414454D01*
X140293667Y-44451000D01*
X140106333Y-44451000D01*
X139922604Y-44414454D01*
X139749534Y-44342766D01*
X139593770Y-44238688D01*
X139461312Y-44106230D01*
X139357234Y-43950466D01*
X139285546Y-43777396D01*
X139249000Y-43593667D01*
X139249000Y-43406333D01*
X139285546Y-43222604D01*
X139357234Y-43049534D01*
X139461312Y-42893770D01*
X139593770Y-42761312D01*
X139749534Y-42657234D01*
X139922604Y-42585546D01*
X140106333Y-42549000D01*
X140293667Y-42549000D01*
X140477396Y-42585546D01*
X140477396Y-42585546D01*
G37*
G36*
X114237142Y-41468242D02*
X114385102Y-41529530D01*
X114425100Y-41556256D01*
X114516825Y-41617544D01*
X114518258Y-41618502D01*
X114631498Y-41731742D01*
X114720470Y-41864898D01*
X114781758Y-42012858D01*
X114813000Y-42169925D01*
X114813000Y-42330075D01*
X114781758Y-42487142D01*
X114756135Y-42549000D01*
X114720471Y-42635100D01*
X114631499Y-42768257D01*
X114518257Y-42881499D01*
X114452130Y-42925683D01*
X114385102Y-42970470D01*
X114237142Y-43031758D01*
X114080075Y-43063000D01*
X113919925Y-43063000D01*
X113762858Y-43031758D01*
X113614898Y-42970470D01*
X113547870Y-42925683D01*
X113481743Y-42881499D01*
X113368501Y-42768257D01*
X113279529Y-42635100D01*
X113243865Y-42549000D01*
X113218242Y-42487142D01*
X113187000Y-42330075D01*
X113187000Y-42169925D01*
X113218242Y-42012858D01*
X113279530Y-41864898D01*
X113368502Y-41731742D01*
X113481742Y-41618502D01*
X113483176Y-41617544D01*
X113574900Y-41556256D01*
X113614898Y-41529530D01*
X113762858Y-41468242D01*
X113919925Y-41437000D01*
X114080075Y-41437000D01*
X114237142Y-41468242D01*
X114237142Y-41468242D01*
G37*
G36*
X111407427Y-38340251D02*
X111598696Y-38419477D01*
X111770838Y-38534499D01*
X111917225Y-38680886D01*
X112032247Y-38853028D01*
X112111473Y-39044297D01*
X112151862Y-39247346D01*
X112151862Y-39454378D01*
X112111473Y-39657427D01*
X112032246Y-39848698D01*
X111923683Y-40011173D01*
X111912131Y-40032784D01*
X111905018Y-40056233D01*
X111902616Y-40080620D01*
X111905018Y-40105006D01*
X111912131Y-40128455D01*
X111923682Y-40150066D01*
X111939227Y-40169008D01*
X111958169Y-40184553D01*
X111979780Y-40196105D01*
X112003229Y-40203218D01*
X112027616Y-40205620D01*
X112052002Y-40203218D01*
X112075451Y-40196105D01*
X112097062Y-40184554D01*
X112113332Y-40173683D01*
X112141266Y-40155018D01*
X112200685Y-40115315D01*
X112348644Y-40054028D01*
X112505711Y-40022786D01*
X112665861Y-40022786D01*
X112822928Y-40054028D01*
X112970888Y-40115316D01*
X112990552Y-40128455D01*
X113104043Y-40204287D01*
X113217285Y-40317529D01*
X113246647Y-40361473D01*
X113306256Y-40450684D01*
X113367544Y-40598644D01*
X113398786Y-40755711D01*
X113398786Y-40915861D01*
X113367544Y-41072928D01*
X113320140Y-41187369D01*
X113306257Y-41220886D01*
X113217285Y-41354043D01*
X113104043Y-41467285D01*
X113102609Y-41468243D01*
X112970888Y-41556256D01*
X112822928Y-41617544D01*
X112665861Y-41648786D01*
X112505711Y-41648786D01*
X112348644Y-41617544D01*
X112200684Y-41556256D01*
X112068963Y-41468243D01*
X112067529Y-41467285D01*
X111954287Y-41354043D01*
X111865315Y-41220886D01*
X111851432Y-41187369D01*
X111804028Y-41072928D01*
X111772786Y-40915861D01*
X111772786Y-40755711D01*
X111804028Y-40598644D01*
X111865315Y-40450685D01*
X111924925Y-40361473D01*
X111934555Y-40347061D01*
X111946105Y-40325452D01*
X111953218Y-40302002D01*
X111955620Y-40277616D01*
X111953218Y-40253230D01*
X111946105Y-40229781D01*
X111934554Y-40208170D01*
X111919008Y-40189228D01*
X111900066Y-40173682D01*
X111878456Y-40162131D01*
X111855006Y-40155018D01*
X111830620Y-40152616D01*
X111806234Y-40155018D01*
X111782785Y-40162131D01*
X111761173Y-40173683D01*
X111598698Y-40282246D01*
X111407427Y-40361473D01*
X111204378Y-40401862D01*
X110997346Y-40401862D01*
X110794297Y-40361473D01*
X110603028Y-40282247D01*
X110430886Y-40167225D01*
X110284499Y-40020838D01*
X110169477Y-39848696D01*
X110090251Y-39657427D01*
X110049862Y-39454378D01*
X110049862Y-39247346D01*
X110090251Y-39044297D01*
X110169477Y-38853028D01*
X110284499Y-38680886D01*
X110430886Y-38534499D01*
X110603028Y-38419477D01*
X110794297Y-38340251D01*
X110997346Y-38299862D01*
X111204378Y-38299862D01*
X111407427Y-38340251D01*
X111407427Y-38340251D01*
G37*
G36*
X137192007Y-35234568D02*
X137192009Y-35234569D01*
X137192010Y-35234569D01*
X137565268Y-35389177D01*
X137565269Y-35389178D01*
X137901194Y-35613636D01*
X138186869Y-35899311D01*
X138186871Y-35899314D01*
X138411328Y-36235237D01*
X138565936Y-36608495D01*
X138644755Y-37004744D01*
X138644755Y-37408756D01*
X138565936Y-37805005D01*
X138411328Y-38178263D01*
X138411327Y-38178264D01*
X138186869Y-38514189D01*
X137901194Y-38799864D01*
X137901191Y-38799866D01*
X137565268Y-39024323D01*
X137192010Y-39178931D01*
X137192009Y-39178931D01*
X137192007Y-39178932D01*
X136795762Y-39257750D01*
X136391748Y-39257750D01*
X135995503Y-39178932D01*
X135995501Y-39178931D01*
X135995500Y-39178931D01*
X135622242Y-39024323D01*
X135286319Y-38799866D01*
X135286316Y-38799864D01*
X135000641Y-38514189D01*
X134776183Y-38178264D01*
X134776182Y-38178263D01*
X134621574Y-37805005D01*
X134542755Y-37408756D01*
X134542755Y-37004744D01*
X134621574Y-36608495D01*
X134776182Y-36235237D01*
X135000639Y-35899314D01*
X135000641Y-35899311D01*
X135286316Y-35613636D01*
X135622241Y-35389178D01*
X135622242Y-35389177D01*
X135995500Y-35234569D01*
X135995501Y-35234569D01*
X135995503Y-35234568D01*
X136391748Y-35155750D01*
X136795762Y-35155750D01*
X137192007Y-35234568D01*
X137192007Y-35234568D01*
G37*
G36*
X107206565Y-34389389D02*
X107397834Y-34468615D01*
X107569976Y-34583637D01*
X107716363Y-34730024D01*
X107831385Y-34902166D01*
X107910611Y-35093435D01*
X107951000Y-35296484D01*
X107951000Y-35503516D01*
X107910611Y-35706565D01*
X107831385Y-35897834D01*
X107716363Y-36069976D01*
X107569976Y-36216363D01*
X107397834Y-36331385D01*
X107206565Y-36410611D01*
X107003516Y-36451000D01*
X106796484Y-36451000D01*
X106593435Y-36410611D01*
X106402166Y-36331385D01*
X106230024Y-36216363D01*
X106083637Y-36069976D01*
X105968615Y-35897834D01*
X105889389Y-35706565D01*
X105849000Y-35503516D01*
X105849000Y-35296484D01*
X105889389Y-35093435D01*
X105968615Y-34902166D01*
X106083637Y-34730024D01*
X106230024Y-34583637D01*
X106402166Y-34468615D01*
X106593435Y-34389389D01*
X106796484Y-34349000D01*
X107003516Y-34349000D01*
X107206565Y-34389389D01*
X107206565Y-34389389D01*
G37*
M02*
