G04 #@! TF.GenerationSoftware,KiCad,Pcbnew,5.0.2-bee76a0~70~ubuntu18.04.1*
G04 #@! TF.CreationDate,2020-07-22T02:23:45-04:00*
G04 #@! TF.ProjectId,synth,73796e74-682e-46b6-9963-61645f706362,rev?*
G04 #@! TF.SameCoordinates,Original*
G04 #@! TF.FileFunction,Copper,L1,Top*
G04 #@! TF.FilePolarity,Positive*
%FSLAX46Y46*%
G04 Gerber Fmt 4.6, Leading zero omitted, Abs format (unit mm)*
G04 Created by KiCad (PCBNEW 5.0.2-bee76a0~70~ubuntu18.04.1) date Wed 22 Jul 2020 02:23:45 AM EDT*
%MOMM*%
%LPD*%
G01*
G04 APERTURE LIST*
G04 #@! TA.AperFunction,ComponentPad*
%ADD10C,1.600000*%
G04 #@! TD*
G04 #@! TA.AperFunction,ComponentPad*
%ADD11R,3.000000X3.000000*%
G04 #@! TD*
G04 #@! TA.AperFunction,ComponentPad*
%ADD12C,3.000000*%
G04 #@! TD*
G04 #@! TA.AperFunction,ComponentPad*
%ADD13C,2.000000*%
G04 #@! TD*
G04 #@! TA.AperFunction,ComponentPad*
%ADD14C,1.524000*%
G04 #@! TD*
G04 #@! TA.AperFunction,ComponentPad*
%ADD15R,1.800000X1.800000*%
G04 #@! TD*
G04 #@! TA.AperFunction,ComponentPad*
%ADD16C,1.800000*%
G04 #@! TD*
G04 #@! TA.AperFunction,ComponentPad*
%ADD17C,2.200000*%
G04 #@! TD*
G04 #@! TA.AperFunction,Conductor*
%ADD18C,0.100000*%
G04 #@! TD*
G04 #@! TA.AperFunction,Conductor*
%ADD19C,2.200000*%
G04 #@! TD*
G04 #@! TA.AperFunction,WasherPad*
%ADD20C,3.000000*%
G04 #@! TD*
G04 #@! TA.AperFunction,SMDPad,CuDef*
%ADD21C,0.500000*%
G04 #@! TD*
G04 #@! TA.AperFunction,ComponentPad*
%ADD22C,1.300000*%
G04 #@! TD*
G04 #@! TA.AperFunction,Conductor*
%ADD23C,1.600000*%
G04 #@! TD*
G04 #@! TA.AperFunction,ComponentPad*
%ADD24O,1.600000X1.600000*%
G04 #@! TD*
G04 #@! TA.AperFunction,WasherPad*
%ADD25C,4.000000*%
G04 #@! TD*
G04 #@! TA.AperFunction,ComponentPad*
%ADD26C,1.905000*%
G04 #@! TD*
G04 #@! TA.AperFunction,Conductor*
%ADD27C,1.905000*%
G04 #@! TD*
G04 #@! TA.AperFunction,ComponentPad*
%ADD28R,2.000000X2.000000*%
G04 #@! TD*
G04 #@! TA.AperFunction,ComponentPad*
%ADD29R,1.500000X1.050000*%
G04 #@! TD*
G04 #@! TA.AperFunction,ComponentPad*
%ADD30O,1.500000X1.050000*%
G04 #@! TD*
G04 #@! TA.AperFunction,ViaPad*
%ADD31C,1.200000*%
G04 #@! TD*
G04 #@! TA.AperFunction,Conductor*
%ADD32C,0.500000*%
G04 #@! TD*
G04 #@! TA.AperFunction,Conductor*
%ADD33C,0.254000*%
G04 #@! TD*
G04 APERTURE END LIST*
D10*
G04 #@! TO.P,C4,1*
G04 #@! TO.N,/MAIN_VFO/TRIM*
X97200000Y-61350000D03*
G04 #@! TO.P,C4,2*
G04 #@! TO.N,GND*
X95432233Y-59582233D03*
G04 #@! TD*
D11*
G04 #@! TO.P,J2,1*
G04 #@! TO.N,/OUTPUT/OUTPUT*
X162600000Y-162600000D03*
D12*
G04 #@! TO.P,J2,2*
G04 #@! TO.N,/OUTPUT/LO_Z_REF*
X157520000Y-162600000D03*
G04 #@! TD*
D13*
G04 #@! TO.P,SW2,*
G04 #@! TO.N,*
X116899138Y-45149138D03*
X111100862Y-39350862D03*
D14*
G04 #@! TO.P,SW2,1*
G04 #@! TO.N,VDD_BAT*
X112585786Y-40835786D03*
G04 #@! TO.P,SW2,3*
G04 #@! TO.N,N/C*
X115414214Y-43664214D03*
G04 #@! TO.P,SW2,2*
G04 #@! TO.N,Net-(D2-Pad1)*
X114000000Y-42250000D03*
G04 #@! TD*
D10*
G04 #@! TO.P,C1,2*
G04 #@! TO.N,GND*
X101632233Y-127632233D03*
G04 #@! TO.P,C1,1*
G04 #@! TO.N,+5V*
X103400000Y-129400000D03*
G04 #@! TD*
G04 #@! TO.P,C2,1*
G04 #@! TO.N,/MAIN_VFO/TRIANGLE*
X103500000Y-110700000D03*
G04 #@! TO.P,C2,2*
G04 #@! TO.N,Net-(C2-Pad2)*
X105267767Y-108932233D03*
G04 #@! TD*
D15*
G04 #@! TO.P,D1,1*
G04 #@! TO.N,/MAIN_VFO/DISCHARGE*
X110500000Y-69000000D03*
D16*
G04 #@! TO.P,D1,2*
G04 #@! TO.N,Net-(D1-Pad2)*
X110500000Y-66460000D03*
G04 #@! TD*
D17*
G04 #@! TO.P,D2,1*
G04 #@! TO.N,Net-(D2-Pad1)*
X130800000Y-78650000D03*
D18*
G04 #@! TD*
G04 #@! TO.N,Net-(D2-Pad1)*
G04 #@! TO.C,D2*
G36*
X129244365Y-78650000D02*
X130800000Y-77094365D01*
X132355635Y-78650000D01*
X130800000Y-80205635D01*
X129244365Y-78650000D01*
X129244365Y-78650000D01*
G37*
D17*
G04 #@! TO.P,D2,2*
G04 #@! TO.N,Net-(D2-Pad2)*
X137984205Y-85834205D03*
D19*
G04 #@! TD*
G04 #@! TO.N,Net-(D2-Pad2)*
G04 #@! TO.C,D2*
X137984205Y-85834205D02*
X137984205Y-85834205D01*
D12*
G04 #@! TO.P,J1,1*
G04 #@! TO.N,Net-(D2-Pad2)*
X149300000Y-85600000D03*
G04 #@! TO.P,J1,2*
G04 #@! TO.N,GND*
X140142967Y-76442967D03*
D20*
G04 #@! TO.P,J1,*
G04 #@! TO.N,*
X161575374Y-80027999D03*
X180575333Y-61028039D03*
X155204342Y-54579226D03*
G04 #@! TD*
D21*
G04 #@! TO.P,JP1,2*
G04 #@! TO.N,Net-(JP1-Pad2)*
X135409619Y-60490381D03*
D18*
G04 #@! TD*
G04 #@! TO.N,Net-(JP1-Pad2)*
G04 #@! TO.C,JP1*
G36*
X134879715Y-59960477D02*
X134897063Y-59943128D01*
X134934993Y-59912001D01*
X134975791Y-59884740D01*
X135019065Y-59861610D01*
X135064397Y-59842832D01*
X135111352Y-59828589D01*
X135159477Y-59819016D01*
X135208308Y-59814207D01*
X135257377Y-59814207D01*
X135306207Y-59819016D01*
X135354332Y-59828589D01*
X135401287Y-59842832D01*
X135446620Y-59861610D01*
X135489894Y-59884740D01*
X135530692Y-59912001D01*
X135568622Y-59943128D01*
X135585970Y-59960477D01*
X135586396Y-59960051D01*
X135939949Y-60313604D01*
X135939523Y-60314030D01*
X135956872Y-60331378D01*
X135987999Y-60369308D01*
X136015260Y-60410106D01*
X136038390Y-60453380D01*
X136057168Y-60498713D01*
X136071411Y-60545668D01*
X136080984Y-60593793D01*
X136085793Y-60642623D01*
X136085793Y-60691692D01*
X136080984Y-60740523D01*
X136071411Y-60788648D01*
X136057168Y-60835603D01*
X136038390Y-60880935D01*
X136015260Y-60924209D01*
X135987999Y-60965007D01*
X135956872Y-61002937D01*
X135939523Y-61020285D01*
X135939949Y-61020711D01*
X135586396Y-61374264D01*
X134525736Y-60313604D01*
X134879289Y-59960051D01*
X134879715Y-59960477D01*
X134879715Y-59960477D01*
G37*
D21*
G04 #@! TO.P,JP1,1*
G04 #@! TO.N,Net-(C2-Pad2)*
X134490381Y-61409619D03*
D18*
G04 #@! TD*
G04 #@! TO.N,Net-(C2-Pad2)*
G04 #@! TO.C,JP1*
G36*
X135374264Y-61586396D02*
X135020711Y-61939949D01*
X135020285Y-61939523D01*
X135002937Y-61956872D01*
X134965007Y-61987999D01*
X134924209Y-62015260D01*
X134880935Y-62038390D01*
X134835603Y-62057168D01*
X134788648Y-62071411D01*
X134740523Y-62080984D01*
X134691692Y-62085793D01*
X134642623Y-62085793D01*
X134593793Y-62080984D01*
X134545668Y-62071411D01*
X134498713Y-62057168D01*
X134453380Y-62038390D01*
X134410106Y-62015260D01*
X134369308Y-61987999D01*
X134331378Y-61956872D01*
X134314030Y-61939523D01*
X134313604Y-61939949D01*
X133960051Y-61586396D01*
X133960477Y-61585970D01*
X133943128Y-61568622D01*
X133912001Y-61530692D01*
X133884740Y-61489894D01*
X133861610Y-61446620D01*
X133842832Y-61401287D01*
X133828589Y-61354332D01*
X133819016Y-61306207D01*
X133814207Y-61257377D01*
X133814207Y-61208308D01*
X133819016Y-61159477D01*
X133828589Y-61111352D01*
X133842832Y-61064397D01*
X133861610Y-61019065D01*
X133884740Y-60975791D01*
X133912001Y-60934993D01*
X133943128Y-60897063D01*
X133960477Y-60879715D01*
X133960051Y-60879289D01*
X134313604Y-60525736D01*
X135374264Y-61586396D01*
X135374264Y-61586396D01*
G37*
D21*
G04 #@! TO.P,JP2,2*
G04 #@! TO.N,Net-(JP2-Pad2)*
X84300000Y-105849999D03*
D18*
G04 #@! TD*
G04 #@! TO.N,Net-(JP2-Pad2)*
G04 #@! TO.C,JP2*
G36*
X85049398Y-105849999D02*
X85049398Y-105874533D01*
X85044588Y-105923364D01*
X85035016Y-105971489D01*
X85020772Y-106018444D01*
X85001995Y-106063777D01*
X84978864Y-106107050D01*
X84951604Y-106147849D01*
X84920476Y-106185778D01*
X84885779Y-106220475D01*
X84847850Y-106251603D01*
X84807051Y-106278863D01*
X84763778Y-106301994D01*
X84718445Y-106320771D01*
X84671490Y-106335015D01*
X84623365Y-106344587D01*
X84574534Y-106349397D01*
X84550000Y-106349397D01*
X84550000Y-106349999D01*
X84050000Y-106349999D01*
X84050000Y-106349397D01*
X84025466Y-106349397D01*
X83976635Y-106344587D01*
X83928510Y-106335015D01*
X83881555Y-106320771D01*
X83836222Y-106301994D01*
X83792949Y-106278863D01*
X83752150Y-106251603D01*
X83714221Y-106220475D01*
X83679524Y-106185778D01*
X83648396Y-106147849D01*
X83621136Y-106107050D01*
X83598005Y-106063777D01*
X83579228Y-106018444D01*
X83564984Y-105971489D01*
X83555412Y-105923364D01*
X83550602Y-105874533D01*
X83550602Y-105849999D01*
X83550000Y-105849999D01*
X83550000Y-105349999D01*
X85050000Y-105349999D01*
X85050000Y-105849999D01*
X85049398Y-105849999D01*
X85049398Y-105849999D01*
G37*
D21*
G04 #@! TO.P,JP2,1*
G04 #@! TO.N,Net-(JP2-Pad1)*
X84300000Y-104550001D03*
D18*
G04 #@! TD*
G04 #@! TO.N,Net-(JP2-Pad1)*
G04 #@! TO.C,JP2*
G36*
X83550000Y-105050001D02*
X83550000Y-104550001D01*
X83550602Y-104550001D01*
X83550602Y-104525467D01*
X83555412Y-104476636D01*
X83564984Y-104428511D01*
X83579228Y-104381556D01*
X83598005Y-104336223D01*
X83621136Y-104292950D01*
X83648396Y-104252151D01*
X83679524Y-104214222D01*
X83714221Y-104179525D01*
X83752150Y-104148397D01*
X83792949Y-104121137D01*
X83836222Y-104098006D01*
X83881555Y-104079229D01*
X83928510Y-104064985D01*
X83976635Y-104055413D01*
X84025466Y-104050603D01*
X84050000Y-104050603D01*
X84050000Y-104050001D01*
X84550000Y-104050001D01*
X84550000Y-104050603D01*
X84574534Y-104050603D01*
X84623365Y-104055413D01*
X84671490Y-104064985D01*
X84718445Y-104079229D01*
X84763778Y-104098006D01*
X84807051Y-104121137D01*
X84847850Y-104148397D01*
X84885779Y-104179525D01*
X84920476Y-104214222D01*
X84951604Y-104252151D01*
X84978864Y-104292950D01*
X85001995Y-104336223D01*
X85020772Y-104381556D01*
X85035016Y-104428511D01*
X85044588Y-104476636D01*
X85049398Y-104525467D01*
X85049398Y-104550001D01*
X85050000Y-104550001D01*
X85050000Y-105050001D01*
X83550000Y-105050001D01*
X83550000Y-105050001D01*
G37*
D21*
G04 #@! TO.P,JP3,2*
G04 #@! TO.N,Net-(JP3-Pad2)*
X163559619Y-145559619D03*
D18*
G04 #@! TD*
G04 #@! TO.N,Net-(JP3-Pad2)*
G04 #@! TO.C,JP3*
G36*
X164089523Y-145029715D02*
X164106872Y-145047063D01*
X164137999Y-145084993D01*
X164165260Y-145125791D01*
X164188390Y-145169065D01*
X164207168Y-145214397D01*
X164221411Y-145261352D01*
X164230984Y-145309477D01*
X164235793Y-145358308D01*
X164235793Y-145407377D01*
X164230984Y-145456207D01*
X164221411Y-145504332D01*
X164207168Y-145551287D01*
X164188390Y-145596620D01*
X164165260Y-145639894D01*
X164137999Y-145680692D01*
X164106872Y-145718622D01*
X164089523Y-145735970D01*
X164089949Y-145736396D01*
X163736396Y-146089949D01*
X163735970Y-146089523D01*
X163718622Y-146106872D01*
X163680692Y-146137999D01*
X163639894Y-146165260D01*
X163596620Y-146188390D01*
X163551287Y-146207168D01*
X163504332Y-146221411D01*
X163456207Y-146230984D01*
X163407377Y-146235793D01*
X163358308Y-146235793D01*
X163309477Y-146230984D01*
X163261352Y-146221411D01*
X163214397Y-146207168D01*
X163169065Y-146188390D01*
X163125791Y-146165260D01*
X163084993Y-146137999D01*
X163047063Y-146106872D01*
X163029715Y-146089523D01*
X163029289Y-146089949D01*
X162675736Y-145736396D01*
X163736396Y-144675736D01*
X164089949Y-145029289D01*
X164089523Y-145029715D01*
X164089523Y-145029715D01*
G37*
D21*
G04 #@! TO.P,JP3,1*
G04 #@! TO.N,Net-(JP3-Pad1)*
X162640381Y-144640381D03*
D18*
G04 #@! TD*
G04 #@! TO.N,Net-(JP3-Pad1)*
G04 #@! TO.C,JP3*
G36*
X162463604Y-145524264D02*
X162110051Y-145170711D01*
X162110477Y-145170285D01*
X162093128Y-145152937D01*
X162062001Y-145115007D01*
X162034740Y-145074209D01*
X162011610Y-145030935D01*
X161992832Y-144985603D01*
X161978589Y-144938648D01*
X161969016Y-144890523D01*
X161964207Y-144841692D01*
X161964207Y-144792623D01*
X161969016Y-144743793D01*
X161978589Y-144695668D01*
X161992832Y-144648713D01*
X162011610Y-144603380D01*
X162034740Y-144560106D01*
X162062001Y-144519308D01*
X162093128Y-144481378D01*
X162110477Y-144464030D01*
X162110051Y-144463604D01*
X162463604Y-144110051D01*
X162464030Y-144110477D01*
X162481378Y-144093128D01*
X162519308Y-144062001D01*
X162560106Y-144034740D01*
X162603380Y-144011610D01*
X162648713Y-143992832D01*
X162695668Y-143978589D01*
X162743793Y-143969016D01*
X162792623Y-143964207D01*
X162841692Y-143964207D01*
X162890523Y-143969016D01*
X162938648Y-143978589D01*
X162985603Y-143992832D01*
X163030935Y-144011610D01*
X163074209Y-144034740D01*
X163115007Y-144062001D01*
X163152937Y-144093128D01*
X163170285Y-144110477D01*
X163170711Y-144110051D01*
X163524264Y-144463604D01*
X162463604Y-145524264D01*
X162463604Y-145524264D01*
G37*
D22*
G04 #@! TO.P,Q3,1*
G04 #@! TO.N,Net-(Q3-Pad1)*
X189105382Y-133307403D03*
D18*
G04 #@! TD*
G04 #@! TO.N,Net-(Q3-Pad1)*
G04 #@! TO.C,Q3*
G36*
X189105382Y-132388164D02*
X190024621Y-133307403D01*
X189105382Y-134226642D01*
X188186143Y-133307403D01*
X189105382Y-132388164D01*
X189105382Y-132388164D01*
G37*
D22*
G04 #@! TO.P,Q3,3*
G04 #@! TO.N,Net-(JP3-Pad2)*
X187309331Y-131511352D03*
G04 #@! TO.P,Q3,2*
G04 #@! TO.N,Net-(Q3-Pad2)*
X187309331Y-133307403D03*
G04 #@! TD*
G04 #@! TO.P,Q4,1*
G04 #@! TO.N,Net-(Q4-Pad1)*
X175316800Y-147095985D03*
D18*
G04 #@! TD*
G04 #@! TO.N,Net-(Q4-Pad1)*
G04 #@! TO.C,Q4*
G36*
X175316800Y-146176746D02*
X176236039Y-147095985D01*
X175316800Y-148015224D01*
X174397561Y-147095985D01*
X175316800Y-146176746D01*
X175316800Y-146176746D01*
G37*
D22*
G04 #@! TO.P,Q4,3*
G04 #@! TO.N,Net-(JP3-Pad2)*
X173520749Y-145299934D03*
G04 #@! TO.P,Q4,2*
G04 #@! TO.N,Net-(Q4-Pad2)*
X173520749Y-147095985D03*
G04 #@! TD*
D10*
G04 #@! TO.P,R1,2*
G04 #@! TO.N,Net-(JP2-Pad2)*
X89384205Y-120515795D03*
D23*
G04 #@! TD*
G04 #@! TO.N,Net-(JP2-Pad2)*
G04 #@! TO.C,R1*
X89384205Y-120515795D02*
X89384205Y-120515795D01*
D10*
G04 #@! TO.P,R1,1*
G04 #@! TO.N,Net-(R1-Pad1)*
X82200000Y-127700000D03*
G04 #@! TD*
G04 #@! TO.P,R2,1*
G04 #@! TO.N,Net-(Q1-Pad2)*
X111549390Y-83448380D03*
D24*
G04 #@! TO.P,R2,2*
G04 #@! TO.N,Net-(R1-Pad1)*
X111549390Y-93608380D03*
G04 #@! TD*
D10*
G04 #@! TO.P,R3,1*
G04 #@! TO.N,Net-(C2-Pad2)*
X127900000Y-61500000D03*
G04 #@! TO.P,R3,2*
G04 #@! TO.N,Net-(JP1-Pad2)*
X135084205Y-54315795D03*
D23*
G04 #@! TD*
G04 #@! TO.N,Net-(JP1-Pad2)*
G04 #@! TO.C,R3*
X135084205Y-54315795D02*
X135084205Y-54315795D01*
D10*
G04 #@! TO.P,R4,1*
G04 #@! TO.N,Net-(Q2-Pad2)*
X116781981Y-83448380D03*
D24*
G04 #@! TO.P,R4,2*
G04 #@! TO.N,Net-(R1-Pad1)*
X116781981Y-93608380D03*
G04 #@! TD*
D10*
G04 #@! TO.P,R5,2*
G04 #@! TO.N,+5V*
X148753043Y-113397418D03*
D23*
G04 #@! TD*
G04 #@! TO.N,+5V*
G04 #@! TO.C,R5*
X148753043Y-113397418D02*
X148753043Y-113397418D01*
D10*
G04 #@! TO.P,R5,1*
G04 #@! TO.N,Net-(R5-Pad1)*
X141568838Y-120581623D03*
G04 #@! TD*
G04 #@! TO.P,R6,1*
G04 #@! TO.N,Net-(R5-Pad1)*
X138811122Y-117823907D03*
G04 #@! TO.P,R6,2*
G04 #@! TO.N,+5V*
X145995327Y-110639702D03*
D23*
G04 #@! TD*
G04 #@! TO.N,+5V*
G04 #@! TO.C,R6*
X145995327Y-110639702D02*
X145995327Y-110639702D01*
D10*
G04 #@! TO.P,R7,1*
G04 #@! TO.N,Net-(R5-Pad1)*
X138598990Y-123551472D03*
G04 #@! TO.P,R7,2*
G04 #@! TO.N,/MAIN_VFO/DISCHARGE*
X131414785Y-130735677D03*
D23*
G04 #@! TD*
G04 #@! TO.N,/MAIN_VFO/DISCHARGE*
G04 #@! TO.C,R7*
X131414785Y-130735677D02*
X131414785Y-130735677D01*
D10*
G04 #@! TO.P,R8,1*
G04 #@! TO.N,Net-(R8-Pad1)*
X120300000Y-126200000D03*
G04 #@! TO.P,R8,2*
G04 #@! TO.N,Net-(R8-Pad2)*
X127484205Y-119015795D03*
D23*
G04 #@! TD*
G04 #@! TO.N,Net-(R8-Pad2)*
G04 #@! TO.C,R8*
X127484205Y-119015795D02*
X127484205Y-119015795D01*
D10*
G04 #@! TO.P,R9,2*
G04 #@! TO.N,Net-(R5-Pad1)*
X144354839Y-123452477D03*
D23*
G04 #@! TD*
G04 #@! TO.N,Net-(R5-Pad1)*
G04 #@! TO.C,R9*
X144354839Y-123452477D02*
X144354839Y-123452477D01*
D10*
G04 #@! TO.P,R9,1*
G04 #@! TO.N,GND*
X151539044Y-116268272D03*
G04 #@! TD*
G04 #@! TO.P,R10,2*
G04 #@! TO.N,Net-(R10-Pad2)*
X103484205Y-89584205D03*
D23*
G04 #@! TD*
G04 #@! TO.N,Net-(R10-Pad2)*
G04 #@! TO.C,R10*
X103484205Y-89584205D02*
X103484205Y-89584205D01*
D10*
G04 #@! TO.P,R10,1*
G04 #@! TO.N,+5V*
X96300000Y-82400000D03*
G04 #@! TD*
G04 #@! TO.P,R11,1*
G04 #@! TO.N,+5V*
X102850000Y-77700000D03*
D24*
G04 #@! TO.P,R11,2*
G04 #@! TO.N,Net-(D1-Pad2)*
X102850000Y-67540000D03*
G04 #@! TD*
G04 #@! TO.P,R12,2*
G04 #@! TO.N,GND*
X95000000Y-110460000D03*
D10*
G04 #@! TO.P,R12,1*
G04 #@! TO.N,Net-(R12-Pad1)*
X95000000Y-100300000D03*
G04 #@! TD*
D24*
G04 #@! TO.P,R14,2*
G04 #@! TO.N,+5V*
X192700000Y-102140000D03*
D10*
G04 #@! TO.P,R14,1*
G04 #@! TO.N,HI_Z_REF*
X192700000Y-112300000D03*
G04 #@! TD*
G04 #@! TO.P,R15,1*
G04 #@! TO.N,GND*
X192700000Y-128300000D03*
D24*
G04 #@! TO.P,R15,2*
G04 #@! TO.N,HI_Z_REF*
X192700000Y-118140000D03*
G04 #@! TD*
D10*
G04 #@! TO.P,R18,1*
G04 #@! TO.N,Net-(Q3-Pad2)*
X183900000Y-136600000D03*
G04 #@! TO.P,R18,2*
G04 #@! TO.N,Net-(JP3-Pad1)*
X191084205Y-143784205D03*
D23*
G04 #@! TD*
G04 #@! TO.N,Net-(JP3-Pad1)*
G04 #@! TO.C,R18*
X191084205Y-143784205D02*
X191084205Y-143784205D01*
D10*
G04 #@! TO.P,R19,2*
G04 #@! TO.N,Net-(JP3-Pad1)*
X185084205Y-149584205D03*
D23*
G04 #@! TD*
G04 #@! TO.N,Net-(JP3-Pad1)*
G04 #@! TO.C,R19*
X185084205Y-149584205D02*
X185084205Y-149584205D01*
D10*
G04 #@! TO.P,R19,1*
G04 #@! TO.N,Net-(Q4-Pad2)*
X177900000Y-142400000D03*
G04 #@! TD*
G04 #@! TO.P,R20,1*
G04 #@! TO.N,Net-(JP3-Pad2)*
X180973654Y-139742074D03*
G04 #@! TO.P,R20,2*
G04 #@! TO.N,Net-(JP3-Pad1)*
X188157859Y-146926279D03*
D23*
G04 #@! TD*
G04 #@! TO.N,Net-(JP3-Pad1)*
G04 #@! TO.C,R20*
X188157859Y-146926279D02*
X188157859Y-146926279D01*
D25*
G04 #@! TO.P,RV1,*
G04 #@! TO.N,*
X81606245Y-94893250D03*
X87828784Y-88670711D03*
D16*
G04 #@! TO.P,RV1,1*
G04 #@! TO.N,N/C*
X78000000Y-88600000D03*
G04 #@! TO.P,RV1,2*
G04 #@! TO.N,Net-(Q1-Pad1)*
X79767767Y-86832233D03*
G04 #@! TO.P,RV1,3*
G04 #@! TO.N,Net-(JP2-Pad1)*
X81535534Y-85064466D03*
G04 #@! TD*
G04 #@! TO.P,RV2,3*
G04 #@! TO.N,Net-(Q2-Pad3)*
X136664466Y-47035534D03*
G04 #@! TO.P,RV2,2*
G04 #@! TO.N,Net-(JP1-Pad2)*
X138432233Y-45267767D03*
G04 #@! TO.P,RV2,1*
G04 #@! TO.N,Net-(Q1-Pad3)*
X140200000Y-43500000D03*
D25*
G04 #@! TO.P,RV2,*
G04 #@! TO.N,*
X130371216Y-43429289D03*
X136593755Y-37206750D03*
G04 #@! TD*
G04 #@! TO.P,RV3,*
G04 #@! TO.N,*
X133206245Y-146693250D03*
X139428784Y-140470711D03*
D16*
G04 #@! TO.P,RV3,1*
G04 #@! TO.N,N/C*
X129600000Y-140400000D03*
G04 #@! TO.P,RV3,2*
G04 #@! TO.N,VFO_OUT*
X131367767Y-138632233D03*
G04 #@! TO.P,RV3,3*
G04 #@! TO.N,Net-(R8-Pad2)*
X133135534Y-136864466D03*
G04 #@! TD*
G04 #@! TO.P,RV4,3*
G04 #@! TO.N,GND*
X179164466Y-95364466D03*
G04 #@! TO.P,RV4,2*
G04 #@! TO.N,Net-(RV4-Pad2)*
X180932233Y-97132233D03*
G04 #@! TO.P,RV4,1*
G04 #@! TO.N,+5V*
X182700000Y-98900000D03*
D25*
G04 #@! TO.P,RV4,*
G04 #@! TO.N,*
X182770711Y-89071216D03*
X188993250Y-95293755D03*
G04 #@! TD*
D14*
G04 #@! TO.P,SW1,2*
G04 #@! TO.N,Net-(R8-Pad1)*
X112400000Y-129100000D03*
G04 #@! TO.P,SW1,3*
G04 #@! TO.N,Net-(SW1-Pad3)*
X113814214Y-127685786D03*
G04 #@! TO.P,SW1,1*
G04 #@! TO.N,/MAIN_VFO/TRIANGLE*
X110985786Y-130514214D03*
D13*
G04 #@! TO.P,SW1,*
G04 #@! TO.N,*
X109500862Y-131999138D03*
X115299138Y-126200862D03*
G04 #@! TD*
D14*
G04 #@! TO.P,SW3,2*
G04 #@! TO.N,Net-(BZ1-Pad1)*
X152645227Y-100946447D03*
G04 #@! TO.P,SW3,3*
G04 #@! TO.N,N/C*
X150645226Y-100946447D03*
G04 #@! TO.P,SW3,1*
G04 #@! TO.N,/OUTPUT/OUTPUT*
X154645228Y-100946447D03*
D13*
G04 #@! TO.P,SW3,*
G04 #@! TO.N,*
X156745227Y-100946447D03*
X148545227Y-100946447D03*
G04 #@! TD*
D10*
G04 #@! TO.P,U1,1*
G04 #@! TO.N,Net-(Q1-Pad1)*
X117500000Y-102700000D03*
D18*
G04 #@! TD*
G04 #@! TO.N,Net-(Q1-Pad1)*
G04 #@! TO.C,U1*
G36*
X116368629Y-102700000D02*
X117500000Y-101568629D01*
X118631371Y-102700000D01*
X117500000Y-103831371D01*
X116368629Y-102700000D01*
X116368629Y-102700000D01*
G37*
D10*
G04 #@! TO.P,U1,8*
G04 #@! TO.N,Net-(SW1-Pad3)*
X112111846Y-118864461D03*
D23*
G04 #@! TD*
G04 #@! TO.N,Net-(SW1-Pad3)*
G04 #@! TO.C,U1*
X112111846Y-118864461D02*
X112111846Y-118864461D01*
D10*
G04 #@! TO.P,U1,2*
G04 #@! TO.N,Net-(JP2-Pad2)*
X115703949Y-104496051D03*
D23*
G04 #@! TD*
G04 #@! TO.N,Net-(JP2-Pad2)*
G04 #@! TO.C,U1*
X115703949Y-104496051D02*
X115703949Y-104496051D01*
D10*
G04 #@! TO.P,U1,9*
G04 #@! TO.N,Net-(SW1-Pad3)*
X113907898Y-117068410D03*
D23*
G04 #@! TD*
G04 #@! TO.N,Net-(SW1-Pad3)*
G04 #@! TO.C,U1*
X113907898Y-117068410D02*
X113907898Y-117068410D01*
D10*
G04 #@! TO.P,U1,3*
G04 #@! TO.N,/MAIN_VFO/TRIM*
X113907898Y-106292102D03*
D23*
G04 #@! TD*
G04 #@! TO.N,/MAIN_VFO/TRIM*
G04 #@! TO.C,U1*
X113907898Y-106292102D02*
X113907898Y-106292102D01*
D10*
G04 #@! TO.P,U1,10*
G04 #@! TO.N,Net-(R5-Pad1)*
X115703949Y-115272359D03*
D23*
G04 #@! TD*
G04 #@! TO.N,Net-(R5-Pad1)*
G04 #@! TO.C,U1*
X115703949Y-115272359D02*
X115703949Y-115272359D01*
D10*
G04 #@! TO.P,U1,4*
G04 #@! TO.N,+5V*
X112111846Y-108088154D03*
D23*
G04 #@! TD*
G04 #@! TO.N,+5V*
G04 #@! TO.C,U1*
X112111846Y-108088154D02*
X112111846Y-108088154D01*
D10*
G04 #@! TO.P,U1,11*
G04 #@! TO.N,GND*
X117500000Y-113476307D03*
D23*
G04 #@! TD*
G04 #@! TO.N,GND*
G04 #@! TO.C,U1*
X117500000Y-113476307D02*
X117500000Y-113476307D01*
D10*
G04 #@! TO.P,U1,5*
G04 #@! TO.N,/MAIN_VFO/TRIM*
X110315795Y-109884205D03*
D23*
G04 #@! TD*
G04 #@! TO.N,/MAIN_VFO/TRIM*
G04 #@! TO.C,U1*
X110315795Y-109884205D02*
X110315795Y-109884205D01*
D10*
G04 #@! TO.P,U1,12*
G04 #@! TO.N,Net-(RV4-Pad2)*
X119296051Y-111680256D03*
D23*
G04 #@! TD*
G04 #@! TO.N,Net-(RV4-Pad2)*
G04 #@! TO.C,U1*
X119296051Y-111680256D02*
X119296051Y-111680256D01*
D10*
G04 #@! TO.P,U1,6*
G04 #@! TO.N,Net-(C2-Pad2)*
X108519744Y-111680256D03*
D23*
G04 #@! TD*
G04 #@! TO.N,Net-(C2-Pad2)*
G04 #@! TO.C,U1*
X108519744Y-111680256D02*
X108519744Y-111680256D01*
D10*
G04 #@! TO.P,U1,13*
G04 #@! TO.N,Net-(R8-Pad2)*
X121092102Y-109884205D03*
D23*
G04 #@! TD*
G04 #@! TO.N,Net-(R8-Pad2)*
G04 #@! TO.C,U1*
X121092102Y-109884205D02*
X121092102Y-109884205D01*
D10*
G04 #@! TO.P,U1,7*
G04 #@! TO.N,/MAIN_VFO/TRIANGLE*
X106723693Y-113476307D03*
D23*
G04 #@! TD*
G04 #@! TO.N,/MAIN_VFO/TRIANGLE*
G04 #@! TO.C,U1*
X106723693Y-113476307D02*
X106723693Y-113476307D01*
D10*
G04 #@! TO.P,U1,14*
G04 #@! TO.N,VFO_OUT*
X122888154Y-108088154D03*
D23*
G04 #@! TD*
G04 #@! TO.N,VFO_OUT*
G04 #@! TO.C,U1*
X122888154Y-108088154D02*
X122888154Y-108088154D01*
D10*
G04 #@! TO.P,U2,1*
G04 #@! TO.N,GND*
X96400000Y-129400000D03*
D18*
G04 #@! TD*
G04 #@! TO.N,GND*
G04 #@! TO.C,U2*
G36*
X95268629Y-129400000D02*
X96400000Y-128268629D01*
X97531371Y-129400000D01*
X96400000Y-130531371D01*
X95268629Y-129400000D01*
X95268629Y-129400000D01*
G37*
D10*
G04 #@! TO.P,U2,5*
G04 #@! TO.N,N/C*
X96400000Y-140176307D03*
D23*
G04 #@! TD*
G04 #@! TO.N,N/C*
G04 #@! TO.C,U2*
X96400000Y-140176307D02*
X96400000Y-140176307D01*
D10*
G04 #@! TO.P,U2,2*
G04 #@! TO.N,/MAIN_VFO/TRIANGLE*
X94603949Y-131196051D03*
D23*
G04 #@! TD*
G04 #@! TO.N,/MAIN_VFO/TRIANGLE*
G04 #@! TO.C,U2*
X94603949Y-131196051D02*
X94603949Y-131196051D01*
D10*
G04 #@! TO.P,U2,6*
G04 #@! TO.N,/MAIN_VFO/TRIANGLE*
X98196051Y-138380256D03*
D23*
G04 #@! TD*
G04 #@! TO.N,/MAIN_VFO/TRIANGLE*
G04 #@! TO.C,U2*
X98196051Y-138380256D02*
X98196051Y-138380256D01*
D10*
G04 #@! TO.P,U2,3*
G04 #@! TO.N,Net-(R1-Pad1)*
X92807898Y-132992102D03*
D23*
G04 #@! TD*
G04 #@! TO.N,Net-(R1-Pad1)*
G04 #@! TO.C,U2*
X92807898Y-132992102D02*
X92807898Y-132992102D01*
D10*
G04 #@! TO.P,U2,7*
G04 #@! TO.N,/MAIN_VFO/DISCHARGE*
X99992102Y-136584205D03*
D23*
G04 #@! TD*
G04 #@! TO.N,/MAIN_VFO/DISCHARGE*
G04 #@! TO.C,U2*
X99992102Y-136584205D02*
X99992102Y-136584205D01*
D10*
G04 #@! TO.P,U2,4*
G04 #@! TO.N,+5V*
X91011846Y-134788154D03*
D23*
G04 #@! TD*
G04 #@! TO.N,+5V*
G04 #@! TO.C,U2*
X91011846Y-134788154D02*
X91011846Y-134788154D01*
D10*
G04 #@! TO.P,U2,8*
G04 #@! TO.N,+5V*
X101788154Y-134788154D03*
D23*
G04 #@! TD*
G04 #@! TO.N,+5V*
G04 #@! TO.C,U2*
X101788154Y-134788154D02*
X101788154Y-134788154D01*
D26*
G04 #@! TO.P,U3,1*
G04 #@! TO.N,VDD_BAT*
X110500000Y-60150000D03*
D18*
G04 #@! TD*
G04 #@! TO.N,VDD_BAT*
G04 #@! TO.C,U3*
G36*
X110533588Y-61530626D02*
X109119374Y-60116412D01*
X110466412Y-58769374D01*
X111880626Y-60183588D01*
X110533588Y-61530626D01*
X110533588Y-61530626D01*
G37*
D26*
G04 #@! TO.P,U3,2*
G04 #@! TO.N,GND*
X112296051Y-58353949D03*
D27*
G04 #@! TD*
G04 #@! TO.N,GND*
G04 #@! TO.C,U3*
X112262463Y-58320361D02*
X112329639Y-58387537D01*
D26*
G04 #@! TO.P,U3,3*
G04 #@! TO.N,+5V*
X114092102Y-56557898D03*
D27*
G04 #@! TD*
G04 #@! TO.N,+5V*
G04 #@! TO.C,U3*
X114058514Y-56524310D02*
X114125690Y-56591486D01*
D10*
G04 #@! TO.P,U4,1*
G04 #@! TO.N,/OUTPUT/LO_Z_REF*
X168300000Y-131200000D03*
D18*
G04 #@! TD*
G04 #@! TO.N,/OUTPUT/LO_Z_REF*
G04 #@! TO.C,U4*
G36*
X167168629Y-131200000D02*
X168300000Y-130068629D01*
X169431371Y-131200000D01*
X168300000Y-132331371D01*
X167168629Y-131200000D01*
X167168629Y-131200000D01*
G37*
D10*
G04 #@! TO.P,U4,5*
G04 #@! TO.N,VFO_OUT*
X168300000Y-141976307D03*
D23*
G04 #@! TD*
G04 #@! TO.N,VFO_OUT*
G04 #@! TO.C,U4*
X168300000Y-141976307D02*
X168300000Y-141976307D01*
D10*
G04 #@! TO.P,U4,2*
G04 #@! TO.N,/OUTPUT/LO_Z_REF*
X166503949Y-132996051D03*
D23*
G04 #@! TD*
G04 #@! TO.N,/OUTPUT/LO_Z_REF*
G04 #@! TO.C,U4*
X166503949Y-132996051D02*
X166503949Y-132996051D01*
D10*
G04 #@! TO.P,U4,6*
G04 #@! TO.N,Net-(JP3-Pad2)*
X170096051Y-140180256D03*
D23*
G04 #@! TD*
G04 #@! TO.N,Net-(JP3-Pad2)*
G04 #@! TO.C,U4*
X170096051Y-140180256D02*
X170096051Y-140180256D01*
D10*
G04 #@! TO.P,U4,3*
G04 #@! TO.N,HI_Z_REF*
X164707898Y-134792102D03*
D23*
G04 #@! TD*
G04 #@! TO.N,HI_Z_REF*
G04 #@! TO.C,U4*
X164707898Y-134792102D02*
X164707898Y-134792102D01*
D10*
G04 #@! TO.P,U4,7*
G04 #@! TO.N,Net-(JP3-Pad1)*
X171892102Y-138384205D03*
D23*
G04 #@! TD*
G04 #@! TO.N,Net-(JP3-Pad1)*
G04 #@! TO.C,U4*
X171892102Y-138384205D02*
X171892102Y-138384205D01*
D10*
G04 #@! TO.P,U4,4*
G04 #@! TO.N,GND*
X162911846Y-136588154D03*
D23*
G04 #@! TD*
G04 #@! TO.N,GND*
G04 #@! TO.C,U4*
X162911846Y-136588154D02*
X162911846Y-136588154D01*
D10*
G04 #@! TO.P,U4,8*
G04 #@! TO.N,+5V*
X173688154Y-136588154D03*
D23*
G04 #@! TD*
G04 #@! TO.N,+5V*
G04 #@! TO.C,U4*
X173688154Y-136588154D02*
X173688154Y-136588154D01*
D13*
G04 #@! TO.P,TP1,1*
G04 #@! TO.N,Net-(C2-Pad2)*
X103000000Y-117000000D03*
G04 #@! TD*
G04 #@! TO.P,TP2,1*
G04 #@! TO.N,/MAIN_VFO/TRIANGLE*
X97100000Y-117100000D03*
G04 #@! TD*
G04 #@! TO.P,TP3,1*
G04 #@! TO.N,Net-(Q1-Pad1)*
X121300000Y-98900000D03*
G04 #@! TD*
G04 #@! TO.P,TP4,1*
G04 #@! TO.N,Net-(JP1-Pad2)*
X140550000Y-54150000D03*
G04 #@! TD*
G04 #@! TO.P,TP5,1*
G04 #@! TO.N,Net-(R1-Pad1)*
X106600000Y-93600000D03*
G04 #@! TD*
G04 #@! TO.P,TP6,1*
G04 #@! TO.N,GND*
X177400000Y-105400000D03*
G04 #@! TD*
G04 #@! TO.P,TP7,1*
G04 #@! TO.N,VFO_OUT*
X158050000Y-152050000D03*
G04 #@! TD*
G04 #@! TO.P,TP8,1*
G04 #@! TO.N,Net-(R5-Pad1)*
X144400000Y-128300000D03*
G04 #@! TD*
G04 #@! TO.P,TP9,1*
G04 #@! TO.N,Net-(R8-Pad1)*
X120150000Y-134850000D03*
G04 #@! TD*
G04 #@! TO.P,TP10,1*
G04 #@! TO.N,Net-(SW1-Pad3)*
X116700000Y-121600000D03*
G04 #@! TD*
G04 #@! TO.P,TP11,1*
G04 #@! TO.N,Net-(RV4-Pad2)*
X128950000Y-99400000D03*
G04 #@! TD*
G04 #@! TO.P,TP13,1*
G04 #@! TO.N,HI_Z_REF*
X198700000Y-115300000D03*
G04 #@! TD*
G04 #@! TO.P,TP14,1*
G04 #@! TO.N,VDD_BAT*
X106900000Y-35400000D03*
G04 #@! TD*
G04 #@! TO.P,TP15,1*
G04 #@! TO.N,+5V*
X161989949Y-115894322D03*
G04 #@! TD*
G04 #@! TO.P,TP16,1*
G04 #@! TO.N,GND*
X167646804Y-110237469D03*
G04 #@! TD*
G04 #@! TO.P,TP17,1*
G04 #@! TO.N,/OUTPUT/LO_Z_REF*
X162850000Y-129450000D03*
G04 #@! TD*
D28*
G04 #@! TO.P,BZ1,1*
G04 #@! TO.N,Net-(BZ1-Pad1)*
X162900000Y-95400000D03*
D13*
G04 #@! TO.P,BZ1,2*
G04 #@! TO.N,/OUTPUT/LO_Z_REF*
X167900000Y-95400000D03*
G04 #@! TD*
D10*
G04 #@! TO.P,C3,2*
G04 #@! TO.N,GND*
X106600000Y-98900000D03*
G04 #@! TO.P,C3,1*
G04 #@! TO.N,+5V*
X108367767Y-100667767D03*
G04 #@! TD*
G04 #@! TO.P,C5,2*
G04 #@! TO.N,GND*
X134432233Y-104132233D03*
G04 #@! TO.P,C5,1*
G04 #@! TO.N,+5V*
X136200000Y-105900000D03*
G04 #@! TD*
G04 #@! TO.P,C6,1*
G04 #@! TO.N,HI_Z_REF*
X186700000Y-115300000D03*
G04 #@! TO.P,C6,2*
G04 #@! TO.N,GND*
X184200000Y-115300000D03*
G04 #@! TD*
G04 #@! TO.P,C7,1*
G04 #@! TO.N,+5V*
X176200000Y-134100000D03*
G04 #@! TO.P,C7,2*
G04 #@! TO.N,GND*
X174432233Y-132332233D03*
G04 #@! TD*
D14*
G04 #@! TO.P,RV5,1*
G04 #@! TO.N,Net-(R10-Pad2)*
X101667767Y-94432233D03*
G04 #@! TO.P,RV5,2*
G04 #@! TO.N,/MAIN_VFO/TRIM*
X98132233Y-94432233D03*
G04 #@! TO.P,RV5,3*
G04 #@! TO.N,Net-(R12-Pad1)*
X98132233Y-97967767D03*
G04 #@! TD*
D29*
G04 #@! TO.P,Q1,1*
G04 #@! TO.N,Net-(Q1-Pad1)*
X105200000Y-84800000D03*
D30*
G04 #@! TO.P,Q1,3*
G04 #@! TO.N,Net-(Q1-Pad3)*
X105200000Y-82260000D03*
G04 #@! TO.P,Q1,2*
G04 #@! TO.N,Net-(Q1-Pad2)*
X105200000Y-83530000D03*
G04 #@! TD*
G04 #@! TO.P,Q2,2*
G04 #@! TO.N,Net-(Q2-Pad2)*
X122300000Y-86230000D03*
G04 #@! TO.P,Q2,3*
G04 #@! TO.N,Net-(Q2-Pad3)*
X122300000Y-84960000D03*
D29*
G04 #@! TO.P,Q2,1*
G04 #@! TO.N,Net-(Q1-Pad1)*
X122300000Y-87500000D03*
G04 #@! TD*
D24*
G04 #@! TO.P,R13,2*
G04 #@! TO.N,Net-(JP2-Pad2)*
X88500000Y-110660000D03*
D10*
G04 #@! TO.P,R13,1*
G04 #@! TO.N,Net-(JP2-Pad1)*
X88500000Y-100500000D03*
G04 #@! TD*
G04 #@! TO.P,R16,1*
G04 #@! TO.N,/OUTPUT/OUTPUT*
X168300000Y-156600000D03*
D24*
G04 #@! TO.P,R16,2*
G04 #@! TO.N,VFO_OUT*
X168300000Y-146440000D03*
G04 #@! TD*
D10*
G04 #@! TO.P,R17,1*
G04 #@! TO.N,+5V*
X197300000Y-144300000D03*
G04 #@! TO.P,R17,2*
G04 #@! TO.N,Net-(Q3-Pad1)*
X190115795Y-137115795D03*
D23*
G04 #@! TD*
G04 #@! TO.N,Net-(Q3-Pad1)*
G04 #@! TO.C,R17*
X190115795Y-137115795D02*
X190115795Y-137115795D01*
D10*
G04 #@! TO.P,R21,2*
G04 #@! TO.N,GND*
X186084205Y-156284205D03*
D23*
G04 #@! TD*
G04 #@! TO.N,GND*
G04 #@! TO.C,R21*
X186084205Y-156284205D02*
X186084205Y-156284205D01*
D10*
G04 #@! TO.P,R21,1*
G04 #@! TO.N,Net-(Q4-Pad1)*
X178900000Y-149100000D03*
G04 #@! TD*
D13*
G04 #@! TO.P,TP12,1*
G04 #@! TO.N,Net-(JP3-Pad2)*
X200300000Y-135900000D03*
G04 #@! TD*
D31*
G04 #@! TO.N,GND*
X118400000Y-130900000D03*
X116000000Y-133300000D03*
G04 #@! TO.N,Net-(C2-Pad2)*
X127850000Y-83150000D03*
G04 #@! TO.N,/MAIN_VFO/DISCHARGE*
X104100000Y-138800000D03*
X89100000Y-125900000D03*
G04 #@! TO.N,/OUTPUT/OUTPUT*
X154500000Y-110250000D03*
G04 #@! TO.N,/OUTPUT/LO_Z_REF*
X154700000Y-147600000D03*
X166500000Y-115100000D03*
G04 #@! TO.N,Net-(Q1-Pad3)*
X117600000Y-76300000D03*
G04 #@! TO.N,Net-(Q2-Pad3)*
X120750000Y-78050000D03*
G04 #@! TO.N,Net-(JP2-Pad2)*
X103684205Y-120515795D03*
G04 #@! TO.N,Net-(R1-Pad1)*
X93050000Y-116950000D03*
X103250000Y-106750000D03*
G04 #@! TO.N,Net-(R5-Pad1)*
X135200000Y-114150000D03*
G04 #@! TO.N,VFO_OUT*
X127900000Y-112800000D03*
G04 #@! TO.N,Net-(RV4-Pad2)*
X134900000Y-93550000D03*
G04 #@! TO.N,/MAIN_VFO/TRIM*
X107100000Y-103400000D03*
X94100000Y-83000000D03*
G04 #@! TD*
D32*
G04 #@! TO.N,GND*
X101632233Y-127632233D02*
X98267767Y-127632233D01*
X98267767Y-127632233D02*
X96400000Y-129500000D01*
X116000000Y-133300000D02*
X118400000Y-130900000D01*
G04 #@! TO.N,+5V*
X145995327Y-110639702D02*
X148795470Y-113439845D01*
X173688154Y-136588154D02*
X173811846Y-136588154D01*
X197378532Y-144267559D02*
X197378532Y-144178532D01*
X197378532Y-144178532D02*
X194400000Y-141200000D01*
X176200000Y-134100000D02*
X182300000Y-128000000D01*
X182300000Y-128000000D02*
X187800000Y-128000000D01*
X91011846Y-134788154D02*
X91011846Y-133511846D01*
X91011846Y-133511846D02*
X88600000Y-131100000D01*
X112111846Y-108088154D02*
X113300000Y-109276308D01*
X113300000Y-109276308D02*
X113300000Y-111700000D01*
X113300000Y-111700000D02*
X108700000Y-116300000D01*
X108700000Y-116300000D02*
X105700000Y-116300000D01*
X105700000Y-116300000D02*
X104600000Y-115200000D01*
X112111846Y-108088154D02*
X113223692Y-109200000D01*
X113223692Y-109200000D02*
X114600000Y-109200000D01*
X114600000Y-109200000D02*
X120100000Y-103700000D01*
X120100000Y-103700000D02*
X120100000Y-101700000D01*
X120100000Y-101700000D02*
X118500000Y-100100000D01*
X176200000Y-134100000D02*
X173700000Y-136600000D01*
G04 #@! TO.N,/MAIN_VFO/TRIANGLE*
X103500000Y-110700000D02*
X103700000Y-110700000D01*
X103700000Y-110700000D02*
X106500000Y-113500000D01*
G04 #@! TO.N,Net-(C2-Pad2)*
X105267767Y-108932233D02*
X105632233Y-108932233D01*
X105632233Y-108932233D02*
X108400000Y-111700000D01*
X127859045Y-61359045D02*
X127800000Y-61300000D01*
G04 #@! TO.N,VDD_BAT*
X112585786Y-40835786D02*
X108500000Y-44921572D01*
X108500000Y-44921572D02*
X108500000Y-58200000D01*
X108500000Y-58200000D02*
X110500000Y-60200000D01*
X106900000Y-35400000D02*
X111250000Y-35400000D01*
X111250000Y-35400000D02*
X114050000Y-38200000D01*
X114050000Y-38200000D02*
X114050000Y-39450000D01*
X114050000Y-39450000D02*
X112600000Y-40900000D01*
G04 #@! TO.N,HI_Z_REF*
X192700000Y-112300000D02*
X192700000Y-117950000D01*
X192700000Y-117950000D02*
X192800000Y-118050000D01*
X192800000Y-118050000D02*
X196100000Y-118050000D01*
X196100000Y-118050000D02*
X198650000Y-115500000D01*
X192700000Y-112300000D02*
X189650000Y-112300000D01*
X189650000Y-112300000D02*
X186650000Y-115300000D01*
G04 #@! TO.N,/MAIN_VFO/DISCHARGE*
X86850000Y-136700000D02*
X93400000Y-143250000D01*
X93400000Y-143250000D02*
X97800000Y-143250000D01*
X97800000Y-143250000D02*
X101300000Y-139750000D01*
X101300000Y-139750000D02*
X101300000Y-138050000D01*
X101300000Y-138050000D02*
X99950000Y-136700000D01*
X123400000Y-138800000D02*
X131450000Y-130750000D01*
X104200000Y-138800000D02*
X123400000Y-138800000D01*
X86850000Y-136700000D02*
X86850000Y-128150000D01*
X86850000Y-128150000D02*
X89100000Y-125900000D01*
G04 #@! TO.N,Net-(D1-Pad2)*
X110500000Y-66460000D02*
X109990000Y-65950000D01*
X110500000Y-66460000D02*
X110910000Y-66050000D01*
G04 #@! TO.N,Net-(D2-Pad2)*
X137984205Y-85834205D02*
X149315795Y-85834205D01*
X149315795Y-85834205D02*
X149350000Y-85800000D01*
G04 #@! TO.N,/OUTPUT/OUTPUT*
X160500000Y-148900000D02*
X143850000Y-148900000D01*
X143850000Y-148900000D02*
X136500000Y-141550000D01*
X136500000Y-141550000D02*
X136500000Y-135050000D01*
X154600000Y-110350000D02*
X154500000Y-110250000D01*
X154600000Y-118000000D02*
X147350000Y-125250000D01*
X154600000Y-118000000D02*
X154600000Y-110350000D01*
X147350000Y-125250000D02*
X147350000Y-129900000D01*
X146000000Y-131250000D02*
X140300000Y-131250000D01*
X147350000Y-129900000D02*
X146000000Y-131250000D01*
X136500000Y-135050000D02*
X140300000Y-131250000D01*
X168300000Y-156700000D02*
X160500000Y-148900000D01*
G04 #@! TO.N,/OUTPUT/LO_Z_REF*
X168300000Y-131200000D02*
X166400000Y-133100000D01*
X166400000Y-133100000D02*
X167100000Y-133800000D01*
X167100000Y-133800000D02*
X167100000Y-135200000D01*
X167100000Y-135200000D02*
X154700000Y-147600000D01*
X154700000Y-147600000D02*
X154600000Y-147600000D01*
X166500000Y-115100000D02*
X164300000Y-112900000D01*
X164300000Y-112900000D02*
X164300000Y-99100000D01*
X164300000Y-99100000D02*
X168000000Y-95400000D01*
X168000000Y-95400000D02*
X167900000Y-95400000D01*
G04 #@! TO.N,Net-(JP1-Pad2)*
X139950000Y-46800000D02*
X138450000Y-45300000D01*
X139950000Y-49200000D02*
X139950000Y-46800000D01*
X135043250Y-54152587D02*
X135043250Y-54106750D01*
G04 #@! TO.N,Net-(C2-Pad2)*
X127850000Y-83150000D02*
X127850000Y-61250000D01*
X127859045Y-61336792D02*
X129422253Y-62900000D01*
G04 #@! TO.N,Net-(JP1-Pad2)*
X135043250Y-54106750D02*
X139950000Y-49200000D01*
X140550000Y-54150000D02*
X135000000Y-54150000D01*
X136500000Y-55650000D02*
X135050000Y-54200000D01*
X136500000Y-59400000D02*
X136500000Y-55650000D01*
X135409619Y-60490381D02*
X136500000Y-59400000D01*
G04 #@! TO.N,Net-(C2-Pad2)*
X133050000Y-62900000D02*
X134450000Y-61500000D01*
X129422253Y-62900000D02*
X133050000Y-62900000D01*
G04 #@! TO.N,Net-(JP3-Pad1)*
X191226702Y-143822082D02*
X191226702Y-143772583D01*
X185287006Y-149797134D02*
X185287006Y-149853701D01*
X162640381Y-144640381D02*
X161650000Y-143650000D01*
X161650000Y-143650000D02*
X161650000Y-142900000D01*
X161650000Y-142900000D02*
X167400000Y-137150000D01*
X167400000Y-137150000D02*
X170600000Y-137150000D01*
X170600000Y-137150000D02*
X171750000Y-138300000D01*
X188157859Y-146926279D02*
X185287006Y-149797134D01*
X188440702Y-146608083D02*
X191226702Y-143822082D01*
G04 #@! TO.N,Net-(JP3-Pad2)*
X177013856Y-139742074D02*
X173478323Y-143277608D01*
X180973654Y-135499434D02*
X180973654Y-136065119D01*
X184961737Y-131511351D02*
X180973654Y-135499434D01*
X163559619Y-145559619D02*
X164400000Y-146400000D01*
X164400000Y-146400000D02*
X165850000Y-146400000D01*
X165850000Y-146400000D02*
X167500000Y-148050000D01*
X167500000Y-148050000D02*
X169200000Y-148050000D01*
X169200000Y-148050000D02*
X170150000Y-147100000D01*
X170150000Y-147100000D02*
X170150000Y-146250000D01*
X170150000Y-146250000D02*
X171200000Y-145200000D01*
X170096051Y-140180256D02*
X170380971Y-140180256D01*
X170380971Y-140180256D02*
X173478323Y-143277608D01*
X171200000Y-145200000D02*
X173550000Y-145200000D01*
X187309331Y-131511351D02*
X184961737Y-131511351D01*
X180973654Y-136065119D02*
X180973654Y-139742074D01*
X180973654Y-139742074D02*
X177013856Y-139742074D01*
X173478323Y-143277608D02*
X173478323Y-145257507D01*
G04 #@! TO.N,Net-(Q1-Pad2)*
X106381926Y-83377670D02*
X111620101Y-83377670D01*
X106381926Y-83377670D02*
X105322330Y-83377670D01*
X105322330Y-83377670D02*
X105300000Y-83400000D01*
G04 #@! TO.N,Net-(Q1-Pad1)*
X85735534Y-92800000D02*
X97050000Y-92800000D01*
X97050000Y-92800000D02*
X105000000Y-84850000D01*
X122250000Y-97950000D02*
X122250000Y-87550000D01*
X121300000Y-98900000D02*
X122250000Y-97950000D01*
X79767767Y-86832233D02*
X85735534Y-92800000D01*
G04 #@! TO.N,Net-(Q1-Pad3)*
X138000000Y-43400000D02*
X134600000Y-46800000D01*
X134600000Y-50500000D02*
X120000000Y-65100000D01*
X134600000Y-46800000D02*
X134600000Y-50500000D01*
X120000000Y-65100000D02*
X120000000Y-71400000D01*
X120000000Y-73900000D02*
X120000000Y-71400000D01*
X117600000Y-76300000D02*
X120000000Y-73900000D01*
X140300000Y-43400000D02*
X138000000Y-43400000D01*
G04 #@! TO.N,Net-(Q2-Pad3)*
X120750000Y-71200000D02*
X120750000Y-65450000D01*
X120750000Y-78050000D02*
X120750000Y-71200000D01*
X120750000Y-65450000D02*
X136700000Y-49500000D01*
X136700000Y-49500000D02*
X136700000Y-47100000D01*
X136600000Y-47700000D02*
X136600000Y-47050000D01*
G04 #@! TO.N,Net-(Q3-Pad1)*
X189105382Y-133307403D02*
X190166043Y-134368064D01*
X190166043Y-134368064D02*
X190166043Y-137055069D01*
G04 #@! TO.N,Net-(Q4-Pad1)*
X175316800Y-147095985D02*
X177367410Y-149146595D01*
X177367410Y-149146595D02*
X178781623Y-149146595D01*
G04 #@! TO.N,Net-(R1-Pad1)*
X111549390Y-93608380D02*
X111571728Y-93630718D01*
X111571728Y-93630718D02*
X116781981Y-93630718D01*
X82200000Y-127700000D02*
X82200000Y-123150000D01*
X82200000Y-123150000D02*
X88400000Y-116950000D01*
X88400000Y-116950000D02*
X93050000Y-116950000D01*
X103250000Y-106750000D02*
X103250000Y-96900000D01*
X103250000Y-96900000D02*
X106600000Y-93550000D01*
X106600000Y-93600000D02*
X111400000Y-93600000D01*
G04 #@! TO.N,Net-(R5-Pad1)*
X138811122Y-117823907D02*
X141639549Y-120652334D01*
X141568838Y-120581623D02*
X144397265Y-123410051D01*
X138648528Y-123551472D02*
X141600000Y-120600000D01*
X144354839Y-123452477D02*
X144354839Y-128354839D01*
X144354839Y-128354839D02*
X144500000Y-128500000D01*
X138811122Y-117823907D02*
X138811122Y-117761122D01*
X138811122Y-117761122D02*
X135200000Y-114150000D01*
G04 #@! TO.N,Net-(R8-Pad2)*
X127484205Y-116315795D02*
X127484205Y-116284205D01*
X127484205Y-116284205D02*
X121200000Y-110000000D01*
X127484205Y-116284205D02*
X127484205Y-118884205D01*
X127484205Y-118884205D02*
X127500000Y-118900000D01*
X127500000Y-118900000D02*
X127500000Y-119000000D01*
G04 #@! TO.N,VFO_OUT*
X158050000Y-152050000D02*
X144650000Y-152050000D01*
X144650000Y-152050000D02*
X131300000Y-138700000D01*
X127900000Y-112800000D02*
X123300000Y-108200000D01*
X123300000Y-108200000D02*
X122800000Y-108200000D01*
X168300000Y-141976307D02*
X168300000Y-146600000D01*
G04 #@! TO.N,Net-(RV4-Pad2)*
X134900000Y-93550000D02*
X153600000Y-93550000D01*
X153600000Y-93550000D02*
X157600000Y-89550000D01*
X157600000Y-89550000D02*
X176850000Y-89550000D01*
X180932233Y-97132233D02*
X182050000Y-96014466D01*
X176850000Y-89550000D02*
X182050000Y-94750000D01*
X182050000Y-96014466D02*
X182050000Y-94750000D01*
G04 #@! TO.N,Net-(Q3-Pad2)*
X183943503Y-136630805D02*
X187196194Y-133378113D01*
G04 #@! TO.N,Net-(Q4-Pad2)*
X173520749Y-147095985D02*
X173520749Y-147053558D01*
X173520749Y-147095985D02*
X173520749Y-147079251D01*
X173520749Y-147079251D02*
X178000000Y-142600000D01*
X178000000Y-142600000D02*
X178000000Y-142500000D01*
G04 #@! TO.N,Net-(BZ1-Pad1)*
X162950000Y-95400000D02*
X156500000Y-95400000D01*
X156500000Y-95400000D02*
X152700000Y-99200000D01*
X152700000Y-99200000D02*
X152700000Y-101000000D01*
G04 #@! TO.N,/MAIN_VFO/TRIM*
X113907898Y-106292102D02*
X111015796Y-103400000D01*
X111015796Y-103400000D02*
X107100000Y-103400000D01*
X94100000Y-83000000D02*
X94100000Y-64400000D01*
X94100000Y-64400000D02*
X97100000Y-61400000D01*
X107100000Y-103400000D02*
X107100000Y-106800000D01*
X107100000Y-106800000D02*
X110300000Y-110000000D01*
G04 #@! TO.N,Net-(JP2-Pad1)*
X84300000Y-104550001D02*
X84300000Y-102299999D01*
X84300000Y-102299999D02*
X86199999Y-100400000D01*
X86199999Y-100400000D02*
X88500000Y-100400000D01*
G04 #@! TO.N,Net-(R10-Pad2)*
X101667767Y-94432233D02*
X101667767Y-91532233D01*
X101667767Y-91532233D02*
X103500000Y-89700000D01*
G04 #@! TO.N,Net-(R12-Pad1)*
X98132233Y-97967767D02*
X97632233Y-97967767D01*
X97632233Y-97967767D02*
X95000000Y-100600000D01*
G04 #@! TO.N,Net-(SW1-Pad3)*
X113814214Y-127685786D02*
X112800000Y-126671572D01*
X112800000Y-126671572D02*
X112800000Y-125400000D01*
X112800000Y-125400000D02*
X116700000Y-121500000D01*
X116700000Y-121500000D02*
X116700000Y-119800000D01*
X116700000Y-119800000D02*
X114000000Y-117100000D01*
X114000000Y-117100000D02*
X112100000Y-119000000D01*
G04 #@! TO.N,Net-(JP2-Pad2)*
X84300000Y-105849999D02*
X84300000Y-108600000D01*
X84300000Y-108600000D02*
X86300000Y-110600000D01*
X86300000Y-110600000D02*
X88500000Y-110600000D01*
X103684205Y-120515795D02*
X89484205Y-120515795D01*
X89484205Y-120515795D02*
X89400000Y-120600000D01*
G04 #@! TD*
D33*
G04 #@! TO.N,+5V*
G36*
X186720483Y-33400089D02*
X136210109Y-84010286D01*
X136182619Y-84051515D01*
X136173000Y-84100125D01*
X136182715Y-84148717D01*
X136210197Y-84189803D01*
X136681427Y-84661033D01*
X136349871Y-85157242D01*
X136215215Y-85834205D01*
X136349871Y-86511168D01*
X136733340Y-87085070D01*
X137307242Y-87468539D01*
X137813325Y-87569205D01*
X138155085Y-87569205D01*
X138661168Y-87468539D01*
X139157377Y-87136983D01*
X141910197Y-89889803D01*
X141951399Y-89917333D01*
X142000000Y-89927000D01*
X142048601Y-89917333D01*
X142089891Y-89889714D01*
X145254147Y-86719205D01*
X147452682Y-86719205D01*
X147490034Y-86809380D01*
X148090620Y-87409966D01*
X148875322Y-87735000D01*
X149724678Y-87735000D01*
X150509380Y-87409966D01*
X151109966Y-86809380D01*
X151435000Y-86024678D01*
X151435000Y-85175322D01*
X151109966Y-84390620D01*
X150509380Y-83790034D01*
X149724678Y-83465000D01*
X148875322Y-83465000D01*
X148238795Y-83728658D01*
X152355995Y-79603321D01*
X159440374Y-79603321D01*
X159440374Y-80452677D01*
X159765408Y-81237379D01*
X160365994Y-81837965D01*
X161150696Y-82162999D01*
X162000052Y-82162999D01*
X162784754Y-81837965D01*
X163385340Y-81237379D01*
X163710374Y-80452677D01*
X163710374Y-79603321D01*
X163385340Y-78818619D01*
X162784754Y-78218033D01*
X162000052Y-77892999D01*
X161150696Y-77892999D01*
X160365994Y-78218033D01*
X159765408Y-78818619D01*
X159440374Y-79603321D01*
X152355995Y-79603321D01*
X171318480Y-60603361D01*
X178440333Y-60603361D01*
X178440333Y-61452717D01*
X178765367Y-62237419D01*
X179365953Y-62838005D01*
X180150655Y-63163039D01*
X181000011Y-63163039D01*
X181784713Y-62838005D01*
X182385299Y-62237419D01*
X182710333Y-61452717D01*
X182710333Y-60603361D01*
X182385299Y-59818659D01*
X181784713Y-59218073D01*
X181000011Y-58893039D01*
X180150655Y-58893039D01*
X179365953Y-59218073D01*
X178765367Y-59818659D01*
X178440333Y-60603361D01*
X171318480Y-60603361D01*
X192599632Y-39280152D01*
X202220849Y-48999545D01*
X162555394Y-88665000D01*
X157687159Y-88665000D01*
X157599999Y-88647663D01*
X157512839Y-88665000D01*
X157512835Y-88665000D01*
X157254690Y-88716348D01*
X157146880Y-88788385D01*
X157035845Y-88862576D01*
X157035844Y-88862577D01*
X156961951Y-88911951D01*
X156912577Y-88985844D01*
X153233422Y-92665000D01*
X135761553Y-92665000D01*
X135599571Y-92503018D01*
X135145657Y-92315000D01*
X134654343Y-92315000D01*
X134200429Y-92503018D01*
X133853018Y-92850429D01*
X133665000Y-93304343D01*
X133665000Y-93795657D01*
X133853018Y-94249571D01*
X134200429Y-94596982D01*
X134654343Y-94785000D01*
X135145657Y-94785000D01*
X135599571Y-94596982D01*
X135761553Y-94435000D01*
X153512839Y-94435000D01*
X153600000Y-94452337D01*
X153687161Y-94435000D01*
X153687165Y-94435000D01*
X153945310Y-94383652D01*
X154238049Y-94188049D01*
X154287425Y-94114153D01*
X157966579Y-90435000D01*
X160785394Y-90435000D01*
X156705394Y-94515000D01*
X156587161Y-94515000D01*
X156500000Y-94497663D01*
X156412839Y-94515000D01*
X156412835Y-94515000D01*
X156154690Y-94566348D01*
X155935845Y-94712576D01*
X155935844Y-94712577D01*
X155861951Y-94761951D01*
X155812577Y-94835844D01*
X152135847Y-98512575D01*
X152061951Y-98561951D01*
X151866348Y-98854691D01*
X151815000Y-99112836D01*
X151815000Y-99112839D01*
X151797663Y-99200000D01*
X151815000Y-99287161D01*
X151815000Y-99405394D01*
X151710197Y-99510197D01*
X151682667Y-99551399D01*
X151673000Y-99600000D01*
X151682667Y-99648601D01*
X151710197Y-99689803D01*
X151815000Y-99794606D01*
X151815000Y-99801017D01*
X151645227Y-99970791D01*
X151436563Y-99762127D01*
X150923107Y-99549447D01*
X150367345Y-99549447D01*
X149853889Y-99762127D01*
X149763518Y-99852499D01*
X149471380Y-99560361D01*
X148870449Y-99311447D01*
X148220005Y-99311447D01*
X147619074Y-99560361D01*
X147159141Y-100020294D01*
X146910227Y-100621225D01*
X146910227Y-101271669D01*
X147159141Y-101872600D01*
X147619074Y-102332533D01*
X148220005Y-102581447D01*
X148870449Y-102581447D01*
X149471380Y-102332533D01*
X149763518Y-102040396D01*
X149853889Y-102130767D01*
X150367345Y-102343447D01*
X150923107Y-102343447D01*
X151436563Y-102130767D01*
X151645227Y-101922104D01*
X151853890Y-102130767D01*
X152367346Y-102343447D01*
X152923108Y-102343447D01*
X153436564Y-102130767D01*
X153645228Y-101922104D01*
X153853891Y-102130767D01*
X154361362Y-102340968D01*
X160310197Y-108289803D01*
X160351399Y-108317333D01*
X160400000Y-108327000D01*
X160448601Y-108317333D01*
X160489803Y-108289803D01*
X163415001Y-105364605D01*
X163415000Y-112812839D01*
X163397663Y-112900000D01*
X163415000Y-112987161D01*
X163415000Y-112987164D01*
X163466348Y-113245309D01*
X163661951Y-113538049D01*
X163735847Y-113587425D01*
X165265000Y-115116579D01*
X165265000Y-115345657D01*
X165453018Y-115799571D01*
X165800429Y-116146982D01*
X166254343Y-116335000D01*
X166745657Y-116335000D01*
X167199571Y-116146982D01*
X167546982Y-115799571D01*
X167735000Y-115345657D01*
X167735000Y-114854343D01*
X167546982Y-114400429D01*
X167199571Y-114053018D01*
X166745657Y-113865000D01*
X166516579Y-113865000D01*
X165185000Y-112533422D01*
X165185000Y-109912247D01*
X166011804Y-109912247D01*
X166011804Y-110562691D01*
X166260718Y-111163622D01*
X166720651Y-111623555D01*
X167321582Y-111872469D01*
X167972026Y-111872469D01*
X168572957Y-111623555D01*
X169032890Y-111163622D01*
X169281804Y-110562691D01*
X169281804Y-109912247D01*
X169032890Y-109311316D01*
X168572957Y-108851383D01*
X167972026Y-108602469D01*
X167321582Y-108602469D01*
X166720651Y-108851383D01*
X166260718Y-109311316D01*
X166011804Y-109912247D01*
X165185000Y-109912247D01*
X165185000Y-105074778D01*
X175765000Y-105074778D01*
X175765000Y-105725222D01*
X176013914Y-106326153D01*
X176473847Y-106786086D01*
X177074778Y-107035000D01*
X177725222Y-107035000D01*
X178326153Y-106786086D01*
X178786086Y-106326153D01*
X179035000Y-105725222D01*
X179035000Y-105074778D01*
X178786086Y-104473847D01*
X178326153Y-104013914D01*
X177725222Y-103765000D01*
X177074778Y-103765000D01*
X176473847Y-104013914D01*
X176013914Y-104473847D01*
X175765000Y-105074778D01*
X165185000Y-105074778D01*
X165185000Y-103594606D01*
X166988647Y-101790959D01*
X191308086Y-101790959D01*
X191429371Y-102013000D01*
X192573000Y-102013000D01*
X192573000Y-100870085D01*
X192827000Y-100870085D01*
X192827000Y-102013000D01*
X193970629Y-102013000D01*
X194091914Y-101790959D01*
X193852389Y-101284866D01*
X193437423Y-100908959D01*
X193049039Y-100748096D01*
X192827000Y-100870085D01*
X192573000Y-100870085D01*
X192350961Y-100748096D01*
X191962577Y-100908959D01*
X191547611Y-101284866D01*
X191308086Y-101790959D01*
X166988647Y-101790959D01*
X169510146Y-99269460D01*
X181179161Y-99269460D01*
X181436314Y-99823336D01*
X181885852Y-100236643D01*
X182330540Y-100420839D01*
X182573000Y-100300576D01*
X182573000Y-99027000D01*
X182827000Y-99027000D01*
X182827000Y-100300576D01*
X183069460Y-100420839D01*
X183623336Y-100163686D01*
X184036643Y-99714148D01*
X184220839Y-99269460D01*
X184100576Y-99027000D01*
X182827000Y-99027000D01*
X182573000Y-99027000D01*
X181299424Y-99027000D01*
X181179161Y-99269460D01*
X169510146Y-99269460D01*
X177414014Y-91365592D01*
X181165001Y-95116580D01*
X181165000Y-95597233D01*
X180699466Y-95597233D01*
X180699466Y-95059136D01*
X180465776Y-94494959D01*
X180033973Y-94063156D01*
X179469796Y-93829466D01*
X178859136Y-93829466D01*
X178294959Y-94063156D01*
X177863156Y-94494959D01*
X177629466Y-95059136D01*
X177629466Y-95669796D01*
X177863156Y-96233973D01*
X178294959Y-96665776D01*
X178859136Y-96899466D01*
X179397233Y-96899466D01*
X179397233Y-97437563D01*
X179630923Y-98001740D01*
X180062726Y-98433543D01*
X180626903Y-98667233D01*
X181237563Y-98667233D01*
X181245360Y-98664003D01*
X181299424Y-98773000D01*
X182393392Y-98773000D01*
X182506251Y-98885859D01*
X182685859Y-98706251D01*
X182573000Y-98593392D01*
X182573000Y-97499424D01*
X182827000Y-97499424D01*
X182827000Y-98773000D01*
X184100576Y-98773000D01*
X184220839Y-98530540D01*
X183963686Y-97976664D01*
X183514148Y-97563357D01*
X183069460Y-97379161D01*
X182827000Y-97499424D01*
X182573000Y-97499424D01*
X182464003Y-97445360D01*
X182467233Y-97437563D01*
X182467233Y-96848812D01*
X182614156Y-96701889D01*
X182688049Y-96652515D01*
X182753414Y-96554691D01*
X182883651Y-96359777D01*
X182883652Y-96359776D01*
X182935000Y-96101631D01*
X182935000Y-96101627D01*
X182952337Y-96014467D01*
X182935000Y-95927307D01*
X182935000Y-94837161D01*
X182948434Y-94769621D01*
X186358250Y-94769621D01*
X186358250Y-95817889D01*
X186759405Y-96786363D01*
X187500642Y-97527600D01*
X188469116Y-97928755D01*
X189517384Y-97928755D01*
X190485858Y-97527600D01*
X191227095Y-96786363D01*
X191628250Y-95817889D01*
X191628250Y-94769621D01*
X191227095Y-93801147D01*
X190485858Y-93059910D01*
X189517384Y-92658755D01*
X188469116Y-92658755D01*
X187500642Y-93059910D01*
X186759405Y-93801147D01*
X186358250Y-94769621D01*
X182948434Y-94769621D01*
X182952337Y-94750000D01*
X182935000Y-94662839D01*
X182935000Y-94662835D01*
X182883652Y-94404690D01*
X182780004Y-94249571D01*
X182737424Y-94185845D01*
X182737423Y-94185844D01*
X182688049Y-94111951D01*
X182614156Y-94062577D01*
X178665592Y-90114014D01*
X180135711Y-88643895D01*
X180135711Y-89595350D01*
X180536866Y-90563824D01*
X181278103Y-91305061D01*
X182246577Y-91706216D01*
X183294845Y-91706216D01*
X184263319Y-91305061D01*
X185004556Y-90563824D01*
X185405711Y-89595350D01*
X185405711Y-88547082D01*
X185004556Y-87578608D01*
X184263319Y-86837371D01*
X183294845Y-86436216D01*
X182343390Y-86436216D01*
X185598268Y-83181338D01*
X193201809Y-91081122D01*
X194396161Y-92773120D01*
X195792873Y-94768424D01*
X197587420Y-97859031D01*
X199182564Y-101248713D01*
X200478916Y-104838611D01*
X201476122Y-108428553D01*
X202174049Y-112217299D01*
X202373000Y-114405756D01*
X202373000Y-119595474D01*
X202173785Y-122384486D01*
X201475894Y-126372433D01*
X200478359Y-130063313D01*
X199381666Y-133353391D01*
X197786707Y-136842364D01*
X195992575Y-140031932D01*
X193799705Y-143121885D01*
X190908116Y-146512025D01*
X188016007Y-149204678D01*
X185025610Y-151696675D01*
X181635576Y-153790520D01*
X179143972Y-155185818D01*
X175154402Y-156881385D01*
X172265052Y-157877713D01*
X168776025Y-158675205D01*
X165586358Y-159173590D01*
X160597705Y-159472909D01*
X156410860Y-159373223D01*
X153721309Y-158974770D01*
X151128043Y-158476065D01*
X148834728Y-157877809D01*
X146243485Y-157080504D01*
X141756234Y-155185887D01*
X138066650Y-153091799D01*
X135674694Y-151497161D01*
X133783560Y-150004161D01*
X133080613Y-149328250D01*
X133730379Y-149328250D01*
X134698853Y-148927095D01*
X135440090Y-148185858D01*
X135841245Y-147217384D01*
X135841245Y-146169116D01*
X135440090Y-145200642D01*
X134698853Y-144459405D01*
X133730379Y-144058250D01*
X132682111Y-144058250D01*
X131713637Y-144459405D01*
X130972400Y-145200642D01*
X130571245Y-146169116D01*
X130571245Y-146915396D01*
X126081384Y-142598222D01*
X128065000Y-140614606D01*
X128065000Y-140705330D01*
X128298690Y-141269507D01*
X128730493Y-141701310D01*
X129294670Y-141935000D01*
X129905330Y-141935000D01*
X130469507Y-141701310D01*
X130901310Y-141269507D01*
X131135000Y-140705330D01*
X131135000Y-140167233D01*
X131515655Y-140167233D01*
X143962577Y-152614156D01*
X144011951Y-152688049D01*
X144085844Y-152737423D01*
X144085845Y-152737424D01*
X144141586Y-152774669D01*
X144304690Y-152883652D01*
X144562835Y-152935000D01*
X144562840Y-152935000D01*
X144649999Y-152952337D01*
X144737159Y-152935000D01*
X156646868Y-152935000D01*
X156663914Y-152976153D01*
X157123847Y-153436086D01*
X157724778Y-153685000D01*
X158375222Y-153685000D01*
X158976153Y-153436086D01*
X159436086Y-152976153D01*
X159685000Y-152375222D01*
X159685000Y-151724778D01*
X159436086Y-151123847D01*
X158976153Y-150663914D01*
X158375222Y-150415000D01*
X157724778Y-150415000D01*
X157123847Y-150663914D01*
X156663914Y-151123847D01*
X156646868Y-151165000D01*
X145016579Y-151165000D01*
X143605229Y-149753650D01*
X143762835Y-149785000D01*
X143762839Y-149785000D01*
X143850000Y-149802337D01*
X143937161Y-149785000D01*
X160133422Y-149785000D01*
X166865000Y-156516579D01*
X166865000Y-156885439D01*
X167083466Y-157412862D01*
X167487138Y-157816534D01*
X168014561Y-158035000D01*
X168585439Y-158035000D01*
X169112862Y-157816534D01*
X169516534Y-157412862D01*
X169735000Y-156885439D01*
X169735000Y-156314561D01*
X169516534Y-155787138D01*
X169112862Y-155383466D01*
X168585439Y-155165000D01*
X168016579Y-155165000D01*
X161187425Y-148335847D01*
X161138049Y-148261951D01*
X160845310Y-148066348D01*
X160587165Y-148015000D01*
X160587161Y-148015000D01*
X160500000Y-147997663D01*
X160412839Y-148015000D01*
X155864856Y-148015000D01*
X155935000Y-147845657D01*
X155935000Y-147616578D01*
X157175306Y-146376272D01*
X157479777Y-146425380D01*
X157495905Y-146426934D01*
X160595905Y-146526934D01*
X160608839Y-146526692D01*
X162423790Y-146400068D01*
X162571480Y-146547758D01*
X162581741Y-146554614D01*
X162607830Y-146580704D01*
X162705949Y-146661228D01*
X162787447Y-146715683D01*
X162899374Y-146775510D01*
X162989929Y-146813020D01*
X163111393Y-146849866D01*
X163207528Y-146868988D01*
X163333834Y-146881428D01*
X163431850Y-146881428D01*
X163558156Y-146868988D01*
X163607579Y-146859157D01*
X163712577Y-146964156D01*
X163761951Y-147038049D01*
X163835844Y-147087423D01*
X163835845Y-147087424D01*
X163906633Y-147134723D01*
X164054690Y-147233652D01*
X164312835Y-147285000D01*
X164312839Y-147285000D01*
X164399999Y-147302337D01*
X164487159Y-147285000D01*
X165483422Y-147285000D01*
X166812577Y-148614156D01*
X166861951Y-148688049D01*
X166935844Y-148737423D01*
X166935845Y-148737424D01*
X167031418Y-148801284D01*
X167154690Y-148883652D01*
X167412835Y-148935000D01*
X167412839Y-148935000D01*
X167499999Y-148952337D01*
X167587159Y-148935000D01*
X169112839Y-148935000D01*
X169200000Y-148952337D01*
X169287161Y-148935000D01*
X169287165Y-148935000D01*
X169545310Y-148883652D01*
X169838049Y-148688049D01*
X169887425Y-148614153D01*
X170714156Y-147787423D01*
X170788049Y-147738049D01*
X170866889Y-147620058D01*
X170983652Y-147445310D01*
X170990287Y-147411951D01*
X171035000Y-147187165D01*
X171035000Y-147187161D01*
X171052337Y-147100000D01*
X171035000Y-147012839D01*
X171035000Y-146616578D01*
X171566579Y-146085000D01*
X172488550Y-146085000D01*
X172601510Y-146197960D01*
X172431378Y-146368091D01*
X172235749Y-146840383D01*
X172235749Y-147351587D01*
X172431378Y-147823879D01*
X172792855Y-148185356D01*
X173265147Y-148380985D01*
X173776351Y-148380985D01*
X174248643Y-148185356D01*
X174409979Y-148024021D01*
X174858991Y-148473033D01*
X175069035Y-148613381D01*
X175316800Y-148662664D01*
X175564565Y-148613381D01*
X175575387Y-148606150D01*
X176679987Y-149710751D01*
X176729361Y-149784644D01*
X176803254Y-149834018D01*
X176803255Y-149834019D01*
X176914290Y-149908210D01*
X177022100Y-149980247D01*
X177280245Y-150031595D01*
X177280249Y-150031595D01*
X177367409Y-150048932D01*
X177454569Y-150031595D01*
X177802199Y-150031595D01*
X178087138Y-150316534D01*
X178614561Y-150535000D01*
X179185439Y-150535000D01*
X179712862Y-150316534D01*
X180116534Y-149912862D01*
X180252668Y-149584205D01*
X183621092Y-149584205D01*
X183732465Y-150144114D01*
X184049628Y-150618782D01*
X184524296Y-150935945D01*
X184942872Y-151019205D01*
X185225538Y-151019205D01*
X185644114Y-150935945D01*
X186118782Y-150618782D01*
X186435945Y-150144114D01*
X186496616Y-149839102D01*
X187981421Y-148354296D01*
X188016526Y-148361279D01*
X188299192Y-148361279D01*
X188717768Y-148278019D01*
X189192436Y-147960856D01*
X189509599Y-147486188D01*
X189620972Y-146926279D01*
X189580011Y-146720352D01*
X191081158Y-145219205D01*
X191225538Y-145219205D01*
X191644114Y-145135945D01*
X192118782Y-144818782D01*
X192435945Y-144344114D01*
X192547318Y-143784205D01*
X192435945Y-143224296D01*
X192118782Y-142749628D01*
X191644114Y-142432465D01*
X191225538Y-142349205D01*
X190942872Y-142349205D01*
X190524296Y-142432465D01*
X190049628Y-142749628D01*
X189732465Y-143224296D01*
X189621092Y-143784205D01*
X189686114Y-144111092D01*
X188304810Y-145492397D01*
X188299192Y-145491279D01*
X188016526Y-145491279D01*
X187597950Y-145574539D01*
X187123282Y-145891702D01*
X186806119Y-146366370D01*
X186694746Y-146926279D01*
X186729842Y-147102718D01*
X185607399Y-148225162D01*
X185225538Y-148149205D01*
X184942872Y-148149205D01*
X184524296Y-148232465D01*
X184049628Y-148549628D01*
X183732465Y-149024296D01*
X183621092Y-149584205D01*
X180252668Y-149584205D01*
X180335000Y-149385439D01*
X180335000Y-148814561D01*
X180116534Y-148287138D01*
X179712862Y-147883466D01*
X179185439Y-147665000D01*
X178614561Y-147665000D01*
X178087138Y-147883466D01*
X177721499Y-148249105D01*
X176826965Y-147354572D01*
X176834196Y-147343750D01*
X176883479Y-147095985D01*
X176834196Y-146848220D01*
X176693848Y-146638176D01*
X175953625Y-145897953D01*
X178016579Y-143835000D01*
X178185439Y-143835000D01*
X178712862Y-143616534D01*
X179116534Y-143212862D01*
X179335000Y-142685439D01*
X179335000Y-142114561D01*
X179116534Y-141587138D01*
X178712862Y-141183466D01*
X178185439Y-140965000D01*
X177614561Y-140965000D01*
X177422963Y-141044363D01*
X177993989Y-140627074D01*
X179829258Y-140627074D01*
X180160792Y-140958608D01*
X180688215Y-141177074D01*
X181259093Y-141177074D01*
X181786516Y-140958608D01*
X182190188Y-140554936D01*
X182408654Y-140027513D01*
X182408654Y-139456635D01*
X182190188Y-138929212D01*
X181858654Y-138597678D01*
X181858654Y-137060579D01*
X182465000Y-136425359D01*
X182465000Y-136885439D01*
X182683466Y-137412862D01*
X183087138Y-137816534D01*
X183614561Y-138035000D01*
X184185439Y-138035000D01*
X184712862Y-137816534D01*
X185116534Y-137412862D01*
X185335000Y-136885439D01*
X185335000Y-136490886D01*
X187233483Y-134592403D01*
X187564933Y-134592403D01*
X188037225Y-134396774D01*
X188198561Y-134235439D01*
X188647573Y-134684451D01*
X188857617Y-134824799D01*
X189105382Y-134874082D01*
X189281043Y-134839141D01*
X189281044Y-135947699D01*
X189081218Y-136081218D01*
X188764055Y-136555886D01*
X188652682Y-137115795D01*
X188764055Y-137675704D01*
X189081218Y-138150372D01*
X189555886Y-138467535D01*
X189974462Y-138550795D01*
X190257128Y-138550795D01*
X190675704Y-138467535D01*
X191150372Y-138150372D01*
X191467535Y-137675704D01*
X191578908Y-137115795D01*
X191467535Y-136555886D01*
X191150372Y-136081218D01*
X191051043Y-136014848D01*
X191051043Y-134455223D01*
X191068380Y-134368063D01*
X191051043Y-134280903D01*
X191051043Y-134280899D01*
X190999695Y-134022754D01*
X190804092Y-133730015D01*
X190730199Y-133680641D01*
X190615547Y-133565989D01*
X190622778Y-133555168D01*
X190672061Y-133307403D01*
X190622778Y-133059638D01*
X190482430Y-132849594D01*
X189563191Y-131930355D01*
X189353147Y-131790007D01*
X189105382Y-131740724D01*
X188857617Y-131790007D01*
X188647573Y-131930355D01*
X188441142Y-132136786D01*
X188594331Y-131766954D01*
X188594331Y-131255750D01*
X188398702Y-130783458D01*
X188037225Y-130421981D01*
X187564933Y-130226352D01*
X187053729Y-130226352D01*
X186581437Y-130421981D01*
X186377067Y-130626351D01*
X186323354Y-130626351D01*
X187214663Y-128754602D01*
X187219601Y-128742715D01*
X187479656Y-128014561D01*
X191265000Y-128014561D01*
X191265000Y-128585439D01*
X191483466Y-129112862D01*
X191887138Y-129516534D01*
X192414561Y-129735000D01*
X192985439Y-129735000D01*
X193512862Y-129516534D01*
X193916534Y-129112862D01*
X194135000Y-128585439D01*
X194135000Y-128014561D01*
X193916534Y-127487138D01*
X193512862Y-127083466D01*
X192985439Y-126865000D01*
X192414561Y-126865000D01*
X191887138Y-127083466D01*
X191483466Y-127487138D01*
X191265000Y-128014561D01*
X187479656Y-128014561D01*
X188219601Y-125942715D01*
X188222971Y-125931735D01*
X189022971Y-122831735D01*
X189026223Y-122814025D01*
X189326223Y-120114025D01*
X189326653Y-120109382D01*
X189526653Y-117409382D01*
X189526899Y-117394924D01*
X189426899Y-114894924D01*
X189425405Y-114879935D01*
X189273162Y-113928417D01*
X190016579Y-113185000D01*
X191555604Y-113185000D01*
X191815000Y-113444396D01*
X191815001Y-117005478D01*
X191665423Y-117105423D01*
X191348260Y-117580091D01*
X191236887Y-118140000D01*
X191348260Y-118699909D01*
X191665423Y-119174577D01*
X192140091Y-119491740D01*
X192558667Y-119575000D01*
X192841333Y-119575000D01*
X193259909Y-119491740D01*
X193734577Y-119174577D01*
X193894657Y-118935000D01*
X196012839Y-118935000D01*
X196100000Y-118952337D01*
X196187161Y-118935000D01*
X196187165Y-118935000D01*
X196445310Y-118883652D01*
X196738049Y-118688049D01*
X196787425Y-118614153D01*
X198466579Y-116935000D01*
X199025222Y-116935000D01*
X199626153Y-116686086D01*
X200086086Y-116226153D01*
X200335000Y-115625222D01*
X200335000Y-114974778D01*
X200086086Y-114373847D01*
X199626153Y-113913914D01*
X199025222Y-113665000D01*
X198374778Y-113665000D01*
X197773847Y-113913914D01*
X197313914Y-114373847D01*
X197065000Y-114974778D01*
X197065000Y-115625222D01*
X197125980Y-115772441D01*
X195733422Y-117165000D01*
X193774385Y-117165000D01*
X193734577Y-117105423D01*
X193585000Y-117005479D01*
X193585000Y-113444396D01*
X193916534Y-113112862D01*
X194135000Y-112585439D01*
X194135000Y-112014561D01*
X193916534Y-111487138D01*
X193512862Y-111083466D01*
X192985439Y-110865000D01*
X192414561Y-110865000D01*
X191887138Y-111083466D01*
X191555604Y-111415000D01*
X189737161Y-111415000D01*
X189650000Y-111397663D01*
X189562839Y-111415000D01*
X189562835Y-111415000D01*
X189304690Y-111466348D01*
X189085845Y-111612576D01*
X189085844Y-111612577D01*
X189011951Y-111661951D01*
X188962577Y-111735844D01*
X188893104Y-111805317D01*
X188423748Y-109771443D01*
X188420483Y-109759839D01*
X187620483Y-107359839D01*
X187615311Y-107346780D01*
X185373278Y-102489041D01*
X191308086Y-102489041D01*
X191547611Y-102995134D01*
X191962577Y-103371041D01*
X192350961Y-103531904D01*
X192573000Y-103409915D01*
X192573000Y-102267000D01*
X192827000Y-102267000D01*
X192827000Y-103409915D01*
X193049039Y-103531904D01*
X193437423Y-103371041D01*
X193852389Y-102995134D01*
X194091914Y-102489041D01*
X193970629Y-102267000D01*
X192827000Y-102267000D01*
X192573000Y-102267000D01*
X191429371Y-102267000D01*
X191308086Y-102489041D01*
X185373278Y-102489041D01*
X185215311Y-102146780D01*
X185189803Y-102110197D01*
X185148601Y-102082667D01*
X185100000Y-102073000D01*
X185051399Y-102082667D01*
X185010197Y-102110197D01*
X145110197Y-142010197D01*
X145087759Y-142040578D01*
X145073563Y-142088054D01*
X145078616Y-142137349D01*
X145102149Y-142180958D01*
X145140578Y-142212241D01*
X148540578Y-144012241D01*
X148550516Y-144016963D01*
X151150516Y-145116963D01*
X151169198Y-145123208D01*
X154369198Y-145923208D01*
X154379777Y-145925380D01*
X155019811Y-146028611D01*
X154683422Y-146365000D01*
X154454343Y-146365000D01*
X154000429Y-146553018D01*
X153653018Y-146900429D01*
X153465000Y-147354343D01*
X153465000Y-147845657D01*
X153535144Y-148015000D01*
X144216579Y-148015000D01*
X139307289Y-143105711D01*
X139952918Y-143105711D01*
X140921392Y-142704556D01*
X141662629Y-141963319D01*
X142063784Y-140994845D01*
X142063784Y-139946577D01*
X141662629Y-138978103D01*
X140921392Y-138236866D01*
X139952918Y-137835711D01*
X138904650Y-137835711D01*
X137936176Y-138236866D01*
X137385000Y-138788042D01*
X137385000Y-135416578D01*
X140666579Y-132135000D01*
X145912839Y-132135000D01*
X146000000Y-132152337D01*
X146087161Y-132135000D01*
X146087165Y-132135000D01*
X146345310Y-132083652D01*
X146638049Y-131888049D01*
X146687425Y-131814153D01*
X147914156Y-130587423D01*
X147988049Y-130538049D01*
X148069368Y-130416348D01*
X148134820Y-130318392D01*
X148183652Y-130245310D01*
X148235000Y-129987165D01*
X148235000Y-129987161D01*
X148252337Y-129900001D01*
X148235000Y-129812841D01*
X148235000Y-125616578D01*
X155164156Y-118687422D01*
X155238049Y-118638049D01*
X155293748Y-118554691D01*
X155400243Y-118395310D01*
X155433652Y-118345310D01*
X155485000Y-118087165D01*
X155485000Y-118087161D01*
X155502337Y-118000001D01*
X155485000Y-117912841D01*
X155485000Y-116279782D01*
X160368093Y-116279782D01*
X160639059Y-116871098D01*
X161115685Y-117313709D01*
X161604489Y-117516178D01*
X161862949Y-117397248D01*
X161862949Y-116021322D01*
X162116949Y-116021322D01*
X162116949Y-117397248D01*
X162375409Y-117516178D01*
X162966725Y-117245212D01*
X163409336Y-116768586D01*
X163611805Y-116279782D01*
X163492875Y-116021322D01*
X162116949Y-116021322D01*
X161862949Y-116021322D01*
X160487023Y-116021322D01*
X160368093Y-116279782D01*
X155485000Y-116279782D01*
X155485000Y-115508862D01*
X160368093Y-115508862D01*
X160487023Y-115767322D01*
X161862949Y-115767322D01*
X161862949Y-114391396D01*
X162116949Y-114391396D01*
X162116949Y-115767322D01*
X163492875Y-115767322D01*
X163611805Y-115508862D01*
X163340839Y-114917546D01*
X162864213Y-114474935D01*
X162375409Y-114272466D01*
X162116949Y-114391396D01*
X161862949Y-114391396D01*
X161604489Y-114272466D01*
X161013173Y-114543432D01*
X160570562Y-115020058D01*
X160368093Y-115508862D01*
X155485000Y-115508862D01*
X155485000Y-111011553D01*
X155546982Y-110949571D01*
X155735000Y-110495657D01*
X155735000Y-110004343D01*
X155546982Y-109550429D01*
X155199571Y-109203018D01*
X154745657Y-109015000D01*
X154254343Y-109015000D01*
X153800429Y-109203018D01*
X153453018Y-109550429D01*
X153265000Y-110004343D01*
X153265000Y-110495657D01*
X153453018Y-110949571D01*
X153715001Y-111211554D01*
X153715000Y-117633421D01*
X146785847Y-124562575D01*
X146711951Y-124611951D01*
X146516348Y-124904691D01*
X146465000Y-125162836D01*
X146465000Y-125162839D01*
X146447663Y-125250000D01*
X146465000Y-125337161D01*
X146465001Y-129533420D01*
X145633422Y-130365000D01*
X140387161Y-130365000D01*
X140300000Y-130347663D01*
X140212839Y-130365000D01*
X140212835Y-130365000D01*
X139954690Y-130416348D01*
X139735845Y-130562576D01*
X139735844Y-130562577D01*
X139661951Y-130611951D01*
X139612577Y-130685844D01*
X135935845Y-134362577D01*
X135861952Y-134411951D01*
X135812578Y-134485844D01*
X135812576Y-134485846D01*
X135666348Y-134704691D01*
X135597663Y-135050000D01*
X135615001Y-135137165D01*
X135615000Y-141462839D01*
X135597663Y-141550000D01*
X135615000Y-141637161D01*
X135615000Y-141637164D01*
X135646350Y-141794772D01*
X132869487Y-139017909D01*
X132902767Y-138937563D01*
X132902767Y-138399466D01*
X133440864Y-138399466D01*
X134005041Y-138165776D01*
X134436844Y-137733973D01*
X134670534Y-137169796D01*
X134670534Y-136559136D01*
X134436844Y-135994959D01*
X134005041Y-135563156D01*
X133440864Y-135329466D01*
X133350140Y-135329466D01*
X143469839Y-125209767D01*
X143469840Y-126917921D01*
X143013914Y-127373847D01*
X142765000Y-127974778D01*
X142765000Y-128625222D01*
X143013914Y-129226153D01*
X143473847Y-129686086D01*
X144074778Y-129935000D01*
X144725222Y-129935000D01*
X145326153Y-129686086D01*
X145786086Y-129226153D01*
X146035000Y-128625222D01*
X146035000Y-127974778D01*
X145786086Y-127373847D01*
X145326153Y-126913914D01*
X145239839Y-126878162D01*
X145239839Y-124586998D01*
X145389416Y-124487054D01*
X145706579Y-124012386D01*
X145817952Y-123452477D01*
X145719928Y-122959678D01*
X151057545Y-117622061D01*
X151253605Y-117703272D01*
X151824483Y-117703272D01*
X152351906Y-117484806D01*
X152755578Y-117081134D01*
X152974044Y-116553711D01*
X152974044Y-115982833D01*
X152755578Y-115455410D01*
X152351906Y-115051738D01*
X151824483Y-114833272D01*
X151253605Y-114833272D01*
X150726182Y-115051738D01*
X150322510Y-115455410D01*
X150104044Y-115982833D01*
X150104044Y-116424438D01*
X148472312Y-114792706D01*
X148963234Y-114816951D01*
X149490466Y-114628459D01*
X149561711Y-114385691D01*
X148753043Y-113577023D01*
X148738901Y-113591166D01*
X148559296Y-113411561D01*
X148573438Y-113397418D01*
X148932648Y-113397418D01*
X149741316Y-114206086D01*
X149984084Y-114134841D01*
X150172576Y-113607609D01*
X150144957Y-113048377D01*
X149984076Y-112660001D01*
X149740811Y-112589255D01*
X148932648Y-113397418D01*
X148573438Y-113397418D01*
X147764770Y-112588750D01*
X147522002Y-112659995D01*
X147333510Y-113187227D01*
X147357755Y-113678149D01*
X146088751Y-112409145D01*
X147944375Y-112409145D01*
X148753043Y-113217813D01*
X149561206Y-112409650D01*
X149490460Y-112166385D01*
X149102084Y-112005504D01*
X148542852Y-111977885D01*
X148015620Y-112166377D01*
X147944375Y-112409145D01*
X146088751Y-112409145D01*
X145714596Y-112034990D01*
X146205518Y-112059235D01*
X146732750Y-111870743D01*
X146803995Y-111627975D01*
X145995327Y-110819307D01*
X145981185Y-110833450D01*
X145801580Y-110653845D01*
X145815722Y-110639702D01*
X146174932Y-110639702D01*
X146983600Y-111448370D01*
X147226368Y-111377125D01*
X147414860Y-110849893D01*
X147387241Y-110290661D01*
X147226360Y-109902285D01*
X146983095Y-109831539D01*
X146174932Y-110639702D01*
X145815722Y-110639702D01*
X145007054Y-109831034D01*
X144764286Y-109902279D01*
X144575794Y-110429511D01*
X144600039Y-110920433D01*
X143331035Y-109651429D01*
X145186659Y-109651429D01*
X145995327Y-110460097D01*
X146803490Y-109651934D01*
X146732744Y-109408669D01*
X146344368Y-109247788D01*
X145785136Y-109220169D01*
X145257904Y-109408661D01*
X145186659Y-109651429D01*
X143331035Y-109651429D01*
X142489803Y-108810197D01*
X142448601Y-108782667D01*
X142400000Y-108773000D01*
X142351399Y-108782667D01*
X142310197Y-108810197D01*
X136710986Y-114409408D01*
X136435000Y-114133422D01*
X136435000Y-113904343D01*
X136246982Y-113450429D01*
X135899571Y-113103018D01*
X135445657Y-112915000D01*
X134954343Y-112915000D01*
X134500429Y-113103018D01*
X134153018Y-113450429D01*
X133965000Y-113904343D01*
X133965000Y-114395657D01*
X134153018Y-114849571D01*
X134500429Y-115196982D01*
X134954343Y-115385000D01*
X135183422Y-115385000D01*
X135459408Y-115660986D01*
X113205394Y-137915000D01*
X104961553Y-137915000D01*
X104799571Y-137753018D01*
X104345657Y-137565000D01*
X103854343Y-137565000D01*
X103400429Y-137753018D01*
X103053018Y-138100429D01*
X102865000Y-138554343D01*
X102865000Y-139045657D01*
X103053018Y-139499571D01*
X103400429Y-139846982D01*
X103854343Y-140035000D01*
X104345657Y-140035000D01*
X104799571Y-139846982D01*
X104961553Y-139685000D01*
X111435394Y-139685000D01*
X91800000Y-159320394D01*
X82279428Y-149799822D01*
X90472612Y-141574190D01*
X92712577Y-143814156D01*
X92761951Y-143888049D01*
X92835844Y-143937423D01*
X92835845Y-143937424D01*
X92938169Y-144005795D01*
X93054690Y-144083652D01*
X93312835Y-144135000D01*
X93312839Y-144135000D01*
X93400000Y-144152337D01*
X93487161Y-144135000D01*
X97712839Y-144135000D01*
X97800000Y-144152337D01*
X97887161Y-144135000D01*
X97887165Y-144135000D01*
X98145310Y-144083652D01*
X98438049Y-143888049D01*
X98487425Y-143814153D01*
X101864156Y-140437423D01*
X101938049Y-140388049D01*
X102133652Y-140095310D01*
X102185000Y-139837165D01*
X102185000Y-139837161D01*
X102202337Y-139750001D01*
X102185000Y-139662841D01*
X102185000Y-138137159D01*
X102202337Y-138049999D01*
X102185000Y-137962839D01*
X102185000Y-137962835D01*
X102133652Y-137704690D01*
X102020268Y-137535000D01*
X101987424Y-137485845D01*
X101987423Y-137485844D01*
X101938049Y-137411951D01*
X101864156Y-137362577D01*
X101393922Y-136892344D01*
X101455215Y-136584205D01*
X101365190Y-136131618D01*
X101577963Y-136207687D01*
X102137195Y-136180068D01*
X102525571Y-136019187D01*
X102596317Y-135775922D01*
X101788154Y-134967759D01*
X101774012Y-134981902D01*
X101594407Y-134802297D01*
X101608549Y-134788154D01*
X101967759Y-134788154D01*
X102775922Y-135596317D01*
X103019187Y-135525571D01*
X103180068Y-135137195D01*
X103207687Y-134577963D01*
X103019195Y-134050731D01*
X102776427Y-133979486D01*
X101967759Y-134788154D01*
X101608549Y-134788154D01*
X100800386Y-133979991D01*
X100557121Y-134050737D01*
X100396240Y-134439113D01*
X100368621Y-134998345D01*
X100444690Y-135211117D01*
X100133435Y-135149205D01*
X99850769Y-135149205D01*
X99432193Y-135232465D01*
X98957525Y-135549628D01*
X98640362Y-136024296D01*
X98528989Y-136584205D01*
X98611659Y-136999813D01*
X98337384Y-136945256D01*
X98054718Y-136945256D01*
X97636142Y-137028516D01*
X97161474Y-137345679D01*
X96844311Y-137820347D01*
X96732938Y-138380256D01*
X96815608Y-138795864D01*
X96541333Y-138741307D01*
X96258667Y-138741307D01*
X95840091Y-138824567D01*
X95365423Y-139141730D01*
X95048260Y-139616398D01*
X94936887Y-140176307D01*
X95048260Y-140736216D01*
X95365423Y-141210884D01*
X95840091Y-141528047D01*
X96258667Y-141611307D01*
X96541333Y-141611307D01*
X96959909Y-141528047D01*
X97434577Y-141210884D01*
X97751740Y-140736216D01*
X97863113Y-140176307D01*
X97780443Y-139760699D01*
X98054718Y-139815256D01*
X98337384Y-139815256D01*
X98755960Y-139731996D01*
X99230628Y-139414833D01*
X99547791Y-138940165D01*
X99659164Y-138380256D01*
X99576494Y-137964648D01*
X99850769Y-138019205D01*
X100017626Y-138019205D01*
X100415001Y-138416580D01*
X100415000Y-139383421D01*
X97433422Y-142365000D01*
X93766579Y-142365000D01*
X91721717Y-140320138D01*
X98215749Y-133800386D01*
X100979991Y-133800386D01*
X101788154Y-134608549D01*
X102596822Y-133799881D01*
X102525577Y-133557113D01*
X101998345Y-133368621D01*
X101439113Y-133396240D01*
X101050737Y-133557121D01*
X100979991Y-133800386D01*
X98215749Y-133800386D01*
X102065805Y-129935083D01*
X102223557Y-130269874D01*
X102645995Y-130653864D01*
X103046546Y-130819778D01*
X103273000Y-130698166D01*
X103273000Y-129527000D01*
X103527000Y-129527000D01*
X103527000Y-130698166D01*
X103753454Y-130819778D01*
X104269874Y-130576443D01*
X104653864Y-130154005D01*
X104819778Y-129753454D01*
X104698166Y-129527000D01*
X103527000Y-129527000D01*
X103273000Y-129527000D01*
X102472279Y-129527000D01*
X102725277Y-129273000D01*
X103093392Y-129273000D01*
X103206251Y-129385859D01*
X103385859Y-129206251D01*
X103273000Y-129093392D01*
X103273000Y-128723107D01*
X103527000Y-128468102D01*
X103527000Y-129273000D01*
X104698166Y-129273000D01*
X104819778Y-129046546D01*
X104576443Y-128530126D01*
X104154005Y-128146136D01*
X103937161Y-128056316D01*
X111714200Y-120248477D01*
X111970513Y-120299461D01*
X112253179Y-120299461D01*
X112671755Y-120216201D01*
X113146423Y-119899038D01*
X113463586Y-119424370D01*
X113574959Y-118864461D01*
X113560385Y-118791193D01*
X113848169Y-118503410D01*
X114049231Y-118503410D01*
X114134809Y-118486387D01*
X115815001Y-120166580D01*
X115815001Y-120196868D01*
X115773847Y-120213914D01*
X115313914Y-120673847D01*
X115065000Y-121274778D01*
X115065000Y-121883421D01*
X112235845Y-124712577D01*
X112161952Y-124761951D01*
X112112578Y-124835844D01*
X112112576Y-124835846D01*
X111966348Y-125054691D01*
X111897663Y-125400000D01*
X111915001Y-125487165D01*
X111915000Y-126584411D01*
X111897663Y-126671572D01*
X111915000Y-126758733D01*
X111915000Y-126758736D01*
X111966348Y-127016881D01*
X112161951Y-127309621D01*
X112235847Y-127358997D01*
X112417214Y-127540364D01*
X112417214Y-127703000D01*
X112122119Y-127703000D01*
X111608663Y-127915680D01*
X111215680Y-128308663D01*
X111003000Y-128822119D01*
X111003000Y-129117214D01*
X110707905Y-129117214D01*
X110194449Y-129329894D01*
X109801466Y-129722877D01*
X109588786Y-130236333D01*
X109588786Y-130364138D01*
X109175640Y-130364138D01*
X108574709Y-130613052D01*
X108114776Y-131072985D01*
X107865862Y-131673916D01*
X107865862Y-132324360D01*
X108114776Y-132925291D01*
X108574709Y-133385224D01*
X109175640Y-133634138D01*
X109826084Y-133634138D01*
X110427015Y-133385224D01*
X110757896Y-133054343D01*
X114765000Y-133054343D01*
X114765000Y-133545657D01*
X114953018Y-133999571D01*
X115300429Y-134346982D01*
X115754343Y-134535000D01*
X116245657Y-134535000D01*
X116699571Y-134346982D01*
X117046982Y-133999571D01*
X117235000Y-133545657D01*
X117235000Y-133316578D01*
X118416579Y-132135000D01*
X118645657Y-132135000D01*
X119099571Y-131946982D01*
X119446982Y-131599571D01*
X119635000Y-131145657D01*
X119635000Y-130654343D01*
X119446982Y-130200429D01*
X119099571Y-129853018D01*
X118645657Y-129665000D01*
X118154343Y-129665000D01*
X117700429Y-129853018D01*
X117353018Y-130200429D01*
X117165000Y-130654343D01*
X117165000Y-130883421D01*
X115983422Y-132065000D01*
X115754343Y-132065000D01*
X115300429Y-132253018D01*
X114953018Y-132600429D01*
X114765000Y-133054343D01*
X110757896Y-133054343D01*
X110886948Y-132925291D01*
X111135862Y-132324360D01*
X111135862Y-131911214D01*
X111263667Y-131911214D01*
X111777123Y-131698534D01*
X112170106Y-131305551D01*
X112382786Y-130792095D01*
X112382786Y-130497000D01*
X112677881Y-130497000D01*
X113191337Y-130284320D01*
X113584320Y-129891337D01*
X113797000Y-129377881D01*
X113797000Y-129082786D01*
X114092095Y-129082786D01*
X114605551Y-128870106D01*
X114998534Y-128477123D01*
X115211214Y-127963667D01*
X115211214Y-127835862D01*
X115624360Y-127835862D01*
X116225291Y-127586948D01*
X116685224Y-127127015D01*
X116934138Y-126526084D01*
X116934138Y-125914561D01*
X118865000Y-125914561D01*
X118865000Y-126485439D01*
X119083466Y-127012862D01*
X119487138Y-127416534D01*
X120014561Y-127635000D01*
X120585439Y-127635000D01*
X121112862Y-127416534D01*
X121516534Y-127012862D01*
X121735000Y-126485439D01*
X121735000Y-125914561D01*
X121516534Y-125387138D01*
X121112862Y-124983466D01*
X120585439Y-124765000D01*
X120014561Y-124765000D01*
X119487138Y-124983466D01*
X119083466Y-125387138D01*
X118865000Y-125914561D01*
X116934138Y-125914561D01*
X116934138Y-125875640D01*
X116685224Y-125274709D01*
X116225291Y-124814776D01*
X115624360Y-124565862D01*
X114973916Y-124565862D01*
X114823350Y-124628229D01*
X116262914Y-123188664D01*
X116374778Y-123235000D01*
X117025222Y-123235000D01*
X117626153Y-122986086D01*
X118086086Y-122526153D01*
X118335000Y-121925222D01*
X118335000Y-121274778D01*
X118086086Y-120673847D01*
X117626153Y-120213914D01*
X117585000Y-120196868D01*
X117585000Y-119887161D01*
X117602337Y-119800000D01*
X117585000Y-119712839D01*
X117585000Y-119712835D01*
X117533652Y-119454690D01*
X117460566Y-119345309D01*
X117387424Y-119235845D01*
X117387423Y-119235844D01*
X117338049Y-119161951D01*
X117264156Y-119112577D01*
X115345955Y-117194376D01*
X115371011Y-117068410D01*
X115289564Y-116658953D01*
X115294476Y-116654022D01*
X115562616Y-116707359D01*
X115845282Y-116707359D01*
X116263858Y-116624099D01*
X116738526Y-116306936D01*
X117055689Y-115832268D01*
X117167062Y-115272359D01*
X117084436Y-114856973D01*
X117084614Y-114856794D01*
X117358667Y-114911307D01*
X117641333Y-114911307D01*
X118059909Y-114828047D01*
X118534577Y-114510884D01*
X118851740Y-114036216D01*
X118963113Y-113476307D01*
X118880443Y-113060699D01*
X119154718Y-113115256D01*
X119437384Y-113115256D01*
X119855960Y-113031996D01*
X120330628Y-112714833D01*
X120647791Y-112240165D01*
X120759164Y-111680256D01*
X120676494Y-111264648D01*
X120950769Y-111319205D01*
X121233435Y-111319205D01*
X121261954Y-111313532D01*
X126599205Y-116650784D01*
X126599206Y-117881273D01*
X126449628Y-117981218D01*
X126132465Y-118455886D01*
X126021092Y-119015795D01*
X126132465Y-119575704D01*
X126449628Y-120050372D01*
X126924296Y-120367535D01*
X127342872Y-120450795D01*
X127625538Y-120450795D01*
X128044114Y-120367535D01*
X128518782Y-120050372D01*
X128835945Y-119575704D01*
X128947318Y-119015795D01*
X128835945Y-118455886D01*
X128518782Y-117981218D01*
X128369205Y-117881274D01*
X128369205Y-116371366D01*
X128386542Y-116284205D01*
X128369205Y-116197044D01*
X128369205Y-116197040D01*
X128317857Y-115938895D01*
X128203215Y-115767322D01*
X128171629Y-115720050D01*
X128171628Y-115720049D01*
X128122254Y-115646156D01*
X128048361Y-115596782D01*
X122518809Y-110067231D01*
X122555215Y-109884205D01*
X122472545Y-109468597D01*
X122746821Y-109523154D01*
X123029487Y-109523154D01*
X123314820Y-109466398D01*
X126665000Y-112816579D01*
X126665000Y-113045657D01*
X126853018Y-113499571D01*
X127200429Y-113846982D01*
X127654343Y-114035000D01*
X128145657Y-114035000D01*
X128599571Y-113846982D01*
X128946982Y-113499571D01*
X129135000Y-113045657D01*
X129135000Y-112554343D01*
X128946982Y-112100429D01*
X128599571Y-111753018D01*
X128145657Y-111565000D01*
X127916579Y-111565000D01*
X124329301Y-107977723D01*
X124263924Y-107649051D01*
X125654015Y-106253454D01*
X134780222Y-106253454D01*
X135023557Y-106769874D01*
X135445995Y-107153864D01*
X135846546Y-107319778D01*
X136073000Y-107198166D01*
X136073000Y-106027000D01*
X136327000Y-106027000D01*
X136327000Y-107198166D01*
X136553454Y-107319778D01*
X137069874Y-107076443D01*
X137453864Y-106654005D01*
X137619778Y-106253454D01*
X137498166Y-106027000D01*
X136327000Y-106027000D01*
X136073000Y-106027000D01*
X134901834Y-106027000D01*
X134780222Y-106253454D01*
X125654015Y-106253454D01*
X128051182Y-103846794D01*
X132997233Y-103846794D01*
X132997233Y-104417672D01*
X133215699Y-104945095D01*
X133619371Y-105348767D01*
X134146794Y-105567233D01*
X134717672Y-105567233D01*
X134782833Y-105540242D01*
X134780222Y-105546546D01*
X134901834Y-105773000D01*
X135893392Y-105773000D01*
X136006251Y-105885859D01*
X136185859Y-105706251D01*
X136073000Y-105593392D01*
X136073000Y-104601834D01*
X136327000Y-104601834D01*
X136327000Y-105773000D01*
X137498166Y-105773000D01*
X137619778Y-105546546D01*
X137376443Y-105030126D01*
X136954005Y-104646136D01*
X136553454Y-104480222D01*
X136327000Y-104601834D01*
X136073000Y-104601834D01*
X135846546Y-104480222D01*
X135840058Y-104483279D01*
X135867233Y-104417672D01*
X135867233Y-103846794D01*
X135648767Y-103319371D01*
X135245095Y-102915699D01*
X134717672Y-102697233D01*
X134146794Y-102697233D01*
X133619371Y-102915699D01*
X133215699Y-103319371D01*
X132997233Y-103846794D01*
X128051182Y-103846794D01*
X132689980Y-99189625D01*
X132717429Y-99148369D01*
X132727000Y-99099749D01*
X132717236Y-99051167D01*
X132689803Y-99010197D01*
X126989803Y-93310197D01*
X126948601Y-93282667D01*
X126900000Y-93273000D01*
X126851399Y-93282667D01*
X126810286Y-93310109D01*
X123135000Y-96978132D01*
X123135000Y-88655533D01*
X123297765Y-88623157D01*
X123507809Y-88482809D01*
X123648157Y-88272765D01*
X123697440Y-88025000D01*
X123697440Y-86975000D01*
X123648157Y-86727235D01*
X123617843Y-86681867D01*
X123707725Y-86230000D01*
X123617695Y-85777391D01*
X123495826Y-85595000D01*
X123617695Y-85412609D01*
X123707725Y-84960000D01*
X123617695Y-84507391D01*
X123361313Y-84123687D01*
X122977609Y-83867305D01*
X122639246Y-83800000D01*
X121960754Y-83800000D01*
X121622391Y-83867305D01*
X121238687Y-84123687D01*
X120982305Y-84507391D01*
X120892275Y-84960000D01*
X120982305Y-85412609D01*
X121104174Y-85595000D01*
X120982305Y-85777391D01*
X120892275Y-86230000D01*
X120982157Y-86681867D01*
X120951843Y-86727235D01*
X120902560Y-86975000D01*
X120902560Y-88025000D01*
X120951843Y-88272765D01*
X121092191Y-88482809D01*
X121302235Y-88623157D01*
X121365001Y-88635642D01*
X121365000Y-97265000D01*
X120974778Y-97265000D01*
X120373847Y-97513914D01*
X119913914Y-97973847D01*
X119665000Y-98574778D01*
X119665000Y-99225222D01*
X119913914Y-99826153D01*
X120097445Y-100009684D01*
X118475456Y-101628467D01*
X117957809Y-101110820D01*
X117747765Y-100970472D01*
X117500000Y-100921189D01*
X117252235Y-100970472D01*
X117042191Y-101110820D01*
X115910820Y-102242191D01*
X115770472Y-102452235D01*
X115721189Y-102700000D01*
X115770472Y-102947765D01*
X115846304Y-103061254D01*
X115845282Y-103061051D01*
X115562616Y-103061051D01*
X115144040Y-103144311D01*
X114669372Y-103461474D01*
X114352209Y-103936142D01*
X114240836Y-104496051D01*
X114323506Y-104911659D01*
X114049231Y-104857102D01*
X113766565Y-104857102D01*
X113731460Y-104864085D01*
X111703221Y-102835847D01*
X111653845Y-102761951D01*
X111361106Y-102566348D01*
X111102961Y-102515000D01*
X111102957Y-102515000D01*
X111015796Y-102497663D01*
X110928635Y-102515000D01*
X107961553Y-102515000D01*
X107799571Y-102353018D01*
X107345657Y-102165000D01*
X106854343Y-102165000D01*
X106400429Y-102353018D01*
X106053018Y-102700429D01*
X105865000Y-103154343D01*
X105865000Y-103645657D01*
X106053018Y-104099571D01*
X106215000Y-104261553D01*
X106215001Y-106712835D01*
X106197663Y-106800000D01*
X106266348Y-107145309D01*
X106412576Y-107364154D01*
X106412578Y-107364156D01*
X106461952Y-107438049D01*
X106535845Y-107487423D01*
X108865946Y-109817524D01*
X108852682Y-109884205D01*
X108935352Y-110299813D01*
X108661077Y-110245256D01*
X108378411Y-110245256D01*
X108226960Y-110275381D01*
X106702767Y-108751189D01*
X106702767Y-108646794D01*
X106484301Y-108119371D01*
X106080629Y-107715699D01*
X105553206Y-107497233D01*
X104982328Y-107497233D01*
X104454905Y-107715699D01*
X104051233Y-108119371D01*
X103832767Y-108646794D01*
X103832767Y-109217672D01*
X103866233Y-109298466D01*
X103785439Y-109265000D01*
X103214561Y-109265000D01*
X102687138Y-109483466D01*
X102283466Y-109887138D01*
X102065000Y-110414561D01*
X102065000Y-110985439D01*
X102283466Y-111512862D01*
X102687138Y-111916534D01*
X103214561Y-112135000D01*
X103785439Y-112135000D01*
X103854723Y-112106302D01*
X105269482Y-113521061D01*
X105371953Y-114036216D01*
X105640473Y-114438084D01*
X104193969Y-115881730D01*
X103926153Y-115613914D01*
X103325222Y-115365000D01*
X102674778Y-115365000D01*
X102073847Y-115613914D01*
X101613914Y-116073847D01*
X101365000Y-116674778D01*
X101365000Y-117325222D01*
X101613914Y-117926153D01*
X101879443Y-118191682D01*
X100437480Y-119630795D01*
X90518726Y-119630795D01*
X90418782Y-119481218D01*
X89944114Y-119164055D01*
X89525538Y-119080795D01*
X89242872Y-119080795D01*
X88824296Y-119164055D01*
X88349628Y-119481218D01*
X88032465Y-119955886D01*
X87921092Y-120515795D01*
X88032465Y-121075704D01*
X88349628Y-121550372D01*
X88824296Y-121867535D01*
X89242872Y-121950795D01*
X89525538Y-121950795D01*
X89944114Y-121867535D01*
X90418782Y-121550372D01*
X90518726Y-121400795D01*
X98663975Y-121400795D01*
X87735000Y-132308171D01*
X87735000Y-128516578D01*
X89116579Y-127135000D01*
X89345657Y-127135000D01*
X89799571Y-126946982D01*
X90146982Y-126599571D01*
X90335000Y-126145657D01*
X90335000Y-125654343D01*
X90146982Y-125200429D01*
X89799571Y-124853018D01*
X89345657Y-124665000D01*
X88854343Y-124665000D01*
X88400429Y-124853018D01*
X88053018Y-125200429D01*
X87865000Y-125654343D01*
X87865000Y-125883421D01*
X86285845Y-127462577D01*
X86211952Y-127511951D01*
X86162578Y-127585844D01*
X86162576Y-127585846D01*
X86016348Y-127804691D01*
X85947663Y-128150000D01*
X85965001Y-128237165D01*
X85965000Y-134074672D01*
X76300089Y-143720483D01*
X66779517Y-134199911D01*
X73551430Y-127414561D01*
X80765000Y-127414561D01*
X80765000Y-127985439D01*
X80983466Y-128512862D01*
X81387138Y-128916534D01*
X81914561Y-129135000D01*
X82485439Y-129135000D01*
X83012862Y-128916534D01*
X83416534Y-128512862D01*
X83635000Y-127985439D01*
X83635000Y-127414561D01*
X83416534Y-126887138D01*
X83085000Y-126555604D01*
X83085000Y-123516578D01*
X88766579Y-117835000D01*
X92188447Y-117835000D01*
X92350429Y-117996982D01*
X92804343Y-118185000D01*
X93295657Y-118185000D01*
X93749571Y-117996982D01*
X94096982Y-117649571D01*
X94285000Y-117195657D01*
X94285000Y-116774778D01*
X95465000Y-116774778D01*
X95465000Y-117425222D01*
X95713914Y-118026153D01*
X96173847Y-118486086D01*
X96774778Y-118735000D01*
X97425222Y-118735000D01*
X98026153Y-118486086D01*
X98486086Y-118026153D01*
X98735000Y-117425222D01*
X98735000Y-116774778D01*
X98486086Y-116173847D01*
X98026153Y-115713914D01*
X97425222Y-115465000D01*
X96774778Y-115465000D01*
X96173847Y-115713914D01*
X95713914Y-116173847D01*
X95465000Y-116774778D01*
X94285000Y-116774778D01*
X94285000Y-116704343D01*
X94096982Y-116250429D01*
X93749571Y-115903018D01*
X93295657Y-115715000D01*
X92804343Y-115715000D01*
X92350429Y-115903018D01*
X92188447Y-116065000D01*
X88487159Y-116065000D01*
X88399999Y-116047663D01*
X88312839Y-116065000D01*
X88312835Y-116065000D01*
X88054690Y-116116348D01*
X87968637Y-116173847D01*
X87835845Y-116262576D01*
X87835844Y-116262577D01*
X87761951Y-116311951D01*
X87712577Y-116385844D01*
X81635845Y-122462577D01*
X81561952Y-122511951D01*
X81512578Y-122585844D01*
X81512576Y-122585846D01*
X81366348Y-122804691D01*
X81297663Y-123150000D01*
X81315001Y-123237165D01*
X81315000Y-126555604D01*
X80983466Y-126887138D01*
X80765000Y-127414561D01*
X73551430Y-127414561D01*
X88890026Y-112045532D01*
X89059909Y-112011740D01*
X89534577Y-111694577D01*
X89851740Y-111219909D01*
X89886023Y-111047559D01*
X90472418Y-110460000D01*
X93536887Y-110460000D01*
X93648260Y-111019909D01*
X93965423Y-111494577D01*
X94440091Y-111811740D01*
X94858667Y-111895000D01*
X95141333Y-111895000D01*
X95559909Y-111811740D01*
X96034577Y-111494577D01*
X96351740Y-111019909D01*
X96463113Y-110460000D01*
X96351740Y-109900091D01*
X96034577Y-109425423D01*
X95559909Y-109108260D01*
X95141333Y-109025000D01*
X94858667Y-109025000D01*
X94440091Y-109108260D01*
X93965423Y-109425423D01*
X93648260Y-109900091D01*
X93536887Y-110460000D01*
X90472418Y-110460000D01*
X102365001Y-98543821D01*
X102365000Y-105888447D01*
X102203018Y-106050429D01*
X102015000Y-106504343D01*
X102015000Y-106995657D01*
X102203018Y-107449571D01*
X102550429Y-107796982D01*
X103004343Y-107985000D01*
X103495657Y-107985000D01*
X103949571Y-107796982D01*
X104296982Y-107449571D01*
X104485000Y-106995657D01*
X104485000Y-106504343D01*
X104296982Y-106050429D01*
X104135000Y-105888447D01*
X104135000Y-101021221D01*
X106947989Y-101021221D01*
X107191324Y-101537641D01*
X107613762Y-101921631D01*
X108014313Y-102087545D01*
X108240767Y-101965933D01*
X108240767Y-100794767D01*
X108494767Y-100794767D01*
X108494767Y-101965933D01*
X108721221Y-102087545D01*
X109237641Y-101844210D01*
X109621631Y-101421772D01*
X109787545Y-101021221D01*
X109665933Y-100794767D01*
X108494767Y-100794767D01*
X108240767Y-100794767D01*
X107069601Y-100794767D01*
X106947989Y-101021221D01*
X104135000Y-101021221D01*
X104135000Y-98614561D01*
X105165000Y-98614561D01*
X105165000Y-99185439D01*
X105383466Y-99712862D01*
X105787138Y-100116534D01*
X106314561Y-100335000D01*
X106885439Y-100335000D01*
X106950600Y-100308009D01*
X106947989Y-100314313D01*
X107069601Y-100540767D01*
X108061159Y-100540767D01*
X108174018Y-100653626D01*
X108353626Y-100474018D01*
X108240767Y-100361159D01*
X108240767Y-99369601D01*
X108494767Y-99369601D01*
X108494767Y-100540767D01*
X109665933Y-100540767D01*
X109787545Y-100314313D01*
X109544210Y-99797893D01*
X109121772Y-99413903D01*
X108721221Y-99247989D01*
X108494767Y-99369601D01*
X108240767Y-99369601D01*
X108014313Y-99247989D01*
X108007825Y-99251046D01*
X108035000Y-99185439D01*
X108035000Y-98614561D01*
X107816534Y-98087138D01*
X107412862Y-97683466D01*
X106885439Y-97465000D01*
X106314561Y-97465000D01*
X105787138Y-97683466D01*
X105383466Y-98087138D01*
X105165000Y-98614561D01*
X104135000Y-98614561D01*
X104135000Y-97266578D01*
X106198270Y-95203309D01*
X106274778Y-95235000D01*
X106925222Y-95235000D01*
X107526153Y-94986086D01*
X107986086Y-94526153D01*
X108003132Y-94485000D01*
X110409270Y-94485000D01*
X110514813Y-94642957D01*
X110989481Y-94960120D01*
X111408057Y-95043380D01*
X111690723Y-95043380D01*
X112109299Y-94960120D01*
X112583967Y-94642957D01*
X112668985Y-94515718D01*
X115662386Y-94515718D01*
X115747404Y-94642957D01*
X116222072Y-94960120D01*
X116640648Y-95043380D01*
X116923314Y-95043380D01*
X117341890Y-94960120D01*
X117816558Y-94642957D01*
X118133721Y-94168289D01*
X118245094Y-93608380D01*
X118133721Y-93048471D01*
X117816558Y-92573803D01*
X117341890Y-92256640D01*
X116923314Y-92173380D01*
X116640648Y-92173380D01*
X116222072Y-92256640D01*
X115747404Y-92573803D01*
X115632534Y-92745718D01*
X112698837Y-92745718D01*
X112583967Y-92573803D01*
X112109299Y-92256640D01*
X111690723Y-92173380D01*
X111408057Y-92173380D01*
X110989481Y-92256640D01*
X110514813Y-92573803D01*
X110420468Y-92715000D01*
X108182280Y-92715000D01*
X116144092Y-84737390D01*
X116496542Y-84883380D01*
X117067420Y-84883380D01*
X117594843Y-84664914D01*
X117998515Y-84261242D01*
X118216981Y-83733819D01*
X118216981Y-83162941D01*
X117998515Y-82635518D01*
X117594843Y-82231846D01*
X117067420Y-82013380D01*
X116496542Y-82013380D01*
X115969119Y-82231846D01*
X115940286Y-82260680D01*
X109589803Y-75910197D01*
X109548601Y-75882667D01*
X109500000Y-75873000D01*
X109451399Y-75882667D01*
X109410197Y-75910197D01*
X93405394Y-91915000D01*
X86102113Y-91915000D01*
X82333690Y-88146577D01*
X85193784Y-88146577D01*
X85193784Y-89194845D01*
X85594939Y-90163319D01*
X86336176Y-90904556D01*
X87304650Y-91305711D01*
X88352918Y-91305711D01*
X89321392Y-90904556D01*
X90062629Y-90163319D01*
X90463784Y-89194845D01*
X90463784Y-88146577D01*
X90062629Y-87178103D01*
X89321392Y-86436866D01*
X88352918Y-86035711D01*
X87304650Y-86035711D01*
X86336176Y-86436866D01*
X85594939Y-87178103D01*
X85193784Y-88146577D01*
X82333690Y-88146577D01*
X81302767Y-87115655D01*
X81302767Y-86599466D01*
X81840864Y-86599466D01*
X82405041Y-86365776D01*
X82836844Y-85933973D01*
X83070534Y-85369796D01*
X83070534Y-84759136D01*
X82836844Y-84194959D01*
X82405041Y-83763156D01*
X81840864Y-83529466D01*
X81230204Y-83529466D01*
X80666027Y-83763156D01*
X80234224Y-84194959D01*
X80000534Y-84759136D01*
X80000534Y-85297233D01*
X79462437Y-85297233D01*
X78898260Y-85530923D01*
X78466457Y-85962726D01*
X78232767Y-86526903D01*
X78232767Y-87065000D01*
X77694670Y-87065000D01*
X77130493Y-87298690D01*
X76698690Y-87730493D01*
X76465000Y-88294670D01*
X76465000Y-88905330D01*
X76698690Y-89469507D01*
X77130493Y-89901310D01*
X77694670Y-90135000D01*
X78305330Y-90135000D01*
X78869507Y-89901310D01*
X79301310Y-89469507D01*
X79535000Y-88905330D01*
X79535000Y-88367233D01*
X80051189Y-88367233D01*
X85048111Y-93364156D01*
X85097485Y-93438049D01*
X85171378Y-93487423D01*
X85171379Y-93487424D01*
X85265032Y-93550001D01*
X85390224Y-93633652D01*
X85648369Y-93685000D01*
X85648372Y-93685000D01*
X85735533Y-93702337D01*
X85822694Y-93685000D01*
X91635394Y-93685000D01*
X84400000Y-100920394D01*
X80955350Y-97475744D01*
X81082111Y-97528250D01*
X82130379Y-97528250D01*
X83098853Y-97127095D01*
X83840090Y-96385858D01*
X84241245Y-95417384D01*
X84241245Y-94369116D01*
X83840090Y-93400642D01*
X83098853Y-92659405D01*
X82130379Y-92258250D01*
X81082111Y-92258250D01*
X80113637Y-92659405D01*
X79372400Y-93400642D01*
X78971245Y-94369116D01*
X78971245Y-95417384D01*
X79007695Y-95505383D01*
X76798498Y-93119449D01*
X75005271Y-90628856D01*
X73110722Y-87637463D01*
X71315668Y-84047355D01*
X69919712Y-80657178D01*
X68823207Y-77068615D01*
X68025677Y-73180655D01*
X67726655Y-70290111D01*
X67627000Y-68396669D01*
X67627000Y-66592078D01*
X80473247Y-66592078D01*
X80473281Y-66608448D01*
X80673281Y-69608448D01*
X80674114Y-69616785D01*
X81074114Y-72616785D01*
X81077573Y-72633773D01*
X81877573Y-75533773D01*
X81880906Y-75544109D01*
X82880906Y-78244109D01*
X82886408Y-78256796D01*
X84286408Y-81056796D01*
X84288982Y-81061677D01*
X84788982Y-81961677D01*
X84810197Y-81989803D01*
X84851399Y-82017333D01*
X84900000Y-82027000D01*
X84948601Y-82017333D01*
X84989803Y-81989803D01*
X93215000Y-73764606D01*
X93215000Y-82138447D01*
X93053018Y-82300429D01*
X92865000Y-82754343D01*
X92865000Y-83245657D01*
X93053018Y-83699571D01*
X93400429Y-84046982D01*
X93854343Y-84235000D01*
X94345657Y-84235000D01*
X94799571Y-84046982D01*
X95146982Y-83699571D01*
X95269877Y-83402877D01*
X95545995Y-83653864D01*
X95946546Y-83819778D01*
X96173000Y-83698166D01*
X96173000Y-82527000D01*
X96427000Y-82527000D01*
X96427000Y-83698166D01*
X96653454Y-83819778D01*
X97169874Y-83576443D01*
X97553864Y-83154005D01*
X97719778Y-82753454D01*
X97598166Y-82527000D01*
X96427000Y-82527000D01*
X96173000Y-82527000D01*
X95240831Y-82527000D01*
X95146982Y-82300429D01*
X95119553Y-82273000D01*
X96173000Y-82273000D01*
X96173000Y-81101834D01*
X96427000Y-81101834D01*
X96427000Y-82273000D01*
X97598166Y-82273000D01*
X97719778Y-82046546D01*
X97476443Y-81530126D01*
X97054005Y-81146136D01*
X96653454Y-80980222D01*
X96427000Y-81101834D01*
X96173000Y-81101834D01*
X95946546Y-80980222D01*
X95430126Y-81223557D01*
X95046136Y-81645995D01*
X94985000Y-81793590D01*
X94985000Y-78707745D01*
X102021861Y-78707745D01*
X102095995Y-78953864D01*
X102633223Y-79146965D01*
X103203454Y-79119778D01*
X103604005Y-78953864D01*
X103678139Y-78707745D01*
X102850000Y-77879605D01*
X102021861Y-78707745D01*
X94985000Y-78707745D01*
X94985000Y-77483223D01*
X101403035Y-77483223D01*
X101430222Y-78053454D01*
X101596136Y-78454005D01*
X101842255Y-78528139D01*
X102670395Y-77700000D01*
X103029605Y-77700000D01*
X103857745Y-78528139D01*
X104103864Y-78454005D01*
X104296965Y-77916777D01*
X104269778Y-77346546D01*
X104103864Y-76945995D01*
X103857745Y-76871861D01*
X103029605Y-77700000D01*
X102670395Y-77700000D01*
X101842255Y-76871861D01*
X101596136Y-76945995D01*
X101403035Y-77483223D01*
X94985000Y-77483223D01*
X94985000Y-76692255D01*
X102021861Y-76692255D01*
X102850000Y-77520395D01*
X103678139Y-76692255D01*
X103604005Y-76446136D01*
X103066777Y-76253035D01*
X102496546Y-76280222D01*
X102095995Y-76446136D01*
X102021861Y-76692255D01*
X94985000Y-76692255D01*
X94985000Y-71994606D01*
X99439606Y-67540000D01*
X101386887Y-67540000D01*
X101498260Y-68099909D01*
X101815423Y-68574577D01*
X102290091Y-68891740D01*
X102708667Y-68975000D01*
X102991333Y-68975000D01*
X103409909Y-68891740D01*
X103884577Y-68574577D01*
X104201679Y-68100000D01*
X108952560Y-68100000D01*
X108952560Y-69900000D01*
X109001843Y-70147765D01*
X109142191Y-70357809D01*
X109352235Y-70498157D01*
X109600000Y-70547440D01*
X111400000Y-70547440D01*
X111647765Y-70498157D01*
X111857809Y-70357809D01*
X111998157Y-70147765D01*
X112047440Y-69900000D01*
X112047440Y-68100000D01*
X111998157Y-67852235D01*
X111857809Y-67642191D01*
X111647765Y-67501843D01*
X111632092Y-67498725D01*
X111801310Y-67329507D01*
X112035000Y-66765330D01*
X112035000Y-66154670D01*
X111801310Y-65590493D01*
X111369507Y-65158690D01*
X110805330Y-64925000D01*
X110194670Y-64925000D01*
X109814037Y-65082664D01*
X109644691Y-65116348D01*
X109351951Y-65311951D01*
X109156348Y-65604691D01*
X109122664Y-65774037D01*
X108965000Y-66154670D01*
X108965000Y-66765330D01*
X109198690Y-67329507D01*
X109367908Y-67498725D01*
X109352235Y-67501843D01*
X109142191Y-67642191D01*
X109001843Y-67852235D01*
X108952560Y-68100000D01*
X104201679Y-68100000D01*
X104201740Y-68099909D01*
X104313113Y-67540000D01*
X104201740Y-66980091D01*
X103884577Y-66505423D01*
X103409909Y-66188260D01*
X102991333Y-66105000D01*
X102708667Y-66105000D01*
X102290091Y-66188260D01*
X101815423Y-66505423D01*
X101498260Y-66980091D01*
X101386887Y-67540000D01*
X99439606Y-67540000D01*
X108014014Y-58965592D01*
X108684295Y-59635873D01*
X108661565Y-59658603D01*
X108521217Y-59868647D01*
X108471934Y-60116412D01*
X108521217Y-60364177D01*
X108661565Y-60574221D01*
X110075779Y-61988435D01*
X110285823Y-62128783D01*
X110533588Y-62178066D01*
X110781353Y-62128783D01*
X110991397Y-61988435D01*
X112338435Y-60641397D01*
X112478783Y-60431353D01*
X112528066Y-60183588D01*
X112486560Y-59974922D01*
X112949050Y-59882927D01*
X113474161Y-59532059D01*
X113825029Y-59006948D01*
X113948238Y-58387536D01*
X113900960Y-58149855D01*
X114452054Y-58143866D01*
X114953063Y-57946333D01*
X115042166Y-57687568D01*
X114092102Y-56737503D01*
X114077960Y-56751646D01*
X113898355Y-56572041D01*
X113912497Y-56557898D01*
X114271707Y-56557898D01*
X115221772Y-57507962D01*
X115480537Y-57418859D01*
X115678070Y-56917850D01*
X115684796Y-56298936D01*
X115454162Y-55724561D01*
X115189936Y-55639669D01*
X114271707Y-56557898D01*
X113912497Y-56557898D01*
X112962432Y-55607834D01*
X112703667Y-55696937D01*
X112506134Y-56197946D01*
X112500145Y-56749040D01*
X112262463Y-56701762D01*
X111643052Y-56824971D01*
X111117940Y-57175838D01*
X110767073Y-57700950D01*
X110675078Y-58163440D01*
X110466412Y-58121934D01*
X110218647Y-58171217D01*
X110008603Y-58311565D01*
X109935873Y-58384295D01*
X109385000Y-57833422D01*
X109385000Y-57594606D01*
X111551378Y-55428228D01*
X113142038Y-55428228D01*
X114092102Y-56378293D01*
X115010331Y-55460064D01*
X114925439Y-55195838D01*
X114351064Y-54965204D01*
X113732150Y-54971930D01*
X113231141Y-55169463D01*
X113142038Y-55428228D01*
X111551378Y-55428228D01*
X124074451Y-42905155D01*
X127736216Y-42905155D01*
X127736216Y-43953423D01*
X128137371Y-44921897D01*
X128878608Y-45663134D01*
X129847082Y-46064289D01*
X130895350Y-46064289D01*
X131863824Y-45663134D01*
X132605061Y-44921897D01*
X133006216Y-43953423D01*
X133006216Y-42905155D01*
X132605061Y-41936681D01*
X131863824Y-41195444D01*
X130895350Y-40794289D01*
X129847082Y-40794289D01*
X128878608Y-41195444D01*
X128137371Y-41936681D01*
X127736216Y-42905155D01*
X124074451Y-42905155D01*
X124889803Y-42089803D01*
X124910267Y-42063010D01*
X124925986Y-42016016D01*
X124922525Y-41966584D01*
X124900411Y-41922239D01*
X124863010Y-41889733D01*
X123463010Y-41089733D01*
X123454076Y-41085088D01*
X121754076Y-40285088D01*
X121750638Y-40283532D01*
X119450638Y-39283532D01*
X119435409Y-39278036D01*
X116335409Y-38378036D01*
X116320879Y-38374728D01*
X114941359Y-38144808D01*
X114935000Y-38112839D01*
X114935000Y-38112835D01*
X114883652Y-37854690D01*
X114800927Y-37730884D01*
X114737424Y-37635845D01*
X114737423Y-37635844D01*
X114688049Y-37561951D01*
X114614156Y-37512577D01*
X111937425Y-34835847D01*
X111888049Y-34761951D01*
X111595310Y-34566348D01*
X111337165Y-34515000D01*
X111337161Y-34515000D01*
X111250000Y-34497663D01*
X111162839Y-34515000D01*
X108303132Y-34515000D01*
X108286086Y-34473847D01*
X107826153Y-34013914D01*
X107225222Y-33765000D01*
X106574778Y-33765000D01*
X105973847Y-34013914D01*
X105513914Y-34473847D01*
X105265000Y-35074778D01*
X105265000Y-35725222D01*
X105513914Y-36326153D01*
X105973847Y-36786086D01*
X106574778Y-37035000D01*
X107225222Y-37035000D01*
X107826153Y-36786086D01*
X108286086Y-36326153D01*
X108303132Y-36285000D01*
X110883422Y-36285000D01*
X112375060Y-37776639D01*
X110413068Y-37573674D01*
X110396033Y-37573062D01*
X107196033Y-37673062D01*
X107183215Y-37674114D01*
X104183215Y-38074114D01*
X104171142Y-38076322D01*
X101171142Y-38776322D01*
X101156983Y-38780507D01*
X98656983Y-39680507D01*
X98646294Y-39684915D01*
X95646294Y-41084915D01*
X95633025Y-41092096D01*
X92733025Y-42892096D01*
X92720664Y-42900830D01*
X90720664Y-44500830D01*
X90712656Y-44507804D01*
X88812656Y-46307804D01*
X88805602Y-46315041D01*
X87005602Y-48315041D01*
X86999117Y-48322854D01*
X85699117Y-50022854D01*
X85691633Y-50033776D01*
X84591633Y-51833776D01*
X84588721Y-51838796D01*
X83488721Y-53838796D01*
X83483755Y-53848852D01*
X82383755Y-56348852D01*
X82382083Y-56352833D01*
X81982083Y-57352833D01*
X81977288Y-57367277D01*
X81177288Y-60367277D01*
X81174728Y-60379121D01*
X80674728Y-63379121D01*
X80673247Y-63392078D01*
X80473247Y-66592078D01*
X67627000Y-66592078D01*
X67627000Y-64004878D01*
X67726327Y-62713625D01*
X68225138Y-59122185D01*
X69022903Y-55432521D01*
X70119041Y-51944812D01*
X71614653Y-48554757D01*
X73309631Y-45264505D01*
X75503018Y-41974426D01*
X77995293Y-38784313D01*
X80287369Y-36492237D01*
X83179843Y-33898985D01*
X86070983Y-31805400D01*
X89261539Y-29811303D01*
X92550793Y-28216513D01*
X96140756Y-26820416D01*
X99929534Y-25723665D01*
X103619101Y-25025639D01*
X106207303Y-24727000D01*
X110896907Y-24727000D01*
X114985631Y-24926450D01*
X118871717Y-25623953D01*
X122460401Y-26620809D01*
X125351513Y-27717438D01*
X129142024Y-29413193D01*
X132231221Y-31206920D01*
X135320945Y-33399627D01*
X136645953Y-34571750D01*
X136069621Y-34571750D01*
X135101147Y-34972905D01*
X134359910Y-35714142D01*
X133958755Y-36682616D01*
X133958755Y-37730884D01*
X134359910Y-38699358D01*
X135101147Y-39440595D01*
X136069621Y-39841750D01*
X137117889Y-39841750D01*
X138086363Y-39440595D01*
X138827600Y-38699358D01*
X139228755Y-37730884D01*
X139228755Y-36959556D01*
X140611017Y-38290623D01*
X143820394Y-41500000D01*
X141735000Y-43585394D01*
X141735000Y-43194670D01*
X141501310Y-42630493D01*
X141069507Y-42198690D01*
X140505330Y-41965000D01*
X139894670Y-41965000D01*
X139330493Y-42198690D01*
X139014183Y-42515000D01*
X138087159Y-42515000D01*
X137999999Y-42497663D01*
X137912839Y-42515000D01*
X137912835Y-42515000D01*
X137654690Y-42566348D01*
X137654688Y-42566349D01*
X137654689Y-42566349D01*
X137435845Y-42712576D01*
X137435844Y-42712577D01*
X137361951Y-42761951D01*
X137312577Y-42835844D01*
X134035847Y-46112575D01*
X133961951Y-46161951D01*
X133766348Y-46454691D01*
X133715000Y-46712836D01*
X133715000Y-46712839D01*
X133697663Y-46800000D01*
X133715000Y-46887161D01*
X133715001Y-50133420D01*
X119435847Y-64412575D01*
X119361951Y-64461951D01*
X119166348Y-64754691D01*
X119115000Y-65012836D01*
X119115000Y-65012839D01*
X119097663Y-65100000D01*
X119115000Y-65187161D01*
X119115000Y-66205394D01*
X118810197Y-66510197D01*
X118782667Y-66551399D01*
X118773000Y-66600000D01*
X118782667Y-66648601D01*
X118810197Y-66689803D01*
X119115000Y-66994606D01*
X119115001Y-71312835D01*
X119115000Y-73533421D01*
X117583422Y-75065000D01*
X117354343Y-75065000D01*
X116900429Y-75253018D01*
X116553018Y-75600429D01*
X116365000Y-76054343D01*
X116365000Y-76545657D01*
X116553018Y-76999571D01*
X116900429Y-77346982D01*
X117354343Y-77535000D01*
X117845657Y-77535000D01*
X118299571Y-77346982D01*
X118646982Y-76999571D01*
X118835000Y-76545657D01*
X118835000Y-76316578D01*
X119865000Y-75286578D01*
X119865000Y-77188447D01*
X119703018Y-77350429D01*
X119515000Y-77804343D01*
X119515000Y-78295657D01*
X119703018Y-78749571D01*
X120050429Y-79096982D01*
X120504343Y-79285000D01*
X120995657Y-79285000D01*
X121449571Y-79096982D01*
X121796982Y-78749571D01*
X121985000Y-78295657D01*
X121985000Y-77804343D01*
X121796982Y-77350429D01*
X121635000Y-77188447D01*
X121635000Y-69514606D01*
X126510197Y-74389803D01*
X126551399Y-74417333D01*
X126600000Y-74427000D01*
X126648601Y-74417333D01*
X126689803Y-74389803D01*
X126965000Y-74114606D01*
X126965000Y-82288447D01*
X126803018Y-82450429D01*
X126615000Y-82904343D01*
X126615000Y-83395657D01*
X126803018Y-83849571D01*
X127150429Y-84196982D01*
X127604343Y-84385000D01*
X128095657Y-84385000D01*
X128549571Y-84196982D01*
X128896982Y-83849571D01*
X129085000Y-83395657D01*
X129085000Y-82904343D01*
X128896982Y-82450429D01*
X128735000Y-82288447D01*
X128735000Y-79030651D01*
X128786556Y-79107809D01*
X130342191Y-80663444D01*
X130552235Y-80803792D01*
X130800000Y-80853075D01*
X131047765Y-80803792D01*
X131257809Y-80663444D01*
X132813444Y-79107809D01*
X132953792Y-78897765D01*
X133003075Y-78650000D01*
X132953792Y-78402235D01*
X132813444Y-78192191D01*
X131257809Y-76636556D01*
X131047765Y-76496208D01*
X130800000Y-76446925D01*
X130552235Y-76496208D01*
X130342191Y-76636556D01*
X128786556Y-78192191D01*
X128735000Y-78269349D01*
X128735000Y-76018289D01*
X138007967Y-76018289D01*
X138007967Y-76867645D01*
X138333001Y-77652347D01*
X138933587Y-78252933D01*
X139718289Y-78577967D01*
X140567645Y-78577967D01*
X141352347Y-78252933D01*
X141952933Y-77652347D01*
X142277967Y-76867645D01*
X142277967Y-76018289D01*
X141952933Y-75233587D01*
X141352347Y-74633001D01*
X140567645Y-74307967D01*
X139718289Y-74307967D01*
X138933587Y-74633001D01*
X138333001Y-75233587D01*
X138007967Y-76018289D01*
X128735000Y-76018289D01*
X128735000Y-72344606D01*
X146925058Y-54154548D01*
X153069342Y-54154548D01*
X153069342Y-55003904D01*
X153394376Y-55788606D01*
X153994962Y-56389192D01*
X154779664Y-56714226D01*
X155629020Y-56714226D01*
X156413722Y-56389192D01*
X157014308Y-55788606D01*
X157339342Y-55003904D01*
X157339342Y-54154548D01*
X157014308Y-53369846D01*
X156413722Y-52769260D01*
X155629020Y-52444226D01*
X154779664Y-52444226D01*
X153994962Y-52769260D01*
X153394376Y-53369846D01*
X153069342Y-54154548D01*
X146925058Y-54154548D01*
X177200000Y-23879606D01*
X186720483Y-33400089D01*
X186720483Y-33400089D01*
G37*
X186720483Y-33400089D02*
X136210109Y-84010286D01*
X136182619Y-84051515D01*
X136173000Y-84100125D01*
X136182715Y-84148717D01*
X136210197Y-84189803D01*
X136681427Y-84661033D01*
X136349871Y-85157242D01*
X136215215Y-85834205D01*
X136349871Y-86511168D01*
X136733340Y-87085070D01*
X137307242Y-87468539D01*
X137813325Y-87569205D01*
X138155085Y-87569205D01*
X138661168Y-87468539D01*
X139157377Y-87136983D01*
X141910197Y-89889803D01*
X141951399Y-89917333D01*
X142000000Y-89927000D01*
X142048601Y-89917333D01*
X142089891Y-89889714D01*
X145254147Y-86719205D01*
X147452682Y-86719205D01*
X147490034Y-86809380D01*
X148090620Y-87409966D01*
X148875322Y-87735000D01*
X149724678Y-87735000D01*
X150509380Y-87409966D01*
X151109966Y-86809380D01*
X151435000Y-86024678D01*
X151435000Y-85175322D01*
X151109966Y-84390620D01*
X150509380Y-83790034D01*
X149724678Y-83465000D01*
X148875322Y-83465000D01*
X148238795Y-83728658D01*
X152355995Y-79603321D01*
X159440374Y-79603321D01*
X159440374Y-80452677D01*
X159765408Y-81237379D01*
X160365994Y-81837965D01*
X161150696Y-82162999D01*
X162000052Y-82162999D01*
X162784754Y-81837965D01*
X163385340Y-81237379D01*
X163710374Y-80452677D01*
X163710374Y-79603321D01*
X163385340Y-78818619D01*
X162784754Y-78218033D01*
X162000052Y-77892999D01*
X161150696Y-77892999D01*
X160365994Y-78218033D01*
X159765408Y-78818619D01*
X159440374Y-79603321D01*
X152355995Y-79603321D01*
X171318480Y-60603361D01*
X178440333Y-60603361D01*
X178440333Y-61452717D01*
X178765367Y-62237419D01*
X179365953Y-62838005D01*
X180150655Y-63163039D01*
X181000011Y-63163039D01*
X181784713Y-62838005D01*
X182385299Y-62237419D01*
X182710333Y-61452717D01*
X182710333Y-60603361D01*
X182385299Y-59818659D01*
X181784713Y-59218073D01*
X181000011Y-58893039D01*
X180150655Y-58893039D01*
X179365953Y-59218073D01*
X178765367Y-59818659D01*
X178440333Y-60603361D01*
X171318480Y-60603361D01*
X192599632Y-39280152D01*
X202220849Y-48999545D01*
X162555394Y-88665000D01*
X157687159Y-88665000D01*
X157599999Y-88647663D01*
X157512839Y-88665000D01*
X157512835Y-88665000D01*
X157254690Y-88716348D01*
X157146880Y-88788385D01*
X157035845Y-88862576D01*
X157035844Y-88862577D01*
X156961951Y-88911951D01*
X156912577Y-88985844D01*
X153233422Y-92665000D01*
X135761553Y-92665000D01*
X135599571Y-92503018D01*
X135145657Y-92315000D01*
X134654343Y-92315000D01*
X134200429Y-92503018D01*
X133853018Y-92850429D01*
X133665000Y-93304343D01*
X133665000Y-93795657D01*
X133853018Y-94249571D01*
X134200429Y-94596982D01*
X134654343Y-94785000D01*
X135145657Y-94785000D01*
X135599571Y-94596982D01*
X135761553Y-94435000D01*
X153512839Y-94435000D01*
X153600000Y-94452337D01*
X153687161Y-94435000D01*
X153687165Y-94435000D01*
X153945310Y-94383652D01*
X154238049Y-94188049D01*
X154287425Y-94114153D01*
X157966579Y-90435000D01*
X160785394Y-90435000D01*
X156705394Y-94515000D01*
X156587161Y-94515000D01*
X156500000Y-94497663D01*
X156412839Y-94515000D01*
X156412835Y-94515000D01*
X156154690Y-94566348D01*
X155935845Y-94712576D01*
X155935844Y-94712577D01*
X155861951Y-94761951D01*
X155812577Y-94835844D01*
X152135847Y-98512575D01*
X152061951Y-98561951D01*
X151866348Y-98854691D01*
X151815000Y-99112836D01*
X151815000Y-99112839D01*
X151797663Y-99200000D01*
X151815000Y-99287161D01*
X151815000Y-99405394D01*
X151710197Y-99510197D01*
X151682667Y-99551399D01*
X151673000Y-99600000D01*
X151682667Y-99648601D01*
X151710197Y-99689803D01*
X151815000Y-99794606D01*
X151815000Y-99801017D01*
X151645227Y-99970791D01*
X151436563Y-99762127D01*
X150923107Y-99549447D01*
X150367345Y-99549447D01*
X149853889Y-99762127D01*
X149763518Y-99852499D01*
X149471380Y-99560361D01*
X148870449Y-99311447D01*
X148220005Y-99311447D01*
X147619074Y-99560361D01*
X147159141Y-100020294D01*
X146910227Y-100621225D01*
X146910227Y-101271669D01*
X147159141Y-101872600D01*
X147619074Y-102332533D01*
X148220005Y-102581447D01*
X148870449Y-102581447D01*
X149471380Y-102332533D01*
X149763518Y-102040396D01*
X149853889Y-102130767D01*
X150367345Y-102343447D01*
X150923107Y-102343447D01*
X151436563Y-102130767D01*
X151645227Y-101922104D01*
X151853890Y-102130767D01*
X152367346Y-102343447D01*
X152923108Y-102343447D01*
X153436564Y-102130767D01*
X153645228Y-101922104D01*
X153853891Y-102130767D01*
X154361362Y-102340968D01*
X160310197Y-108289803D01*
X160351399Y-108317333D01*
X160400000Y-108327000D01*
X160448601Y-108317333D01*
X160489803Y-108289803D01*
X163415001Y-105364605D01*
X163415000Y-112812839D01*
X163397663Y-112900000D01*
X163415000Y-112987161D01*
X163415000Y-112987164D01*
X163466348Y-113245309D01*
X163661951Y-113538049D01*
X163735847Y-113587425D01*
X165265000Y-115116579D01*
X165265000Y-115345657D01*
X165453018Y-115799571D01*
X165800429Y-116146982D01*
X166254343Y-116335000D01*
X166745657Y-116335000D01*
X167199571Y-116146982D01*
X167546982Y-115799571D01*
X167735000Y-115345657D01*
X167735000Y-114854343D01*
X167546982Y-114400429D01*
X167199571Y-114053018D01*
X166745657Y-113865000D01*
X166516579Y-113865000D01*
X165185000Y-112533422D01*
X165185000Y-109912247D01*
X166011804Y-109912247D01*
X166011804Y-110562691D01*
X166260718Y-111163622D01*
X166720651Y-111623555D01*
X167321582Y-111872469D01*
X167972026Y-111872469D01*
X168572957Y-111623555D01*
X169032890Y-111163622D01*
X169281804Y-110562691D01*
X169281804Y-109912247D01*
X169032890Y-109311316D01*
X168572957Y-108851383D01*
X167972026Y-108602469D01*
X167321582Y-108602469D01*
X166720651Y-108851383D01*
X166260718Y-109311316D01*
X166011804Y-109912247D01*
X165185000Y-109912247D01*
X165185000Y-105074778D01*
X175765000Y-105074778D01*
X175765000Y-105725222D01*
X176013914Y-106326153D01*
X176473847Y-106786086D01*
X177074778Y-107035000D01*
X177725222Y-107035000D01*
X178326153Y-106786086D01*
X178786086Y-106326153D01*
X179035000Y-105725222D01*
X179035000Y-105074778D01*
X178786086Y-104473847D01*
X178326153Y-104013914D01*
X177725222Y-103765000D01*
X177074778Y-103765000D01*
X176473847Y-104013914D01*
X176013914Y-104473847D01*
X175765000Y-105074778D01*
X165185000Y-105074778D01*
X165185000Y-103594606D01*
X166988647Y-101790959D01*
X191308086Y-101790959D01*
X191429371Y-102013000D01*
X192573000Y-102013000D01*
X192573000Y-100870085D01*
X192827000Y-100870085D01*
X192827000Y-102013000D01*
X193970629Y-102013000D01*
X194091914Y-101790959D01*
X193852389Y-101284866D01*
X193437423Y-100908959D01*
X193049039Y-100748096D01*
X192827000Y-100870085D01*
X192573000Y-100870085D01*
X192350961Y-100748096D01*
X191962577Y-100908959D01*
X191547611Y-101284866D01*
X191308086Y-101790959D01*
X166988647Y-101790959D01*
X169510146Y-99269460D01*
X181179161Y-99269460D01*
X181436314Y-99823336D01*
X181885852Y-100236643D01*
X182330540Y-100420839D01*
X182573000Y-100300576D01*
X182573000Y-99027000D01*
X182827000Y-99027000D01*
X182827000Y-100300576D01*
X183069460Y-100420839D01*
X183623336Y-100163686D01*
X184036643Y-99714148D01*
X184220839Y-99269460D01*
X184100576Y-99027000D01*
X182827000Y-99027000D01*
X182573000Y-99027000D01*
X181299424Y-99027000D01*
X181179161Y-99269460D01*
X169510146Y-99269460D01*
X177414014Y-91365592D01*
X181165001Y-95116580D01*
X181165000Y-95597233D01*
X180699466Y-95597233D01*
X180699466Y-95059136D01*
X180465776Y-94494959D01*
X180033973Y-94063156D01*
X179469796Y-93829466D01*
X178859136Y-93829466D01*
X178294959Y-94063156D01*
X177863156Y-94494959D01*
X177629466Y-95059136D01*
X177629466Y-95669796D01*
X177863156Y-96233973D01*
X178294959Y-96665776D01*
X178859136Y-96899466D01*
X179397233Y-96899466D01*
X179397233Y-97437563D01*
X179630923Y-98001740D01*
X180062726Y-98433543D01*
X180626903Y-98667233D01*
X181237563Y-98667233D01*
X181245360Y-98664003D01*
X181299424Y-98773000D01*
X182393392Y-98773000D01*
X182506251Y-98885859D01*
X182685859Y-98706251D01*
X182573000Y-98593392D01*
X182573000Y-97499424D01*
X182827000Y-97499424D01*
X182827000Y-98773000D01*
X184100576Y-98773000D01*
X184220839Y-98530540D01*
X183963686Y-97976664D01*
X183514148Y-97563357D01*
X183069460Y-97379161D01*
X182827000Y-97499424D01*
X182573000Y-97499424D01*
X182464003Y-97445360D01*
X182467233Y-97437563D01*
X182467233Y-96848812D01*
X182614156Y-96701889D01*
X182688049Y-96652515D01*
X182753414Y-96554691D01*
X182883651Y-96359777D01*
X182883652Y-96359776D01*
X182935000Y-96101631D01*
X182935000Y-96101627D01*
X182952337Y-96014467D01*
X182935000Y-95927307D01*
X182935000Y-94837161D01*
X182948434Y-94769621D01*
X186358250Y-94769621D01*
X186358250Y-95817889D01*
X186759405Y-96786363D01*
X187500642Y-97527600D01*
X188469116Y-97928755D01*
X189517384Y-97928755D01*
X190485858Y-97527600D01*
X191227095Y-96786363D01*
X191628250Y-95817889D01*
X191628250Y-94769621D01*
X191227095Y-93801147D01*
X190485858Y-93059910D01*
X189517384Y-92658755D01*
X188469116Y-92658755D01*
X187500642Y-93059910D01*
X186759405Y-93801147D01*
X186358250Y-94769621D01*
X182948434Y-94769621D01*
X182952337Y-94750000D01*
X182935000Y-94662839D01*
X182935000Y-94662835D01*
X182883652Y-94404690D01*
X182780004Y-94249571D01*
X182737424Y-94185845D01*
X182737423Y-94185844D01*
X182688049Y-94111951D01*
X182614156Y-94062577D01*
X178665592Y-90114014D01*
X180135711Y-88643895D01*
X180135711Y-89595350D01*
X180536866Y-90563824D01*
X181278103Y-91305061D01*
X182246577Y-91706216D01*
X183294845Y-91706216D01*
X184263319Y-91305061D01*
X185004556Y-90563824D01*
X185405711Y-89595350D01*
X185405711Y-88547082D01*
X185004556Y-87578608D01*
X184263319Y-86837371D01*
X183294845Y-86436216D01*
X182343390Y-86436216D01*
X185598268Y-83181338D01*
X193201809Y-91081122D01*
X194396161Y-92773120D01*
X195792873Y-94768424D01*
X197587420Y-97859031D01*
X199182564Y-101248713D01*
X200478916Y-104838611D01*
X201476122Y-108428553D01*
X202174049Y-112217299D01*
X202373000Y-114405756D01*
X202373000Y-119595474D01*
X202173785Y-122384486D01*
X201475894Y-126372433D01*
X200478359Y-130063313D01*
X199381666Y-133353391D01*
X197786707Y-136842364D01*
X195992575Y-140031932D01*
X193799705Y-143121885D01*
X190908116Y-146512025D01*
X188016007Y-149204678D01*
X185025610Y-151696675D01*
X181635576Y-153790520D01*
X179143972Y-155185818D01*
X175154402Y-156881385D01*
X172265052Y-157877713D01*
X168776025Y-158675205D01*
X165586358Y-159173590D01*
X160597705Y-159472909D01*
X156410860Y-159373223D01*
X153721309Y-158974770D01*
X151128043Y-158476065D01*
X148834728Y-157877809D01*
X146243485Y-157080504D01*
X141756234Y-155185887D01*
X138066650Y-153091799D01*
X135674694Y-151497161D01*
X133783560Y-150004161D01*
X133080613Y-149328250D01*
X133730379Y-149328250D01*
X134698853Y-148927095D01*
X135440090Y-148185858D01*
X135841245Y-147217384D01*
X135841245Y-146169116D01*
X135440090Y-145200642D01*
X134698853Y-144459405D01*
X133730379Y-144058250D01*
X132682111Y-144058250D01*
X131713637Y-144459405D01*
X130972400Y-145200642D01*
X130571245Y-146169116D01*
X130571245Y-146915396D01*
X126081384Y-142598222D01*
X128065000Y-140614606D01*
X128065000Y-140705330D01*
X128298690Y-141269507D01*
X128730493Y-141701310D01*
X129294670Y-141935000D01*
X129905330Y-141935000D01*
X130469507Y-141701310D01*
X130901310Y-141269507D01*
X131135000Y-140705330D01*
X131135000Y-140167233D01*
X131515655Y-140167233D01*
X143962577Y-152614156D01*
X144011951Y-152688049D01*
X144085844Y-152737423D01*
X144085845Y-152737424D01*
X144141586Y-152774669D01*
X144304690Y-152883652D01*
X144562835Y-152935000D01*
X144562840Y-152935000D01*
X144649999Y-152952337D01*
X144737159Y-152935000D01*
X156646868Y-152935000D01*
X156663914Y-152976153D01*
X157123847Y-153436086D01*
X157724778Y-153685000D01*
X158375222Y-153685000D01*
X158976153Y-153436086D01*
X159436086Y-152976153D01*
X159685000Y-152375222D01*
X159685000Y-151724778D01*
X159436086Y-151123847D01*
X158976153Y-150663914D01*
X158375222Y-150415000D01*
X157724778Y-150415000D01*
X157123847Y-150663914D01*
X156663914Y-151123847D01*
X156646868Y-151165000D01*
X145016579Y-151165000D01*
X143605229Y-149753650D01*
X143762835Y-149785000D01*
X143762839Y-149785000D01*
X143850000Y-149802337D01*
X143937161Y-149785000D01*
X160133422Y-149785000D01*
X166865000Y-156516579D01*
X166865000Y-156885439D01*
X167083466Y-157412862D01*
X167487138Y-157816534D01*
X168014561Y-158035000D01*
X168585439Y-158035000D01*
X169112862Y-157816534D01*
X169516534Y-157412862D01*
X169735000Y-156885439D01*
X169735000Y-156314561D01*
X169516534Y-155787138D01*
X169112862Y-155383466D01*
X168585439Y-155165000D01*
X168016579Y-155165000D01*
X161187425Y-148335847D01*
X161138049Y-148261951D01*
X160845310Y-148066348D01*
X160587165Y-148015000D01*
X160587161Y-148015000D01*
X160500000Y-147997663D01*
X160412839Y-148015000D01*
X155864856Y-148015000D01*
X155935000Y-147845657D01*
X155935000Y-147616578D01*
X157175306Y-146376272D01*
X157479777Y-146425380D01*
X157495905Y-146426934D01*
X160595905Y-146526934D01*
X160608839Y-146526692D01*
X162423790Y-146400068D01*
X162571480Y-146547758D01*
X162581741Y-146554614D01*
X162607830Y-146580704D01*
X162705949Y-146661228D01*
X162787447Y-146715683D01*
X162899374Y-146775510D01*
X162989929Y-146813020D01*
X163111393Y-146849866D01*
X163207528Y-146868988D01*
X163333834Y-146881428D01*
X163431850Y-146881428D01*
X163558156Y-146868988D01*
X163607579Y-146859157D01*
X163712577Y-146964156D01*
X163761951Y-147038049D01*
X163835844Y-147087423D01*
X163835845Y-147087424D01*
X163906633Y-147134723D01*
X164054690Y-147233652D01*
X164312835Y-147285000D01*
X164312839Y-147285000D01*
X164399999Y-147302337D01*
X164487159Y-147285000D01*
X165483422Y-147285000D01*
X166812577Y-148614156D01*
X166861951Y-148688049D01*
X166935844Y-148737423D01*
X166935845Y-148737424D01*
X167031418Y-148801284D01*
X167154690Y-148883652D01*
X167412835Y-148935000D01*
X167412839Y-148935000D01*
X167499999Y-148952337D01*
X167587159Y-148935000D01*
X169112839Y-148935000D01*
X169200000Y-148952337D01*
X169287161Y-148935000D01*
X169287165Y-148935000D01*
X169545310Y-148883652D01*
X169838049Y-148688049D01*
X169887425Y-148614153D01*
X170714156Y-147787423D01*
X170788049Y-147738049D01*
X170866889Y-147620058D01*
X170983652Y-147445310D01*
X170990287Y-147411951D01*
X171035000Y-147187165D01*
X171035000Y-147187161D01*
X171052337Y-147100000D01*
X171035000Y-147012839D01*
X171035000Y-146616578D01*
X171566579Y-146085000D01*
X172488550Y-146085000D01*
X172601510Y-146197960D01*
X172431378Y-146368091D01*
X172235749Y-146840383D01*
X172235749Y-147351587D01*
X172431378Y-147823879D01*
X172792855Y-148185356D01*
X173265147Y-148380985D01*
X173776351Y-148380985D01*
X174248643Y-148185356D01*
X174409979Y-148024021D01*
X174858991Y-148473033D01*
X175069035Y-148613381D01*
X175316800Y-148662664D01*
X175564565Y-148613381D01*
X175575387Y-148606150D01*
X176679987Y-149710751D01*
X176729361Y-149784644D01*
X176803254Y-149834018D01*
X176803255Y-149834019D01*
X176914290Y-149908210D01*
X177022100Y-149980247D01*
X177280245Y-150031595D01*
X177280249Y-150031595D01*
X177367409Y-150048932D01*
X177454569Y-150031595D01*
X177802199Y-150031595D01*
X178087138Y-150316534D01*
X178614561Y-150535000D01*
X179185439Y-150535000D01*
X179712862Y-150316534D01*
X180116534Y-149912862D01*
X180252668Y-149584205D01*
X183621092Y-149584205D01*
X183732465Y-150144114D01*
X184049628Y-150618782D01*
X184524296Y-150935945D01*
X184942872Y-151019205D01*
X185225538Y-151019205D01*
X185644114Y-150935945D01*
X186118782Y-150618782D01*
X186435945Y-150144114D01*
X186496616Y-149839102D01*
X187981421Y-148354296D01*
X188016526Y-148361279D01*
X188299192Y-148361279D01*
X188717768Y-148278019D01*
X189192436Y-147960856D01*
X189509599Y-147486188D01*
X189620972Y-146926279D01*
X189580011Y-146720352D01*
X191081158Y-145219205D01*
X191225538Y-145219205D01*
X191644114Y-145135945D01*
X192118782Y-144818782D01*
X192435945Y-144344114D01*
X192547318Y-143784205D01*
X192435945Y-143224296D01*
X192118782Y-142749628D01*
X191644114Y-142432465D01*
X191225538Y-142349205D01*
X190942872Y-142349205D01*
X190524296Y-142432465D01*
X190049628Y-142749628D01*
X189732465Y-143224296D01*
X189621092Y-143784205D01*
X189686114Y-144111092D01*
X188304810Y-145492397D01*
X188299192Y-145491279D01*
X188016526Y-145491279D01*
X187597950Y-145574539D01*
X187123282Y-145891702D01*
X186806119Y-146366370D01*
X186694746Y-146926279D01*
X186729842Y-147102718D01*
X185607399Y-148225162D01*
X185225538Y-148149205D01*
X184942872Y-148149205D01*
X184524296Y-148232465D01*
X184049628Y-148549628D01*
X183732465Y-149024296D01*
X183621092Y-149584205D01*
X180252668Y-149584205D01*
X180335000Y-149385439D01*
X180335000Y-148814561D01*
X180116534Y-148287138D01*
X179712862Y-147883466D01*
X179185439Y-147665000D01*
X178614561Y-147665000D01*
X178087138Y-147883466D01*
X177721499Y-148249105D01*
X176826965Y-147354572D01*
X176834196Y-147343750D01*
X176883479Y-147095985D01*
X176834196Y-146848220D01*
X176693848Y-146638176D01*
X175953625Y-145897953D01*
X178016579Y-143835000D01*
X178185439Y-143835000D01*
X178712862Y-143616534D01*
X179116534Y-143212862D01*
X179335000Y-142685439D01*
X179335000Y-142114561D01*
X179116534Y-141587138D01*
X178712862Y-141183466D01*
X178185439Y-140965000D01*
X177614561Y-140965000D01*
X177422963Y-141044363D01*
X177993989Y-140627074D01*
X179829258Y-140627074D01*
X180160792Y-140958608D01*
X180688215Y-141177074D01*
X181259093Y-141177074D01*
X181786516Y-140958608D01*
X182190188Y-140554936D01*
X182408654Y-140027513D01*
X182408654Y-139456635D01*
X182190188Y-138929212D01*
X181858654Y-138597678D01*
X181858654Y-137060579D01*
X182465000Y-136425359D01*
X182465000Y-136885439D01*
X182683466Y-137412862D01*
X183087138Y-137816534D01*
X183614561Y-138035000D01*
X184185439Y-138035000D01*
X184712862Y-137816534D01*
X185116534Y-137412862D01*
X185335000Y-136885439D01*
X185335000Y-136490886D01*
X187233483Y-134592403D01*
X187564933Y-134592403D01*
X188037225Y-134396774D01*
X188198561Y-134235439D01*
X188647573Y-134684451D01*
X188857617Y-134824799D01*
X189105382Y-134874082D01*
X189281043Y-134839141D01*
X189281044Y-135947699D01*
X189081218Y-136081218D01*
X188764055Y-136555886D01*
X188652682Y-137115795D01*
X188764055Y-137675704D01*
X189081218Y-138150372D01*
X189555886Y-138467535D01*
X189974462Y-138550795D01*
X190257128Y-138550795D01*
X190675704Y-138467535D01*
X191150372Y-138150372D01*
X191467535Y-137675704D01*
X191578908Y-137115795D01*
X191467535Y-136555886D01*
X191150372Y-136081218D01*
X191051043Y-136014848D01*
X191051043Y-134455223D01*
X191068380Y-134368063D01*
X191051043Y-134280903D01*
X191051043Y-134280899D01*
X190999695Y-134022754D01*
X190804092Y-133730015D01*
X190730199Y-133680641D01*
X190615547Y-133565989D01*
X190622778Y-133555168D01*
X190672061Y-133307403D01*
X190622778Y-133059638D01*
X190482430Y-132849594D01*
X189563191Y-131930355D01*
X189353147Y-131790007D01*
X189105382Y-131740724D01*
X188857617Y-131790007D01*
X188647573Y-131930355D01*
X188441142Y-132136786D01*
X188594331Y-131766954D01*
X188594331Y-131255750D01*
X188398702Y-130783458D01*
X188037225Y-130421981D01*
X187564933Y-130226352D01*
X187053729Y-130226352D01*
X186581437Y-130421981D01*
X186377067Y-130626351D01*
X186323354Y-130626351D01*
X187214663Y-128754602D01*
X187219601Y-128742715D01*
X187479656Y-128014561D01*
X191265000Y-128014561D01*
X191265000Y-128585439D01*
X191483466Y-129112862D01*
X191887138Y-129516534D01*
X192414561Y-129735000D01*
X192985439Y-129735000D01*
X193512862Y-129516534D01*
X193916534Y-129112862D01*
X194135000Y-128585439D01*
X194135000Y-128014561D01*
X193916534Y-127487138D01*
X193512862Y-127083466D01*
X192985439Y-126865000D01*
X192414561Y-126865000D01*
X191887138Y-127083466D01*
X191483466Y-127487138D01*
X191265000Y-128014561D01*
X187479656Y-128014561D01*
X188219601Y-125942715D01*
X188222971Y-125931735D01*
X189022971Y-122831735D01*
X189026223Y-122814025D01*
X189326223Y-120114025D01*
X189326653Y-120109382D01*
X189526653Y-117409382D01*
X189526899Y-117394924D01*
X189426899Y-114894924D01*
X189425405Y-114879935D01*
X189273162Y-113928417D01*
X190016579Y-113185000D01*
X191555604Y-113185000D01*
X191815000Y-113444396D01*
X191815001Y-117005478D01*
X191665423Y-117105423D01*
X191348260Y-117580091D01*
X191236887Y-118140000D01*
X191348260Y-118699909D01*
X191665423Y-119174577D01*
X192140091Y-119491740D01*
X192558667Y-119575000D01*
X192841333Y-119575000D01*
X193259909Y-119491740D01*
X193734577Y-119174577D01*
X193894657Y-118935000D01*
X196012839Y-118935000D01*
X196100000Y-118952337D01*
X196187161Y-118935000D01*
X196187165Y-118935000D01*
X196445310Y-118883652D01*
X196738049Y-118688049D01*
X196787425Y-118614153D01*
X198466579Y-116935000D01*
X199025222Y-116935000D01*
X199626153Y-116686086D01*
X200086086Y-116226153D01*
X200335000Y-115625222D01*
X200335000Y-114974778D01*
X200086086Y-114373847D01*
X199626153Y-113913914D01*
X199025222Y-113665000D01*
X198374778Y-113665000D01*
X197773847Y-113913914D01*
X197313914Y-114373847D01*
X197065000Y-114974778D01*
X197065000Y-115625222D01*
X197125980Y-115772441D01*
X195733422Y-117165000D01*
X193774385Y-117165000D01*
X193734577Y-117105423D01*
X193585000Y-117005479D01*
X193585000Y-113444396D01*
X193916534Y-113112862D01*
X194135000Y-112585439D01*
X194135000Y-112014561D01*
X193916534Y-111487138D01*
X193512862Y-111083466D01*
X192985439Y-110865000D01*
X192414561Y-110865000D01*
X191887138Y-111083466D01*
X191555604Y-111415000D01*
X189737161Y-111415000D01*
X189650000Y-111397663D01*
X189562839Y-111415000D01*
X189562835Y-111415000D01*
X189304690Y-111466348D01*
X189085845Y-111612576D01*
X189085844Y-111612577D01*
X189011951Y-111661951D01*
X188962577Y-111735844D01*
X188893104Y-111805317D01*
X188423748Y-109771443D01*
X188420483Y-109759839D01*
X187620483Y-107359839D01*
X187615311Y-107346780D01*
X185373278Y-102489041D01*
X191308086Y-102489041D01*
X191547611Y-102995134D01*
X191962577Y-103371041D01*
X192350961Y-103531904D01*
X192573000Y-103409915D01*
X192573000Y-102267000D01*
X192827000Y-102267000D01*
X192827000Y-103409915D01*
X193049039Y-103531904D01*
X193437423Y-103371041D01*
X193852389Y-102995134D01*
X194091914Y-102489041D01*
X193970629Y-102267000D01*
X192827000Y-102267000D01*
X192573000Y-102267000D01*
X191429371Y-102267000D01*
X191308086Y-102489041D01*
X185373278Y-102489041D01*
X185215311Y-102146780D01*
X185189803Y-102110197D01*
X185148601Y-102082667D01*
X185100000Y-102073000D01*
X185051399Y-102082667D01*
X185010197Y-102110197D01*
X145110197Y-142010197D01*
X145087759Y-142040578D01*
X145073563Y-142088054D01*
X145078616Y-142137349D01*
X145102149Y-142180958D01*
X145140578Y-142212241D01*
X148540578Y-144012241D01*
X148550516Y-144016963D01*
X151150516Y-145116963D01*
X151169198Y-145123208D01*
X154369198Y-145923208D01*
X154379777Y-145925380D01*
X155019811Y-146028611D01*
X154683422Y-146365000D01*
X154454343Y-146365000D01*
X154000429Y-146553018D01*
X153653018Y-146900429D01*
X153465000Y-147354343D01*
X153465000Y-147845657D01*
X153535144Y-148015000D01*
X144216579Y-148015000D01*
X139307289Y-143105711D01*
X139952918Y-143105711D01*
X140921392Y-142704556D01*
X141662629Y-141963319D01*
X142063784Y-140994845D01*
X142063784Y-139946577D01*
X141662629Y-138978103D01*
X140921392Y-138236866D01*
X139952918Y-137835711D01*
X138904650Y-137835711D01*
X137936176Y-138236866D01*
X137385000Y-138788042D01*
X137385000Y-135416578D01*
X140666579Y-132135000D01*
X145912839Y-132135000D01*
X146000000Y-132152337D01*
X146087161Y-132135000D01*
X146087165Y-132135000D01*
X146345310Y-132083652D01*
X146638049Y-131888049D01*
X146687425Y-131814153D01*
X147914156Y-130587423D01*
X147988049Y-130538049D01*
X148069368Y-130416348D01*
X148134820Y-130318392D01*
X148183652Y-130245310D01*
X148235000Y-129987165D01*
X148235000Y-129987161D01*
X148252337Y-129900001D01*
X148235000Y-129812841D01*
X148235000Y-125616578D01*
X155164156Y-118687422D01*
X155238049Y-118638049D01*
X155293748Y-118554691D01*
X155400243Y-118395310D01*
X155433652Y-118345310D01*
X155485000Y-118087165D01*
X155485000Y-118087161D01*
X155502337Y-118000001D01*
X155485000Y-117912841D01*
X155485000Y-116279782D01*
X160368093Y-116279782D01*
X160639059Y-116871098D01*
X161115685Y-117313709D01*
X161604489Y-117516178D01*
X161862949Y-117397248D01*
X161862949Y-116021322D01*
X162116949Y-116021322D01*
X162116949Y-117397248D01*
X162375409Y-117516178D01*
X162966725Y-117245212D01*
X163409336Y-116768586D01*
X163611805Y-116279782D01*
X163492875Y-116021322D01*
X162116949Y-116021322D01*
X161862949Y-116021322D01*
X160487023Y-116021322D01*
X160368093Y-116279782D01*
X155485000Y-116279782D01*
X155485000Y-115508862D01*
X160368093Y-115508862D01*
X160487023Y-115767322D01*
X161862949Y-115767322D01*
X161862949Y-114391396D01*
X162116949Y-114391396D01*
X162116949Y-115767322D01*
X163492875Y-115767322D01*
X163611805Y-115508862D01*
X163340839Y-114917546D01*
X162864213Y-114474935D01*
X162375409Y-114272466D01*
X162116949Y-114391396D01*
X161862949Y-114391396D01*
X161604489Y-114272466D01*
X161013173Y-114543432D01*
X160570562Y-115020058D01*
X160368093Y-115508862D01*
X155485000Y-115508862D01*
X155485000Y-111011553D01*
X155546982Y-110949571D01*
X155735000Y-110495657D01*
X155735000Y-110004343D01*
X155546982Y-109550429D01*
X155199571Y-109203018D01*
X154745657Y-109015000D01*
X154254343Y-109015000D01*
X153800429Y-109203018D01*
X153453018Y-109550429D01*
X153265000Y-110004343D01*
X153265000Y-110495657D01*
X153453018Y-110949571D01*
X153715001Y-111211554D01*
X153715000Y-117633421D01*
X146785847Y-124562575D01*
X146711951Y-124611951D01*
X146516348Y-124904691D01*
X146465000Y-125162836D01*
X146465000Y-125162839D01*
X146447663Y-125250000D01*
X146465000Y-125337161D01*
X146465001Y-129533420D01*
X145633422Y-130365000D01*
X140387161Y-130365000D01*
X140300000Y-130347663D01*
X140212839Y-130365000D01*
X140212835Y-130365000D01*
X139954690Y-130416348D01*
X139735845Y-130562576D01*
X139735844Y-130562577D01*
X139661951Y-130611951D01*
X139612577Y-130685844D01*
X135935845Y-134362577D01*
X135861952Y-134411951D01*
X135812578Y-134485844D01*
X135812576Y-134485846D01*
X135666348Y-134704691D01*
X135597663Y-135050000D01*
X135615001Y-135137165D01*
X135615000Y-141462839D01*
X135597663Y-141550000D01*
X135615000Y-141637161D01*
X135615000Y-141637164D01*
X135646350Y-141794772D01*
X132869487Y-139017909D01*
X132902767Y-138937563D01*
X132902767Y-138399466D01*
X133440864Y-138399466D01*
X134005041Y-138165776D01*
X134436844Y-137733973D01*
X134670534Y-137169796D01*
X134670534Y-136559136D01*
X134436844Y-135994959D01*
X134005041Y-135563156D01*
X133440864Y-135329466D01*
X133350140Y-135329466D01*
X143469839Y-125209767D01*
X143469840Y-126917921D01*
X143013914Y-127373847D01*
X142765000Y-127974778D01*
X142765000Y-128625222D01*
X143013914Y-129226153D01*
X143473847Y-129686086D01*
X144074778Y-129935000D01*
X144725222Y-129935000D01*
X145326153Y-129686086D01*
X145786086Y-129226153D01*
X146035000Y-128625222D01*
X146035000Y-127974778D01*
X145786086Y-127373847D01*
X145326153Y-126913914D01*
X145239839Y-126878162D01*
X145239839Y-124586998D01*
X145389416Y-124487054D01*
X145706579Y-124012386D01*
X145817952Y-123452477D01*
X145719928Y-122959678D01*
X151057545Y-117622061D01*
X151253605Y-117703272D01*
X151824483Y-117703272D01*
X152351906Y-117484806D01*
X152755578Y-117081134D01*
X152974044Y-116553711D01*
X152974044Y-115982833D01*
X152755578Y-115455410D01*
X152351906Y-115051738D01*
X151824483Y-114833272D01*
X151253605Y-114833272D01*
X150726182Y-115051738D01*
X150322510Y-115455410D01*
X150104044Y-115982833D01*
X150104044Y-116424438D01*
X148472312Y-114792706D01*
X148963234Y-114816951D01*
X149490466Y-114628459D01*
X149561711Y-114385691D01*
X148753043Y-113577023D01*
X148738901Y-113591166D01*
X148559296Y-113411561D01*
X148573438Y-113397418D01*
X148932648Y-113397418D01*
X149741316Y-114206086D01*
X149984084Y-114134841D01*
X150172576Y-113607609D01*
X150144957Y-113048377D01*
X149984076Y-112660001D01*
X149740811Y-112589255D01*
X148932648Y-113397418D01*
X148573438Y-113397418D01*
X147764770Y-112588750D01*
X147522002Y-112659995D01*
X147333510Y-113187227D01*
X147357755Y-113678149D01*
X146088751Y-112409145D01*
X147944375Y-112409145D01*
X148753043Y-113217813D01*
X149561206Y-112409650D01*
X149490460Y-112166385D01*
X149102084Y-112005504D01*
X148542852Y-111977885D01*
X148015620Y-112166377D01*
X147944375Y-112409145D01*
X146088751Y-112409145D01*
X145714596Y-112034990D01*
X146205518Y-112059235D01*
X146732750Y-111870743D01*
X146803995Y-111627975D01*
X145995327Y-110819307D01*
X145981185Y-110833450D01*
X145801580Y-110653845D01*
X145815722Y-110639702D01*
X146174932Y-110639702D01*
X146983600Y-111448370D01*
X147226368Y-111377125D01*
X147414860Y-110849893D01*
X147387241Y-110290661D01*
X147226360Y-109902285D01*
X146983095Y-109831539D01*
X146174932Y-110639702D01*
X145815722Y-110639702D01*
X145007054Y-109831034D01*
X144764286Y-109902279D01*
X144575794Y-110429511D01*
X144600039Y-110920433D01*
X143331035Y-109651429D01*
X145186659Y-109651429D01*
X145995327Y-110460097D01*
X146803490Y-109651934D01*
X146732744Y-109408669D01*
X146344368Y-109247788D01*
X145785136Y-109220169D01*
X145257904Y-109408661D01*
X145186659Y-109651429D01*
X143331035Y-109651429D01*
X142489803Y-108810197D01*
X142448601Y-108782667D01*
X142400000Y-108773000D01*
X142351399Y-108782667D01*
X142310197Y-108810197D01*
X136710986Y-114409408D01*
X136435000Y-114133422D01*
X136435000Y-113904343D01*
X136246982Y-113450429D01*
X135899571Y-113103018D01*
X135445657Y-112915000D01*
X134954343Y-112915000D01*
X134500429Y-113103018D01*
X134153018Y-113450429D01*
X133965000Y-113904343D01*
X133965000Y-114395657D01*
X134153018Y-114849571D01*
X134500429Y-115196982D01*
X134954343Y-115385000D01*
X135183422Y-115385000D01*
X135459408Y-115660986D01*
X113205394Y-137915000D01*
X104961553Y-137915000D01*
X104799571Y-137753018D01*
X104345657Y-137565000D01*
X103854343Y-137565000D01*
X103400429Y-137753018D01*
X103053018Y-138100429D01*
X102865000Y-138554343D01*
X102865000Y-139045657D01*
X103053018Y-139499571D01*
X103400429Y-139846982D01*
X103854343Y-140035000D01*
X104345657Y-140035000D01*
X104799571Y-139846982D01*
X104961553Y-139685000D01*
X111435394Y-139685000D01*
X91800000Y-159320394D01*
X82279428Y-149799822D01*
X90472612Y-141574190D01*
X92712577Y-143814156D01*
X92761951Y-143888049D01*
X92835844Y-143937423D01*
X92835845Y-143937424D01*
X92938169Y-144005795D01*
X93054690Y-144083652D01*
X93312835Y-144135000D01*
X93312839Y-144135000D01*
X93400000Y-144152337D01*
X93487161Y-144135000D01*
X97712839Y-144135000D01*
X97800000Y-144152337D01*
X97887161Y-144135000D01*
X97887165Y-144135000D01*
X98145310Y-144083652D01*
X98438049Y-143888049D01*
X98487425Y-143814153D01*
X101864156Y-140437423D01*
X101938049Y-140388049D01*
X102133652Y-140095310D01*
X102185000Y-139837165D01*
X102185000Y-139837161D01*
X102202337Y-139750001D01*
X102185000Y-139662841D01*
X102185000Y-138137159D01*
X102202337Y-138049999D01*
X102185000Y-137962839D01*
X102185000Y-137962835D01*
X102133652Y-137704690D01*
X102020268Y-137535000D01*
X101987424Y-137485845D01*
X101987423Y-137485844D01*
X101938049Y-137411951D01*
X101864156Y-137362577D01*
X101393922Y-136892344D01*
X101455215Y-136584205D01*
X101365190Y-136131618D01*
X101577963Y-136207687D01*
X102137195Y-136180068D01*
X102525571Y-136019187D01*
X102596317Y-135775922D01*
X101788154Y-134967759D01*
X101774012Y-134981902D01*
X101594407Y-134802297D01*
X101608549Y-134788154D01*
X101967759Y-134788154D01*
X102775922Y-135596317D01*
X103019187Y-135525571D01*
X103180068Y-135137195D01*
X103207687Y-134577963D01*
X103019195Y-134050731D01*
X102776427Y-133979486D01*
X101967759Y-134788154D01*
X101608549Y-134788154D01*
X100800386Y-133979991D01*
X100557121Y-134050737D01*
X100396240Y-134439113D01*
X100368621Y-134998345D01*
X100444690Y-135211117D01*
X100133435Y-135149205D01*
X99850769Y-135149205D01*
X99432193Y-135232465D01*
X98957525Y-135549628D01*
X98640362Y-136024296D01*
X98528989Y-136584205D01*
X98611659Y-136999813D01*
X98337384Y-136945256D01*
X98054718Y-136945256D01*
X97636142Y-137028516D01*
X97161474Y-137345679D01*
X96844311Y-137820347D01*
X96732938Y-138380256D01*
X96815608Y-138795864D01*
X96541333Y-138741307D01*
X96258667Y-138741307D01*
X95840091Y-138824567D01*
X95365423Y-139141730D01*
X95048260Y-139616398D01*
X94936887Y-140176307D01*
X95048260Y-140736216D01*
X95365423Y-141210884D01*
X95840091Y-141528047D01*
X96258667Y-141611307D01*
X96541333Y-141611307D01*
X96959909Y-141528047D01*
X97434577Y-141210884D01*
X97751740Y-140736216D01*
X97863113Y-140176307D01*
X97780443Y-139760699D01*
X98054718Y-139815256D01*
X98337384Y-139815256D01*
X98755960Y-139731996D01*
X99230628Y-139414833D01*
X99547791Y-138940165D01*
X99659164Y-138380256D01*
X99576494Y-137964648D01*
X99850769Y-138019205D01*
X100017626Y-138019205D01*
X100415001Y-138416580D01*
X100415000Y-139383421D01*
X97433422Y-142365000D01*
X93766579Y-142365000D01*
X91721717Y-140320138D01*
X98215749Y-133800386D01*
X100979991Y-133800386D01*
X101788154Y-134608549D01*
X102596822Y-133799881D01*
X102525577Y-133557113D01*
X101998345Y-133368621D01*
X101439113Y-133396240D01*
X101050737Y-133557121D01*
X100979991Y-133800386D01*
X98215749Y-133800386D01*
X102065805Y-129935083D01*
X102223557Y-130269874D01*
X102645995Y-130653864D01*
X103046546Y-130819778D01*
X103273000Y-130698166D01*
X103273000Y-129527000D01*
X103527000Y-129527000D01*
X103527000Y-130698166D01*
X103753454Y-130819778D01*
X104269874Y-130576443D01*
X104653864Y-130154005D01*
X104819778Y-129753454D01*
X104698166Y-129527000D01*
X103527000Y-129527000D01*
X103273000Y-129527000D01*
X102472279Y-129527000D01*
X102725277Y-129273000D01*
X103093392Y-129273000D01*
X103206251Y-129385859D01*
X103385859Y-129206251D01*
X103273000Y-129093392D01*
X103273000Y-128723107D01*
X103527000Y-128468102D01*
X103527000Y-129273000D01*
X104698166Y-129273000D01*
X104819778Y-129046546D01*
X104576443Y-128530126D01*
X104154005Y-128146136D01*
X103937161Y-128056316D01*
X111714200Y-120248477D01*
X111970513Y-120299461D01*
X112253179Y-120299461D01*
X112671755Y-120216201D01*
X113146423Y-119899038D01*
X113463586Y-119424370D01*
X113574959Y-118864461D01*
X113560385Y-118791193D01*
X113848169Y-118503410D01*
X114049231Y-118503410D01*
X114134809Y-118486387D01*
X115815001Y-120166580D01*
X115815001Y-120196868D01*
X115773847Y-120213914D01*
X115313914Y-120673847D01*
X115065000Y-121274778D01*
X115065000Y-121883421D01*
X112235845Y-124712577D01*
X112161952Y-124761951D01*
X112112578Y-124835844D01*
X112112576Y-124835846D01*
X111966348Y-125054691D01*
X111897663Y-125400000D01*
X111915001Y-125487165D01*
X111915000Y-126584411D01*
X111897663Y-126671572D01*
X111915000Y-126758733D01*
X111915000Y-126758736D01*
X111966348Y-127016881D01*
X112161951Y-127309621D01*
X112235847Y-127358997D01*
X112417214Y-127540364D01*
X112417214Y-127703000D01*
X112122119Y-127703000D01*
X111608663Y-127915680D01*
X111215680Y-128308663D01*
X111003000Y-128822119D01*
X111003000Y-129117214D01*
X110707905Y-129117214D01*
X110194449Y-129329894D01*
X109801466Y-129722877D01*
X109588786Y-130236333D01*
X109588786Y-130364138D01*
X109175640Y-130364138D01*
X108574709Y-130613052D01*
X108114776Y-131072985D01*
X107865862Y-131673916D01*
X107865862Y-132324360D01*
X108114776Y-132925291D01*
X108574709Y-133385224D01*
X109175640Y-133634138D01*
X109826084Y-133634138D01*
X110427015Y-133385224D01*
X110757896Y-133054343D01*
X114765000Y-133054343D01*
X114765000Y-133545657D01*
X114953018Y-133999571D01*
X115300429Y-134346982D01*
X115754343Y-134535000D01*
X116245657Y-134535000D01*
X116699571Y-134346982D01*
X117046982Y-133999571D01*
X117235000Y-133545657D01*
X117235000Y-133316578D01*
X118416579Y-132135000D01*
X118645657Y-132135000D01*
X119099571Y-131946982D01*
X119446982Y-131599571D01*
X119635000Y-131145657D01*
X119635000Y-130654343D01*
X119446982Y-130200429D01*
X119099571Y-129853018D01*
X118645657Y-129665000D01*
X118154343Y-129665000D01*
X117700429Y-129853018D01*
X117353018Y-130200429D01*
X117165000Y-130654343D01*
X117165000Y-130883421D01*
X115983422Y-132065000D01*
X115754343Y-132065000D01*
X115300429Y-132253018D01*
X114953018Y-132600429D01*
X114765000Y-133054343D01*
X110757896Y-133054343D01*
X110886948Y-132925291D01*
X111135862Y-132324360D01*
X111135862Y-131911214D01*
X111263667Y-131911214D01*
X111777123Y-131698534D01*
X112170106Y-131305551D01*
X112382786Y-130792095D01*
X112382786Y-130497000D01*
X112677881Y-130497000D01*
X113191337Y-130284320D01*
X113584320Y-129891337D01*
X113797000Y-129377881D01*
X113797000Y-129082786D01*
X114092095Y-129082786D01*
X114605551Y-128870106D01*
X114998534Y-128477123D01*
X115211214Y-127963667D01*
X115211214Y-127835862D01*
X115624360Y-127835862D01*
X116225291Y-127586948D01*
X116685224Y-127127015D01*
X116934138Y-126526084D01*
X116934138Y-125914561D01*
X118865000Y-125914561D01*
X118865000Y-126485439D01*
X119083466Y-127012862D01*
X119487138Y-127416534D01*
X120014561Y-127635000D01*
X120585439Y-127635000D01*
X121112862Y-127416534D01*
X121516534Y-127012862D01*
X121735000Y-126485439D01*
X121735000Y-125914561D01*
X121516534Y-125387138D01*
X121112862Y-124983466D01*
X120585439Y-124765000D01*
X120014561Y-124765000D01*
X119487138Y-124983466D01*
X119083466Y-125387138D01*
X118865000Y-125914561D01*
X116934138Y-125914561D01*
X116934138Y-125875640D01*
X116685224Y-125274709D01*
X116225291Y-124814776D01*
X115624360Y-124565862D01*
X114973916Y-124565862D01*
X114823350Y-124628229D01*
X116262914Y-123188664D01*
X116374778Y-123235000D01*
X117025222Y-123235000D01*
X117626153Y-122986086D01*
X118086086Y-122526153D01*
X118335000Y-121925222D01*
X118335000Y-121274778D01*
X118086086Y-120673847D01*
X117626153Y-120213914D01*
X117585000Y-120196868D01*
X117585000Y-119887161D01*
X117602337Y-119800000D01*
X117585000Y-119712839D01*
X117585000Y-119712835D01*
X117533652Y-119454690D01*
X117460566Y-119345309D01*
X117387424Y-119235845D01*
X117387423Y-119235844D01*
X117338049Y-119161951D01*
X117264156Y-119112577D01*
X115345955Y-117194376D01*
X115371011Y-117068410D01*
X115289564Y-116658953D01*
X115294476Y-116654022D01*
X115562616Y-116707359D01*
X115845282Y-116707359D01*
X116263858Y-116624099D01*
X116738526Y-116306936D01*
X117055689Y-115832268D01*
X117167062Y-115272359D01*
X117084436Y-114856973D01*
X117084614Y-114856794D01*
X117358667Y-114911307D01*
X117641333Y-114911307D01*
X118059909Y-114828047D01*
X118534577Y-114510884D01*
X118851740Y-114036216D01*
X118963113Y-113476307D01*
X118880443Y-113060699D01*
X119154718Y-113115256D01*
X119437384Y-113115256D01*
X119855960Y-113031996D01*
X120330628Y-112714833D01*
X120647791Y-112240165D01*
X120759164Y-111680256D01*
X120676494Y-111264648D01*
X120950769Y-111319205D01*
X121233435Y-111319205D01*
X121261954Y-111313532D01*
X126599205Y-116650784D01*
X126599206Y-117881273D01*
X126449628Y-117981218D01*
X126132465Y-118455886D01*
X126021092Y-119015795D01*
X126132465Y-119575704D01*
X126449628Y-120050372D01*
X126924296Y-120367535D01*
X127342872Y-120450795D01*
X127625538Y-120450795D01*
X128044114Y-120367535D01*
X128518782Y-120050372D01*
X128835945Y-119575704D01*
X128947318Y-119015795D01*
X128835945Y-118455886D01*
X128518782Y-117981218D01*
X128369205Y-117881274D01*
X128369205Y-116371366D01*
X128386542Y-116284205D01*
X128369205Y-116197044D01*
X128369205Y-116197040D01*
X128317857Y-115938895D01*
X128203215Y-115767322D01*
X128171629Y-115720050D01*
X128171628Y-115720049D01*
X128122254Y-115646156D01*
X128048361Y-115596782D01*
X122518809Y-110067231D01*
X122555215Y-109884205D01*
X122472545Y-109468597D01*
X122746821Y-109523154D01*
X123029487Y-109523154D01*
X123314820Y-109466398D01*
X126665000Y-112816579D01*
X126665000Y-113045657D01*
X126853018Y-113499571D01*
X127200429Y-113846982D01*
X127654343Y-114035000D01*
X128145657Y-114035000D01*
X128599571Y-113846982D01*
X128946982Y-113499571D01*
X129135000Y-113045657D01*
X129135000Y-112554343D01*
X128946982Y-112100429D01*
X128599571Y-111753018D01*
X128145657Y-111565000D01*
X127916579Y-111565000D01*
X124329301Y-107977723D01*
X124263924Y-107649051D01*
X125654015Y-106253454D01*
X134780222Y-106253454D01*
X135023557Y-106769874D01*
X135445995Y-107153864D01*
X135846546Y-107319778D01*
X136073000Y-107198166D01*
X136073000Y-106027000D01*
X136327000Y-106027000D01*
X136327000Y-107198166D01*
X136553454Y-107319778D01*
X137069874Y-107076443D01*
X137453864Y-106654005D01*
X137619778Y-106253454D01*
X137498166Y-106027000D01*
X136327000Y-106027000D01*
X136073000Y-106027000D01*
X134901834Y-106027000D01*
X134780222Y-106253454D01*
X125654015Y-106253454D01*
X128051182Y-103846794D01*
X132997233Y-103846794D01*
X132997233Y-104417672D01*
X133215699Y-104945095D01*
X133619371Y-105348767D01*
X134146794Y-105567233D01*
X134717672Y-105567233D01*
X134782833Y-105540242D01*
X134780222Y-105546546D01*
X134901834Y-105773000D01*
X135893392Y-105773000D01*
X136006251Y-105885859D01*
X136185859Y-105706251D01*
X136073000Y-105593392D01*
X136073000Y-104601834D01*
X136327000Y-104601834D01*
X136327000Y-105773000D01*
X137498166Y-105773000D01*
X137619778Y-105546546D01*
X137376443Y-105030126D01*
X136954005Y-104646136D01*
X136553454Y-104480222D01*
X136327000Y-104601834D01*
X136073000Y-104601834D01*
X135846546Y-104480222D01*
X135840058Y-104483279D01*
X135867233Y-104417672D01*
X135867233Y-103846794D01*
X135648767Y-103319371D01*
X135245095Y-102915699D01*
X134717672Y-102697233D01*
X134146794Y-102697233D01*
X133619371Y-102915699D01*
X133215699Y-103319371D01*
X132997233Y-103846794D01*
X128051182Y-103846794D01*
X132689980Y-99189625D01*
X132717429Y-99148369D01*
X132727000Y-99099749D01*
X132717236Y-99051167D01*
X132689803Y-99010197D01*
X126989803Y-93310197D01*
X126948601Y-93282667D01*
X126900000Y-93273000D01*
X126851399Y-93282667D01*
X126810286Y-93310109D01*
X123135000Y-96978132D01*
X123135000Y-88655533D01*
X123297765Y-88623157D01*
X123507809Y-88482809D01*
X123648157Y-88272765D01*
X123697440Y-88025000D01*
X123697440Y-86975000D01*
X123648157Y-86727235D01*
X123617843Y-86681867D01*
X123707725Y-86230000D01*
X123617695Y-85777391D01*
X123495826Y-85595000D01*
X123617695Y-85412609D01*
X123707725Y-84960000D01*
X123617695Y-84507391D01*
X123361313Y-84123687D01*
X122977609Y-83867305D01*
X122639246Y-83800000D01*
X121960754Y-83800000D01*
X121622391Y-83867305D01*
X121238687Y-84123687D01*
X120982305Y-84507391D01*
X120892275Y-84960000D01*
X120982305Y-85412609D01*
X121104174Y-85595000D01*
X120982305Y-85777391D01*
X120892275Y-86230000D01*
X120982157Y-86681867D01*
X120951843Y-86727235D01*
X120902560Y-86975000D01*
X120902560Y-88025000D01*
X120951843Y-88272765D01*
X121092191Y-88482809D01*
X121302235Y-88623157D01*
X121365001Y-88635642D01*
X121365000Y-97265000D01*
X120974778Y-97265000D01*
X120373847Y-97513914D01*
X119913914Y-97973847D01*
X119665000Y-98574778D01*
X119665000Y-99225222D01*
X119913914Y-99826153D01*
X120097445Y-100009684D01*
X118475456Y-101628467D01*
X117957809Y-101110820D01*
X117747765Y-100970472D01*
X117500000Y-100921189D01*
X117252235Y-100970472D01*
X117042191Y-101110820D01*
X115910820Y-102242191D01*
X115770472Y-102452235D01*
X115721189Y-102700000D01*
X115770472Y-102947765D01*
X115846304Y-103061254D01*
X115845282Y-103061051D01*
X115562616Y-103061051D01*
X115144040Y-103144311D01*
X114669372Y-103461474D01*
X114352209Y-103936142D01*
X114240836Y-104496051D01*
X114323506Y-104911659D01*
X114049231Y-104857102D01*
X113766565Y-104857102D01*
X113731460Y-104864085D01*
X111703221Y-102835847D01*
X111653845Y-102761951D01*
X111361106Y-102566348D01*
X111102961Y-102515000D01*
X111102957Y-102515000D01*
X111015796Y-102497663D01*
X110928635Y-102515000D01*
X107961553Y-102515000D01*
X107799571Y-102353018D01*
X107345657Y-102165000D01*
X106854343Y-102165000D01*
X106400429Y-102353018D01*
X106053018Y-102700429D01*
X105865000Y-103154343D01*
X105865000Y-103645657D01*
X106053018Y-104099571D01*
X106215000Y-104261553D01*
X106215001Y-106712835D01*
X106197663Y-106800000D01*
X106266348Y-107145309D01*
X106412576Y-107364154D01*
X106412578Y-107364156D01*
X106461952Y-107438049D01*
X106535845Y-107487423D01*
X108865946Y-109817524D01*
X108852682Y-109884205D01*
X108935352Y-110299813D01*
X108661077Y-110245256D01*
X108378411Y-110245256D01*
X108226960Y-110275381D01*
X106702767Y-108751189D01*
X106702767Y-108646794D01*
X106484301Y-108119371D01*
X106080629Y-107715699D01*
X105553206Y-107497233D01*
X104982328Y-107497233D01*
X104454905Y-107715699D01*
X104051233Y-108119371D01*
X103832767Y-108646794D01*
X103832767Y-109217672D01*
X103866233Y-109298466D01*
X103785439Y-109265000D01*
X103214561Y-109265000D01*
X102687138Y-109483466D01*
X102283466Y-109887138D01*
X102065000Y-110414561D01*
X102065000Y-110985439D01*
X102283466Y-111512862D01*
X102687138Y-111916534D01*
X103214561Y-112135000D01*
X103785439Y-112135000D01*
X103854723Y-112106302D01*
X105269482Y-113521061D01*
X105371953Y-114036216D01*
X105640473Y-114438084D01*
X104193969Y-115881730D01*
X103926153Y-115613914D01*
X103325222Y-115365000D01*
X102674778Y-115365000D01*
X102073847Y-115613914D01*
X101613914Y-116073847D01*
X101365000Y-116674778D01*
X101365000Y-117325222D01*
X101613914Y-117926153D01*
X101879443Y-118191682D01*
X100437480Y-119630795D01*
X90518726Y-119630795D01*
X90418782Y-119481218D01*
X89944114Y-119164055D01*
X89525538Y-119080795D01*
X89242872Y-119080795D01*
X88824296Y-119164055D01*
X88349628Y-119481218D01*
X88032465Y-119955886D01*
X87921092Y-120515795D01*
X88032465Y-121075704D01*
X88349628Y-121550372D01*
X88824296Y-121867535D01*
X89242872Y-121950795D01*
X89525538Y-121950795D01*
X89944114Y-121867535D01*
X90418782Y-121550372D01*
X90518726Y-121400795D01*
X98663975Y-121400795D01*
X87735000Y-132308171D01*
X87735000Y-128516578D01*
X89116579Y-127135000D01*
X89345657Y-127135000D01*
X89799571Y-126946982D01*
X90146982Y-126599571D01*
X90335000Y-126145657D01*
X90335000Y-125654343D01*
X90146982Y-125200429D01*
X89799571Y-124853018D01*
X89345657Y-124665000D01*
X88854343Y-124665000D01*
X88400429Y-124853018D01*
X88053018Y-125200429D01*
X87865000Y-125654343D01*
X87865000Y-125883421D01*
X86285845Y-127462577D01*
X86211952Y-127511951D01*
X86162578Y-127585844D01*
X86162576Y-127585846D01*
X86016348Y-127804691D01*
X85947663Y-128150000D01*
X85965001Y-128237165D01*
X85965000Y-134074672D01*
X76300089Y-143720483D01*
X66779517Y-134199911D01*
X73551430Y-127414561D01*
X80765000Y-127414561D01*
X80765000Y-127985439D01*
X80983466Y-128512862D01*
X81387138Y-128916534D01*
X81914561Y-129135000D01*
X82485439Y-129135000D01*
X83012862Y-128916534D01*
X83416534Y-128512862D01*
X83635000Y-127985439D01*
X83635000Y-127414561D01*
X83416534Y-126887138D01*
X83085000Y-126555604D01*
X83085000Y-123516578D01*
X88766579Y-117835000D01*
X92188447Y-117835000D01*
X92350429Y-117996982D01*
X92804343Y-118185000D01*
X93295657Y-118185000D01*
X93749571Y-117996982D01*
X94096982Y-117649571D01*
X94285000Y-117195657D01*
X94285000Y-116774778D01*
X95465000Y-116774778D01*
X95465000Y-117425222D01*
X95713914Y-118026153D01*
X96173847Y-118486086D01*
X96774778Y-118735000D01*
X97425222Y-118735000D01*
X98026153Y-118486086D01*
X98486086Y-118026153D01*
X98735000Y-117425222D01*
X98735000Y-116774778D01*
X98486086Y-116173847D01*
X98026153Y-115713914D01*
X97425222Y-115465000D01*
X96774778Y-115465000D01*
X96173847Y-115713914D01*
X95713914Y-116173847D01*
X95465000Y-116774778D01*
X94285000Y-116774778D01*
X94285000Y-116704343D01*
X94096982Y-116250429D01*
X93749571Y-115903018D01*
X93295657Y-115715000D01*
X92804343Y-115715000D01*
X92350429Y-115903018D01*
X92188447Y-116065000D01*
X88487159Y-116065000D01*
X88399999Y-116047663D01*
X88312839Y-116065000D01*
X88312835Y-116065000D01*
X88054690Y-116116348D01*
X87968637Y-116173847D01*
X87835845Y-116262576D01*
X87835844Y-116262577D01*
X87761951Y-116311951D01*
X87712577Y-116385844D01*
X81635845Y-122462577D01*
X81561952Y-122511951D01*
X81512578Y-122585844D01*
X81512576Y-122585846D01*
X81366348Y-122804691D01*
X81297663Y-123150000D01*
X81315001Y-123237165D01*
X81315000Y-126555604D01*
X80983466Y-126887138D01*
X80765000Y-127414561D01*
X73551430Y-127414561D01*
X88890026Y-112045532D01*
X89059909Y-112011740D01*
X89534577Y-111694577D01*
X89851740Y-111219909D01*
X89886023Y-111047559D01*
X90472418Y-110460000D01*
X93536887Y-110460000D01*
X93648260Y-111019909D01*
X93965423Y-111494577D01*
X94440091Y-111811740D01*
X94858667Y-111895000D01*
X95141333Y-111895000D01*
X95559909Y-111811740D01*
X96034577Y-111494577D01*
X96351740Y-111019909D01*
X96463113Y-110460000D01*
X96351740Y-109900091D01*
X96034577Y-109425423D01*
X95559909Y-109108260D01*
X95141333Y-109025000D01*
X94858667Y-109025000D01*
X94440091Y-109108260D01*
X93965423Y-109425423D01*
X93648260Y-109900091D01*
X93536887Y-110460000D01*
X90472418Y-110460000D01*
X102365001Y-98543821D01*
X102365000Y-105888447D01*
X102203018Y-106050429D01*
X102015000Y-106504343D01*
X102015000Y-106995657D01*
X102203018Y-107449571D01*
X102550429Y-107796982D01*
X103004343Y-107985000D01*
X103495657Y-107985000D01*
X103949571Y-107796982D01*
X104296982Y-107449571D01*
X104485000Y-106995657D01*
X104485000Y-106504343D01*
X104296982Y-106050429D01*
X104135000Y-105888447D01*
X104135000Y-101021221D01*
X106947989Y-101021221D01*
X107191324Y-101537641D01*
X107613762Y-101921631D01*
X108014313Y-102087545D01*
X108240767Y-101965933D01*
X108240767Y-100794767D01*
X108494767Y-100794767D01*
X108494767Y-101965933D01*
X108721221Y-102087545D01*
X109237641Y-101844210D01*
X109621631Y-101421772D01*
X109787545Y-101021221D01*
X109665933Y-100794767D01*
X108494767Y-100794767D01*
X108240767Y-100794767D01*
X107069601Y-100794767D01*
X106947989Y-101021221D01*
X104135000Y-101021221D01*
X104135000Y-98614561D01*
X105165000Y-98614561D01*
X105165000Y-99185439D01*
X105383466Y-99712862D01*
X105787138Y-100116534D01*
X106314561Y-100335000D01*
X106885439Y-100335000D01*
X106950600Y-100308009D01*
X106947989Y-100314313D01*
X107069601Y-100540767D01*
X108061159Y-100540767D01*
X108174018Y-100653626D01*
X108353626Y-100474018D01*
X108240767Y-100361159D01*
X108240767Y-99369601D01*
X108494767Y-99369601D01*
X108494767Y-100540767D01*
X109665933Y-100540767D01*
X109787545Y-100314313D01*
X109544210Y-99797893D01*
X109121772Y-99413903D01*
X108721221Y-99247989D01*
X108494767Y-99369601D01*
X108240767Y-99369601D01*
X108014313Y-99247989D01*
X108007825Y-99251046D01*
X108035000Y-99185439D01*
X108035000Y-98614561D01*
X107816534Y-98087138D01*
X107412862Y-97683466D01*
X106885439Y-97465000D01*
X106314561Y-97465000D01*
X105787138Y-97683466D01*
X105383466Y-98087138D01*
X105165000Y-98614561D01*
X104135000Y-98614561D01*
X104135000Y-97266578D01*
X106198270Y-95203309D01*
X106274778Y-95235000D01*
X106925222Y-95235000D01*
X107526153Y-94986086D01*
X107986086Y-94526153D01*
X108003132Y-94485000D01*
X110409270Y-94485000D01*
X110514813Y-94642957D01*
X110989481Y-94960120D01*
X111408057Y-95043380D01*
X111690723Y-95043380D01*
X112109299Y-94960120D01*
X112583967Y-94642957D01*
X112668985Y-94515718D01*
X115662386Y-94515718D01*
X115747404Y-94642957D01*
X116222072Y-94960120D01*
X116640648Y-95043380D01*
X116923314Y-95043380D01*
X117341890Y-94960120D01*
X117816558Y-94642957D01*
X118133721Y-94168289D01*
X118245094Y-93608380D01*
X118133721Y-93048471D01*
X117816558Y-92573803D01*
X117341890Y-92256640D01*
X116923314Y-92173380D01*
X116640648Y-92173380D01*
X116222072Y-92256640D01*
X115747404Y-92573803D01*
X115632534Y-92745718D01*
X112698837Y-92745718D01*
X112583967Y-92573803D01*
X112109299Y-92256640D01*
X111690723Y-92173380D01*
X111408057Y-92173380D01*
X110989481Y-92256640D01*
X110514813Y-92573803D01*
X110420468Y-92715000D01*
X108182280Y-92715000D01*
X116144092Y-84737390D01*
X116496542Y-84883380D01*
X117067420Y-84883380D01*
X117594843Y-84664914D01*
X117998515Y-84261242D01*
X118216981Y-83733819D01*
X118216981Y-83162941D01*
X117998515Y-82635518D01*
X117594843Y-82231846D01*
X117067420Y-82013380D01*
X116496542Y-82013380D01*
X115969119Y-82231846D01*
X115940286Y-82260680D01*
X109589803Y-75910197D01*
X109548601Y-75882667D01*
X109500000Y-75873000D01*
X109451399Y-75882667D01*
X109410197Y-75910197D01*
X93405394Y-91915000D01*
X86102113Y-91915000D01*
X82333690Y-88146577D01*
X85193784Y-88146577D01*
X85193784Y-89194845D01*
X85594939Y-90163319D01*
X86336176Y-90904556D01*
X87304650Y-91305711D01*
X88352918Y-91305711D01*
X89321392Y-90904556D01*
X90062629Y-90163319D01*
X90463784Y-89194845D01*
X90463784Y-88146577D01*
X90062629Y-87178103D01*
X89321392Y-86436866D01*
X88352918Y-86035711D01*
X87304650Y-86035711D01*
X86336176Y-86436866D01*
X85594939Y-87178103D01*
X85193784Y-88146577D01*
X82333690Y-88146577D01*
X81302767Y-87115655D01*
X81302767Y-86599466D01*
X81840864Y-86599466D01*
X82405041Y-86365776D01*
X82836844Y-85933973D01*
X83070534Y-85369796D01*
X83070534Y-84759136D01*
X82836844Y-84194959D01*
X82405041Y-83763156D01*
X81840864Y-83529466D01*
X81230204Y-83529466D01*
X80666027Y-83763156D01*
X80234224Y-84194959D01*
X80000534Y-84759136D01*
X80000534Y-85297233D01*
X79462437Y-85297233D01*
X78898260Y-85530923D01*
X78466457Y-85962726D01*
X78232767Y-86526903D01*
X78232767Y-87065000D01*
X77694670Y-87065000D01*
X77130493Y-87298690D01*
X76698690Y-87730493D01*
X76465000Y-88294670D01*
X76465000Y-88905330D01*
X76698690Y-89469507D01*
X77130493Y-89901310D01*
X77694670Y-90135000D01*
X78305330Y-90135000D01*
X78869507Y-89901310D01*
X79301310Y-89469507D01*
X79535000Y-88905330D01*
X79535000Y-88367233D01*
X80051189Y-88367233D01*
X85048111Y-93364156D01*
X85097485Y-93438049D01*
X85171378Y-93487423D01*
X85171379Y-93487424D01*
X85265032Y-93550001D01*
X85390224Y-93633652D01*
X85648369Y-93685000D01*
X85648372Y-93685000D01*
X85735533Y-93702337D01*
X85822694Y-93685000D01*
X91635394Y-93685000D01*
X84400000Y-100920394D01*
X80955350Y-97475744D01*
X81082111Y-97528250D01*
X82130379Y-97528250D01*
X83098853Y-97127095D01*
X83840090Y-96385858D01*
X84241245Y-95417384D01*
X84241245Y-94369116D01*
X83840090Y-93400642D01*
X83098853Y-92659405D01*
X82130379Y-92258250D01*
X81082111Y-92258250D01*
X80113637Y-92659405D01*
X79372400Y-93400642D01*
X78971245Y-94369116D01*
X78971245Y-95417384D01*
X79007695Y-95505383D01*
X76798498Y-93119449D01*
X75005271Y-90628856D01*
X73110722Y-87637463D01*
X71315668Y-84047355D01*
X69919712Y-80657178D01*
X68823207Y-77068615D01*
X68025677Y-73180655D01*
X67726655Y-70290111D01*
X67627000Y-68396669D01*
X67627000Y-66592078D01*
X80473247Y-66592078D01*
X80473281Y-66608448D01*
X80673281Y-69608448D01*
X80674114Y-69616785D01*
X81074114Y-72616785D01*
X81077573Y-72633773D01*
X81877573Y-75533773D01*
X81880906Y-75544109D01*
X82880906Y-78244109D01*
X82886408Y-78256796D01*
X84286408Y-81056796D01*
X84288982Y-81061677D01*
X84788982Y-81961677D01*
X84810197Y-81989803D01*
X84851399Y-82017333D01*
X84900000Y-82027000D01*
X84948601Y-82017333D01*
X84989803Y-81989803D01*
X93215000Y-73764606D01*
X93215000Y-82138447D01*
X93053018Y-82300429D01*
X92865000Y-82754343D01*
X92865000Y-83245657D01*
X93053018Y-83699571D01*
X93400429Y-84046982D01*
X93854343Y-84235000D01*
X94345657Y-84235000D01*
X94799571Y-84046982D01*
X95146982Y-83699571D01*
X95269877Y-83402877D01*
X95545995Y-83653864D01*
X95946546Y-83819778D01*
X96173000Y-83698166D01*
X96173000Y-82527000D01*
X96427000Y-82527000D01*
X96427000Y-83698166D01*
X96653454Y-83819778D01*
X97169874Y-83576443D01*
X97553864Y-83154005D01*
X97719778Y-82753454D01*
X97598166Y-82527000D01*
X96427000Y-82527000D01*
X96173000Y-82527000D01*
X95240831Y-82527000D01*
X95146982Y-82300429D01*
X95119553Y-82273000D01*
X96173000Y-82273000D01*
X96173000Y-81101834D01*
X96427000Y-81101834D01*
X96427000Y-82273000D01*
X97598166Y-82273000D01*
X97719778Y-82046546D01*
X97476443Y-81530126D01*
X97054005Y-81146136D01*
X96653454Y-80980222D01*
X96427000Y-81101834D01*
X96173000Y-81101834D01*
X95946546Y-80980222D01*
X95430126Y-81223557D01*
X95046136Y-81645995D01*
X94985000Y-81793590D01*
X94985000Y-78707745D01*
X102021861Y-78707745D01*
X102095995Y-78953864D01*
X102633223Y-79146965D01*
X103203454Y-79119778D01*
X103604005Y-78953864D01*
X103678139Y-78707745D01*
X102850000Y-77879605D01*
X102021861Y-78707745D01*
X94985000Y-78707745D01*
X94985000Y-77483223D01*
X101403035Y-77483223D01*
X101430222Y-78053454D01*
X101596136Y-78454005D01*
X101842255Y-78528139D01*
X102670395Y-77700000D01*
X103029605Y-77700000D01*
X103857745Y-78528139D01*
X104103864Y-78454005D01*
X104296965Y-77916777D01*
X104269778Y-77346546D01*
X104103864Y-76945995D01*
X103857745Y-76871861D01*
X103029605Y-77700000D01*
X102670395Y-77700000D01*
X101842255Y-76871861D01*
X101596136Y-76945995D01*
X101403035Y-77483223D01*
X94985000Y-77483223D01*
X94985000Y-76692255D01*
X102021861Y-76692255D01*
X102850000Y-77520395D01*
X103678139Y-76692255D01*
X103604005Y-76446136D01*
X103066777Y-76253035D01*
X102496546Y-76280222D01*
X102095995Y-76446136D01*
X102021861Y-76692255D01*
X94985000Y-76692255D01*
X94985000Y-71994606D01*
X99439606Y-67540000D01*
X101386887Y-67540000D01*
X101498260Y-68099909D01*
X101815423Y-68574577D01*
X102290091Y-68891740D01*
X102708667Y-68975000D01*
X102991333Y-68975000D01*
X103409909Y-68891740D01*
X103884577Y-68574577D01*
X104201679Y-68100000D01*
X108952560Y-68100000D01*
X108952560Y-69900000D01*
X109001843Y-70147765D01*
X109142191Y-70357809D01*
X109352235Y-70498157D01*
X109600000Y-70547440D01*
X111400000Y-70547440D01*
X111647765Y-70498157D01*
X111857809Y-70357809D01*
X111998157Y-70147765D01*
X112047440Y-69900000D01*
X112047440Y-68100000D01*
X111998157Y-67852235D01*
X111857809Y-67642191D01*
X111647765Y-67501843D01*
X111632092Y-67498725D01*
X111801310Y-67329507D01*
X112035000Y-66765330D01*
X112035000Y-66154670D01*
X111801310Y-65590493D01*
X111369507Y-65158690D01*
X110805330Y-64925000D01*
X110194670Y-64925000D01*
X109814037Y-65082664D01*
X109644691Y-65116348D01*
X109351951Y-65311951D01*
X109156348Y-65604691D01*
X109122664Y-65774037D01*
X108965000Y-66154670D01*
X108965000Y-66765330D01*
X109198690Y-67329507D01*
X109367908Y-67498725D01*
X109352235Y-67501843D01*
X109142191Y-67642191D01*
X109001843Y-67852235D01*
X108952560Y-68100000D01*
X104201679Y-68100000D01*
X104201740Y-68099909D01*
X104313113Y-67540000D01*
X104201740Y-66980091D01*
X103884577Y-66505423D01*
X103409909Y-66188260D01*
X102991333Y-66105000D01*
X102708667Y-66105000D01*
X102290091Y-66188260D01*
X101815423Y-66505423D01*
X101498260Y-66980091D01*
X101386887Y-67540000D01*
X99439606Y-67540000D01*
X108014014Y-58965592D01*
X108684295Y-59635873D01*
X108661565Y-59658603D01*
X108521217Y-59868647D01*
X108471934Y-60116412D01*
X108521217Y-60364177D01*
X108661565Y-60574221D01*
X110075779Y-61988435D01*
X110285823Y-62128783D01*
X110533588Y-62178066D01*
X110781353Y-62128783D01*
X110991397Y-61988435D01*
X112338435Y-60641397D01*
X112478783Y-60431353D01*
X112528066Y-60183588D01*
X112486560Y-59974922D01*
X112949050Y-59882927D01*
X113474161Y-59532059D01*
X113825029Y-59006948D01*
X113948238Y-58387536D01*
X113900960Y-58149855D01*
X114452054Y-58143866D01*
X114953063Y-57946333D01*
X115042166Y-57687568D01*
X114092102Y-56737503D01*
X114077960Y-56751646D01*
X113898355Y-56572041D01*
X113912497Y-56557898D01*
X114271707Y-56557898D01*
X115221772Y-57507962D01*
X115480537Y-57418859D01*
X115678070Y-56917850D01*
X115684796Y-56298936D01*
X115454162Y-55724561D01*
X115189936Y-55639669D01*
X114271707Y-56557898D01*
X113912497Y-56557898D01*
X112962432Y-55607834D01*
X112703667Y-55696937D01*
X112506134Y-56197946D01*
X112500145Y-56749040D01*
X112262463Y-56701762D01*
X111643052Y-56824971D01*
X111117940Y-57175838D01*
X110767073Y-57700950D01*
X110675078Y-58163440D01*
X110466412Y-58121934D01*
X110218647Y-58171217D01*
X110008603Y-58311565D01*
X109935873Y-58384295D01*
X109385000Y-57833422D01*
X109385000Y-57594606D01*
X111551378Y-55428228D01*
X113142038Y-55428228D01*
X114092102Y-56378293D01*
X115010331Y-55460064D01*
X114925439Y-55195838D01*
X114351064Y-54965204D01*
X113732150Y-54971930D01*
X113231141Y-55169463D01*
X113142038Y-55428228D01*
X111551378Y-55428228D01*
X124074451Y-42905155D01*
X127736216Y-42905155D01*
X127736216Y-43953423D01*
X128137371Y-44921897D01*
X128878608Y-45663134D01*
X129847082Y-46064289D01*
X130895350Y-46064289D01*
X131863824Y-45663134D01*
X132605061Y-44921897D01*
X133006216Y-43953423D01*
X133006216Y-42905155D01*
X132605061Y-41936681D01*
X131863824Y-41195444D01*
X130895350Y-40794289D01*
X129847082Y-40794289D01*
X128878608Y-41195444D01*
X128137371Y-41936681D01*
X127736216Y-42905155D01*
X124074451Y-42905155D01*
X124889803Y-42089803D01*
X124910267Y-42063010D01*
X124925986Y-42016016D01*
X124922525Y-41966584D01*
X124900411Y-41922239D01*
X124863010Y-41889733D01*
X123463010Y-41089733D01*
X123454076Y-41085088D01*
X121754076Y-40285088D01*
X121750638Y-40283532D01*
X119450638Y-39283532D01*
X119435409Y-39278036D01*
X116335409Y-38378036D01*
X116320879Y-38374728D01*
X114941359Y-38144808D01*
X114935000Y-38112839D01*
X114935000Y-38112835D01*
X114883652Y-37854690D01*
X114800927Y-37730884D01*
X114737424Y-37635845D01*
X114737423Y-37635844D01*
X114688049Y-37561951D01*
X114614156Y-37512577D01*
X111937425Y-34835847D01*
X111888049Y-34761951D01*
X111595310Y-34566348D01*
X111337165Y-34515000D01*
X111337161Y-34515000D01*
X111250000Y-34497663D01*
X111162839Y-34515000D01*
X108303132Y-34515000D01*
X108286086Y-34473847D01*
X107826153Y-34013914D01*
X107225222Y-33765000D01*
X106574778Y-33765000D01*
X105973847Y-34013914D01*
X105513914Y-34473847D01*
X105265000Y-35074778D01*
X105265000Y-35725222D01*
X105513914Y-36326153D01*
X105973847Y-36786086D01*
X106574778Y-37035000D01*
X107225222Y-37035000D01*
X107826153Y-36786086D01*
X108286086Y-36326153D01*
X108303132Y-36285000D01*
X110883422Y-36285000D01*
X112375060Y-37776639D01*
X110413068Y-37573674D01*
X110396033Y-37573062D01*
X107196033Y-37673062D01*
X107183215Y-37674114D01*
X104183215Y-38074114D01*
X104171142Y-38076322D01*
X101171142Y-38776322D01*
X101156983Y-38780507D01*
X98656983Y-39680507D01*
X98646294Y-39684915D01*
X95646294Y-41084915D01*
X95633025Y-41092096D01*
X92733025Y-42892096D01*
X92720664Y-42900830D01*
X90720664Y-44500830D01*
X90712656Y-44507804D01*
X88812656Y-46307804D01*
X88805602Y-46315041D01*
X87005602Y-48315041D01*
X86999117Y-48322854D01*
X85699117Y-50022854D01*
X85691633Y-50033776D01*
X84591633Y-51833776D01*
X84588721Y-51838796D01*
X83488721Y-53838796D01*
X83483755Y-53848852D01*
X82383755Y-56348852D01*
X82382083Y-56352833D01*
X81982083Y-57352833D01*
X81977288Y-57367277D01*
X81177288Y-60367277D01*
X81174728Y-60379121D01*
X80674728Y-63379121D01*
X80673247Y-63392078D01*
X80473247Y-66592078D01*
X67627000Y-66592078D01*
X67627000Y-64004878D01*
X67726327Y-62713625D01*
X68225138Y-59122185D01*
X69022903Y-55432521D01*
X70119041Y-51944812D01*
X71614653Y-48554757D01*
X73309631Y-45264505D01*
X75503018Y-41974426D01*
X77995293Y-38784313D01*
X80287369Y-36492237D01*
X83179843Y-33898985D01*
X86070983Y-31805400D01*
X89261539Y-29811303D01*
X92550793Y-28216513D01*
X96140756Y-26820416D01*
X99929534Y-25723665D01*
X103619101Y-25025639D01*
X106207303Y-24727000D01*
X110896907Y-24727000D01*
X114985631Y-24926450D01*
X118871717Y-25623953D01*
X122460401Y-26620809D01*
X125351513Y-27717438D01*
X129142024Y-29413193D01*
X132231221Y-31206920D01*
X135320945Y-33399627D01*
X136645953Y-34571750D01*
X136069621Y-34571750D01*
X135101147Y-34972905D01*
X134359910Y-35714142D01*
X133958755Y-36682616D01*
X133958755Y-37730884D01*
X134359910Y-38699358D01*
X135101147Y-39440595D01*
X136069621Y-39841750D01*
X137117889Y-39841750D01*
X138086363Y-39440595D01*
X138827600Y-38699358D01*
X139228755Y-37730884D01*
X139228755Y-36959556D01*
X140611017Y-38290623D01*
X143820394Y-41500000D01*
X141735000Y-43585394D01*
X141735000Y-43194670D01*
X141501310Y-42630493D01*
X141069507Y-42198690D01*
X140505330Y-41965000D01*
X139894670Y-41965000D01*
X139330493Y-42198690D01*
X139014183Y-42515000D01*
X138087159Y-42515000D01*
X137999999Y-42497663D01*
X137912839Y-42515000D01*
X137912835Y-42515000D01*
X137654690Y-42566348D01*
X137654688Y-42566349D01*
X137654689Y-42566349D01*
X137435845Y-42712576D01*
X137435844Y-42712577D01*
X137361951Y-42761951D01*
X137312577Y-42835844D01*
X134035847Y-46112575D01*
X133961951Y-46161951D01*
X133766348Y-46454691D01*
X133715000Y-46712836D01*
X133715000Y-46712839D01*
X133697663Y-46800000D01*
X133715000Y-46887161D01*
X133715001Y-50133420D01*
X119435847Y-64412575D01*
X119361951Y-64461951D01*
X119166348Y-64754691D01*
X119115000Y-65012836D01*
X119115000Y-65012839D01*
X119097663Y-65100000D01*
X119115000Y-65187161D01*
X119115000Y-66205394D01*
X118810197Y-66510197D01*
X118782667Y-66551399D01*
X118773000Y-66600000D01*
X118782667Y-66648601D01*
X118810197Y-66689803D01*
X119115000Y-66994606D01*
X119115001Y-71312835D01*
X119115000Y-73533421D01*
X117583422Y-75065000D01*
X117354343Y-75065000D01*
X116900429Y-75253018D01*
X116553018Y-75600429D01*
X116365000Y-76054343D01*
X116365000Y-76545657D01*
X116553018Y-76999571D01*
X116900429Y-77346982D01*
X117354343Y-77535000D01*
X117845657Y-77535000D01*
X118299571Y-77346982D01*
X118646982Y-76999571D01*
X118835000Y-76545657D01*
X118835000Y-76316578D01*
X119865000Y-75286578D01*
X119865000Y-77188447D01*
X119703018Y-77350429D01*
X119515000Y-77804343D01*
X119515000Y-78295657D01*
X119703018Y-78749571D01*
X120050429Y-79096982D01*
X120504343Y-79285000D01*
X120995657Y-79285000D01*
X121449571Y-79096982D01*
X121796982Y-78749571D01*
X121985000Y-78295657D01*
X121985000Y-77804343D01*
X121796982Y-77350429D01*
X121635000Y-77188447D01*
X121635000Y-69514606D01*
X126510197Y-74389803D01*
X126551399Y-74417333D01*
X126600000Y-74427000D01*
X126648601Y-74417333D01*
X126689803Y-74389803D01*
X126965000Y-74114606D01*
X126965000Y-82288447D01*
X126803018Y-82450429D01*
X126615000Y-82904343D01*
X126615000Y-83395657D01*
X126803018Y-83849571D01*
X127150429Y-84196982D01*
X127604343Y-84385000D01*
X128095657Y-84385000D01*
X128549571Y-84196982D01*
X128896982Y-83849571D01*
X129085000Y-83395657D01*
X129085000Y-82904343D01*
X128896982Y-82450429D01*
X128735000Y-82288447D01*
X128735000Y-79030651D01*
X128786556Y-79107809D01*
X130342191Y-80663444D01*
X130552235Y-80803792D01*
X130800000Y-80853075D01*
X131047765Y-80803792D01*
X131257809Y-80663444D01*
X132813444Y-79107809D01*
X132953792Y-78897765D01*
X133003075Y-78650000D01*
X132953792Y-78402235D01*
X132813444Y-78192191D01*
X131257809Y-76636556D01*
X131047765Y-76496208D01*
X130800000Y-76446925D01*
X130552235Y-76496208D01*
X130342191Y-76636556D01*
X128786556Y-78192191D01*
X128735000Y-78269349D01*
X128735000Y-76018289D01*
X138007967Y-76018289D01*
X138007967Y-76867645D01*
X138333001Y-77652347D01*
X138933587Y-78252933D01*
X139718289Y-78577967D01*
X140567645Y-78577967D01*
X141352347Y-78252933D01*
X141952933Y-77652347D01*
X142277967Y-76867645D01*
X142277967Y-76018289D01*
X141952933Y-75233587D01*
X141352347Y-74633001D01*
X140567645Y-74307967D01*
X139718289Y-74307967D01*
X138933587Y-74633001D01*
X138333001Y-75233587D01*
X138007967Y-76018289D01*
X128735000Y-76018289D01*
X128735000Y-72344606D01*
X146925058Y-54154548D01*
X153069342Y-54154548D01*
X153069342Y-55003904D01*
X153394376Y-55788606D01*
X153994962Y-56389192D01*
X154779664Y-56714226D01*
X155629020Y-56714226D01*
X156413722Y-56389192D01*
X157014308Y-55788606D01*
X157339342Y-55003904D01*
X157339342Y-54154548D01*
X157014308Y-53369846D01*
X156413722Y-52769260D01*
X155629020Y-52444226D01*
X154779664Y-52444226D01*
X153994962Y-52769260D01*
X153394376Y-53369846D01*
X153069342Y-54154548D01*
X146925058Y-54154548D01*
X177200000Y-23879606D01*
X186720483Y-33400089D01*
G36*
X112479881Y-106115664D02*
X112444785Y-106292102D01*
X112534811Y-106744690D01*
X112322037Y-106668621D01*
X111762805Y-106696240D01*
X111374429Y-106857121D01*
X111303683Y-107100386D01*
X112111846Y-107908549D01*
X112125989Y-107894407D01*
X112161513Y-107929931D01*
X111953418Y-108137616D01*
X111918099Y-108102297D01*
X111932241Y-108088154D01*
X111124078Y-107279991D01*
X110880813Y-107350737D01*
X110719932Y-107739113D01*
X110692313Y-108298345D01*
X110768382Y-108511117D01*
X110457128Y-108449205D01*
X110174462Y-108449205D01*
X110029599Y-108478020D01*
X107985000Y-106433422D01*
X107985000Y-104285000D01*
X110649218Y-104285000D01*
X112479881Y-106115664D01*
X112479881Y-106115664D01*
G37*
X112479881Y-106115664D02*
X112444785Y-106292102D01*
X112534811Y-106744690D01*
X112322037Y-106668621D01*
X111762805Y-106696240D01*
X111374429Y-106857121D01*
X111303683Y-107100386D01*
X112111846Y-107908549D01*
X112125989Y-107894407D01*
X112161513Y-107929931D01*
X111953418Y-108137616D01*
X111918099Y-108102297D01*
X111932241Y-108088154D01*
X111124078Y-107279991D01*
X110880813Y-107350737D01*
X110719932Y-107739113D01*
X110692313Y-108298345D01*
X110768382Y-108511117D01*
X110457128Y-108449205D01*
X110174462Y-108449205D01*
X110029599Y-108478020D01*
X107985000Y-106433422D01*
X107985000Y-104285000D01*
X110649218Y-104285000D01*
X112479881Y-106115664D01*
G04 #@! TD*
M02*
