G04 #@! TF.GenerationSoftware,KiCad,Pcbnew,5.0.2-bee76a0~70~ubuntu18.04.1*
G04 #@! TF.CreationDate,2020-03-28T00:32:54-04:00*
G04 #@! TF.ProjectId,synth,73796e74-682e-46b6-9963-61645f706362,rev?*
G04 #@! TF.SameCoordinates,Original*
G04 #@! TF.FileFunction,Copper,L1,Top*
G04 #@! TF.FilePolarity,Positive*
%FSLAX46Y46*%
G04 Gerber Fmt 4.6, Leading zero omitted, Abs format (unit mm)*
G04 Created by KiCad (PCBNEW 5.0.2-bee76a0~70~ubuntu18.04.1) date Sat 28 Mar 2020 12:32:54 AM EDT*
%MOMM*%
%LPD*%
G01*
G04 APERTURE LIST*
G04 #@! TA.AperFunction,ComponentPad*
%ADD10C,2.000000*%
G04 #@! TD*
G04 #@! TA.AperFunction,ComponentPad*
%ADD11C,1.524000*%
G04 #@! TD*
G04 #@! TA.AperFunction,ComponentPad*
%ADD12C,1.600000*%
G04 #@! TD*
G04 #@! TA.AperFunction,Conductor*
%ADD13C,0.100000*%
G04 #@! TD*
G04 #@! TA.AperFunction,ComponentPad*
%ADD14R,1.600000X1.600000*%
G04 #@! TD*
G04 #@! TA.AperFunction,ComponentPad*
%ADD15R,1.800000X1.800000*%
G04 #@! TD*
G04 #@! TA.AperFunction,ComponentPad*
%ADD16C,1.800000*%
G04 #@! TD*
G04 #@! TA.AperFunction,ComponentPad*
%ADD17C,2.200000*%
G04 #@! TD*
G04 #@! TA.AperFunction,Conductor*
%ADD18C,2.200000*%
G04 #@! TD*
G04 #@! TA.AperFunction,ComponentPad*
%ADD19C,3.000000*%
G04 #@! TD*
G04 #@! TA.AperFunction,WasherPad*
%ADD20C,3.000000*%
G04 #@! TD*
G04 #@! TA.AperFunction,ComponentPad*
%ADD21R,2.000000X2.000000*%
G04 #@! TD*
G04 #@! TA.AperFunction,SMDPad,CuDef*
%ADD22C,0.500000*%
G04 #@! TD*
G04 #@! TA.AperFunction,ComponentPad*
%ADD23C,1.300000*%
G04 #@! TD*
G04 #@! TA.AperFunction,ComponentPad*
%ADD24R,1.300000X1.300000*%
G04 #@! TD*
G04 #@! TA.AperFunction,Conductor*
%ADD25C,1.600000*%
G04 #@! TD*
G04 #@! TA.AperFunction,ComponentPad*
%ADD26O,1.600000X1.600000*%
G04 #@! TD*
G04 #@! TA.AperFunction,WasherPad*
%ADD27C,4.000000*%
G04 #@! TD*
G04 #@! TA.AperFunction,ComponentPad*
%ADD28C,1.905000*%
G04 #@! TD*
G04 #@! TA.AperFunction,Conductor*
%ADD29C,1.905000*%
G04 #@! TD*
G04 #@! TA.AperFunction,ViaPad*
%ADD30C,1.200000*%
G04 #@! TD*
G04 #@! TA.AperFunction,Conductor*
%ADD31C,0.500000*%
G04 #@! TD*
G04 #@! TA.AperFunction,Conductor*
%ADD32C,0.254000*%
G04 #@! TD*
G04 APERTURE END LIST*
D10*
G04 #@! TO.P,SW2,*
G04 #@! TO.N,*
X116899138Y-45149138D03*
X111100862Y-39350862D03*
D11*
G04 #@! TO.P,SW2,1*
G04 #@! TO.N,VDD_BAT*
X112585786Y-40835786D03*
G04 #@! TO.P,SW2,3*
G04 #@! TO.N,Net-(SW2-Pad3)*
X115414214Y-43664214D03*
G04 #@! TO.P,SW2,2*
G04 #@! TO.N,Net-(D2-Pad1)*
X114000000Y-42250000D03*
G04 #@! TD*
D12*
G04 #@! TO.P,C1,2*
G04 #@! TO.N,GND*
X101632233Y-127632233D03*
G04 #@! TO.P,C1,1*
G04 #@! TO.N,+5V*
X103400000Y-129400000D03*
G04 #@! TD*
G04 #@! TO.P,C2,1*
G04 #@! TO.N,/MAIN_VFO/TRIANGLE*
X103500000Y-110700000D03*
G04 #@! TO.P,C2,2*
G04 #@! TO.N,Net-(C2-Pad2)*
X105267767Y-108932233D03*
G04 #@! TD*
G04 #@! TO.P,C3,1*
G04 #@! TO.N,+5V*
X108367767Y-100667767D03*
D13*
G04 #@! TD*
G04 #@! TO.N,+5V*
G04 #@! TO.C,C3*
G36*
X109499138Y-100667767D02*
X108367767Y-101799138D01*
X107236396Y-100667767D01*
X108367767Y-99536396D01*
X109499138Y-100667767D01*
X109499138Y-100667767D01*
G37*
D12*
G04 #@! TO.P,C3,2*
G04 #@! TO.N,GND*
X106600000Y-98900000D03*
G04 #@! TD*
G04 #@! TO.P,C4,2*
G04 #@! TO.N,GND*
X95432233Y-59582233D03*
G04 #@! TO.P,C4,1*
G04 #@! TO.N,VDD_BAT*
X97200000Y-61350000D03*
D13*
G04 #@! TD*
G04 #@! TO.N,VDD_BAT*
G04 #@! TO.C,C4*
G36*
X98331371Y-61350000D02*
X97200000Y-62481371D01*
X96068629Y-61350000D01*
X97200000Y-60218629D01*
X98331371Y-61350000D01*
X98331371Y-61350000D01*
G37*
D12*
G04 #@! TO.P,C5,1*
G04 #@! TO.N,+5V*
X136200000Y-105900000D03*
D13*
G04 #@! TD*
G04 #@! TO.N,+5V*
G04 #@! TO.C,C5*
G36*
X137331371Y-105900000D02*
X136200000Y-107031371D01*
X135068629Y-105900000D01*
X136200000Y-104768629D01*
X137331371Y-105900000D01*
X137331371Y-105900000D01*
G37*
D12*
G04 #@! TO.P,C5,2*
G04 #@! TO.N,GND*
X134432233Y-104132233D03*
G04 #@! TD*
D14*
G04 #@! TO.P,C6,1*
G04 #@! TO.N,HI_Z_REF*
X186700000Y-115300000D03*
D12*
G04 #@! TO.P,C6,2*
G04 #@! TO.N,GND*
X184200000Y-115300000D03*
G04 #@! TD*
G04 #@! TO.P,C7,2*
G04 #@! TO.N,GND*
X179267767Y-128932233D03*
G04 #@! TO.P,C7,1*
G04 #@! TO.N,+5V*
X177500000Y-130700000D03*
D13*
G04 #@! TD*
G04 #@! TO.N,+5V*
G04 #@! TO.C,C7*
G36*
X177500000Y-131831371D02*
X176368629Y-130700000D01*
X177500000Y-129568629D01*
X178631371Y-130700000D01*
X177500000Y-131831371D01*
X177500000Y-131831371D01*
G37*
D15*
G04 #@! TO.P,D1,1*
G04 #@! TO.N,/MAIN_VFO/DISCHARGE*
X110500000Y-69000000D03*
D16*
G04 #@! TO.P,D1,2*
G04 #@! TO.N,Net-(D1-Pad2)*
X110500000Y-66460000D03*
G04 #@! TD*
D17*
G04 #@! TO.P,D2,1*
G04 #@! TO.N,Net-(D2-Pad1)*
X130800000Y-78650000D03*
D13*
G04 #@! TD*
G04 #@! TO.N,Net-(D2-Pad1)*
G04 #@! TO.C,D2*
G36*
X129244365Y-78650000D02*
X130800000Y-77094365D01*
X132355635Y-78650000D01*
X130800000Y-80205635D01*
X129244365Y-78650000D01*
X129244365Y-78650000D01*
G37*
D17*
G04 #@! TO.P,D2,2*
G04 #@! TO.N,Net-(D2-Pad2)*
X137984205Y-85834205D03*
D18*
G04 #@! TD*
G04 #@! TO.N,Net-(D2-Pad2)*
G04 #@! TO.C,D2*
X137984205Y-85834205D02*
X137984205Y-85834205D01*
D19*
G04 #@! TO.P,J1,1*
G04 #@! TO.N,Net-(D2-Pad2)*
X149300000Y-85600000D03*
G04 #@! TO.P,J1,2*
G04 #@! TO.N,GND*
X140142967Y-76442967D03*
D20*
G04 #@! TO.P,J1,*
G04 #@! TO.N,*
X161575374Y-80027999D03*
X180575333Y-61028039D03*
X155204342Y-54579226D03*
G04 #@! TD*
D21*
G04 #@! TO.P,J2,1*
G04 #@! TO.N,/OUTPUT/OUTPUT*
X162640000Y-162400000D03*
D10*
G04 #@! TO.P,J2,2*
G04 #@! TO.N,/OUTPUT/LO_Z_REF*
X157640000Y-162400000D03*
G04 #@! TD*
D22*
G04 #@! TO.P,JP1,2*
G04 #@! TO.N,Net-(JP1-Pad2)*
X135409619Y-60490381D03*
D13*
G04 #@! TD*
G04 #@! TO.N,Net-(JP1-Pad2)*
G04 #@! TO.C,JP1*
G36*
X134879715Y-59960477D02*
X134897063Y-59943128D01*
X134934993Y-59912001D01*
X134975791Y-59884740D01*
X135019065Y-59861610D01*
X135064397Y-59842832D01*
X135111352Y-59828589D01*
X135159477Y-59819016D01*
X135208308Y-59814207D01*
X135257377Y-59814207D01*
X135306207Y-59819016D01*
X135354332Y-59828589D01*
X135401287Y-59842832D01*
X135446620Y-59861610D01*
X135489894Y-59884740D01*
X135530692Y-59912001D01*
X135568622Y-59943128D01*
X135585970Y-59960477D01*
X135586396Y-59960051D01*
X135939949Y-60313604D01*
X135939523Y-60314030D01*
X135956872Y-60331378D01*
X135987999Y-60369308D01*
X136015260Y-60410106D01*
X136038390Y-60453380D01*
X136057168Y-60498713D01*
X136071411Y-60545668D01*
X136080984Y-60593793D01*
X136085793Y-60642623D01*
X136085793Y-60691692D01*
X136080984Y-60740523D01*
X136071411Y-60788648D01*
X136057168Y-60835603D01*
X136038390Y-60880935D01*
X136015260Y-60924209D01*
X135987999Y-60965007D01*
X135956872Y-61002937D01*
X135939523Y-61020285D01*
X135939949Y-61020711D01*
X135586396Y-61374264D01*
X134525736Y-60313604D01*
X134879289Y-59960051D01*
X134879715Y-59960477D01*
X134879715Y-59960477D01*
G37*
D22*
G04 #@! TO.P,JP1,1*
G04 #@! TO.N,Net-(C2-Pad2)*
X134490381Y-61409619D03*
D13*
G04 #@! TD*
G04 #@! TO.N,Net-(C2-Pad2)*
G04 #@! TO.C,JP1*
G36*
X135374264Y-61586396D02*
X135020711Y-61939949D01*
X135020285Y-61939523D01*
X135002937Y-61956872D01*
X134965007Y-61987999D01*
X134924209Y-62015260D01*
X134880935Y-62038390D01*
X134835603Y-62057168D01*
X134788648Y-62071411D01*
X134740523Y-62080984D01*
X134691692Y-62085793D01*
X134642623Y-62085793D01*
X134593793Y-62080984D01*
X134545668Y-62071411D01*
X134498713Y-62057168D01*
X134453380Y-62038390D01*
X134410106Y-62015260D01*
X134369308Y-61987999D01*
X134331378Y-61956872D01*
X134314030Y-61939523D01*
X134313604Y-61939949D01*
X133960051Y-61586396D01*
X133960477Y-61585970D01*
X133943128Y-61568622D01*
X133912001Y-61530692D01*
X133884740Y-61489894D01*
X133861610Y-61446620D01*
X133842832Y-61401287D01*
X133828589Y-61354332D01*
X133819016Y-61306207D01*
X133814207Y-61257377D01*
X133814207Y-61208308D01*
X133819016Y-61159477D01*
X133828589Y-61111352D01*
X133842832Y-61064397D01*
X133861610Y-61019065D01*
X133884740Y-60975791D01*
X133912001Y-60934993D01*
X133943128Y-60897063D01*
X133960477Y-60879715D01*
X133960051Y-60879289D01*
X134313604Y-60525736D01*
X135374264Y-61586396D01*
X135374264Y-61586396D01*
G37*
D22*
G04 #@! TO.P,JP2,2*
G04 #@! TO.N,Net-(JP2-Pad2)*
X93359619Y-70940381D03*
D13*
G04 #@! TD*
G04 #@! TO.N,Net-(JP2-Pad2)*
G04 #@! TO.C,JP2*
G36*
X92829715Y-70410477D02*
X92847063Y-70393128D01*
X92884993Y-70362001D01*
X92925791Y-70334740D01*
X92969065Y-70311610D01*
X93014397Y-70292832D01*
X93061352Y-70278589D01*
X93109477Y-70269016D01*
X93158308Y-70264207D01*
X93207377Y-70264207D01*
X93256207Y-70269016D01*
X93304332Y-70278589D01*
X93351287Y-70292832D01*
X93396620Y-70311610D01*
X93439894Y-70334740D01*
X93480692Y-70362001D01*
X93518622Y-70393128D01*
X93535970Y-70410477D01*
X93536396Y-70410051D01*
X93889949Y-70763604D01*
X93889523Y-70764030D01*
X93906872Y-70781378D01*
X93937999Y-70819308D01*
X93965260Y-70860106D01*
X93988390Y-70903380D01*
X94007168Y-70948713D01*
X94021411Y-70995668D01*
X94030984Y-71043793D01*
X94035793Y-71092623D01*
X94035793Y-71141692D01*
X94030984Y-71190523D01*
X94021411Y-71238648D01*
X94007168Y-71285603D01*
X93988390Y-71330935D01*
X93965260Y-71374209D01*
X93937999Y-71415007D01*
X93906872Y-71452937D01*
X93889523Y-71470285D01*
X93889949Y-71470711D01*
X93536396Y-71824264D01*
X92475736Y-70763604D01*
X92829289Y-70410051D01*
X92829715Y-70410477D01*
X92829715Y-70410477D01*
G37*
D22*
G04 #@! TO.P,JP2,1*
G04 #@! TO.N,+5V*
X92440381Y-71859619D03*
D13*
G04 #@! TD*
G04 #@! TO.N,+5V*
G04 #@! TO.C,JP2*
G36*
X93324264Y-72036396D02*
X92970711Y-72389949D01*
X92970285Y-72389523D01*
X92952937Y-72406872D01*
X92915007Y-72437999D01*
X92874209Y-72465260D01*
X92830935Y-72488390D01*
X92785603Y-72507168D01*
X92738648Y-72521411D01*
X92690523Y-72530984D01*
X92641692Y-72535793D01*
X92592623Y-72535793D01*
X92543793Y-72530984D01*
X92495668Y-72521411D01*
X92448713Y-72507168D01*
X92403380Y-72488390D01*
X92360106Y-72465260D01*
X92319308Y-72437999D01*
X92281378Y-72406872D01*
X92264030Y-72389523D01*
X92263604Y-72389949D01*
X91910051Y-72036396D01*
X91910477Y-72035970D01*
X91893128Y-72018622D01*
X91862001Y-71980692D01*
X91834740Y-71939894D01*
X91811610Y-71896620D01*
X91792832Y-71851287D01*
X91778589Y-71804332D01*
X91769016Y-71756207D01*
X91764207Y-71707377D01*
X91764207Y-71658308D01*
X91769016Y-71609477D01*
X91778589Y-71561352D01*
X91792832Y-71514397D01*
X91811610Y-71469065D01*
X91834740Y-71425791D01*
X91862001Y-71384993D01*
X91893128Y-71347063D01*
X91910477Y-71329715D01*
X91910051Y-71329289D01*
X92263604Y-70975736D01*
X93324264Y-72036396D01*
X93324264Y-72036396D01*
G37*
D22*
G04 #@! TO.P,JP3,2*
G04 #@! TO.N,VDD_BAT*
X97309619Y-67040381D03*
D13*
G04 #@! TD*
G04 #@! TO.N,VDD_BAT*
G04 #@! TO.C,JP3*
G36*
X96779715Y-66510477D02*
X96797063Y-66493128D01*
X96834993Y-66462001D01*
X96875791Y-66434740D01*
X96919065Y-66411610D01*
X96964397Y-66392832D01*
X97011352Y-66378589D01*
X97059477Y-66369016D01*
X97108308Y-66364207D01*
X97157377Y-66364207D01*
X97206207Y-66369016D01*
X97254332Y-66378589D01*
X97301287Y-66392832D01*
X97346620Y-66411610D01*
X97389894Y-66434740D01*
X97430692Y-66462001D01*
X97468622Y-66493128D01*
X97485970Y-66510477D01*
X97486396Y-66510051D01*
X97839949Y-66863604D01*
X97839523Y-66864030D01*
X97856872Y-66881378D01*
X97887999Y-66919308D01*
X97915260Y-66960106D01*
X97938390Y-67003380D01*
X97957168Y-67048713D01*
X97971411Y-67095668D01*
X97980984Y-67143793D01*
X97985793Y-67192623D01*
X97985793Y-67241692D01*
X97980984Y-67290523D01*
X97971411Y-67338648D01*
X97957168Y-67385603D01*
X97938390Y-67430935D01*
X97915260Y-67474209D01*
X97887999Y-67515007D01*
X97856872Y-67552937D01*
X97839523Y-67570285D01*
X97839949Y-67570711D01*
X97486396Y-67924264D01*
X96425736Y-66863604D01*
X96779289Y-66510051D01*
X96779715Y-66510477D01*
X96779715Y-66510477D01*
G37*
D22*
G04 #@! TO.P,JP3,1*
G04 #@! TO.N,Net-(JP2-Pad2)*
X96390381Y-67959619D03*
D13*
G04 #@! TD*
G04 #@! TO.N,Net-(JP2-Pad2)*
G04 #@! TO.C,JP3*
G36*
X97274264Y-68136396D02*
X96920711Y-68489949D01*
X96920285Y-68489523D01*
X96902937Y-68506872D01*
X96865007Y-68537999D01*
X96824209Y-68565260D01*
X96780935Y-68588390D01*
X96735603Y-68607168D01*
X96688648Y-68621411D01*
X96640523Y-68630984D01*
X96591692Y-68635793D01*
X96542623Y-68635793D01*
X96493793Y-68630984D01*
X96445668Y-68621411D01*
X96398713Y-68607168D01*
X96353380Y-68588390D01*
X96310106Y-68565260D01*
X96269308Y-68537999D01*
X96231378Y-68506872D01*
X96214030Y-68489523D01*
X96213604Y-68489949D01*
X95860051Y-68136396D01*
X95860477Y-68135970D01*
X95843128Y-68118622D01*
X95812001Y-68080692D01*
X95784740Y-68039894D01*
X95761610Y-67996620D01*
X95742832Y-67951287D01*
X95728589Y-67904332D01*
X95719016Y-67856207D01*
X95714207Y-67807377D01*
X95714207Y-67758308D01*
X95719016Y-67709477D01*
X95728589Y-67661352D01*
X95742832Y-67614397D01*
X95761610Y-67569065D01*
X95784740Y-67525791D01*
X95812001Y-67484993D01*
X95843128Y-67447063D01*
X95860477Y-67429715D01*
X95860051Y-67429289D01*
X96213604Y-67075736D01*
X97274264Y-68136396D01*
X97274264Y-68136396D01*
G37*
D22*
G04 #@! TO.P,JP4,1*
G04 #@! TO.N,Net-(JP4-Pad1)*
X88417693Y-102027891D03*
D13*
G04 #@! TD*
G04 #@! TO.N,Net-(JP4-Pad1)*
G04 #@! TO.C,JP4*
G36*
X89301576Y-102204668D02*
X88948023Y-102558221D01*
X88947597Y-102557795D01*
X88930249Y-102575144D01*
X88892319Y-102606271D01*
X88851521Y-102633532D01*
X88808247Y-102656662D01*
X88762915Y-102675440D01*
X88715960Y-102689683D01*
X88667835Y-102699256D01*
X88619004Y-102704065D01*
X88569935Y-102704065D01*
X88521105Y-102699256D01*
X88472980Y-102689683D01*
X88426025Y-102675440D01*
X88380692Y-102656662D01*
X88337418Y-102633532D01*
X88296620Y-102606271D01*
X88258690Y-102575144D01*
X88241342Y-102557795D01*
X88240916Y-102558221D01*
X87887363Y-102204668D01*
X87887789Y-102204242D01*
X87870440Y-102186894D01*
X87839313Y-102148964D01*
X87812052Y-102108166D01*
X87788922Y-102064892D01*
X87770144Y-102019559D01*
X87755901Y-101972604D01*
X87746328Y-101924479D01*
X87741519Y-101875649D01*
X87741519Y-101826580D01*
X87746328Y-101777749D01*
X87755901Y-101729624D01*
X87770144Y-101682669D01*
X87788922Y-101637337D01*
X87812052Y-101594063D01*
X87839313Y-101553265D01*
X87870440Y-101515335D01*
X87887789Y-101497987D01*
X87887363Y-101497561D01*
X88240916Y-101144008D01*
X89301576Y-102204668D01*
X89301576Y-102204668D01*
G37*
D22*
G04 #@! TO.P,JP4,2*
G04 #@! TO.N,Net-(JP4-Pad2)*
X89336931Y-101108653D03*
D13*
G04 #@! TD*
G04 #@! TO.N,Net-(JP4-Pad2)*
G04 #@! TO.C,JP4*
G36*
X88807027Y-100578749D02*
X88824375Y-100561400D01*
X88862305Y-100530273D01*
X88903103Y-100503012D01*
X88946377Y-100479882D01*
X88991709Y-100461104D01*
X89038664Y-100446861D01*
X89086789Y-100437288D01*
X89135620Y-100432479D01*
X89184689Y-100432479D01*
X89233519Y-100437288D01*
X89281644Y-100446861D01*
X89328599Y-100461104D01*
X89373932Y-100479882D01*
X89417206Y-100503012D01*
X89458004Y-100530273D01*
X89495934Y-100561400D01*
X89513282Y-100578749D01*
X89513708Y-100578323D01*
X89867261Y-100931876D01*
X89866835Y-100932302D01*
X89884184Y-100949650D01*
X89915311Y-100987580D01*
X89942572Y-101028378D01*
X89965702Y-101071652D01*
X89984480Y-101116985D01*
X89998723Y-101163940D01*
X90008296Y-101212065D01*
X90013105Y-101260895D01*
X90013105Y-101309964D01*
X90008296Y-101358795D01*
X89998723Y-101406920D01*
X89984480Y-101453875D01*
X89965702Y-101499207D01*
X89942572Y-101542481D01*
X89915311Y-101583279D01*
X89884184Y-101621209D01*
X89866835Y-101638557D01*
X89867261Y-101638983D01*
X89513708Y-101992536D01*
X88453048Y-100931876D01*
X88806601Y-100578323D01*
X88807027Y-100578749D01*
X88807027Y-100578749D01*
G37*
D22*
G04 #@! TO.P,JP5,1*
G04 #@! TO.N,Net-(JP5-Pad1)*
X174821499Y-117561701D03*
D13*
G04 #@! TD*
G04 #@! TO.N,Net-(JP5-Pad1)*
G04 #@! TO.C,JP5*
G36*
X174644722Y-118445584D02*
X174291169Y-118092031D01*
X174291595Y-118091605D01*
X174274246Y-118074257D01*
X174243119Y-118036327D01*
X174215858Y-117995529D01*
X174192728Y-117952255D01*
X174173950Y-117906923D01*
X174159707Y-117859968D01*
X174150134Y-117811843D01*
X174145325Y-117763012D01*
X174145325Y-117713943D01*
X174150134Y-117665113D01*
X174159707Y-117616988D01*
X174173950Y-117570033D01*
X174192728Y-117524700D01*
X174215858Y-117481426D01*
X174243119Y-117440628D01*
X174274246Y-117402698D01*
X174291595Y-117385350D01*
X174291169Y-117384924D01*
X174644722Y-117031371D01*
X174645148Y-117031797D01*
X174662496Y-117014448D01*
X174700426Y-116983321D01*
X174741224Y-116956060D01*
X174784498Y-116932930D01*
X174829831Y-116914152D01*
X174876786Y-116899909D01*
X174924911Y-116890336D01*
X174973741Y-116885527D01*
X175022810Y-116885527D01*
X175071641Y-116890336D01*
X175119766Y-116899909D01*
X175166721Y-116914152D01*
X175212053Y-116932930D01*
X175255327Y-116956060D01*
X175296125Y-116983321D01*
X175334055Y-117014448D01*
X175351403Y-117031797D01*
X175351829Y-117031371D01*
X175705382Y-117384924D01*
X174644722Y-118445584D01*
X174644722Y-118445584D01*
G37*
D22*
G04 #@! TO.P,JP5,2*
G04 #@! TO.N,/OUTPUT/LO_Z_REF*
X175740737Y-118480939D03*
D13*
G04 #@! TD*
G04 #@! TO.N,/OUTPUT/LO_Z_REF*
G04 #@! TO.C,JP5*
G36*
X176270641Y-117951035D02*
X176287990Y-117968383D01*
X176319117Y-118006313D01*
X176346378Y-118047111D01*
X176369508Y-118090385D01*
X176388286Y-118135717D01*
X176402529Y-118182672D01*
X176412102Y-118230797D01*
X176416911Y-118279628D01*
X176416911Y-118328697D01*
X176412102Y-118377527D01*
X176402529Y-118425652D01*
X176388286Y-118472607D01*
X176369508Y-118517940D01*
X176346378Y-118561214D01*
X176319117Y-118602012D01*
X176287990Y-118639942D01*
X176270641Y-118657290D01*
X176271067Y-118657716D01*
X175917514Y-119011269D01*
X175917088Y-119010843D01*
X175899740Y-119028192D01*
X175861810Y-119059319D01*
X175821012Y-119086580D01*
X175777738Y-119109710D01*
X175732405Y-119128488D01*
X175685450Y-119142731D01*
X175637325Y-119152304D01*
X175588495Y-119157113D01*
X175539426Y-119157113D01*
X175490595Y-119152304D01*
X175442470Y-119142731D01*
X175395515Y-119128488D01*
X175350183Y-119109710D01*
X175306909Y-119086580D01*
X175266111Y-119059319D01*
X175228181Y-119028192D01*
X175210833Y-119010843D01*
X175210407Y-119011269D01*
X174856854Y-118657716D01*
X175917514Y-117597056D01*
X176271067Y-117950609D01*
X176270641Y-117951035D01*
X176270641Y-117951035D01*
G37*
D22*
G04 #@! TO.P,JP6,1*
G04 #@! TO.N,Net-(JP6-Pad1)*
X162640381Y-144640381D03*
D13*
G04 #@! TD*
G04 #@! TO.N,Net-(JP6-Pad1)*
G04 #@! TO.C,JP6*
G36*
X162463604Y-145524264D02*
X162110051Y-145170711D01*
X162110477Y-145170285D01*
X162093128Y-145152937D01*
X162062001Y-145115007D01*
X162034740Y-145074209D01*
X162011610Y-145030935D01*
X161992832Y-144985603D01*
X161978589Y-144938648D01*
X161969016Y-144890523D01*
X161964207Y-144841692D01*
X161964207Y-144792623D01*
X161969016Y-144743793D01*
X161978589Y-144695668D01*
X161992832Y-144648713D01*
X162011610Y-144603380D01*
X162034740Y-144560106D01*
X162062001Y-144519308D01*
X162093128Y-144481378D01*
X162110477Y-144464030D01*
X162110051Y-144463604D01*
X162463604Y-144110051D01*
X162464030Y-144110477D01*
X162481378Y-144093128D01*
X162519308Y-144062001D01*
X162560106Y-144034740D01*
X162603380Y-144011610D01*
X162648713Y-143992832D01*
X162695668Y-143978589D01*
X162743793Y-143969016D01*
X162792623Y-143964207D01*
X162841692Y-143964207D01*
X162890523Y-143969016D01*
X162938648Y-143978589D01*
X162985603Y-143992832D01*
X163030935Y-144011610D01*
X163074209Y-144034740D01*
X163115007Y-144062001D01*
X163152937Y-144093128D01*
X163170285Y-144110477D01*
X163170711Y-144110051D01*
X163524264Y-144463604D01*
X162463604Y-145524264D01*
X162463604Y-145524264D01*
G37*
D22*
G04 #@! TO.P,JP6,2*
G04 #@! TO.N,Net-(JP6-Pad2)*
X163559619Y-145559619D03*
D13*
G04 #@! TD*
G04 #@! TO.N,Net-(JP6-Pad2)*
G04 #@! TO.C,JP6*
G36*
X164089523Y-145029715D02*
X164106872Y-145047063D01*
X164137999Y-145084993D01*
X164165260Y-145125791D01*
X164188390Y-145169065D01*
X164207168Y-145214397D01*
X164221411Y-145261352D01*
X164230984Y-145309477D01*
X164235793Y-145358308D01*
X164235793Y-145407377D01*
X164230984Y-145456207D01*
X164221411Y-145504332D01*
X164207168Y-145551287D01*
X164188390Y-145596620D01*
X164165260Y-145639894D01*
X164137999Y-145680692D01*
X164106872Y-145718622D01*
X164089523Y-145735970D01*
X164089949Y-145736396D01*
X163736396Y-146089949D01*
X163735970Y-146089523D01*
X163718622Y-146106872D01*
X163680692Y-146137999D01*
X163639894Y-146165260D01*
X163596620Y-146188390D01*
X163551287Y-146207168D01*
X163504332Y-146221411D01*
X163456207Y-146230984D01*
X163407377Y-146235793D01*
X163358308Y-146235793D01*
X163309477Y-146230984D01*
X163261352Y-146221411D01*
X163214397Y-146207168D01*
X163169065Y-146188390D01*
X163125791Y-146165260D01*
X163084993Y-146137999D01*
X163047063Y-146106872D01*
X163029715Y-146089523D01*
X163029289Y-146089949D01*
X162675736Y-145736396D01*
X163736396Y-144675736D01*
X164089949Y-145029289D01*
X164089523Y-145029715D01*
X164089523Y-145029715D01*
G37*
D22*
G04 #@! TO.P,JP7,1*
G04 #@! TO.N,Net-(JP7-Pad1)*
X152659601Y-143433581D03*
D13*
G04 #@! TD*
G04 #@! TO.N,Net-(JP7-Pad1)*
G04 #@! TO.C,JP7*
G36*
X152159601Y-142683581D02*
X152659601Y-142683581D01*
X152659601Y-142684183D01*
X152684135Y-142684183D01*
X152732966Y-142688993D01*
X152781091Y-142698565D01*
X152828046Y-142712809D01*
X152873379Y-142731586D01*
X152916652Y-142754717D01*
X152957451Y-142781977D01*
X152995380Y-142813105D01*
X153030077Y-142847802D01*
X153061205Y-142885731D01*
X153088465Y-142926530D01*
X153111596Y-142969803D01*
X153130373Y-143015136D01*
X153144617Y-143062091D01*
X153154189Y-143110216D01*
X153158999Y-143159047D01*
X153158999Y-143183581D01*
X153159601Y-143183581D01*
X153159601Y-143683581D01*
X153158999Y-143683581D01*
X153158999Y-143708115D01*
X153154189Y-143756946D01*
X153144617Y-143805071D01*
X153130373Y-143852026D01*
X153111596Y-143897359D01*
X153088465Y-143940632D01*
X153061205Y-143981431D01*
X153030077Y-144019360D01*
X152995380Y-144054057D01*
X152957451Y-144085185D01*
X152916652Y-144112445D01*
X152873379Y-144135576D01*
X152828046Y-144154353D01*
X152781091Y-144168597D01*
X152732966Y-144178169D01*
X152684135Y-144182979D01*
X152659601Y-144182979D01*
X152659601Y-144183581D01*
X152159601Y-144183581D01*
X152159601Y-142683581D01*
X152159601Y-142683581D01*
G37*
D22*
G04 #@! TO.P,JP7,2*
G04 #@! TO.N,Net-(JP6-Pad2)*
X151359601Y-143433581D03*
D13*
G04 #@! TD*
G04 #@! TO.N,Net-(JP6-Pad2)*
G04 #@! TO.C,JP7*
G36*
X151359601Y-144182979D02*
X151335067Y-144182979D01*
X151286236Y-144178169D01*
X151238111Y-144168597D01*
X151191156Y-144154353D01*
X151145823Y-144135576D01*
X151102550Y-144112445D01*
X151061751Y-144085185D01*
X151023822Y-144054057D01*
X150989125Y-144019360D01*
X150957997Y-143981431D01*
X150930737Y-143940632D01*
X150907606Y-143897359D01*
X150888829Y-143852026D01*
X150874585Y-143805071D01*
X150865013Y-143756946D01*
X150860203Y-143708115D01*
X150860203Y-143683581D01*
X150859601Y-143683581D01*
X150859601Y-143183581D01*
X150860203Y-143183581D01*
X150860203Y-143159047D01*
X150865013Y-143110216D01*
X150874585Y-143062091D01*
X150888829Y-143015136D01*
X150907606Y-142969803D01*
X150930737Y-142926530D01*
X150957997Y-142885731D01*
X150989125Y-142847802D01*
X151023822Y-142813105D01*
X151061751Y-142781977D01*
X151102550Y-142754717D01*
X151145823Y-142731586D01*
X151191156Y-142712809D01*
X151238111Y-142698565D01*
X151286236Y-142688993D01*
X151335067Y-142684183D01*
X151359601Y-142684183D01*
X151359601Y-142683581D01*
X151859601Y-142683581D01*
X151859601Y-144183581D01*
X151359601Y-144183581D01*
X151359601Y-144182979D01*
X151359601Y-144182979D01*
G37*
D21*
G04 #@! TO.P,LS1,1*
G04 #@! TO.N,Net-(LS1-Pad1)*
X162950000Y-95400000D03*
D10*
G04 #@! TO.P,LS1,2*
G04 #@! TO.N,/OUTPUT/LO_Z_REF*
X167950000Y-95400000D03*
G04 #@! TD*
D23*
G04 #@! TO.P,Q1,2*
G04 #@! TO.N,Net-(Q1-Pad2)*
X106314008Y-83445588D03*
G04 #@! TO.P,Q1,3*
G04 #@! TO.N,Net-(Q1-Pad3)*
X105044008Y-84715588D03*
D24*
G04 #@! TO.P,Q1,1*
G04 #@! TO.N,Net-(Q1-Pad1)*
X105044008Y-82175588D03*
G04 #@! TD*
D23*
G04 #@! TO.P,Q2,2*
G04 #@! TO.N,Net-(Q2-Pad2)*
X123520000Y-86220000D03*
G04 #@! TO.P,Q2,3*
G04 #@! TO.N,Net-(Q1-Pad3)*
X122250000Y-87490000D03*
D24*
G04 #@! TO.P,Q2,1*
G04 #@! TO.N,Net-(Q2-Pad1)*
X122250000Y-84950000D03*
G04 #@! TD*
D23*
G04 #@! TO.P,Q3,1*
G04 #@! TO.N,Net-(Q3-Pad1)*
X189105382Y-133307403D03*
D13*
G04 #@! TD*
G04 #@! TO.N,Net-(Q3-Pad1)*
G04 #@! TO.C,Q3*
G36*
X189105382Y-132388164D02*
X190024621Y-133307403D01*
X189105382Y-134226642D01*
X188186143Y-133307403D01*
X189105382Y-132388164D01*
X189105382Y-132388164D01*
G37*
D23*
G04 #@! TO.P,Q3,3*
G04 #@! TO.N,Net-(JP6-Pad2)*
X187309331Y-131511352D03*
G04 #@! TO.P,Q3,2*
G04 #@! TO.N,Net-(Q3-Pad2)*
X187309331Y-133307403D03*
G04 #@! TD*
G04 #@! TO.P,Q4,1*
G04 #@! TO.N,Net-(Q4-Pad1)*
X175316800Y-147095985D03*
D13*
G04 #@! TD*
G04 #@! TO.N,Net-(Q4-Pad1)*
G04 #@! TO.C,Q4*
G36*
X175316800Y-146176746D02*
X176236039Y-147095985D01*
X175316800Y-148015224D01*
X174397561Y-147095985D01*
X175316800Y-146176746D01*
X175316800Y-146176746D01*
G37*
D23*
G04 #@! TO.P,Q4,3*
G04 #@! TO.N,Net-(JP6-Pad2)*
X173520749Y-145299934D03*
G04 #@! TO.P,Q4,2*
G04 #@! TO.N,Net-(Q4-Pad2)*
X173520749Y-147095985D03*
G04 #@! TD*
D12*
G04 #@! TO.P,R1,2*
G04 #@! TO.N,Net-(R1-Pad2)*
X89384205Y-120515795D03*
D25*
G04 #@! TD*
G04 #@! TO.N,Net-(R1-Pad2)*
G04 #@! TO.C,R1*
X89384205Y-120515795D02*
X89384205Y-120515795D01*
D12*
G04 #@! TO.P,R1,1*
G04 #@! TO.N,Net-(R1-Pad1)*
X82200000Y-127700000D03*
G04 #@! TD*
G04 #@! TO.P,R2,1*
G04 #@! TO.N,Net-(Q1-Pad2)*
X111549390Y-83448380D03*
D26*
G04 #@! TO.P,R2,2*
G04 #@! TO.N,Net-(R1-Pad1)*
X111549390Y-93608380D03*
G04 #@! TD*
D12*
G04 #@! TO.P,R3,1*
G04 #@! TO.N,Net-(JP1-Pad2)*
X135043250Y-54152587D03*
G04 #@! TO.P,R3,2*
G04 #@! TO.N,Net-(C2-Pad2)*
X127859045Y-61336792D03*
D25*
G04 #@! TD*
G04 #@! TO.N,Net-(C2-Pad2)*
G04 #@! TO.C,R3*
X127859045Y-61336792D02*
X127859045Y-61336792D01*
D12*
G04 #@! TO.P,R4,1*
G04 #@! TO.N,Net-(Q2-Pad2)*
X116781981Y-83448380D03*
D26*
G04 #@! TO.P,R4,2*
G04 #@! TO.N,Net-(R1-Pad1)*
X116781981Y-93608380D03*
G04 #@! TD*
D12*
G04 #@! TO.P,R5,2*
G04 #@! TO.N,+5V*
X148753043Y-113397418D03*
D25*
G04 #@! TD*
G04 #@! TO.N,+5V*
G04 #@! TO.C,R5*
X148753043Y-113397418D02*
X148753043Y-113397418D01*
D12*
G04 #@! TO.P,R5,1*
G04 #@! TO.N,Net-(R5-Pad1)*
X141568838Y-120581623D03*
G04 #@! TD*
G04 #@! TO.P,R6,1*
G04 #@! TO.N,Net-(R5-Pad1)*
X138811122Y-117823907D03*
G04 #@! TO.P,R6,2*
G04 #@! TO.N,+5V*
X145995327Y-110639702D03*
D25*
G04 #@! TD*
G04 #@! TO.N,+5V*
G04 #@! TO.C,R6*
X145995327Y-110639702D02*
X145995327Y-110639702D01*
D12*
G04 #@! TO.P,R7,1*
G04 #@! TO.N,Net-(R5-Pad1)*
X138598990Y-123551472D03*
G04 #@! TO.P,R7,2*
G04 #@! TO.N,/MAIN_VFO/DISCHARGE*
X131414785Y-130735677D03*
D25*
G04 #@! TD*
G04 #@! TO.N,/MAIN_VFO/DISCHARGE*
G04 #@! TO.C,R7*
X131414785Y-130735677D02*
X131414785Y-130735677D01*
D12*
G04 #@! TO.P,R8,1*
G04 #@! TO.N,Net-(R8-Pad1)*
X120300000Y-123500000D03*
G04 #@! TO.P,R8,2*
G04 #@! TO.N,Net-(R8-Pad2)*
X127484205Y-116315795D03*
D25*
G04 #@! TD*
G04 #@! TO.N,Net-(R8-Pad2)*
G04 #@! TO.C,R8*
X127484205Y-116315795D02*
X127484205Y-116315795D01*
D12*
G04 #@! TO.P,R9,2*
G04 #@! TO.N,Net-(R5-Pad1)*
X144354839Y-123452477D03*
D25*
G04 #@! TD*
G04 #@! TO.N,Net-(R5-Pad1)*
G04 #@! TO.C,R9*
X144354839Y-123452477D02*
X144354839Y-123452477D01*
D12*
G04 #@! TO.P,R9,1*
G04 #@! TO.N,GND*
X151539044Y-116268272D03*
G04 #@! TD*
D26*
G04 #@! TO.P,R10,2*
G04 #@! TO.N,Net-(D1-Pad2)*
X116950000Y-65990000D03*
D12*
G04 #@! TO.P,R10,1*
G04 #@! TO.N,Net-(JP2-Pad2)*
X116950000Y-76150000D03*
G04 #@! TD*
G04 #@! TO.P,R11,1*
G04 #@! TO.N,Net-(JP2-Pad2)*
X102850000Y-77700000D03*
D26*
G04 #@! TO.P,R11,2*
G04 #@! TO.N,Net-(D1-Pad2)*
X102850000Y-67540000D03*
G04 #@! TD*
D12*
G04 #@! TO.P,R12,2*
G04 #@! TO.N,Net-(JP4-Pad1)*
X89683414Y-109954560D03*
D25*
G04 #@! TD*
G04 #@! TO.N,Net-(JP4-Pad1)*
G04 #@! TO.C,R12*
X89683414Y-109954560D02*
X89683414Y-109954560D01*
D12*
G04 #@! TO.P,R12,1*
G04 #@! TO.N,Net-(JP4-Pad2)*
X96867619Y-102770355D03*
G04 #@! TD*
G04 #@! TO.P,R13,2*
G04 #@! TO.N,Net-(JP4-Pad2)*
X99809183Y-105768486D03*
D25*
G04 #@! TD*
G04 #@! TO.N,Net-(JP4-Pad2)*
G04 #@! TO.C,R13*
X99809183Y-105768486D02*
X99809183Y-105768486D01*
D12*
G04 #@! TO.P,R13,1*
G04 #@! TO.N,GND*
X92624978Y-112952691D03*
G04 #@! TD*
D26*
G04 #@! TO.P,R14,2*
G04 #@! TO.N,+5V*
X192700000Y-102140000D03*
D12*
G04 #@! TO.P,R14,1*
G04 #@! TO.N,HI_Z_REF*
X192700000Y-112300000D03*
G04 #@! TD*
G04 #@! TO.P,R15,1*
G04 #@! TO.N,GND*
X192700000Y-128300000D03*
D26*
G04 #@! TO.P,R15,2*
G04 #@! TO.N,HI_Z_REF*
X192700000Y-118140000D03*
G04 #@! TD*
D12*
G04 #@! TO.P,R16,2*
G04 #@! TO.N,/OUTPUT/LO_Z_REF*
X174262885Y-125205525D03*
D25*
G04 #@! TD*
G04 #@! TO.N,/OUTPUT/LO_Z_REF*
G04 #@! TO.C,R16*
X174262885Y-125205525D02*
X174262885Y-125205525D01*
D12*
G04 #@! TO.P,R16,1*
G04 #@! TO.N,Net-(JP5-Pad1)*
X167078680Y-118021320D03*
G04 #@! TD*
G04 #@! TO.P,R17,1*
G04 #@! TO.N,/OUTPUT/LO_Z_REF*
X171604163Y-127920815D03*
G04 #@! TO.P,R17,2*
G04 #@! TO.N,GND*
X164419958Y-120736610D03*
D25*
G04 #@! TD*
G04 #@! TO.N,GND*
G04 #@! TO.C,R17*
X164419958Y-120736610D02*
X164419958Y-120736610D01*
D12*
G04 #@! TO.P,R18,1*
G04 #@! TO.N,/OUTPUT/OUTPUT*
X168300000Y-156700000D03*
D26*
G04 #@! TO.P,R18,2*
G04 #@! TO.N,VFO_OUT*
X168300000Y-146540000D03*
G04 #@! TD*
D12*
G04 #@! TO.P,R19,2*
G04 #@! TO.N,Net-(Q3-Pad1)*
X190194327Y-137083354D03*
D25*
G04 #@! TD*
G04 #@! TO.N,Net-(Q3-Pad1)*
G04 #@! TO.C,R19*
X190194327Y-137083354D02*
X190194327Y-137083354D01*
D12*
G04 #@! TO.P,R19,1*
G04 #@! TO.N,+5V*
X197378532Y-144267559D03*
G04 #@! TD*
G04 #@! TO.P,R20,1*
G04 #@! TO.N,Net-(JP6-Pad2)*
X180973654Y-139742074D03*
G04 #@! TO.P,R20,2*
G04 #@! TO.N,Net-(JP6-Pad1)*
X188157859Y-146926279D03*
D25*
G04 #@! TD*
G04 #@! TO.N,Net-(JP6-Pad1)*
G04 #@! TO.C,R20*
X188157859Y-146926279D02*
X188157859Y-146926279D01*
D26*
G04 #@! TO.P,R21,2*
G04 #@! TO.N,Net-(JP6-Pad2)*
X146949602Y-138033580D03*
D12*
G04 #@! TO.P,R21,1*
G04 #@! TO.N,Net-(JP7-Pad1)*
X157109602Y-138033580D03*
G04 #@! TD*
D26*
G04 #@! TO.P,R22,2*
G04 #@! TO.N,GND*
X157069602Y-133933581D03*
D12*
G04 #@! TO.P,R22,1*
G04 #@! TO.N,Net-(JP6-Pad2)*
X146909602Y-133933581D03*
G04 #@! TD*
G04 #@! TO.P,R23,1*
G04 #@! TO.N,Net-(Q4-Pad1)*
X178781623Y-149146595D03*
G04 #@! TO.P,R23,2*
G04 #@! TO.N,GND*
X185965828Y-156330800D03*
D25*
G04 #@! TD*
G04 #@! TO.N,GND*
G04 #@! TO.C,R23*
X185965828Y-156330800D02*
X185965828Y-156330800D01*
D27*
G04 #@! TO.P,RV1,*
G04 #@! TO.N,*
X81606245Y-94893250D03*
X87828784Y-88670711D03*
D16*
G04 #@! TO.P,RV1,1*
G04 #@! TO.N,Net-(RV1-Pad1)*
X78000000Y-88600000D03*
G04 #@! TO.P,RV1,2*
G04 #@! TO.N,Net-(Q1-Pad3)*
X79767767Y-86832233D03*
G04 #@! TO.P,RV1,3*
G04 #@! TO.N,Net-(R1-Pad2)*
X81535534Y-85064466D03*
G04 #@! TD*
G04 #@! TO.P,RV2,3*
G04 #@! TO.N,Net-(Q2-Pad1)*
X136664466Y-47035534D03*
G04 #@! TO.P,RV2,2*
G04 #@! TO.N,Net-(JP1-Pad2)*
X138432233Y-45267767D03*
G04 #@! TO.P,RV2,1*
G04 #@! TO.N,Net-(Q1-Pad1)*
X140200000Y-43500000D03*
D27*
G04 #@! TO.P,RV2,*
G04 #@! TO.N,*
X130371216Y-43429289D03*
X136593755Y-37206750D03*
G04 #@! TD*
G04 #@! TO.P,RV3,*
G04 #@! TO.N,*
X133206245Y-146693250D03*
X139428784Y-140470711D03*
D16*
G04 #@! TO.P,RV3,1*
G04 #@! TO.N,Net-(RV3-Pad1)*
X129600000Y-140400000D03*
G04 #@! TO.P,RV3,2*
G04 #@! TO.N,VFO_OUT*
X131367767Y-138632233D03*
G04 #@! TO.P,RV3,3*
G04 #@! TO.N,Net-(R8-Pad2)*
X133135534Y-136864466D03*
G04 #@! TD*
G04 #@! TO.P,RV4,3*
G04 #@! TO.N,GND*
X179164466Y-95364466D03*
G04 #@! TO.P,RV4,2*
G04 #@! TO.N,Net-(RV4-Pad2)*
X180932233Y-97132233D03*
G04 #@! TO.P,RV4,1*
G04 #@! TO.N,+5V*
X182700000Y-98900000D03*
D27*
G04 #@! TO.P,RV4,*
G04 #@! TO.N,*
X182770711Y-89071216D03*
X188993250Y-95293755D03*
G04 #@! TD*
D11*
G04 #@! TO.P,SW1,2*
G04 #@! TO.N,Net-(R8-Pad1)*
X112400000Y-129100000D03*
G04 #@! TO.P,SW1,3*
G04 #@! TO.N,Net-(JP4-Pad2)*
X113814214Y-127685786D03*
G04 #@! TO.P,SW1,1*
G04 #@! TO.N,/MAIN_VFO/TRIANGLE*
X110985786Y-130514214D03*
D10*
G04 #@! TO.P,SW1,*
G04 #@! TO.N,*
X109500862Y-131999138D03*
X115299138Y-126200862D03*
G04 #@! TD*
D11*
G04 #@! TO.P,SW3,2*
G04 #@! TO.N,Net-(LS1-Pad1)*
X152645227Y-100946447D03*
G04 #@! TO.P,SW3,3*
G04 #@! TO.N,Net-(SW3-Pad3)*
X150645226Y-100946447D03*
G04 #@! TO.P,SW3,1*
G04 #@! TO.N,/OUTPUT/OUTPUT*
X154645228Y-100946447D03*
D10*
G04 #@! TO.P,SW3,*
G04 #@! TO.N,*
X156745227Y-100946447D03*
X148545227Y-100946447D03*
G04 #@! TD*
D12*
G04 #@! TO.P,U1,1*
G04 #@! TO.N,Net-(Q1-Pad3)*
X117500000Y-102700000D03*
D13*
G04 #@! TD*
G04 #@! TO.N,Net-(Q1-Pad3)*
G04 #@! TO.C,U1*
G36*
X116368629Y-102700000D02*
X117500000Y-101568629D01*
X118631371Y-102700000D01*
X117500000Y-103831371D01*
X116368629Y-102700000D01*
X116368629Y-102700000D01*
G37*
D12*
G04 #@! TO.P,U1,8*
G04 #@! TO.N,Net-(JP4-Pad2)*
X112111846Y-118864461D03*
D25*
G04 #@! TD*
G04 #@! TO.N,Net-(JP4-Pad2)*
G04 #@! TO.C,U1*
X112111846Y-118864461D02*
X112111846Y-118864461D01*
D12*
G04 #@! TO.P,U1,2*
G04 #@! TO.N,Net-(R1-Pad2)*
X115703949Y-104496051D03*
D25*
G04 #@! TD*
G04 #@! TO.N,Net-(R1-Pad2)*
G04 #@! TO.C,U1*
X115703949Y-104496051D02*
X115703949Y-104496051D01*
D12*
G04 #@! TO.P,U1,9*
G04 #@! TO.N,Net-(JP4-Pad1)*
X113907898Y-117068410D03*
D25*
G04 #@! TD*
G04 #@! TO.N,Net-(JP4-Pad1)*
G04 #@! TO.C,U1*
X113907898Y-117068410D02*
X113907898Y-117068410D01*
D12*
G04 #@! TO.P,U1,3*
G04 #@! TO.N,HI_Z_REF*
X113907898Y-106292102D03*
D25*
G04 #@! TD*
G04 #@! TO.N,HI_Z_REF*
G04 #@! TO.C,U1*
X113907898Y-106292102D02*
X113907898Y-106292102D01*
D12*
G04 #@! TO.P,U1,10*
G04 #@! TO.N,Net-(R5-Pad1)*
X115703949Y-115272359D03*
D25*
G04 #@! TD*
G04 #@! TO.N,Net-(R5-Pad1)*
G04 #@! TO.C,U1*
X115703949Y-115272359D02*
X115703949Y-115272359D01*
D12*
G04 #@! TO.P,U1,4*
G04 #@! TO.N,+5V*
X112111846Y-108088154D03*
D25*
G04 #@! TD*
G04 #@! TO.N,+5V*
G04 #@! TO.C,U1*
X112111846Y-108088154D02*
X112111846Y-108088154D01*
D12*
G04 #@! TO.P,U1,11*
G04 #@! TO.N,GND*
X117500000Y-113476307D03*
D25*
G04 #@! TD*
G04 #@! TO.N,GND*
G04 #@! TO.C,U1*
X117500000Y-113476307D02*
X117500000Y-113476307D01*
D12*
G04 #@! TO.P,U1,5*
G04 #@! TO.N,HI_Z_REF*
X110315795Y-109884205D03*
D25*
G04 #@! TD*
G04 #@! TO.N,HI_Z_REF*
G04 #@! TO.C,U1*
X110315795Y-109884205D02*
X110315795Y-109884205D01*
D12*
G04 #@! TO.P,U1,12*
G04 #@! TO.N,Net-(RV4-Pad2)*
X119296051Y-111680256D03*
D25*
G04 #@! TD*
G04 #@! TO.N,Net-(RV4-Pad2)*
G04 #@! TO.C,U1*
X119296051Y-111680256D02*
X119296051Y-111680256D01*
D12*
G04 #@! TO.P,U1,6*
G04 #@! TO.N,Net-(C2-Pad2)*
X108519744Y-111680256D03*
D25*
G04 #@! TD*
G04 #@! TO.N,Net-(C2-Pad2)*
G04 #@! TO.C,U1*
X108519744Y-111680256D02*
X108519744Y-111680256D01*
D12*
G04 #@! TO.P,U1,13*
G04 #@! TO.N,Net-(R8-Pad2)*
X121092102Y-109884205D03*
D25*
G04 #@! TD*
G04 #@! TO.N,Net-(R8-Pad2)*
G04 #@! TO.C,U1*
X121092102Y-109884205D02*
X121092102Y-109884205D01*
D12*
G04 #@! TO.P,U1,7*
G04 #@! TO.N,/MAIN_VFO/TRIANGLE*
X106723693Y-113476307D03*
D25*
G04 #@! TD*
G04 #@! TO.N,/MAIN_VFO/TRIANGLE*
G04 #@! TO.C,U1*
X106723693Y-113476307D02*
X106723693Y-113476307D01*
D12*
G04 #@! TO.P,U1,14*
G04 #@! TO.N,VFO_OUT*
X122888154Y-108088154D03*
D25*
G04 #@! TD*
G04 #@! TO.N,VFO_OUT*
G04 #@! TO.C,U1*
X122888154Y-108088154D02*
X122888154Y-108088154D01*
D12*
G04 #@! TO.P,U2,1*
G04 #@! TO.N,GND*
X96400000Y-129400000D03*
D13*
G04 #@! TD*
G04 #@! TO.N,GND*
G04 #@! TO.C,U2*
G36*
X95268629Y-129400000D02*
X96400000Y-128268629D01*
X97531371Y-129400000D01*
X96400000Y-130531371D01*
X95268629Y-129400000D01*
X95268629Y-129400000D01*
G37*
D12*
G04 #@! TO.P,U2,5*
G04 #@! TO.N,Net-(U2-Pad5)*
X96400000Y-140176307D03*
D25*
G04 #@! TD*
G04 #@! TO.N,Net-(U2-Pad5)*
G04 #@! TO.C,U2*
X96400000Y-140176307D02*
X96400000Y-140176307D01*
D12*
G04 #@! TO.P,U2,2*
G04 #@! TO.N,/MAIN_VFO/TRIANGLE*
X94603949Y-131196051D03*
D25*
G04 #@! TD*
G04 #@! TO.N,/MAIN_VFO/TRIANGLE*
G04 #@! TO.C,U2*
X94603949Y-131196051D02*
X94603949Y-131196051D01*
D12*
G04 #@! TO.P,U2,6*
G04 #@! TO.N,/MAIN_VFO/TRIANGLE*
X98196051Y-138380256D03*
D25*
G04 #@! TD*
G04 #@! TO.N,/MAIN_VFO/TRIANGLE*
G04 #@! TO.C,U2*
X98196051Y-138380256D02*
X98196051Y-138380256D01*
D12*
G04 #@! TO.P,U2,3*
G04 #@! TO.N,Net-(R1-Pad1)*
X92807898Y-132992102D03*
D25*
G04 #@! TD*
G04 #@! TO.N,Net-(R1-Pad1)*
G04 #@! TO.C,U2*
X92807898Y-132992102D02*
X92807898Y-132992102D01*
D12*
G04 #@! TO.P,U2,7*
G04 #@! TO.N,/MAIN_VFO/DISCHARGE*
X99992102Y-136584205D03*
D25*
G04 #@! TD*
G04 #@! TO.N,/MAIN_VFO/DISCHARGE*
G04 #@! TO.C,U2*
X99992102Y-136584205D02*
X99992102Y-136584205D01*
D12*
G04 #@! TO.P,U2,4*
G04 #@! TO.N,+5V*
X91011846Y-134788154D03*
D25*
G04 #@! TD*
G04 #@! TO.N,+5V*
G04 #@! TO.C,U2*
X91011846Y-134788154D02*
X91011846Y-134788154D01*
D12*
G04 #@! TO.P,U2,8*
G04 #@! TO.N,+5V*
X101788154Y-134788154D03*
D25*
G04 #@! TD*
G04 #@! TO.N,+5V*
G04 #@! TO.C,U2*
X101788154Y-134788154D02*
X101788154Y-134788154D01*
D28*
G04 #@! TO.P,U3,1*
G04 #@! TO.N,VDD_BAT*
X110500000Y-60150000D03*
D13*
G04 #@! TD*
G04 #@! TO.N,VDD_BAT*
G04 #@! TO.C,U3*
G36*
X110533588Y-61530626D02*
X109119374Y-60116412D01*
X110466412Y-58769374D01*
X111880626Y-60183588D01*
X110533588Y-61530626D01*
X110533588Y-61530626D01*
G37*
D28*
G04 #@! TO.P,U3,2*
G04 #@! TO.N,GND*
X112296051Y-58353949D03*
D29*
G04 #@! TD*
G04 #@! TO.N,GND*
G04 #@! TO.C,U3*
X112262463Y-58320361D02*
X112329639Y-58387537D01*
D28*
G04 #@! TO.P,U3,3*
G04 #@! TO.N,+5V*
X114092102Y-56557898D03*
D29*
G04 #@! TD*
G04 #@! TO.N,+5V*
G04 #@! TO.C,U3*
X114058514Y-56524310D02*
X114125690Y-56591486D01*
D12*
G04 #@! TO.P,U4,1*
G04 #@! TO.N,/OUTPUT/LO_Z_REF*
X168300000Y-131200000D03*
D13*
G04 #@! TD*
G04 #@! TO.N,/OUTPUT/LO_Z_REF*
G04 #@! TO.C,U4*
G36*
X167168629Y-131200000D02*
X168300000Y-130068629D01*
X169431371Y-131200000D01*
X168300000Y-132331371D01*
X167168629Y-131200000D01*
X167168629Y-131200000D01*
G37*
D12*
G04 #@! TO.P,U4,5*
G04 #@! TO.N,VFO_OUT*
X168300000Y-141976307D03*
D25*
G04 #@! TD*
G04 #@! TO.N,VFO_OUT*
G04 #@! TO.C,U4*
X168300000Y-141976307D02*
X168300000Y-141976307D01*
D12*
G04 #@! TO.P,U4,2*
G04 #@! TO.N,Net-(JP5-Pad1)*
X166503949Y-132996051D03*
D25*
G04 #@! TD*
G04 #@! TO.N,Net-(JP5-Pad1)*
G04 #@! TO.C,U4*
X166503949Y-132996051D02*
X166503949Y-132996051D01*
D12*
G04 #@! TO.P,U4,6*
G04 #@! TO.N,Net-(JP7-Pad1)*
X170096051Y-140180256D03*
D25*
G04 #@! TD*
G04 #@! TO.N,Net-(JP7-Pad1)*
G04 #@! TO.C,U4*
X170096051Y-140180256D02*
X170096051Y-140180256D01*
D12*
G04 #@! TO.P,U4,3*
G04 #@! TO.N,HI_Z_REF*
X164707898Y-134792102D03*
D25*
G04 #@! TD*
G04 #@! TO.N,HI_Z_REF*
G04 #@! TO.C,U4*
X164707898Y-134792102D02*
X164707898Y-134792102D01*
D12*
G04 #@! TO.P,U4,7*
G04 #@! TO.N,Net-(JP6-Pad1)*
X171892102Y-138384205D03*
D25*
G04 #@! TD*
G04 #@! TO.N,Net-(JP6-Pad1)*
G04 #@! TO.C,U4*
X171892102Y-138384205D02*
X171892102Y-138384205D01*
D12*
G04 #@! TO.P,U4,4*
G04 #@! TO.N,GND*
X162911846Y-136588154D03*
D25*
G04 #@! TD*
G04 #@! TO.N,GND*
G04 #@! TO.C,U4*
X162911846Y-136588154D02*
X162911846Y-136588154D01*
D12*
G04 #@! TO.P,U4,8*
G04 #@! TO.N,+5V*
X173688154Y-136588154D03*
D25*
G04 #@! TD*
G04 #@! TO.N,+5V*
G04 #@! TO.C,U4*
X173688154Y-136588154D02*
X173688154Y-136588154D01*
D12*
G04 #@! TO.P,R24,2*
G04 #@! TO.N,Net-(JP6-Pad1)*
X191127708Y-143815010D03*
D25*
G04 #@! TD*
G04 #@! TO.N,Net-(JP6-Pad1)*
G04 #@! TO.C,R24*
X191127708Y-143815010D02*
X191127708Y-143815010D01*
D12*
G04 #@! TO.P,R24,1*
G04 #@! TO.N,Net-(Q3-Pad2)*
X183943503Y-136630805D03*
G04 #@! TD*
G04 #@! TO.P,R25,1*
G04 #@! TO.N,Net-(Q4-Pad2)*
X178074517Y-142605858D03*
G04 #@! TO.P,R25,2*
G04 #@! TO.N,Net-(JP6-Pad1)*
X185258722Y-149790063D03*
D25*
G04 #@! TD*
G04 #@! TO.N,Net-(JP6-Pad1)*
G04 #@! TO.C,R25*
X185258722Y-149790063D02*
X185258722Y-149790063D01*
D10*
G04 #@! TO.P,TP1,1*
G04 #@! TO.N,Net-(C2-Pad2)*
X103000000Y-117000000D03*
G04 #@! TD*
G04 #@! TO.P,TP2,1*
G04 #@! TO.N,/MAIN_VFO/TRIANGLE*
X97100000Y-117100000D03*
G04 #@! TD*
G04 #@! TO.P,TP3,1*
G04 #@! TO.N,Net-(Q1-Pad3)*
X121300000Y-98900000D03*
G04 #@! TD*
G04 #@! TO.P,TP4,1*
G04 #@! TO.N,Net-(JP1-Pad2)*
X140550000Y-54150000D03*
G04 #@! TD*
G04 #@! TO.P,TP5,1*
G04 #@! TO.N,Net-(R1-Pad1)*
X106600000Y-93600000D03*
G04 #@! TD*
G04 #@! TO.P,TP6,1*
G04 #@! TO.N,GND*
X177400000Y-105400000D03*
G04 #@! TD*
G04 #@! TO.P,TP7,1*
G04 #@! TO.N,VFO_OUT*
X158050000Y-152050000D03*
G04 #@! TD*
G04 #@! TO.P,TP8,1*
G04 #@! TO.N,Net-(R5-Pad1)*
X144400000Y-128300000D03*
G04 #@! TD*
G04 #@! TO.P,TP9,1*
G04 #@! TO.N,Net-(R8-Pad1)*
X120150000Y-134850000D03*
G04 #@! TD*
G04 #@! TO.P,TP10,1*
G04 #@! TO.N,Net-(JP4-Pad1)*
X84450000Y-115000000D03*
G04 #@! TD*
G04 #@! TO.P,TP11,1*
G04 #@! TO.N,Net-(RV4-Pad2)*
X128950000Y-99400000D03*
G04 #@! TD*
G04 #@! TO.P,TP12,1*
G04 #@! TO.N,Net-(JP4-Pad2)*
X99050000Y-96500000D03*
G04 #@! TD*
G04 #@! TO.P,TP13,1*
G04 #@! TO.N,HI_Z_REF*
X198700000Y-115300000D03*
G04 #@! TD*
G04 #@! TO.P,TP14,1*
G04 #@! TO.N,VDD_BAT*
X106900000Y-35400000D03*
G04 #@! TD*
G04 #@! TO.P,TP15,1*
G04 #@! TO.N,+5V*
X161989949Y-115894322D03*
G04 #@! TD*
G04 #@! TO.P,TP16,1*
G04 #@! TO.N,GND*
X167646804Y-110237469D03*
G04 #@! TD*
G04 #@! TO.P,TP17,1*
G04 #@! TO.N,Net-(JP5-Pad1)*
X162850000Y-129450000D03*
G04 #@! TD*
G04 #@! TO.P,TP18,1*
G04 #@! TO.N,Net-(JP6-Pad2)*
X200300000Y-136000000D03*
G04 #@! TD*
D30*
G04 #@! TO.N,+5V*
X102250000Y-114550000D03*
X108000000Y-108800000D03*
X99600000Y-117800000D03*
X159100000Y-123000000D03*
X155300000Y-123000000D03*
G04 #@! TO.N,Net-(C2-Pad2)*
X127850000Y-83150000D03*
G04 #@! TO.N,HI_Z_REF*
X147700000Y-106800000D03*
X131450000Y-107600000D03*
G04 #@! TO.N,/MAIN_VFO/DISCHARGE*
X109450000Y-138800000D03*
X86850000Y-123250000D03*
G04 #@! TO.N,/OUTPUT/OUTPUT*
X154500000Y-110250000D03*
G04 #@! TO.N,/OUTPUT/LO_Z_REF*
X171550000Y-106400000D03*
X157350000Y-144900000D03*
X154600000Y-156800000D03*
G04 #@! TO.N,Net-(JP4-Pad1)*
X107250000Y-119250000D03*
G04 #@! TO.N,Net-(Q1-Pad1)*
X118850000Y-77050000D03*
G04 #@! TO.N,Net-(Q2-Pad1)*
X120750000Y-78050000D03*
G04 #@! TO.N,Net-(R1-Pad2)*
X103684205Y-120515795D03*
G04 #@! TO.N,Net-(R1-Pad1)*
X93050000Y-116950000D03*
X103250000Y-106750000D03*
G04 #@! TO.N,Net-(R5-Pad1)*
X135200000Y-114150000D03*
G04 #@! TO.N,VFO_OUT*
X126992463Y-114307537D03*
G04 #@! TO.N,Net-(RV4-Pad2)*
X134900000Y-93550000D03*
G04 #@! TD*
D31*
G04 #@! TO.N,GND*
X101632233Y-127632233D02*
X98267767Y-127632233D01*
X98267767Y-127632233D02*
X96400000Y-129500000D01*
G04 #@! TO.N,+5V*
X145995327Y-110639702D02*
X148795470Y-113439845D01*
X92440381Y-71859619D02*
X90700000Y-73600000D01*
X90700000Y-73600000D02*
X90700000Y-74750000D01*
X90700000Y-74750000D02*
X91650000Y-75700000D01*
X91011846Y-134788154D02*
X91823692Y-135600000D01*
X91823692Y-135600000D02*
X94700000Y-138476308D01*
X197378532Y-144267559D02*
X197217559Y-144267559D01*
X197217559Y-144267559D02*
X194500000Y-141550000D01*
X177500000Y-130700000D02*
X178850000Y-132050000D01*
X178850000Y-132050000D02*
X180350000Y-132050000D01*
X180350000Y-132050000D02*
X183400000Y-129000000D01*
X183400000Y-129000000D02*
X187550000Y-129000000D01*
X177500000Y-130700000D02*
X173700000Y-134500000D01*
X173700000Y-134500000D02*
X173700000Y-136650000D01*
G04 #@! TO.N,/MAIN_VFO/TRIANGLE*
X103500000Y-110700000D02*
X103700000Y-110700000D01*
X103700000Y-110700000D02*
X106500000Y-113500000D01*
G04 #@! TO.N,Net-(C2-Pad2)*
X105267767Y-108932233D02*
X105632233Y-108932233D01*
X105632233Y-108932233D02*
X108400000Y-111700000D01*
X127859045Y-61336792D02*
X129422253Y-62900000D01*
X129422253Y-62900000D02*
X133050000Y-62900000D01*
X133050000Y-62900000D02*
X134450000Y-61500000D01*
X127859045Y-61359045D02*
X127800000Y-61300000D01*
X127850000Y-83150000D02*
X127850000Y-61250000D01*
G04 #@! TO.N,VDD_BAT*
X112585786Y-40835786D02*
X108500000Y-44921572D01*
X108500000Y-44921572D02*
X108500000Y-58200000D01*
X108500000Y-58200000D02*
X110500000Y-60200000D01*
X110500000Y-60150000D02*
X98450000Y-60150000D01*
X98450000Y-60150000D02*
X97200000Y-61400000D01*
X97200000Y-61350000D02*
X99050000Y-63200000D01*
X99050000Y-63200000D02*
X99050000Y-65300000D01*
X99050000Y-65300000D02*
X97300000Y-67050000D01*
X106900000Y-35400000D02*
X111250000Y-35400000D01*
X111250000Y-35400000D02*
X114050000Y-38200000D01*
X114050000Y-38200000D02*
X114050000Y-39450000D01*
X114050000Y-39450000D02*
X112600000Y-40900000D01*
G04 #@! TO.N,HI_Z_REF*
X114950000Y-107350000D02*
X113950000Y-106350000D01*
X111381590Y-110950000D02*
X113250000Y-110950000D01*
X113250000Y-110950000D02*
X114950000Y-109250000D01*
X110315795Y-109884205D02*
X111381590Y-110950000D01*
X192700000Y-112300000D02*
X192700000Y-117950000D01*
X192700000Y-117950000D02*
X192800000Y-118050000D01*
X192800000Y-118050000D02*
X196100000Y-118050000D01*
X196100000Y-118050000D02*
X198650000Y-115500000D01*
X192700000Y-112300000D02*
X189650000Y-112300000D01*
X189650000Y-112300000D02*
X186650000Y-115300000D01*
X164707898Y-134792102D02*
X157000000Y-127084204D01*
X157000000Y-127084204D02*
X157000000Y-109000000D01*
X157000000Y-109000000D02*
X154800000Y-106800000D01*
X154800000Y-106800000D02*
X147700000Y-106800000D01*
X127600000Y-103800000D02*
X122000000Y-103800000D01*
X122000000Y-103800000D02*
X118450000Y-107350000D01*
X115000000Y-107800000D02*
X115450000Y-107350000D01*
X115450000Y-107350000D02*
X114950000Y-107350000D01*
X114950000Y-107800000D02*
X115000000Y-107800000D01*
X118450000Y-107350000D02*
X115450000Y-107350000D01*
X114950000Y-107800000D02*
X114950000Y-107350000D01*
X114950000Y-109250000D02*
X114950000Y-107800000D01*
X127600000Y-103800000D02*
X127650000Y-103800000D01*
X127650000Y-103800000D02*
X131450000Y-107600000D01*
G04 #@! TO.N,/MAIN_VFO/DISCHARGE*
X109450000Y-138800000D02*
X123400000Y-138800000D01*
X123400000Y-138800000D02*
X131450000Y-130750000D01*
X86850000Y-123250000D02*
X86850000Y-136700000D01*
X86850000Y-136700000D02*
X93400000Y-143250000D01*
X93400000Y-143250000D02*
X97800000Y-143250000D01*
X97800000Y-143250000D02*
X101300000Y-139750000D01*
X101300000Y-139750000D02*
X101300000Y-138050000D01*
X101300000Y-138050000D02*
X99950000Y-136700000D01*
G04 #@! TO.N,Net-(D1-Pad2)*
X110500000Y-66460000D02*
X109990000Y-65950000D01*
X110500000Y-66460000D02*
X110910000Y-66050000D01*
X110910000Y-66050000D02*
X116900000Y-66050000D01*
G04 #@! TO.N,Net-(D2-Pad2)*
X137984205Y-85834205D02*
X149315795Y-85834205D01*
X149315795Y-85834205D02*
X149350000Y-85800000D01*
G04 #@! TO.N,/OUTPUT/OUTPUT*
X168300000Y-156700000D02*
X160500000Y-148900000D01*
X160500000Y-148900000D02*
X143850000Y-148900000D01*
X143850000Y-148900000D02*
X136500000Y-141550000D01*
X136500000Y-141550000D02*
X136500000Y-135050000D01*
X154600000Y-110350000D02*
X154500000Y-110250000D01*
X154600000Y-118000000D02*
X147350000Y-125250000D01*
X154600000Y-118000000D02*
X154600000Y-110350000D01*
X147350000Y-125250000D02*
X147350000Y-129900000D01*
X146000000Y-131250000D02*
X140300000Y-131250000D01*
X147350000Y-129900000D02*
X146000000Y-131250000D01*
X136500000Y-135050000D02*
X140300000Y-131250000D01*
G04 #@! TO.N,/OUTPUT/LO_Z_REF*
X175740738Y-118480940D02*
X177190307Y-119930509D01*
X177190307Y-119930509D02*
X177190307Y-122334672D01*
X177190307Y-122334672D02*
X174220458Y-125304520D01*
X174262885Y-125205525D02*
X171604163Y-127864247D01*
X171604163Y-127864247D02*
X171604163Y-127920815D01*
X171604163Y-127920815D02*
X171579185Y-127920815D01*
X171579185Y-127920815D02*
X168400000Y-131100000D01*
X168300000Y-131200000D02*
X168300000Y-134000000D01*
X168300000Y-134000000D02*
X157400000Y-144900000D01*
X157400000Y-144900000D02*
X157350000Y-144900000D01*
X154600000Y-156800000D02*
X157600000Y-159800000D01*
X157600000Y-159800000D02*
X157600000Y-162450000D01*
X171550000Y-106400000D02*
X171550000Y-98950000D01*
X171550000Y-98950000D02*
X168000000Y-95400000D01*
G04 #@! TO.N,Net-(JP1-Pad2)*
X135409619Y-60490381D02*
X136500000Y-59400000D01*
X136500000Y-59400000D02*
X136500000Y-55650000D01*
X136500000Y-55650000D02*
X135050000Y-54200000D01*
X139950000Y-46800000D02*
X138450000Y-45300000D01*
X140550000Y-54150000D02*
X135000000Y-54150000D01*
X135043250Y-54106750D02*
X139950000Y-49200000D01*
X135043250Y-54152587D02*
X135043250Y-54106750D01*
X139950000Y-49200000D02*
X139950000Y-46800000D01*
G04 #@! TO.N,Net-(JP2-Pad2)*
X96390381Y-67959619D02*
X93350000Y-71000000D01*
X93359619Y-70940381D02*
X100119238Y-77700000D01*
X100119238Y-77700000D02*
X102800000Y-77700000D01*
G04 #@! TO.N,Net-(JP4-Pad1)*
X89683414Y-109954558D02*
X86543860Y-106815004D01*
X86543860Y-106815004D02*
X86543860Y-103901724D01*
X86543860Y-103901724D02*
X88382338Y-102063247D01*
X89683414Y-109954560D02*
X89495440Y-109954560D01*
X89495440Y-109954560D02*
X84500000Y-114950000D01*
X89683414Y-109954560D02*
X93404560Y-109954560D01*
X93404560Y-109954560D02*
X102600000Y-119150000D01*
X102600000Y-119150000D02*
X107150000Y-119150000D01*
X107150000Y-119150000D02*
X107250000Y-119250000D01*
G04 #@! TO.N,Net-(JP4-Pad2)*
X89336932Y-101108653D02*
X90645079Y-99800505D01*
X90645079Y-99800505D02*
X93897771Y-99800505D01*
X93897771Y-99800505D02*
X96867619Y-102770355D01*
X99809183Y-105768486D02*
X96867619Y-102826922D01*
X96867619Y-102826922D02*
X96867619Y-102770355D01*
X96867619Y-102770355D02*
X99100000Y-100537974D01*
X99100000Y-100537974D02*
X99100000Y-96450000D01*
X112111846Y-118864461D02*
X108964461Y-118864461D01*
X108964461Y-118864461D02*
X99800000Y-109700000D01*
X99800000Y-109700000D02*
X99800000Y-105800000D01*
G04 #@! TO.N,Net-(JP5-Pad1)*
X167078680Y-118021320D02*
X169836396Y-115263604D01*
X169836396Y-115263604D02*
X172381981Y-115263604D01*
X172381981Y-115263604D02*
X172523402Y-115263604D01*
X172523402Y-115263604D02*
X174786144Y-117526346D01*
G04 #@! TO.N,Net-(JP6-Pad1)*
X188440702Y-146608083D02*
X191226702Y-143822082D01*
X191226702Y-143822082D02*
X191226702Y-143772583D01*
X188157859Y-146926279D02*
X185287006Y-149797134D01*
X185287006Y-149797134D02*
X185287006Y-149853701D01*
X162640381Y-144640381D02*
X161650000Y-143650000D01*
X161650000Y-143650000D02*
X161650000Y-142900000D01*
X161650000Y-142900000D02*
X167400000Y-137150000D01*
X167400000Y-137150000D02*
X170600000Y-137150000D01*
X170600000Y-137150000D02*
X171750000Y-138300000D01*
G04 #@! TO.N,Net-(JP6-Pad2)*
X151359602Y-143433581D02*
X148509603Y-143433581D01*
X148509603Y-143433581D02*
X146909602Y-141833580D01*
X146909602Y-141833580D02*
X146909602Y-138033581D01*
X146949602Y-138033580D02*
X146949602Y-133973581D01*
X146949602Y-133973581D02*
X146909602Y-133933581D01*
X173478323Y-143277608D02*
X173478323Y-145257507D01*
X177013856Y-139742074D02*
X173478323Y-143277608D01*
X180973654Y-139742074D02*
X177013856Y-139742074D01*
X180973654Y-136065119D02*
X180973654Y-139742074D01*
X180973654Y-135499434D02*
X180973654Y-136065119D01*
X187309331Y-131511351D02*
X184961737Y-131511351D01*
X184961737Y-131511351D02*
X180973654Y-135499434D01*
X163559619Y-145559619D02*
X164400000Y-146400000D01*
X164400000Y-146400000D02*
X165850000Y-146400000D01*
X165850000Y-146400000D02*
X167500000Y-148050000D01*
X167500000Y-148050000D02*
X169200000Y-148050000D01*
X169200000Y-148050000D02*
X170150000Y-147100000D01*
X170150000Y-147100000D02*
X170150000Y-146250000D01*
X170150000Y-146250000D02*
X171200000Y-145200000D01*
X171200000Y-145200000D02*
X173550000Y-145200000D01*
X151359601Y-143433581D02*
X151359601Y-145109601D01*
X151359601Y-145109601D02*
X152900000Y-146650000D01*
X152900000Y-146650000D02*
X162400000Y-146650000D01*
X162400000Y-146650000D02*
X163500000Y-145550000D01*
G04 #@! TO.N,Net-(JP7-Pad1)*
X157109602Y-138033580D02*
X157109602Y-141233581D01*
X157109602Y-141233581D02*
X154909602Y-143433581D01*
X154909602Y-143433581D02*
X152609601Y-143433581D01*
G04 #@! TO.N,Net-(LS1-Pad1)*
X162950000Y-95400000D02*
X156500000Y-95400000D01*
X156500000Y-95400000D02*
X152700000Y-99200000D01*
X152700000Y-99200000D02*
X152700000Y-101000000D01*
G04 #@! TO.N,Net-(Q1-Pad2)*
X106314008Y-83445588D02*
X106381926Y-83377670D01*
X106381926Y-83377670D02*
X111620101Y-83377670D01*
G04 #@! TO.N,Net-(Q1-Pad3)*
X79767767Y-86832233D02*
X85735534Y-92800000D01*
X85735534Y-92800000D02*
X97050000Y-92800000D01*
X97050000Y-92800000D02*
X105000000Y-84850000D01*
X121300000Y-98900000D02*
X121300000Y-98950000D01*
X121300000Y-98950000D02*
X117550000Y-102700000D01*
X121300000Y-98900000D02*
X122250000Y-97950000D01*
X122250000Y-97950000D02*
X122250000Y-87550000D01*
G04 #@! TO.N,Net-(Q2-Pad1)*
X136600000Y-47700000D02*
X136600000Y-47050000D01*
G04 #@! TO.N,Net-(Q1-Pad1)*
X120000000Y-75900000D02*
X118850000Y-77050000D01*
X138000000Y-43400000D02*
X134600000Y-46800000D01*
X120000000Y-65100000D02*
X120000000Y-75900000D01*
X134600000Y-50500000D02*
X120000000Y-65100000D01*
X134600000Y-46800000D02*
X134600000Y-50500000D01*
X140300000Y-43400000D02*
X138000000Y-43400000D01*
G04 #@! TO.N,Net-(Q2-Pad1)*
X120750000Y-71200000D02*
X120750000Y-65450000D01*
X120750000Y-78050000D02*
X120750000Y-71200000D01*
X120750000Y-65450000D02*
X136700000Y-49500000D01*
X136700000Y-49500000D02*
X136700000Y-47100000D01*
G04 #@! TO.N,Net-(Q3-Pad1)*
X189105382Y-133307403D02*
X190166043Y-134368064D01*
X190166043Y-134368064D02*
X190166043Y-137055069D01*
G04 #@! TO.N,Net-(Q4-Pad1)*
X175316800Y-147095985D02*
X177367410Y-149146595D01*
X177367410Y-149146595D02*
X178781623Y-149146595D01*
G04 #@! TO.N,Net-(R1-Pad2)*
X89384205Y-120515795D02*
X103684205Y-120515795D01*
G04 #@! TO.N,Net-(R1-Pad1)*
X111549390Y-93608380D02*
X111571728Y-93630718D01*
X111571728Y-93630718D02*
X116781981Y-93630718D01*
X82200000Y-127700000D02*
X82200000Y-123150000D01*
X82200000Y-123150000D02*
X88400000Y-116950000D01*
X88400000Y-116950000D02*
X93050000Y-116950000D01*
X103250000Y-106750000D02*
X103250000Y-96900000D01*
X103250000Y-96900000D02*
X106600000Y-93550000D01*
G04 #@! TO.N,Net-(R5-Pad1)*
X138811122Y-117823907D02*
X141639549Y-120652334D01*
X141568838Y-120581623D02*
X144397265Y-123410051D01*
X138648528Y-123551472D02*
X141600000Y-120600000D01*
X144354839Y-123452477D02*
X144354839Y-128354839D01*
X144354839Y-128354839D02*
X144500000Y-128500000D01*
X138811122Y-117823907D02*
X138811122Y-117761122D01*
X138811122Y-117761122D02*
X135200000Y-114150000D01*
G04 #@! TO.N,Net-(R8-Pad1)*
X120150000Y-134850000D02*
X118150000Y-134850000D01*
X118150000Y-134850000D02*
X112400000Y-129100000D01*
G04 #@! TO.N,Net-(R8-Pad2)*
X127484205Y-116315795D02*
X127484205Y-116284205D01*
X127484205Y-116284205D02*
X121200000Y-110000000D01*
G04 #@! TO.N,VFO_OUT*
X168300000Y-141976307D02*
X168300000Y-146600000D01*
X158050000Y-152050000D02*
X144650000Y-152050000D01*
X144650000Y-152050000D02*
X131300000Y-138700000D01*
X126992463Y-114307537D02*
X126992463Y-112192463D01*
X126992463Y-112192463D02*
X122900000Y-108100000D01*
G04 #@! TO.N,Net-(RV4-Pad2)*
X134900000Y-93550000D02*
X153600000Y-93550000D01*
X153600000Y-93550000D02*
X157600000Y-89550000D01*
X157600000Y-89550000D02*
X176850000Y-89550000D01*
X180932233Y-97132233D02*
X182050000Y-96014466D01*
X176850000Y-89550000D02*
X182050000Y-94750000D01*
X182050000Y-96014466D02*
X182050000Y-94750000D01*
G04 #@! TO.N,Net-(Q3-Pad2)*
X183943503Y-136630805D02*
X187196194Y-133378113D01*
G04 #@! TO.N,Net-(Q4-Pad2)*
X173520749Y-147095985D02*
X173520749Y-147053558D01*
X173520749Y-147053558D02*
X178074517Y-142499792D01*
G04 #@! TD*
D32*
G04 #@! TO.N,+5V*
G36*
X186720483Y-33400089D02*
X136210109Y-84010286D01*
X136182619Y-84051515D01*
X136173000Y-84100125D01*
X136182715Y-84148717D01*
X136210197Y-84189803D01*
X136681427Y-84661033D01*
X136349871Y-85157242D01*
X136215215Y-85834205D01*
X136349871Y-86511168D01*
X136733340Y-87085070D01*
X137307242Y-87468539D01*
X137813325Y-87569205D01*
X138155085Y-87569205D01*
X138661168Y-87468539D01*
X139157377Y-87136983D01*
X141910197Y-89889803D01*
X141951399Y-89917333D01*
X142000000Y-89927000D01*
X142048601Y-89917333D01*
X142089891Y-89889714D01*
X145254147Y-86719205D01*
X147452682Y-86719205D01*
X147490034Y-86809380D01*
X148090620Y-87409966D01*
X148875322Y-87735000D01*
X149724678Y-87735000D01*
X150509380Y-87409966D01*
X151109966Y-86809380D01*
X151435000Y-86024678D01*
X151435000Y-85175322D01*
X151109966Y-84390620D01*
X150509380Y-83790034D01*
X149724678Y-83465000D01*
X148875322Y-83465000D01*
X148238795Y-83728658D01*
X152355995Y-79603321D01*
X159440374Y-79603321D01*
X159440374Y-80452677D01*
X159765408Y-81237379D01*
X160365994Y-81837965D01*
X161150696Y-82162999D01*
X162000052Y-82162999D01*
X162784754Y-81837965D01*
X163385340Y-81237379D01*
X163710374Y-80452677D01*
X163710374Y-79603321D01*
X163385340Y-78818619D01*
X162784754Y-78218033D01*
X162000052Y-77892999D01*
X161150696Y-77892999D01*
X160365994Y-78218033D01*
X159765408Y-78818619D01*
X159440374Y-79603321D01*
X152355995Y-79603321D01*
X171318480Y-60603361D01*
X178440333Y-60603361D01*
X178440333Y-61452717D01*
X178765367Y-62237419D01*
X179365953Y-62838005D01*
X180150655Y-63163039D01*
X181000011Y-63163039D01*
X181784713Y-62838005D01*
X182385299Y-62237419D01*
X182710333Y-61452717D01*
X182710333Y-60603361D01*
X182385299Y-59818659D01*
X181784713Y-59218073D01*
X181000011Y-58893039D01*
X180150655Y-58893039D01*
X179365953Y-59218073D01*
X178765367Y-59818659D01*
X178440333Y-60603361D01*
X171318480Y-60603361D01*
X192599632Y-39280152D01*
X202220849Y-48999545D01*
X162555394Y-88665000D01*
X157687159Y-88665000D01*
X157599999Y-88647663D01*
X157512839Y-88665000D01*
X157512835Y-88665000D01*
X157254690Y-88716348D01*
X157166912Y-88775000D01*
X157035845Y-88862576D01*
X157035844Y-88862577D01*
X156961951Y-88911951D01*
X156912577Y-88985844D01*
X153233422Y-92665000D01*
X135761553Y-92665000D01*
X135599571Y-92503018D01*
X135145657Y-92315000D01*
X134654343Y-92315000D01*
X134200429Y-92503018D01*
X133853018Y-92850429D01*
X133665000Y-93304343D01*
X133665000Y-93795657D01*
X133853018Y-94249571D01*
X134200429Y-94596982D01*
X134654343Y-94785000D01*
X135145657Y-94785000D01*
X135599571Y-94596982D01*
X135761553Y-94435000D01*
X153512839Y-94435000D01*
X153600000Y-94452337D01*
X153687161Y-94435000D01*
X153687165Y-94435000D01*
X153945310Y-94383652D01*
X154238049Y-94188049D01*
X154287425Y-94114153D01*
X157966579Y-90435000D01*
X160785394Y-90435000D01*
X156705394Y-94515000D01*
X156587161Y-94515000D01*
X156500000Y-94497663D01*
X156412839Y-94515000D01*
X156412835Y-94515000D01*
X156154690Y-94566348D01*
X155935845Y-94712576D01*
X155935844Y-94712577D01*
X155861951Y-94761951D01*
X155812577Y-94835844D01*
X152135847Y-98512575D01*
X152061951Y-98561951D01*
X151866348Y-98854691D01*
X151815000Y-99112836D01*
X151815000Y-99112839D01*
X151797663Y-99200000D01*
X151815000Y-99287161D01*
X151815000Y-99405394D01*
X151710197Y-99510197D01*
X151682667Y-99551399D01*
X151673000Y-99600000D01*
X151682667Y-99648601D01*
X151710197Y-99689803D01*
X151815000Y-99794606D01*
X151815000Y-99801017D01*
X151645227Y-99970791D01*
X151436563Y-99762127D01*
X150923107Y-99549447D01*
X150367345Y-99549447D01*
X149853889Y-99762127D01*
X149763518Y-99852499D01*
X149471380Y-99560361D01*
X148870449Y-99311447D01*
X148220005Y-99311447D01*
X147619074Y-99560361D01*
X147159141Y-100020294D01*
X146910227Y-100621225D01*
X146910227Y-101271669D01*
X147159141Y-101872600D01*
X147619074Y-102332533D01*
X148220005Y-102581447D01*
X148870449Y-102581447D01*
X149471380Y-102332533D01*
X149763518Y-102040396D01*
X149853889Y-102130767D01*
X150367345Y-102343447D01*
X150923107Y-102343447D01*
X151436563Y-102130767D01*
X151645227Y-101922104D01*
X151853890Y-102130767D01*
X152367346Y-102343447D01*
X152923108Y-102343447D01*
X153436564Y-102130767D01*
X153645228Y-101922104D01*
X153853891Y-102130767D01*
X154361362Y-102340968D01*
X160310197Y-108289803D01*
X160351399Y-108317333D01*
X160400000Y-108327000D01*
X160448601Y-108317333D01*
X160489803Y-108289803D01*
X170064014Y-98715592D01*
X170665001Y-99316580D01*
X170665000Y-105538447D01*
X170503018Y-105700429D01*
X170315000Y-106154343D01*
X170315000Y-106645657D01*
X170503018Y-107099571D01*
X170850429Y-107446982D01*
X171304343Y-107635000D01*
X171795657Y-107635000D01*
X172249571Y-107446982D01*
X172596982Y-107099571D01*
X172785000Y-106645657D01*
X172785000Y-106154343D01*
X172596982Y-105700429D01*
X172435000Y-105538447D01*
X172435000Y-105074778D01*
X175765000Y-105074778D01*
X175765000Y-105725222D01*
X176013914Y-106326153D01*
X176473847Y-106786086D01*
X177074778Y-107035000D01*
X177725222Y-107035000D01*
X178326153Y-106786086D01*
X178786086Y-106326153D01*
X179035000Y-105725222D01*
X179035000Y-105074778D01*
X178786086Y-104473847D01*
X178326153Y-104013914D01*
X177725222Y-103765000D01*
X177074778Y-103765000D01*
X176473847Y-104013914D01*
X176013914Y-104473847D01*
X175765000Y-105074778D01*
X172435000Y-105074778D01*
X172435000Y-101790959D01*
X191308086Y-101790959D01*
X191429371Y-102013000D01*
X192573000Y-102013000D01*
X192573000Y-100870085D01*
X192827000Y-100870085D01*
X192827000Y-102013000D01*
X193970629Y-102013000D01*
X194091914Y-101790959D01*
X193852389Y-101284866D01*
X193437423Y-100908959D01*
X193049039Y-100748096D01*
X192827000Y-100870085D01*
X192573000Y-100870085D01*
X192350961Y-100748096D01*
X191962577Y-100908959D01*
X191547611Y-101284866D01*
X191308086Y-101790959D01*
X172435000Y-101790959D01*
X172435000Y-99269460D01*
X181179161Y-99269460D01*
X181436314Y-99823336D01*
X181885852Y-100236643D01*
X182330540Y-100420839D01*
X182573000Y-100300576D01*
X182573000Y-99027000D01*
X182827000Y-99027000D01*
X182827000Y-100300576D01*
X183069460Y-100420839D01*
X183623336Y-100163686D01*
X184036643Y-99714148D01*
X184220839Y-99269460D01*
X184100576Y-99027000D01*
X182827000Y-99027000D01*
X182573000Y-99027000D01*
X181299424Y-99027000D01*
X181179161Y-99269460D01*
X172435000Y-99269460D01*
X172435000Y-99037159D01*
X172452337Y-98949999D01*
X172435000Y-98862839D01*
X172435000Y-98862835D01*
X172383652Y-98604690D01*
X172188049Y-98311951D01*
X172114156Y-98262577D01*
X171315592Y-97464014D01*
X177414014Y-91365592D01*
X181165001Y-95116580D01*
X181165000Y-95597233D01*
X180699466Y-95597233D01*
X180699466Y-95059136D01*
X180465776Y-94494959D01*
X180033973Y-94063156D01*
X179469796Y-93829466D01*
X178859136Y-93829466D01*
X178294959Y-94063156D01*
X177863156Y-94494959D01*
X177629466Y-95059136D01*
X177629466Y-95669796D01*
X177863156Y-96233973D01*
X178294959Y-96665776D01*
X178859136Y-96899466D01*
X179397233Y-96899466D01*
X179397233Y-97437563D01*
X179630923Y-98001740D01*
X180062726Y-98433543D01*
X180626903Y-98667233D01*
X181237563Y-98667233D01*
X181245360Y-98664003D01*
X181299424Y-98773000D01*
X182393392Y-98773000D01*
X182506251Y-98885859D01*
X182685859Y-98706251D01*
X182573000Y-98593392D01*
X182573000Y-97499424D01*
X182827000Y-97499424D01*
X182827000Y-98773000D01*
X184100576Y-98773000D01*
X184220839Y-98530540D01*
X183963686Y-97976664D01*
X183514148Y-97563357D01*
X183069460Y-97379161D01*
X182827000Y-97499424D01*
X182573000Y-97499424D01*
X182464003Y-97445360D01*
X182467233Y-97437563D01*
X182467233Y-96848812D01*
X182614156Y-96701889D01*
X182688049Y-96652515D01*
X182753414Y-96554691D01*
X182883651Y-96359777D01*
X182883652Y-96359776D01*
X182935000Y-96101631D01*
X182935000Y-96101627D01*
X182952337Y-96014467D01*
X182935000Y-95927307D01*
X182935000Y-94837161D01*
X182948434Y-94769621D01*
X186358250Y-94769621D01*
X186358250Y-95817889D01*
X186759405Y-96786363D01*
X187500642Y-97527600D01*
X188469116Y-97928755D01*
X189517384Y-97928755D01*
X190485858Y-97527600D01*
X191227095Y-96786363D01*
X191628250Y-95817889D01*
X191628250Y-94769621D01*
X191227095Y-93801147D01*
X190485858Y-93059910D01*
X189517384Y-92658755D01*
X188469116Y-92658755D01*
X187500642Y-93059910D01*
X186759405Y-93801147D01*
X186358250Y-94769621D01*
X182948434Y-94769621D01*
X182952337Y-94750000D01*
X182935000Y-94662839D01*
X182935000Y-94662835D01*
X182883652Y-94404690D01*
X182771888Y-94237424D01*
X182737424Y-94185845D01*
X182737423Y-94185844D01*
X182688049Y-94111951D01*
X182614156Y-94062577D01*
X178665592Y-90114014D01*
X180135711Y-88643895D01*
X180135711Y-89595350D01*
X180536866Y-90563824D01*
X181278103Y-91305061D01*
X182246577Y-91706216D01*
X183294845Y-91706216D01*
X184263319Y-91305061D01*
X185004556Y-90563824D01*
X185405711Y-89595350D01*
X185405711Y-88547082D01*
X185004556Y-87578608D01*
X184263319Y-86837371D01*
X183294845Y-86436216D01*
X182343390Y-86436216D01*
X185598268Y-83181338D01*
X193201809Y-91081122D01*
X194396161Y-92773120D01*
X195792873Y-94768424D01*
X197587420Y-97859031D01*
X199182564Y-101248713D01*
X200478916Y-104838611D01*
X201476122Y-108428553D01*
X202174049Y-112217299D01*
X202373000Y-114405756D01*
X202373000Y-119595474D01*
X202173785Y-122384486D01*
X201475894Y-126372433D01*
X200478359Y-130063313D01*
X199381666Y-133353391D01*
X197786707Y-136842364D01*
X195992575Y-140031932D01*
X193799705Y-143121885D01*
X190908116Y-146512025D01*
X188016007Y-149204678D01*
X186571273Y-150408623D01*
X186610462Y-150349972D01*
X186721835Y-149790063D01*
X186692605Y-149643113D01*
X187981421Y-148354296D01*
X188016526Y-148361279D01*
X188299192Y-148361279D01*
X188717768Y-148278019D01*
X189192436Y-147960856D01*
X189509599Y-147486188D01*
X189620972Y-146926279D01*
X189580011Y-146720352D01*
X191050353Y-145250010D01*
X191269041Y-145250010D01*
X191687617Y-145166750D01*
X192162285Y-144849587D01*
X192479448Y-144374919D01*
X192590821Y-143815010D01*
X192479448Y-143255101D01*
X192162285Y-142780433D01*
X191687617Y-142463270D01*
X191269041Y-142380010D01*
X190986375Y-142380010D01*
X190567799Y-142463270D01*
X190093131Y-142780433D01*
X189775968Y-143255101D01*
X189664595Y-143815010D01*
X189717288Y-144079917D01*
X188304810Y-145492397D01*
X188299192Y-145491279D01*
X188016526Y-145491279D01*
X187597950Y-145574539D01*
X187123282Y-145891702D01*
X186806119Y-146366370D01*
X186694746Y-146926279D01*
X186729842Y-147102718D01*
X185464649Y-148367912D01*
X185400055Y-148355063D01*
X185117389Y-148355063D01*
X184698813Y-148438323D01*
X184224145Y-148755486D01*
X183906982Y-149230154D01*
X183795609Y-149790063D01*
X183906982Y-150349972D01*
X184224145Y-150824640D01*
X184698813Y-151141803D01*
X185117389Y-151225063D01*
X185400055Y-151225063D01*
X185651583Y-151175031D01*
X185025610Y-151696675D01*
X181635576Y-153790520D01*
X179143972Y-155185818D01*
X175154402Y-156881385D01*
X172265052Y-157877713D01*
X168776025Y-158675205D01*
X165586358Y-159173590D01*
X160597705Y-159472909D01*
X158411038Y-159420846D01*
X158238049Y-159161951D01*
X158164156Y-159112577D01*
X155835000Y-156783422D01*
X155835000Y-156554343D01*
X155646982Y-156100429D01*
X155299571Y-155753018D01*
X154845657Y-155565000D01*
X154354343Y-155565000D01*
X153900429Y-155753018D01*
X153553018Y-156100429D01*
X153365000Y-156554343D01*
X153365000Y-157045657D01*
X153553018Y-157499571D01*
X153900429Y-157846982D01*
X154354343Y-158035000D01*
X154583422Y-158035000D01*
X155836563Y-159288142D01*
X153721309Y-158974770D01*
X151128043Y-158476065D01*
X148834728Y-157877809D01*
X146243485Y-157080504D01*
X141756234Y-155185887D01*
X138066650Y-153091799D01*
X135674694Y-151497161D01*
X133783560Y-150004161D01*
X133080613Y-149328250D01*
X133730379Y-149328250D01*
X134698853Y-148927095D01*
X135440090Y-148185858D01*
X135841245Y-147217384D01*
X135841245Y-146169116D01*
X135440090Y-145200642D01*
X134698853Y-144459405D01*
X133730379Y-144058250D01*
X132682111Y-144058250D01*
X131713637Y-144459405D01*
X130972400Y-145200642D01*
X130571245Y-146169116D01*
X130571245Y-146915396D01*
X126081384Y-142598222D01*
X128065000Y-140614606D01*
X128065000Y-140705330D01*
X128298690Y-141269507D01*
X128730493Y-141701310D01*
X129294670Y-141935000D01*
X129905330Y-141935000D01*
X130469507Y-141701310D01*
X130901310Y-141269507D01*
X131135000Y-140705330D01*
X131135000Y-140167233D01*
X131515655Y-140167233D01*
X143962577Y-152614156D01*
X144011951Y-152688049D01*
X144085844Y-152737423D01*
X144085845Y-152737424D01*
X144141586Y-152774669D01*
X144304690Y-152883652D01*
X144562835Y-152935000D01*
X144562840Y-152935000D01*
X144649999Y-152952337D01*
X144737159Y-152935000D01*
X156646868Y-152935000D01*
X156663914Y-152976153D01*
X157123847Y-153436086D01*
X157724778Y-153685000D01*
X158375222Y-153685000D01*
X158976153Y-153436086D01*
X159436086Y-152976153D01*
X159685000Y-152375222D01*
X159685000Y-151724778D01*
X159436086Y-151123847D01*
X158976153Y-150663914D01*
X158375222Y-150415000D01*
X157724778Y-150415000D01*
X157123847Y-150663914D01*
X156663914Y-151123847D01*
X156646868Y-151165000D01*
X145016579Y-151165000D01*
X143605229Y-149753650D01*
X143762835Y-149785000D01*
X143762839Y-149785000D01*
X143850000Y-149802337D01*
X143937161Y-149785000D01*
X160133422Y-149785000D01*
X166865000Y-156516579D01*
X166865000Y-156985439D01*
X167083466Y-157512862D01*
X167487138Y-157916534D01*
X168014561Y-158135000D01*
X168585439Y-158135000D01*
X169112862Y-157916534D01*
X169516534Y-157512862D01*
X169735000Y-156985439D01*
X169735000Y-156414561D01*
X169516534Y-155887138D01*
X169112862Y-155483466D01*
X168585439Y-155265000D01*
X168116579Y-155265000D01*
X161187425Y-148335847D01*
X161138049Y-148261951D01*
X160845310Y-148066348D01*
X160587165Y-148015000D01*
X160587161Y-148015000D01*
X160500000Y-147997663D01*
X160412839Y-148015000D01*
X144216579Y-148015000D01*
X139307289Y-143105711D01*
X139952918Y-143105711D01*
X140921392Y-142704556D01*
X141537894Y-142088054D01*
X145073563Y-142088054D01*
X145078616Y-142137349D01*
X145102149Y-142180958D01*
X145140578Y-142212241D01*
X147044804Y-143220361D01*
X147822180Y-143997737D01*
X147871554Y-144071630D01*
X147945447Y-144121004D01*
X147945448Y-144121005D01*
X147966393Y-144135000D01*
X148164293Y-144267233D01*
X148422438Y-144318581D01*
X148422442Y-144318581D01*
X148509602Y-144335918D01*
X148596762Y-144318581D01*
X149263431Y-144318581D01*
X150474602Y-144830999D01*
X150474602Y-145022436D01*
X150457264Y-145109601D01*
X150525949Y-145454910D01*
X150672177Y-145673755D01*
X150672179Y-145673757D01*
X150721553Y-145747650D01*
X150795446Y-145797024D01*
X152212577Y-147214156D01*
X152261951Y-147288049D01*
X152335844Y-147337423D01*
X152335845Y-147337424D01*
X152366349Y-147357806D01*
X152554690Y-147483652D01*
X152812835Y-147535000D01*
X152812839Y-147535000D01*
X152899999Y-147552337D01*
X152987159Y-147535000D01*
X162312839Y-147535000D01*
X162400000Y-147552337D01*
X162487161Y-147535000D01*
X162487165Y-147535000D01*
X162745310Y-147483652D01*
X163038049Y-147288049D01*
X163087425Y-147214153D01*
X163420150Y-146881428D01*
X163431850Y-146881428D01*
X163558156Y-146868988D01*
X163607579Y-146859157D01*
X163712577Y-146964156D01*
X163761951Y-147038049D01*
X163835844Y-147087423D01*
X163835845Y-147087424D01*
X163906633Y-147134723D01*
X164054690Y-147233652D01*
X164312835Y-147285000D01*
X164312839Y-147285000D01*
X164399999Y-147302337D01*
X164487159Y-147285000D01*
X165483422Y-147285000D01*
X166812577Y-148614156D01*
X166861951Y-148688049D01*
X166935844Y-148737423D01*
X166935845Y-148737424D01*
X166962877Y-148755486D01*
X167154690Y-148883652D01*
X167412835Y-148935000D01*
X167412839Y-148935000D01*
X167499999Y-148952337D01*
X167587159Y-148935000D01*
X169112839Y-148935000D01*
X169200000Y-148952337D01*
X169287161Y-148935000D01*
X169287165Y-148935000D01*
X169545310Y-148883652D01*
X169838049Y-148688049D01*
X169887425Y-148614153D01*
X170714156Y-147787423D01*
X170788049Y-147738049D01*
X170866889Y-147620058D01*
X170983652Y-147445310D01*
X170992890Y-147398867D01*
X171035000Y-147187165D01*
X171035000Y-147187161D01*
X171052337Y-147100000D01*
X171035000Y-147012839D01*
X171035000Y-146616578D01*
X171566579Y-146085000D01*
X172488550Y-146085000D01*
X172601510Y-146197960D01*
X172431378Y-146368091D01*
X172235749Y-146840383D01*
X172235749Y-147351587D01*
X172431378Y-147823879D01*
X172792855Y-148185356D01*
X173265147Y-148380985D01*
X173776351Y-148380985D01*
X174248643Y-148185356D01*
X174409979Y-148024021D01*
X174858991Y-148473033D01*
X175069035Y-148613381D01*
X175316800Y-148662664D01*
X175564565Y-148613381D01*
X175575387Y-148606150D01*
X176679987Y-149710751D01*
X176729361Y-149784644D01*
X176803254Y-149834018D01*
X176803255Y-149834019D01*
X176914290Y-149908210D01*
X177022100Y-149980247D01*
X177280245Y-150031595D01*
X177280249Y-150031595D01*
X177367409Y-150048932D01*
X177454569Y-150031595D01*
X177637227Y-150031595D01*
X177968761Y-150363129D01*
X178496184Y-150581595D01*
X179067062Y-150581595D01*
X179594485Y-150363129D01*
X179998157Y-149959457D01*
X180216623Y-149432034D01*
X180216623Y-148861156D01*
X179998157Y-148333733D01*
X179594485Y-147930061D01*
X179067062Y-147711595D01*
X178496184Y-147711595D01*
X177968761Y-147930061D01*
X177685608Y-148213214D01*
X176826965Y-147354572D01*
X176834196Y-147343750D01*
X176883479Y-147095985D01*
X176834196Y-146848220D01*
X176693848Y-146638176D01*
X175940779Y-145885107D01*
X177786215Y-144039672D01*
X177789078Y-144040858D01*
X178359956Y-144040858D01*
X178887379Y-143822392D01*
X179291051Y-143418720D01*
X179509517Y-142891297D01*
X179509517Y-142320419D01*
X179291051Y-141792996D01*
X178887379Y-141389324D01*
X178359956Y-141170858D01*
X177789078Y-141170858D01*
X177261655Y-141389324D01*
X176857983Y-141792996D01*
X176639517Y-142320419D01*
X176639517Y-142683213D01*
X174651292Y-144671438D01*
X174610120Y-144572040D01*
X174363323Y-144325243D01*
X174363323Y-143644186D01*
X175815009Y-142192500D01*
X175961677Y-142111018D01*
X175974932Y-142102539D01*
X177993989Y-140627074D01*
X179829258Y-140627074D01*
X180160792Y-140958608D01*
X180688215Y-141177074D01*
X181259093Y-141177074D01*
X181786516Y-140958608D01*
X182190188Y-140554936D01*
X182408654Y-140027513D01*
X182408654Y-139456635D01*
X182190188Y-138929212D01*
X181858654Y-138597678D01*
X181858654Y-137060579D01*
X182508503Y-136379785D01*
X182508503Y-136916244D01*
X182726969Y-137443667D01*
X183130641Y-137847339D01*
X183658064Y-138065805D01*
X184228942Y-138065805D01*
X184756365Y-137847339D01*
X185160037Y-137443667D01*
X185378503Y-136916244D01*
X185378503Y-136447383D01*
X187233483Y-134592403D01*
X187564933Y-134592403D01*
X188037225Y-134396774D01*
X188198561Y-134235439D01*
X188647573Y-134684451D01*
X188857617Y-134824799D01*
X189105382Y-134874082D01*
X189281043Y-134839141D01*
X189281044Y-135967731D01*
X189159750Y-136048777D01*
X188842587Y-136523445D01*
X188731214Y-137083354D01*
X188842587Y-137643263D01*
X189159750Y-138117931D01*
X189634418Y-138435094D01*
X190052994Y-138518354D01*
X190335660Y-138518354D01*
X190754236Y-138435094D01*
X191228904Y-138117931D01*
X191546067Y-137643263D01*
X191657440Y-137083354D01*
X191546067Y-136523445D01*
X191228904Y-136048777D01*
X191051043Y-135929934D01*
X191051043Y-134455223D01*
X191068380Y-134368063D01*
X191051043Y-134280903D01*
X191051043Y-134280899D01*
X190999695Y-134022754D01*
X190804092Y-133730015D01*
X190730199Y-133680641D01*
X190615547Y-133565989D01*
X190622778Y-133555168D01*
X190672061Y-133307403D01*
X190622778Y-133059638D01*
X190482430Y-132849594D01*
X189563191Y-131930355D01*
X189353147Y-131790007D01*
X189105382Y-131740724D01*
X188857617Y-131790007D01*
X188647573Y-131930355D01*
X188441142Y-132136786D01*
X188594331Y-131766954D01*
X188594331Y-131255750D01*
X188398702Y-130783458D01*
X188037225Y-130421981D01*
X187564933Y-130226352D01*
X187053729Y-130226352D01*
X186581437Y-130421981D01*
X186377067Y-130626351D01*
X186323354Y-130626351D01*
X187214663Y-128754602D01*
X187219601Y-128742715D01*
X187479656Y-128014561D01*
X191265000Y-128014561D01*
X191265000Y-128585439D01*
X191483466Y-129112862D01*
X191887138Y-129516534D01*
X192414561Y-129735000D01*
X192985439Y-129735000D01*
X193512862Y-129516534D01*
X193916534Y-129112862D01*
X194135000Y-128585439D01*
X194135000Y-128014561D01*
X193916534Y-127487138D01*
X193512862Y-127083466D01*
X192985439Y-126865000D01*
X192414561Y-126865000D01*
X191887138Y-127083466D01*
X191483466Y-127487138D01*
X191265000Y-128014561D01*
X187479656Y-128014561D01*
X188219601Y-125942715D01*
X188222971Y-125931735D01*
X189022971Y-122831735D01*
X189026223Y-122814025D01*
X189326223Y-120114025D01*
X189326653Y-120109382D01*
X189526653Y-117409382D01*
X189526899Y-117394924D01*
X189426899Y-114894924D01*
X189425405Y-114879935D01*
X189273162Y-113928417D01*
X190016579Y-113185000D01*
X191555604Y-113185000D01*
X191815000Y-113444396D01*
X191815001Y-117005478D01*
X191665423Y-117105423D01*
X191348260Y-117580091D01*
X191236887Y-118140000D01*
X191348260Y-118699909D01*
X191665423Y-119174577D01*
X192140091Y-119491740D01*
X192558667Y-119575000D01*
X192841333Y-119575000D01*
X193259909Y-119491740D01*
X193734577Y-119174577D01*
X193894657Y-118935000D01*
X196012839Y-118935000D01*
X196100000Y-118952337D01*
X196187161Y-118935000D01*
X196187165Y-118935000D01*
X196445310Y-118883652D01*
X196738049Y-118688049D01*
X196787425Y-118614153D01*
X198466579Y-116935000D01*
X199025222Y-116935000D01*
X199626153Y-116686086D01*
X200086086Y-116226153D01*
X200335000Y-115625222D01*
X200335000Y-114974778D01*
X200086086Y-114373847D01*
X199626153Y-113913914D01*
X199025222Y-113665000D01*
X198374778Y-113665000D01*
X197773847Y-113913914D01*
X197313914Y-114373847D01*
X197065000Y-114974778D01*
X197065000Y-115625222D01*
X197125980Y-115772441D01*
X195733422Y-117165000D01*
X193774385Y-117165000D01*
X193734577Y-117105423D01*
X193585000Y-117005479D01*
X193585000Y-113444396D01*
X193916534Y-113112862D01*
X194135000Y-112585439D01*
X194135000Y-112014561D01*
X193916534Y-111487138D01*
X193512862Y-111083466D01*
X192985439Y-110865000D01*
X192414561Y-110865000D01*
X191887138Y-111083466D01*
X191555604Y-111415000D01*
X189737161Y-111415000D01*
X189650000Y-111397663D01*
X189562839Y-111415000D01*
X189562835Y-111415000D01*
X189304690Y-111466348D01*
X189085845Y-111612576D01*
X189085844Y-111612577D01*
X189011951Y-111661951D01*
X188962577Y-111735844D01*
X188893104Y-111805317D01*
X188423748Y-109771443D01*
X188420483Y-109759839D01*
X187620483Y-107359839D01*
X187615311Y-107346780D01*
X185373278Y-102489041D01*
X191308086Y-102489041D01*
X191547611Y-102995134D01*
X191962577Y-103371041D01*
X192350961Y-103531904D01*
X192573000Y-103409915D01*
X192573000Y-102267000D01*
X192827000Y-102267000D01*
X192827000Y-103409915D01*
X193049039Y-103531904D01*
X193437423Y-103371041D01*
X193852389Y-102995134D01*
X194091914Y-102489041D01*
X193970629Y-102267000D01*
X192827000Y-102267000D01*
X192573000Y-102267000D01*
X191429371Y-102267000D01*
X191308086Y-102489041D01*
X185373278Y-102489041D01*
X185215311Y-102146780D01*
X185189803Y-102110197D01*
X185148601Y-102082667D01*
X185100000Y-102073000D01*
X185051399Y-102082667D01*
X185010197Y-102110197D01*
X172720019Y-114400375D01*
X172610567Y-114378604D01*
X172610563Y-114378604D01*
X172523402Y-114361267D01*
X172436241Y-114378604D01*
X169923555Y-114378604D01*
X169836395Y-114361267D01*
X169749235Y-114378604D01*
X169749231Y-114378604D01*
X169491086Y-114429952D01*
X169491084Y-114429953D01*
X169491085Y-114429953D01*
X169272241Y-114576180D01*
X169272240Y-114576181D01*
X169198347Y-114625555D01*
X169148973Y-114699448D01*
X167262102Y-116586320D01*
X166793241Y-116586320D01*
X166265818Y-116804786D01*
X165862146Y-117208458D01*
X165643680Y-117735881D01*
X165643680Y-118306759D01*
X165862146Y-118834182D01*
X166265818Y-119237854D01*
X166793241Y-119456320D01*
X167364119Y-119456320D01*
X167876175Y-119244219D01*
X165666631Y-121453763D01*
X165771698Y-121296519D01*
X165883071Y-120736610D01*
X165771698Y-120176701D01*
X165454535Y-119702033D01*
X164979867Y-119384870D01*
X164561291Y-119301610D01*
X164278625Y-119301610D01*
X163860049Y-119384870D01*
X163385381Y-119702033D01*
X163068218Y-120176701D01*
X162956845Y-120736610D01*
X163068218Y-121296519D01*
X163385381Y-121771187D01*
X163860049Y-122088350D01*
X164278625Y-122171610D01*
X164561291Y-122171610D01*
X164979867Y-122088350D01*
X165137111Y-121983283D01*
X159143884Y-127976510D01*
X157885000Y-126717626D01*
X157885000Y-116279782D01*
X160368093Y-116279782D01*
X160639059Y-116871098D01*
X161115685Y-117313709D01*
X161604489Y-117516178D01*
X161862949Y-117397248D01*
X161862949Y-116021322D01*
X162116949Y-116021322D01*
X162116949Y-117397248D01*
X162375409Y-117516178D01*
X162966725Y-117245212D01*
X163409336Y-116768586D01*
X163611805Y-116279782D01*
X163492875Y-116021322D01*
X162116949Y-116021322D01*
X161862949Y-116021322D01*
X160487023Y-116021322D01*
X160368093Y-116279782D01*
X157885000Y-116279782D01*
X157885000Y-115508862D01*
X160368093Y-115508862D01*
X160487023Y-115767322D01*
X161862949Y-115767322D01*
X161862949Y-114391396D01*
X162116949Y-114391396D01*
X162116949Y-115767322D01*
X163492875Y-115767322D01*
X163611805Y-115508862D01*
X163340839Y-114917546D01*
X162864213Y-114474935D01*
X162375409Y-114272466D01*
X162116949Y-114391396D01*
X161862949Y-114391396D01*
X161604489Y-114272466D01*
X161013173Y-114543432D01*
X160570562Y-115020058D01*
X160368093Y-115508862D01*
X157885000Y-115508862D01*
X157885000Y-109912247D01*
X166011804Y-109912247D01*
X166011804Y-110562691D01*
X166260718Y-111163622D01*
X166720651Y-111623555D01*
X167321582Y-111872469D01*
X167972026Y-111872469D01*
X168572957Y-111623555D01*
X169032890Y-111163622D01*
X169281804Y-110562691D01*
X169281804Y-109912247D01*
X169032890Y-109311316D01*
X168572957Y-108851383D01*
X167972026Y-108602469D01*
X167321582Y-108602469D01*
X166720651Y-108851383D01*
X166260718Y-109311316D01*
X166011804Y-109912247D01*
X157885000Y-109912247D01*
X157885000Y-109087161D01*
X157902337Y-109000000D01*
X157885000Y-108912839D01*
X157885000Y-108912835D01*
X157833652Y-108654690D01*
X157772103Y-108562576D01*
X157687424Y-108435845D01*
X157687423Y-108435844D01*
X157638049Y-108361951D01*
X157564156Y-108312577D01*
X155487425Y-106235847D01*
X155438049Y-106161951D01*
X155145310Y-105966348D01*
X154887165Y-105915000D01*
X154887161Y-105915000D01*
X154800000Y-105897663D01*
X154712839Y-105915000D01*
X148561553Y-105915000D01*
X148399571Y-105753018D01*
X147945657Y-105565000D01*
X147454343Y-105565000D01*
X147000429Y-105753018D01*
X146653018Y-106100429D01*
X146465000Y-106554343D01*
X146465000Y-107045657D01*
X146653018Y-107499571D01*
X147000429Y-107846982D01*
X147454343Y-108035000D01*
X147945657Y-108035000D01*
X148399571Y-107846982D01*
X148561553Y-107685000D01*
X154433422Y-107685000D01*
X156115001Y-109366580D01*
X156115000Y-126997043D01*
X156097663Y-127084204D01*
X156115000Y-127171365D01*
X156115000Y-127171368D01*
X156166348Y-127429513D01*
X156361951Y-127722253D01*
X156435847Y-127771629D01*
X157892306Y-129228088D01*
X147794602Y-139325792D01*
X147794602Y-139194828D01*
X147984179Y-139068157D01*
X148301342Y-138593489D01*
X148412715Y-138033580D01*
X148301342Y-137473671D01*
X147984179Y-136999003D01*
X147834602Y-136899059D01*
X147834602Y-135037977D01*
X148126136Y-134746443D01*
X148344602Y-134219020D01*
X148344602Y-133648142D01*
X148126136Y-133120719D01*
X147722464Y-132717047D01*
X147195041Y-132498581D01*
X146624163Y-132498581D01*
X146096740Y-132717047D01*
X145693068Y-133120719D01*
X145474602Y-133648142D01*
X145474602Y-134219020D01*
X145693068Y-134746443D01*
X146064603Y-135117978D01*
X146064602Y-136899059D01*
X145915025Y-136999003D01*
X145597862Y-137473671D01*
X145486489Y-138033580D01*
X145597862Y-138593489D01*
X145915025Y-139068157D01*
X146024603Y-139141374D01*
X146024602Y-141095792D01*
X145110197Y-142010197D01*
X145087759Y-142040578D01*
X145073563Y-142088054D01*
X141537894Y-142088054D01*
X141662629Y-141963319D01*
X142063784Y-140994845D01*
X142063784Y-139946577D01*
X141662629Y-138978103D01*
X140921392Y-138236866D01*
X139952918Y-137835711D01*
X138904650Y-137835711D01*
X137936176Y-138236866D01*
X137385000Y-138788042D01*
X137385000Y-135416578D01*
X140666579Y-132135000D01*
X145912839Y-132135000D01*
X146000000Y-132152337D01*
X146087161Y-132135000D01*
X146087165Y-132135000D01*
X146345310Y-132083652D01*
X146638049Y-131888049D01*
X146687425Y-131814153D01*
X147914156Y-130587423D01*
X147988049Y-130538049D01*
X148069368Y-130416348D01*
X148183651Y-130245311D01*
X148183652Y-130245310D01*
X148235000Y-129987165D01*
X148235000Y-129987161D01*
X148252337Y-129900001D01*
X148235000Y-129812841D01*
X148235000Y-125616578D01*
X155164156Y-118687422D01*
X155238049Y-118638049D01*
X155320834Y-118514154D01*
X155400243Y-118395310D01*
X155433652Y-118345310D01*
X155485000Y-118087165D01*
X155485000Y-118087161D01*
X155502337Y-118000001D01*
X155485000Y-117912841D01*
X155485000Y-111011553D01*
X155546982Y-110949571D01*
X155735000Y-110495657D01*
X155735000Y-110004343D01*
X155546982Y-109550429D01*
X155199571Y-109203018D01*
X154745657Y-109015000D01*
X154254343Y-109015000D01*
X153800429Y-109203018D01*
X153453018Y-109550429D01*
X153265000Y-110004343D01*
X153265000Y-110495657D01*
X153453018Y-110949571D01*
X153715001Y-111211554D01*
X153715000Y-117633421D01*
X146785847Y-124562575D01*
X146711951Y-124611951D01*
X146516348Y-124904691D01*
X146465000Y-125162836D01*
X146465000Y-125162839D01*
X146447663Y-125250000D01*
X146465000Y-125337161D01*
X146465001Y-129533420D01*
X145633422Y-130365000D01*
X140387161Y-130365000D01*
X140300000Y-130347663D01*
X140212839Y-130365000D01*
X140212835Y-130365000D01*
X139954690Y-130416348D01*
X139735845Y-130562576D01*
X139735844Y-130562577D01*
X139661951Y-130611951D01*
X139612577Y-130685844D01*
X135935845Y-134362577D01*
X135861952Y-134411951D01*
X135812578Y-134485844D01*
X135812576Y-134485846D01*
X135666348Y-134704691D01*
X135597663Y-135050000D01*
X135615001Y-135137165D01*
X135615000Y-141462839D01*
X135597663Y-141550000D01*
X135615000Y-141637161D01*
X135615000Y-141637164D01*
X135646350Y-141794772D01*
X132869487Y-139017909D01*
X132902767Y-138937563D01*
X132902767Y-138399466D01*
X133440864Y-138399466D01*
X134005041Y-138165776D01*
X134436844Y-137733973D01*
X134670534Y-137169796D01*
X134670534Y-136559136D01*
X134436844Y-135994959D01*
X134005041Y-135563156D01*
X133440864Y-135329466D01*
X133350140Y-135329466D01*
X143469839Y-125209767D01*
X143469840Y-126917921D01*
X143013914Y-127373847D01*
X142765000Y-127974778D01*
X142765000Y-128625222D01*
X143013914Y-129226153D01*
X143473847Y-129686086D01*
X144074778Y-129935000D01*
X144725222Y-129935000D01*
X145326153Y-129686086D01*
X145786086Y-129226153D01*
X146035000Y-128625222D01*
X146035000Y-127974778D01*
X145786086Y-127373847D01*
X145326153Y-126913914D01*
X145239839Y-126878162D01*
X145239839Y-124586998D01*
X145389416Y-124487054D01*
X145706579Y-124012386D01*
X145817952Y-123452477D01*
X145719928Y-122959678D01*
X151057545Y-117622061D01*
X151253605Y-117703272D01*
X151824483Y-117703272D01*
X152351906Y-117484806D01*
X152755578Y-117081134D01*
X152974044Y-116553711D01*
X152974044Y-115982833D01*
X152755578Y-115455410D01*
X152351906Y-115051738D01*
X151824483Y-114833272D01*
X151253605Y-114833272D01*
X150726182Y-115051738D01*
X150322510Y-115455410D01*
X150104044Y-115982833D01*
X150104044Y-116424438D01*
X148472312Y-114792706D01*
X148963234Y-114816951D01*
X149490466Y-114628459D01*
X149561711Y-114385691D01*
X148753043Y-113577023D01*
X148738901Y-113591166D01*
X148559296Y-113411561D01*
X148573438Y-113397418D01*
X148932648Y-113397418D01*
X149741316Y-114206086D01*
X149984084Y-114134841D01*
X150172576Y-113607609D01*
X150144957Y-113048377D01*
X149984076Y-112660001D01*
X149740811Y-112589255D01*
X148932648Y-113397418D01*
X148573438Y-113397418D01*
X147764770Y-112588750D01*
X147522002Y-112659995D01*
X147333510Y-113187227D01*
X147357755Y-113678149D01*
X146088751Y-112409145D01*
X147944375Y-112409145D01*
X148753043Y-113217813D01*
X149561206Y-112409650D01*
X149490460Y-112166385D01*
X149102084Y-112005504D01*
X148542852Y-111977885D01*
X148015620Y-112166377D01*
X147944375Y-112409145D01*
X146088751Y-112409145D01*
X145714596Y-112034990D01*
X146205518Y-112059235D01*
X146732750Y-111870743D01*
X146803995Y-111627975D01*
X145995327Y-110819307D01*
X145981185Y-110833450D01*
X145801580Y-110653845D01*
X145815722Y-110639702D01*
X146174932Y-110639702D01*
X146983600Y-111448370D01*
X147226368Y-111377125D01*
X147414860Y-110849893D01*
X147387241Y-110290661D01*
X147226360Y-109902285D01*
X146983095Y-109831539D01*
X146174932Y-110639702D01*
X145815722Y-110639702D01*
X145007054Y-109831034D01*
X144764286Y-109902279D01*
X144575794Y-110429511D01*
X144600039Y-110920433D01*
X143331035Y-109651429D01*
X145186659Y-109651429D01*
X145995327Y-110460097D01*
X146803490Y-109651934D01*
X146732744Y-109408669D01*
X146344368Y-109247788D01*
X145785136Y-109220169D01*
X145257904Y-109408661D01*
X145186659Y-109651429D01*
X143331035Y-109651429D01*
X142489803Y-108810197D01*
X142448601Y-108782667D01*
X142400000Y-108773000D01*
X142351399Y-108782667D01*
X142310197Y-108810197D01*
X136710986Y-114409408D01*
X136435000Y-114133422D01*
X136435000Y-113904343D01*
X136246982Y-113450429D01*
X135899571Y-113103018D01*
X135445657Y-112915000D01*
X134954343Y-112915000D01*
X134500429Y-113103018D01*
X134153018Y-113450429D01*
X133965000Y-113904343D01*
X133965000Y-114395657D01*
X134153018Y-114849571D01*
X134500429Y-115196982D01*
X134954343Y-115385000D01*
X135183422Y-115385000D01*
X135459408Y-115660986D01*
X117835986Y-133284408D01*
X113797000Y-129245422D01*
X113797000Y-129082786D01*
X114092095Y-129082786D01*
X114605551Y-128870106D01*
X114998534Y-128477123D01*
X115211214Y-127963667D01*
X115211214Y-127835862D01*
X115624360Y-127835862D01*
X116225291Y-127586948D01*
X116685224Y-127127015D01*
X116934138Y-126526084D01*
X116934138Y-125875640D01*
X116685224Y-125274709D01*
X116225291Y-124814776D01*
X115624360Y-124565862D01*
X114973916Y-124565862D01*
X114372985Y-124814776D01*
X113913052Y-125274709D01*
X113664138Y-125875640D01*
X113664138Y-126288786D01*
X113536333Y-126288786D01*
X113022877Y-126501466D01*
X112629894Y-126894449D01*
X112417214Y-127407905D01*
X112417214Y-127703000D01*
X112122119Y-127703000D01*
X111608663Y-127915680D01*
X111215680Y-128308663D01*
X111003000Y-128822119D01*
X111003000Y-129117214D01*
X110707905Y-129117214D01*
X110194449Y-129329894D01*
X109801466Y-129722877D01*
X109588786Y-130236333D01*
X109588786Y-130364138D01*
X109175640Y-130364138D01*
X108574709Y-130613052D01*
X108114776Y-131072985D01*
X107865862Y-131673916D01*
X107865862Y-132324360D01*
X108114776Y-132925291D01*
X108574709Y-133385224D01*
X109175640Y-133634138D01*
X109826084Y-133634138D01*
X110427015Y-133385224D01*
X110886948Y-132925291D01*
X111135862Y-132324360D01*
X111135862Y-131911214D01*
X111263667Y-131911214D01*
X111777123Y-131698534D01*
X112170106Y-131305551D01*
X112382786Y-130792095D01*
X112382786Y-130497000D01*
X112545422Y-130497000D01*
X116584408Y-134535986D01*
X113205394Y-137915000D01*
X110311553Y-137915000D01*
X110149571Y-137753018D01*
X109695657Y-137565000D01*
X109204343Y-137565000D01*
X108750429Y-137753018D01*
X108403018Y-138100429D01*
X108215000Y-138554343D01*
X108215000Y-139045657D01*
X108403018Y-139499571D01*
X108750429Y-139846982D01*
X109204343Y-140035000D01*
X109695657Y-140035000D01*
X110149571Y-139846982D01*
X110311553Y-139685000D01*
X111435394Y-139685000D01*
X91800000Y-159320394D01*
X82279428Y-149799822D01*
X90472612Y-141574190D01*
X92712577Y-143814156D01*
X92761951Y-143888049D01*
X92835844Y-143937423D01*
X92835845Y-143937424D01*
X92992583Y-144042153D01*
X93054690Y-144083652D01*
X93312835Y-144135000D01*
X93312839Y-144135000D01*
X93400000Y-144152337D01*
X93487161Y-144135000D01*
X97712839Y-144135000D01*
X97800000Y-144152337D01*
X97887161Y-144135000D01*
X97887165Y-144135000D01*
X98145310Y-144083652D01*
X98438049Y-143888049D01*
X98487425Y-143814153D01*
X101864156Y-140437423D01*
X101938049Y-140388049D01*
X102133652Y-140095310D01*
X102185000Y-139837165D01*
X102185000Y-139837161D01*
X102202337Y-139750001D01*
X102185000Y-139662841D01*
X102185000Y-138137159D01*
X102202337Y-138049999D01*
X102185000Y-137962839D01*
X102185000Y-137962835D01*
X102133652Y-137704690D01*
X102040314Y-137565000D01*
X101987424Y-137485845D01*
X101987423Y-137485844D01*
X101938049Y-137411951D01*
X101864156Y-137362577D01*
X101393922Y-136892344D01*
X101455215Y-136584205D01*
X101365190Y-136131618D01*
X101577963Y-136207687D01*
X102137195Y-136180068D01*
X102525571Y-136019187D01*
X102596317Y-135775922D01*
X101788154Y-134967759D01*
X101774012Y-134981902D01*
X101594407Y-134802297D01*
X101608549Y-134788154D01*
X101967759Y-134788154D01*
X102775922Y-135596317D01*
X103019187Y-135525571D01*
X103180068Y-135137195D01*
X103207687Y-134577963D01*
X103019195Y-134050731D01*
X102776427Y-133979486D01*
X101967759Y-134788154D01*
X101608549Y-134788154D01*
X100800386Y-133979991D01*
X100557121Y-134050737D01*
X100396240Y-134439113D01*
X100368621Y-134998345D01*
X100444690Y-135211117D01*
X100133435Y-135149205D01*
X99850769Y-135149205D01*
X99432193Y-135232465D01*
X98957525Y-135549628D01*
X98640362Y-136024296D01*
X98528989Y-136584205D01*
X98611659Y-136999813D01*
X98337384Y-136945256D01*
X98054718Y-136945256D01*
X97636142Y-137028516D01*
X97161474Y-137345679D01*
X96844311Y-137820347D01*
X96732938Y-138380256D01*
X96815608Y-138795864D01*
X96541333Y-138741307D01*
X96258667Y-138741307D01*
X95840091Y-138824567D01*
X95365423Y-139141730D01*
X95048260Y-139616398D01*
X94936887Y-140176307D01*
X95048260Y-140736216D01*
X95365423Y-141210884D01*
X95840091Y-141528047D01*
X96258667Y-141611307D01*
X96541333Y-141611307D01*
X96959909Y-141528047D01*
X97434577Y-141210884D01*
X97751740Y-140736216D01*
X97863113Y-140176307D01*
X97780443Y-139760699D01*
X98054718Y-139815256D01*
X98337384Y-139815256D01*
X98755960Y-139731996D01*
X99230628Y-139414833D01*
X99547791Y-138940165D01*
X99659164Y-138380256D01*
X99576494Y-137964648D01*
X99850769Y-138019205D01*
X100017626Y-138019205D01*
X100415001Y-138416580D01*
X100415000Y-139383421D01*
X97433422Y-142365000D01*
X93766579Y-142365000D01*
X91721717Y-140320138D01*
X98215749Y-133800386D01*
X100979991Y-133800386D01*
X101788154Y-134608549D01*
X102596822Y-133799881D01*
X102525577Y-133557113D01*
X101998345Y-133368621D01*
X101439113Y-133396240D01*
X101050737Y-133557121D01*
X100979991Y-133800386D01*
X98215749Y-133800386D01*
X102065805Y-129935083D01*
X102223557Y-130269874D01*
X102645995Y-130653864D01*
X103046546Y-130819778D01*
X103273000Y-130698166D01*
X103273000Y-129527000D01*
X103527000Y-129527000D01*
X103527000Y-130698166D01*
X103753454Y-130819778D01*
X104269874Y-130576443D01*
X104653864Y-130154005D01*
X104819778Y-129753454D01*
X104698166Y-129527000D01*
X103527000Y-129527000D01*
X103273000Y-129527000D01*
X102472279Y-129527000D01*
X102725277Y-129273000D01*
X103093392Y-129273000D01*
X103206251Y-129385859D01*
X103385859Y-129206251D01*
X103273000Y-129093392D01*
X103273000Y-128723107D01*
X103527000Y-128468102D01*
X103527000Y-129273000D01*
X104698166Y-129273000D01*
X104819778Y-129046546D01*
X104576443Y-128530126D01*
X104154005Y-128146136D01*
X103937161Y-128056316D01*
X108759816Y-123214561D01*
X118865000Y-123214561D01*
X118865000Y-123785439D01*
X119083466Y-124312862D01*
X119487138Y-124716534D01*
X120014561Y-124935000D01*
X120585439Y-124935000D01*
X121112862Y-124716534D01*
X121516534Y-124312862D01*
X121735000Y-123785439D01*
X121735000Y-123214561D01*
X121516534Y-122687138D01*
X121112862Y-122283466D01*
X120585439Y-122065000D01*
X120014561Y-122065000D01*
X119487138Y-122283466D01*
X119083466Y-122687138D01*
X118865000Y-123214561D01*
X108759816Y-123214561D01*
X111714200Y-120248477D01*
X111970513Y-120299461D01*
X112253179Y-120299461D01*
X112671755Y-120216201D01*
X113146423Y-119899038D01*
X113463586Y-119424370D01*
X113574959Y-118864461D01*
X113494692Y-118460934D01*
X113504338Y-118451250D01*
X113766565Y-118503410D01*
X114049231Y-118503410D01*
X114467807Y-118420150D01*
X114942475Y-118102987D01*
X115259638Y-117628319D01*
X115371011Y-117068410D01*
X115289564Y-116658953D01*
X115294476Y-116654022D01*
X115562616Y-116707359D01*
X115845282Y-116707359D01*
X116263858Y-116624099D01*
X116738526Y-116306936D01*
X117055689Y-115832268D01*
X117167062Y-115272359D01*
X117084436Y-114856973D01*
X117084614Y-114856794D01*
X117358667Y-114911307D01*
X117641333Y-114911307D01*
X118059909Y-114828047D01*
X118534577Y-114510884D01*
X118851740Y-114036216D01*
X118963113Y-113476307D01*
X118880443Y-113060699D01*
X119154718Y-113115256D01*
X119437384Y-113115256D01*
X119855960Y-113031996D01*
X120330628Y-112714833D01*
X120647791Y-112240165D01*
X120759164Y-111680256D01*
X120676494Y-111264648D01*
X120950769Y-111319205D01*
X121233435Y-111319205D01*
X121261954Y-111313532D01*
X126061429Y-116113008D01*
X126021092Y-116315795D01*
X126132465Y-116875704D01*
X126449628Y-117350372D01*
X126924296Y-117667535D01*
X127342872Y-117750795D01*
X127625538Y-117750795D01*
X128044114Y-117667535D01*
X128518782Y-117350372D01*
X128835945Y-116875704D01*
X128947318Y-116315795D01*
X128835945Y-115755886D01*
X128518782Y-115281218D01*
X128054425Y-114970944D01*
X128227463Y-114553194D01*
X128227463Y-114061880D01*
X128039445Y-113607966D01*
X127877463Y-113445984D01*
X127877463Y-112279624D01*
X127894800Y-112192463D01*
X127877463Y-112105302D01*
X127877463Y-112105298D01*
X127826115Y-111847153D01*
X127779052Y-111776719D01*
X127679887Y-111628308D01*
X127679886Y-111628307D01*
X127630512Y-111554414D01*
X127556619Y-111505040D01*
X124316171Y-108264593D01*
X124351267Y-108088154D01*
X124263924Y-107649051D01*
X127216283Y-104685000D01*
X127283422Y-104685000D01*
X130215000Y-107616579D01*
X130215000Y-107845657D01*
X130403018Y-108299571D01*
X130750429Y-108646982D01*
X131204343Y-108835000D01*
X131695657Y-108835000D01*
X132149571Y-108646982D01*
X132496982Y-108299571D01*
X132685000Y-107845657D01*
X132685000Y-107354343D01*
X132496982Y-106900429D01*
X132488801Y-106892248D01*
X135387358Y-106892248D01*
X135387358Y-107116754D01*
X135840301Y-107569698D01*
X136073690Y-107666370D01*
X136326309Y-107666371D01*
X136559698Y-107569698D01*
X136738327Y-107391070D01*
X137012642Y-107116754D01*
X137012642Y-106892248D01*
X136200000Y-106079605D01*
X135387358Y-106892248D01*
X132488801Y-106892248D01*
X132149571Y-106553018D01*
X131695657Y-106365000D01*
X131466579Y-106365000D01*
X128948373Y-103846794D01*
X132997233Y-103846794D01*
X132997233Y-104417672D01*
X133215699Y-104945095D01*
X133619371Y-105348767D01*
X134146794Y-105567233D01*
X134519147Y-105567233D01*
X134433629Y-105773691D01*
X134433630Y-106026310D01*
X134530302Y-106259699D01*
X134983246Y-106712642D01*
X135207752Y-106712642D01*
X136020395Y-105900000D01*
X136379605Y-105900000D01*
X137192248Y-106712642D01*
X137416754Y-106712642D01*
X137691070Y-106438327D01*
X137869698Y-106259698D01*
X137966371Y-106026309D01*
X137966370Y-105773690D01*
X137869698Y-105540301D01*
X137416754Y-105087358D01*
X137192248Y-105087358D01*
X136379605Y-105900000D01*
X136020395Y-105900000D01*
X136006252Y-105885858D01*
X136185858Y-105706252D01*
X136200000Y-105720395D01*
X137012642Y-104907752D01*
X137012642Y-104683246D01*
X136559699Y-104230302D01*
X136326310Y-104133630D01*
X136073691Y-104133629D01*
X135867233Y-104219147D01*
X135867233Y-103846794D01*
X135648767Y-103319371D01*
X135245095Y-102915699D01*
X134717672Y-102697233D01*
X134146794Y-102697233D01*
X133619371Y-102915699D01*
X133215699Y-103319371D01*
X132997233Y-103846794D01*
X128948373Y-103846794D01*
X128498891Y-103397313D01*
X132689980Y-99189625D01*
X132717429Y-99148369D01*
X132727000Y-99099749D01*
X132717236Y-99051167D01*
X132689803Y-99010197D01*
X126989803Y-93310197D01*
X126948601Y-93282667D01*
X126900000Y-93273000D01*
X126851399Y-93282667D01*
X126810286Y-93310109D01*
X123135000Y-96978132D01*
X123135000Y-88422265D01*
X123339371Y-88217894D01*
X123535000Y-87745602D01*
X123535000Y-87505000D01*
X123775602Y-87505000D01*
X124247894Y-87309371D01*
X124609371Y-86947894D01*
X124805000Y-86475602D01*
X124805000Y-85964398D01*
X124609371Y-85492106D01*
X124247894Y-85130629D01*
X123775602Y-84935000D01*
X123547440Y-84935000D01*
X123547440Y-84300000D01*
X123498157Y-84052235D01*
X123357809Y-83842191D01*
X123147765Y-83701843D01*
X122900000Y-83652560D01*
X121600000Y-83652560D01*
X121352235Y-83701843D01*
X121142191Y-83842191D01*
X121001843Y-84052235D01*
X120952560Y-84300000D01*
X120952560Y-85600000D01*
X121001843Y-85847765D01*
X121142191Y-86057809D01*
X121352235Y-86198157D01*
X121600000Y-86247440D01*
X121891938Y-86247440D01*
X121522106Y-86400629D01*
X121160629Y-86762106D01*
X120965000Y-87234398D01*
X120965000Y-87745602D01*
X121160629Y-88217894D01*
X121365001Y-88422266D01*
X121365000Y-97265000D01*
X120974778Y-97265000D01*
X120373847Y-97513914D01*
X119913914Y-97973847D01*
X119665000Y-98574778D01*
X119665000Y-99225222D01*
X119696691Y-99301730D01*
X117915723Y-101082699D01*
X117747765Y-100970472D01*
X117500000Y-100921189D01*
X117252235Y-100970472D01*
X117042191Y-101110820D01*
X115910820Y-102242191D01*
X115770472Y-102452235D01*
X115721189Y-102700000D01*
X115770472Y-102947765D01*
X115846304Y-103061254D01*
X115845282Y-103061051D01*
X115562616Y-103061051D01*
X115144040Y-103144311D01*
X114669372Y-103461474D01*
X114352209Y-103936142D01*
X114240836Y-104496051D01*
X114323506Y-104911659D01*
X114049231Y-104857102D01*
X113766565Y-104857102D01*
X113347989Y-104940362D01*
X112873321Y-105257525D01*
X112556158Y-105732193D01*
X112444785Y-106292102D01*
X112534811Y-106744690D01*
X112322037Y-106668621D01*
X111762805Y-106696240D01*
X111374429Y-106857121D01*
X111303683Y-107100386D01*
X112111846Y-107908549D01*
X112125989Y-107894407D01*
X112161513Y-107929931D01*
X111953418Y-108137616D01*
X111918099Y-108102297D01*
X111932241Y-108088154D01*
X111124078Y-107279991D01*
X110880813Y-107350737D01*
X110719932Y-107739113D01*
X110692313Y-108298345D01*
X110768382Y-108511117D01*
X110457128Y-108449205D01*
X110174462Y-108449205D01*
X109755886Y-108532465D01*
X109281218Y-108849628D01*
X108964055Y-109324296D01*
X108852682Y-109884205D01*
X108935352Y-110299813D01*
X108661077Y-110245256D01*
X108378411Y-110245256D01*
X108226960Y-110275381D01*
X106702767Y-108751189D01*
X106702767Y-108646794D01*
X106484301Y-108119371D01*
X106080629Y-107715699D01*
X105553206Y-107497233D01*
X104982328Y-107497233D01*
X104454905Y-107715699D01*
X104051233Y-108119371D01*
X103832767Y-108646794D01*
X103832767Y-109217672D01*
X103866233Y-109298466D01*
X103785439Y-109265000D01*
X103214561Y-109265000D01*
X102687138Y-109483466D01*
X102283466Y-109887138D01*
X102065000Y-110414561D01*
X102065000Y-110713422D01*
X100685000Y-109333422D01*
X100685000Y-106909143D01*
X100843760Y-106803063D01*
X101160923Y-106328395D01*
X101272296Y-105768486D01*
X101160923Y-105208577D01*
X100843760Y-104733909D01*
X100369092Y-104416746D01*
X99950516Y-104333486D01*
X99667850Y-104333486D01*
X99632745Y-104340469D01*
X98302619Y-103010344D01*
X98302619Y-102614263D01*
X99737935Y-101176099D01*
X99738049Y-101176023D01*
X99738126Y-101175908D01*
X102365001Y-98543821D01*
X102365000Y-105888447D01*
X102203018Y-106050429D01*
X102015000Y-106504343D01*
X102015000Y-106995657D01*
X102203018Y-107449571D01*
X102550429Y-107796982D01*
X103004343Y-107985000D01*
X103495657Y-107985000D01*
X103949571Y-107796982D01*
X104296982Y-107449571D01*
X104485000Y-106995657D01*
X104485000Y-106504343D01*
X104296982Y-106050429D01*
X104135000Y-105888447D01*
X104135000Y-101660015D01*
X107555125Y-101660015D01*
X107555125Y-101884521D01*
X108008068Y-102337465D01*
X108241457Y-102434137D01*
X108494076Y-102434138D01*
X108727465Y-102337465D01*
X108906094Y-102158837D01*
X109180409Y-101884521D01*
X109180409Y-101660015D01*
X108367767Y-100847372D01*
X107555125Y-101660015D01*
X104135000Y-101660015D01*
X104135000Y-98614561D01*
X105165000Y-98614561D01*
X105165000Y-99185439D01*
X105383466Y-99712862D01*
X105787138Y-100116534D01*
X106314561Y-100335000D01*
X106686914Y-100335000D01*
X106601396Y-100541458D01*
X106601397Y-100794077D01*
X106698069Y-101027466D01*
X107151013Y-101480409D01*
X107375519Y-101480409D01*
X108188162Y-100667767D01*
X108547372Y-100667767D01*
X109360015Y-101480409D01*
X109584521Y-101480409D01*
X109858837Y-101206094D01*
X110037465Y-101027465D01*
X110134138Y-100794076D01*
X110134137Y-100541457D01*
X110037465Y-100308068D01*
X109584521Y-99855125D01*
X109360015Y-99855125D01*
X108547372Y-100667767D01*
X108188162Y-100667767D01*
X108174019Y-100653625D01*
X108353625Y-100474019D01*
X108367767Y-100488162D01*
X109180409Y-99675519D01*
X109180409Y-99451013D01*
X108727466Y-98998069D01*
X108494077Y-98901397D01*
X108241458Y-98901396D01*
X108035000Y-98986914D01*
X108035000Y-98614561D01*
X107816534Y-98087138D01*
X107412862Y-97683466D01*
X106885439Y-97465000D01*
X106314561Y-97465000D01*
X105787138Y-97683466D01*
X105383466Y-98087138D01*
X105165000Y-98614561D01*
X104135000Y-98614561D01*
X104135000Y-97266578D01*
X106198270Y-95203309D01*
X106274778Y-95235000D01*
X106925222Y-95235000D01*
X107526153Y-94986086D01*
X107986086Y-94526153D01*
X108235000Y-93925222D01*
X108235000Y-93608380D01*
X110086277Y-93608380D01*
X110197650Y-94168289D01*
X110514813Y-94642957D01*
X110989481Y-94960120D01*
X111408057Y-95043380D01*
X111690723Y-95043380D01*
X112109299Y-94960120D01*
X112583967Y-94642957D01*
X112668985Y-94515718D01*
X115662386Y-94515718D01*
X115747404Y-94642957D01*
X116222072Y-94960120D01*
X116640648Y-95043380D01*
X116923314Y-95043380D01*
X117341890Y-94960120D01*
X117816558Y-94642957D01*
X118133721Y-94168289D01*
X118245094Y-93608380D01*
X118133721Y-93048471D01*
X117816558Y-92573803D01*
X117341890Y-92256640D01*
X116923314Y-92173380D01*
X116640648Y-92173380D01*
X116222072Y-92256640D01*
X115747404Y-92573803D01*
X115632534Y-92745718D01*
X112698837Y-92745718D01*
X112583967Y-92573803D01*
X112109299Y-92256640D01*
X111690723Y-92173380D01*
X111408057Y-92173380D01*
X110989481Y-92256640D01*
X110514813Y-92573803D01*
X110197650Y-93048471D01*
X110086277Y-93608380D01*
X108235000Y-93608380D01*
X108235000Y-93274778D01*
X108055677Y-92841854D01*
X116144092Y-84737390D01*
X116496542Y-84883380D01*
X117067420Y-84883380D01*
X117594843Y-84664914D01*
X117998515Y-84261242D01*
X118216981Y-83733819D01*
X118216981Y-83162941D01*
X117998515Y-82635518D01*
X117594843Y-82231846D01*
X117067420Y-82013380D01*
X116496542Y-82013380D01*
X115969119Y-82231846D01*
X115940286Y-82260680D01*
X109589803Y-75910197D01*
X109548601Y-75882667D01*
X109500000Y-75873000D01*
X109451399Y-75882667D01*
X109410197Y-75910197D01*
X104442246Y-80878148D01*
X104394008Y-80878148D01*
X104146243Y-80927431D01*
X103936199Y-81067779D01*
X103795851Y-81277823D01*
X103746568Y-81525588D01*
X103746568Y-81573826D01*
X93405394Y-91915000D01*
X86102113Y-91915000D01*
X82333690Y-88146577D01*
X85193784Y-88146577D01*
X85193784Y-89194845D01*
X85594939Y-90163319D01*
X86336176Y-90904556D01*
X87304650Y-91305711D01*
X88352918Y-91305711D01*
X89321392Y-90904556D01*
X90062629Y-90163319D01*
X90463784Y-89194845D01*
X90463784Y-88146577D01*
X90062629Y-87178103D01*
X89321392Y-86436866D01*
X88352918Y-86035711D01*
X87304650Y-86035711D01*
X86336176Y-86436866D01*
X85594939Y-87178103D01*
X85193784Y-88146577D01*
X82333690Y-88146577D01*
X81302767Y-87115655D01*
X81302767Y-86599466D01*
X81840864Y-86599466D01*
X82405041Y-86365776D01*
X82836844Y-85933973D01*
X83070534Y-85369796D01*
X83070534Y-84759136D01*
X82836844Y-84194959D01*
X82405041Y-83763156D01*
X81840864Y-83529466D01*
X81230204Y-83529466D01*
X80666027Y-83763156D01*
X80234224Y-84194959D01*
X80000534Y-84759136D01*
X80000534Y-85297233D01*
X79462437Y-85297233D01*
X78898260Y-85530923D01*
X78466457Y-85962726D01*
X78232767Y-86526903D01*
X78232767Y-87065000D01*
X77694670Y-87065000D01*
X77130493Y-87298690D01*
X76698690Y-87730493D01*
X76465000Y-88294670D01*
X76465000Y-88905330D01*
X76698690Y-89469507D01*
X77130493Y-89901310D01*
X77694670Y-90135000D01*
X78305330Y-90135000D01*
X78869507Y-89901310D01*
X79301310Y-89469507D01*
X79535000Y-88905330D01*
X79535000Y-88367233D01*
X80051189Y-88367233D01*
X85048111Y-93364156D01*
X85097485Y-93438049D01*
X85171378Y-93487423D01*
X85171379Y-93487424D01*
X85265032Y-93550001D01*
X85390224Y-93633652D01*
X85648369Y-93685000D01*
X85648372Y-93685000D01*
X85735533Y-93702337D01*
X85822694Y-93685000D01*
X91635394Y-93685000D01*
X84400000Y-100920394D01*
X80955350Y-97475744D01*
X81082111Y-97528250D01*
X82130379Y-97528250D01*
X83098853Y-97127095D01*
X83840090Y-96385858D01*
X84241245Y-95417384D01*
X84241245Y-94369116D01*
X83840090Y-93400642D01*
X83098853Y-92659405D01*
X82130379Y-92258250D01*
X81082111Y-92258250D01*
X80113637Y-92659405D01*
X79372400Y-93400642D01*
X78971245Y-94369116D01*
X78971245Y-95417384D01*
X79007695Y-95505383D01*
X76798498Y-93119449D01*
X75005271Y-90628856D01*
X73110722Y-87637463D01*
X71315668Y-84047355D01*
X69919712Y-80657178D01*
X68823207Y-77068615D01*
X68025677Y-73180655D01*
X67726655Y-70290111D01*
X67627000Y-68396669D01*
X67627000Y-66592078D01*
X80473247Y-66592078D01*
X80473281Y-66608448D01*
X80673281Y-69608448D01*
X80674114Y-69616785D01*
X81074114Y-72616785D01*
X81077573Y-72633773D01*
X81877573Y-75533773D01*
X81880906Y-75544109D01*
X82880906Y-78244109D01*
X82886408Y-78256796D01*
X84286408Y-81056796D01*
X84288982Y-81061677D01*
X84788982Y-81961677D01*
X84810197Y-81989803D01*
X84851399Y-82017333D01*
X84900000Y-82027000D01*
X84948601Y-82017333D01*
X84989803Y-81989803D01*
X94073633Y-72905973D01*
X99431815Y-78264156D01*
X99481189Y-78338049D01*
X99555082Y-78387423D01*
X99555083Y-78387424D01*
X99742814Y-78512862D01*
X99773928Y-78533652D01*
X100032073Y-78585000D01*
X100032077Y-78585000D01*
X100119238Y-78602337D01*
X100206399Y-78585000D01*
X101705604Y-78585000D01*
X102037138Y-78916534D01*
X102564561Y-79135000D01*
X103135439Y-79135000D01*
X103662862Y-78916534D01*
X104066534Y-78512862D01*
X104285000Y-77985439D01*
X104285000Y-77414561D01*
X104066534Y-76887138D01*
X103662862Y-76483466D01*
X103135439Y-76265000D01*
X102564561Y-76265000D01*
X102037138Y-76483466D01*
X101705604Y-76815000D01*
X100485817Y-76815000D01*
X95325211Y-71654395D01*
X99439606Y-67540000D01*
X101386887Y-67540000D01*
X101498260Y-68099909D01*
X101815423Y-68574577D01*
X102290091Y-68891740D01*
X102708667Y-68975000D01*
X102991333Y-68975000D01*
X103409909Y-68891740D01*
X103884577Y-68574577D01*
X104201679Y-68100000D01*
X108952560Y-68100000D01*
X108952560Y-69900000D01*
X109001843Y-70147765D01*
X109142191Y-70357809D01*
X109352235Y-70498157D01*
X109600000Y-70547440D01*
X111400000Y-70547440D01*
X111647765Y-70498157D01*
X111857809Y-70357809D01*
X111998157Y-70147765D01*
X112047440Y-69900000D01*
X112047440Y-68100000D01*
X111998157Y-67852235D01*
X111857809Y-67642191D01*
X111647765Y-67501843D01*
X111632092Y-67498725D01*
X111801310Y-67329507D01*
X111964720Y-66935000D01*
X115855570Y-66935000D01*
X115915423Y-67024577D01*
X116390091Y-67341740D01*
X116808667Y-67425000D01*
X117091333Y-67425000D01*
X117509909Y-67341740D01*
X117984577Y-67024577D01*
X118301740Y-66549909D01*
X118413113Y-65990000D01*
X118301740Y-65430091D01*
X117984577Y-64955423D01*
X117509909Y-64638260D01*
X117091333Y-64555000D01*
X116808667Y-64555000D01*
X116390091Y-64638260D01*
X115915423Y-64955423D01*
X115775388Y-65165000D01*
X111375817Y-65165000D01*
X111369507Y-65158690D01*
X110805330Y-64925000D01*
X110194670Y-64925000D01*
X109814037Y-65082664D01*
X109644691Y-65116348D01*
X109351951Y-65311951D01*
X109156348Y-65604691D01*
X109122664Y-65774037D01*
X108965000Y-66154670D01*
X108965000Y-66765330D01*
X109198690Y-67329507D01*
X109367908Y-67498725D01*
X109352235Y-67501843D01*
X109142191Y-67642191D01*
X109001843Y-67852235D01*
X108952560Y-68100000D01*
X104201679Y-68100000D01*
X104201740Y-68099909D01*
X104313113Y-67540000D01*
X104201740Y-66980091D01*
X103884577Y-66505423D01*
X103409909Y-66188260D01*
X102991333Y-66105000D01*
X102708667Y-66105000D01*
X102290091Y-66188260D01*
X101815423Y-66505423D01*
X101498260Y-66980091D01*
X101386887Y-67540000D01*
X99439606Y-67540000D01*
X105944606Y-61035000D01*
X109122344Y-61035000D01*
X110075779Y-61988435D01*
X110285823Y-62128783D01*
X110533588Y-62178066D01*
X110781353Y-62128783D01*
X110991397Y-61988435D01*
X112338435Y-60641397D01*
X112478783Y-60431353D01*
X112528066Y-60183588D01*
X112486560Y-59974922D01*
X112949050Y-59882927D01*
X113474161Y-59532059D01*
X113825029Y-59006948D01*
X113948238Y-58387536D01*
X113900960Y-58149855D01*
X114452054Y-58143866D01*
X114953063Y-57946333D01*
X115042166Y-57687568D01*
X114092102Y-56737503D01*
X114077960Y-56751646D01*
X113898355Y-56572041D01*
X113912497Y-56557898D01*
X114271707Y-56557898D01*
X115221772Y-57507962D01*
X115480537Y-57418859D01*
X115678070Y-56917850D01*
X115684796Y-56298936D01*
X115454162Y-55724561D01*
X115189936Y-55639669D01*
X114271707Y-56557898D01*
X113912497Y-56557898D01*
X112962432Y-55607834D01*
X112703667Y-55696937D01*
X112506134Y-56197946D01*
X112500145Y-56749040D01*
X112262463Y-56701762D01*
X111643052Y-56824971D01*
X111117940Y-57175838D01*
X110767073Y-57700950D01*
X110675078Y-58163440D01*
X110466412Y-58121934D01*
X110218647Y-58171217D01*
X110008603Y-58311565D01*
X109935873Y-58384295D01*
X109385000Y-57833422D01*
X109385000Y-57594606D01*
X111551378Y-55428228D01*
X113142038Y-55428228D01*
X114092102Y-56378293D01*
X115010331Y-55460064D01*
X114925439Y-55195838D01*
X114351064Y-54965204D01*
X113732150Y-54971930D01*
X113231141Y-55169463D01*
X113142038Y-55428228D01*
X111551378Y-55428228D01*
X124074451Y-42905155D01*
X127736216Y-42905155D01*
X127736216Y-43953423D01*
X128137371Y-44921897D01*
X128878608Y-45663134D01*
X129847082Y-46064289D01*
X130895350Y-46064289D01*
X131863824Y-45663134D01*
X132605061Y-44921897D01*
X133006216Y-43953423D01*
X133006216Y-42905155D01*
X132605061Y-41936681D01*
X131863824Y-41195444D01*
X130895350Y-40794289D01*
X129847082Y-40794289D01*
X128878608Y-41195444D01*
X128137371Y-41936681D01*
X127736216Y-42905155D01*
X124074451Y-42905155D01*
X124889803Y-42089803D01*
X124910267Y-42063010D01*
X124925986Y-42016016D01*
X124922525Y-41966584D01*
X124900411Y-41922239D01*
X124863010Y-41889733D01*
X123463010Y-41089733D01*
X123454076Y-41085088D01*
X121754076Y-40285088D01*
X121750638Y-40283532D01*
X119450638Y-39283532D01*
X119435409Y-39278036D01*
X116335409Y-38378036D01*
X116320879Y-38374728D01*
X114941359Y-38144808D01*
X114935000Y-38112839D01*
X114935000Y-38112835D01*
X114883652Y-37854690D01*
X114800927Y-37730884D01*
X114737424Y-37635845D01*
X114737423Y-37635844D01*
X114688049Y-37561951D01*
X114614156Y-37512577D01*
X111937425Y-34835847D01*
X111888049Y-34761951D01*
X111595310Y-34566348D01*
X111337165Y-34515000D01*
X111337161Y-34515000D01*
X111250000Y-34497663D01*
X111162839Y-34515000D01*
X108303132Y-34515000D01*
X108286086Y-34473847D01*
X107826153Y-34013914D01*
X107225222Y-33765000D01*
X106574778Y-33765000D01*
X105973847Y-34013914D01*
X105513914Y-34473847D01*
X105265000Y-35074778D01*
X105265000Y-35725222D01*
X105513914Y-36326153D01*
X105973847Y-36786086D01*
X106574778Y-37035000D01*
X107225222Y-37035000D01*
X107826153Y-36786086D01*
X108286086Y-36326153D01*
X108303132Y-36285000D01*
X110883422Y-36285000D01*
X112375060Y-37776639D01*
X110413068Y-37573674D01*
X110396033Y-37573062D01*
X107196033Y-37673062D01*
X107183215Y-37674114D01*
X104183215Y-38074114D01*
X104171142Y-38076322D01*
X101171142Y-38776322D01*
X101156983Y-38780507D01*
X98656983Y-39680507D01*
X98646294Y-39684915D01*
X95646294Y-41084915D01*
X95633025Y-41092096D01*
X92733025Y-42892096D01*
X92720664Y-42900830D01*
X90720664Y-44500830D01*
X90712656Y-44507804D01*
X88812656Y-46307804D01*
X88805602Y-46315041D01*
X87005602Y-48315041D01*
X86999117Y-48322854D01*
X85699117Y-50022854D01*
X85691633Y-50033776D01*
X84591633Y-51833776D01*
X84588721Y-51838796D01*
X83488721Y-53838796D01*
X83483755Y-53848852D01*
X82383755Y-56348852D01*
X82382083Y-56352833D01*
X81982083Y-57352833D01*
X81977288Y-57367277D01*
X81177288Y-60367277D01*
X81174728Y-60379121D01*
X80674728Y-63379121D01*
X80673247Y-63392078D01*
X80473247Y-66592078D01*
X67627000Y-66592078D01*
X67627000Y-64004878D01*
X67726327Y-62713625D01*
X68225138Y-59122185D01*
X69022903Y-55432521D01*
X70119041Y-51944812D01*
X71614653Y-48554757D01*
X73309631Y-45264505D01*
X75503018Y-41974426D01*
X77995293Y-38784313D01*
X80287369Y-36492237D01*
X83179843Y-33898985D01*
X86070983Y-31805400D01*
X89261539Y-29811303D01*
X92550793Y-28216513D01*
X96140756Y-26820416D01*
X99929534Y-25723665D01*
X103619101Y-25025639D01*
X106207303Y-24727000D01*
X110896907Y-24727000D01*
X114985631Y-24926450D01*
X118871717Y-25623953D01*
X122460401Y-26620809D01*
X125351513Y-27717438D01*
X129142024Y-29413193D01*
X132231221Y-31206920D01*
X135320945Y-33399627D01*
X136645953Y-34571750D01*
X136069621Y-34571750D01*
X135101147Y-34972905D01*
X134359910Y-35714142D01*
X133958755Y-36682616D01*
X133958755Y-37730884D01*
X134359910Y-38699358D01*
X135101147Y-39440595D01*
X136069621Y-39841750D01*
X137117889Y-39841750D01*
X138086363Y-39440595D01*
X138827600Y-38699358D01*
X139228755Y-37730884D01*
X139228755Y-36959556D01*
X140611017Y-38290623D01*
X143820394Y-41500000D01*
X141735000Y-43585394D01*
X141735000Y-43194670D01*
X141501310Y-42630493D01*
X141069507Y-42198690D01*
X140505330Y-41965000D01*
X139894670Y-41965000D01*
X139330493Y-42198690D01*
X139014183Y-42515000D01*
X138087159Y-42515000D01*
X137999999Y-42497663D01*
X137912839Y-42515000D01*
X137912835Y-42515000D01*
X137654690Y-42566348D01*
X137654688Y-42566349D01*
X137654689Y-42566349D01*
X137435845Y-42712576D01*
X137435844Y-42712577D01*
X137361951Y-42761951D01*
X137312577Y-42835844D01*
X134035847Y-46112575D01*
X133961951Y-46161951D01*
X133766348Y-46454691D01*
X133715000Y-46712836D01*
X133715000Y-46712839D01*
X133697663Y-46800000D01*
X133715000Y-46887161D01*
X133715001Y-50133420D01*
X119435847Y-64412575D01*
X119361951Y-64461951D01*
X119166348Y-64754691D01*
X119115000Y-65012836D01*
X119115000Y-65012839D01*
X119097663Y-65100000D01*
X119115000Y-65187161D01*
X119115000Y-66205394D01*
X118810197Y-66510197D01*
X118782667Y-66551399D01*
X118773000Y-66600000D01*
X118782667Y-66648601D01*
X118810197Y-66689803D01*
X119115000Y-66994606D01*
X119115001Y-75533420D01*
X118833421Y-75815000D01*
X118604343Y-75815000D01*
X118385000Y-75905855D01*
X118385000Y-75864561D01*
X118166534Y-75337138D01*
X117762862Y-74933466D01*
X117235439Y-74715000D01*
X116664561Y-74715000D01*
X116137138Y-74933466D01*
X115733466Y-75337138D01*
X115515000Y-75864561D01*
X115515000Y-76435439D01*
X115733466Y-76962862D01*
X116137138Y-77366534D01*
X116664561Y-77585000D01*
X117235439Y-77585000D01*
X117661713Y-77408431D01*
X117803018Y-77749571D01*
X118150429Y-78096982D01*
X118604343Y-78285000D01*
X119095657Y-78285000D01*
X119515000Y-78111302D01*
X119515000Y-78295657D01*
X119703018Y-78749571D01*
X120050429Y-79096982D01*
X120504343Y-79285000D01*
X120995657Y-79285000D01*
X121449571Y-79096982D01*
X121796982Y-78749571D01*
X121985000Y-78295657D01*
X121985000Y-77804343D01*
X121796982Y-77350429D01*
X121635000Y-77188447D01*
X121635000Y-69514606D01*
X126510197Y-74389803D01*
X126551399Y-74417333D01*
X126600000Y-74427000D01*
X126648601Y-74417333D01*
X126689803Y-74389803D01*
X126965000Y-74114606D01*
X126965000Y-82288447D01*
X126803018Y-82450429D01*
X126615000Y-82904343D01*
X126615000Y-83395657D01*
X126803018Y-83849571D01*
X127150429Y-84196982D01*
X127604343Y-84385000D01*
X128095657Y-84385000D01*
X128549571Y-84196982D01*
X128896982Y-83849571D01*
X129085000Y-83395657D01*
X129085000Y-82904343D01*
X128896982Y-82450429D01*
X128735000Y-82288447D01*
X128735000Y-79030651D01*
X128786556Y-79107809D01*
X130342191Y-80663444D01*
X130552235Y-80803792D01*
X130800000Y-80853075D01*
X131047765Y-80803792D01*
X131257809Y-80663444D01*
X132813444Y-79107809D01*
X132953792Y-78897765D01*
X133003075Y-78650000D01*
X132953792Y-78402235D01*
X132813444Y-78192191D01*
X131257809Y-76636556D01*
X131047765Y-76496208D01*
X130800000Y-76446925D01*
X130552235Y-76496208D01*
X130342191Y-76636556D01*
X128786556Y-78192191D01*
X128735000Y-78269349D01*
X128735000Y-76018289D01*
X138007967Y-76018289D01*
X138007967Y-76867645D01*
X138333001Y-77652347D01*
X138933587Y-78252933D01*
X139718289Y-78577967D01*
X140567645Y-78577967D01*
X141352347Y-78252933D01*
X141952933Y-77652347D01*
X142277967Y-76867645D01*
X142277967Y-76018289D01*
X141952933Y-75233587D01*
X141352347Y-74633001D01*
X140567645Y-74307967D01*
X139718289Y-74307967D01*
X138933587Y-74633001D01*
X138333001Y-75233587D01*
X138007967Y-76018289D01*
X128735000Y-76018289D01*
X128735000Y-72344606D01*
X146925058Y-54154548D01*
X153069342Y-54154548D01*
X153069342Y-55003904D01*
X153394376Y-55788606D01*
X153994962Y-56389192D01*
X154779664Y-56714226D01*
X155629020Y-56714226D01*
X156413722Y-56389192D01*
X157014308Y-55788606D01*
X157339342Y-55003904D01*
X157339342Y-54154548D01*
X157014308Y-53369846D01*
X156413722Y-52769260D01*
X155629020Y-52444226D01*
X154779664Y-52444226D01*
X153994962Y-52769260D01*
X153394376Y-53369846D01*
X153069342Y-54154548D01*
X146925058Y-54154548D01*
X177200000Y-23879606D01*
X186720483Y-33400089D01*
X186720483Y-33400089D01*
G37*
X186720483Y-33400089D02*
X136210109Y-84010286D01*
X136182619Y-84051515D01*
X136173000Y-84100125D01*
X136182715Y-84148717D01*
X136210197Y-84189803D01*
X136681427Y-84661033D01*
X136349871Y-85157242D01*
X136215215Y-85834205D01*
X136349871Y-86511168D01*
X136733340Y-87085070D01*
X137307242Y-87468539D01*
X137813325Y-87569205D01*
X138155085Y-87569205D01*
X138661168Y-87468539D01*
X139157377Y-87136983D01*
X141910197Y-89889803D01*
X141951399Y-89917333D01*
X142000000Y-89927000D01*
X142048601Y-89917333D01*
X142089891Y-89889714D01*
X145254147Y-86719205D01*
X147452682Y-86719205D01*
X147490034Y-86809380D01*
X148090620Y-87409966D01*
X148875322Y-87735000D01*
X149724678Y-87735000D01*
X150509380Y-87409966D01*
X151109966Y-86809380D01*
X151435000Y-86024678D01*
X151435000Y-85175322D01*
X151109966Y-84390620D01*
X150509380Y-83790034D01*
X149724678Y-83465000D01*
X148875322Y-83465000D01*
X148238795Y-83728658D01*
X152355995Y-79603321D01*
X159440374Y-79603321D01*
X159440374Y-80452677D01*
X159765408Y-81237379D01*
X160365994Y-81837965D01*
X161150696Y-82162999D01*
X162000052Y-82162999D01*
X162784754Y-81837965D01*
X163385340Y-81237379D01*
X163710374Y-80452677D01*
X163710374Y-79603321D01*
X163385340Y-78818619D01*
X162784754Y-78218033D01*
X162000052Y-77892999D01*
X161150696Y-77892999D01*
X160365994Y-78218033D01*
X159765408Y-78818619D01*
X159440374Y-79603321D01*
X152355995Y-79603321D01*
X171318480Y-60603361D01*
X178440333Y-60603361D01*
X178440333Y-61452717D01*
X178765367Y-62237419D01*
X179365953Y-62838005D01*
X180150655Y-63163039D01*
X181000011Y-63163039D01*
X181784713Y-62838005D01*
X182385299Y-62237419D01*
X182710333Y-61452717D01*
X182710333Y-60603361D01*
X182385299Y-59818659D01*
X181784713Y-59218073D01*
X181000011Y-58893039D01*
X180150655Y-58893039D01*
X179365953Y-59218073D01*
X178765367Y-59818659D01*
X178440333Y-60603361D01*
X171318480Y-60603361D01*
X192599632Y-39280152D01*
X202220849Y-48999545D01*
X162555394Y-88665000D01*
X157687159Y-88665000D01*
X157599999Y-88647663D01*
X157512839Y-88665000D01*
X157512835Y-88665000D01*
X157254690Y-88716348D01*
X157166912Y-88775000D01*
X157035845Y-88862576D01*
X157035844Y-88862577D01*
X156961951Y-88911951D01*
X156912577Y-88985844D01*
X153233422Y-92665000D01*
X135761553Y-92665000D01*
X135599571Y-92503018D01*
X135145657Y-92315000D01*
X134654343Y-92315000D01*
X134200429Y-92503018D01*
X133853018Y-92850429D01*
X133665000Y-93304343D01*
X133665000Y-93795657D01*
X133853018Y-94249571D01*
X134200429Y-94596982D01*
X134654343Y-94785000D01*
X135145657Y-94785000D01*
X135599571Y-94596982D01*
X135761553Y-94435000D01*
X153512839Y-94435000D01*
X153600000Y-94452337D01*
X153687161Y-94435000D01*
X153687165Y-94435000D01*
X153945310Y-94383652D01*
X154238049Y-94188049D01*
X154287425Y-94114153D01*
X157966579Y-90435000D01*
X160785394Y-90435000D01*
X156705394Y-94515000D01*
X156587161Y-94515000D01*
X156500000Y-94497663D01*
X156412839Y-94515000D01*
X156412835Y-94515000D01*
X156154690Y-94566348D01*
X155935845Y-94712576D01*
X155935844Y-94712577D01*
X155861951Y-94761951D01*
X155812577Y-94835844D01*
X152135847Y-98512575D01*
X152061951Y-98561951D01*
X151866348Y-98854691D01*
X151815000Y-99112836D01*
X151815000Y-99112839D01*
X151797663Y-99200000D01*
X151815000Y-99287161D01*
X151815000Y-99405394D01*
X151710197Y-99510197D01*
X151682667Y-99551399D01*
X151673000Y-99600000D01*
X151682667Y-99648601D01*
X151710197Y-99689803D01*
X151815000Y-99794606D01*
X151815000Y-99801017D01*
X151645227Y-99970791D01*
X151436563Y-99762127D01*
X150923107Y-99549447D01*
X150367345Y-99549447D01*
X149853889Y-99762127D01*
X149763518Y-99852499D01*
X149471380Y-99560361D01*
X148870449Y-99311447D01*
X148220005Y-99311447D01*
X147619074Y-99560361D01*
X147159141Y-100020294D01*
X146910227Y-100621225D01*
X146910227Y-101271669D01*
X147159141Y-101872600D01*
X147619074Y-102332533D01*
X148220005Y-102581447D01*
X148870449Y-102581447D01*
X149471380Y-102332533D01*
X149763518Y-102040396D01*
X149853889Y-102130767D01*
X150367345Y-102343447D01*
X150923107Y-102343447D01*
X151436563Y-102130767D01*
X151645227Y-101922104D01*
X151853890Y-102130767D01*
X152367346Y-102343447D01*
X152923108Y-102343447D01*
X153436564Y-102130767D01*
X153645228Y-101922104D01*
X153853891Y-102130767D01*
X154361362Y-102340968D01*
X160310197Y-108289803D01*
X160351399Y-108317333D01*
X160400000Y-108327000D01*
X160448601Y-108317333D01*
X160489803Y-108289803D01*
X170064014Y-98715592D01*
X170665001Y-99316580D01*
X170665000Y-105538447D01*
X170503018Y-105700429D01*
X170315000Y-106154343D01*
X170315000Y-106645657D01*
X170503018Y-107099571D01*
X170850429Y-107446982D01*
X171304343Y-107635000D01*
X171795657Y-107635000D01*
X172249571Y-107446982D01*
X172596982Y-107099571D01*
X172785000Y-106645657D01*
X172785000Y-106154343D01*
X172596982Y-105700429D01*
X172435000Y-105538447D01*
X172435000Y-105074778D01*
X175765000Y-105074778D01*
X175765000Y-105725222D01*
X176013914Y-106326153D01*
X176473847Y-106786086D01*
X177074778Y-107035000D01*
X177725222Y-107035000D01*
X178326153Y-106786086D01*
X178786086Y-106326153D01*
X179035000Y-105725222D01*
X179035000Y-105074778D01*
X178786086Y-104473847D01*
X178326153Y-104013914D01*
X177725222Y-103765000D01*
X177074778Y-103765000D01*
X176473847Y-104013914D01*
X176013914Y-104473847D01*
X175765000Y-105074778D01*
X172435000Y-105074778D01*
X172435000Y-101790959D01*
X191308086Y-101790959D01*
X191429371Y-102013000D01*
X192573000Y-102013000D01*
X192573000Y-100870085D01*
X192827000Y-100870085D01*
X192827000Y-102013000D01*
X193970629Y-102013000D01*
X194091914Y-101790959D01*
X193852389Y-101284866D01*
X193437423Y-100908959D01*
X193049039Y-100748096D01*
X192827000Y-100870085D01*
X192573000Y-100870085D01*
X192350961Y-100748096D01*
X191962577Y-100908959D01*
X191547611Y-101284866D01*
X191308086Y-101790959D01*
X172435000Y-101790959D01*
X172435000Y-99269460D01*
X181179161Y-99269460D01*
X181436314Y-99823336D01*
X181885852Y-100236643D01*
X182330540Y-100420839D01*
X182573000Y-100300576D01*
X182573000Y-99027000D01*
X182827000Y-99027000D01*
X182827000Y-100300576D01*
X183069460Y-100420839D01*
X183623336Y-100163686D01*
X184036643Y-99714148D01*
X184220839Y-99269460D01*
X184100576Y-99027000D01*
X182827000Y-99027000D01*
X182573000Y-99027000D01*
X181299424Y-99027000D01*
X181179161Y-99269460D01*
X172435000Y-99269460D01*
X172435000Y-99037159D01*
X172452337Y-98949999D01*
X172435000Y-98862839D01*
X172435000Y-98862835D01*
X172383652Y-98604690D01*
X172188049Y-98311951D01*
X172114156Y-98262577D01*
X171315592Y-97464014D01*
X177414014Y-91365592D01*
X181165001Y-95116580D01*
X181165000Y-95597233D01*
X180699466Y-95597233D01*
X180699466Y-95059136D01*
X180465776Y-94494959D01*
X180033973Y-94063156D01*
X179469796Y-93829466D01*
X178859136Y-93829466D01*
X178294959Y-94063156D01*
X177863156Y-94494959D01*
X177629466Y-95059136D01*
X177629466Y-95669796D01*
X177863156Y-96233973D01*
X178294959Y-96665776D01*
X178859136Y-96899466D01*
X179397233Y-96899466D01*
X179397233Y-97437563D01*
X179630923Y-98001740D01*
X180062726Y-98433543D01*
X180626903Y-98667233D01*
X181237563Y-98667233D01*
X181245360Y-98664003D01*
X181299424Y-98773000D01*
X182393392Y-98773000D01*
X182506251Y-98885859D01*
X182685859Y-98706251D01*
X182573000Y-98593392D01*
X182573000Y-97499424D01*
X182827000Y-97499424D01*
X182827000Y-98773000D01*
X184100576Y-98773000D01*
X184220839Y-98530540D01*
X183963686Y-97976664D01*
X183514148Y-97563357D01*
X183069460Y-97379161D01*
X182827000Y-97499424D01*
X182573000Y-97499424D01*
X182464003Y-97445360D01*
X182467233Y-97437563D01*
X182467233Y-96848812D01*
X182614156Y-96701889D01*
X182688049Y-96652515D01*
X182753414Y-96554691D01*
X182883651Y-96359777D01*
X182883652Y-96359776D01*
X182935000Y-96101631D01*
X182935000Y-96101627D01*
X182952337Y-96014467D01*
X182935000Y-95927307D01*
X182935000Y-94837161D01*
X182948434Y-94769621D01*
X186358250Y-94769621D01*
X186358250Y-95817889D01*
X186759405Y-96786363D01*
X187500642Y-97527600D01*
X188469116Y-97928755D01*
X189517384Y-97928755D01*
X190485858Y-97527600D01*
X191227095Y-96786363D01*
X191628250Y-95817889D01*
X191628250Y-94769621D01*
X191227095Y-93801147D01*
X190485858Y-93059910D01*
X189517384Y-92658755D01*
X188469116Y-92658755D01*
X187500642Y-93059910D01*
X186759405Y-93801147D01*
X186358250Y-94769621D01*
X182948434Y-94769621D01*
X182952337Y-94750000D01*
X182935000Y-94662839D01*
X182935000Y-94662835D01*
X182883652Y-94404690D01*
X182771888Y-94237424D01*
X182737424Y-94185845D01*
X182737423Y-94185844D01*
X182688049Y-94111951D01*
X182614156Y-94062577D01*
X178665592Y-90114014D01*
X180135711Y-88643895D01*
X180135711Y-89595350D01*
X180536866Y-90563824D01*
X181278103Y-91305061D01*
X182246577Y-91706216D01*
X183294845Y-91706216D01*
X184263319Y-91305061D01*
X185004556Y-90563824D01*
X185405711Y-89595350D01*
X185405711Y-88547082D01*
X185004556Y-87578608D01*
X184263319Y-86837371D01*
X183294845Y-86436216D01*
X182343390Y-86436216D01*
X185598268Y-83181338D01*
X193201809Y-91081122D01*
X194396161Y-92773120D01*
X195792873Y-94768424D01*
X197587420Y-97859031D01*
X199182564Y-101248713D01*
X200478916Y-104838611D01*
X201476122Y-108428553D01*
X202174049Y-112217299D01*
X202373000Y-114405756D01*
X202373000Y-119595474D01*
X202173785Y-122384486D01*
X201475894Y-126372433D01*
X200478359Y-130063313D01*
X199381666Y-133353391D01*
X197786707Y-136842364D01*
X195992575Y-140031932D01*
X193799705Y-143121885D01*
X190908116Y-146512025D01*
X188016007Y-149204678D01*
X186571273Y-150408623D01*
X186610462Y-150349972D01*
X186721835Y-149790063D01*
X186692605Y-149643113D01*
X187981421Y-148354296D01*
X188016526Y-148361279D01*
X188299192Y-148361279D01*
X188717768Y-148278019D01*
X189192436Y-147960856D01*
X189509599Y-147486188D01*
X189620972Y-146926279D01*
X189580011Y-146720352D01*
X191050353Y-145250010D01*
X191269041Y-145250010D01*
X191687617Y-145166750D01*
X192162285Y-144849587D01*
X192479448Y-144374919D01*
X192590821Y-143815010D01*
X192479448Y-143255101D01*
X192162285Y-142780433D01*
X191687617Y-142463270D01*
X191269041Y-142380010D01*
X190986375Y-142380010D01*
X190567799Y-142463270D01*
X190093131Y-142780433D01*
X189775968Y-143255101D01*
X189664595Y-143815010D01*
X189717288Y-144079917D01*
X188304810Y-145492397D01*
X188299192Y-145491279D01*
X188016526Y-145491279D01*
X187597950Y-145574539D01*
X187123282Y-145891702D01*
X186806119Y-146366370D01*
X186694746Y-146926279D01*
X186729842Y-147102718D01*
X185464649Y-148367912D01*
X185400055Y-148355063D01*
X185117389Y-148355063D01*
X184698813Y-148438323D01*
X184224145Y-148755486D01*
X183906982Y-149230154D01*
X183795609Y-149790063D01*
X183906982Y-150349972D01*
X184224145Y-150824640D01*
X184698813Y-151141803D01*
X185117389Y-151225063D01*
X185400055Y-151225063D01*
X185651583Y-151175031D01*
X185025610Y-151696675D01*
X181635576Y-153790520D01*
X179143972Y-155185818D01*
X175154402Y-156881385D01*
X172265052Y-157877713D01*
X168776025Y-158675205D01*
X165586358Y-159173590D01*
X160597705Y-159472909D01*
X158411038Y-159420846D01*
X158238049Y-159161951D01*
X158164156Y-159112577D01*
X155835000Y-156783422D01*
X155835000Y-156554343D01*
X155646982Y-156100429D01*
X155299571Y-155753018D01*
X154845657Y-155565000D01*
X154354343Y-155565000D01*
X153900429Y-155753018D01*
X153553018Y-156100429D01*
X153365000Y-156554343D01*
X153365000Y-157045657D01*
X153553018Y-157499571D01*
X153900429Y-157846982D01*
X154354343Y-158035000D01*
X154583422Y-158035000D01*
X155836563Y-159288142D01*
X153721309Y-158974770D01*
X151128043Y-158476065D01*
X148834728Y-157877809D01*
X146243485Y-157080504D01*
X141756234Y-155185887D01*
X138066650Y-153091799D01*
X135674694Y-151497161D01*
X133783560Y-150004161D01*
X133080613Y-149328250D01*
X133730379Y-149328250D01*
X134698853Y-148927095D01*
X135440090Y-148185858D01*
X135841245Y-147217384D01*
X135841245Y-146169116D01*
X135440090Y-145200642D01*
X134698853Y-144459405D01*
X133730379Y-144058250D01*
X132682111Y-144058250D01*
X131713637Y-144459405D01*
X130972400Y-145200642D01*
X130571245Y-146169116D01*
X130571245Y-146915396D01*
X126081384Y-142598222D01*
X128065000Y-140614606D01*
X128065000Y-140705330D01*
X128298690Y-141269507D01*
X128730493Y-141701310D01*
X129294670Y-141935000D01*
X129905330Y-141935000D01*
X130469507Y-141701310D01*
X130901310Y-141269507D01*
X131135000Y-140705330D01*
X131135000Y-140167233D01*
X131515655Y-140167233D01*
X143962577Y-152614156D01*
X144011951Y-152688049D01*
X144085844Y-152737423D01*
X144085845Y-152737424D01*
X144141586Y-152774669D01*
X144304690Y-152883652D01*
X144562835Y-152935000D01*
X144562840Y-152935000D01*
X144649999Y-152952337D01*
X144737159Y-152935000D01*
X156646868Y-152935000D01*
X156663914Y-152976153D01*
X157123847Y-153436086D01*
X157724778Y-153685000D01*
X158375222Y-153685000D01*
X158976153Y-153436086D01*
X159436086Y-152976153D01*
X159685000Y-152375222D01*
X159685000Y-151724778D01*
X159436086Y-151123847D01*
X158976153Y-150663914D01*
X158375222Y-150415000D01*
X157724778Y-150415000D01*
X157123847Y-150663914D01*
X156663914Y-151123847D01*
X156646868Y-151165000D01*
X145016579Y-151165000D01*
X143605229Y-149753650D01*
X143762835Y-149785000D01*
X143762839Y-149785000D01*
X143850000Y-149802337D01*
X143937161Y-149785000D01*
X160133422Y-149785000D01*
X166865000Y-156516579D01*
X166865000Y-156985439D01*
X167083466Y-157512862D01*
X167487138Y-157916534D01*
X168014561Y-158135000D01*
X168585439Y-158135000D01*
X169112862Y-157916534D01*
X169516534Y-157512862D01*
X169735000Y-156985439D01*
X169735000Y-156414561D01*
X169516534Y-155887138D01*
X169112862Y-155483466D01*
X168585439Y-155265000D01*
X168116579Y-155265000D01*
X161187425Y-148335847D01*
X161138049Y-148261951D01*
X160845310Y-148066348D01*
X160587165Y-148015000D01*
X160587161Y-148015000D01*
X160500000Y-147997663D01*
X160412839Y-148015000D01*
X144216579Y-148015000D01*
X139307289Y-143105711D01*
X139952918Y-143105711D01*
X140921392Y-142704556D01*
X141537894Y-142088054D01*
X145073563Y-142088054D01*
X145078616Y-142137349D01*
X145102149Y-142180958D01*
X145140578Y-142212241D01*
X147044804Y-143220361D01*
X147822180Y-143997737D01*
X147871554Y-144071630D01*
X147945447Y-144121004D01*
X147945448Y-144121005D01*
X147966393Y-144135000D01*
X148164293Y-144267233D01*
X148422438Y-144318581D01*
X148422442Y-144318581D01*
X148509602Y-144335918D01*
X148596762Y-144318581D01*
X149263431Y-144318581D01*
X150474602Y-144830999D01*
X150474602Y-145022436D01*
X150457264Y-145109601D01*
X150525949Y-145454910D01*
X150672177Y-145673755D01*
X150672179Y-145673757D01*
X150721553Y-145747650D01*
X150795446Y-145797024D01*
X152212577Y-147214156D01*
X152261951Y-147288049D01*
X152335844Y-147337423D01*
X152335845Y-147337424D01*
X152366349Y-147357806D01*
X152554690Y-147483652D01*
X152812835Y-147535000D01*
X152812839Y-147535000D01*
X152899999Y-147552337D01*
X152987159Y-147535000D01*
X162312839Y-147535000D01*
X162400000Y-147552337D01*
X162487161Y-147535000D01*
X162487165Y-147535000D01*
X162745310Y-147483652D01*
X163038049Y-147288049D01*
X163087425Y-147214153D01*
X163420150Y-146881428D01*
X163431850Y-146881428D01*
X163558156Y-146868988D01*
X163607579Y-146859157D01*
X163712577Y-146964156D01*
X163761951Y-147038049D01*
X163835844Y-147087423D01*
X163835845Y-147087424D01*
X163906633Y-147134723D01*
X164054690Y-147233652D01*
X164312835Y-147285000D01*
X164312839Y-147285000D01*
X164399999Y-147302337D01*
X164487159Y-147285000D01*
X165483422Y-147285000D01*
X166812577Y-148614156D01*
X166861951Y-148688049D01*
X166935844Y-148737423D01*
X166935845Y-148737424D01*
X166962877Y-148755486D01*
X167154690Y-148883652D01*
X167412835Y-148935000D01*
X167412839Y-148935000D01*
X167499999Y-148952337D01*
X167587159Y-148935000D01*
X169112839Y-148935000D01*
X169200000Y-148952337D01*
X169287161Y-148935000D01*
X169287165Y-148935000D01*
X169545310Y-148883652D01*
X169838049Y-148688049D01*
X169887425Y-148614153D01*
X170714156Y-147787423D01*
X170788049Y-147738049D01*
X170866889Y-147620058D01*
X170983652Y-147445310D01*
X170992890Y-147398867D01*
X171035000Y-147187165D01*
X171035000Y-147187161D01*
X171052337Y-147100000D01*
X171035000Y-147012839D01*
X171035000Y-146616578D01*
X171566579Y-146085000D01*
X172488550Y-146085000D01*
X172601510Y-146197960D01*
X172431378Y-146368091D01*
X172235749Y-146840383D01*
X172235749Y-147351587D01*
X172431378Y-147823879D01*
X172792855Y-148185356D01*
X173265147Y-148380985D01*
X173776351Y-148380985D01*
X174248643Y-148185356D01*
X174409979Y-148024021D01*
X174858991Y-148473033D01*
X175069035Y-148613381D01*
X175316800Y-148662664D01*
X175564565Y-148613381D01*
X175575387Y-148606150D01*
X176679987Y-149710751D01*
X176729361Y-149784644D01*
X176803254Y-149834018D01*
X176803255Y-149834019D01*
X176914290Y-149908210D01*
X177022100Y-149980247D01*
X177280245Y-150031595D01*
X177280249Y-150031595D01*
X177367409Y-150048932D01*
X177454569Y-150031595D01*
X177637227Y-150031595D01*
X177968761Y-150363129D01*
X178496184Y-150581595D01*
X179067062Y-150581595D01*
X179594485Y-150363129D01*
X179998157Y-149959457D01*
X180216623Y-149432034D01*
X180216623Y-148861156D01*
X179998157Y-148333733D01*
X179594485Y-147930061D01*
X179067062Y-147711595D01*
X178496184Y-147711595D01*
X177968761Y-147930061D01*
X177685608Y-148213214D01*
X176826965Y-147354572D01*
X176834196Y-147343750D01*
X176883479Y-147095985D01*
X176834196Y-146848220D01*
X176693848Y-146638176D01*
X175940779Y-145885107D01*
X177786215Y-144039672D01*
X177789078Y-144040858D01*
X178359956Y-144040858D01*
X178887379Y-143822392D01*
X179291051Y-143418720D01*
X179509517Y-142891297D01*
X179509517Y-142320419D01*
X179291051Y-141792996D01*
X178887379Y-141389324D01*
X178359956Y-141170858D01*
X177789078Y-141170858D01*
X177261655Y-141389324D01*
X176857983Y-141792996D01*
X176639517Y-142320419D01*
X176639517Y-142683213D01*
X174651292Y-144671438D01*
X174610120Y-144572040D01*
X174363323Y-144325243D01*
X174363323Y-143644186D01*
X175815009Y-142192500D01*
X175961677Y-142111018D01*
X175974932Y-142102539D01*
X177993989Y-140627074D01*
X179829258Y-140627074D01*
X180160792Y-140958608D01*
X180688215Y-141177074D01*
X181259093Y-141177074D01*
X181786516Y-140958608D01*
X182190188Y-140554936D01*
X182408654Y-140027513D01*
X182408654Y-139456635D01*
X182190188Y-138929212D01*
X181858654Y-138597678D01*
X181858654Y-137060579D01*
X182508503Y-136379785D01*
X182508503Y-136916244D01*
X182726969Y-137443667D01*
X183130641Y-137847339D01*
X183658064Y-138065805D01*
X184228942Y-138065805D01*
X184756365Y-137847339D01*
X185160037Y-137443667D01*
X185378503Y-136916244D01*
X185378503Y-136447383D01*
X187233483Y-134592403D01*
X187564933Y-134592403D01*
X188037225Y-134396774D01*
X188198561Y-134235439D01*
X188647573Y-134684451D01*
X188857617Y-134824799D01*
X189105382Y-134874082D01*
X189281043Y-134839141D01*
X189281044Y-135967731D01*
X189159750Y-136048777D01*
X188842587Y-136523445D01*
X188731214Y-137083354D01*
X188842587Y-137643263D01*
X189159750Y-138117931D01*
X189634418Y-138435094D01*
X190052994Y-138518354D01*
X190335660Y-138518354D01*
X190754236Y-138435094D01*
X191228904Y-138117931D01*
X191546067Y-137643263D01*
X191657440Y-137083354D01*
X191546067Y-136523445D01*
X191228904Y-136048777D01*
X191051043Y-135929934D01*
X191051043Y-134455223D01*
X191068380Y-134368063D01*
X191051043Y-134280903D01*
X191051043Y-134280899D01*
X190999695Y-134022754D01*
X190804092Y-133730015D01*
X190730199Y-133680641D01*
X190615547Y-133565989D01*
X190622778Y-133555168D01*
X190672061Y-133307403D01*
X190622778Y-133059638D01*
X190482430Y-132849594D01*
X189563191Y-131930355D01*
X189353147Y-131790007D01*
X189105382Y-131740724D01*
X188857617Y-131790007D01*
X188647573Y-131930355D01*
X188441142Y-132136786D01*
X188594331Y-131766954D01*
X188594331Y-131255750D01*
X188398702Y-130783458D01*
X188037225Y-130421981D01*
X187564933Y-130226352D01*
X187053729Y-130226352D01*
X186581437Y-130421981D01*
X186377067Y-130626351D01*
X186323354Y-130626351D01*
X187214663Y-128754602D01*
X187219601Y-128742715D01*
X187479656Y-128014561D01*
X191265000Y-128014561D01*
X191265000Y-128585439D01*
X191483466Y-129112862D01*
X191887138Y-129516534D01*
X192414561Y-129735000D01*
X192985439Y-129735000D01*
X193512862Y-129516534D01*
X193916534Y-129112862D01*
X194135000Y-128585439D01*
X194135000Y-128014561D01*
X193916534Y-127487138D01*
X193512862Y-127083466D01*
X192985439Y-126865000D01*
X192414561Y-126865000D01*
X191887138Y-127083466D01*
X191483466Y-127487138D01*
X191265000Y-128014561D01*
X187479656Y-128014561D01*
X188219601Y-125942715D01*
X188222971Y-125931735D01*
X189022971Y-122831735D01*
X189026223Y-122814025D01*
X189326223Y-120114025D01*
X189326653Y-120109382D01*
X189526653Y-117409382D01*
X189526899Y-117394924D01*
X189426899Y-114894924D01*
X189425405Y-114879935D01*
X189273162Y-113928417D01*
X190016579Y-113185000D01*
X191555604Y-113185000D01*
X191815000Y-113444396D01*
X191815001Y-117005478D01*
X191665423Y-117105423D01*
X191348260Y-117580091D01*
X191236887Y-118140000D01*
X191348260Y-118699909D01*
X191665423Y-119174577D01*
X192140091Y-119491740D01*
X192558667Y-119575000D01*
X192841333Y-119575000D01*
X193259909Y-119491740D01*
X193734577Y-119174577D01*
X193894657Y-118935000D01*
X196012839Y-118935000D01*
X196100000Y-118952337D01*
X196187161Y-118935000D01*
X196187165Y-118935000D01*
X196445310Y-118883652D01*
X196738049Y-118688049D01*
X196787425Y-118614153D01*
X198466579Y-116935000D01*
X199025222Y-116935000D01*
X199626153Y-116686086D01*
X200086086Y-116226153D01*
X200335000Y-115625222D01*
X200335000Y-114974778D01*
X200086086Y-114373847D01*
X199626153Y-113913914D01*
X199025222Y-113665000D01*
X198374778Y-113665000D01*
X197773847Y-113913914D01*
X197313914Y-114373847D01*
X197065000Y-114974778D01*
X197065000Y-115625222D01*
X197125980Y-115772441D01*
X195733422Y-117165000D01*
X193774385Y-117165000D01*
X193734577Y-117105423D01*
X193585000Y-117005479D01*
X193585000Y-113444396D01*
X193916534Y-113112862D01*
X194135000Y-112585439D01*
X194135000Y-112014561D01*
X193916534Y-111487138D01*
X193512862Y-111083466D01*
X192985439Y-110865000D01*
X192414561Y-110865000D01*
X191887138Y-111083466D01*
X191555604Y-111415000D01*
X189737161Y-111415000D01*
X189650000Y-111397663D01*
X189562839Y-111415000D01*
X189562835Y-111415000D01*
X189304690Y-111466348D01*
X189085845Y-111612576D01*
X189085844Y-111612577D01*
X189011951Y-111661951D01*
X188962577Y-111735844D01*
X188893104Y-111805317D01*
X188423748Y-109771443D01*
X188420483Y-109759839D01*
X187620483Y-107359839D01*
X187615311Y-107346780D01*
X185373278Y-102489041D01*
X191308086Y-102489041D01*
X191547611Y-102995134D01*
X191962577Y-103371041D01*
X192350961Y-103531904D01*
X192573000Y-103409915D01*
X192573000Y-102267000D01*
X192827000Y-102267000D01*
X192827000Y-103409915D01*
X193049039Y-103531904D01*
X193437423Y-103371041D01*
X193852389Y-102995134D01*
X194091914Y-102489041D01*
X193970629Y-102267000D01*
X192827000Y-102267000D01*
X192573000Y-102267000D01*
X191429371Y-102267000D01*
X191308086Y-102489041D01*
X185373278Y-102489041D01*
X185215311Y-102146780D01*
X185189803Y-102110197D01*
X185148601Y-102082667D01*
X185100000Y-102073000D01*
X185051399Y-102082667D01*
X185010197Y-102110197D01*
X172720019Y-114400375D01*
X172610567Y-114378604D01*
X172610563Y-114378604D01*
X172523402Y-114361267D01*
X172436241Y-114378604D01*
X169923555Y-114378604D01*
X169836395Y-114361267D01*
X169749235Y-114378604D01*
X169749231Y-114378604D01*
X169491086Y-114429952D01*
X169491084Y-114429953D01*
X169491085Y-114429953D01*
X169272241Y-114576180D01*
X169272240Y-114576181D01*
X169198347Y-114625555D01*
X169148973Y-114699448D01*
X167262102Y-116586320D01*
X166793241Y-116586320D01*
X166265818Y-116804786D01*
X165862146Y-117208458D01*
X165643680Y-117735881D01*
X165643680Y-118306759D01*
X165862146Y-118834182D01*
X166265818Y-119237854D01*
X166793241Y-119456320D01*
X167364119Y-119456320D01*
X167876175Y-119244219D01*
X165666631Y-121453763D01*
X165771698Y-121296519D01*
X165883071Y-120736610D01*
X165771698Y-120176701D01*
X165454535Y-119702033D01*
X164979867Y-119384870D01*
X164561291Y-119301610D01*
X164278625Y-119301610D01*
X163860049Y-119384870D01*
X163385381Y-119702033D01*
X163068218Y-120176701D01*
X162956845Y-120736610D01*
X163068218Y-121296519D01*
X163385381Y-121771187D01*
X163860049Y-122088350D01*
X164278625Y-122171610D01*
X164561291Y-122171610D01*
X164979867Y-122088350D01*
X165137111Y-121983283D01*
X159143884Y-127976510D01*
X157885000Y-126717626D01*
X157885000Y-116279782D01*
X160368093Y-116279782D01*
X160639059Y-116871098D01*
X161115685Y-117313709D01*
X161604489Y-117516178D01*
X161862949Y-117397248D01*
X161862949Y-116021322D01*
X162116949Y-116021322D01*
X162116949Y-117397248D01*
X162375409Y-117516178D01*
X162966725Y-117245212D01*
X163409336Y-116768586D01*
X163611805Y-116279782D01*
X163492875Y-116021322D01*
X162116949Y-116021322D01*
X161862949Y-116021322D01*
X160487023Y-116021322D01*
X160368093Y-116279782D01*
X157885000Y-116279782D01*
X157885000Y-115508862D01*
X160368093Y-115508862D01*
X160487023Y-115767322D01*
X161862949Y-115767322D01*
X161862949Y-114391396D01*
X162116949Y-114391396D01*
X162116949Y-115767322D01*
X163492875Y-115767322D01*
X163611805Y-115508862D01*
X163340839Y-114917546D01*
X162864213Y-114474935D01*
X162375409Y-114272466D01*
X162116949Y-114391396D01*
X161862949Y-114391396D01*
X161604489Y-114272466D01*
X161013173Y-114543432D01*
X160570562Y-115020058D01*
X160368093Y-115508862D01*
X157885000Y-115508862D01*
X157885000Y-109912247D01*
X166011804Y-109912247D01*
X166011804Y-110562691D01*
X166260718Y-111163622D01*
X166720651Y-111623555D01*
X167321582Y-111872469D01*
X167972026Y-111872469D01*
X168572957Y-111623555D01*
X169032890Y-111163622D01*
X169281804Y-110562691D01*
X169281804Y-109912247D01*
X169032890Y-109311316D01*
X168572957Y-108851383D01*
X167972026Y-108602469D01*
X167321582Y-108602469D01*
X166720651Y-108851383D01*
X166260718Y-109311316D01*
X166011804Y-109912247D01*
X157885000Y-109912247D01*
X157885000Y-109087161D01*
X157902337Y-109000000D01*
X157885000Y-108912839D01*
X157885000Y-108912835D01*
X157833652Y-108654690D01*
X157772103Y-108562576D01*
X157687424Y-108435845D01*
X157687423Y-108435844D01*
X157638049Y-108361951D01*
X157564156Y-108312577D01*
X155487425Y-106235847D01*
X155438049Y-106161951D01*
X155145310Y-105966348D01*
X154887165Y-105915000D01*
X154887161Y-105915000D01*
X154800000Y-105897663D01*
X154712839Y-105915000D01*
X148561553Y-105915000D01*
X148399571Y-105753018D01*
X147945657Y-105565000D01*
X147454343Y-105565000D01*
X147000429Y-105753018D01*
X146653018Y-106100429D01*
X146465000Y-106554343D01*
X146465000Y-107045657D01*
X146653018Y-107499571D01*
X147000429Y-107846982D01*
X147454343Y-108035000D01*
X147945657Y-108035000D01*
X148399571Y-107846982D01*
X148561553Y-107685000D01*
X154433422Y-107685000D01*
X156115001Y-109366580D01*
X156115000Y-126997043D01*
X156097663Y-127084204D01*
X156115000Y-127171365D01*
X156115000Y-127171368D01*
X156166348Y-127429513D01*
X156361951Y-127722253D01*
X156435847Y-127771629D01*
X157892306Y-129228088D01*
X147794602Y-139325792D01*
X147794602Y-139194828D01*
X147984179Y-139068157D01*
X148301342Y-138593489D01*
X148412715Y-138033580D01*
X148301342Y-137473671D01*
X147984179Y-136999003D01*
X147834602Y-136899059D01*
X147834602Y-135037977D01*
X148126136Y-134746443D01*
X148344602Y-134219020D01*
X148344602Y-133648142D01*
X148126136Y-133120719D01*
X147722464Y-132717047D01*
X147195041Y-132498581D01*
X146624163Y-132498581D01*
X146096740Y-132717047D01*
X145693068Y-133120719D01*
X145474602Y-133648142D01*
X145474602Y-134219020D01*
X145693068Y-134746443D01*
X146064603Y-135117978D01*
X146064602Y-136899059D01*
X145915025Y-136999003D01*
X145597862Y-137473671D01*
X145486489Y-138033580D01*
X145597862Y-138593489D01*
X145915025Y-139068157D01*
X146024603Y-139141374D01*
X146024602Y-141095792D01*
X145110197Y-142010197D01*
X145087759Y-142040578D01*
X145073563Y-142088054D01*
X141537894Y-142088054D01*
X141662629Y-141963319D01*
X142063784Y-140994845D01*
X142063784Y-139946577D01*
X141662629Y-138978103D01*
X140921392Y-138236866D01*
X139952918Y-137835711D01*
X138904650Y-137835711D01*
X137936176Y-138236866D01*
X137385000Y-138788042D01*
X137385000Y-135416578D01*
X140666579Y-132135000D01*
X145912839Y-132135000D01*
X146000000Y-132152337D01*
X146087161Y-132135000D01*
X146087165Y-132135000D01*
X146345310Y-132083652D01*
X146638049Y-131888049D01*
X146687425Y-131814153D01*
X147914156Y-130587423D01*
X147988049Y-130538049D01*
X148069368Y-130416348D01*
X148183651Y-130245311D01*
X148183652Y-130245310D01*
X148235000Y-129987165D01*
X148235000Y-129987161D01*
X148252337Y-129900001D01*
X148235000Y-129812841D01*
X148235000Y-125616578D01*
X155164156Y-118687422D01*
X155238049Y-118638049D01*
X155320834Y-118514154D01*
X155400243Y-118395310D01*
X155433652Y-118345310D01*
X155485000Y-118087165D01*
X155485000Y-118087161D01*
X155502337Y-118000001D01*
X155485000Y-117912841D01*
X155485000Y-111011553D01*
X155546982Y-110949571D01*
X155735000Y-110495657D01*
X155735000Y-110004343D01*
X155546982Y-109550429D01*
X155199571Y-109203018D01*
X154745657Y-109015000D01*
X154254343Y-109015000D01*
X153800429Y-109203018D01*
X153453018Y-109550429D01*
X153265000Y-110004343D01*
X153265000Y-110495657D01*
X153453018Y-110949571D01*
X153715001Y-111211554D01*
X153715000Y-117633421D01*
X146785847Y-124562575D01*
X146711951Y-124611951D01*
X146516348Y-124904691D01*
X146465000Y-125162836D01*
X146465000Y-125162839D01*
X146447663Y-125250000D01*
X146465000Y-125337161D01*
X146465001Y-129533420D01*
X145633422Y-130365000D01*
X140387161Y-130365000D01*
X140300000Y-130347663D01*
X140212839Y-130365000D01*
X140212835Y-130365000D01*
X139954690Y-130416348D01*
X139735845Y-130562576D01*
X139735844Y-130562577D01*
X139661951Y-130611951D01*
X139612577Y-130685844D01*
X135935845Y-134362577D01*
X135861952Y-134411951D01*
X135812578Y-134485844D01*
X135812576Y-134485846D01*
X135666348Y-134704691D01*
X135597663Y-135050000D01*
X135615001Y-135137165D01*
X135615000Y-141462839D01*
X135597663Y-141550000D01*
X135615000Y-141637161D01*
X135615000Y-141637164D01*
X135646350Y-141794772D01*
X132869487Y-139017909D01*
X132902767Y-138937563D01*
X132902767Y-138399466D01*
X133440864Y-138399466D01*
X134005041Y-138165776D01*
X134436844Y-137733973D01*
X134670534Y-137169796D01*
X134670534Y-136559136D01*
X134436844Y-135994959D01*
X134005041Y-135563156D01*
X133440864Y-135329466D01*
X133350140Y-135329466D01*
X143469839Y-125209767D01*
X143469840Y-126917921D01*
X143013914Y-127373847D01*
X142765000Y-127974778D01*
X142765000Y-128625222D01*
X143013914Y-129226153D01*
X143473847Y-129686086D01*
X144074778Y-129935000D01*
X144725222Y-129935000D01*
X145326153Y-129686086D01*
X145786086Y-129226153D01*
X146035000Y-128625222D01*
X146035000Y-127974778D01*
X145786086Y-127373847D01*
X145326153Y-126913914D01*
X145239839Y-126878162D01*
X145239839Y-124586998D01*
X145389416Y-124487054D01*
X145706579Y-124012386D01*
X145817952Y-123452477D01*
X145719928Y-122959678D01*
X151057545Y-117622061D01*
X151253605Y-117703272D01*
X151824483Y-117703272D01*
X152351906Y-117484806D01*
X152755578Y-117081134D01*
X152974044Y-116553711D01*
X152974044Y-115982833D01*
X152755578Y-115455410D01*
X152351906Y-115051738D01*
X151824483Y-114833272D01*
X151253605Y-114833272D01*
X150726182Y-115051738D01*
X150322510Y-115455410D01*
X150104044Y-115982833D01*
X150104044Y-116424438D01*
X148472312Y-114792706D01*
X148963234Y-114816951D01*
X149490466Y-114628459D01*
X149561711Y-114385691D01*
X148753043Y-113577023D01*
X148738901Y-113591166D01*
X148559296Y-113411561D01*
X148573438Y-113397418D01*
X148932648Y-113397418D01*
X149741316Y-114206086D01*
X149984084Y-114134841D01*
X150172576Y-113607609D01*
X150144957Y-113048377D01*
X149984076Y-112660001D01*
X149740811Y-112589255D01*
X148932648Y-113397418D01*
X148573438Y-113397418D01*
X147764770Y-112588750D01*
X147522002Y-112659995D01*
X147333510Y-113187227D01*
X147357755Y-113678149D01*
X146088751Y-112409145D01*
X147944375Y-112409145D01*
X148753043Y-113217813D01*
X149561206Y-112409650D01*
X149490460Y-112166385D01*
X149102084Y-112005504D01*
X148542852Y-111977885D01*
X148015620Y-112166377D01*
X147944375Y-112409145D01*
X146088751Y-112409145D01*
X145714596Y-112034990D01*
X146205518Y-112059235D01*
X146732750Y-111870743D01*
X146803995Y-111627975D01*
X145995327Y-110819307D01*
X145981185Y-110833450D01*
X145801580Y-110653845D01*
X145815722Y-110639702D01*
X146174932Y-110639702D01*
X146983600Y-111448370D01*
X147226368Y-111377125D01*
X147414860Y-110849893D01*
X147387241Y-110290661D01*
X147226360Y-109902285D01*
X146983095Y-109831539D01*
X146174932Y-110639702D01*
X145815722Y-110639702D01*
X145007054Y-109831034D01*
X144764286Y-109902279D01*
X144575794Y-110429511D01*
X144600039Y-110920433D01*
X143331035Y-109651429D01*
X145186659Y-109651429D01*
X145995327Y-110460097D01*
X146803490Y-109651934D01*
X146732744Y-109408669D01*
X146344368Y-109247788D01*
X145785136Y-109220169D01*
X145257904Y-109408661D01*
X145186659Y-109651429D01*
X143331035Y-109651429D01*
X142489803Y-108810197D01*
X142448601Y-108782667D01*
X142400000Y-108773000D01*
X142351399Y-108782667D01*
X142310197Y-108810197D01*
X136710986Y-114409408D01*
X136435000Y-114133422D01*
X136435000Y-113904343D01*
X136246982Y-113450429D01*
X135899571Y-113103018D01*
X135445657Y-112915000D01*
X134954343Y-112915000D01*
X134500429Y-113103018D01*
X134153018Y-113450429D01*
X133965000Y-113904343D01*
X133965000Y-114395657D01*
X134153018Y-114849571D01*
X134500429Y-115196982D01*
X134954343Y-115385000D01*
X135183422Y-115385000D01*
X135459408Y-115660986D01*
X117835986Y-133284408D01*
X113797000Y-129245422D01*
X113797000Y-129082786D01*
X114092095Y-129082786D01*
X114605551Y-128870106D01*
X114998534Y-128477123D01*
X115211214Y-127963667D01*
X115211214Y-127835862D01*
X115624360Y-127835862D01*
X116225291Y-127586948D01*
X116685224Y-127127015D01*
X116934138Y-126526084D01*
X116934138Y-125875640D01*
X116685224Y-125274709D01*
X116225291Y-124814776D01*
X115624360Y-124565862D01*
X114973916Y-124565862D01*
X114372985Y-124814776D01*
X113913052Y-125274709D01*
X113664138Y-125875640D01*
X113664138Y-126288786D01*
X113536333Y-126288786D01*
X113022877Y-126501466D01*
X112629894Y-126894449D01*
X112417214Y-127407905D01*
X112417214Y-127703000D01*
X112122119Y-127703000D01*
X111608663Y-127915680D01*
X111215680Y-128308663D01*
X111003000Y-128822119D01*
X111003000Y-129117214D01*
X110707905Y-129117214D01*
X110194449Y-129329894D01*
X109801466Y-129722877D01*
X109588786Y-130236333D01*
X109588786Y-130364138D01*
X109175640Y-130364138D01*
X108574709Y-130613052D01*
X108114776Y-131072985D01*
X107865862Y-131673916D01*
X107865862Y-132324360D01*
X108114776Y-132925291D01*
X108574709Y-133385224D01*
X109175640Y-133634138D01*
X109826084Y-133634138D01*
X110427015Y-133385224D01*
X110886948Y-132925291D01*
X111135862Y-132324360D01*
X111135862Y-131911214D01*
X111263667Y-131911214D01*
X111777123Y-131698534D01*
X112170106Y-131305551D01*
X112382786Y-130792095D01*
X112382786Y-130497000D01*
X112545422Y-130497000D01*
X116584408Y-134535986D01*
X113205394Y-137915000D01*
X110311553Y-137915000D01*
X110149571Y-137753018D01*
X109695657Y-137565000D01*
X109204343Y-137565000D01*
X108750429Y-137753018D01*
X108403018Y-138100429D01*
X108215000Y-138554343D01*
X108215000Y-139045657D01*
X108403018Y-139499571D01*
X108750429Y-139846982D01*
X109204343Y-140035000D01*
X109695657Y-140035000D01*
X110149571Y-139846982D01*
X110311553Y-139685000D01*
X111435394Y-139685000D01*
X91800000Y-159320394D01*
X82279428Y-149799822D01*
X90472612Y-141574190D01*
X92712577Y-143814156D01*
X92761951Y-143888049D01*
X92835844Y-143937423D01*
X92835845Y-143937424D01*
X92992583Y-144042153D01*
X93054690Y-144083652D01*
X93312835Y-144135000D01*
X93312839Y-144135000D01*
X93400000Y-144152337D01*
X93487161Y-144135000D01*
X97712839Y-144135000D01*
X97800000Y-144152337D01*
X97887161Y-144135000D01*
X97887165Y-144135000D01*
X98145310Y-144083652D01*
X98438049Y-143888049D01*
X98487425Y-143814153D01*
X101864156Y-140437423D01*
X101938049Y-140388049D01*
X102133652Y-140095310D01*
X102185000Y-139837165D01*
X102185000Y-139837161D01*
X102202337Y-139750001D01*
X102185000Y-139662841D01*
X102185000Y-138137159D01*
X102202337Y-138049999D01*
X102185000Y-137962839D01*
X102185000Y-137962835D01*
X102133652Y-137704690D01*
X102040314Y-137565000D01*
X101987424Y-137485845D01*
X101987423Y-137485844D01*
X101938049Y-137411951D01*
X101864156Y-137362577D01*
X101393922Y-136892344D01*
X101455215Y-136584205D01*
X101365190Y-136131618D01*
X101577963Y-136207687D01*
X102137195Y-136180068D01*
X102525571Y-136019187D01*
X102596317Y-135775922D01*
X101788154Y-134967759D01*
X101774012Y-134981902D01*
X101594407Y-134802297D01*
X101608549Y-134788154D01*
X101967759Y-134788154D01*
X102775922Y-135596317D01*
X103019187Y-135525571D01*
X103180068Y-135137195D01*
X103207687Y-134577963D01*
X103019195Y-134050731D01*
X102776427Y-133979486D01*
X101967759Y-134788154D01*
X101608549Y-134788154D01*
X100800386Y-133979991D01*
X100557121Y-134050737D01*
X100396240Y-134439113D01*
X100368621Y-134998345D01*
X100444690Y-135211117D01*
X100133435Y-135149205D01*
X99850769Y-135149205D01*
X99432193Y-135232465D01*
X98957525Y-135549628D01*
X98640362Y-136024296D01*
X98528989Y-136584205D01*
X98611659Y-136999813D01*
X98337384Y-136945256D01*
X98054718Y-136945256D01*
X97636142Y-137028516D01*
X97161474Y-137345679D01*
X96844311Y-137820347D01*
X96732938Y-138380256D01*
X96815608Y-138795864D01*
X96541333Y-138741307D01*
X96258667Y-138741307D01*
X95840091Y-138824567D01*
X95365423Y-139141730D01*
X95048260Y-139616398D01*
X94936887Y-140176307D01*
X95048260Y-140736216D01*
X95365423Y-141210884D01*
X95840091Y-141528047D01*
X96258667Y-141611307D01*
X96541333Y-141611307D01*
X96959909Y-141528047D01*
X97434577Y-141210884D01*
X97751740Y-140736216D01*
X97863113Y-140176307D01*
X97780443Y-139760699D01*
X98054718Y-139815256D01*
X98337384Y-139815256D01*
X98755960Y-139731996D01*
X99230628Y-139414833D01*
X99547791Y-138940165D01*
X99659164Y-138380256D01*
X99576494Y-137964648D01*
X99850769Y-138019205D01*
X100017626Y-138019205D01*
X100415001Y-138416580D01*
X100415000Y-139383421D01*
X97433422Y-142365000D01*
X93766579Y-142365000D01*
X91721717Y-140320138D01*
X98215749Y-133800386D01*
X100979991Y-133800386D01*
X101788154Y-134608549D01*
X102596822Y-133799881D01*
X102525577Y-133557113D01*
X101998345Y-133368621D01*
X101439113Y-133396240D01*
X101050737Y-133557121D01*
X100979991Y-133800386D01*
X98215749Y-133800386D01*
X102065805Y-129935083D01*
X102223557Y-130269874D01*
X102645995Y-130653864D01*
X103046546Y-130819778D01*
X103273000Y-130698166D01*
X103273000Y-129527000D01*
X103527000Y-129527000D01*
X103527000Y-130698166D01*
X103753454Y-130819778D01*
X104269874Y-130576443D01*
X104653864Y-130154005D01*
X104819778Y-129753454D01*
X104698166Y-129527000D01*
X103527000Y-129527000D01*
X103273000Y-129527000D01*
X102472279Y-129527000D01*
X102725277Y-129273000D01*
X103093392Y-129273000D01*
X103206251Y-129385859D01*
X103385859Y-129206251D01*
X103273000Y-129093392D01*
X103273000Y-128723107D01*
X103527000Y-128468102D01*
X103527000Y-129273000D01*
X104698166Y-129273000D01*
X104819778Y-129046546D01*
X104576443Y-128530126D01*
X104154005Y-128146136D01*
X103937161Y-128056316D01*
X108759816Y-123214561D01*
X118865000Y-123214561D01*
X118865000Y-123785439D01*
X119083466Y-124312862D01*
X119487138Y-124716534D01*
X120014561Y-124935000D01*
X120585439Y-124935000D01*
X121112862Y-124716534D01*
X121516534Y-124312862D01*
X121735000Y-123785439D01*
X121735000Y-123214561D01*
X121516534Y-122687138D01*
X121112862Y-122283466D01*
X120585439Y-122065000D01*
X120014561Y-122065000D01*
X119487138Y-122283466D01*
X119083466Y-122687138D01*
X118865000Y-123214561D01*
X108759816Y-123214561D01*
X111714200Y-120248477D01*
X111970513Y-120299461D01*
X112253179Y-120299461D01*
X112671755Y-120216201D01*
X113146423Y-119899038D01*
X113463586Y-119424370D01*
X113574959Y-118864461D01*
X113494692Y-118460934D01*
X113504338Y-118451250D01*
X113766565Y-118503410D01*
X114049231Y-118503410D01*
X114467807Y-118420150D01*
X114942475Y-118102987D01*
X115259638Y-117628319D01*
X115371011Y-117068410D01*
X115289564Y-116658953D01*
X115294476Y-116654022D01*
X115562616Y-116707359D01*
X115845282Y-116707359D01*
X116263858Y-116624099D01*
X116738526Y-116306936D01*
X117055689Y-115832268D01*
X117167062Y-115272359D01*
X117084436Y-114856973D01*
X117084614Y-114856794D01*
X117358667Y-114911307D01*
X117641333Y-114911307D01*
X118059909Y-114828047D01*
X118534577Y-114510884D01*
X118851740Y-114036216D01*
X118963113Y-113476307D01*
X118880443Y-113060699D01*
X119154718Y-113115256D01*
X119437384Y-113115256D01*
X119855960Y-113031996D01*
X120330628Y-112714833D01*
X120647791Y-112240165D01*
X120759164Y-111680256D01*
X120676494Y-111264648D01*
X120950769Y-111319205D01*
X121233435Y-111319205D01*
X121261954Y-111313532D01*
X126061429Y-116113008D01*
X126021092Y-116315795D01*
X126132465Y-116875704D01*
X126449628Y-117350372D01*
X126924296Y-117667535D01*
X127342872Y-117750795D01*
X127625538Y-117750795D01*
X128044114Y-117667535D01*
X128518782Y-117350372D01*
X128835945Y-116875704D01*
X128947318Y-116315795D01*
X128835945Y-115755886D01*
X128518782Y-115281218D01*
X128054425Y-114970944D01*
X128227463Y-114553194D01*
X128227463Y-114061880D01*
X128039445Y-113607966D01*
X127877463Y-113445984D01*
X127877463Y-112279624D01*
X127894800Y-112192463D01*
X127877463Y-112105302D01*
X127877463Y-112105298D01*
X127826115Y-111847153D01*
X127779052Y-111776719D01*
X127679887Y-111628308D01*
X127679886Y-111628307D01*
X127630512Y-111554414D01*
X127556619Y-111505040D01*
X124316171Y-108264593D01*
X124351267Y-108088154D01*
X124263924Y-107649051D01*
X127216283Y-104685000D01*
X127283422Y-104685000D01*
X130215000Y-107616579D01*
X130215000Y-107845657D01*
X130403018Y-108299571D01*
X130750429Y-108646982D01*
X131204343Y-108835000D01*
X131695657Y-108835000D01*
X132149571Y-108646982D01*
X132496982Y-108299571D01*
X132685000Y-107845657D01*
X132685000Y-107354343D01*
X132496982Y-106900429D01*
X132488801Y-106892248D01*
X135387358Y-106892248D01*
X135387358Y-107116754D01*
X135840301Y-107569698D01*
X136073690Y-107666370D01*
X136326309Y-107666371D01*
X136559698Y-107569698D01*
X136738327Y-107391070D01*
X137012642Y-107116754D01*
X137012642Y-106892248D01*
X136200000Y-106079605D01*
X135387358Y-106892248D01*
X132488801Y-106892248D01*
X132149571Y-106553018D01*
X131695657Y-106365000D01*
X131466579Y-106365000D01*
X128948373Y-103846794D01*
X132997233Y-103846794D01*
X132997233Y-104417672D01*
X133215699Y-104945095D01*
X133619371Y-105348767D01*
X134146794Y-105567233D01*
X134519147Y-105567233D01*
X134433629Y-105773691D01*
X134433630Y-106026310D01*
X134530302Y-106259699D01*
X134983246Y-106712642D01*
X135207752Y-106712642D01*
X136020395Y-105900000D01*
X136379605Y-105900000D01*
X137192248Y-106712642D01*
X137416754Y-106712642D01*
X137691070Y-106438327D01*
X137869698Y-106259698D01*
X137966371Y-106026309D01*
X137966370Y-105773690D01*
X137869698Y-105540301D01*
X137416754Y-105087358D01*
X137192248Y-105087358D01*
X136379605Y-105900000D01*
X136020395Y-105900000D01*
X136006252Y-105885858D01*
X136185858Y-105706252D01*
X136200000Y-105720395D01*
X137012642Y-104907752D01*
X137012642Y-104683246D01*
X136559699Y-104230302D01*
X136326310Y-104133630D01*
X136073691Y-104133629D01*
X135867233Y-104219147D01*
X135867233Y-103846794D01*
X135648767Y-103319371D01*
X135245095Y-102915699D01*
X134717672Y-102697233D01*
X134146794Y-102697233D01*
X133619371Y-102915699D01*
X133215699Y-103319371D01*
X132997233Y-103846794D01*
X128948373Y-103846794D01*
X128498891Y-103397313D01*
X132689980Y-99189625D01*
X132717429Y-99148369D01*
X132727000Y-99099749D01*
X132717236Y-99051167D01*
X132689803Y-99010197D01*
X126989803Y-93310197D01*
X126948601Y-93282667D01*
X126900000Y-93273000D01*
X126851399Y-93282667D01*
X126810286Y-93310109D01*
X123135000Y-96978132D01*
X123135000Y-88422265D01*
X123339371Y-88217894D01*
X123535000Y-87745602D01*
X123535000Y-87505000D01*
X123775602Y-87505000D01*
X124247894Y-87309371D01*
X124609371Y-86947894D01*
X124805000Y-86475602D01*
X124805000Y-85964398D01*
X124609371Y-85492106D01*
X124247894Y-85130629D01*
X123775602Y-84935000D01*
X123547440Y-84935000D01*
X123547440Y-84300000D01*
X123498157Y-84052235D01*
X123357809Y-83842191D01*
X123147765Y-83701843D01*
X122900000Y-83652560D01*
X121600000Y-83652560D01*
X121352235Y-83701843D01*
X121142191Y-83842191D01*
X121001843Y-84052235D01*
X120952560Y-84300000D01*
X120952560Y-85600000D01*
X121001843Y-85847765D01*
X121142191Y-86057809D01*
X121352235Y-86198157D01*
X121600000Y-86247440D01*
X121891938Y-86247440D01*
X121522106Y-86400629D01*
X121160629Y-86762106D01*
X120965000Y-87234398D01*
X120965000Y-87745602D01*
X121160629Y-88217894D01*
X121365001Y-88422266D01*
X121365000Y-97265000D01*
X120974778Y-97265000D01*
X120373847Y-97513914D01*
X119913914Y-97973847D01*
X119665000Y-98574778D01*
X119665000Y-99225222D01*
X119696691Y-99301730D01*
X117915723Y-101082699D01*
X117747765Y-100970472D01*
X117500000Y-100921189D01*
X117252235Y-100970472D01*
X117042191Y-101110820D01*
X115910820Y-102242191D01*
X115770472Y-102452235D01*
X115721189Y-102700000D01*
X115770472Y-102947765D01*
X115846304Y-103061254D01*
X115845282Y-103061051D01*
X115562616Y-103061051D01*
X115144040Y-103144311D01*
X114669372Y-103461474D01*
X114352209Y-103936142D01*
X114240836Y-104496051D01*
X114323506Y-104911659D01*
X114049231Y-104857102D01*
X113766565Y-104857102D01*
X113347989Y-104940362D01*
X112873321Y-105257525D01*
X112556158Y-105732193D01*
X112444785Y-106292102D01*
X112534811Y-106744690D01*
X112322037Y-106668621D01*
X111762805Y-106696240D01*
X111374429Y-106857121D01*
X111303683Y-107100386D01*
X112111846Y-107908549D01*
X112125989Y-107894407D01*
X112161513Y-107929931D01*
X111953418Y-108137616D01*
X111918099Y-108102297D01*
X111932241Y-108088154D01*
X111124078Y-107279991D01*
X110880813Y-107350737D01*
X110719932Y-107739113D01*
X110692313Y-108298345D01*
X110768382Y-108511117D01*
X110457128Y-108449205D01*
X110174462Y-108449205D01*
X109755886Y-108532465D01*
X109281218Y-108849628D01*
X108964055Y-109324296D01*
X108852682Y-109884205D01*
X108935352Y-110299813D01*
X108661077Y-110245256D01*
X108378411Y-110245256D01*
X108226960Y-110275381D01*
X106702767Y-108751189D01*
X106702767Y-108646794D01*
X106484301Y-108119371D01*
X106080629Y-107715699D01*
X105553206Y-107497233D01*
X104982328Y-107497233D01*
X104454905Y-107715699D01*
X104051233Y-108119371D01*
X103832767Y-108646794D01*
X103832767Y-109217672D01*
X103866233Y-109298466D01*
X103785439Y-109265000D01*
X103214561Y-109265000D01*
X102687138Y-109483466D01*
X102283466Y-109887138D01*
X102065000Y-110414561D01*
X102065000Y-110713422D01*
X100685000Y-109333422D01*
X100685000Y-106909143D01*
X100843760Y-106803063D01*
X101160923Y-106328395D01*
X101272296Y-105768486D01*
X101160923Y-105208577D01*
X100843760Y-104733909D01*
X100369092Y-104416746D01*
X99950516Y-104333486D01*
X99667850Y-104333486D01*
X99632745Y-104340469D01*
X98302619Y-103010344D01*
X98302619Y-102614263D01*
X99737935Y-101176099D01*
X99738049Y-101176023D01*
X99738126Y-101175908D01*
X102365001Y-98543821D01*
X102365000Y-105888447D01*
X102203018Y-106050429D01*
X102015000Y-106504343D01*
X102015000Y-106995657D01*
X102203018Y-107449571D01*
X102550429Y-107796982D01*
X103004343Y-107985000D01*
X103495657Y-107985000D01*
X103949571Y-107796982D01*
X104296982Y-107449571D01*
X104485000Y-106995657D01*
X104485000Y-106504343D01*
X104296982Y-106050429D01*
X104135000Y-105888447D01*
X104135000Y-101660015D01*
X107555125Y-101660015D01*
X107555125Y-101884521D01*
X108008068Y-102337465D01*
X108241457Y-102434137D01*
X108494076Y-102434138D01*
X108727465Y-102337465D01*
X108906094Y-102158837D01*
X109180409Y-101884521D01*
X109180409Y-101660015D01*
X108367767Y-100847372D01*
X107555125Y-101660015D01*
X104135000Y-101660015D01*
X104135000Y-98614561D01*
X105165000Y-98614561D01*
X105165000Y-99185439D01*
X105383466Y-99712862D01*
X105787138Y-100116534D01*
X106314561Y-100335000D01*
X106686914Y-100335000D01*
X106601396Y-100541458D01*
X106601397Y-100794077D01*
X106698069Y-101027466D01*
X107151013Y-101480409D01*
X107375519Y-101480409D01*
X108188162Y-100667767D01*
X108547372Y-100667767D01*
X109360015Y-101480409D01*
X109584521Y-101480409D01*
X109858837Y-101206094D01*
X110037465Y-101027465D01*
X110134138Y-100794076D01*
X110134137Y-100541457D01*
X110037465Y-100308068D01*
X109584521Y-99855125D01*
X109360015Y-99855125D01*
X108547372Y-100667767D01*
X108188162Y-100667767D01*
X108174019Y-100653625D01*
X108353625Y-100474019D01*
X108367767Y-100488162D01*
X109180409Y-99675519D01*
X109180409Y-99451013D01*
X108727466Y-98998069D01*
X108494077Y-98901397D01*
X108241458Y-98901396D01*
X108035000Y-98986914D01*
X108035000Y-98614561D01*
X107816534Y-98087138D01*
X107412862Y-97683466D01*
X106885439Y-97465000D01*
X106314561Y-97465000D01*
X105787138Y-97683466D01*
X105383466Y-98087138D01*
X105165000Y-98614561D01*
X104135000Y-98614561D01*
X104135000Y-97266578D01*
X106198270Y-95203309D01*
X106274778Y-95235000D01*
X106925222Y-95235000D01*
X107526153Y-94986086D01*
X107986086Y-94526153D01*
X108235000Y-93925222D01*
X108235000Y-93608380D01*
X110086277Y-93608380D01*
X110197650Y-94168289D01*
X110514813Y-94642957D01*
X110989481Y-94960120D01*
X111408057Y-95043380D01*
X111690723Y-95043380D01*
X112109299Y-94960120D01*
X112583967Y-94642957D01*
X112668985Y-94515718D01*
X115662386Y-94515718D01*
X115747404Y-94642957D01*
X116222072Y-94960120D01*
X116640648Y-95043380D01*
X116923314Y-95043380D01*
X117341890Y-94960120D01*
X117816558Y-94642957D01*
X118133721Y-94168289D01*
X118245094Y-93608380D01*
X118133721Y-93048471D01*
X117816558Y-92573803D01*
X117341890Y-92256640D01*
X116923314Y-92173380D01*
X116640648Y-92173380D01*
X116222072Y-92256640D01*
X115747404Y-92573803D01*
X115632534Y-92745718D01*
X112698837Y-92745718D01*
X112583967Y-92573803D01*
X112109299Y-92256640D01*
X111690723Y-92173380D01*
X111408057Y-92173380D01*
X110989481Y-92256640D01*
X110514813Y-92573803D01*
X110197650Y-93048471D01*
X110086277Y-93608380D01*
X108235000Y-93608380D01*
X108235000Y-93274778D01*
X108055677Y-92841854D01*
X116144092Y-84737390D01*
X116496542Y-84883380D01*
X117067420Y-84883380D01*
X117594843Y-84664914D01*
X117998515Y-84261242D01*
X118216981Y-83733819D01*
X118216981Y-83162941D01*
X117998515Y-82635518D01*
X117594843Y-82231846D01*
X117067420Y-82013380D01*
X116496542Y-82013380D01*
X115969119Y-82231846D01*
X115940286Y-82260680D01*
X109589803Y-75910197D01*
X109548601Y-75882667D01*
X109500000Y-75873000D01*
X109451399Y-75882667D01*
X109410197Y-75910197D01*
X104442246Y-80878148D01*
X104394008Y-80878148D01*
X104146243Y-80927431D01*
X103936199Y-81067779D01*
X103795851Y-81277823D01*
X103746568Y-81525588D01*
X103746568Y-81573826D01*
X93405394Y-91915000D01*
X86102113Y-91915000D01*
X82333690Y-88146577D01*
X85193784Y-88146577D01*
X85193784Y-89194845D01*
X85594939Y-90163319D01*
X86336176Y-90904556D01*
X87304650Y-91305711D01*
X88352918Y-91305711D01*
X89321392Y-90904556D01*
X90062629Y-90163319D01*
X90463784Y-89194845D01*
X90463784Y-88146577D01*
X90062629Y-87178103D01*
X89321392Y-86436866D01*
X88352918Y-86035711D01*
X87304650Y-86035711D01*
X86336176Y-86436866D01*
X85594939Y-87178103D01*
X85193784Y-88146577D01*
X82333690Y-88146577D01*
X81302767Y-87115655D01*
X81302767Y-86599466D01*
X81840864Y-86599466D01*
X82405041Y-86365776D01*
X82836844Y-85933973D01*
X83070534Y-85369796D01*
X83070534Y-84759136D01*
X82836844Y-84194959D01*
X82405041Y-83763156D01*
X81840864Y-83529466D01*
X81230204Y-83529466D01*
X80666027Y-83763156D01*
X80234224Y-84194959D01*
X80000534Y-84759136D01*
X80000534Y-85297233D01*
X79462437Y-85297233D01*
X78898260Y-85530923D01*
X78466457Y-85962726D01*
X78232767Y-86526903D01*
X78232767Y-87065000D01*
X77694670Y-87065000D01*
X77130493Y-87298690D01*
X76698690Y-87730493D01*
X76465000Y-88294670D01*
X76465000Y-88905330D01*
X76698690Y-89469507D01*
X77130493Y-89901310D01*
X77694670Y-90135000D01*
X78305330Y-90135000D01*
X78869507Y-89901310D01*
X79301310Y-89469507D01*
X79535000Y-88905330D01*
X79535000Y-88367233D01*
X80051189Y-88367233D01*
X85048111Y-93364156D01*
X85097485Y-93438049D01*
X85171378Y-93487423D01*
X85171379Y-93487424D01*
X85265032Y-93550001D01*
X85390224Y-93633652D01*
X85648369Y-93685000D01*
X85648372Y-93685000D01*
X85735533Y-93702337D01*
X85822694Y-93685000D01*
X91635394Y-93685000D01*
X84400000Y-100920394D01*
X80955350Y-97475744D01*
X81082111Y-97528250D01*
X82130379Y-97528250D01*
X83098853Y-97127095D01*
X83840090Y-96385858D01*
X84241245Y-95417384D01*
X84241245Y-94369116D01*
X83840090Y-93400642D01*
X83098853Y-92659405D01*
X82130379Y-92258250D01*
X81082111Y-92258250D01*
X80113637Y-92659405D01*
X79372400Y-93400642D01*
X78971245Y-94369116D01*
X78971245Y-95417384D01*
X79007695Y-95505383D01*
X76798498Y-93119449D01*
X75005271Y-90628856D01*
X73110722Y-87637463D01*
X71315668Y-84047355D01*
X69919712Y-80657178D01*
X68823207Y-77068615D01*
X68025677Y-73180655D01*
X67726655Y-70290111D01*
X67627000Y-68396669D01*
X67627000Y-66592078D01*
X80473247Y-66592078D01*
X80473281Y-66608448D01*
X80673281Y-69608448D01*
X80674114Y-69616785D01*
X81074114Y-72616785D01*
X81077573Y-72633773D01*
X81877573Y-75533773D01*
X81880906Y-75544109D01*
X82880906Y-78244109D01*
X82886408Y-78256796D01*
X84286408Y-81056796D01*
X84288982Y-81061677D01*
X84788982Y-81961677D01*
X84810197Y-81989803D01*
X84851399Y-82017333D01*
X84900000Y-82027000D01*
X84948601Y-82017333D01*
X84989803Y-81989803D01*
X94073633Y-72905973D01*
X99431815Y-78264156D01*
X99481189Y-78338049D01*
X99555082Y-78387423D01*
X99555083Y-78387424D01*
X99742814Y-78512862D01*
X99773928Y-78533652D01*
X100032073Y-78585000D01*
X100032077Y-78585000D01*
X100119238Y-78602337D01*
X100206399Y-78585000D01*
X101705604Y-78585000D01*
X102037138Y-78916534D01*
X102564561Y-79135000D01*
X103135439Y-79135000D01*
X103662862Y-78916534D01*
X104066534Y-78512862D01*
X104285000Y-77985439D01*
X104285000Y-77414561D01*
X104066534Y-76887138D01*
X103662862Y-76483466D01*
X103135439Y-76265000D01*
X102564561Y-76265000D01*
X102037138Y-76483466D01*
X101705604Y-76815000D01*
X100485817Y-76815000D01*
X95325211Y-71654395D01*
X99439606Y-67540000D01*
X101386887Y-67540000D01*
X101498260Y-68099909D01*
X101815423Y-68574577D01*
X102290091Y-68891740D01*
X102708667Y-68975000D01*
X102991333Y-68975000D01*
X103409909Y-68891740D01*
X103884577Y-68574577D01*
X104201679Y-68100000D01*
X108952560Y-68100000D01*
X108952560Y-69900000D01*
X109001843Y-70147765D01*
X109142191Y-70357809D01*
X109352235Y-70498157D01*
X109600000Y-70547440D01*
X111400000Y-70547440D01*
X111647765Y-70498157D01*
X111857809Y-70357809D01*
X111998157Y-70147765D01*
X112047440Y-69900000D01*
X112047440Y-68100000D01*
X111998157Y-67852235D01*
X111857809Y-67642191D01*
X111647765Y-67501843D01*
X111632092Y-67498725D01*
X111801310Y-67329507D01*
X111964720Y-66935000D01*
X115855570Y-66935000D01*
X115915423Y-67024577D01*
X116390091Y-67341740D01*
X116808667Y-67425000D01*
X117091333Y-67425000D01*
X117509909Y-67341740D01*
X117984577Y-67024577D01*
X118301740Y-66549909D01*
X118413113Y-65990000D01*
X118301740Y-65430091D01*
X117984577Y-64955423D01*
X117509909Y-64638260D01*
X117091333Y-64555000D01*
X116808667Y-64555000D01*
X116390091Y-64638260D01*
X115915423Y-64955423D01*
X115775388Y-65165000D01*
X111375817Y-65165000D01*
X111369507Y-65158690D01*
X110805330Y-64925000D01*
X110194670Y-64925000D01*
X109814037Y-65082664D01*
X109644691Y-65116348D01*
X109351951Y-65311951D01*
X109156348Y-65604691D01*
X109122664Y-65774037D01*
X108965000Y-66154670D01*
X108965000Y-66765330D01*
X109198690Y-67329507D01*
X109367908Y-67498725D01*
X109352235Y-67501843D01*
X109142191Y-67642191D01*
X109001843Y-67852235D01*
X108952560Y-68100000D01*
X104201679Y-68100000D01*
X104201740Y-68099909D01*
X104313113Y-67540000D01*
X104201740Y-66980091D01*
X103884577Y-66505423D01*
X103409909Y-66188260D01*
X102991333Y-66105000D01*
X102708667Y-66105000D01*
X102290091Y-66188260D01*
X101815423Y-66505423D01*
X101498260Y-66980091D01*
X101386887Y-67540000D01*
X99439606Y-67540000D01*
X105944606Y-61035000D01*
X109122344Y-61035000D01*
X110075779Y-61988435D01*
X110285823Y-62128783D01*
X110533588Y-62178066D01*
X110781353Y-62128783D01*
X110991397Y-61988435D01*
X112338435Y-60641397D01*
X112478783Y-60431353D01*
X112528066Y-60183588D01*
X112486560Y-59974922D01*
X112949050Y-59882927D01*
X113474161Y-59532059D01*
X113825029Y-59006948D01*
X113948238Y-58387536D01*
X113900960Y-58149855D01*
X114452054Y-58143866D01*
X114953063Y-57946333D01*
X115042166Y-57687568D01*
X114092102Y-56737503D01*
X114077960Y-56751646D01*
X113898355Y-56572041D01*
X113912497Y-56557898D01*
X114271707Y-56557898D01*
X115221772Y-57507962D01*
X115480537Y-57418859D01*
X115678070Y-56917850D01*
X115684796Y-56298936D01*
X115454162Y-55724561D01*
X115189936Y-55639669D01*
X114271707Y-56557898D01*
X113912497Y-56557898D01*
X112962432Y-55607834D01*
X112703667Y-55696937D01*
X112506134Y-56197946D01*
X112500145Y-56749040D01*
X112262463Y-56701762D01*
X111643052Y-56824971D01*
X111117940Y-57175838D01*
X110767073Y-57700950D01*
X110675078Y-58163440D01*
X110466412Y-58121934D01*
X110218647Y-58171217D01*
X110008603Y-58311565D01*
X109935873Y-58384295D01*
X109385000Y-57833422D01*
X109385000Y-57594606D01*
X111551378Y-55428228D01*
X113142038Y-55428228D01*
X114092102Y-56378293D01*
X115010331Y-55460064D01*
X114925439Y-55195838D01*
X114351064Y-54965204D01*
X113732150Y-54971930D01*
X113231141Y-55169463D01*
X113142038Y-55428228D01*
X111551378Y-55428228D01*
X124074451Y-42905155D01*
X127736216Y-42905155D01*
X127736216Y-43953423D01*
X128137371Y-44921897D01*
X128878608Y-45663134D01*
X129847082Y-46064289D01*
X130895350Y-46064289D01*
X131863824Y-45663134D01*
X132605061Y-44921897D01*
X133006216Y-43953423D01*
X133006216Y-42905155D01*
X132605061Y-41936681D01*
X131863824Y-41195444D01*
X130895350Y-40794289D01*
X129847082Y-40794289D01*
X128878608Y-41195444D01*
X128137371Y-41936681D01*
X127736216Y-42905155D01*
X124074451Y-42905155D01*
X124889803Y-42089803D01*
X124910267Y-42063010D01*
X124925986Y-42016016D01*
X124922525Y-41966584D01*
X124900411Y-41922239D01*
X124863010Y-41889733D01*
X123463010Y-41089733D01*
X123454076Y-41085088D01*
X121754076Y-40285088D01*
X121750638Y-40283532D01*
X119450638Y-39283532D01*
X119435409Y-39278036D01*
X116335409Y-38378036D01*
X116320879Y-38374728D01*
X114941359Y-38144808D01*
X114935000Y-38112839D01*
X114935000Y-38112835D01*
X114883652Y-37854690D01*
X114800927Y-37730884D01*
X114737424Y-37635845D01*
X114737423Y-37635844D01*
X114688049Y-37561951D01*
X114614156Y-37512577D01*
X111937425Y-34835847D01*
X111888049Y-34761951D01*
X111595310Y-34566348D01*
X111337165Y-34515000D01*
X111337161Y-34515000D01*
X111250000Y-34497663D01*
X111162839Y-34515000D01*
X108303132Y-34515000D01*
X108286086Y-34473847D01*
X107826153Y-34013914D01*
X107225222Y-33765000D01*
X106574778Y-33765000D01*
X105973847Y-34013914D01*
X105513914Y-34473847D01*
X105265000Y-35074778D01*
X105265000Y-35725222D01*
X105513914Y-36326153D01*
X105973847Y-36786086D01*
X106574778Y-37035000D01*
X107225222Y-37035000D01*
X107826153Y-36786086D01*
X108286086Y-36326153D01*
X108303132Y-36285000D01*
X110883422Y-36285000D01*
X112375060Y-37776639D01*
X110413068Y-37573674D01*
X110396033Y-37573062D01*
X107196033Y-37673062D01*
X107183215Y-37674114D01*
X104183215Y-38074114D01*
X104171142Y-38076322D01*
X101171142Y-38776322D01*
X101156983Y-38780507D01*
X98656983Y-39680507D01*
X98646294Y-39684915D01*
X95646294Y-41084915D01*
X95633025Y-41092096D01*
X92733025Y-42892096D01*
X92720664Y-42900830D01*
X90720664Y-44500830D01*
X90712656Y-44507804D01*
X88812656Y-46307804D01*
X88805602Y-46315041D01*
X87005602Y-48315041D01*
X86999117Y-48322854D01*
X85699117Y-50022854D01*
X85691633Y-50033776D01*
X84591633Y-51833776D01*
X84588721Y-51838796D01*
X83488721Y-53838796D01*
X83483755Y-53848852D01*
X82383755Y-56348852D01*
X82382083Y-56352833D01*
X81982083Y-57352833D01*
X81977288Y-57367277D01*
X81177288Y-60367277D01*
X81174728Y-60379121D01*
X80674728Y-63379121D01*
X80673247Y-63392078D01*
X80473247Y-66592078D01*
X67627000Y-66592078D01*
X67627000Y-64004878D01*
X67726327Y-62713625D01*
X68225138Y-59122185D01*
X69022903Y-55432521D01*
X70119041Y-51944812D01*
X71614653Y-48554757D01*
X73309631Y-45264505D01*
X75503018Y-41974426D01*
X77995293Y-38784313D01*
X80287369Y-36492237D01*
X83179843Y-33898985D01*
X86070983Y-31805400D01*
X89261539Y-29811303D01*
X92550793Y-28216513D01*
X96140756Y-26820416D01*
X99929534Y-25723665D01*
X103619101Y-25025639D01*
X106207303Y-24727000D01*
X110896907Y-24727000D01*
X114985631Y-24926450D01*
X118871717Y-25623953D01*
X122460401Y-26620809D01*
X125351513Y-27717438D01*
X129142024Y-29413193D01*
X132231221Y-31206920D01*
X135320945Y-33399627D01*
X136645953Y-34571750D01*
X136069621Y-34571750D01*
X135101147Y-34972905D01*
X134359910Y-35714142D01*
X133958755Y-36682616D01*
X133958755Y-37730884D01*
X134359910Y-38699358D01*
X135101147Y-39440595D01*
X136069621Y-39841750D01*
X137117889Y-39841750D01*
X138086363Y-39440595D01*
X138827600Y-38699358D01*
X139228755Y-37730884D01*
X139228755Y-36959556D01*
X140611017Y-38290623D01*
X143820394Y-41500000D01*
X141735000Y-43585394D01*
X141735000Y-43194670D01*
X141501310Y-42630493D01*
X141069507Y-42198690D01*
X140505330Y-41965000D01*
X139894670Y-41965000D01*
X139330493Y-42198690D01*
X139014183Y-42515000D01*
X138087159Y-42515000D01*
X137999999Y-42497663D01*
X137912839Y-42515000D01*
X137912835Y-42515000D01*
X137654690Y-42566348D01*
X137654688Y-42566349D01*
X137654689Y-42566349D01*
X137435845Y-42712576D01*
X137435844Y-42712577D01*
X137361951Y-42761951D01*
X137312577Y-42835844D01*
X134035847Y-46112575D01*
X133961951Y-46161951D01*
X133766348Y-46454691D01*
X133715000Y-46712836D01*
X133715000Y-46712839D01*
X133697663Y-46800000D01*
X133715000Y-46887161D01*
X133715001Y-50133420D01*
X119435847Y-64412575D01*
X119361951Y-64461951D01*
X119166348Y-64754691D01*
X119115000Y-65012836D01*
X119115000Y-65012839D01*
X119097663Y-65100000D01*
X119115000Y-65187161D01*
X119115000Y-66205394D01*
X118810197Y-66510197D01*
X118782667Y-66551399D01*
X118773000Y-66600000D01*
X118782667Y-66648601D01*
X118810197Y-66689803D01*
X119115000Y-66994606D01*
X119115001Y-75533420D01*
X118833421Y-75815000D01*
X118604343Y-75815000D01*
X118385000Y-75905855D01*
X118385000Y-75864561D01*
X118166534Y-75337138D01*
X117762862Y-74933466D01*
X117235439Y-74715000D01*
X116664561Y-74715000D01*
X116137138Y-74933466D01*
X115733466Y-75337138D01*
X115515000Y-75864561D01*
X115515000Y-76435439D01*
X115733466Y-76962862D01*
X116137138Y-77366534D01*
X116664561Y-77585000D01*
X117235439Y-77585000D01*
X117661713Y-77408431D01*
X117803018Y-77749571D01*
X118150429Y-78096982D01*
X118604343Y-78285000D01*
X119095657Y-78285000D01*
X119515000Y-78111302D01*
X119515000Y-78295657D01*
X119703018Y-78749571D01*
X120050429Y-79096982D01*
X120504343Y-79285000D01*
X120995657Y-79285000D01*
X121449571Y-79096982D01*
X121796982Y-78749571D01*
X121985000Y-78295657D01*
X121985000Y-77804343D01*
X121796982Y-77350429D01*
X121635000Y-77188447D01*
X121635000Y-69514606D01*
X126510197Y-74389803D01*
X126551399Y-74417333D01*
X126600000Y-74427000D01*
X126648601Y-74417333D01*
X126689803Y-74389803D01*
X126965000Y-74114606D01*
X126965000Y-82288447D01*
X126803018Y-82450429D01*
X126615000Y-82904343D01*
X126615000Y-83395657D01*
X126803018Y-83849571D01*
X127150429Y-84196982D01*
X127604343Y-84385000D01*
X128095657Y-84385000D01*
X128549571Y-84196982D01*
X128896982Y-83849571D01*
X129085000Y-83395657D01*
X129085000Y-82904343D01*
X128896982Y-82450429D01*
X128735000Y-82288447D01*
X128735000Y-79030651D01*
X128786556Y-79107809D01*
X130342191Y-80663444D01*
X130552235Y-80803792D01*
X130800000Y-80853075D01*
X131047765Y-80803792D01*
X131257809Y-80663444D01*
X132813444Y-79107809D01*
X132953792Y-78897765D01*
X133003075Y-78650000D01*
X132953792Y-78402235D01*
X132813444Y-78192191D01*
X131257809Y-76636556D01*
X131047765Y-76496208D01*
X130800000Y-76446925D01*
X130552235Y-76496208D01*
X130342191Y-76636556D01*
X128786556Y-78192191D01*
X128735000Y-78269349D01*
X128735000Y-76018289D01*
X138007967Y-76018289D01*
X138007967Y-76867645D01*
X138333001Y-77652347D01*
X138933587Y-78252933D01*
X139718289Y-78577967D01*
X140567645Y-78577967D01*
X141352347Y-78252933D01*
X141952933Y-77652347D01*
X142277967Y-76867645D01*
X142277967Y-76018289D01*
X141952933Y-75233587D01*
X141352347Y-74633001D01*
X140567645Y-74307967D01*
X139718289Y-74307967D01*
X138933587Y-74633001D01*
X138333001Y-75233587D01*
X138007967Y-76018289D01*
X128735000Y-76018289D01*
X128735000Y-72344606D01*
X146925058Y-54154548D01*
X153069342Y-54154548D01*
X153069342Y-55003904D01*
X153394376Y-55788606D01*
X153994962Y-56389192D01*
X154779664Y-56714226D01*
X155629020Y-56714226D01*
X156413722Y-56389192D01*
X157014308Y-55788606D01*
X157339342Y-55003904D01*
X157339342Y-54154548D01*
X157014308Y-53369846D01*
X156413722Y-52769260D01*
X155629020Y-52444226D01*
X154779664Y-52444226D01*
X153994962Y-52769260D01*
X153394376Y-53369846D01*
X153069342Y-54154548D01*
X146925058Y-54154548D01*
X177200000Y-23879606D01*
X186720483Y-33400089D01*
G36*
X97831854Y-115633433D02*
X97425222Y-115465000D01*
X96774778Y-115465000D01*
X96173847Y-115713914D01*
X95713914Y-116173847D01*
X95465000Y-116774778D01*
X95465000Y-117425222D01*
X95713914Y-118026153D01*
X96173847Y-118486086D01*
X96774778Y-118735000D01*
X97425222Y-118735000D01*
X98026153Y-118486086D01*
X98486086Y-118026153D01*
X98735000Y-117425222D01*
X98735000Y-116774778D01*
X98566567Y-116368146D01*
X101134036Y-118935615D01*
X100437480Y-119630795D01*
X90518726Y-119630795D01*
X90418782Y-119481218D01*
X89944114Y-119164055D01*
X89525538Y-119080795D01*
X89242872Y-119080795D01*
X88824296Y-119164055D01*
X88349628Y-119481218D01*
X88032465Y-119955886D01*
X87921092Y-120515795D01*
X88032465Y-121075704D01*
X88349628Y-121550372D01*
X88824296Y-121867535D01*
X89242872Y-121950795D01*
X89525538Y-121950795D01*
X89944114Y-121867535D01*
X90418782Y-121550372D01*
X90518726Y-121400795D01*
X98663975Y-121400795D01*
X87735000Y-132308171D01*
X87735000Y-124111553D01*
X87896982Y-123949571D01*
X88085000Y-123495657D01*
X88085000Y-123004343D01*
X87896982Y-122550429D01*
X87549571Y-122203018D01*
X87095657Y-122015000D01*
X86604343Y-122015000D01*
X86150429Y-122203018D01*
X85803018Y-122550429D01*
X85615000Y-123004343D01*
X85615000Y-123495657D01*
X85803018Y-123949571D01*
X85965000Y-124111553D01*
X85965001Y-134074672D01*
X76300089Y-143720483D01*
X66779517Y-134199911D01*
X73551430Y-127414561D01*
X80765000Y-127414561D01*
X80765000Y-127985439D01*
X80983466Y-128512862D01*
X81387138Y-128916534D01*
X81914561Y-129135000D01*
X82485439Y-129135000D01*
X83012862Y-128916534D01*
X83416534Y-128512862D01*
X83635000Y-127985439D01*
X83635000Y-127414561D01*
X83416534Y-126887138D01*
X83085000Y-126555604D01*
X83085000Y-123516578D01*
X88766579Y-117835000D01*
X92188447Y-117835000D01*
X92350429Y-117996982D01*
X92804343Y-118185000D01*
X93295657Y-118185000D01*
X93749571Y-117996982D01*
X94096982Y-117649571D01*
X94285000Y-117195657D01*
X94285000Y-116704343D01*
X94096982Y-116250429D01*
X93749571Y-115903018D01*
X93295657Y-115715000D01*
X92804343Y-115715000D01*
X92350429Y-115903018D01*
X92188447Y-116065000D01*
X88487159Y-116065000D01*
X88399999Y-116047663D01*
X88312839Y-116065000D01*
X88312835Y-116065000D01*
X88054690Y-116116348D01*
X88054688Y-116116349D01*
X88054689Y-116116349D01*
X87835845Y-116262576D01*
X87835844Y-116262577D01*
X87761951Y-116311951D01*
X87712577Y-116385844D01*
X81635845Y-122462577D01*
X81561952Y-122511951D01*
X81512578Y-122585844D01*
X81512576Y-122585846D01*
X81366348Y-122804691D01*
X81297663Y-123150000D01*
X81315001Y-123237165D01*
X81315000Y-126555604D01*
X80983466Y-126887138D01*
X80765000Y-127414561D01*
X73551430Y-127414561D01*
X84309646Y-116635000D01*
X84775222Y-116635000D01*
X85376153Y-116386086D01*
X85836086Y-115926153D01*
X86085000Y-115325222D01*
X86085000Y-114856123D01*
X88269536Y-112667252D01*
X91189978Y-112667252D01*
X91189978Y-113238130D01*
X91408444Y-113765553D01*
X91812116Y-114169225D01*
X92339539Y-114387691D01*
X92910417Y-114387691D01*
X93437840Y-114169225D01*
X93841512Y-113765553D01*
X94059978Y-113238130D01*
X94059978Y-112667252D01*
X93841512Y-112139829D01*
X93437840Y-111736157D01*
X92910417Y-111517691D01*
X92339539Y-111517691D01*
X91812116Y-111736157D01*
X91408444Y-112139829D01*
X91189978Y-112667252D01*
X88269536Y-112667252D01*
X89544699Y-111389560D01*
X89824747Y-111389560D01*
X90243323Y-111306300D01*
X90717991Y-110989137D01*
X90817935Y-110839560D01*
X93037982Y-110839560D01*
X97831854Y-115633433D01*
X97831854Y-115633433D01*
G37*
X97831854Y-115633433D02*
X97425222Y-115465000D01*
X96774778Y-115465000D01*
X96173847Y-115713914D01*
X95713914Y-116173847D01*
X95465000Y-116774778D01*
X95465000Y-117425222D01*
X95713914Y-118026153D01*
X96173847Y-118486086D01*
X96774778Y-118735000D01*
X97425222Y-118735000D01*
X98026153Y-118486086D01*
X98486086Y-118026153D01*
X98735000Y-117425222D01*
X98735000Y-116774778D01*
X98566567Y-116368146D01*
X101134036Y-118935615D01*
X100437480Y-119630795D01*
X90518726Y-119630795D01*
X90418782Y-119481218D01*
X89944114Y-119164055D01*
X89525538Y-119080795D01*
X89242872Y-119080795D01*
X88824296Y-119164055D01*
X88349628Y-119481218D01*
X88032465Y-119955886D01*
X87921092Y-120515795D01*
X88032465Y-121075704D01*
X88349628Y-121550372D01*
X88824296Y-121867535D01*
X89242872Y-121950795D01*
X89525538Y-121950795D01*
X89944114Y-121867535D01*
X90418782Y-121550372D01*
X90518726Y-121400795D01*
X98663975Y-121400795D01*
X87735000Y-132308171D01*
X87735000Y-124111553D01*
X87896982Y-123949571D01*
X88085000Y-123495657D01*
X88085000Y-123004343D01*
X87896982Y-122550429D01*
X87549571Y-122203018D01*
X87095657Y-122015000D01*
X86604343Y-122015000D01*
X86150429Y-122203018D01*
X85803018Y-122550429D01*
X85615000Y-123004343D01*
X85615000Y-123495657D01*
X85803018Y-123949571D01*
X85965000Y-124111553D01*
X85965001Y-134074672D01*
X76300089Y-143720483D01*
X66779517Y-134199911D01*
X73551430Y-127414561D01*
X80765000Y-127414561D01*
X80765000Y-127985439D01*
X80983466Y-128512862D01*
X81387138Y-128916534D01*
X81914561Y-129135000D01*
X82485439Y-129135000D01*
X83012862Y-128916534D01*
X83416534Y-128512862D01*
X83635000Y-127985439D01*
X83635000Y-127414561D01*
X83416534Y-126887138D01*
X83085000Y-126555604D01*
X83085000Y-123516578D01*
X88766579Y-117835000D01*
X92188447Y-117835000D01*
X92350429Y-117996982D01*
X92804343Y-118185000D01*
X93295657Y-118185000D01*
X93749571Y-117996982D01*
X94096982Y-117649571D01*
X94285000Y-117195657D01*
X94285000Y-116704343D01*
X94096982Y-116250429D01*
X93749571Y-115903018D01*
X93295657Y-115715000D01*
X92804343Y-115715000D01*
X92350429Y-115903018D01*
X92188447Y-116065000D01*
X88487159Y-116065000D01*
X88399999Y-116047663D01*
X88312839Y-116065000D01*
X88312835Y-116065000D01*
X88054690Y-116116348D01*
X88054688Y-116116349D01*
X88054689Y-116116349D01*
X87835845Y-116262576D01*
X87835844Y-116262577D01*
X87761951Y-116311951D01*
X87712577Y-116385844D01*
X81635845Y-122462577D01*
X81561952Y-122511951D01*
X81512578Y-122585844D01*
X81512576Y-122585846D01*
X81366348Y-122804691D01*
X81297663Y-123150000D01*
X81315001Y-123237165D01*
X81315000Y-126555604D01*
X80983466Y-126887138D01*
X80765000Y-127414561D01*
X73551430Y-127414561D01*
X84309646Y-116635000D01*
X84775222Y-116635000D01*
X85376153Y-116386086D01*
X85836086Y-115926153D01*
X86085000Y-115325222D01*
X86085000Y-114856123D01*
X88269536Y-112667252D01*
X91189978Y-112667252D01*
X91189978Y-113238130D01*
X91408444Y-113765553D01*
X91812116Y-114169225D01*
X92339539Y-114387691D01*
X92910417Y-114387691D01*
X93437840Y-114169225D01*
X93841512Y-113765553D01*
X94059978Y-113238130D01*
X94059978Y-112667252D01*
X93841512Y-112139829D01*
X93437840Y-111736157D01*
X92910417Y-111517691D01*
X92339539Y-111517691D01*
X91812116Y-111736157D01*
X91408444Y-112139829D01*
X91189978Y-112667252D01*
X88269536Y-112667252D01*
X89544699Y-111389560D01*
X89824747Y-111389560D01*
X90243323Y-111306300D01*
X90717991Y-110989137D01*
X90817935Y-110839560D01*
X93037982Y-110839560D01*
X97831854Y-115633433D01*
G36*
X98381166Y-105592048D02*
X98346070Y-105768486D01*
X98457443Y-106328395D01*
X98774606Y-106803063D01*
X98915001Y-106896872D01*
X98915000Y-109612839D01*
X98897663Y-109700000D01*
X98915000Y-109787161D01*
X98915000Y-109787164D01*
X98966348Y-110045309D01*
X99161951Y-110338049D01*
X99235847Y-110387425D01*
X104462325Y-115613904D01*
X104193969Y-115881730D01*
X103926153Y-115613914D01*
X103325222Y-115365000D01*
X102674778Y-115365000D01*
X102073847Y-115613914D01*
X101613914Y-116073847D01*
X101368326Y-116666748D01*
X94091985Y-109390407D01*
X94042609Y-109316511D01*
X93749870Y-109120908D01*
X93491725Y-109069560D01*
X93491721Y-109069560D01*
X93404560Y-109052223D01*
X93317399Y-109069560D01*
X91860105Y-109069560D01*
X96714678Y-104205355D01*
X96994474Y-104205355D01*
X98381166Y-105592048D01*
X98381166Y-105592048D01*
G37*
X98381166Y-105592048D02*
X98346070Y-105768486D01*
X98457443Y-106328395D01*
X98774606Y-106803063D01*
X98915001Y-106896872D01*
X98915000Y-109612839D01*
X98897663Y-109700000D01*
X98915000Y-109787161D01*
X98915000Y-109787164D01*
X98966348Y-110045309D01*
X99161951Y-110338049D01*
X99235847Y-110387425D01*
X104462325Y-115613904D01*
X104193969Y-115881730D01*
X103926153Y-115613914D01*
X103325222Y-115365000D01*
X102674778Y-115365000D01*
X102073847Y-115613914D01*
X101613914Y-116073847D01*
X101368326Y-116666748D01*
X94091985Y-109390407D01*
X94042609Y-109316511D01*
X93749870Y-109120908D01*
X93491725Y-109069560D01*
X93491721Y-109069560D01*
X93404560Y-109052223D01*
X93317399Y-109069560D01*
X91860105Y-109069560D01*
X96714678Y-104205355D01*
X96994474Y-104205355D01*
X98381166Y-105592048D01*
G04 #@! TD*
M02*
