M48
;DRILL file {KiCad 5.0.2-bee76a0~70~ubuntu18.04.1} date Wed 22 Jul 2020 02:23:39 AM EDT
;FORMAT={-:-/ absolute / inch / decimal}
FMAT,2
INCH,TZ
T1C0.0295
T2C0.0300
T3C0.0315
T4C0.0354
T5C0.0394
T6C0.0433
T7C0.0598
T8C0.0630
T9C0.0787
%
G90
G05
T1
X6.8315Y-5.7205
X6.8315Y-5.7912
X6.9022Y-5.7912
X4.1417Y-3.2386
X4.1417Y-3.2886
X4.1417Y-3.3386
X7.3744Y-5.1776
X7.3744Y-5.2483
X7.4451Y-5.2483
X4.815Y-3.3449
X4.815Y-3.3949
X4.815Y-3.4449
T2
X4.3695Y-5.1384
X4.4252Y-5.0827
X4.4809Y-5.027
X4.4325Y-1.6077
X4.4882Y-1.6634
X4.5439Y-1.7191
X3.8635Y-3.7178
X3.8635Y-3.857
X4.0027Y-3.7178
X5.9309Y-3.9743
X6.0097Y-3.9743
X6.0884Y-3.9743
T3
X3.5079Y-4.9567
X3.6634Y-4.6043
X3.7047Y-3.2677
X4.065Y-4.2028
X4.0821Y-4.7447
X4.0984Y-5.4646
X4.2165Y-4.0709
X4.5669Y-5.248
X4.6299Y-3.0039
X4.6614Y-5.1535
X4.7539Y-3.0728
X5.0335Y-3.2736
X5.0354Y-4.4409
X5.311Y-3.6831
X5.3228Y-4.4941
X6.0827Y-4.3406
X6.0906Y-5.811
X6.5551Y-4.5315
X7.1249Y-5.5017
X7.4078Y-5.7845
X5.0354Y-2.4213
X5.3183Y-2.1384
X7.5866Y-4.6512
X7.5866Y-5.0512
X7.252Y-4.5394
X7.3504Y-4.5394
X5.6833Y-4.8603
X5.9661Y-4.5775
X3.2362Y-5.0276
X3.5191Y-4.7447
X6.4139Y-5.3775
X6.4846Y-5.3068
X6.5553Y-5.2361
X6.626Y-5.1654
X6.626Y-5.5896
X6.6967Y-5.5189
X6.7674Y-5.4482
X6.8381Y-5.3775
X3.5831Y-5.3066
X3.6539Y-5.2359
X3.7246Y-5.1652
X3.7953Y-5.0945
X3.7953Y-5.5188
X3.866Y-5.448
X3.9367Y-5.3773
X4.0074Y-5.3066
X5.465Y-4.6387
X5.7478Y-4.3559
X4.2017Y-4.4676
X4.2724Y-4.3969
X4.3431Y-4.3261
X4.4139Y-4.2554
X4.4139Y-4.6797
X4.4846Y-4.1847
X4.4846Y-4.609
X4.5553Y-4.114
X4.5553Y-4.5383
X4.626Y-4.0433
X4.626Y-4.4676
X4.6967Y-4.3969
X4.7674Y-4.3261
X4.8381Y-4.2554
X3.4843Y-3.9567
X3.4843Y-4.3567
X5.2926Y-4.0997
X5.3622Y-4.1693
X7.2402Y-5.378
X7.523Y-5.6608
X4.7362Y-4.9685
X5.0191Y-4.6857
X6.626Y-5.7654
X6.626Y-6.1654
X3.7402Y-3.9488
X3.7402Y-4.3488
X4.0748Y-4.3583
X4.1444Y-4.2887
X5.1738Y-5.1471
X5.4567Y-4.8642
X4.0492Y-2.6591
X4.0492Y-3.0591
X4.3917Y-3.2854
X4.3917Y-3.6854
X7.4849Y-5.3983
X7.7677Y-5.6811
X4.1969Y-3.8937
X4.2664Y-3.9633
X4.5977Y-3.2854
X4.5977Y-3.6854
X5.5736Y-4.7473
X5.8564Y-4.4645
X6.8674Y-5.2099
X6.937Y-5.2795
X3.7572Y-2.3458
X3.8268Y-2.4154
X3.7913Y-3.2441
X4.0742Y-3.5269
X7.0039Y-5.6063
X7.2868Y-5.8891
X4.0013Y-5.0249
X4.0709Y-5.0945
X7.5866Y-4.0213
X7.5866Y-4.4213
X7.0433Y-5.8701
X7.3261Y-6.1529
T4
X4.3504Y-2.6165
X4.3504Y-2.7165
T5
X5.0768Y-3.9134
X4.1969Y-3.685
X6.3776Y-4.5628
X4.0551Y-4.6063
X7.8228Y-4.5394
X5.685Y-5.0512
X4.5945Y-4.7874
X5.1024Y-5.5276
X5.172Y-5.458
X5.2416Y-5.3884
X4.7756Y-3.8937
X3.0709Y-3.4882
X3.1405Y-3.4186
X3.2101Y-3.349
X7.8858Y-5.3504
X4.2087Y-1.3937
X6.4114Y-5.0965
X5.3805Y-1.8518
X5.4501Y-1.7822
X5.5197Y-1.7126
X7.0537Y-3.7545
X7.1233Y-3.8241
X7.1929Y-3.8937
X3.8228Y-4.6102
X5.5335Y-2.1319
X6.9843Y-4.1496
X6.2224Y-5.9862
X6.6003Y-4.3401
X6.4134Y-3.7559
X6.6102Y-3.7559
X4.7303Y-5.3091
T6
X5.1496Y-3.0965
X5.4324Y-3.3793
X4.3504Y-2.3681
X4.4211Y-2.2974
X4.4918Y-2.2267
T7
X6.2016Y-6.4016
X6.4016Y-6.4016
T8
X4.3111Y-5.1968
X4.5393Y-4.9685
X4.374Y-1.5492
X4.6023Y-1.7775
X5.8482Y-3.9743
X6.1711Y-3.9743
T9
X5.5174Y-3.0096
X5.878Y-3.3701
T0
M30
